solid OpenSCAD_Model
  facet normal 0.9709835434243437 -4.35941686567143e-11 -0.23914631169872963
    outer loop
      vertex -0.859532503703283 7.19719364002703e-11 -0.511081084508867
      vertex -0.607781262027696 0.607781262125884 0.511081084502927
      vertex -0.607781262082271 -0.607781262067567 0.511081084502927
    endloop
  endfacet
  facet normal 0.6865890480025739 0.6865890479100977 0.23914631181104334
    outer loop
      vertex -8.60902066705927e-12 -0.859532503738472 -0.511081084508867
      vertex -0.859532503703283 7.19719364002703e-11 -0.511081084508867
      vertex -0.607781262082271 -0.607781262067567 0.511081084502927
    endloop
  endfacet
  facet normal 0 0.9709835434193571 -0.23914631171897513
    outer loop
      vertex 0.607781262002035 -0.607781262067567 0.511081084502927
      vertex -8.60902066705927e-12 -0.859532503738472 -0.511081084508867
      vertex -0.607781262082271 -0.607781262067567 0.511081084502927
    endloop
  endfacet
  facet normal 0 0 -1
    outer loop
      vertex -0.607781262082271 -0.607781262067567 0.511081084502927
      vertex 0.607781262056614 0.607781262016739 0.511081084502927
      vertex 0.607781262002035 -0.607781262067567 0.511081084502927
    endloop
  endfacet
  facet normal 0 0 -1
    outer loop
      vertex 0.607781262056614 0.607781262016739 0.511081084502927
      vertex -0.607781262082271 -0.607781262067567 0.511081084502927
      vertex -0.607781262027696 0.607781262125884 0.511081084502927
    endloop
  endfacet
  facet normal -8.718435882755125e-11 -0.970983543422451 -0.23914631170641332
    outer loop
      vertex 6.85706768713028e-11 0.859532503727236 -0.511081084504992
      vertex 0.607781262056614 0.607781262016739 0.511081084502927
      vertex -0.607781262027696 0.607781262125884 0.511081084502927
    endloop
  endfacet
  facet normal 0.6865890479118061 -0.6865890480060154 0.23914631179625784
    outer loop
      vertex -0.859532503703283 7.19719364002703e-11 -0.511081084508867
      vertex 6.85706768713028e-11 0.859532503727236 -0.511081084504992
      vertex -0.607781262027696 0.607781262125884 0.511081084502927
    endloop
  endfacet
  facet normal -0.9709835434195101 4.359734001939315e-11 -0.23914631171835452
    outer loop
      vertex 0.859532503694639 -6.82249907909374e-11 -0.511081084488982
      vertex 0.607781262002035 -0.607781262067567 0.511081084502927
      vertex 0.607781262056614 0.607781262016739 0.511081084502927
    endloop
  endfacet
  facet normal -0.6865890480366141 -0.6865890478968499 0.2391463117513489
    outer loop
      vertex 6.85706768713028e-11 0.859532503727236 -0.511081084504992
      vertex 0.859532503694639 -6.82249907909374e-11 -0.511081084488982
      vertex 0.607781262056614 0.607781262016739 0.511081084502927
    endloop
  endfacet
  facet normal -0.686589047960694 0.6865890479815224 0.2391463117262206
    outer loop
      vertex 0.859532503694639 -6.82249907909374e-11 -0.511081084488982
      vertex -8.60902066705927e-12 -0.859532503738472 -0.511081084508867
      vertex 0.607781262002035 -0.607781262067567 0.511081084502927
    endloop
  endfacet
  facet normal -2.0880509767405953e-11 -2.2541389676416474e-12 1
    outer loop
      vertex 6.85706768713028e-11 0.859532503727236 -0.511081084504992
      vertex -8.60902066705927e-12 -0.859532503738472 -0.511081084508867
      vertex 0.859532503694639 -6.82249907909374e-11 -0.511081084488982
    endloop
  endfacet
  facet normal -2.254138968781512e-12 -2.254138968477903e-12 1
    outer loop
      vertex -8.60902066705927e-12 -0.859532503738472 -0.511081084508867
      vertex 6.85706768713028e-11 0.859532503727236 -0.511081084504992
      vertex -0.859532503703283 7.19719364002703e-11 -0.511081084508867
    endloop
  endfacet
endsolid OpenSCAD_Model
