solid OpenSCAD_Model
  facet normal 0.9341723589897605 0.3035309990564882 -0.18759247402621498
    outer loop
      vertex -0.850650808296788 -0.276393202165862 -0.447213595480514
      vertex -0.850650808336613 0.276393202340268 0.447213595473526
      vertex -0.525731112132344 -0.723606797754912 0.447213595473526
    endloop
  endfacet
  facet normal 0.5773502692367999 0.7946544722366534 0.18759247417335442
    outer loop
      vertex -1.00939074433604e-11 -0.894427190961642 -0.447213595480514
      vertex -0.850650808296788 -0.276393202165862 -0.447213595480514
      vertex -0.525731112132344 -0.723606797754912 0.447213595473526
    endloop
  endfacet
  facet normal 0 0.9822469463838162 -0.1875924740485837
    outer loop
      vertex 0.525731112057646 -0.723606797754912 0.447213595473526
      vertex -1.00939074433604e-11 -0.894427190961642 -0.447213595480514
      vertex -0.525731112132344 -0.723606797754912 0.447213595473526
    endloop
  endfacet
  facet normal 0 0 -1
    outer loop
      vertex 0.525731112057646 -0.723606797754912 0.447213595473526
      vertex 4.29649456012758e-11 0.894427190970124 0.447213595473526
      vertex 0.850650808311554 0.276393202187503 0.447213595473526
    endloop
  endfacet
  facet normal 0 0 -1
    outer loop
      vertex -0.525731112132344 -0.723606797754912 0.447213595473526
      vertex 4.29649456012758e-11 0.894427190970124 0.447213595473526
      vertex 0.525731112057646 -0.723606797754912 0.447213595473526
    endloop
  endfacet
  facet normal 0 0 -1
    outer loop
      vertex 4.29649456012758e-11 0.894427190970124 0.447213595473526
      vertex -0.525731112132344 -0.723606797754912 0.447213595473526
      vertex -0.850650808336613 0.276393202340268 0.447213595473526
    endloop
  endfacet
  facet normal 0.5773502691137855 -0.7946544723674493 -0.18759247399789347
    outer loop
      vertex -0.525731112000817 0.723606797735226 -0.447213595492425
      vertex 4.29649456012758e-11 0.894427190970124 0.447213595473526
      vertex -0.850650808336613 0.276393202340268 0.447213595473526
    endloop
  endfacet
  facet normal 0.9341723589194036 -0.3035309991759718 0.18759247418324937
    outer loop
      vertex -0.850650808296788 -0.276393202165862 -0.447213595480514
      vertex -0.525731112000817 0.723606797735226 -0.447213595492425
      vertex -0.850650808336613 0.276393202340268 0.447213595473526
    endloop
  endfacet
  facet normal -0.5773502692434114 -0.7946544722457595 -0.1875924741144319
    outer loop
      vertex 0.525731112160332 0.723606797691579 -0.447213595452447
      vertex 0.850650808311554 0.276393202187503 0.447213595473526
      vertex 4.29649456012758e-11 0.894427190970124 0.447213595473526
    endloop
  endfacet
  facet normal -4.790631800980238e-11 -0.9822469463733879 0.18759247410318627
    outer loop
      vertex -0.525731112000817 0.723606797735226 -0.447213595492425
      vertex 0.525731112160332 0.723606797691579 -0.447213595452447
      vertex 4.29649456012758e-11 0.894427190970124 0.447213595473526
    endloop
  endfacet
  facet normal -0.9341723589669555 0.3035309991418188 -0.1875924740017117
    outer loop
      vertex 0.850650808204158 -0.276393202287373 -0.447213595461731
      vertex 0.525731112057646 -0.723606797754912 0.447213595473526
      vertex 0.850650808311554 0.276393202187503 0.447213595473526
    endloop
  endfacet
  facet normal -0.9341723590082082 -0.30353099894962127 0.18759247410726385
    outer loop
      vertex 0.525731112160332 0.723606797691579 -0.447213595452447
      vertex 0.850650808204158 -0.276393202287373 -0.447213595461731
      vertex 0.850650808311554 0.276393202187503 0.447213595473526
    endloop
  endfacet
  facet normal -0.5773502692043083 0.7946544722747941 0.187592474111786
    outer loop
      vertex 0.850650808204158 -0.276393202287373 -0.447213595461731
      vertex -1.00939074433604e-11 -0.894427190961642 -0.447213595480514
      vertex 0.525731112057646 -0.723606797754912 0.447213595473526
    endloop
  endfacet
  facet normal -1.2406662077868362e-11 -1.3315186870362656e-11 1
    outer loop
      vertex 0.525731112160332 0.723606797691579 -0.447213595452447
      vertex -1.00939074433604e-11 -0.894427190961642 -0.447213595480514
      vertex 0.850650808204158 -0.276393202287373 -0.447213595461731
    endloop
  endfacet
  facet normal -3.802135728255898e-11 -4.992467884046838e-12 1
    outer loop
      vertex -0.525731112000817 0.723606797735226 -0.447213595492425
      vertex -1.00939074433604e-11 -0.894427190961642 -0.447213595480514
      vertex 0.525731112160332 0.723606797691579 -0.447213595452447
    endloop
  endfacet
  facet normal 7.0011264344375524e-12 9.636223845836987e-12 1
    outer loop
      vertex -1.00939074433604e-11 -0.894427190961642 -0.447213595480514
      vertex -0.525731112000817 0.723606797735226 -0.447213595492425
      vertex -0.850650808296788 -0.276393202165862 -0.447213595480514
    endloop
  endfacet
endsolid OpenSCAD_Model
