solid OpenSCAD_Model
  facet normal 0.8555996772072159 0.49398070388585225 -0.15470053830334882
    outer loop
      vertex -0.796225216961678 -0.459700843271267 -0.393319893165315
      vertex -0.91940168675787 1.12461764205915e-10 0.39331989315425
      vertex -0.459700843386913 -0.796225216998373 0.39331989315425
    endloop
  endfacet
  facet normal 0.4939807039870621 0.8555996771163809 0.1547005384825524
    outer loop
      vertex -1.59556096395092e-11 -0.919401686689887 -0.393319893165315
      vertex -0.796225216961678 -0.459700843271267 -0.393319893165315
      vertex -0.459700843386913 -0.796225216998373 0.39331989315425
    endloop
  endfacet
  facet normal 0 0.9879614078704634 -0.154700538326833
    outer loop
      vertex 0.459700843307338 -0.796225216998373 0.39331989315425
      vertex -1.59556096395092e-11 -0.919401686689887 -0.393319893165315
      vertex -0.459700843386913 -0.796225216998373 0.39331989315425
    endloop
  endfacet
  facet normal 0 0 -1
    outer loop
      vertex 0.459700843307338 -0.796225216998373 0.39331989315425
      vertex 0.45970084337883 0.796225216934348 0.39331989315425
      vertex 0.919401686678294 -5.26499188023367e-11 0.39331989315425
    endloop
  endfacet
  facet normal 0 0 -1
    outer loop
      vertex -0.459700843386913 -0.796225216998373 0.39331989315425
      vertex 0.45970084337883 0.796225216934348 0.39331989315425
      vertex 0.459700843307338 -0.796225216998373 0.39331989315425
    endloop
  endfacet
  facet normal 0 0 -1
    outer loop
      vertex -0.459700843386913 -0.796225216998373 0.39331989315425
      vertex -0.459700843315417 0.796225217016911 0.39331989315425
      vertex 0.45970084337883 0.796225216934348 0.39331989315425
    endloop
  endfacet
  facet normal 0 0 -1
    outer loop
      vertex -0.459700843315417 0.796225217016911 0.39331989315425
      vertex -0.459700843386913 -0.796225216998373 0.39331989315425
      vertex -0.91940168675787 1.12461764205915e-10 0.39331989315425
    endloop
  endfacet
  facet normal 0.855599677130531 -0.49398070404644795 -0.15470053821466456
    outer loop
      vertex -0.796225216843109 0.459700843400213 -0.393319893192307
      vertex -0.459700843315417 0.796225217016911 0.39331989315425
      vertex -0.91940168675787 1.12461764205915e-10 0.39331989315425
    endloop
  endfacet
  facet normal 0.9879614078393959 -1.2286900203931694e-10 0.15470053852523905
    outer loop
      vertex -0.796225216961678 -0.459700843271267 -0.393319893165315
      vertex -0.796225216843109 0.459700843400213 -0.393319893192307
      vertex -0.91940168675787 1.12461764205915e-10 0.39331989315425
    endloop
  endfacet
  facet normal -8.871967947296025e-11 -0.9879614078469531 -0.15470053847697615
    outer loop
      vertex 6.66001808275708e-11 0.919401686785079 -0.3933198931363
      vertex 0.45970084337883 0.796225216934348 0.39331989315425
      vertex -0.459700843315417 0.796225217016911 0.39331989315425
    endloop
  endfacet
  facet normal 0.49398070397481864 -0.8555996771381468 0.15470053840126663
    outer loop
      vertex -0.796225216843109 0.459700843400213 -0.393319893192307
      vertex 6.66001808275708e-11 0.919401686785079 -0.3933198931363
      vertex -0.459700843315417 0.796225217016911 0.39331989315425
    endloop
  endfacet
  facet normal -0.8555996772185424 -0.49398070389239623 -0.15470053821980925
    outer loop
      vertex 0.796225216868338 0.459700843215036 -0.393319893153869
      vertex 0.919401686678294 -5.26499188023367e-11 0.39331989315425
      vertex 0.45970084337883 0.796225216934348 0.39331989315425
    endloop
  endfacet
  facet normal -0.49398070417953444 -0.8555996770191138 0.1547005384059138
    outer loop
      vertex 6.66001808275708e-11 0.919401686785079 -0.3933198931363
      vertex 0.796225216868338 0.459700843215036 -0.393319893153869
      vertex 0.45970084337883 0.796225216934348 0.39331989315425
    endloop
  endfacet
  facet normal -0.8555996771388816 0.4939807039488342 -0.1547005384801744
    outer loop
      vertex 0.796225216981544 -0.459700843453501 -0.393319893112391
      vertex 0.459700843307338 -0.796225216998373 0.39331989315425
      vertex 0.919401686678294 -5.26499188023367e-11 0.39331989315425
    endloop
  endfacet
  facet normal -0.9879614078576258 -1.1466858693397206e-10 0.1547005384088176
    outer loop
      vertex 0.796225216868338 0.459700843215036 -0.393319893153869
      vertex 0.796225216981544 -0.459700843453501 -0.393319893112391
      vertex 0.919401686678294 -5.26499188023367e-11 0.39331989315425
    endloop
  endfacet
  facet normal -0.4939807038345202 0.8555996772291741 0.15470053834581624
    outer loop
      vertex 0.796225216981544 -0.459700843453501 -0.393319893112391
      vertex -1.59556096395092e-11 -0.919401686689887 -0.393319893165315
      vertex 0.459700843307338 -0.796225216998373 0.39331989315425
    endloop
  endfacet
  facet normal 4.811201010656929e-11 4.511410879274068e-11 1
    outer loop
      vertex 6.66001808275708e-11 0.919401686785079 -0.3933198931363
      vertex 0.796225216981544 -0.459700843453501 -0.393319893112391
      vertex 0.796225216868338 0.459700843215036 -0.393319893153869
    endloop
  endfacet
  facet normal -5.735845134216417e-11 -1.5779290504126016e-11 1
    outer loop
      vertex 6.66001808275708e-11 0.919401686785079 -0.3933198931363
      vertex -1.59556096395092e-11 -0.919401686689887 -0.393319893165315
      vertex 0.796225216981544 -0.459700843453501 -0.393319893112391
    endloop
  endfacet
  facet normal -6.123044415824166e-11 -1.5779290503952182e-11 1
    outer loop
      vertex -0.796225216843109 0.459700843400213 -0.393319893192307
      vertex -1.59556096395092e-11 -0.919401686689887 -0.393319893165315
      vertex 6.66001808275708e-11 0.919401686785079 -0.3933198931363
    endloop
  endfacet
  facet normal 1.6949955645519585e-11 2.935818435900558e-11 1
    outer loop
      vertex -1.59556096395092e-11 -0.919401686689887 -0.393319893165315
      vertex -0.796225216843109 0.459700843400213 -0.393319893192307
      vertex -0.796225216961678 -0.459700843271267 -0.393319893165315
    endloop
  endfacet
endsolid OpenSCAD_Model
