solid OpenSCAD_Model
  facet normal 0.7750134915026878 0.6180526354169137 -0.13177643128807562
    outer loop
      vertex -0.732657425151774 -0.584274799658141 -0.349050219221608
      vertex -0.913608865753605 -0.208525261636951 0.349050219211971
      vertex -0.406594196150436 -0.844301548016136 0.349050219211971
    endloop
  endfacet
  facet normal 0.4301000396214716 0.8931119347647541 0.13177643149807167
    outer loop
      vertex -1.10661414256102e-11 -0.93710401995625 -0.349050219221608
      vertex -0.732657425151774 -0.584274799658141 -0.349050219221608
      vertex -0.406594196150436 -0.844301548016136 0.349050219211971
    endloop
  endfacet
  facet normal 0 0.9912794621854201 -0.13177643131222086
    outer loop
      vertex 0.406594196086147 -0.844301548016136 0.349050219211971
      vertex -1.10661414256102e-11 -0.93710401995625 -0.349050219221608
      vertex -0.406594196150436 -0.844301548016136 0.349050219211971
    endloop
  endfacet
  facet normal 0 0 -1
    outer loop
      vertex 0.406594196086147 -0.844301548016136 0.349050219211971
      vertex 0.732657425169627 0.584274799661971 0.349050219211971
      vertex 0.913608865651865 -0.208525261801023 0.349050219211971
    endloop
  endfacet
  facet normal 0 0 -1
    outer loop
      vertex 0.406594196086147 -0.844301548016136 0.349050219211971
      vertex 5.20006538007797e-11 0.937104019948963 0.349050219211971
      vertex 0.732657425169627 0.584274799661971 0.349050219211971
    endloop
  endfacet
  facet normal 0 0 -1
    outer loop
      vertex -0.406594196150436 -0.844301548016136 0.349050219211971
      vertex 5.20006538007797e-11 0.937104019948963 0.349050219211971
      vertex 0.406594196086147 -0.844301548016136 0.349050219211971
    endloop
  endfacet
  facet normal 0 0 -1
    outer loop
      vertex -0.406594196150436 -0.844301548016136 0.349050219211971
      vertex -0.73265742512899 0.584274799793545 0.349050219211971
      vertex 5.20006538007797e-11 0.937104019948963 0.349050219211971
    endloop
  endfacet
  facet normal 0 0 -1
    outer loop
      vertex -0.73265742512899 0.584274799793545 0.349050219211971
      vertex -0.406594196150436 -0.844301548016136 0.349050219211971
      vertex -0.913608865753605 -0.208525261636951 0.349050219211971
    endloop
  endfacet
  facet normal 0.9664260164538095 -0.2205804318668761 -0.13177643111969345
    outer loop
      vertex -0.913608865518476 0.208525261810491 -0.34905021926136
      vertex -0.73265742512899 0.584274799793545 0.349050219211971
      vertex -0.913608865753605 -0.208525261636951 0.349050219211971
    endloop
  endfacet
  facet normal 0.9664260164630013 0.2205804315505741 0.13177643158174113
    outer loop
      vertex -0.732657425151774 -0.584274799658141 -0.349050219221608
      vertex -0.913608865518476 0.208525261810491 -0.34905021926136
      vertex -0.913608865753605 -0.208525261636951 0.349050219211971
    endloop
  endfacet
  facet normal 0.43010003945733094 -0.8931119348342095 -0.13177643156307356
    outer loop
      vertex -0.406594196112141 0.844301548125794 -0.349050219195331
      vertex 5.20006538007797e-11 0.937104019948963 0.349050219211971
      vertex -0.73265742512899 0.584274799793545 0.349050219211971
    endloop
  endfacet
  facet normal 0.7750134915704802 -0.6180526353068216 0.13177643140572023
    outer loop
      vertex -0.913608865518476 0.208525261810491 -0.34905021926136
      vertex -0.406594196112141 0.844301548125794 -0.349050219195331
      vertex -0.73265742512899 0.584274799793545 0.349050219211971
    endloop
  endfacet
  facet normal -0.4301000396429518 -0.8931119348093621 -0.13177643112563378
    outer loop
      vertex 0.406594196102809 0.844301547754883 -0.3490502192192
      vertex 0.732657425169627 0.584274799661971 0.349050219211971
      vertex 5.20006538007797e-11 0.937104019948963 0.349050219211971
    endloop
  endfacet
  facet normal -4.48273945294393e-10 -0.9912794621723586 0.1317764314104744
    outer loop
      vertex -0.406594196112141 0.844301548125794 -0.349050219195331
      vertex 0.406594196102809 0.844301547754883 -0.3490502192192
      vertex 5.20006538007797e-11 0.937104019948963 0.349050219211971
    endloop
  endfacet
  facet normal -0.9664260164354238 -0.2205804316800798 -0.1317764315672109
    outer loop
      vertex 0.913608865801338 0.208525261673867 -0.349050219165958
      vertex 0.913608865651865 -0.208525261801023 0.349050219211971
      vertex 0.732657425169627 0.584274799661971 0.349050219211971
    endloop
  endfacet
  facet normal -0.7750134912970414 -0.6180526356479819 0.13177643141379225
    outer loop
      vertex 0.406594196102809 0.844301547754883 -0.3490502192192
      vertex 0.913608865801338 0.208525261673867 -0.349050219165958
      vertex 0.732657425169627 0.584274799661971 0.349050219211971
    endloop
  endfacet
  facet normal -0.7750134914637761 0.6180526354997279 -0.13177643112851437
    outer loop
      vertex 0.732657424962703 -0.584274799684879 -0.349050219198736
      vertex 0.406594196086147 -0.844301548016136 0.349050219211971
      vertex 0.913608865651865 -0.208525261801023 0.349050219211971
    endloop
  endfacet
  facet normal -0.9664260163556477 0.22058043211987713 0.13177643141609874
    outer loop
      vertex 0.913608865801338 0.208525261673867 -0.349050219165958
      vertex 0.732657424962703 -0.584274799684879 -0.349050219198736
      vertex 0.913608865651865 -0.208525261801023 0.349050219211971
    endloop
  endfacet
  facet normal -0.4301000396773085 0.8931119347363411 0.13177643150839705
    outer loop
      vertex 0.732657424962703 -0.584274799684879 -0.349050219198736
      vertex -1.10661414256102e-11 -0.93710401995625 -0.349050219221608
      vertex 0.406594196086147 -0.844301548016136 0.349050219211971
    endloop
  endfacet
  facet normal -1.2195162839323028e-10 -1.350993798574992e-11 1
    outer loop
      vertex 0.406594196102809 0.844301547754883 -0.3490502192192
      vertex 0.732657424962703 -0.584274799684879 -0.349050219198736
      vertex 0.913608865801338 0.208525261673867 -0.349050219165958
    endloop
  endfacet
  facet normal -3.434156715030076e-11 6.486486777041553e-12 1
    outer loop
      vertex 0.406594196102809 0.844301547754883 -0.3490502192192
      vertex -1.10661414256102e-11 -0.93710401995625 -0.349050219221608
      vertex 0.732657424962703 -0.584274799684879 -0.349050219198736
    endloop
  endfacet
  facet normal 2.9352315635214856e-11 -8.051226328808343e-12 1
    outer loop
      vertex -0.406594196112141 0.844301548125794 -0.349050219195331
      vertex -1.10661414256102e-11 -0.93710401995625 -0.349050219221608
      vertex 0.406594196102809 0.844301547754883 -0.3490502192192
    endloop
  endfacet
  facet normal -7.980780734242214e-12 -1.6572261952743396e-11 1
    outer loop
      vertex -0.406594196112141 0.844301548125794 -0.349050219195331
      vertex -0.732657425151774 -0.584274799658141 -0.349050219221608
      vertex -1.10661414256102e-11 -0.93710401995625 -0.349050219221608
    endloop
  endfacet
  facet normal -1.501358690979058e-10 1.5873709316606605e-11 1
    outer loop
      vertex -0.732657425151774 -0.584274799658141 -0.349050219221608
      vertex -0.406594196112141 0.844301548125794 -0.349050219195331
      vertex -0.913608865518476 0.208525261810491 -0.34905021926136
    endloop
  endfacet
endsolid OpenSCAD_Model
