solid OpenSCAD_Model
  facet normal 0.702428391436458 0.7024283913418465 -0.114842108744554
    outer loop
      vertex -0.671644422642917 -0.67164442255394 -0.312709991391998
      vertex -0.877545728277338 -0.363491342109282 0.312709991378293
      vertex -0.363491342243674 -0.877545728212185 0.312709991378293
    endloop
  endfacet
  facet normal 0.3801515061132615 0.9177669216112414 0.11484210898465952
    outer loop
      vertex -1.60567043259204e-11 -0.949848651560057 -0.312709991391998
      vertex -0.671644422642917 -0.67164442255394 -0.312709991391998
      vertex -0.363491342243674 -0.877545728212185 0.312709991378293
    endloop
  endfacet
  facet normal 0 0.9933837576956156 -0.11484210876912042
    outer loop
      vertex 0.363491342173872 -0.877545728212185 0.312709991378293
      vertex -1.60567043259204e-11 -0.949848651560057 -0.312709991391998
      vertex -0.363491342243674 -0.877545728212185 0.312709991378293
    endloop
  endfacet
  facet normal 0 0 -1
    outer loop
      vertex 0.363491342173872 -0.877545728212185 0.312709991378293
      vertex 0.8775457281749 0.363491342150666 0.312709991378293
      vertex 0.877545728142258 -0.363491342266878 0.312709991378293
    endloop
  endfacet
  facet normal 0 0 -1
    outer loop
      vertex 0.363491342173872 -0.877545728212185 0.312709991378293
      vertex 0.36349134225267 0.877545728142133 0.312709991378293
      vertex 0.8775457281749 0.363491342150666 0.312709991378293
    endloop
  endfacet
  facet normal 0 0 -1
    outer loop
      vertex -0.363491342243674 -0.877545728212185 0.312709991378293
      vertex 0.36349134225267 0.877545728142133 0.312709991378293
      vertex 0.363491342173872 -0.877545728212185 0.312709991378293
    endloop
  endfacet
  facet normal 0 0 -1
    outer loop
      vertex -0.363491342243674 -0.877545728212185 0.312709991378293
      vertex -0.363491342164876 0.877545728207416 0.312709991378293
      vertex 0.36349134225267 0.877545728142133 0.312709991378293
    endloop
  endfacet
  facet normal 0 0 -1
    outer loop
      vertex -0.877545728277338 -0.363491342109282 0.312709991378293
      vertex -0.363491342164876 0.877545728207416 0.312709991378293
      vertex -0.363491342243674 -0.877545728212185 0.312709991378293
    endloop
  endfacet
  facet normal 0 0 -1
    outer loop
      vertex -0.363491342164876 0.877545728207416 0.312709991378293
      vertex -0.877545728277338 -0.363491342109282 0.312709991378293
      vertex -0.877545728179421 0.363491342308261 0.312709991378293
    endloop
  endfacet
  facet normal 0.9933837577291503 -1.3379846692229718e-10 -0.11484210847904495
    outer loop
      vertex -0.949848651396985 1.28072838734187e-10 -0.312709991442182
      vertex -0.877545728179421 0.363491342308261 0.312709991378293
      vertex -0.877545728277338 -0.363491342109282 0.312709991378293
    endloop
  endfacet
  facet normal 0.9177669217268337 0.380151505794094 0.11484210911740807
    outer loop
      vertex -0.671644422642917 -0.67164442255394 -0.312709991391998
      vertex -0.949848651396985 1.28072838734187e-10 -0.312709991442182
      vertex -0.877545728277338 -0.363491342109282 0.312709991378293
    endloop
  endfacet
  facet normal 0.7024283912782557 -0.70242839143593 -0.11484210913673364
    outer loop
      vertex -0.671644422716019 0.671644422839836 -0.312709991369975
      vertex -0.363491342164876 0.877545728207416 0.312709991378293
      vertex -0.877545728179421 0.363491342308261 0.312709991378293
    endloop
  endfacet
  facet normal 0.9177669217919722 -0.3801515057081121 0.11484210888146999
    outer loop
      vertex -0.949848651396985 1.28072838734187e-10 -0.312709991442182
      vertex -0.671644422716019 0.671644422839836 -0.312709991369975
      vertex -0.877545728179421 0.363491342308261 0.312709991378293
    endloop
  endfacet
  facet normal -8.9205806137821e-11 -0.9933837577284227 -0.11484210848533923
    outer loop
      vertex 6.92335808477141e-11 0.94984865134241 -0.312709991399055
      vertex 0.36349134225267 0.877545728142133 0.312709991378293
      vertex -0.363491342164876 0.877545728207416 0.312709991378293
    endloop
  endfacet
  facet normal 0.380151505458045 -0.9177669218949758 0.11484210888608525
    outer loop
      vertex -0.671644422716019 0.671644422839836 -0.312709991369975
      vertex 6.92335808477141e-11 0.94984865134241 -0.312709991399055
      vertex -0.363491342164876 0.877545728207416 0.312709991378293
    endloop
  endfacet
  facet normal -0.7024283914040094 -0.7024283913094006 -0.11484210914147883
    outer loop
      vertex 0.671644422792968 0.671644422692055 -0.312709991337491
      vertex 0.8775457281749 0.363491342150666 0.312709991378293
      vertex 0.36349134225267 0.877545728142133 0.312709991378293
    endloop
  endfacet
  facet normal -0.38015150566471523 -0.9177669218089369 0.11484210888954796
    outer loop
      vertex 6.92335808477141e-11 0.94984865134241 -0.312709991399055
      vertex 0.671644422792968 0.671644422692055 -0.312709991337491
      vertex 0.36349134225267 0.877545728142133 0.312709991378293
    endloop
  endfacet
  facet normal -0.9933837577280089 4.4603588880752244e-11 -0.11484210848891792
    outer loop
      vertex 0.949848651325669 -8.01931249831506e-11 -0.312709991374587
      vertex 0.877545728142258 -0.363491342266878 0.312709991378293
      vertex 0.8775457281749 0.363491342150666 0.312709991378293
    endloop
  endfacet
  facet normal -0.9177669218766847 -0.38015150550036675 0.11484210889216519
    outer loop
      vertex 0.671644422792968 0.671644422692055 -0.312709991337491
      vertex 0.949848651325669 -8.01931249831506e-11 -0.312709991374587
      vertex 0.8775457281749 0.363491342150666 0.312709991378293
    endloop
  endfacet
  facet normal -0.7024283913407173 0.7024283913722535 -0.1148421091441643
    outer loop
      vertex 0.671644422705716 -0.671644422816129 -0.312709991319062
      vertex 0.363491342173872 -0.877545728212185 0.312709991378293
      vertex 0.877545728142258 -0.363491342266878 0.312709991378293
    endloop
  endfacet
  facet normal -0.9177669218259413 0.38015150562227723 0.1148421088941346
    outer loop
      vertex 0.949848651325669 -8.01931249831506e-11 -0.312709991374587
      vertex 0.671644422705716 -0.671644422816129 -0.312709991319062
      vertex 0.877545728142258 -0.363491342266878 0.312709991378293
    endloop
  endfacet
  facet normal -0.38015150578261797 0.9177669217775168 0.11484210875035997
    outer loop
      vertex 0.671644422705716 -0.671644422816129 -0.312709991319062
      vertex -1.60567043259204e-11 -0.949848651560057 -0.312709991391998
      vertex 0.363491342173872 -0.877545728212185 0.312709991378293
    endloop
  endfacet
  facet normal 1.664621830633036e-10 1.3719298430052479e-11 1
    outer loop
      vertex 0.671644422792968 0.671644422692055 -0.312709991337491
      vertex 0.671644422705716 -0.671644422816129 -0.312709991319062
      vertex 0.949848651325669 -8.01931249831506e-11 -0.312709991374587
    endloop
  endfacet
  facet normal -8.597884139811612e-11 1.3719298446449533e-11 1
    outer loop
      vertex 6.92335808477141e-11 0.94984865134241 -0.312709991399055
      vertex 0.671644422705716 -0.671644422816129 -0.312709991319062
      vertex 0.671644422792968 0.671644422692055 -0.312709991337491
    endloop
  endfacet
  facet normal -1.1013187460532231e-10 3.7147845191901114e-12 1
    outer loop
      vertex 6.92335808477141e-11 0.94984865134241 -0.312709991399055
      vertex -1.60567043259204e-11 -0.949848651560057 -0.312709991391998
      vertex 0.671644422705716 -0.671644422816129 -0.312709991319062
    endloop
  endfacet
  facet normal 4.175794654272631e-11 3.714784512370747e-12 1
    outer loop
      vertex -0.671644422716019 0.671644422839836 -0.312709991369975
      vertex -1.60567043259204e-11 -0.949848651560057 -0.312709991391998
      vertex 6.92335808477141e-11 0.94984865134241 -0.312709991399055
    endloop
  endfacet
  facet normal -6.790961642902799e-12 -1.639483169620804e-11 1
    outer loop
      vertex -0.671644422716019 0.671644422839836 -0.312709991369975
      vertex -0.671644422642917 -0.67164442255394 -0.312709991391998
      vertex -1.60567043259204e-11 -0.949848651560057 -0.312709991391998
    endloop
  endfacet
  facet normal -2.1996597838796971e-10 -1.6394831707809055e-11 1
    outer loop
      vertex -0.671644422642917 -0.67164442255394 -0.312709991391998
      vertex -0.671644422716019 0.671644422839836 -0.312709991369975
      vertex -0.949848651396985 1.28072838734187e-10 -0.312709991442182
    endloop
  endfacet
endsolid OpenSCAD_Model
