solid OpenSCAD_Model
  facet normal 0.639448094620336 0.7620645639332231 -0.10180242965513299
    outer loop
      vertex -0.616577778661649 -0.734808782758794 -0.282644467650196
      vertex -0.830712994066342 -0.479612370597259 0.282644467638545
      vertex -0.328074183544054 -0.901376411181717 0.282644467638545
    endloop
  endfacet
  facet normal 0.3402432245103691 0.9348105762325145 0.10180242992493195
    outer loop
      vertex -1.02077002329219e-11 -0.959224741353626 -0.282644467650196
      vertex -0.616577778661649 -0.734808782758794 -0.282644467650196
      vertex -0.328074183544054 -0.901376411181717 0.282644467638545
    endloop
  endfacet
  facet normal 0 0.994804636756007 -0.10180242967998834
    outer loop
      vertex 0.328074183489623 -0.901376411181717 0.282644467638545
      vertex -1.02077002329219e-11 -0.959224741353626 -0.282644467650196
      vertex -0.328074183544054 -0.901376411181717 0.282644467638545
    endloop
  endfacet
  facet normal 0 0 -1
    outer loop
      vertex 0.830712993925776 -0.479612370746444 0.282644467638545
      vertex 0.616577778683275 0.734808782752553 0.282644467638545
      vertex 0.944651962166099 0.166567628230073 0.282644467638545
    endloop
  endfacet
  facet normal 0 0 -1
    outer loop
      vertex 0.328074183489623 -0.901376411181717 0.282644467638545
      vertex 0.616577778683275 0.734808782752553 0.282644467638545
      vertex 0.830712993925776 -0.479612370746444 0.282644467638545
    endloop
  endfacet
  facet normal 0 0 -1
    outer loop
      vertex 0.328074183489623 -0.901376411181717 0.282644467638545
      vertex 5.89161868251855e-11 0.959224741337526 0.282644467638545
      vertex 0.616577778683275 0.734808782752553 0.282644467638545
    endloop
  endfacet
  facet normal 0 0 -1
    outer loop
      vertex -0.328074183544054 -0.901376411181717 0.282644467638545
      vertex 5.89161868251855e-11 0.959224741337526 0.282644467638545
      vertex 0.328074183489623 -0.901376411181717 0.282644467638545
    endloop
  endfacet
  facet normal 0 0 -1
    outer loop
      vertex -0.328074183544054 -0.901376411181717 0.282644467638545
      vertex -0.616577778605744 0.734808782863284 0.282644467638545
      vertex 5.89161868251855e-11 0.959224741337526 0.282644467638545
    endloop
  endfacet
  facet normal 0 0 -1
    outer loop
      vertex -0.830712994066342 -0.479612370597259 0.282644467638545
      vertex -0.616577778605744 0.734808782863284 0.282644467638545
      vertex -0.328074183544054 -0.901376411181717 0.282644467638545
    endloop
  endfacet
  facet normal 0 0 -1
    outer loop
      vertex -0.616577778605744 0.734808782863284 0.282644467638545
      vertex -0.830712994066342 -0.479612370597259 0.282644467638545
      vertex -0.944651962190615 0.16656762839972 0.282644467638545
    endloop
  endfacet
  facet normal 0.9796913190746623 0.1727460121776328 -0.10180242927589402
    outer loop
      vertex -0.94465196196235 -0.166567628150237 -0.282644467708849
      vertex -0.944651962190615 0.16656762839972 0.282644467638545
      vertex -0.830712994066342 -0.479612370597259 0.282644467638545
    endloop
  endfacet
  facet normal 0.8615260873721338 0.4974023180484645 0.10180243011478872
    outer loop
      vertex -0.616577778661649 -0.734808782758794 -0.282644467650196
      vertex -0.94465196196235 -0.166567628150237 -0.282644467708849
      vertex -0.830712994066342 -0.479612370597259 0.282644467638545
    endloop
  endfacet
  facet normal 0.8615260871293613 -0.4974023184555475 -0.1018024301803168
    outer loop
      vertex -0.830712994128851 0.479612370880939 -0.282644467632826
      vertex -0.616577778605744 0.734808782863284 0.282644467638545
      vertex -0.944651962190615 0.16656762839972 0.282644467638545
    endloop
  endfacet
  facet normal 0.979691319095625 -0.17274601174331364 0.10180242981114485
    outer loop
      vertex -0.94465196196235 -0.166567628150237 -0.282644467708849
      vertex -0.830712994128851 0.479612370880939 -0.282644467632826
      vertex -0.944651962190615 0.16656762839972 0.282644467638545
    endloop
  endfacet
  facet normal 0.34024322436497884 -0.9348105763554204 -0.10180242928225895
    outer loop
      vertex -0.328074183351013 0.901376410882483 -0.282644467666391
      vertex 5.89161868251855e-11 0.959224741337526 0.282644467638545
      vertex -0.616577778605744 0.734808782863284 0.282644467638545
    endloop
  endfacet
  facet normal 0.6394480939043781 -0.7620645645125608 0.10180242981549531
    outer loop
      vertex -0.830712994128851 0.479612370880939 -0.282644467632826
      vertex -0.328074183351013 0.901376410882483 -0.282644467666391
      vertex -0.616577778605744 0.734808782863284 0.282644467638545
    endloop
  endfacet
  facet normal -0.34024322450125066 -0.9348105762074691 -0.10180243018538834
    outer loop
      vertex 0.328074183665425 0.901376411292747 -0.282644467599015
      vertex 0.616577778683275 0.734808782752553 0.282644467638545
      vertex 5.89161868251855e-11 0.959224741337526 0.282644467638545
    endloop
  endfacet
  facet normal 6.115591450310194e-10 -0.9948046367417862 0.10180242981895246
    outer loop
      vertex -0.328074183351013 0.901376410882483 -0.282644467666391
      vertex 0.328074183665425 0.901376411292747 -0.282644467599015
      vertex 5.89161868251855e-11 0.959224741337526 0.282644467638545
    endloop
  endfacet
  facet normal -0.8615260872979181 -0.49740231834657633 -0.10180242928629454
    outer loop
      vertex 0.830712993733583 0.479612370445965 -0.282644467639466
      vertex 0.944651962166099 0.166567628230073 0.282644467638545
      vertex 0.616577778683275 0.734808782752553 0.282644467638545
    endloop
  endfacet
  facet normal -0.6394480951769901 -0.7620645634438821 0.10180242982171252
    outer loop
      vertex 0.328074183665425 0.901376411292747 -0.282644467599015
      vertex 0.830712993733583 0.479612370445965 -0.282644467639466
      vertex 0.616577778683275 0.734808782752553 0.282644467638545
    endloop
  endfacet
  facet normal -0.9796913189516567 0.1727460123373605 -0.1018024301885943
    outer loop
      vertex 0.944651962374971 -0.166567628442059 -0.282644467577575
      vertex 0.830712993925776 -0.479612370746444 0.282644467638545
      vertex 0.944651962166099 0.166567628230073 0.282644467638545
    endloop
  endfacet
  facet normal -0.9796913188820453 -0.17274601294705832 0.1018024298239168
    outer loop
      vertex 0.830712993733583 0.479612370445965 -0.282644467639466
      vertex 0.944651962374971 -0.166567628442059 -0.282644467577575
      vertex 0.944651962166099 0.166567628230073 0.282644467638545
    endloop
  endfacet
  facet normal -0.6394480945760034 0.762064564019353 -0.10180242928885377
    outer loop
      vertex 0.616577778423158 -0.734808782673433 -0.282644467622393
      vertex 0.328074183489623 -0.901376411181717 0.282644467638545
      vertex 0.830712993925776 -0.479612370746444 0.282644467638545
    endloop
  endfacet
  facet normal -0.8615260868353638 0.49740231903735393 0.10180242982565633
    outer loop
      vertex 0.944651962374971 -0.166567628442059 -0.282644467577575
      vertex 0.616577778423158 -0.734808782673433 -0.282644467622393
      vertex 0.830712993925776 -0.479612370746444 0.282644467638545
    endloop
  endfacet
  facet normal -0.34024322473086893 0.9348105761395162 0.10180243004194556
    outer loop
      vertex 0.616577778423158 -0.734808782673433 -0.282644467622393
      vertex -1.02077002329219e-11 -0.959224741353626 -0.282644467650196
      vertex 0.328074183489623 -0.901376411181717 0.282644467638545
    endloop
  endfacet
  facet normal -2.3173210338696214e-10 5.4919179688591296e-11 1
    outer loop
      vertex 0.830712993733583 0.479612370445965 -0.282644467639466
      vertex 0.616577778423158 -0.734808782673433 -0.282644467622393
      vertex 0.944651962374971 -0.166567628442059 -0.282644467577575
    endloop
  endfacet
  facet normal 8.03809220203526e-11 -1.1476773986934154e-13 1
    outer loop
      vertex 0.328074183665425 0.901376411292747 -0.282644467599015
      vertex 0.616577778423158 -0.734808782673433 -0.282644467622393
      vertex 0.830712993733583 0.479612370445965 -0.282644467639466
    endloop
  endfacet
  facet normal -3.7486280244588036e-11 -2.0897935612842445e-11 1
    outer loop
      vertex 0.328074183665425 0.901376411292747 -0.282644467599015
      vertex -1.02077002329219e-11 -0.959224741353626 -0.282644467650196
      vertex 0.616577778423158 -0.734808782673433 -0.282644467622393
    endloop
  endfacet
  facet normal -1.026840834423341e-10 -9.401803821715664e-12 1
    outer loop
      vertex -0.328074183351013 0.901376410882483 -0.282644467666391
      vertex -1.02077002329219e-11 -0.959224741353626 -0.282644467650196
      vertex 0.328074183665425 0.901376411292747 -0.282644467599015
    endloop
  endfacet
  facet normal 3.3853213883925537e-12 9.301094069895441e-12 1
    outer loop
      vertex -0.328074183351013 0.901376410882483 -0.282644467666391
      vertex -0.616577778661649 -0.734808782758794 -0.282644467650196
      vertex -1.02077002329219e-11 -0.959224741353626 -0.282644467650196
    endloop
  endfacet
  facet normal 6.862569563952974e-11 -2.2025441515069817e-12 1
    outer loop
      vertex -0.830712994128851 0.479612370880939 -0.282644467632826
      vertex -0.616577778661649 -0.734808782758794 -0.282644467650196
      vertex -0.328074183351013 0.901376410882483 -0.282644467666391
    endloop
  endfacet
  facet normal -2.930541933855407e-10 -6.597646700719599e-11 1
    outer loop
      vertex -0.616577778661649 -0.734808782758794 -0.282644467650196
      vertex -0.830712994128851 0.479612370880939 -0.282644467632826
      vertex -0.94465196196235 -0.166567628150237 -0.282644467708849
    endloop
  endfacet
endsolid OpenSCAD_Model
