solid OpenSCAD_Model
  facet normal 0.5853225994655775 0.8056274434259106 -0.09144329911967444
    outer loop
      vertex -0.567962867585792 -0.78173382234214 -0.257508080175607
      vertex -0.781733822543418 -0.567962867476518 0.257508080160383
      vertex -0.298595750033422 -0.918983224106594 0.257508080160383
    endloop
  endfacet
  facet normal 0.30772230120312055 0.9470718601741057 0.09144329941890349
    outer loop
      vertex -1.45876063051249e-11 -0.966276144795691 -0.257508080175607
      vertex -0.567962867585792 -0.78173382234214 -0.257508080175607
      vertex -0.298595750033422 -0.918983224106594 0.257508080160383
    endloop
  endfacet
  facet normal 0 0.9958102846634628 -0.091443299144734
    outer loop
      vertex 0.298595749973287 -0.918983224106594 0.257508080160383
      vertex -1.45876063051249e-11 -0.966276144795691 -0.257508080175607
      vertex -0.298595750033422 -0.918983224106594 0.257508080160383
    endloop
  endfacet
  facet normal 0 0 -1
    outer loop
      vertex 0.781733822381282 -0.567962867616907 0.257508080160383
      vertex 0.781733822432282 0.567962867501321 0.257508080160383
      vertex 0.966276144800023 -6.60772108108316e-11 0.257508080160383
    endloop
  endfacet
  facet normal 0 0 -1
    outer loop
      vertex 0.298595749973287 -0.918983224106594 0.257508080160383
      vertex 0.781733822432282 0.567962867501321 0.257508080160383
      vertex 0.781733822381282 -0.567962867616907 0.257508080160383
    endloop
  endfacet
  facet normal 0 0 -1
    outer loop
      vertex 0.298595749973287 -0.918983224106594 0.257508080160383
      vertex 0.298595750055807 0.918983224034391 0.257508080160383
      vertex 0.781733822432282 0.567962867501321 0.257508080160383
    endloop
  endfacet
  facet normal 0 0 -1
    outer loop
      vertex -0.298595750033422 -0.918983224106594 0.257508080160383
      vertex 0.298595750055807 0.918983224034391 0.257508080160383
      vertex 0.298595749973287 -0.918983224106594 0.257508080160383
    endloop
  endfacet
  facet normal 0 0 -1
    outer loop
      vertex -0.298595750033422 -0.918983224106594 0.257508080160383
      vertex -0.298595749950903 0.918983224088013 0.257508080160383
      vertex 0.298595750055807 0.918983224034391 0.257508080160383
    endloop
  endfacet
  facet normal 0 0 -1
    outer loop
      vertex -0.781733822543418 -0.567962867476518 0.257508080160383
      vertex -0.298595749950903 0.918983224088013 0.257508080160383
      vertex -0.298595750033422 -0.918983224106594 0.257508080160383
    endloop
  endfacet
  facet normal 0 0 -1
    outer loop
      vertex -0.781733822543418 -0.567962867476518 0.257508080160383
      vertex -0.78173382239042 0.567962867641709 0.257508080160383
      vertex -0.298595749950903 0.918983224088013 0.257508080160383
    endloop
  endfacet
  facet normal 0 0 -1
    outer loop
      vertex -0.78173382239042 0.567962867641709 0.257508080160383
      vertex -0.781733822543418 -0.567962867476518 0.257508080160383
      vertex -0.966276144860158 1.07454697950135e-10 0.257508080160383
    endloop
  endfacet
  facet normal 0.9470718603137858 0.3077223010134565 -0.09144329861049803
    outer loop
      vertex -0.918983223845401 -0.298595749785664 -0.257508080241157
      vertex -0.966276144860158 1.07454697950135e-10 0.257508080160383
      vertex -0.781733822543418 -0.567962867476518 0.257508080160383
    endloop
  endfacet
  facet normal 0.8056274436993768 0.5853225990026086 0.0914432996738349
    outer loop
      vertex -0.567962867585792 -0.78173382234214 -0.257508080175607
      vertex -0.918983223845401 -0.298595749785664 -0.257508080241157
      vertex -0.781733822543418 -0.567962867476518 0.257508080160383
    endloop
  endfacet
  facet normal 0.9470718601275577 -0.3077223012350073 -0.09144329979369144
    outer loop
      vertex -0.918983224335438 0.298595750205738 -0.257508080162766
      vertex -0.78173382239042 0.567962867641709 0.257508080160383
      vertex -0.966276144860158 1.07454697950135e-10 0.257508080160383
    endloop
  endfacet
  facet normal 0.9958102846496902 8.051279401336301e-10 0.09144329929471455
    outer loop
      vertex -0.918983223845401 -0.298595749785664 -0.257508080241157
      vertex -0.918983224335438 0.298595750205738 -0.257508080162766
      vertex -0.966276144860158 1.07454697950135e-10 0.257508080160383
    endloop
  endfacet
  facet normal 0.5853225993480421 -0.8056274435683894 -0.09144329861675439
    outer loop
      vertex -0.567962867312377 0.781733822207118 -0.257508080200244
      vertex -0.298595749950903 0.918983224088013 0.257508080160383
      vertex -0.78173382239042 0.567962867641709 0.257508080160383
    endloop
  endfacet
  facet normal 0.8056274428113507 -0.5853226002834674 0.09144329929876926
    outer loop
      vertex -0.918983224335438 0.298595750205738 -0.257508080162766
      vertex -0.567962867312377 0.781733822207118 -0.257508080200244
      vertex -0.78173382239042 0.567962867641709 0.257508080160383
    endloop
  endfacet
  facet normal -8.941409230529516e-11 -0.9958102846033933 -0.09144329979888587
    outer loop
      vertex 7.21771546470021e-11 0.966276145087172 -0.257508080128823
      vertex 0.298595750055807 0.918983224034391 0.257508080160383
      vertex -0.298595749950903 0.918983224088013 0.257508080160383
    endloop
  endfacet
  facet normal 0.3077223019307802 -0.9470718599489499 0.0914432993021265
    outer loop
      vertex -0.567962867312377 0.781733822207118 -0.257508080200244
      vertex 7.21771546470021e-11 0.966276145087172 -0.257508080128823
      vertex -0.298595749950903 0.918983224088013 0.257508080160383
    endloop
  endfacet
  facet normal -0.5853225994924942 -0.8056274434629519 -0.09144329862104496
    outer loop
      vertex 0.567962867417474 0.781733822086641 -0.257508080172084
      vertex 0.781733822432282 0.567962867501321 0.257508080160383
      vertex 0.298595750055807 0.918983224034391 0.257508080160383
    endloop
  endfacet
  facet normal -0.30772230213575047 -0.9470718598820806 0.09144329930492659
    outer loop
      vertex 7.21771546470021e-11 0.966276145087172 -0.257508080128823
      vertex 0.567962867417474 0.781733822086641 -0.257508080172084
      vertex 0.298595750055807 0.918983224034391 0.257508080160383
    endloop
  endfacet
  facet normal -0.947071860182055 -0.3077223010646784 -0.09144329980245433
    outer loop
      vertex 0.918983224337835 0.298595750011042 -0.25750808010546
      vertex 0.966276144800023 -6.60772108108316e-11 0.257508080160383
      vertex 0.781733822432282 0.567962867501321 0.257508080160383
    endloop
  endfacet
  facet normal -0.8056274429375373 -0.5853226001084632 0.09144329930723998
    outer loop
      vertex 0.567962867417474 0.781733822086641 -0.257508080172084
      vertex 0.918983224337835 0.298595750011042 -0.25750808010546
      vertex 0.781733822432282 0.567962867501321 0.257508080160383
    endloop
  endfacet
  facet normal -0.9470718602573405 0.3077223011831588 -0.09144329862402126
    outer loop
      vertex 0.918983223721056 -0.298595749979817 -0.257508080152701
      vertex 0.781733822381282 -0.567962867616907 0.257508080160383
      vertex 0.966276144800023 -6.60772108108316e-11 0.257508080160383
    endloop
  endfacet
  facet normal -0.9958102846483643 1.0212385157475427e-9 0.09144329930915535
    outer loop
      vertex 0.918983224337835 0.298595750011042 -0.25750808010546
      vertex 0.918983223721056 -0.298595749979817 -0.257508080152701
      vertex 0.966276144800023 -6.60772108108316e-11 0.257508080160383
    endloop
  endfacet
  facet normal -0.5853225993562537 0.8056274434275607 -0.09144329980491243
    outer loop
      vertex 0.567962867680693 -0.781733822694601 -0.25750808008938
      vertex 0.298595749973287 -0.918983224106594 0.257508080160383
      vertex 0.781733822381282 -0.567962867616907 0.257508080160383
    endloop
  endfacet
  facet normal -0.8056274439916018 0.58532259865712 0.09144329931074487
    outer loop
      vertex 0.918983223721056 -0.298595749979817 -0.257508080152701
      vertex 0.567962867680693 -0.781733822694601 -0.25750808008938
      vertex 0.781733822381282 -0.567962867616907 0.257508080160383
    endloop
  endfacet
  facet normal -0.3077223006337376 0.9470718603947255 0.0914432990500294
    outer loop
      vertex 0.567962867680693 -0.781733822694601 -0.25750808008938
      vertex -1.45876063051249e-11 -0.966276144795691 -0.257508080175607
      vertex 0.298595749973287 -0.918983224106594 0.257508080160383
    endloop
  endfacet
  facet normal -2.986799617645706e-10 -7.910525972828841e-11 1
    outer loop
      vertex 0.567962867417474 0.781733822086641 -0.257508080172084
      vertex 0.918983223721056 -0.298595749979817 -0.257508080152701
      vertex 0.918983224337835 0.298595750011042 -0.25750808010546
    endloop
  endfacet
  facet normal 1.0758370486091623e-10 5.289780739066422e-11 1
    outer loop
      vertex 0.567962867417474 0.781733822086641 -0.257508080172084
      vertex 0.567962867680693 -0.781733822694601 -0.25750808008938
      vertex 0.918983223721056 -0.298595749979817 -0.257508080152701
    endloop
  endfacet
  facet normal 9.335626181618885e-11 5.289780738826893e-11 1
    outer loop
      vertex 7.21771546470021e-11 0.966276145087172 -0.257508080128823
      vertex 0.567962867680693 -0.781733822694601 -0.25750808008938
      vertex 0.567962867417474 0.781733822086641 -0.257508080172084
    endloop
  endfacet
  facet normal -1.4395227874304576e-10 -2.4208411505353155e-11 1
    outer loop
      vertex 7.21771546470021e-11 0.966276145087172 -0.257508080128823
      vertex -1.45876063051249e-11 -0.966276144795691 -0.257508080175607
      vertex 0.567962867680693 -0.781733822694601 -0.25750808008938
    endloop
  endfacet
  facet normal -1.178836911783745e-10 -2.420841150652353e-11 1
    outer loop
      vertex -0.567962867312377 0.781733822207118 -0.257508080200244
      vertex -1.45876063051249e-11 -0.966276144795691 -0.257508080175607
      vertex 7.21771546470021e-11 0.966276145087172 -0.257508080128823
    endloop
  endfacet
  facet normal 5.120062027516677e-12 1.5757930607071144e-11 1
    outer loop
      vertex -0.567962867312377 0.781733822207118 -0.257508080200244
      vertex -0.567962867585792 -0.78173382234214 -0.257508080175607
      vertex -1.45876063051249e-11 -0.966276144795691 -0.257508080175607
    endloop
  endfacet
  facet normal 8.507986469695892e-11 1.5757930593087995e-11 1
    outer loop
      vertex -0.918983224335438 0.298595750205738 -0.257508080162766
      vertex -0.567962867585792 -0.78173382234214 -0.257508080175607
      vertex -0.567962867312377 0.781733822207118 -0.257508080200244
    endloop
  endfacet
  facet normal -3.674136607815428e-10 -1.312661283390112e-10 1
    outer loop
      vertex -0.567962867585792 -0.78173382234214 -0.257508080175607
      vertex -0.918983224335438 0.298595750205738 -0.257508080162766
      vertex -0.918983223845401 -0.298595749785664 -0.257508080241157
    endloop
  endfacet
endsolid OpenSCAD_Model
