solid OpenSCAD_Model
  facet normal 0.8164965809178357 -3.665776583045998e-11 0.5773502692036129
    outer loop
      vertex 3.85162313385055e-12 2.87573080478531e-11 -0.784464540492265
      vertex -0.693375245218302 0.693375245334666 0.196116135123066
      vertex -0.693375245280562 -0.693375245286786 0.196116135123066
    endloop
  endfacet
  facet normal 0 0.8164965808933974 0.5773502692381738
    outer loop
      vertex 0.693375245216374 -0.693375245286786 0.196116135123066
      vertex 3.85162313385055e-12 2.87573080478531e-11 -0.784464540492265
      vertex -0.693375245280562 -0.693375245286786 0.196116135123066
    endloop
  endfacet
  facet normal 0 0 -1
    outer loop
      vertex -0.693375245280562 -0.693375245286786 0.196116135123066
      vertex 0.693375245278639 0.69337524521015 0.196116135123066
      vertex 0.693375245216374 -0.693375245286786 0.196116135123066
    endloop
  endfacet
  facet normal 0 0 -1
    outer loop
      vertex 0.693375245278639 0.69337524521015 0.196116135123066
      vertex -0.693375245280562 -0.693375245286786 0.196116135123066
      vertex -0.693375245218302 0.693375245334666 0.196116135123066
    endloop
  endfacet
  facet normal -7.331298294456684e-11 -0.8164965809216169 0.5773502691982655
    outer loop
      vertex 3.85162313385055e-12 2.87573080478531e-11 -0.784464540492265
      vertex 0.693375245278639 0.69337524521015 0.196116135123066
      vertex -0.693375245218302 0.693375245334666 0.196116135123066
    endloop
  endfacet
  facet normal -0.8164965809216153 3.6660682495370705e-11 0.5773502691982678
    outer loop
      vertex 3.85162313385055e-12 2.87573080478531e-11 -0.784464540492265
      vertex 0.693375245216374 -0.693375245286786 0.196116135123066
      vertex 0.693375245278639 0.69337524521015 0.196116135123066
    endloop
  endfacet
endsolid OpenSCAD_Model
