solid OpenSCAD_Model
  facet normal 0.5773502691408624 0.1875924740348466 0.7946544723390533
    outer loop
      vertex 1.17182405372092e-12 8.35741903113088e-11 -0.512317607504776
      vertex -0.946050879972378 0.307390564637409 0.102463521500955
      vertex -0.584691598930237 -0.804758945835351 0.102463521500955
    endloop
  endfacet
  facet normal 0 0.607061998097409 0.7946544723752463
    outer loop
      vertex 0.584691598871957 -0.804758945835351 0.102463521500955
      vertex 1.17182405372092e-12 8.35741903113088e-11 -0.512317607504776
      vertex -0.584691598930237 -0.804758945835351 0.102463521500955
    endloop
  endfacet
  facet normal 0 0 -1
    outer loop
      vertex 0.584691598871957 -0.804758945835351 0.102463521500955
      vertex 6.01812014879426e-11 0.994736762482208 0.102463521500955
      vertex 0.946050879969305 0.307390564467511 0.102463521500955
    endloop
  endfacet
  facet normal 0 0 -1
    outer loop
      vertex -0.584691598930237 -0.804758945835351 0.102463521500955
      vertex 6.01812014879426e-11 0.994736762482208 0.102463521500955
      vertex 0.584691598871957 -0.804758945835351 0.102463521500955
    endloop
  endfacet
  facet normal 0 0 -1
    outer loop
      vertex 6.01812014879426e-11 0.994736762482208 0.102463521500955
      vertex -0.584691598930237 -0.804758945835351 0.102463521500955
      vertex -0.946050879972378 0.307390564637409 0.102463521500955
    endloop
  endfacet
  facet normal 0.35682208970650303 -0.49112347320806277 0.7946544723095275
    outer loop
      vertex 1.17182405372092e-12 8.35741903113088e-11 -0.512317607504776
      vertex 6.01812014879426e-11 0.994736762482208 0.102463521500955
      vertex -0.946050879972378 0.307390564637409 0.102463521500955
    endloop
  endfacet
  facet normal -0.3568220898046782 -0.49112347315771454 0.7946544722965609
    outer loop
      vertex 1.17182405372092e-12 8.35741903113088e-11 -0.512317607504776
      vertex 0.946050879969305 0.307390564467511 0.102463521500955
      vertex 6.01812014879426e-11 0.994736762482208 0.102463521500955
    endloop
  endfacet
  facet normal -0.5773502691263519 0.1875924740874492 0.794654472337178
    outer loop
      vertex 1.17182405372092e-12 8.35741903113088e-11 -0.512317607504776
      vertex 0.584691598871957 -0.804758945835351 0.102463521500955
      vertex 0.946050879969305 0.307390564467511 0.102463521500955
    endloop
  endfacet
endsolid OpenSCAD_Model
