solid OpenSCAD_Model
  facet normal 0.8164965809188037 0.4714045207207105 0.3333333334546377
    outer loop
      vertex -0.48245064062873 -0.278543007135019 -0.525225731374212
      vertex -0.964901281342994 9.24196861373751e-11 0.262612865688463
      vertex -0.482450640672051 -0.835629021809332 0.262612865688463
    endloop
  endfacet
  facet normal 1.7245735624443872e-17 0.8164965808247395 0.5773502693352707
    outer loop
      vertex 0.482450640586465 -0.278543007129261 -0.525225731382355
      vertex -0.482450640672051 -0.835629021809332 0.262612865688463
      vertex 0.482450640619814 -0.835629021809332 0.262612865688463
    endloop
  endfacet
  facet normal -4.5507957224805735e-17 0.8164965808247395 0.5773502693352707
    outer loop
      vertex -0.482450640672051 -0.835629021809332 0.262612865688463
      vertex 0.482450640586465 -0.278543007129261 -0.525225731382355
      vertex -0.48245064062873 -0.278543007135019 -0.525225731374212
    endloop
  endfacet
  facet normal 0 0 -1
    outer loop
      vertex 0.482450640619814 -0.835629021809332 0.262612865688463
      vertex 0.482450640694844 0.835629021690924 0.262612865688463
      vertex 0.964901281290756 -8.08630876453749e-11 0.262612865688463
    endloop
  endfacet
  facet normal 0 0 -1
    outer loop
      vertex -0.482450640672051 -0.835629021809332 0.262612865688463
      vertex 0.482450640694844 0.835629021690924 0.262612865688463
      vertex 0.482450640619814 -0.835629021809332 0.262612865688463
    endloop
  endfacet
  facet normal 0 0 -1
    outer loop
      vertex -0.482450640672051 -0.835629021809332 0.262612865688463
      vertex -0.482450640597017 0.835629021777572 0.262612865688463
      vertex 0.482450640694844 0.835629021690924 0.262612865688463
    endloop
  endfacet
  facet normal 0 0 -1
    outer loop
      vertex -0.482450640597017 0.835629021777572 0.262612865688463
      vertex -0.482450640672051 -0.835629021809332 0.262612865688463
      vertex -0.964901281342994 9.24196861373751e-11 0.262612865688463
    endloop
  endfacet
  facet normal 0.7071067810973577 -0.4082482905252441 0.5773502692554575
    outer loop
      vertex -0.964901281342994 9.24196861373751e-11 0.262612865688463
      vertex 4.89149241949563e-11 0.55708601440289 -0.525225731374212
      vertex -0.482450640597017 0.835629021777572 0.262612865688463
    endloop
  endfacet
  facet normal 0.7071067810973576 -0.4082482905393577 0.5773502692454777
    outer loop
      vertex 4.89149241949563e-11 0.55708601440289 -0.525225731374212
      vertex -0.964901281342994 9.24196861373751e-11 0.262612865688463
      vertex -0.48245064062873 -0.278543007135019 -0.525225731374212
    endloop
  endfacet
  facet normal -8.466414926399784e-11 -0.9428090415446045 0.33333333343928284
    outer loop
      vertex 4.89149241949563e-11 0.55708601440289 -0.525225731374212
      vertex 0.482450640694844 0.835629021690924 0.262612865688463
      vertex -0.482450640597017 0.835629021777572 0.262612865688463
    endloop
  endfacet
  facet normal -0.7071067811890025 -0.4082482904088451 0.5773502692255226
    outer loop
      vertex 4.89149241949563e-11 0.55708601440289 -0.525225731374212
      vertex 0.964901281290756 -8.08630876453749e-11 0.262612865688463
      vertex 0.482450640694844 0.835629021690924 0.262612865688463
    endloop
  endfacet
  facet normal -0.7071067811890025 -0.40824829048216016 0.5773502691736809
    outer loop
      vertex 0.964901281290756 -8.08630876453749e-11 0.262612865688463
      vertex 4.89149241949563e-11 0.55708601440289 -0.525225731374212
      vertex 0.482450640586465 -0.278543007129261 -0.525225731382355
    endloop
  endfacet
  facet normal -0.8164965808651785 0.4714045207875033 0.33333333349153266
    outer loop
      vertex 0.482450640586465 -0.278543007129261 -0.525225731382355
      vertex 0.482450640619814 -0.835629021809332 0.262612865688463
      vertex 0.964901281290756 -8.08630876453749e-11 0.262612865688463
    endloop
  endfacet
  facet normal 8.439133549378309e-12 -4.872336027976341e-12 1
    outer loop
      vertex 0.482450640586465 -0.278543007129261 -0.525225731382355
      vertex 4.89149241949563e-11 0.55708601440289 -0.525225731374212
      vertex -0.48245064062873 -0.278543007135019 -0.525225731374212
    endloop
  endfacet
endsolid OpenSCAD_Model
