solid OpenSCAD_Model
  facet normal 0.4999999998470915 0.4999999997797478 0.7071067814504122
    outer loop
      vertex -0.532599114110889 1.38436848600155e-10 -0.35506607575015
      vertex -0.376604445208757 -0.909203559320059 0.177533037964037
      vertex 7.59447227413845e-12 -0.532599113780047 -0.355066075942295
    endloop
  endfacet
  facet normal 0.49999999984709276 0.4999999997797475 0.7071067814504112
    outer loop
      vertex -0.376604445208757 -0.909203559320059 0.177533037964037
      vertex -0.532599114110889 1.38436848600155e-10 -0.35506607575015
      vertex -0.909203559335694 -0.376604445121386 0.177533037964037
    endloop
  endfacet
  facet normal 0 0.8164965806076512 0.5773502696422801
    outer loop
      vertex 0.376604445184898 -0.909203559320059 0.177533037964037
      vertex 7.59447227413845e-12 -0.532599113780047 -0.355066075942295
      vertex -0.376604445208757 -0.909203559320059 0.177533037964037
    endloop
  endfacet
  facet normal 0 0 -1
    outer loop
      vertex 0.376604445184898 -0.909203559320059 0.177533037964037
      vertex 0.909203559278021 0.376604445108985 0.177533037964037
      vertex 0.909203559244202 -0.376604445284667 0.177533037964037
    endloop
  endfacet
  facet normal 0 0 -1
    outer loop
      vertex 0.376604445184898 -0.909203559320059 0.177533037964037
      vertex 0.376604445266538 0.909203559192204 0.177533037964037
      vertex 0.909203559278021 0.376604445108985 0.177533037964037
    endloop
  endfacet
  facet normal 0 0 -1
    outer loop
      vertex -0.376604445208757 -0.909203559320059 0.177533037964037
      vertex 0.376604445266538 0.909203559192204 0.177533037964037
      vertex 0.376604445184898 -0.909203559320059 0.177533037964037
    endloop
  endfacet
  facet normal 0 0 -1
    outer loop
      vertex -0.376604445208757 -0.909203559320059 0.177533037964037
      vertex -0.376604445127117 0.909203559259842 0.177533037964037
      vertex 0.376604445266538 0.909203559192204 0.177533037964037
    endloop
  endfacet
  facet normal 0 0 -1
    outer loop
      vertex -0.909203559335694 -0.376604445121386 0.177533037964037
      vertex -0.376604445127117 0.909203559259842 0.177533037964037
      vertex -0.376604445208757 -0.909203559320059 0.177533037964037
    endloop
  endfacet
  facet normal 0 0 -1
    outer loop
      vertex -0.376604445127117 0.909203559259842 0.177533037964037
      vertex -0.909203559335694 -0.376604445121386 0.177533037964037
      vertex -0.909203559234245 0.376604445272266 0.177533037964037
    endloop
  endfacet
  facet normal 0.8164965807739148 -1.0997309994383241e-10 0.5773502694071477
    outer loop
      vertex -0.532599114110889 1.38436848600155e-10 -0.35506607575015
      vertex -0.909203559234245 0.376604445272266 0.177533037964037
      vertex -0.909203559335694 -0.376604445121386 0.177533037964037
    endloop
  endfacet
  facet normal 0.49999999993466465 -0.49999999992755045 0.7071067812839762
    outer loop
      vertex -0.376604445127117 0.909203559259842 0.177533037964037
      vertex -0.532599114110889 1.38436848600155e-10 -0.35506607575015
      vertex 5.54187084057049e-11 0.532599113944941 -0.355066076009928
    endloop
  endfacet
  facet normal 0.49999999983279425 -0.49999999994502864 0.7071067813436505
    outer loop
      vertex -0.532599114110889 1.38436848600155e-10 -0.35506607575015
      vertex -0.376604445127117 0.909203559259842 0.177533037964037
      vertex -0.909203559234245 0.376604445272266 0.177533037964037
    endloop
  endfacet
  facet normal -7.332120517800815e-11 -0.8164965808293368 0.5773502693287692
    outer loop
      vertex 5.54187084057049e-11 0.532599113944941 -0.355066076009928
      vertex 0.376604445266538 0.909203559192204 0.177533037964037
      vertex -0.376604445127117 0.909203559259842 0.177533037964037
    endloop
  endfacet
  facet normal -0.4999999999647813 -0.49999999989743604 0.7071067812839745
    outer loop
      vertex 0.376604445266538 0.909203559192204 0.177533037964037
      vertex 0.53259911398003 -9.04558193712513e-11 -0.355066076009927
      vertex 0.909203559278021 0.376604445108985 0.177533037964037
    endloop
  endfacet
  facet normal -0.4999999999960732 -0.49999999989206734 0.7071067812656443
    outer loop
      vertex 0.53259911398003 -9.04558193712513e-11 -0.355066076009927
      vertex 0.376604445266538 0.909203559192204 0.177533037964037
      vertex 5.54187084057049e-11 0.532599113944941 -0.355066076009928
    endloop
  endfacet
  facet normal -0.8164965808293366 3.66605718301819e-11 0.5773502693287693
    outer loop
      vertex 0.53259911398003 -9.04558193712513e-11 -0.355066076009927
      vertex 0.909203559244202 -0.376604445284667 0.177533037964037
      vertex 0.909203559278021 0.376604445108985 0.177533037964037
    endloop
  endfacet
  facet normal -0.49999999993284516 0.4999999999552936 0.7071067812656452
    outer loop
      vertex 0.53259911398003 -9.04558193712513e-11 -0.355066076009927
      vertex 0.376604445184898 -0.909203559320059 0.177533037964037
      vertex 0.909203559244202 -0.376604445284667 0.177533037964037
    endloop
  endfacet
  facet normal -0.49999999964871816 0.5000000000040423 0.707106781432083
    outer loop
      vertex 0.376604445184898 -0.909203559320059 0.177533037964037
      vertex 0.53259911398003 -9.04558193712513e-11 -0.355066076009927
      vertex 7.59447227413845e-12 -0.532599113780047 -0.355066075942295
    endloop
  endfacet
  facet normal 6.349147994487072e-11 6.349335601575009e-11 1
    outer loop
      vertex 5.54187084057049e-11 0.532599113944941 -0.355066076009928
      vertex 7.59447227413845e-12 -0.532599113780047 -0.355066075942295
      vertex 0.53259911398003 -9.04558193712513e-11 -0.355066076009927
    endloop
  endfacet
  facet normal 4.2426192847591187e-10 6.349335599955256e-11 1
    outer loop
      vertex 7.59447227413845e-12 -0.532599113780047 -0.355066075942295
      vertex 5.54187084057049e-11 0.532599113944941 -0.355066076009928
      vertex -0.532599114110889 1.38436848600155e-10 -0.35506607575015
    endloop
  endfacet
endsolid OpenSCAD_Model
