solid OpenSCAD_Model
  facet normal 0.35682208918357017 0.4911234723028283 0.7946544731038045
    outer loop
      vertex -0.307220352442657 -0.422852538147046 -0.215353729715423
      vertex -0.804313324901168 -0.584367836282201 0.107676864951284
      vertex -0.307220352470243 -0.945527021180422 0.107676864951284
    endloop
  endfacet
  facet normal -1.5222365165850753e-15 0.5257311110589965 0.8506508090072407
    outer loop
      vertex -0.307220352442657 -0.422852538147046 -0.215353729715423
      vertex 0.307220352454073 -0.945527021180422 0.107676864951284
      vertex 0.307220352276252 -0.422852538274843 -0.215353729636439
    endloop
  endfacet
  facet normal 0 0.5257311110589977 0.85065080900724
    outer loop
      vertex 0.307220352454073 -0.945527021180422 0.107676864951284
      vertex -0.307220352442657 -0.422852538147046 -0.215353729715423
      vertex -0.307220352470243 -0.945527021180422 0.107676864951284
    endloop
  endfacet
  facet normal 0 0 -1
    outer loop
      vertex 0.804313324780051 -0.584367836426645 0.107676864951284
      vertex 0.804313324832525 0.584367836167281 0.107676864951284
      vertex 0.994185944658378 -1.3820537497557e-10 0.107676864951284
    endloop
  endfacet
  facet normal 0 0 -1
    outer loop
      vertex 0.307220352454073 -0.945527021180422 0.107676864951284
      vertex 0.804313324832525 0.584367836167281 0.107676864951284
      vertex 0.804313324780051 -0.584367836426645 0.107676864951284
    endloop
  endfacet
  facet normal 0 0 -1
    outer loop
      vertex 0.307220352454073 -0.945527021180422 0.107676864951284
      vertex 0.307220352538977 0.945527020965695 0.107676864951284
      vertex 0.804313324832525 0.584367836167281 0.107676864951284
    endloop
  endfacet
  facet normal 0 0 -1
    outer loop
      vertex -0.307220352470243 -0.945527021180422 0.107676864951284
      vertex 0.307220352538977 0.945527020965695 0.107676864951284
      vertex 0.307220352454073 -0.945527021180422 0.107676864951284
    endloop
  endfacet
  facet normal 0 0 -1
    outer loop
      vertex -0.307220352470243 -0.945527021180422 0.107676864951284
      vertex -0.307220352385341 0.945527021020866 0.107676864951284
      vertex 0.307220352538977 0.945527020965695 0.107676864951284
    endloop
  endfacet
  facet normal 0 0 -1
    outer loop
      vertex -0.804313324901168 -0.584367836282201 0.107676864951284
      vertex -0.307220352385341 0.945527021020866 0.107676864951284
      vertex -0.307220352470243 -0.945527021180422 0.107676864951284
    endloop
  endfacet
  facet normal 0 0 -1
    outer loop
      vertex -0.804313324901168 -0.584367836282201 0.107676864951284
      vertex -0.804313324743751 0.584367836311724 0.107676864951284
      vertex -0.307220352385341 0.945527021020866 0.107676864951284
    endloop
  endfacet
  facet normal 0 0 -1
    outer loop
      vertex -0.804313324743751 0.584367836311724 0.107676864951284
      vertex -0.804313324901168 -0.584367836282201 0.107676864951284
      vertex -0.994185944674548 4.03388078280238e-11 0.107676864951284
    endloop
  endfacet
  facet normal 0.49999999908424136 0.16245984843898845 0.8506508088287106
    outer loop
      vertex -0.497092972249157 0.161515297532343 -0.215353730053659
      vertex -0.804313324901168 -0.584367836282201 0.107676864951284
      vertex -0.307220352442657 -0.422852538147046 -0.215353729715423
    endloop
  endfacet
  facet normal 0.49999999982803217 0.16245984798115792 0.8506508084789591
    outer loop
      vertex -0.804313324901168 -0.584367836282201 0.107676864951284
      vertex -0.497092972249157 0.161515297532343 -0.215353730053659
      vertex -0.994185944674548 4.03388078280238e-11 0.107676864951284
    endloop
  endfacet
  facet normal 0.5773502689504955 -0.1875924740876243 0.7946544724649038
    outer loop
      vertex -0.497092972249157 0.161515297532343 -0.215353730053659
      vertex -0.804313324743751 0.584367836311724 0.107676864951284
      vertex -0.994185944674548 4.03388078280238e-11 0.107676864951284
    endloop
  endfacet
  facet normal 0.3090169941954506 -0.4253254040525929 0.8506508084789595
    outer loop
      vertex -0.307220352385341 0.945527021020866 0.107676864951284
      vertex -0.497092972249157 0.161515297532343 -0.215353730053659
      vertex 5.47742635976967e-11 0.522674482178762 -0.215353730053659
    endloop
  endfacet
  facet normal 0.3090169942164201 -0.4253254040542014 0.8506508084705376
    outer loop
      vertex -0.497092972249157 0.161515297532343 -0.215353730053659
      vertex -0.307220352385341 0.945527021020866 0.107676864951284
      vertex -0.804313324743751 0.584367836311724 0.107676864951284
    endloop
  endfacet
  facet normal -5.450857497189689e-11 -0.6070619979800467 0.7946544724649034
    outer loop
      vertex 5.47742635976967e-11 0.522674482178762 -0.215353730053659
      vertex 0.307220352538977 0.945527020965695 0.107676864951284
      vertex -0.307220352385341 0.945527021020866 0.107676864951284
    endloop
  endfacet
  facet normal -0.30901699428479495 -0.42532540398768137 0.850650808478959
    outer loop
      vertex 0.307220352538977 0.945527020965695 0.107676864951284
      vertex 0.497092972271835 0.161515297412779 -0.21535373005366
      vertex 0.804313324832525 0.584367836167281 0.107676864951284
    endloop
  endfacet
  facet normal -0.30901699430576113 -0.4253254039892896 0.8506508084705385
    outer loop
      vertex 0.497092972271835 0.161515297412779 -0.21535373005366
      vertex 0.307220352538977 0.945527020965695 0.107676864951284
      vertex 5.47742635976967e-11 0.522674482178762 -0.215353730053659
    endloop
  endfacet
  facet normal -0.5773502689841855 -0.18759247398393986 0.7946544724649031
    outer loop
      vertex 0.497092972271835 0.161515297412779 -0.21535373005366
      vertex 0.994185944658378 -1.3820537497557e-10 0.107676864951284
      vertex 0.804313324832525 0.584367836167281 0.107676864951284
    endloop
  endfacet
  facet normal -0.49999999981181575 0.16245984807516436 0.8506508084705373
    outer loop
      vertex 0.497092972271835 0.161515297412779 -0.21535373005366
      vertex 0.804313324780051 -0.584367836426645 0.107676864951284
      vertex 0.994185944658378 -1.3820537497557e-10 0.107676864951284
    endloop
  endfacet
  facet normal -0.4999999988817361 0.16245984864766247 0.8506508089078869
    outer loop
      vertex 0.804313324780051 -0.584367836426645 0.107676864951284
      vertex 0.497092972271835 0.161515297412779 -0.21535373005366
      vertex 0.307220352276252 -0.422852538274843 -0.215353729636439
    endloop
  endfacet
  facet normal -0.35682208907771595 0.4911234722498686 0.7946544731840671
    outer loop
      vertex 0.307220352276252 -0.422852538274843 -0.215353729636439
      vertex 0.307220352454073 -0.945527021180422 0.107676864951284
      vertex 0.804313324780051 -0.584367836426645 0.107676864951284
    endloop
  endfacet
  facet normal 4.1966253832393466e-10 5.776131636747657e-10 1
    outer loop
      vertex 5.47742635976967e-11 0.522674482178762 -0.215353730053659
      vertex 0.307220352276252 -0.422852538274843 -0.215353729636439
      vertex 0.497092972271835 0.161515297412779 -0.21535373005366
    endloop
  endfacet
  facet normal -1.2854614832740213e-10 3.99489363761465e-10 1
    outer loop
      vertex 5.47742635976967e-11 0.522674482178762 -0.215353730053659
      vertex -0.307220352442657 -0.422852538147046 -0.215353729715423
      vertex 0.307220352276252 -0.422852538274843 -0.215353729636439
    endloop
  endfacet
  facet normal -3.402140181300459e-10 4.682644237811576e-10 1
    outer loop
      vertex -0.307220352442657 -0.422852538147046 -0.215353729715423
      vertex 5.47742635976967e-11 0.522674482178762 -0.215353730053659
      vertex -0.497092972249157 0.161515297532343 -0.215353730053659
    endloop
  endfacet
endsolid OpenSCAD_Model
