solid OpenSCAD_Model
  facet normal 0.5257311120565945 0.7236067975545892 0.4472135958896244
    outer loop
      vertex -0.764995244544509 -0.24856202226111 -0.171752133118436
      vertex -0.292202182153028 -0.899305845620831 0.325371911475484
      vertex 8.55695176768707e-12 -0.804363601081007 -0.171752133367175
    endloop
  endfacet
  facet normal 0.5257311120565927 0.7236067975545893 0.44721359588962617
    outer loop
      vertex -0.292202182153028 -0.899305845620831 0.325371911475484
      vertex -0.764995244544509 -0.24856202226111 -0.171752133118436
      vertex -0.764995244558834 -0.55580157878523 0.325371911475484
    endloop
  endfacet
  facet normal 0.5257311120565961 0.7236067975545916 0.44721359588961884
    outer loop
      vertex -0.764995244544509 -0.24856202226111 -0.171752133118436
      vertex 8.55695176768707e-12 -0.804363601081007 -0.171752133367175
      vertex -0.292202182200495 -0.402181800313338 -0.478991689483032
    endloop
  endfacet
  facet normal 0 0.9822469462722507 0.18759247463274767
    outer loop
      vertex 0.292202182139845 -0.899305845620831 0.325371911475484
      vertex 8.55695176768707e-12 -0.804363601081007 -0.171752133367175
      vertex -0.292202182153028 -0.899305845620831 0.325371911475484
    endloop
  endfacet
  facet normal 0 0 -1
    outer loop
      vertex 0.764995244445834 -0.555801578922613 0.325371911475484
      vertex 0.764995244495743 0.555801578704757 0.325371911475484
      vertex 0.945586124619185 -1.17034782439058e-10 0.325371911475484
    endloop
  endfacet
  facet normal 0 0 -1
    outer loop
      vertex 0.292202182139845 -0.899305845620831 0.325371911475484
      vertex 0.764995244495743 0.555801578704757 0.325371911475484
      vertex 0.764995244445834 -0.555801578922613 0.325371911475484
    endloop
  endfacet
  facet normal 0 0 -1
    outer loop
      vertex 0.292202182139845 -0.899305845620831 0.325371911475484
      vertex 0.292202182220598 0.89930584544543 0.325371911475484
      vertex 0.764995244495743 0.555801578704757 0.325371911475484
    endloop
  endfacet
  facet normal 0 0 -1
    outer loop
      vertex -0.292202182153028 -0.899305845620831 0.325371911475484
      vertex 0.292202182220598 0.89930584544543 0.325371911475484
      vertex 0.292202182139845 -0.899305845620831 0.325371911475484
    endloop
  endfacet
  facet normal 0 0 -1
    outer loop
      vertex -0.292202182153028 -0.899305845620831 0.325371911475484
      vertex -0.292202182072276 0.899305845497904 0.325371911475484
      vertex 0.292202182220598 0.89930584544543 0.325371911475484
    endloop
  endfacet
  facet normal 0 0 -1
    outer loop
      vertex -0.764995244558834 -0.55580157878523 0.325371911475484
      vertex -0.292202182072276 0.899305845497904 0.325371911475484
      vertex -0.292202182153028 -0.899305845620831 0.325371911475484
    endloop
  endfacet
  facet normal 0 0 -1
    outer loop
      vertex -0.764995244558834 -0.55580157878523 0.325371911475484
      vertex -0.764995244409112 0.555801578842139 0.325371911475484
      vertex -0.292202182072276 0.899305845497904 0.325371911475484
    endloop
  endfacet
  facet normal 0 0 -1
    outer loop
      vertex -0.764995244409112 0.555801578842139 0.325371911475484
      vertex -0.764995244558834 -0.55580157878523 0.325371911475484
      vertex -0.945586124632368 5.27814403686047e-11 0.325371911475484
    endloop
  endfacet
  facet normal 0.9341723589797354 0.30353099896049107 0.1875924742314648
    outer loop
      vertex -0.764995244544509 -0.24856202226111 -0.171752133118436
      vertex -0.945586124632368 5.27814403686047e-11 0.325371911475484
      vertex -0.764995244558834 -0.55580157878523 0.325371911475484
    endloop
  endfacet
  facet normal 0.8506508082612225 -0.27639320233874054 0.44721359561787116
    outer loop
      vertex -0.945586124632368 5.27814403686047e-11 0.325371911475484
      vertex -0.472793062193526 0.650743823016943 -0.171752133390643
      vertex -0.764995244409112 0.555801578842139 0.325371911475484
    endloop
  endfacet
  facet normal 0.8506508082612224 -0.27639320233873965 0.44721359561787216
    outer loop
      vertex -0.472793062193526 0.650743823016943 -0.171752133390643
      vertex -0.945586124632368 5.27814403686047e-11 0.325371911475484
      vertex -0.47279306220496 0.153619778146129 -0.478991689741497
    endloop
  endfacet
  facet normal 0.8506508082553228 -0.2763932023731364 0.4472135956078353
    outer loop
      vertex -0.47279306220496 0.153619778146129 -0.478991689741497
      vertex -0.945586124632368 5.27814403686047e-11 0.325371911475484
      vertex -0.764995244544509 -0.24856202226111 -0.171752133118436
    endloop
  endfacet
  facet normal 0.5773502690860276 -0.7946544723292392 0.1875924742451835
    outer loop
      vertex -0.472793062193526 0.650743823016943 -0.171752133390643
      vertex -0.292202182072276 0.899305845497904 0.325371911475484
      vertex -0.764995244409112 0.555801578842139 0.325371911475484
    endloop
  endfacet
  facet normal -1.2441185731491665e-10 -0.8944271909473668 0.4472135956050561
    outer loop
      vertex 4.23091743788141e-11 0.497124044730625 -0.478991689741497
      vertex -0.292202182072276 0.899305845497904 0.325371911475484
      vertex -0.472793062193526 0.650743823016943 -0.171752133390643
    endloop
  endfacet
  facet normal -8.031116425147262e-11 -0.8944271909409586 0.4472135956178725
    outer loop
      vertex -0.292202182072276 0.899305845497904 0.325371911475484
      vertex 4.23091743788141e-11 0.497124044730625 -0.478991689741497
      vertex 0.292202182220598 0.89930584544543 0.325371911475484
    endloop
  endfacet
  facet normal -8.031551332125979e-11 -0.894427190940958 0.4472135956178737
    outer loop
      vertex 0.292202182220598 0.89930584544543 0.325371911475484
      vertex 4.23091743788141e-11 0.497124044730625 -0.478991689741497
      vertex 0.472793062321716 0.650743822914228 -0.171752133390643
    endloop
  endfacet
  facet normal -0.577350269228739 -0.7946544722255524 0.18759247424518835
    outer loop
      vertex 0.472793062321716 0.650743822914228 -0.171752133390643
      vertex 0.764995244495743 0.555801578704757 0.325371911475484
      vertex 0.292202182220598 0.89930584544543 0.325371911475484
    endloop
  endfacet
  facet normal -0.8506508083155141 -0.2763932021588324 0.44721359562579155
    outer loop
      vertex 0.945586124619185 -1.17034782439058e-10 0.325371911475484
      vertex 0.472793062321716 0.650743822914228 -0.171752133390643
      vertex 0.472793062221999 0.153619778053115 -0.478991689741497
    endloop
  endfacet
  facet normal -0.8506508083230465 -0.2763932021899346 0.44721359559224205
    outer loop
      vertex 0.472793062321716 0.650743822914228 -0.171752133390643
      vertex 0.945586124619185 -1.17034782439058e-10 0.325371911475484
      vertex 0.764995244495743 0.555801578704757 0.325371911475484
    endloop
  endfacet
  facet normal -0.8506508083108593 -0.27639320218597324 0.447213595617872
    outer loop
      vertex 0.945586124619185 -1.17034782439058e-10 0.325371911475484
      vertex 0.472793062221999 0.153619778053115 -0.478991689741497
      vertex 0.764995244376688 -0.248562022545522 -0.171752133390643
    endloop
  endfacet
  facet normal -0.9341723589227331 0.3035309991274512 0.1875924742451779
    outer loop
      vertex 0.764995244376688 -0.248562022545522 -0.171752133390643
      vertex 0.764995244445834 -0.555801578922613 0.325371911475484
      vertex 0.945586124619185 -1.17034782439058e-10 0.325371911475484
    endloop
  endfacet
  facet normal -0.5257311120790209 0.7236067977220929 0.4472135955922335
    outer loop
      vertex 0.764995244376688 -0.248562022545522 -0.171752133390643
      vertex 0.292202182139845 -0.899305845620831 0.325371911475484
      vertex 0.764995244445834 -0.555801578922613 0.325371911475484
    endloop
  endfacet
  facet normal -0.5257311118878827 0.7236067977367538 0.4472135957932081
    outer loop
      vertex 0.764995244376688 -0.248562022545522 -0.171752133390643
      vertex 8.55695176768707e-12 -0.804363601081007 -0.171752133367175
      vertex 0.292202182139845 -0.899305845620831 0.325371911475484
    endloop
  endfacet
  facet normal -0.5257311115848886 0.7236067973197182 0.44721359682417705
    outer loop
      vertex 8.55695176768707e-12 -0.804363601081007 -0.171752133367175
      vertex 0.764995244376688 -0.248562022545522 -0.171752133390643
      vertex 0.292202182076634 -0.40218180013653 -0.478991689389773
    endloop
  endfacet
  facet normal -3.104735816006456e-10 0.607061997618356 0.7946544727412104
    outer loop
      vertex 0.292202182076634 -0.40218180013653 -0.478991689389773
      vertex -0.292202182200495 -0.402181800313338 -0.478991689483032
      vertex 8.55695176768707e-12 -0.804363601081007 -0.171752133367175
    endloop
  endfacet
  facet normal 0.5773502691523699 0.18759247440682686 0.7946544722428801
    outer loop
      vertex -0.292202182200495 -0.402181800313338 -0.478991689483032
      vertex -0.47279306220496 0.153619778146129 -0.478991689741497
      vertex -0.764995244544509 -0.24856202226111 -0.171752133118436
    endloop
  endfacet
  facet normal 0.3568220896976463 -0.4911234732047265 0.7946544723155663
    outer loop
      vertex -0.47279306220496 0.153619778146129 -0.478991689741497
      vertex 4.23091743788141e-11 0.497124044730625 -0.478991689741497
      vertex -0.472793062193526 0.650743823016943 -0.171752133390643
    endloop
  endfacet
  facet normal -0.35682208979426755 -0.49112347313452853 0.7946544723155653
    outer loop
      vertex 4.23091743788141e-11 0.497124044730625 -0.478991689741497
      vertex 0.472793062221999 0.153619778053115 -0.478991689741497
      vertex 0.472793062321716 0.650743822914228 -0.171752133390643
    endloop
  endfacet
  facet normal -0.5773502686722892 0.1875924746216081 0.7946544725409759
    outer loop
      vertex 0.472793062221999 0.153619778053115 -0.478991689741497
      vertex 0.292202182076634 -0.40218180013653 -0.478991689389773
      vertex 0.764995244376688 -0.248562022545522 -0.171752133390643
    endloop
  endfacet
  facet normal 3.7196398560780435e-10 5.119645047704147e-10 1
    outer loop
      vertex 4.23091743788141e-11 0.497124044730625 -0.478991689741497
      vertex 0.292202182076634 -0.40218180013653 -0.478991689389773
      vertex 0.472793062221999 0.153619778053115 -0.478991689741497
    endloop
  endfacet
  facet normal -1.5957959485742016e-10 3.3925552601222613e-10 1
    outer loop
      vertex 4.23091743788141e-11 0.497124044730625 -0.478991689741497
      vertex -0.292202182200495 -0.402181800313338 -0.478991689483032
      vertex 0.292202182076634 -0.40218180013653 -0.478991689389773
    endloop
  endfacet
  facet normal -2.733383718792803e-10 3.762179933177012e-10 1
    outer loop
      vertex -0.292202182200495 -0.402181800313338 -0.478991689483032
      vertex 4.23091743788141e-11 0.497124044730625 -0.478991689741497
      vertex -0.47279306220496 0.153619778146129 -0.478991689741497
    endloop
  endfacet
endsolid OpenSCAD_Model
