solid OpenSCAD_Model
  facet normal 0.866025403769473 -0.5000000000259212 2.592082655596602e-11
    outer loop
      vertex -0.443095213333996 -0.255821140699686 0.276428546634524
      vertex 6.51598739538516e-11 0.511642281399235 -0.609761879912756
      vertex 1.69652469874743e-11 0.511642281361701 0.276428546634524
    endloop
  endfacet
  facet normal 0.8660254037694732 -0.5000000000259209 2.5921135493214116e-11
    outer loop
      vertex 6.51598739538516e-11 0.511642281399235 -0.609761879912756
      vertex -0.443095213333996 -0.255821140699686 0.276428546634524
      vertex -0.443095213294209 -0.255821140676715 -0.609761879975514
    endloop
  endfacet
  facet normal -2.0024540785858507e-27 1 2.5921018528200774e-11
    outer loop
      vertex 0.443095213276042 -0.255821140676715 -0.609761880015304
      vertex -0.443095213333996 -0.255821140699686 0.276428546634524
      vertex 0.443095213276042 -0.255821140699686 0.276428546634524
    endloop
  endfacet
  facet normal 1.1638516991047345e-21 1 2.592101852936463e-11
    outer loop
      vertex -0.443095213333996 -0.255821140699686 0.276428546634524
      vertex 0.443095213276042 -0.255821140676715 -0.609761880015304
      vertex -0.443095213294209 -0.255821140676715 -0.609761879975514
    endloop
  endfacet
  facet normal -1.457971397805571e-17 0.9428090415748221 -0.33333333335381476
    outer loop
      vertex -6.00563485949649e-12 -8.13546531150335e-12 1
      vertex 0.443095213276042 -0.255821140699686 0.276428546634524
      vertex -0.443095213333996 -0.255821140699686 0.276428546634524
    endloop
  endfacet
  facet normal 0.8164965809120487 -0.4714045208145653 -0.333333333338453
    outer loop
      vertex 1.69652469874743e-11 0.511642281361701 0.276428546634524
      vertex -6.00563485949649e-12 -8.13546531150335e-12 1
      vertex -0.443095213333996 -0.255821140699686 0.276428546634524
    endloop
  endfacet
  facet normal -0.8660254038420272 -0.4999999999002537 -6.827507622669356e-11
    outer loop
      vertex 0.443095213276042 -0.255821140676715 -0.609761880015304
      vertex 1.69652469874743e-11 0.511642281361701 0.276428546634524
      vertex 6.51598739538516e-11 0.511642281399235 -0.609761879912756
    endloop
  endfacet
  facet normal -0.8660254038143699 -0.49999999994815747 -1.2960506640502672e-11
    outer loop
      vertex 1.69652469874743e-11 0.511642281361701 0.276428546634524
      vertex 0.443095213276042 -0.255821140676715 -0.609761880015304
      vertex 0.443095213276042 -0.255821140699686 0.276428546634524
    endloop
  endfacet
  facet normal -0.816496580954378 -0.4714045207412491 -0.33333333333845255
    outer loop
      vertex 0.443095213276042 -0.255821140699686 0.276428546634524
      vertex -6.00563485949649e-12 -8.13546531150335e-12 1
      vertex 1.69652469874743e-11 0.511642281361701 0.276428546634524
    endloop
  endfacet
  facet normal 4.489999882683397e-11 -1.076963320787788e-10 1
    outer loop
      vertex 0.443095213276042 -0.255821140676715 -0.609761880015304
      vertex 6.51598739538516e-11 0.511642281399235 -0.609761879912756
      vertex -0.443095213294209 -0.255821140676715 -0.609761879975514
    endloop
  endfacet
endsolid OpenSCAD_Model
