solid OpenSCAD_Model
  facet normal 1.4910767310045654e-27 1 4.489689253129941e-11
    outer loop
      vertex 0.590990257658103 -0.46599025767163 -0.465990257717805
      vertex -0.340990257710407 -0.465990257713473 0.465990257692552
      vertex 0.590990257658103 -0.465990257713473 0.465990257692552
    endloop
  endfacet
  facet normal 2.0159276650273736e-21 1 4.4896892533315333e-11
    outer loop
      vertex -0.340990257710407 -0.465990257713473 0.465990257692552
      vertex 0.590990257658103 -0.46599025767163 -0.465990257717805
      vertex -0.340990257668564 -0.46599025767163 -0.465990257675958
    endloop
  endfacet
  facet normal 0 0 -1
    outer loop
      vertex -0.340990257710407 -0.465990257713473 0.465990257692552
      vertex 0.590990257699949 0.465990257655037 0.465990257692552
      vertex 0.590990257658103 -0.465990257713473 0.465990257692552
    endloop
  endfacet
  facet normal 0 0 -1
    outer loop
      vertex 0.590990257699949 0.465990257655037 0.465990257692552
      vertex -0.340990257710407 -0.465990257713473 0.465990257692552
      vertex -0.340990257668564 0.46599025773872 0.465990257692552
    endloop
  endfacet
  facet normal 0.5773502692402708 -2.5921172155885098e-11 -0.8164965808919147
    outer loop
      vertex -1 6.63699892618992e-11 -2.45268833380921e-11
      vertex -0.340990257668564 0.46599025773872 0.465990257692552
      vertex -0.340990257710407 -0.465990257713473 0.465990257692552
    endloop
  endfacet
  facet normal 0.577350269274832 0.8164965808674761 6.25793578502756e-11
    outer loop
      vertex -0.340990257668564 -0.46599025767163 -0.465990257675958
      vertex -1 6.63699892618992e-11 -2.45268833380921e-11
      vertex -0.340990257710407 -0.465990257713473 0.465990257692552
    endloop
  endfacet
  facet normal -8.979050912548423e-11 -1 4.489040020955809e-11
    outer loop
      vertex -0.340990257626722 0.465990257696883 -0.465990257675958
      vertex 0.590990257699949 0.465990257655037 0.465990257692552
      vertex -0.340990257668564 0.46599025773872 0.465990257692552
    endloop
  endfacet
  facet normal -8.979694189070734e-11 -1 4.4896832974780926e-11
    outer loop
      vertex 0.590990257699949 0.465990257655037 0.465990257692552
      vertex -0.340990257626722 0.465990257696883 -0.465990257675958
      vertex 0.590990257658103 0.465990257613194 -0.465990257675958
    endloop
  endfacet
  facet normal 0.5773502691616087 -0.8164965809475372 6.257337922267633e-11
    outer loop
      vertex -1 6.63699892618992e-11 -2.45268833380921e-11
      vertex -0.340990257626722 0.465990257696883 -0.465990257675958
      vertex -0.340990257668564 0.46599025773872 0.465990257692552
    endloop
  endfacet
  facet normal -1 -2.0160652446343548e-21 4.4900049349328904e-11
    outer loop
      vertex 0.590990257658103 -0.46599025767163 -0.465990257717805
      vertex 0.590990257699949 0.465990257655037 0.465990257692552
      vertex 0.590990257658103 0.465990257613194 -0.465990257675958
    endloop
  endfacet
  facet normal -1 4.490004934932891e-11 2.0158770068080793e-21
    outer loop
      vertex 0.590990257699949 0.465990257655037 0.465990257692552
      vertex 0.590990257658103 -0.46599025767163 -0.465990257717805
      vertex 0.590990257658103 -0.465990257713473 0.465990257692552
    endloop
  endfacet
  facet normal -4.03198874486341e-21 -4.490118104212033e-11 1
    outer loop
      vertex -0.340990257626722 0.465990257696883 -0.465990257675958
      vertex 0.590990257658103 -0.46599025767163 -0.465990257717805
      vertex 0.590990257658103 0.465990257613194 -0.465990257675958
    endloop
  endfacet
  facet normal 4.490118104010442e-11 -2.015870920286544e-21 1
    outer loop
      vertex 0.590990257658103 -0.46599025767163 -0.465990257717805
      vertex -0.340990257626722 0.465990257696883 -0.465990257675958
      vertex -0.340990257668564 -0.46599025767163 -0.465990257675958
    endloop
  endfacet
  facet normal 0.5773502691616085 -2.5920579607819375e-11 0.8164965809475373
    outer loop
      vertex -0.340990257626722 0.465990257696883 -0.465990257675958
      vertex -1 6.63699892618992e-11 -2.45268833380921e-11
      vertex -0.340990257668564 -0.46599025767163 -0.465990257675958
    endloop
  endfacet
endsolid OpenSCAD_Model
