solid OpenSCAD_Model
  facet normal 0.9510565163118021 0.3090169943237085 6.179549554205151e-11
    outer loop
      vertex -0.482119432651578 -0.663580470673841 0.392205814132849
      vertex -0.780085628605918 0.253465185610501 -0.572033051066643
      vertex -0.780085628654245 0.253465185566413 0.392205814132849
    endloop
  endfacet
  facet normal 0.9510565163118023 0.3090169943237078 6.179479238578291e-11
    outer loop
      vertex -0.780085628605918 0.253465185610501 -0.572033051066643
      vertex -0.482119432651578 -0.663580470673841 0.392205814132849
      vertex -0.482119432608287 -0.663580470614256 -0.57203305116952
    endloop
  endfacet
  facet normal -2.932806669609426e-27 1 6.179485782960758e-11
    outer loop
      vertex 0.482119432650791 -0.663580470614256 -0.572033051212814
      vertex -0.482119432651578 -0.663580470673841 0.392205814132849
      vertex 0.482119432650791 -0.663580470673841 0.392205814132849
    endloop
  endfacet
  facet normal 2.7745675970376187e-21 1 6.179485783238215e-11
    outer loop
      vertex -0.482119432651578 -0.663580470673841 0.392205814132849
      vertex 0.482119432650791 -0.663580470614256 -0.572033051212814
      vertex -0.482119432608287 -0.663580470614256 -0.57203305116952
    endloop
  endfacet
  facet normal 1.1036718592081689e-17 0.607061998097409 -0.7946544723752466
    outer loop
      vertex 2.46005539546439e-11 5.05685903993515e-11 0.899136185080482
      vertex 0.482119432650791 -0.663580470673841 0.392205814132849
      vertex -0.482119432651578 -0.663580470673841 0.392205814132849
    endloop
  endfacet
  facet normal 0.5773502691408624 0.18759247403484666 -0.7946544723390531
    outer loop
      vertex -0.780085628654245 0.253465185566413 0.392205814132849
      vertex 2.46005539546439e-11 5.05685903993515e-11 0.899136185080482
      vertex -0.482119432651578 -0.663580470673841 0.392205814132849
    endloop
  endfacet
  facet normal 0.5877852523954843 -0.8090169943001054 -7.531377549061461e-12
    outer loop
      vertex -0.780085628605918 0.253465185610501 -0.572033051066643
      vertex -1.1956479418465e-10 0.820230570334409 0.392205814132849
      vertex -0.780085628654245 0.253465185566413 0.392205814132849
    endloop
  endfacet
  facet normal 0.5877852521492128 -0.8090169944790321 2.96876749898861e-10
    outer loop
      vertex -1.1956479418465e-10 0.820230570334409 0.392205814132849
      vertex -0.780085628605918 0.253465185610501 -0.572033051066643
      vertex 7.32579446596862e-11 0.820230570120666 -0.57203305116952
    endloop
  endfacet
  facet normal 0.3568220897834731 -0.49112347307120957 -0.7946544723595458
    outer loop
      vertex -1.1956479418465e-10 0.820230570334409 0.392205814132849
      vertex 2.46005539546439e-11 5.05685903993515e-11 0.899136185080482
      vertex -0.780085628654245 0.253465185566413 0.392205814132849
    endloop
  endfacet
  facet normal -0.5877852523505888 -0.809016994332724 6.179316991636354e-11
    outer loop
      vertex 7.32579446596862e-11 0.820230570120666 -0.57203305116952
      vertex 0.780085628506151 0.253465185566413 0.392205814132849
      vertex -1.1956479418465e-10 0.820230570334409 0.392205814132849
    endloop
  endfacet
  facet normal -0.5877852523505882 -0.8090169943327244 6.179250745586673e-11
    outer loop
      vertex 0.780085628506151 0.253465185566413 0.392205814132849
      vertex 7.32579446596862e-11 0.820230570120666 -0.57203305116952
      vertex 0.780085628734001 0.253465185327222 -0.572033051126229
    endloop
  endfacet
  facet normal -0.35682208980468116 -0.49112347315771393 -0.79465447229656
    outer loop
      vertex 0.780085628506151 0.253465185566413 0.392205814132849
      vertex 2.46005539546439e-11 5.05685903993515e-11 0.899136185080482
      vertex -1.1956479418465e-10 0.820230570334409 0.392205814132849
    endloop
  endfacet
  facet normal -0.9510565162576644 0.3090169944903269 -3.0139038222345887e-10
    outer loop
      vertex 0.482119432650791 -0.663580470614256 -0.572033051212814
      vertex 0.780085628506151 0.253465185566413 0.392205814132849
      vertex 0.780085628734001 0.253465185327222 -0.572033051126229
    endloop
  endfacet
  facet normal -0.9510565163567001 0.3090169941855265 1.9095633743360976e-11
    outer loop
      vertex 0.780085628506151 0.253465185566413 0.392205814132849
      vertex 0.482119432650791 -0.663580470614256 -0.572033051212814
      vertex 0.482119432650791 -0.663580470673841 0.392205814132849
    endloop
  endfacet
  facet normal -0.5773502692327245 0.18759247397195344 -0.7946544722871587
    outer loop
      vertex 0.482119432650791 -0.663580470673841 0.392205814132849
      vertex 2.46005539546439e-11 5.05685903993515e-11 0.899136185080482
      vertex 0.780085628506151 0.253465185566413 0.392205814132849
    endloop
  endfacet
  facet normal -1.00393563218025e-10 -6.179743932311779e-11 1
    outer loop
      vertex 7.32579446596862e-11 0.820230570120666 -0.57203305116952
      vertex 0.482119432650791 -0.663580470614256 -0.572033051212814
      vertex 0.780085628734001 0.253465185327222 -0.572033051126229
    endloop
  endfacet
  facet normal 4.489969921721124e-11 -1.4588796632388087e-11 1
    outer loop
      vertex 7.32579446596862e-11 0.820230570120666 -0.57203305116952
      vertex -0.482119432608287 -0.663580470614256 -0.57203305116952
      vertex 0.482119432650791 -0.663580470614256 -0.572033051212814
    endloop
  endfacet
  facet normal 1.7263187999831028e-10 -5.609149801602166e-11 1
    outer loop
      vertex -0.482119432608287 -0.663580470614256 -0.57203305116952
      vertex 7.32579446596862e-11 0.820230570120666 -0.57203305116952
      vertex -0.780085628605918 0.253465185610501 -0.572033051066643
    endloop
  endfacet
endsolid OpenSCAD_Model
