solid OpenSCAD_Model
  facet normal 0.9709835434243436 -4.3593979336367204e-11 -0.23914631169872938
    outer loop
      vertex -0.705504509050992 4.60763040078624e-11 -0.544495490936823
      vertex -0.498867022511764 0.498867022590098 0.294495490931948
      vertex -0.498867022556559 -0.498867022568228 0.294495490931948
    endloop
  endfacet
  facet normal 0.6865890480025739 0.6865890479100976 0.23914631181104362
    outer loop
      vertex 3.67315743759804e-12 -0.705504509103613 -0.544495490936823
      vertex -0.705504509050992 4.60763040078624e-11 -0.544495490936823
      vertex -0.498867022556559 -0.498867022568228 0.294495490931948
    endloop
  endfacet
  facet normal 0 0.9709835434193573 -0.2391463117189747
    outer loop
      vertex 0.49886702251218 -0.498867022568228 0.294495490931948
      vertex 3.67315743759804e-12 -0.705504509103613 -0.544495490936823
      vertex -0.498867022556559 -0.498867022568228 0.294495490931948
    endloop
  endfacet
  facet normal 1.1229058183954365e-17 0.8164965808933976 -0.5773502692381735
    outer loop
      vertex 3.6741543741764e-12 1.44001950207402e-11 1
      vertex 0.49886702251218 -0.498867022568228 0.294495490931948
      vertex -0.498867022556559 -0.498867022568228 0.294495490931948
    endloop
  endfacet
  facet normal 0.816496580917835 -3.66580306348599e-11 -0.577350269203614
    outer loop
      vertex -0.498867022511764 0.498867022590098 0.294495490931948
      vertex 3.6741543741764e-12 1.44001950207402e-11 1
      vertex -0.498867022556559 -0.498867022568228 0.294495490931948
    endloop
  endfacet
  facet normal 5.054892284390917e-18 -0.9709835434344892 -0.23914631165753658
    outer loop
      vertex 6.70222738313765e-11 0.705504509068393 -0.544495490933643
      vertex 0.498867022467389 0.498867022590098 0.294495490931948
      vertex -0.498867022511764 0.498867022590098 0.294495490931948
    endloop
  endfacet
  facet normal 0.6865890479118057 -0.6865890480060155 0.23914631179625848
    outer loop
      vertex -0.705504509050992 4.60763040078624e-11 -0.544495490936823
      vertex 6.70222738313765e-11 0.705504509068393 -0.544495490933643
      vertex -0.498867022511764 0.498867022590098 0.294495490931948
    endloop
  endfacet
  facet normal 0 -0.8164965808971785 -0.5773502692328264
    outer loop
      vertex 0.498867022467389 0.498867022590098 0.294495490931948
      vertex 3.6741543741764e-12 1.44001950207402e-11 1
      vertex -0.498867022511764 0.498867022590098 0.294495490931948
    endloop
  endfacet
  facet normal -0.9709835434074721 -4.359011527540502e-11 -0.2391463117672316
    outer loop
      vertex 0.705504509065376 -6.89973713492019e-11 -0.544495490920502
      vertex 0.49886702251218 -0.498867022568228 0.294495490931948
      vertex 0.498867022467389 0.498867022590098 0.294495490931948
    endloop
  endfacet
  facet normal -0.686589048036614 -0.6865890478968506 0.23914631175134668
    outer loop
      vertex 6.70222738313765e-11 0.705504509068393 -0.544495490933643
      vertex 0.705504509065376 -6.89973713492019e-11 -0.544495490920502
      vertex 0.498867022467389 0.498867022590098 0.294495490931948
    endloop
  endfacet
  facet normal -0.8164965809460546 -3.665475984877714e-11 -0.5773502691637054
    outer loop
      vertex 0.49886702251218 -0.498867022568228 0.294495490931948
      vertex 3.6741543741764e-12 1.44001950207402e-11 1
      vertex 0.498867022467389 0.498867022590098 0.294495490931948
    endloop
  endfacet
  facet normal -0.6865890479606939 0.6865890479815224 0.23914631172622075
    outer loop
      vertex 0.705504509065376 -6.89973713492019e-11 -0.544495490920502
      vertex 3.67315743759804e-12 -0.705504509103613 -0.544495490936823
      vertex 0.49886702251218 -0.498867022568228 0.294495490931948
    endloop
  endfacet
  facet normal -2.0880163804706368e-11 -2.2537147297831396e-12 1
    outer loop
      vertex 6.70222738313765e-11 0.705504509068393 -0.544495490933643
      vertex 3.67315743759804e-12 -0.705504509103613 -0.544495490936823
      vertex 0.705504509065376 -6.89973713492019e-11 -0.544495490920502
    endloop
  endfacet
  facet normal -2.25371473092295e-12 -2.2537147306193986e-12 1
    outer loop
      vertex 3.67315743759804e-12 -0.705504509103613 -0.544495490936823
      vertex 6.70222738313765e-11 0.705504509068393 -0.544495490933643
      vertex -0.705504509050992 4.60763040078624e-11 -0.544495490936823
    endloop
  endfacet
endsolid OpenSCAD_Model
