solid OpenSCAD_Model
  facet normal 0.9341723589897605 0.30353099905648834 -0.18759247402621482
    outer loop
      vertex -0.814934210507766 -0.264788176111001 -0.515528325282007
      vertex -0.814934210545919 0.264788176209574 0.341344212357487
      vertex -0.503657040719905 -0.693224445038074 0.341344212357487
    endloop
  endfacet
  facet normal 0.5773502692368 0.7946544722366533 0.18759247417335434
    outer loop
      vertex 2.78343901342483e-11 -0.856872537681031 -0.515528325282007
      vertex -0.814934210507766 -0.264788176111001 -0.515528325282007
      vertex -0.503657040719905 -0.693224445038074 0.341344212357487
    endloop
  endfacet
  facet normal 0 0.9822469463838164 -0.18759247404858317
    outer loop
      vertex 0.503657040723353 -0.693224445038074 0.341344212357487
      vertex 2.78343901342483e-11 -0.856872537681031 -0.515528325282007
      vertex -0.503657040719905 -0.693224445038074 0.341344212357487
    endloop
  endfacet
  facet normal -1.5640553313957645e-17 0.6070619980974092 -0.7946544723752463
    outer loop
      vertex 2.78343901342483e-11 4.9848921806865e-11 0.870920564589128
      vertex 0.503657040723353 -0.693224445038074 0.341344212357487
      vertex -0.503657040719905 -0.693224445038074 0.341344212357487
    endloop
  endfacet
  facet normal 0.5773502691408626 0.18759247403484702 -0.7946544723390531
    outer loop
      vertex -0.814934210545919 0.264788176209574 0.341344212357487
      vertex 2.78343901342483e-11 4.9848921806865e-11 0.870920564589128
      vertex -0.503657040719905 -0.693224445038074 0.341344212357487
    endloop
  endfacet
  facet normal 0.5773502693152958 -0.7946544722519567 -0.18759247386694275
    outer loop
      vertex -0.5036570405939 0.693224444950703 -0.515528325293417
      vertex -1.22771222709766e-10 0.856872537766999 0.341344212357487
      vertex -0.814934210545919 0.264788176209574 0.341344212357487
    endloop
  endfacet
  facet normal 0.9341723589194032 -0.30353099917597287 0.18759247418324987
    outer loop
      vertex -0.814934210507766 -0.264788176111001 -0.515528325282007
      vertex -0.5036570405939 0.693224444950703 -0.515528325293417
      vertex -0.814934210545919 0.264788176209574 0.341344212357487
    endloop
  endfacet
  facet normal 0.35682208978347346 -0.49112347307120985 -0.7946544723595453
    outer loop
      vertex -1.22771222709766e-10 0.856872537766999 0.341344212357487
      vertex 2.78343901342483e-11 4.9848921806865e-11 0.870920564589128
      vertex -0.814934210545919 0.264788176209574 0.341344212357487
    endloop
  endfacet
  facet normal -0.5773502692434146 -0.7946544722457565 -0.18759247411443447
    outer loop
      vertex 0.503657040821727 0.69322444490889 -0.515528325255118
      vertex 0.814934210395479 0.264788176209574 0.341344212357487
      vertex -1.22771222709766e-10 0.856872537766999 0.341344212357487
    endloop
  endfacet
  facet normal -4.790489788494093e-11 -0.982246946342475 0.18759247426504885
    outer loop
      vertex -0.5036570405939 0.693224444950703 -0.515528325293417
      vertex 0.503657040821727 0.69322444490889 -0.515528325255118
      vertex -1.22771222709766e-10 0.856872537766999 0.341344212357487
    endloop
  endfacet
  facet normal -0.35682208980468155 -0.49112347315771415 -0.7946544722965597
    outer loop
      vertex 0.814934210395479 0.264788176209574 0.341344212357487
      vertex 2.78343901342483e-11 4.9848921806865e-11 0.870920564589128
      vertex -1.22771222709766e-10 0.856872537766999 0.341344212357487
    endloop
  endfacet
  facet normal -0.9341723590145268 0.3035309989144769 -0.18759247413266283
    outer loop
      vertex 0.814934210494034 -0.26478817622741 -0.515528325264012
      vertex 0.503657040723353 -0.693224445038074 0.341344212357487
      vertex 0.814934210395479 0.264788176209574 0.341344212357487
    endloop
  endfacet
  facet normal -0.9341723590376094 -0.3035309989591739 0.18759247394539538
    outer loop
      vertex 0.503657040821727 0.69322444490889 -0.515528325255118
      vertex 0.814934210494034 -0.26478817622741 -0.515528325264012
      vertex 0.814934210395479 0.264788176209574 0.341344212357487
    endloop
  endfacet
  facet normal -0.5773502692327245 0.1875924739719535 -0.7946544722871586
    outer loop
      vertex 0.503657040723353 -0.693224445038074 0.341344212357487
      vertex 2.78343901342483e-11 4.9848921806865e-11 0.870920564589128
      vertex 0.814934210395479 0.264788176209574 0.341344212357487
    endloop
  endfacet
  facet normal -0.5773502692043088 0.7946544722747937 0.18759247411178653
    outer loop
      vertex 0.814934210494034 -0.26478817622741 -0.515528325264012
      vertex 2.78343901342483e-11 -0.856872537681031 -0.515528325282007
      vertex 0.503657040723353 -0.693224445038074 0.341344212357487
    endloop
  endfacet
  facet normal -1.2407397930924567e-11 -1.3315207002260885e-11 1
    outer loop
      vertex 0.503657040821727 0.69322444490889 -0.515528325255118
      vertex 2.78343901342483e-11 -0.856872537681031 -0.515528325282007
      vertex 0.814934210494034 -0.26478817622741 -0.515528325264012
    endloop
  endfacet
  facet normal -3.802083212980565e-11 -4.992897741569714e-12 1
    outer loop
      vertex -0.5036570405939 0.693224444950703 -0.515528325293417
      vertex 2.78343901342483e-11 -0.856872537681031 -0.515528325282007
      vertex 0.503657040821727 0.69322444490889 -0.515528325255118
    endloop
  endfacet
  facet normal 7.00055533451387e-12 9.635437794227365e-12 1
    outer loop
      vertex 2.78343901342483e-11 -0.856872537681031 -0.515528325282007
      vertex -0.5036570405939 0.693224444950703 -0.515528325293417
      vertex -0.814934210507766 -0.264788176111001 -0.515528325282007
    endloop
  endfacet
endsolid OpenSCAD_Model
