solid OpenSCAD_Model
  facet normal 0.8164965809120486 -0.47140452081456535 0.33333333333845383
    outer loop
      vertex 6.34930572236608e-12 3.66517905014194e-12 -1
      vertex 3.80958343341965e-11 0.707106781220761 0
      vertex -0.612372435731774 -0.353553390614046 0
    endloop
  endfacet
  facet normal 0 0.9428090415748227 0.3333333333538132
    outer loop
      vertex 0.612372435680979 -0.353553390614046 0
      vertex 6.34930572236608e-12 3.66517905014194e-12 -1
      vertex -0.612372435731774 -0.353553390614046 0
    endloop
  endfacet
  facet normal 0 0.9428090415748223 -0.3333333333538142
    outer loop
      vertex 6.34930572236608e-12 3.66640281610192e-12 1
      vertex 0.612372435680979 -0.353553390614046 0
      vertex -0.612372435731774 -0.353553390614046 0
    endloop
  endfacet
  facet normal 0.8164965809120486 -0.4714045208145654 -0.3333333333384533
    outer loop
      vertex 3.80958343341965e-11 0.707106781220761 0
      vertex 6.34930572236608e-12 3.66640281610192e-12 1
      vertex -0.612372435731774 -0.353553390614046 0
    endloop
  endfacet
  facet normal -0.8164965809543774 -0.47140452074124956 0.3333333333384536
    outer loop
      vertex 3.80958343341965e-11 0.707106781220761 0
      vertex 6.34930572236608e-12 3.66517905014194e-12 -1
      vertex 0.612372435680979 -0.353553390614046 0
    endloop
  endfacet
  facet normal -0.8164965809543775 -0.4714045207412497 -0.3333333333384531
    outer loop
      vertex 6.34930572236608e-12 3.66640281610192e-12 1
      vertex 3.80958343341965e-11 0.707106781220761 0
      vertex 0.612372435680979 -0.353553390614046 0
    endloop
  endfacet
endsolid OpenSCAD_Model
