solid OpenSCAD_Model
  facet normal 0.5773502691408624 0.18759247403484688 0.7946544723390532
    outer loop
      vertex 6.81774697225718e-11 2.32147524755201e-11 -0.618033988608792
      vertex -0.951056516130549 0.309016994378849 0
      vertex -0.587785252185819 -0.809016994397647 0
    endloop
  endfacet
  facet normal 0 0.607061998097409 0.7946544723752466
    outer loop
      vertex 0.58778525226123 -0.809016994397647 0
      vertex 6.81774697225718e-11 2.32147524755201e-11 -0.618033988608792
      vertex -0.587785252185819 -0.809016994397647 0
    endloop
  endfacet
  facet normal -1.0346641650567834e-17 0.6070619980974091 -0.7946544723752466
    outer loop
      vertex 6.81774697225718e-11 2.32147524755201e-11 0.618033988608792
      vertex 0.58778525226123 -0.809016994397647 0
      vertex -0.587785252185819 -0.809016994397647 0
    endloop
  endfacet
  facet normal 0.5773502691408624 0.1875924740348469 -0.7946544723390531
    outer loop
      vertex -0.951056516130549 0.309016994378849 0
      vertex 6.81774697225718e-11 2.32147524755201e-11 0.618033988608792
      vertex -0.587785252185819 -0.809016994397647 0
    endloop
  endfacet
  facet normal 0.3568220897834735 -0.4911234730712097 0.7946544723595456
    outer loop
      vertex 6.81774697225718e-11 2.32147524755201e-11 -0.618033988608792
      vertex -1.0758450911319e-10 0.999999999991165 0
      vertex -0.951056516130549 0.309016994378849 0
    endloop
  endfacet
  facet normal 0.3568220897834735 -0.4911234730712097 -0.7946544723595456
    outer loop
      vertex -1.0758450911319e-10 0.999999999991165 0
      vertex 6.81774697225718e-11 2.32147524755201e-11 0.618033988608792
      vertex -0.951056516130549 0.309016994378849 0
    endloop
  endfacet
  facet normal -0.3568220898046815 -0.4911234731577139 0.7946544722965598
    outer loop
      vertex 6.81774697225718e-11 2.32147524755201e-11 -0.618033988608792
      vertex 0.951056516026368 0.309016994378849 0
      vertex -1.0758450911319e-10 0.999999999991165 0
    endloop
  endfacet
  facet normal -0.3568220898046815 -0.49112347315771393 -0.7946544722965599
    outer loop
      vertex 0.951056516026368 0.309016994378849 0
      vertex 6.81774697225718e-11 2.32147524755201e-11 0.618033988608792
      vertex -1.0758450911319e-10 0.999999999991165 0
    endloop
  endfacet
  facet normal -0.5773502692327244 0.1875924739719537 0.7946544722871587
    outer loop
      vertex 6.81774697225718e-11 2.32147524755201e-11 -0.618033988608792
      vertex 0.58778525226123 -0.809016994397647 0
      vertex 0.951056516026368 0.309016994378849 0
    endloop
  endfacet
  facet normal -0.5773502692327244 0.18759247397195372 -0.7946544722871586
    outer loop
      vertex 0.58778525226123 -0.809016994397647 0
      vertex 6.81774697225718e-11 2.32147524755201e-11 0.618033988608792
      vertex 0.951056516026368 0.309016994378849 0
    endloop
  endfacet
endsolid OpenSCAD_Model
