solid OpenSCAD_Model
  facet normal 0.8660254037694735 -0.5000000000259207 2.5920871947193732e-11
    outer loop
      vertex -0.379795897143206 -0.219275263467773 0.37979589711406
      vertex 5.68334466941267e-11 0.438550526904053 -0.37979589707085
      vertex 1.55237664371488e-11 0.438550526871881 0.37979589711406
    endloop
  endfacet
  facet normal 0.8660254037694731 -0.5000000000259208 2.5920620477313973e-11
    outer loop
      vertex 5.68334466941267e-11 0.438550526904053 -0.37979589707085
      vertex -0.379795897143206 -0.219275263467773 0.37979589711406
      vertex -0.379795897109103 -0.219275263448083 -0.379795897124642
    endloop
  endfacet
  facet normal 4.195724292149562e-28 1 2.5921817190780214e-11
    outer loop
      vertex 0.379795897095496 -0.219275263448083 -0.379795897158748
      vertex -0.379795897143206 -0.219275263467773 0.37979589711406
      vertex 0.379795897095496 -0.219275263467773 0.37979589711406
    endloop
  endfacet
  facet normal 1.1638991823163338e-21 1 2.5921817191944112e-11
    outer loop
      vertex -0.379795897143206 -0.219275263467773 0.37979589711406
      vertex 0.379795897095496 -0.219275263448083 -0.379795897158748
      vertex -0.379795897109103 -0.219275263448083 -0.379795897124642
    endloop
  endfacet
  facet normal 9.514885219001447e-18 0.9428090415748221 -0.33333333335381476
    outer loop
      vertex -4.16556086029426e-12 -1.7431980393345e-11 1
      vertex 0.379795897095496 -0.219275263467773 0.37979589711406
      vertex -0.379795897143206 -0.219275263467773 0.37979589711406
    endloop
  endfacet
  facet normal 0.816496580912049 -0.47140452081456485 -0.33333333333845305
    outer loop
      vertex 1.55237664371488e-11 0.438550526871881 0.37979589711406
      vertex -4.16556086029426e-12 -1.7431980393345e-11 1
      vertex -0.379795897143206 -0.219275263467773 0.37979589711406
    endloop
  endfacet
  facet normal -0.866025403842027 -0.49999999990025423 -6.827515689178811e-11
    outer loop
      vertex 0.379795897095496 -0.219275263448083 -0.379795897158748
      vertex 1.55237664371488e-11 0.438550526871881 0.37979589711406
      vertex 5.68334466941267e-11 0.438550526904053 -0.37979589707085
    endloop
  endfacet
  facet normal -0.8660254038143699 -0.4999999999481577 -1.2960928786367409e-11
    outer loop
      vertex 1.55237664371488e-11 0.438550526871881 0.37979589711406
      vertex 0.379795897095496 -0.219275263448083 -0.379795897158748
      vertex 0.379795897095496 -0.219275263467773 0.37979589711406
    endloop
  endfacet
  facet normal -0.8164965809543778 -0.4714045207412493 -0.333333333338453
    outer loop
      vertex 0.379795897095496 -0.219275263467773 0.37979589711406
      vertex -4.16556086029426e-12 -1.7431980393345e-11 1
      vertex 1.55237664371488e-11 0.438550526871881 0.37979589711406
    endloop
  endfacet
  facet normal 0.8164965809287363 -0.4714045208514571 0.3333333332454039
    outer loop
      vertex -6.87505179825142e-12 7.32108600552219e-11 -0.999999999987941
      vertex 5.68334466941267e-11 0.438550526904053 -0.37979589707085
      vertex -0.379795897109103 -0.219275263448083 -0.379795897124642
    endloop
  endfacet
  facet normal 1.4966808962127304e-11 0.9428090415342205 0.3333333334686534
    outer loop
      vertex 0.379795897095496 -0.219275263448083 -0.379795897158748
      vertex -6.87505179825142e-12 7.32108600552219e-11 -0.999999999987941
      vertex -0.379795897109103 -0.219275263448083 -0.379795897124642
    endloop
  endfacet
  facet normal -0.8164965809643101 -0.4714045207313049 0.3333333333281874
    outer loop
      vertex -6.87505179825142e-12 7.32108600552219e-11 -0.999999999987941
      vertex 0.379795897095496 -0.219275263448083 -0.379795897158748
      vertex 5.68334466941267e-11 0.438550526904053 -0.37979589707085
    endloop
  endfacet
endsolid OpenSCAD_Model
