solid OpenSCAD_Model
  facet normal 3.401370787109164e-27 1 4.4892268988661865e-11
    outer loop
      vertex 0.414213562339576 -0.414213562371515 -0.414213562384274
      vertex -0.414213562403446 -0.414213562408705 0.414213562395945
      vertex 0.414213562376772 -0.414213562408705 0.414213562395945
    endloop
  endfacet
  facet normal 3.6184259026426295e-15 1 4.4895887414564336e-11
    outer loop
      vertex -0.414213562403446 -0.414213562408705 0.414213562395945
      vertex 0.414213562339576 -0.414213562371515 -0.414213562384274
      vertex -0.414213562366252 -0.414213562371512 -0.414213562384274
    endloop
  endfacet
  facet normal 0 0 -1
    outer loop
      vertex -0.414213562403446 -0.414213562408705 0.414213562395945
      vertex 0.414213562413969 0.414213562371513 0.414213562395945
      vertex 0.414213562376772 -0.414213562408705 0.414213562395945
    endloop
  endfacet
  facet normal 0 0 -1
    outer loop
      vertex 0.414213562413969 0.414213562371513 0.414213562395945
      vertex -0.414213562403446 -0.414213562408705 0.414213562395945
      vertex -0.414213562366252 0.414213562445897 0.414213562395945
    endloop
  endfacet
  facet normal 0.5773502692402709 -2.592139814433502e-11 -0.8164965808919146
    outer loop
      vertex -1 6.63706560732363e-11 -2.33408570743775e-11
      vertex -0.414213562366252 0.414213562445897 0.414213562395945
      vertex -0.414213562403446 -0.414213562408705 0.414213562395945
    endloop
  endfacet
  facet normal 0.5773502692748319 0.8164965808674762 6.257868762352367e-11
    outer loop
      vertex -0.414213562366252 -0.414213562371512 -0.414213562384274
      vertex -1 6.63706560732363e-11 -2.33408570743775e-11
      vertex -0.414213562403446 -0.414213562408705 0.414213562395945
    endloop
  endfacet
  facet normal -8.978942955308035e-11 -1 4.488992370858289e-11
    outer loop
      vertex -0.414213562329059 0.414213562408709 -0.414213562384274
      vertex 0.414213562413969 0.414213562371513 0.414213562395945
      vertex -0.414213562366252 0.414213562445897 0.414213562395945
    endloop
  endfacet
  facet normal -8.979666641294844e-11 -1 4.489716056845065e-11
    outer loop
      vertex 0.414213562413969 0.414213562371513 0.414213562395945
      vertex -0.414213562329059 0.414213562408709 -0.414213562384274
      vertex 0.414213562376772 0.414213562334319 -0.414213562384274
    endloop
  endfacet
  facet normal 0.5773502691616084 -0.8164965809475374 6.257307415065888e-11
    outer loop
      vertex -1 6.63706560732363e-11 -2.33408570743775e-11
      vertex -0.414213562329059 0.414213562408709 -0.414213562384274
      vertex -0.414213562366252 0.414213562445897 0.414213562395945
    endloop
  endfacet
  facet normal -0.577350269274835 2.5923454028397892e-11 -0.8164965808674739
    outer loop
      vertex 0.999999999957921 -6.63731393681803e-11 -2.33433403693216e-11
      vertex 0.414213562376772 -0.414213562408705 0.414213562395945
      vertex 0.414213562413969 0.414213562371513 0.414213562395945
    endloop
  endfacet
  facet normal -0.5773502692748358 -0.8164965808674733 6.258185493221756e-11
    outer loop
      vertex 0.414213562376772 0.414213562334319 -0.414213562384274
      vertex 0.999999999957921 -6.63731393681803e-11 -2.33433403693216e-11
      vertex 0.414213562413969 0.414213562371513 0.414213562395945
    endloop
  endfacet
  facet normal -0.5773502691616051 0.8164965809475397 6.257715472446992e-11
    outer loop
      vertex 0.999999999957921 -6.63731393681803e-11 -2.33433403693216e-11
      vertex 0.414213562339576 -0.414213562371515 -0.414213562384274
      vertex 0.414213562376772 -0.414213562408705 0.414213562395945
    endloop
  endfacet
  facet normal 0 0 1
    outer loop
      vertex -0.414213562329059 0.414213562408709 -0.414213562384274
      vertex 0.414213562339576 -0.414213562371515 -0.414213562384274
      vertex 0.414213562376772 0.414213562334319 -0.414213562384274
    endloop
  endfacet
  facet normal 0 0 1
    outer loop
      vertex 0.414213562339576 -0.414213562371515 -0.414213562384274
      vertex -0.414213562329059 0.414213562408709 -0.414213562384274
      vertex -0.414213562366252 -0.414213562371512 -0.414213562384274
    endloop
  endfacet
  facet normal 0.577350269161609 -2.5920691370069505e-11 0.8164965809475369
    outer loop
      vertex -0.414213562329059 0.414213562408709 -0.414213562384274
      vertex -1 6.63706560732363e-11 -2.33408570743775e-11
      vertex -0.414213562366252 -0.414213562371512 -0.414213562384274
    endloop
  endfacet
  facet normal -0.5773502691961668 2.5922741786095817e-11 0.8164965809231008
    outer loop
      vertex 0.414213562339576 -0.414213562371515 -0.414213562384274
      vertex 0.999999999957921 -6.63731393681803e-11 -2.33433403693216e-11
      vertex 0.414213562376772 0.414213562334319 -0.414213562384274
    endloop
  endfacet
endsolid OpenSCAD_Model
