solid OpenSCAD_Model
  facet normal 0.9510565163118019 0.3090169943237093 6.179578765715528e-11
    outer loop
      vertex -0.48745718456896 -0.670927255946894 0.487457184546752
      vertex -0.788722292632703 0.25627140783114 -0.487457184491607
      vertex -0.788722292681565 0.256271407786563 0.487457184546752
    endloop
  endfacet
  facet normal 0.9510565163118022 0.30901699432370816 6.179458885102611e-11
    outer loop
      vertex -0.788722292632703 0.25627140783114 -0.487457184491607
      vertex -0.48745718456896 -0.670927255946894 0.487457184546752
      vertex -0.48745718452519 -0.670927255886649 -0.487457184595622
    endloop
  endfacet
  facet normal -1.6141809077602022e-27 1 6.179508895119336e-11
    outer loop
      vertex 0.487457184573414 -0.670927255886649 -0.487457184639396
      vertex -0.48745718456896 -0.670927255946894 0.487457184546752
      vertex 0.487457184573414 -0.670927255946894 0.487457184546752
    endloop
  endfacet
  facet normal 2.774618750342845e-21 1 6.179508895396797e-11
    outer loop
      vertex -0.48745718456896 -0.670927255946894 0.487457184546752
      vertex 0.487457184573414 -0.670927255886649 -0.487457184639396
      vertex -0.48745718452519 -0.670927255886649 -0.487457184595622
    endloop
  endfacet
  facet normal 1.8656975314654228e-17 0.6070619980974088 -0.7946544723752466
    outer loop
      vertex 2.74974538307806e-11 1.7446435676022e-11 1
      vertex 0.487457184573414 -0.670927255946894 0.487457184546752
      vertex -0.48745718456896 -0.670927255946894 0.487457184546752
    endloop
  endfacet
  facet normal 0.5773502691408624 0.18759247403484716 -0.7946544723390532
    outer loop
      vertex -0.788722292681565 0.256271407786563 0.487457184546752
      vertex 2.74974538307806e-11 1.7446435676022e-11 1
      vertex -0.48745718456896 -0.670927255946894 0.487457184546752
    endloop
  endfacet
  facet normal 0.5877852523954846 -0.8090169943001051 -7.532127800233565e-12
    outer loop
      vertex -0.788722292632703 0.25627140783114 -0.487457184491607
      vertex -1.18264010979432e-10 0.829311696273127 0.487457184546752
      vertex -0.788722292681565 0.256271407786563 0.487457184546752
    endloop
  endfacet
  facet normal 0.5877852522186109 -0.8090169944286114 2.1109579476172265e-10
    outer loop
      vertex -1.18264010979432e-10 0.829311696273127 0.487457184546752
      vertex -0.788722292632703 0.25627140783114 -0.487457184491607
      vertex 8.49315958871431e-11 0.829311696166374 -0.487457184471096
    endloop
  endfacet
  facet normal 0.3568220897834734 -0.4911234730712095 -0.7946544723595456
    outer loop
      vertex -1.18264010979432e-10 0.829311696273127 0.487457184546752
      vertex 2.74974538307806e-11 1.7446435676022e-11 1
      vertex -0.788722292681565 0.256271407786563 0.487457184546752
    endloop
  endfacet
  facet normal -0.5877852523505893 -0.8090169943327234 -3.392137771186081e-11
    outer loop
      vertex 8.49315958871431e-11 0.829311696166374 -0.487457184471096
      vertex 0.78872229253708 0.256271407786563 0.487457184546752
      vertex -1.18264010979432e-10 0.829311696273127 0.487457184546752
    endloop
  endfacet
  facet normal -0.5877852523588147 -0.8090169943267473 -2.3754100838962886e-11
    outer loop
      vertex 0.78872229253708 0.256271407786563 0.487457184546752
      vertex 8.49315958871431e-11 0.829311696166374 -0.487457184471096
      vertex 0.788722292710079 0.256271407689497 -0.487457184562434
    endloop
  endfacet
  facet normal -0.3568220898046816 -0.4911234731577138 -0.7946544722965599
    outer loop
      vertex 0.78872229253708 0.256271407786563 0.487457184546752
      vertex 2.74974538307806e-11 1.7446435676022e-11 1
      vertex -1.18264010979432e-10 0.829311696273127 0.487457184546752
    endloop
  endfacet
  facet normal -0.9510565162891405 0.3090169943934538 -1.9953222114875235e-10
    outer loop
      vertex 0.487457184573414 -0.670927255886649 -0.487457184639396
      vertex 0.78872229253708 0.256271407786563 0.487457184546752
      vertex 0.788722292710079 0.256271407689497 -0.487457184562434
    endloop
  endfacet
  facet normal -0.9510565163567003 0.3090169941855263 1.9095749773025792e-11
    outer loop
      vertex 0.78872229253708 0.256271407786563 0.487457184546752
      vertex 0.487457184573414 -0.670927255886649 -0.487457184639396
      vertex 0.487457184573414 -0.670927255946894 0.487457184546752
    endloop
  endfacet
  facet normal -0.5773502692327245 0.18759247397195325 -0.7946544722871587
    outer loop
      vertex 0.487457184573414 -0.670927255946894 0.487457184546752
      vertex 2.74974538307806e-11 1.7446435676022e-11 1
      vertex 0.78872229253708 0.256271407786563 0.487457184546752
    endloop
  endfacet
  facet normal 0.577350269170379 0.18759247395529102 0.7946544723363888
    outer loop
      vertex 2.02664486739876e-11 1.16374946465211e-10 -0.999999999973603
      vertex -0.788722292632703 0.25627140783114 -0.487457184491607
      vertex -0.48745718452519 -0.670927255886649 -0.487457184595622
    endloop
  endfacet
  facet normal 3.56802994443907e-11 0.6070619980026422 0.7946544724476418
    outer loop
      vertex 0.487457184573414 -0.670927255886649 -0.487457184639396
      vertex 2.02664486739876e-11 1.16374946465211e-10 -0.999999999973603
      vertex -0.48745718452519 -0.670927255886649 -0.487457184595622
    endloop
  endfacet
  facet normal 0.3568220897413525 -0.49112347326747635 0.7946544722571593
    outer loop
      vertex 2.02664486739876e-11 1.16374946465211e-10 -0.999999999973603
      vertex 8.49315958871431e-11 0.829311696166374 -0.487457184471096
      vertex -0.788722292632703 0.25627140783114 -0.487457184491607
    endloop
  endfacet
  facet normal -0.3568220897670319 -0.49112347322205396 0.7946544722737015
    outer loop
      vertex 2.02664486739876e-11 1.16374946465211e-10 -0.999999999973603
      vertex 0.788722292710079 0.256271407689497 -0.487457184562434
      vertex 8.49315958871431e-11 0.829311696166374 -0.487457184471096
    endloop
  endfacet
  facet normal -0.5773502690856487 0.187592473997756 0.7946544723879243
    outer loop
      vertex 2.02664486739876e-11 1.16374946465211e-10 -0.999999999973603
      vertex 0.487457184573414 -0.670927255886649 -0.487457184639396
      vertex 0.788722292710079 0.256271407689497 -0.487457184562434
    endloop
  endfacet
endsolid OpenSCAD_Model
