solid OpenSCAD_Model
  facet normal 0.9709835434243437 -4.359310233829546e-11 -0.23914631169872944
    outer loop
      vertex -0.627115119164393 4.53517034258528e-11 -0.372884880845791
      vertex -0.443437353349999 0.443437353422033 0.372884880822433
      vertex -0.443437353389816 -0.443437353393803 0.372884880822433
    endloop
  endfacet
  facet normal 0.6865890480025743 0.6865890479100976 0.2391463118110426
    outer loop
      vertex 1.27460187723251e-12 -0.627115119204782 -0.372884880845791
      vertex -0.627115119164393 4.53517034258528e-11 -0.372884880845791
      vertex -0.443437353389816 -0.443437353393803 0.372884880822433
    endloop
  endfacet
  facet normal 0 0.970983543419357 -0.2391463117189756
    outer loop
      vertex 0.443437353346388 -0.443437353393803 0.372884880822433
      vertex 1.27460187723251e-12 -0.627115119204782 -0.372884880845791
      vertex -0.443437353389816 -0.443437353393803 0.372884880822433
    endloop
  endfacet
  facet normal -8.799825446113712e-18 0.8164965808933978 -0.5773502692381731
    outer loop
      vertex 1.27548804307995e-12 1.71951621036985e-11 1
      vertex 0.443437353346388 -0.443437353393803 0.372884880822433
      vertex -0.443437353389816 -0.443437353393803 0.372884880822433
    endloop
  endfacet
  facet normal 0.8164965809178351 -3.665729811442774e-11 -0.5773502692036138
    outer loop
      vertex -0.443437353349999 0.443437353422033 0.372884880822433
      vertex 1.27548804307995e-12 1.71951621036985e-11 1
      vertex -0.443437353389816 -0.443437353393803 0.372884880822433
    endloop
  endfacet
  facet normal 6.54052897021904e-18 -0.9709835434473366 -0.23914631160537322
    outer loop
      vertex 6.38418492212749e-11 0.627115119136893 -0.372884880831283
      vertex 0.443437353306574 0.443437353422033 0.372884880822433
      vertex -0.443437353349999 0.443437353422033 0.372884880822433
    endloop
  endfacet
  facet normal 0.6865890478771062 -0.6865890480322958 0.2391463118204309
    outer loop
      vertex -0.627115119164393 4.53517034258528e-11 -0.372884880845791
      vertex 6.38418492212749e-11 0.627115119136893 -0.372884880831283
      vertex -0.443437353349999 0.443437353422033 0.372884880822433
    endloop
  endfacet
  facet normal 0 -0.8164965808971789 -0.5773502692328261
    outer loop
      vertex 0.443437353306574 0.443437353422033 0.372884880822433
      vertex 1.27548804307995e-12 1.71951621036985e-11 1
      vertex -0.443437353349999 0.443437353422033 0.372884880822433
    endloop
  endfacet
  facet normal -0.9709835434074722 -4.358983797309939e-11 -0.2391463117672311
    outer loop
      vertex 0.627115119173198 -5.69360080036219e-11 -0.372884880831283
      vertex 0.443437353346388 -0.443437353393803 0.372884880822433
      vertex 0.443437353306574 0.443437353422033 0.372884880822433
    endloop
  endfacet
  facet normal -0.6865890480097104 -0.6865890479172263 0.23914631177008835
    outer loop
      vertex 6.38418492212749e-11 0.627115119136893 -0.372884880831283
      vertex 0.627115119173198 -5.69360080036219e-11 -0.372884880831283
      vertex 0.443437353306574 0.443437353422033 0.372884880822433
    endloop
  endfacet
  facet normal -0.8164965809460543 -3.6654538388868366e-11 -0.5773502691637058
    outer loop
      vertex 0.443437353346388 -0.443437353393803 0.372884880822433
      vertex 1.27548804307995e-12 1.71951621036985e-11 1
      vertex 0.443437353306574 0.443437353422033 0.372884880822433
    endloop
  endfacet
  facet normal -0.6865890479606941 0.6865890479815223 0.23914631172622042
    outer loop
      vertex 0.627115119173198 -5.69360080036219e-11 -0.372884880831283
      vertex 1.27460187723251e-12 -0.627115119204782 -0.372884880845791
      vertex 0.443437353346388 -0.443437353393803 0.372884880822433
    endloop
  endfacet
  facet normal 0.5773502692012075 0.5773502691234442 0.5773502692442256
    outer loop
      vertex 1.16563301685915e-11 5.81836802853794e-12 -0.999999999935581
      vertex -0.627115119164393 4.53517034258528e-11 -0.372884880845791
      vertex 1.27460187723251e-12 -0.627115119204782 -0.372884880845791
    endloop
  endfacet
  facet normal -0.5773502691498639 0.5773502691586738 0.5773502692603395
    outer loop
      vertex 0.627115119173198 -5.69360080036219e-11 -0.372884880831283
      vertex 1.16563301685915e-11 5.81836802853794e-12 -0.999999999935581
      vertex 1.27460187723251e-12 -0.627115119204782 -0.372884880845791
    endloop
  endfacet
  facet normal 0.5773502691046213 -0.5773502692438243 0.5773502692204318
    outer loop
      vertex 1.16563301685915e-11 5.81836802853794e-12 -0.999999999935581
      vertex 6.38418492212749e-11 0.627115119136893 -0.372884880831283
      vertex -0.627115119164393 4.53517034258528e-11 -0.372884880845791
    endloop
  endfacet
  facet normal -0.5773502692172401 -0.5773502691394705 0.5773502692121666
    outer loop
      vertex 1.16563301685915e-11 5.81836802853794e-12 -0.999999999935581
      vertex 0.627115119173198 -5.69360080036219e-11 -0.372884880831283
      vertex 6.38418492212749e-11 0.627115119136893 -0.372884880831283
    endloop
  endfacet
endsolid OpenSCAD_Model
