solid OpenSCAD_Model
  facet normal 0.8660254038143699 0.49999999994815764 7.776330556868257e-11
    outer loop
      vertex -0.397448513732033 -0.688401019354741 0.188152669986145
      vertex -0.794897027484229 7.55966798146797e-11 -0.606744357477039
      vertex -0.79489702753298 3.64082495834213e-11 0.188152669986145
    endloop
  endfacet
  facet normal 0.8660254038143694 0.4999999999481585 7.776431147644832e-11
    outer loop
      vertex -0.794897027484229 7.55966798146797e-11 -0.606744357477039
      vertex -0.397448513732033 -0.688401019354741 0.188152669986145
      vertex -0.397448513696344 -0.688401019292927 -0.606744357574541
    endloop
  endfacet
  facet normal 2.0782566405244997e-27 1 7.776352938602816e-11
    outer loop
      vertex 0.397448513828653 -0.688401019292927 -0.606744357610232
      vertex -0.397448513732033 -0.688401019354741 0.188152669986145
      vertex 0.397448513828653 -0.688401019354741 0.188152669986145
    endloop
  endfacet
  facet normal 3.491597184400072e-21 1 7.776352938951976e-11
    outer loop
      vertex -0.397448513732033 -0.688401019354741 0.188152669986145
      vertex 0.397448513828653 -0.688401019292927 -0.606744357610232
      vertex -0.397448513696344 -0.688401019292927 -0.606744357574541
    endloop
  endfacet
  facet normal -2.171086926403562e-17 0.942809041522883 -0.3333333335007206
    outer loop
      vertex 6.89149533981679e-11 -0.458934012818092 0.837183375142056
      vertex 0.397448513828653 -0.688401019354741 0.188152669986145
      vertex -0.397448513732033 -0.688401019354741 0.188152669986145
    endloop
  endfacet
  facet normal 0.7071067811584545 0.40824829039120447 -0.5773502692754098
    outer loop
      vertex 6.89149533981679e-11 -0.458934012818092 0.837183375142056
      vertex -0.79489702753298 3.64082495834213e-11 0.188152669986145
      vertex -0.397448513696344 0.229467006520732 0.837183375148765
    endloop
  endfacet
  facet normal 0.7071067811584545 0.4082482903912047 -0.5773502692754098
    outer loop
      vertex -0.79489702753298 3.64082495834213e-11 0.188152669986145
      vertex 6.89149533981679e-11 -0.458934012818092 0.837183375142056
      vertex -0.397448513732033 -0.688401019354741 0.188152669986145
    endloop
  endfacet
  facet normal 0.8660254036999263 -0.5000000001463795 4.3693455364529186e-10
    outer loop
      vertex -0.397448513917473 0.688401019391868 0.188152669986145
      vertex -0.794897027484229 7.55966798146797e-11 -0.606744357477039
      vertex -0.397448513634531 0.688401019187302 -0.606744357574541
    endloop
  endfacet
  facet normal 0.866025403904162 -0.499999999792633 2.846329949356374e-11
    outer loop
      vertex -0.794897027484229 7.55966798146797e-11 -0.606744357477039
      vertex -0.397448513917473 0.688401019391868 0.188152669986145
      vertex -0.79489702753298 3.64082495834213e-11 0.188152669986145
    endloop
  endfacet
  facet normal 0.8164965809921646 -0.4714045205675587 -0.33333333349153044
    outer loop
      vertex -0.397448513917473 0.688401019391868 0.188152669986145
      vertex -0.397448513696344 0.229467006520732 0.837183375148765
      vertex -0.79489702753298 3.64082495834213e-11 0.188152669986145
    endloop
  endfacet
  facet normal 5.6608631075712755e-27 -1 2.5734909515161393e-10
    outer loop
      vertex -0.397448513634531 0.688401019187302 -0.606744357574541
      vertex 0.397448513519585 0.688401019391868 0.188152669986145
      vertex -0.397448513917473 0.688401019391868 0.188152669986145
    endloop
  endfacet
  facet normal -8.979026885446166e-11 -1 3.471393639601501e-10
    outer loop
      vertex 0.397448513519585 0.688401019391868 0.188152669986145
      vertex -0.397448513634531 0.688401019187302 -0.606744357574541
      vertex 0.397448513961846 0.688401019115928 -0.606744357538852
    endloop
  endfacet
  facet normal -6.349770489516175e-11 -0.8164965808966741 -0.5773502692335398
    outer loop
      vertex -0.397448513917473 0.688401019391868 0.188152669986145
      vertex 0.397448513545707 0.229467006463658 0.837183375142056
      vertex -0.397448513696344 0.229467006520732 0.837183375148765
    endloop
  endfacet
  facet normal -1.6758794593129866e-17 -0.8164965808600136 -0.5773502692853854
    outer loop
      vertex 0.397448513545707 0.229467006463658 0.837183375142056
      vertex -0.397448513917473 0.688401019391868 0.188152669986145
      vertex 0.397448513519585 0.688401019391868 0.188152669986145
    endloop
  endfacet
  facet normal -0.8660254037694717 -0.5000000000259237 -3.0826538929675943e-10
    outer loop
      vertex 0.397448513961846 0.688401019115928 -0.606744357538852
      vertex 0.794897027382347 3.64098381067892e-11 0.188152669986145
      vertex 0.397448513519585 0.688401019391868 0.188152669986145
    endloop
  endfacet
  facet normal -0.8660254038726929 -0.49999999984713916 -1.0182284257767775e-10
    outer loop
      vertex 0.794897027382347 3.64098381067892e-11 0.188152669986145
      vertex 0.397448513961846 0.688401019115928 -0.606744357538852
      vertex 0.794897027558226 -1.06344138125052e-10 -0.606744357574541
    endloop
  endfacet
  facet normal -0.8164965808952844 -0.4714045208048896 -0.33333333339320054
    outer loop
      vertex 0.794897027382347 3.64098381067892e-11 0.188152669986145
      vertex 0.397448513545707 0.229467006463658 0.837183375142056
      vertex 0.397448513519585 0.688401019391868 0.188152669986145
    endloop
  endfacet
  facet normal -0.8660254037889127 0.49999999999225053 -2.8141085554982576e-10
    outer loop
      vertex 0.397448513828653 -0.688401019292927 -0.606744357610232
      vertex 0.794897027382347 3.64098381067892e-11 0.188152669986145
      vertex 0.794897027558226 -1.06344138125052e-10 -0.606744357574541
    endloop
  endfacet
  facet normal -0.866025403949059 0.499999999714869 3.888178629264226e-11
    outer loop
      vertex 0.794897027382347 3.64098381067892e-11 0.188152669986145
      vertex 0.397448513828653 -0.688401019292927 -0.606744357610232
      vertex 0.397448513828653 -0.688401019354741 0.188152669986145
    endloop
  endfacet
  facet normal -0.7071067812867571 0.40824829019719505 -0.5773502692554572
    outer loop
      vertex 0.794897027382347 3.64098381067892e-11 0.188152669986145
      vertex 6.89149533981679e-11 -0.458934012818092 0.837183375142056
      vertex 0.397448513545707 0.229467006463658 0.837183375142056
    endloop
  endfacet
  facet normal -0.7071067812867572 0.4082482902113078 -0.577350269245478
    outer loop
      vertex 6.89149533981679e-11 -0.458934012818092 0.837183375142056
      vertex 0.794897027382347 3.64098381067892e-11 0.188152669986145
      vertex 0.397448513828653 -0.688401019354741 0.188152669986145
    endloop
  endfacet
  facet normal -2.514040468054649e-15 -5.1844790333058546e-11 1
    outer loop
      vertex 0.397448513961846 0.688401019115928 -0.606744357538852
      vertex 0.397448513828653 -0.688401019292927 -0.606744357610232
      vertex 0.794897027558226 -1.06344138125052e-10 -0.606744357574541
    endloop
  endfacet
  facet normal -4.489764846223259e-11 -5.184479032871536e-11 1
    outer loop
      vertex -0.397448513634531 0.688401019187302 -0.606744357574541
      vertex 0.397448513828653 -0.688401019292927 -0.606744357610232
      vertex 0.397448513961846 0.688401019115928 -0.606744357538852
    endloop
  endfacet
  facet normal 4.490016249974883e-11 -2.015840788634852e-21 1
    outer loop
      vertex -0.397448513634531 0.688401019187302 -0.606744357574541
      vertex -0.397448513696344 -0.688401019292927 -0.606744357574541
      vertex 0.397448513828653 -0.688401019292927 -0.606744357610232
    endloop
  endfacet
  facet normal 2.453198416363548e-10 -1.1013896509500891e-20 1
    outer loop
      vertex -0.397448513696344 -0.688401019292927 -0.606744357574541
      vertex -0.397448513634531 0.688401019187302 -0.606744357574541
      vertex -0.794897027484229 7.55966798146797e-11 -0.606744357477039
    endloop
  endfacet
  facet normal -8.440045043955517e-12 4.872862274226758e-12 -1
    outer loop
      vertex -0.397448513696344 0.229467006520732 0.837183375148765
      vertex 0.397448513545707 0.229467006463658 0.837183375142056
      vertex 6.89149533981679e-11 -0.458934012818092 0.837183375142056
    endloop
  endfacet
endsolid OpenSCAD_Model
