solid OpenSCAD_Model
  facet normal 0.7071067812341679 0.7071067811389271 1.083902604953498e-10
    outer loop
      vertex -0.332829853260595 -0.803522346284432 0.172125384234394
      vertex -0.803522345971533 -0.332829853408059 -0.493534322547634
      vertex -0.803522346031305 -0.332829853450324 0.172125384234394
    endloop
  endfacet
  facet normal 0.7071067812341678 0.7071067811389271 1.0839019936839951e-10
    outer loop
      vertex -0.803522345971533 -0.332829853408059 -0.493534322547634
      vertex -0.332829853260595 -0.803522346284432 0.172125384234394
      vertex -0.332829853230709 -0.803522346212281 -0.493534322649671
    endloop
  endfacet
  facet normal 8.385265186753978e-28 1 1.0839014458939062e-10
    outer loop
      vertex 0.332829853623471 -0.803522346212281 -0.493534322679559
      vertex -0.332829853260595 -0.803522346284432 0.172125384234394
      vertex 0.332829853623471 -0.803522346284432 0.172125384234394
    endloop
  endfacet
  facet normal 4.866677479558858e-21 1 1.0839014459425732e-10
    outer loop
      vertex -0.332829853260595 -0.803522346284432 0.172125384234394
      vertex 0.332829853623471 -0.803522346212281 -0.493534322679559
      vertex -0.332829853230709 -0.803522346212281 -0.493534322649671
    endloop
  endfacet
  facet normal 9.731039651560752e-16 0.7071067808460403 -0.7071067815270549
    outer loop
      vertex 0.332829853623471 -0.803522346284432 0.172125384234394
      vertex -0.332829853230709 -0.33282985325536 0.642817876810141
      vertex 0.332829853472979 -0.332829853425172 0.64281787664033
    endloop
  endfacet
  facet normal -2.327839241841922e-17 0.7071067808460395 -0.7071067815270555
    outer loop
      vertex -0.332829853230709 -0.33282985325536 0.642817876810141
      vertex 0.332829853623471 -0.803522346284432 0.172125384234394
      vertex -0.332829853260595 -0.803522346284432 0.172125384234394
    endloop
  endfacet
  facet normal 0.5773502690438999 0.5773502689661361 -0.5773502695588414
    outer loop
      vertex -0.803522346031305 -0.332829853450324 0.172125384234394
      vertex -0.332829853230709 -0.33282985325536 0.642817876810141
      vertex -0.332829853260595 -0.803522346284432 0.172125384234394
    endloop
  endfacet
  facet normal 1 3.8866245625396213e-10 6.31743130883635e-10
    outer loop
      vertex -0.803522346031305 -0.332829853450324 0.172125384234394
      vertex -0.803522345869496 0.332829853403857 -0.493534322649671
      vertex -0.803522346290022 0.332829853578041 0.172125384234394
    endloop
  endfacet
  facet normal 1 -1.532870991383108e-10 8.979357551569222e-11
    outer loop
      vertex -0.803522345869496 0.332829853403857 -0.493534322649671
      vertex -0.803522346031305 -0.332829853450324 0.172125384234394
      vertex -0.803522345971533 -0.332829853408059 -0.493534322547634
    endloop
  endfacet
  facet normal 0.7071067811840936 5.102046185174916e-10 -0.7071067811890015
    outer loop
      vertex -0.332829853230709 -0.33282985325536 0.642817876810141
      vertex -0.803522346290022 0.332829853578041 0.172125384234394
      vertex -0.332829853651237 0.332829853502621 0.642817876869912
    endloop
  endfacet
  facet normal 0.7071067810176557 2.748258583441546e-10 -0.7071067813554395
    outer loop
      vertex -0.803522346290022 0.332829853578041 0.172125384234394
      vertex -0.332829853230709 -0.33282985325536 0.642817876810141
      vertex -0.803522346031305 -0.332829853450324 0.172125384234394
    endloop
  endfacet
  facet normal 0.7071067814772494 -0.7071067808958458 1.1550926911521292e-9
    outer loop
      vertex -0.803522346290022 0.332829853578041 0.172125384234394
      vertex -0.33282985309516 0.803522346072533 -0.493534322619785
      vertex -0.332829853885197 0.803522346369883 0.172125384234394
    endloop
  endfacet
  facet normal 0.7071067811071826 -0.7071067812659124 6.317393761803384e-10
    outer loop
      vertex -0.33282985309516 0.803522346072533 -0.493534322619785
      vertex -0.803522346290022 0.332829853578041 0.172125384234394
      vertex -0.803522345869496 0.332829853403857 -0.493534322649671
    endloop
  endfacet
  facet normal 0.5773502693156914 -0.5773502688409774 -0.5773502694122086
    outer loop
      vertex -0.332829853885197 0.803522346369883 0.172125384234394
      vertex -0.332829853651237 0.332829853502621 0.642817876869912
      vertex -0.803522346290022 0.332829853578041 0.172125384234394
    endloop
  endfacet
  facet normal 1.50741164577836e-26 -1 4.4669959650640123e-10
    outer loop
      vertex -0.33282985309516 0.803522346072533 -0.493534322619785
      vertex 0.332829852854569 0.803522346369883 0.172125384234394
      vertex -0.332829853885197 0.803522346369883 0.172125384234394
    endloop
  endfacet
  facet normal -1.85040532368154e-10 -1 6.317401286231356e-10
    outer loop
      vertex 0.332829852854569 0.803522346369883 0.172125384234394
      vertex -0.33282985309516 0.803522346072533 -0.493534322619785
      vertex 0.332829853665734 0.803522345949359 -0.493534322649671
    endloop
  endfacet
  facet normal 2.5923480927592027e-11 -0.7071067810124767 -0.7071067813606184
    outer loop
      vertex -0.332829853885197 0.803522346369883 0.172125384234394
      vertex 0.332829853004357 0.332829853527024 0.642817876869913
      vertex -0.332829853651237 0.332829853502621 0.642817876869912
    endloop
  endfacet
  facet normal 3.090899404347864e-17 -0.7071067810308073 -0.7071067813422878
    outer loop
      vertex 0.332829853004357 0.332829853527024 0.642817876869913
      vertex -0.332829853885197 0.803522346369883 0.172125384234394
      vertex 0.332829852854569 0.803522346369883 0.172125384234394
    endloop
  endfacet
  facet normal -0.7071067812341626 -0.7071067811389323 -4.149641324104036e-10
    outer loop
      vertex 0.803522346355544 0.332829853196158 -0.493534322619785
      vertex 0.332829852854569 0.803522346369883 0.172125384234394
      vertex 0.332829853665734 0.803522345949359 -0.493534322649671
    endloop
  endfacet
  facet normal -0.7071067811706641 -0.707106781202431 -3.251634158048831e-10
    outer loop
      vertex 0.332829852854569 0.803522346369883 0.172125384234394
      vertex 0.803522346355544 0.332829853196158 -0.493534322619785
      vertex 0.803522345667551 0.332829853578047 0.172125384234394
    endloop
  endfacet
  facet normal -0.5773502691488029 -0.5773502691747406 -0.5773502692453337
    outer loop
      vertex 0.803522345667551 0.332829853578047 0.172125384234394
      vertex 0.332829853004357 0.332829853527024 0.642817876869913
      vertex 0.332829852854569 0.803522346369883 0.172125384234394
    endloop
  endfacet
  facet normal -1 1.4014057575669523e-10 -1.0335506098330963e-9
    outer loop
      vertex 0.803522346262258 -0.33282985356474 -0.493534322649671
      vertex 0.803522345667551 0.332829853578047 0.172125384234394
      vertex 0.803522346355544 0.332829853196158 -0.493534322619785
    endloop
  endfacet
  facet normal -1 -4.784396867796083e-10 -4.149703470563691e-10
    outer loop
      vertex 0.803522345667551 0.332829853578047 0.172125384234394
      vertex 0.803522346262258 -0.33282985356474 -0.493534322649671
      vertex 0.803522345986029 -0.332829853450325 0.172125384234394
    endloop
  endfacet
  facet normal -0.7071067811657599 -3.383079469006831e-10 -0.7071067812073351
    outer loop
      vertex 0.803522345986029 -0.332829853450325 0.172125384234394
      vertex 0.332829853004357 0.332829853527024 0.642817876869913
      vertex 0.803522345667551 0.332829853578047 0.172125384234394
    endloop
  endfacet
  facet normal -0.7071067811060904 -2.5392263409720116e-10 -0.7071067812670045
    outer loop
      vertex 0.332829853004357 0.332829853527024 0.642817876869913
      vertex 0.803522345986029 -0.332829853450325 0.172125384234394
      vertex 0.332829853472979 -0.332829853425172 0.64281787664033
    endloop
  endfacet
  facet normal -0.707106781193123 0.707106781179972 -4.1496731459191964e-10
    outer loop
      vertex 0.332829853623471 -0.803522346212281 -0.493534322679559
      vertex 0.803522345986029 -0.332829853450325 0.172125384234394
      vertex 0.803522346262258 -0.33282985356474 -0.493534322649671
    endloop
  endfacet
  facet normal -0.7071067815407444 0.7071067808323508 7.664343593638482e-11
    outer loop
      vertex 0.803522345986029 -0.332829853450325 0.172125384234394
      vertex 0.332829853623471 -0.803522346212281 -0.493534322679559
      vertex 0.332829853623471 -0.803522346284432 0.172125384234394
    endloop
  endfacet
  facet normal -0.5773502693283465 0.5773502687499458 -0.577350269490585
    outer loop
      vertex 0.332829853623471 -0.803522346284432 0.172125384234394
      vertex 0.332829853472979 -0.332829853425172 0.64281787664033
      vertex 0.803522345986029 -0.332829853450325 0.172125384234394
    endloop
  endfacet
  facet normal -1.083904339077006e-10 -4.489678774894772e-11 1
    outer loop
      vertex 0.332829853665734 0.803522345949359 -0.493534322649671
      vertex 0.803522346262258 -0.33282985356474 -0.493534322649671
      vertex 0.803522346355544 0.332829853196158 -0.493534322619785
    endloop
  endfacet
  facet normal -4.489978990026075e-11 -1.8598101921438446e-11 1
    outer loop
      vertex 0.332829853665734 0.803522345949359 -0.493534322649671
      vertex 0.332829853623471 -0.803522346212281 -0.493534322679559
      vertex 0.803522346262258 -0.33282985356474 -0.493534322649671
    endloop
  endfacet
  facet normal 4.4896787760696496e-11 -1.8598101923799972e-11 1
    outer loop
      vertex -0.33282985309516 0.803522346072533 -0.493534322619785
      vertex 0.332829853623471 -0.803522346212281 -0.493534322679559
      vertex 0.332829853665734 0.803522345949359 -0.493534322649671
    endloop
  endfacet
  facet normal 4.489978989455905e-11 -1.8596858399238346e-11 1
    outer loop
      vertex -0.33282985309516 0.803522346072533 -0.493534322619785
      vertex -0.332829853230709 -0.803522346212281 -0.493534322649671
      vertex 0.332829853623471 -0.803522346212281 -0.493534322679559
    endloop
  endfacet
  facet normal -4.4896787753814585e-11 -1.8596858391664292e-11 1
    outer loop
      vertex -0.803522345869496 0.332829853403857 -0.493534322649671
      vertex -0.332829853230709 -0.803522346212281 -0.493534322649671
      vertex -0.33282985309516 0.803522346072533 -0.493534322619785
    endloop
  endfacet
  facet normal 3.7006759230380715e-10 1.5328701570266192e-10 1
    outer loop
      vertex -0.332829853230709 -0.803522346212281 -0.493534322649671
      vertex -0.803522345869496 0.332829853403857 -0.493534322649671
      vertex -0.803522345971533 -0.332829853408059 -0.493534322547634
    endloop
  endfacet
  facet normal -2.5510189716814905e-10 3.4489547248377636e-10 -1
    outer loop
      vertex -0.332829853230709 -0.33282985325536 0.642817876810141
      vertex 0.332829853004357 0.332829853527024 0.642817876869913
      vertex 0.332829853472979 -0.332829853425172 0.64281787664033
    endloop
  endfacet
  facet normal 1.5010650651947181e-15 8.979207446031297e-11 -1
    outer loop
      vertex 0.332829853004357 0.332829853527024 0.642817876869913
      vertex -0.332829853230709 -0.33282985325536 0.642817876810141
      vertex -0.332829853651237 0.332829853502621 0.642817876869912
    endloop
  endfacet
endsolid OpenSCAD_Model
