solid OpenSCAD_Model
  facet normal 0.3568220891835696 0.4911234723028283 0.7946544731038049
    outer loop
      vertex -0.283284291269779 -0.389907377248581 -0.464917618348307
      vertex -0.741647904061916 -0.538838743564784 -0.167054887194565
      vertex -0.283284291295216 -0.871859401580279 -0.167054887194565
    endloop
  endfacet
  facet normal 1.7121043844961964e-16 0.5257311110589978 0.8506508090072399
    outer loop
      vertex -0.283284291269779 -0.389907377248581 -0.464917618348307
      vertex 0.28328429236981 -0.871859401580279 -0.167054887194565
      vertex 0.283284292205843 -0.389907377366421 -0.464917618275478
    endloop
  endfacet
  facet normal 0 0.5257311110589977 0.8506508090072399
    outer loop
      vertex 0.28328429236981 -0.871859401580279 -0.167054887194565
      vertex -0.283284291269779 -0.389907377248581 -0.464917618348307
      vertex -0.283284291295216 -0.871859401580279 -0.167054887194565
    endloop
  endfacet
  facet normal -2.5296665267605982e-20 1 -1.3817732709452733e-10
    outer loop
      vertex 0.28328429236981 -0.871859401580279 -0.167054887194565
      vertex -0.283284291269779 -0.871859401501992 0.399513696470461
      vertex 0.283284292342397 -0.871859401501992 0.399513696366737
    endloop
  endfacet
  facet normal -3.56239246210897e-27 1 -1.3817732706923065e-10
    outer loop
      vertex -0.283284291269779 -0.871859401501992 0.399513696470461
      vertex 0.28328429236981 -0.871859401580279 -0.167054887194565
      vertex -0.283284291295216 -0.871859401580279 -0.167054887194565
    endloop
  endfacet
  facet normal 0.5877852523505885 0.8090169943327241 -1.381773473238511e-10
    outer loop
      vertex -0.283284291295216 -0.871859401580279 -0.167054887194565
      vertex -0.7416479040159 -0.538838743501448 0.3995136964959
      vertex -0.283284291269779 -0.871859401501992 0.399513696470461
    endloop
  endfacet
  facet normal 0.5877852523505879 0.8090169943327247 -1.3817828630113437e-10
    outer loop
      vertex -0.7416479040159 -0.538838743501448 0.3995136964959
      vertex -0.283284291295216 -0.871859401580279 -0.167054887194565
      vertex -0.741647904061916 -0.538838743564784 -0.167054887194565
    endloop
  endfacet
  facet normal 0.49999999908424053 0.16245984843898903 0.850650808828711
    outer loop
      vertex -0.458363612054341 0.148931365606272 -0.464917618660191
      vertex -0.741647904061916 -0.538838743564784 -0.167054887194565
      vertex -0.283284291269779 -0.389907377248581 -0.464917618348307
    endloop
  endfacet
  facet normal 0.4999999994662761 0.16245984820383197 0.850650808649067
    outer loop
      vertex -0.741647904061916 -0.538838743564784 -0.167054887194565
      vertex -0.458363612054341 0.148931365606272 -0.464917618660191
      vertex -0.916727225225857 1.63002333446225e-11 -0.167054887194565
    endloop
  endfacet
  facet normal 0.9510565161575193 0.30901699479854194 -1.3817948701381462e-10
    outer loop
      vertex -0.7416479040159 -0.538838743501448 0.3995136964959
      vertex -0.916727225225857 1.63002333446225e-11 -0.167054887194565
      vertex -0.91672722514354 1.63002333446225e-11 0.399513696470461
    endloop
  endfacet
  facet normal 0.951056516149364 0.3090169948236414 -1.1178838470365243e-10
    outer loop
      vertex -0.916727225225857 1.63002333446225e-11 -0.167054887194565
      vertex -0.7416479040159 -0.538838743501448 0.3995136964959
      vertex -0.741647904061916 -0.538838743564784 -0.167054887194565
    endloop
  endfacet
  facet normal 0.5773502684747961 -0.187592473332846 0.7946544729886985
    outer loop
      vertex -0.458363612054341 0.148931365606272 -0.464917618660191
      vertex -0.741647904833367 0.53883874358166 -0.167054887194565
      vertex -0.916727225225857 1.63002333446225e-11 -0.167054887194565
    endloop
  endfacet
  facet normal 0.9510565165713487 -0.30901699352490647 -5.900958065670127e-11
    outer loop
      vertex -0.91672722514354 1.63002333446225e-11 0.399513696470461
      vertex -0.741647904833367 0.53883874358166 -0.167054887194565
      vertex -0.741647904828509 0.53883874348842 0.399513696445024
    endloop
  endfacet
  facet normal 0.9510565165468837 -0.3090169936002015 -1.3817950251408346e-10
    outer loop
      vertex -0.741647904833367 0.53883874358166 -0.167054887194565
      vertex -0.91672722514354 1.63002333446225e-11 0.399513696470461
      vertex -0.916727225225857 1.63002333446225e-11 -0.167054887194565
    endloop
  endfacet
  facet normal 0.309016993671916 -0.4253254033320081 0.8506508090294369
    outer loop
      vertex -0.283284292543451 0.871859401555996 -0.167054887194565
      vertex -0.458363612054341 0.148931365606272 -0.464917618660191
      vertex 5.95258401165463e-10 0.481952023389584 -0.464917618660191
    endloop
  endfacet
  facet normal 0.3090169941164327 -0.4253254033661039 0.8506508088509089
    outer loop
      vertex -0.458363612054341 0.148931365606272 -0.464917618660191
      vertex -0.283284292543451 0.871859401555996 -0.167054887194565
      vertex -0.741647904833367 0.53883874358166 -0.167054887194565
    endloop
  endfacet
  facet normal 0.5877852527032186 -0.8090169940765234 -1.381795355844826e-10
    outer loop
      vertex -0.741647904833367 0.53883874358166 -0.167054887194565
      vertex -0.283284292518015 0.871859401477713 0.399513696470461
      vertex -0.741647904828509 0.53883874348842 0.399513696445024
    endloop
  endfacet
  facet normal 0.5877852527032114 -0.8090169940765286 -1.381706035542438e-10
    outer loop
      vertex -0.283284292518015 0.871859401477713 0.399513696470461
      vertex -0.741647904833367 0.53883874358166 -0.167054887194565
      vertex -0.283284292543451 0.871859401555996 -0.167054887194565
    endloop
  endfacet
  facet normal 6.403531598733027e-15 -0.6070619975312794 0.794654472807731
    outer loop
      vertex 5.95258401165463e-10 0.481952023389584 -0.464917618660191
      vertex 0.283284290965 0.871859401556002 -0.167054887194565
      vertex -0.283284292543451 0.871859401555996 -0.167054887194565
    endloop
  endfacet
  facet normal 7.916960083444556e-11 -1 -1.3817027267018677e-10
    outer loop
      vertex -0.283284292543451 0.871859401555996 -0.167054887194565
      vertex 0.283284290877826 0.871859401522568 0.399513696445024
      vertex -0.283284292518015 0.871859401477713 0.399513696470461
    endloop
  endfacet
  facet normal 1.0581603900183603e-14 -1 -5.90112534701432e-11
    outer loop
      vertex 0.283284290877826 0.871859401522568 0.399513696445024
      vertex -0.283284292543451 0.871859401555996 -0.167054887194565
      vertex 0.283284290965 0.871859401556002 -0.167054887194565
    endloop
  endfacet
  facet normal -0.3090169944465804 -0.42532540429066845 0.8506508082686934
    outer loop
      vertex 0.283284290965 0.871859401556002 -0.167054887194565
      vertex 0.458363613164756 0.148931365496023 -0.464917618660192
      vertex 0.7416479037616 0.53883874358166 -0.167054887194565
    endloop
  endfacet
  facet normal -0.3090169945293386 -0.42532540429701626 0.850650808235456
    outer loop
      vertex 0.458363613164756 0.148931365496023 -0.464917618660192
      vertex 0.283284290965 0.871859401556002 -0.167054887194565
      vertex 5.95258401165463e-10 0.481952023389584 -0.464917618660191
    endloop
  endfacet
  facet normal -0.5877852522779504 -0.8090169943854989 -1.3817961684993327e-10
    outer loop
      vertex 0.283284290965 0.871859401556002 -0.167054887194565
      vertex 0.741647903695006 0.538838743533275 0.399513696470461
      vertex 0.283284290877826 0.871859401522568 0.399513696445024
    endloop
  endfacet
  facet normal -0.587785252277952 -0.8090169943854978 -1.3817779977725335e-10
    outer loop
      vertex 0.741647903695006 0.538838743533275 0.399513696470461
      vertex 0.283284290965 0.871859401556002 -0.167054887194565
      vertex 0.7416479037616 0.53883874358166 -0.167054887194565
    endloop
  endfacet
  facet normal -0.5773502697608247 -0.1875924746291328 0.7946544717483324
    outer loop
      vertex 0.458363613164756 0.148931365496023 -0.464917618660192
      vertex 0.916727224973926 1.63002333446225e-11 -0.167054887194565
      vertex 0.7416479037616 0.53883874358166 -0.167054887194565
    endloop
  endfacet
  facet normal -0.9510565160971486 -0.30901699498434393 -1.381763665737301e-10
    outer loop
      vertex 0.7416479037616 0.53883874358166 -0.167054887194565
      vertex 0.916727224915196 8.8877780592134e-11 0.399513696445024
      vertex 0.741647903695006 0.538838743533275 0.399513696470461
    endloop
  endfacet
  facet normal -0.9510565161216152 -0.30901699490904333 -5.900057722057247e-11
    outer loop
      vertex 0.916727224915196 8.8877780592134e-11 0.399513696445024
      vertex 0.7416479037616 0.53883874358166 -0.167054887194565
      vertex 0.916727224973926 1.63002333446225e-11 -0.167054887194565
    endloop
  endfacet
  facet normal -0.5000000006880947 0.1624598478400769 0.8506508080003712
    outer loop
      vertex 0.458363613164756 0.148931365496023 -0.464917618660192
      vertex 0.741647904629827 -0.538838743564781 -0.167054887194565
      vertex 0.916727224973926 1.63002333446225e-11 -0.167054887194565
    endloop
  endfacet
  facet normal -0.4999999992052973 0.16245984875279304 0.8506508086976243
    outer loop
      vertex 0.741647904629827 -0.538838743564781 -0.167054887194565
      vertex 0.458363613164756 0.148931365496023 -0.464917618660192
      vertex 0.283284292205843 -0.389907377366421 -0.464917618275478
    endloop
  endfacet
  facet normal -0.9510565165746352 0.30901699351479167 -1.3817089938554582e-10
    outer loop
      vertex 0.741647904629827 -0.538838743564781 -0.167054887194565
      vertex 0.916727224915196 8.8877780592134e-11 0.399513696445024
      vertex 0.916727224973926 1.63002333446225e-11 -0.167054887194565
    endloop
  endfacet
  facet normal -0.9510565165746304 0.30901699351480594 -1.3818589767922255e-10
    outer loop
      vertex 0.916727224915196 8.8877780592134e-11 0.399513696445024
      vertex 0.741647904629827 -0.538838743564781 -0.167054887194565
      vertex 0.741647904563227 -0.538838743516397 0.399513696470461
    endloop
  endfacet
  facet normal -0.35682208948073385 0.491123472168939 0.7946544730531181
    outer loop
      vertex 0.283284292205843 -0.389907377366421 -0.464917618275478
      vertex 0.28328429236981 -0.871859401580279 -0.167054887194565
      vertex 0.741647904629827 -0.538838743564781 -0.167054887194565
    endloop
  endfacet
  facet normal -0.5877852527742027 0.8090169940249504 -1.3818259273261684e-10
    outer loop
      vertex 0.741647904629827 -0.538838743564781 -0.167054887194565
      vertex 0.283284292342397 -0.871859401501992 0.399513696366737
      vertex 0.741647904563227 -0.538838743516397 0.399513696470461
    endloop
  endfacet
  facet normal -0.5877852527758569 0.8090169940237486 -1.4022737549772053e-10
    outer loop
      vertex 0.283284292342397 -0.871859401501992 0.399513696366737
      vertex 0.741647904629827 -0.538838743564781 -0.167054887194565
      vertex 0.28328429236981 -0.871859401580279 -0.167054887194565
    endloop
  endfacet
  facet normal 4.196620208731882e-10 5.77612217697344e-10 1
    outer loop
      vertex 5.95258401165463e-10 0.481952023389584 -0.464917618660191
      vertex 0.283284292205843 -0.389907377366421 -0.464917618275478
      vertex 0.458363613164756 0.148931365496023 -0.464917618660192
    endloop
  endfacet
  facet normal -1.2854405039223716e-10 3.994892675744391e-10 1
    outer loop
      vertex 5.95258401165463e-10 0.481952023389584 -0.464917618660191
      vertex -0.283284291269779 -0.389907377248581 -0.464917618348307
      vertex 0.283284292205843 -0.389907377366421 -0.464917618275478
    endloop
  endfacet
  facet normal -3.402145749483691e-10 4.682651901758292e-10 1
    outer loop
      vertex -0.283284291269779 -0.389907377248581 -0.464917618348307
      vertex 5.95258401165463e-10 0.481952023389584 -0.464917618660191
      vertex -0.458363612054341 0.148931365606272 -0.464917618660191
    endloop
  endfacet
  facet normal -1.4528835122728114e-10 -1.1705023669855377e-19 -1
    outer loop
      vertex 0.741647904563227 -0.538838743516397 0.399513696470461
      vertex 0.741647903695006 0.538838743533275 0.399513696470461
      vertex 0.916727224915196 8.8877780592134e-11 0.399513696445024
    endloop
  endfacet
  facet normal 2.2629190238535116e-10 1.8231001523727162e-19 -1
    outer loop
      vertex 0.283284292342397 -0.871859401501992 0.399513696366737
      vertex 0.741647903695006 0.538838743533275 0.399513696470461
      vertex 0.741647904563227 -0.538838743516397 0.399513696470461
    endloop
  endfacet
  facet normal 8.81144772785379e-11 4.489656703629154e-11 -1
    outer loop
      vertex 0.283284292342397 -0.871859401501992 0.399513696366737
      vertex 0.283284290877826 0.871859401522568 0.399513696445024
      vertex 0.741647903695006 0.538838743533275 0.399513696470461
    endloop
  endfacet
  facet normal -1.8307399466643658e-10 4.4896566808516985e-11 -1
    outer loop
      vertex -0.283284291269779 -0.871859401501992 0.399513696470461
      vertex 0.283284290877826 0.871859401522568 0.399513696445024
      vertex 0.283284292342397 -0.871859401501992 0.399513696366737
    endloop
  endfacet
  facet normal -4.4896569623645784e-11 -3.213907829533239e-20 -1
    outer loop
      vertex -0.283284291269779 -0.871859401501992 0.399513696470461
      vertex -0.283284292518015 0.871859401477713 0.399513696470461
      vertex 0.283284290877826 0.871859401522568 0.399513696445024
    endloop
  endfacet
  facet normal -5.549969297174158e-11 -3.972929304772544e-20 -1
    outer loop
      vertex -0.7416479040159 -0.538838743501448 0.3995136964959
      vertex -0.283284292518015 0.871859401477713 0.399513696470461
      vertex -0.283284291269779 -0.871859401501992 0.399513696470461
    endloop
  endfacet
  facet normal 8.979452392546115e-11 -4.7208952730131143e-11 -1
    outer loop
      vertex -0.7416479040159 -0.538838743501448 0.3995136964959
      vertex -0.741647904828509 0.53883874348842 0.399513696445024
      vertex -0.283284292518015 0.871859401477713 0.399513696470461
    endloop
  endfacet
  facet normal 5.8656568720529834e-15 -4.7208952797835133e-11 -1
    outer loop
      vertex -0.741647904828509 0.53883874348842 0.399513696445024
      vertex -0.7416479040159 -0.538838743501448 0.3995136964959
      vertex -0.91672722514354 1.63002333446225e-11 0.399513696470461
    endloop
  endfacet
endsolid OpenSCAD_Model
