solid OpenSCAD_Model
  facet normal 0.5257311120565941 0.7236067975545887 0.44721359588962545
    outer loop
      vertex -0.680972602855763 -0.221261411328134 -0.422838450058571
      vertex -0.260108388598471 -0.800531306947504 0.0196843724171696
      vertex 4.2411185741969e-10 -0.716016967955382 -0.42283845027999
    endloop
  endfacet
  facet normal 0.5257311120565927 0.7236067975545888 0.44721359588962706
    outer loop
      vertex -0.260108388598471 -0.800531306947504 0.0196843724171696
      vertex -0.680972602855763 -0.221261411328134 -0.422838450058571
      vertex -0.680972602868515 -0.494755556718565 0.0196843724171696
    endloop
  endfacet
  facet normal 0.5257311120565963 0.7236067975545918 0.4472135958896179
    outer loop
      vertex -0.680972602855763 -0.221261411328134 -0.422838450058571
      vertex 4.2411185741969e-10 -0.716016967955382 -0.42283845027999
      vertex -0.260108388640725 -0.358008483836564 -0.696332595306999
    endloop
  endfacet
  facet normal 0 0.9822469462722505 0.1875924746327493
    outer loop
      vertex 0.260108389419726 -0.800531306947504 0.0196843724171696
      vertex 4.2411185741969e-10 -0.716016967955382 -0.42283845027999
      vertex -0.260108388598471 -0.800531306947504 0.0196843724171696
    endloop
  endfacet
  facet normal -2.5296910798761476e-20 1 -1.3817882677408719e-10
    outer loop
      vertex 0.260108389419726 -0.800531306947504 0.0196843724171696
      vertex -0.260108388575115 -0.800531306875621 0.539901150435366
      vertex 0.260108389394555 -0.800531306875621 0.539901150340128
    endloop
  endfacet
  facet normal 6.07148506496595e-27 1 -1.3817882674879025e-10
    outer loop
      vertex -0.260108388575115 -0.800531306875621 0.539901150435366
      vertex 0.260108389419726 -0.800531306947504 0.0196843724171696
      vertex -0.260108388598471 -0.800531306947504 0.0196843724171696
    endloop
  endfacet
  facet normal 0.5877852523505873 0.8090169943327249 -1.3817866289240605e-10
    outer loop
      vertex -0.260108388598471 -0.800531306947504 0.0196843724171696
      vertex -0.680972602826264 -0.494755556660411 0.539901150458724
      vertex -0.260108388575115 -0.800531306875621 0.539901150435366
    endloop
  endfacet
  facet normal 0.5877852523505885 0.8090169943327242 -1.3817721880793371e-10
    outer loop
      vertex -0.680972602826264 -0.494755556660411 0.539901150458724
      vertex -0.260108388598471 -0.800531306947504 0.0196843724171696
      vertex -0.680972602868515 -0.494755556718565 0.0196843724171696
    endloop
  endfacet
  facet normal 0.9341723587306558 0.3035309995151987 0.187592474574294
    outer loop
      vertex -0.680972602855763 -0.221261411328134 -0.422838450058571
      vertex -0.841728428340418 4.71008994928246e-11 0.0196843724171696
      vertex -0.680972602868515 -0.494755556718565 0.0196843724171696
    endloop
  endfacet
  facet normal 0.9510565161575195 0.3090169947985412 -1.38178414899152e-10
    outer loop
      vertex -0.680972602826264 -0.494755556660411 0.539901150458724
      vertex -0.841728428340418 4.71008994928246e-11 0.0196843724171696
      vertex -0.841728428264836 4.71008994928246e-11 0.539901150435366
    endloop
  endfacet
  facet normal 0.9510565161493643 0.3090169948236407 -1.1178734105874193e-10
    outer loop
      vertex -0.841728428340418 4.71008994928246e-11 0.0196843724171696
      vertex -0.680972602826264 -0.494755556660411 0.539901150458724
      vertex -0.680972602868515 -0.494755556718565 0.0196843724171696
    endloop
  endfacet
  facet normal 0.8506508077244632 -0.2763932012799963 0.4472135972931879
    outer loop
      vertex -0.841728428340418 4.71008994928246e-11 0.0196843724171696
      vertex -0.420864213664585 0.579269895192064 -0.422838450300881
      vertex -0.680972603576853 0.494755556798329 0.0196843724171696
    endloop
  endfacet
  facet normal 0.8506508080287601 -0.27639320253648253 0.44721359593782967
    outer loop
      vertex -0.420864213664585 0.579269895192064 -0.422838450300881
      vertex -0.841728428340418 4.71008994928246e-11 0.0196843724171696
      vertex -0.420864213674763 0.136747072469841 -0.696332595537075
    endloop
  endfacet
  facet normal 0.8506508081390916 -0.276393201893201 0.44721359612553657
    outer loop
      vertex -0.420864213674763 0.136747072469841 -0.696332595537075
      vertex -0.841728428340418 4.71008994928246e-11 0.0196843724171696
      vertex -0.680972602855763 -0.221261411328134 -0.422838450058571
    endloop
  endfacet
  facet normal 0.9510565165713486 -0.3090169935249064 -5.901044435735856e-11
    outer loop
      vertex -0.841728428264836 4.71008994928246e-11 0.539901150435366
      vertex -0.680972603576853 0.494755556798329 0.0196843724171696
      vertex -0.680972603572392 0.494755556712717 0.53990115041201
    endloop
  endfacet
  facet normal 0.9510565165468844 -0.30901699360019963 -1.3817842932886804e-10
    outer loop
      vertex -0.680972603576853 0.494755556798329 0.0196843724171696
      vertex -0.841728428264836 4.71008994928246e-11 0.539901150435366
      vertex -0.841728428340418 4.71008994928246e-11 0.0196843724171696
    endloop
  endfacet
  facet normal 0.577350269364505 -0.7946544716840498 0.1875924761211847
    outer loop
      vertex -0.420864213664585 0.579269895192064 -0.422838450300881
      vertex -0.260108389744586 0.800531306989476 0.0196843724171696
      vertex -0.680972603576853 0.494755556798329 0.0196843724171696
    endloop
  endfacet
  facet normal 0.5877852527032174 -0.8090169940765243 -1.3818024048037934e-10
    outer loop
      vertex -0.680972603576853 0.494755556798329 0.0196843724171696
      vertex -0.26010838972123 0.800531306917597 0.539901150435366
      vertex -0.680972603572392 0.494755556712717 0.53990115041201
    endloop
  endfacet
  facet normal 0.5877852527032112 -0.8090169940765288 -1.3817255716594742e-10
    outer loop
      vertex -0.26010838972123 0.800531306917597 0.539901150435366
      vertex -0.680972603576853 0.494755556798329 0.0196843724171696
      vertex -0.260108389744586 0.800531306989476 0.0196843724171696
    endloop
  endfacet
  facet normal 2.9611425549841386e-10 -0.8944271906885168 0.4472135961227561
    outer loop
      vertex 4.54156931636339e-10 0.442522822475255 -0.696332595537075
      vertex -0.260108389744586 0.800531306989476 0.0196843724171696
      vertex -0.420864213664585 0.579269895192064 -0.422838450300881
    endloop
  endfacet
  facet normal 8.589806527891177e-15 -0.8944271907315435 0.4472135960367028
    outer loop
      vertex -0.260108389744586 0.800531306989476 0.0196843724171696
      vertex 4.54156931636339e-10 0.442522822475255 -0.696332595537075
      vertex 0.260108388129845 0.800531306989481 0.0196843724171696
    endloop
  endfacet
  facet normal -5.504809517309429e-10 -0.8944271906515527 0.4472135961966843
    outer loop
      vertex 0.260108388129845 0.800531306989481 0.0196843724171696
      vertex 4.54156931636339e-10 0.442522822475255 -0.696332595537075
      vertex 0.420864214611685 0.579269895100631 -0.422838450300881
    endloop
  endfacet
  facet normal 7.917094627371342e-11 -1 -1.3817135721127958e-10
    outer loop
      vertex -0.260108389744586 0.800531306989476 0.0196843724171696
      vertex 0.260108388049803 0.800531306958783 0.53990115041201
      vertex -0.26010838972123 0.800531306917597 0.539901150435366
    endloop
  endfacet
  facet normal 9.603695657844198e-15 -1 -5.90100146637267e-11
    outer loop
      vertex 0.260108388049803 0.800531306958783 0.53990115041201
      vertex -0.260108389744586 0.800531306989476 0.0196843724171696
      vertex 0.260108388129845 0.800531306989481 0.0196843724171696
    endloop
  endfacet
  facet normal -0.5773502692581436 -0.7946544724160686 0.18759247334765028
    outer loop
      vertex 0.420864214611685 0.579269895100631 -0.422838450300881
      vertex 0.680972602427343 0.494755556798329 0.0196843724171696
      vertex 0.260108388129845 0.800531306989481 0.0196843724171696
    endloop
  endfacet
  facet normal -0.5877852522779519 -0.8090169943854977 -1.3817834758806887e-10
    outer loop
      vertex 0.260108388129845 0.800531306989481 0.0196843724171696
      vertex 0.680972602366197 0.494755556753902 0.539901150435366
      vertex 0.260108388049803 0.800531306958783 0.53990115041201
    endloop
  endfacet
  facet normal -0.5877852522779514 -0.809016994385498 -1.3817877261753298e-10
    outer loop
      vertex 0.680972602366197 0.494755556753902 0.539901150435366
      vertex 0.260108388129845 0.800531306989481 0.0196843724171696
      vertex 0.680972602427343 0.494755556798329 0.0196843724171696
    endloop
  endfacet
  facet normal -0.850650808736044 -0.2763932018011071 0.4472135950469829
    outer loop
      vertex 0.841728427943673 4.71008994928246e-11 0.0196843724171696
      vertex 0.420864214611685 0.579269895100631 -0.422838450300881
      vertex 0.42086421452292 0.136747072387044 -0.696332595537075
    endloop
  endfacet
  facet normal -0.8506508090256765 -0.2763932029970417 0.447213593756941
    outer loop
      vertex 0.420864214611685 0.579269895100631 -0.422838450300881
      vertex 0.841728427943673 4.71008994928246e-11 0.0196843724171696
      vertex 0.680972602427343 0.494755556798329 0.0196843724171696
    endloop
  endfacet
  facet normal -0.8506508085211238 -0.27639320305418746 0.44721359468133887
    outer loop
      vertex 0.841728427943673 4.71008994928246e-11 0.0196843724171696
      vertex 0.42086421452292 0.136747072387044 -0.696332595537075
      vertex 0.680972603539364 -0.221261411581308 -0.422838450300881
    endloop
  endfacet
  facet normal -0.9510565160971484 -0.30901699498434476 -1.3817698032742887e-10
    outer loop
      vertex 0.680972602427343 0.494755556798329 0.0196843724171696
      vertex 0.841728427889748 1.13740771300271e-10 0.53990115041201
      vertex 0.680972602366197 0.494755556753902 0.539901150435366
    endloop
  endfacet
  facet normal -0.9510565161216153 -0.3090169949090431 -5.900010878829325e-11
    outer loop
      vertex 0.841728427889748 1.13740771300271e-10 0.53990115041201
      vertex 0.680972602427343 0.494755556798329 0.0196843724171696
      vertex 0.841728427943673 4.71008994928246e-11 0.0196843724171696
    endloop
  endfacet
  facet normal -0.9341723594572348 0.3035309983299401 0.18759247287386818
    outer loop
      vertex 0.680972603539364 -0.221261411581308 -0.422838450300881
      vertex 0.680972603224539 -0.494755556718562 0.0196843724171696
      vertex 0.841728427943673 4.71008994928246e-11 0.0196843724171696
    endloop
  endfacet
  facet normal -0.951056516574635 0.309016993514792 -1.381703978697914e-10
    outer loop
      vertex 0.680972603224539 -0.494755556718562 0.0196843724171696
      vertex 0.841728427889748 1.13740771300271e-10 0.53990115041201
      vertex 0.841728427943673 4.71008994928246e-11 0.0196843724171696
    endloop
  endfacet
  facet normal -0.9510565165746304 0.3090169935148064 -1.3818551140348065e-10
    outer loop
      vertex 0.841728427889748 1.13740771300271e-10 0.53990115041201
      vertex 0.680972603224539 -0.494755556718562 0.0196843724171696
      vertex 0.680972603163388 -0.494755556674136 0.539901150435366
    endloop
  endfacet
  facet normal -0.5257311127235319 0.7236067976726566 0.4472135949145553
    outer loop
      vertex 0.680972603539364 -0.221261411581308 -0.422838450300881
      vertex 0.260108389419726 -0.800531306947504 0.0196843724171696
      vertex 0.680972603224539 -0.494755556718562 0.0196843724171696
    endloop
  endfacet
  facet normal -0.5257311118878819 0.7236067977367535 0.4472135957932098
    outer loop
      vertex 0.680972603539364 -0.221261411581308 -0.422838450300881
      vertex 4.2411185741969e-10 -0.716016967955382 -0.42283845027999
      vertex 0.260108389419726 -0.800531306947504 0.0196843724171696
    endloop
  endfacet
  facet normal -0.5257311115848877 0.7236067973197178 0.4472135968241791
    outer loop
      vertex 4.2411185741969e-10 -0.716016967955382 -0.42283845027999
      vertex 0.680972603539364 -0.221261411581308 -0.422838450300881
      vertex 0.260108389363457 -0.358008483679175 -0.696332595223983
    endloop
  endfacet
  facet normal -0.5877852527742027 0.8090169940249505 -1.3818277731678456e-10
    outer loop
      vertex 0.680972603224539 -0.494755556718562 0.0196843724171696
      vertex 0.260108389394555 -0.800531306875621 0.539901150340128
      vertex 0.680972603163388 -0.494755556674136 0.539901150435366
    endloop
  endfacet
  facet normal -0.5877852527758582 0.8090169940237475 -1.4022939622266382e-10
    outer loop
      vertex 0.260108389394555 -0.800531306875621 0.539901150340128
      vertex 0.680972603224539 -0.494755556718562 0.0196843724171696
      vertex 0.260108389419726 -0.800531306947504 0.0196843724171696
    endloop
  endfacet
  facet normal -3.1047413311838965e-10 0.6070619976183558 0.7946544727412106
    outer loop
      vertex 0.260108389363457 -0.358008483679175 -0.696332595223983
      vertex -0.260108388640725 -0.358008483836564 -0.696332595306999
      vertex 4.2411185741969e-10 -0.716016967955382 -0.42283845027999
    endloop
  endfacet
  facet normal 0.5773502691523704 0.18759247440682592 0.7946544722428799
    outer loop
      vertex -0.260108388640725 -0.358008483836564 -0.696332595306999
      vertex -0.420864213674763 0.136747072469841 -0.696332595537075
      vertex -0.680972602855763 -0.221261411328134 -0.422838450058571
    endloop
  endfacet
  facet normal 0.3568220896976454 -0.4911234732047246 0.7946544723155679
    outer loop
      vertex -0.420864213674763 0.136747072469841 -0.696332595537075
      vertex 4.54156931636339e-10 0.442522822475255 -0.696332595537075
      vertex -0.420864213664585 0.579269895192064 -0.422838450300881
    endloop
  endfacet
  facet normal -0.35682208979426605 -0.4911234731345272 0.794654472315567
    outer loop
      vertex 4.54156931636339e-10 0.442522822475255 -0.696332595537075
      vertex 0.42086421452292 0.136747072387044 -0.696332595537075
      vertex 0.420864214611685 0.579269895100631 -0.422838450300881
    endloop
  endfacet
  facet normal -0.5773502686722882 0.18759247462160714 0.794654472540977
    outer loop
      vertex 0.42086421452292 0.136747072387044 -0.696332595537075
      vertex 0.260108389363457 -0.358008483679175 -0.696332595223983
      vertex 0.680972603539364 -0.221261411581308 -0.422838450300881
    endloop
  endfacet
  facet normal 3.719631968655916e-10 5.119634191598941e-10 1
    outer loop
      vertex 4.54156931636339e-10 0.442522822475255 -0.696332595537075
      vertex 0.260108389363457 -0.358008483679175 -0.696332595223983
      vertex 0.42086421452292 0.136747072387044 -0.696332595537075
    endloop
  endfacet
  facet normal -1.595794888383079e-10 3.3925473112728347e-10 1
    outer loop
      vertex 4.54156931636339e-10 0.442522822475255 -0.696332595537075
      vertex -0.260108388640725 -0.358008483836564 -0.696332595306999
      vertex 0.260108389363457 -0.358008483679175 -0.696332595223983
    endloop
  endfacet
  facet normal -2.7333764866048376e-10 3.7621699789242444e-10 1
    outer loop
      vertex -0.260108388640725 -0.358008483836564 -0.696332595306999
      vertex 4.54156931636339e-10 0.442522822475255 -0.696332595537075
      vertex -0.420864213674763 0.136747072469841 -0.696332595537075
    endloop
  endfacet
  facet normal -1.452885691419875e-10 -1.1705046586151694e-19 -1
    outer loop
      vertex 0.680972603163388 -0.494755556674136 0.539901150435366
      vertex 0.680972602366197 0.494755556753902 0.539901150435366
      vertex 0.841728427889748 1.13740771300271e-10 0.53990115041201
    endloop
  endfacet
  facet normal 2.2629160785188566e-10 1.823098588262742e-19 -1
    outer loop
      vertex 0.260108389394555 -0.800531306875621 0.539901150340128
      vertex 0.680972602366197 0.494755556753902 0.539901150435366
      vertex 0.680972603163388 -0.494755556674136 0.539901150435366
    endloop
  endfacet
  facet normal 8.811448836699922e-11 4.48964677337081e-11 -1
    outer loop
      vertex 0.260108389394555 -0.800531306875621 0.539901150340128
      vertex 0.260108388049803 0.800531306958783 0.53990115041201
      vertex 0.680972602366197 0.494755556753902 0.539901150435366
    endloop
  endfacet
  facet normal -1.830737563838579e-10 4.4896467505933775e-11 -1
    outer loop
      vertex -0.260108388575115 -0.800531306875621 0.539901150435366
      vertex 0.260108388049803 0.800531306958783 0.53990115041201
      vertex 0.260108389394555 -0.800531306875621 0.539901150340128
    endloop
  endfacet
  facet normal -4.4896636962993515e-11 -3.2139099530059674e-20 -1
    outer loop
      vertex -0.260108388575115 -0.800531306875621 0.539901150435366
      vertex -0.26010838972123 0.800531306917597 0.539901150435366
      vertex 0.260108388049803 0.800531306958783 0.53990115041201
    endloop
  endfacet
  facet normal -5.5500043568204646e-11 -3.9729511726931827e-20 -1
    outer loop
      vertex -0.680972602826264 -0.494755556660411 0.539901150458724
      vertex -0.26010838972123 0.800531306917597 0.539901150435366
      vertex -0.260108388575115 -0.800531306875621 0.539901150435366
    endloop
  endfacet
  facet normal 8.979474122307943e-11 -4.720913725010342e-11 -1
    outer loop
      vertex -0.680972602826264 -0.494755556660411 0.539901150458724
      vertex -0.680972603572392 0.494755556712717 0.53990115041201
      vertex -0.26010838972123 0.800531306917597 0.539901150435366
    endloop
  endfacet
  facet normal 6.21563624723052e-15 -4.7209137317807286e-11 -1
    outer loop
      vertex -0.680972603572392 0.494755556712717 0.53990115041201
      vertex -0.680972602826264 -0.494755556660411 0.539901150458724
      vertex -0.841728428264836 4.71008994928246e-11 0.539901150435366
    endloop
  endfacet
endsolid OpenSCAD_Model
