solid OpenSCAD_Model
  facet normal 0.8555996772072157 0.49398070388585213 -0.1547005383033502
    outer loop
      vertex -0.717251713200879 -0.414105469730634 -0.560416487536896
      vertex -0.828210939454363 4.23768517462667e-11 0.148200524905885
      vertex -0.414105469692857 -0.717251713375886 0.148200524905885
    endloop
  endfacet
  facet normal 0.49398070398706206 0.8555996771163809 0.1547005384825518
    outer loop
      vertex 6.86489109349319e-11 -0.828210939535076 -0.560416487536896
      vertex -0.717251713200879 -0.414105469730634 -0.560416487536896
      vertex -0.414105469692857 -0.717251713375886 0.148200524905885
    endloop
  endfacet
  facet normal 0 0.9879614078704633 -0.15470053832683317
    outer loop
      vertex 0.414105469787219 -0.717251713375886 0.148200524905885
      vertex 6.86489109349319e-11 -0.828210939535076 -0.560416487536896
      vertex -0.414105469692857 -0.717251713375886 0.148200524905885
    endloop
  endfacet
  facet normal 1.181993105864762e-17 0.9428090415228833 -0.3333333335007202
    outer loop
      vertex 6.86489109349319e-11 -0.478167808827143 0.824431925239755
      vertex 0.414105469787219 -0.717251713375886 0.148200524905885
      vertex -0.414105469692857 -0.717251713375886 0.148200524905885
    endloop
  endfacet
  facet normal 0.7071067811584549 0.40824829039120425 -0.5773502692754096
    outer loop
      vertex 6.86489109349319e-11 -0.478167808827143 0.824431925239755
      vertex -0.828210939454363 4.23768517462667e-11 0.148200524905885
      vertex -0.414105469655673 0.239083904536602 0.824431925246745
    endloop
  endfacet
  facet normal 0.7071067811584549 0.4082482903912051 -0.577350269275409
    outer loop
      vertex -0.828210939454363 4.23768517462667e-11 0.148200524905885
      vertex 6.86489109349319e-11 -0.478167808827143 0.824431925239755
      vertex -0.414105469692857 -0.717251713375886 0.148200524905885
    endloop
  endfacet
  facet normal 0.8555996773354004 -0.49398070375498987 -0.1547005380122627
    outer loop
      vertex -0.71725171309407 0.41410546972893 -0.56041648756121
      vertex -0.414105469886069 0.717251713423454 0.148200524905885
      vertex -0.828210939454363 4.23768517462667e-11 0.148200524905885
    endloop
  endfacet
  facet normal 0.9879614078393962 -1.2286940803567768e-10 0.1547005385252373
    outer loop
      vertex -0.717251713200879 -0.414105469730634 -0.560416487536896
      vertex -0.71725171309407 0.41410546972893 -0.56041648756121
      vertex -0.828210939454363 4.23768517462667e-11 0.148200524905885
    endloop
  endfacet
  facet normal 0.8164965809921646 -0.471404520567559 -0.3333333334915299
    outer loop
      vertex -0.414105469886069 0.717251713423454 0.148200524905885
      vertex -0.414105469655673 0.239083904536602 0.824431925246745
      vertex -0.828210939454363 4.23768517462667e-11 0.148200524905885
    endloop
  endfacet
  facet normal 3.2218425906440054e-18 -0.9879614078865697 -0.15470053822397364
    outer loop
      vertex 1.43016415119203e-10 0.828210939502966 -0.560416487510758
      vertex 0.414105469465197 0.717251713423454 0.148200524905885
      vertex -0.414105469886069 0.717251713423454 0.148200524905885
    endloop
  endfacet
  facet normal 0.4939807039473718 -0.8555996770906069 0.15470053875183543
    outer loop
      vertex -0.71725171309407 0.41410546972893 -0.56041648756121
      vertex 1.43016415119203e-10 0.828210939502966 -0.560416487510758
      vertex -0.414105469886069 0.717251713423454 0.148200524905885
    endloop
  endfacet
  facet normal -6.349768667140917e-11 -0.8164965808966742 -0.5773502692335396
    outer loop
      vertex -0.414105469886069 0.717251713423454 0.148200524905885
      vertex 0.414105469492415 0.239083904477136 0.824431925239755
      vertex -0.414105469655673 0.239083904536602 0.824431925246745
    endloop
  endfacet
  facet normal 3.632669192182163e-17 -0.8164965808600139 -0.5773502692853852
    outer loop
      vertex 0.414105469492415 0.239083904477136 0.824431925239755
      vertex -0.414105469886069 0.717251713423454 0.148200524905885
      vertex 0.414105469465197 0.717251713423454 0.148200524905885
    endloop
  endfacet
  facet normal -0.8555996771398773 -0.49398070394941473 -0.1547005384728131
    outer loop
      vertex 0.71725171328284 0.41410546956212 -0.560416487526585
      vertex 0.828210939291109 4.23785068442044e-11 0.148200524905885
      vertex 0.414105469465197 0.717251713423454 0.148200524905885
    endloop
  endfacet
  facet normal -0.4939807041795345 -0.8555996770191134 0.15470053840591566
    outer loop
      vertex 1.43016415119203e-10 0.828210939502966 -0.560416487510758
      vertex 0.71725171328284 0.41410546956212 -0.560416487526585
      vertex 0.414105469465197 0.717251713423454 0.148200524905885
    endloop
  endfacet
  facet normal -0.8164965808952844 -0.47140452080489054 -0.3333333333931995
    outer loop
      vertex 0.828210939291109 4.23785068442044e-11 0.148200524905885
      vertex 0.414105469492415 0.239083904477136 0.824431925239755
      vertex 0.414105469465197 0.717251713423454 0.148200524905885
    endloop
  endfacet
  facet normal -0.8555996772888576 0.4939807036256804 -0.1547005386825801
    outer loop
      vertex 0.717251713384818 -0.414105469894794 -0.560416487489221
      vertex 0.414105469787219 -0.717251713375886 0.148200524905885
      vertex 0.828210939291109 4.23785068442044e-11 0.148200524905885
    endloop
  endfacet
  facet normal -0.9879614079125206 -1.1466895055672427e-10 0.15470053805824333
    outer loop
      vertex 0.71725171328284 0.41410546956212 -0.560416487526585
      vertex 0.717251713384818 -0.414105469894794 -0.560416487489221
      vertex 0.828210939291109 4.23785068442044e-11 0.148200524905885
    endloop
  endfacet
  facet normal -0.7071067812867573 0.40824829019719544 -0.5773502692554568
    outer loop
      vertex 0.828210939291109 4.23785068442044e-11 0.148200524905885
      vertex 6.86489109349319e-11 -0.478167808827143 0.824431925239755
      vertex 0.414105469492415 0.239083904477136 0.824431925239755
    endloop
  endfacet
  facet normal -0.7071067812867573 0.4082482902113074 -0.5773502692454783
    outer loop
      vertex 6.86489109349319e-11 -0.478167808827143 0.824431925239755
      vertex 0.828210939291109 4.23785068442044e-11 0.148200524905885
      vertex 0.414105469787219 -0.717251713375886 0.148200524905885
    endloop
  endfacet
  facet normal -0.4939807038345195 0.8555996772291743 0.1547005383458156
    outer loop
      vertex 0.717251713384818 -0.414105469894794 -0.560416487489221
      vertex 6.86489109349319e-11 -0.828210939535076 -0.560416487536896
      vertex 0.414105469787219 -0.717251713375886 0.148200524905885
    endloop
  endfacet
  facet normal 4.8112825864495594e-11 4.51141116436528e-11 1
    outer loop
      vertex 1.43016415119203e-10 0.828210939502966 -0.560416487510758
      vertex 0.717251713384818 -0.414105469894794 -0.560416487489221
      vertex 0.71725171328284 0.41410546956212 -0.560416487526585
    endloop
  endfacet
  facet normal -5.7358496537287264e-11 -1.5779784724688583e-11 1
    outer loop
      vertex 1.43016415119203e-10 0.828210939502966 -0.560416487510758
      vertex 6.86489109349319e-11 -0.828210939535076 -0.560416487536896
      vertex 0.717251713384818 -0.414105469894794 -0.560416487489221
    endloop
  endfacet
  facet normal -6.123022079077037e-11 -1.5779784724514752e-11 1
    outer loop
      vertex -0.71725171309407 0.41410546972893 -0.56041648756121
      vertex 6.86489109349319e-11 -0.828210939535076 -0.560416487536896
      vertex 1.43016415119203e-10 0.828210939502966 -0.560416487510758
    endloop
  endfacet
  facet normal 1.6949415954221627e-11 2.935724958625728e-11 1
    outer loop
      vertex 6.86489109349319e-11 -0.828210939535076 -0.560416487536896
      vertex -0.71725171309407 0.41410546972893 -0.56041648756121
      vertex -0.717251713200879 -0.414105469730634 -0.560416487536896
    endloop
  endfacet
  facet normal -8.439969643775525e-12 4.87281874191258e-12 -1
    outer loop
      vertex -0.414105469655673 0.239083904536602 0.824431925246745
      vertex 0.414105469492415 0.239083904477136 0.824431925239755
      vertex 6.86489109349319e-11 -0.478167808827143 0.824431925239755
    endloop
  endfacet
endsolid OpenSCAD_Model
