solid OpenSCAD_Model
  facet normal 0.7024283914364575 0.7024283913418472 -0.11484210874455231
    outer loop
      vertex -0.631618516639536 -0.631618516871695 -0.449573239544937
      vertex -0.825249361918508 -0.341829478099117 0.138575531756133
      vertex -0.341829477909667 -0.82524936217307 0.138575531756133
    endloop
  endfacet
  facet normal 0.3801515061132622 0.9177669216112412 0.11484210898465967
    outer loop
      vertex 2.00039065840741e-10 -0.893243472850767 -0.449573239544937
      vertex -0.631618516639536 -0.631618516871695 -0.449573239544937
      vertex -0.341829477909667 -0.82524936217307 0.138575531756133
    endloop
  endfacet
  facet normal 0 0.9933837576956155 -0.1148421087691208
    outer loop
      vertex 0.341829478274303 -0.82524936217307 0.138575531756133
      vertex 2.00039065840741e-10 -0.893243472850767 -0.449573239544937
      vertex -0.341829477909667 -0.82524936217307 0.138575531756133
    endloop
  endfacet
  facet normal 0 0.7071067808460407 -0.7071067815270543
    outer loop
      vertex -0.341829477909667 -0.82524936217307 0.138575531756133
      vertex 0.341829478119742 -0.341829478073285 0.621995415390337
      vertex 0.341829478274303 -0.82524936217307 0.138575531756133
    endloop
  endfacet
  facet normal 2.0093529353794844e-15 0.7071067808460393 -0.7071067815270556
    outer loop
      vertex 0.341829478119742 -0.341829478073285 0.621995415390337
      vertex -0.341829477909667 -0.82524936217307 0.138575531756133
      vertex -0.341829477878972 -0.341829477898881 0.621995415564739
    endloop
  endfacet
  facet normal 0.5773502690438992 0.5773502689661356 -0.5773502695588424
    outer loop
      vertex -0.825249361918508 -0.341829478099117 0.138575531756133
      vertex -0.341829477878972 -0.341829477898881 0.621995415564739
      vertex -0.341829477909667 -0.82524936217307 0.138575531756133
    endloop
  endfacet
  facet normal 0.9933837577636213 3.8609160552890117e-10 -0.1148421081808711
    outer loop
      vertex -0.89324347238158 1.97466577932219e-11 -0.449573239592131
      vertex -0.825249362184221 0.341829478233053 0.138575531756133
      vertex -0.825249361918508 -0.341829478099117 0.138575531756133
    endloop
  endfacet
  facet normal 0.9177669217268333 0.38015150579409485 0.11484210911740965
    outer loop
      vertex -0.631618516639536 -0.631618516871695 -0.449573239544937
      vertex -0.89324347238158 1.97466577932219e-11 -0.449573239592131
      vertex -0.825249361918508 -0.341829478099117 0.138575531756133
    endloop
  endfacet
  facet normal 0.7071067810176549 5.102065821301262e-10 -0.7071067813554401
    outer loop
      vertex -0.825249361918508 -0.341829478099117 0.138575531756133
      vertex -0.341829478310872 0.341829478155595 0.621995415626127
      vertex -0.341829477878972 -0.341829477898881 0.621995415564739
    endloop
  endfacet
  facet normal 0.7071067811840939 2.7482631246645884e-10 -0.7071067811890012
    outer loop
      vertex -0.341829478310872 0.341829478155595 0.621995415626127
      vertex -0.825249361918508 -0.341829478099117 0.138575531756133
      vertex -0.825249362184221 0.341829478233053 0.138575531756133
    endloop
  endfacet
  facet normal 0.7024283917189952 -0.7024283911414378 -0.11484210824221673
    outer loop
      vertex -0.631618516708283 0.631618516939165 -0.449573239524226
      vertex -0.341829478551158 0.825249362263598 0.138575531756133
      vertex -0.825249362184221 0.341829478233053 0.138575531756133
    endloop
  endfacet
  facet normal 0.9177669217230305 -0.38015150567955514 0.11484210952694997
    outer loop
      vertex -0.89324347238158 1.97466577932219e-11 -0.449573239592131
      vertex -0.631618516708283 0.631618516939165 -0.449573239524226
      vertex -0.825249362184221 0.341829478233053 0.138575531756133
    endloop
  endfacet
  facet normal 0.5773502693156921 -0.5773502688409778 -0.5773502694122074
    outer loop
      vertex -0.341829478551158 0.825249362263598 0.138575531756133
      vertex -0.341829478310872 0.341829478155595 0.621995415626127
      vertex -0.825249362184221 0.341829478233053 0.138575531756133
    endloop
  endfacet
  facet normal 4.157421597795995e-18 -0.9933837577914493 -0.11484210794015982
    outer loop
      vertex 2.80246570894533e-10 0.893243472444703 -0.449573239551573
      vertex 0.34182947748461 0.825249362263598 0.138575531756133
      vertex -0.341829478551158 0.825249362263598 0.138575531756133
    endloop
  endfacet
  facet normal 0.3801515054176614 -0.9177669217974778 0.11484210979892392
    outer loop
      vertex -0.631618516708283 0.631618516939165 -0.449573239524226
      vertex 2.80246570894533e-10 0.893243472444703 -0.449573239551573
      vertex -0.341829478551158 0.825249362263598 0.138575531756133
    endloop
  endfacet
  facet normal 2.5922606890044492e-11 -0.7071067810308076 -0.7071067813422874
    outer loop
      vertex -0.341829478310872 0.341829478155595 0.621995415626127
      vertex 0.34182947748461 0.825249362263598 0.138575531756133
      vertex 0.341829477638448 0.341829478180658 0.621995415626127
    endloop
  endfacet
  facet normal 0 -0.7071067810124775 -0.7071067813606176
    outer loop
      vertex 0.34182947748461 0.825249362263598 0.138575531756133
      vertex -0.341829478310872 0.341829478155595 0.621995415626127
      vertex -0.341829478551158 0.825249362263598 0.138575531756133
    endloop
  endfacet
  facet normal -0.7024283912963597 -0.7024283913279168 -0.1148421096866618
    outer loop
      vertex 0.631618517210924 0.631618516800191 -0.449573239493678
      vertex 0.825249361536866 0.34182947823306 0.138575531756133
      vertex 0.34182947748461 0.825249362263598 0.138575531756133
    endloop
  endfacet
  facet normal -0.38015150566471645 -0.9177669218089368 0.1148421088895442
    outer loop
      vertex 2.80246570894533e-10 0.893243472444703 -0.449573239551573
      vertex 0.631618517210924 0.631618516800191 -0.449573239493678
      vertex 0.34182947748461 0.825249362263598 0.138575531756133
    endloop
  endfacet
  facet normal -0.5773502691488029 -0.5773502691747407 -0.5773502692453337
    outer loop
      vertex 0.825249361536866 0.34182947823306 0.138575531756133
      vertex 0.341829477638448 0.341829478180658 0.621995415626127
      vertex 0.34182947748461 0.825249362263598 0.138575531756133
    endloop
  endfacet
  facet normal -0.9933837576245963 -4.752748644913849e-10 -0.11484210938343699
    outer loop
      vertex 0.893243472744792 -1.76107926388133e-10 -0.449573239528564
      vertex 0.825249361863956 -0.341829478099118 0.138575531756133
      vertex 0.825249361536866 0.34182947823306 0.138575531756133
    endloop
  endfacet
  facet normal -0.9177669219741821 -0.38015150554075144 0.11484210797932838
    outer loop
      vertex 0.631618517210924 0.631618516800191 -0.449573239493678
      vertex 0.893243472744792 -1.76107926388133e-10 -0.449573239528564
      vertex 0.825249361536866 0.34182947823306 0.138575531756133
    endloop
  endfacet
  facet normal -0.7071067811060906 -3.383084354199137e-10 -0.7071067812670043
    outer loop
      vertex 0.341829478119742 -0.341829478073285 0.621995415390337
      vertex 0.825249361536866 0.34182947823306 0.138575531756133
      vertex 0.825249361863956 -0.341829478099118 0.138575531756133
    endloop
  endfacet
  facet normal -0.7071067811657594 -2.539241065199123e-10 -0.7071067812073356
    outer loop
      vertex 0.825249361536866 0.34182947823306 0.138575531756133
      vertex 0.341829478119742 -0.341829478073285 0.621995415390337
      vertex 0.341829477638448 0.341829478180658 0.621995415626127
    endloop
  endfacet
  facet normal -0.7024283916839636 0.702428390980258 -0.1148421094423382
    outer loop
      vertex 0.631618517128871 -0.631618517118259 -0.449573239476348
      vertex 0.341829478274303 -0.82524936217307 0.138575531756133
      vertex 0.825249361863956 -0.341829478099118 0.138575531756133
    endloop
  endfacet
  facet normal -0.9177669218948834 0.3801515056508346 0.11484210824864854
    outer loop
      vertex 0.893243472744792 -1.76107926388133e-10 -0.449573239528564
      vertex 0.631618517128871 -0.631618517118259 -0.449573239476348
      vertex 0.825249361863956 -0.341829478099118 0.138575531756133
    endloop
  endfacet
  facet normal -0.5773502693283465 0.5773502687499463 -0.5773502694905843
    outer loop
      vertex 0.341829478274303 -0.82524936217307 0.138575531756133
      vertex 0.341829478119742 -0.341829478073285 0.621995415390337
      vertex 0.825249361863956 -0.341829478099118 0.138575531756133
    endloop
  endfacet
  facet normal -0.38015150578261864 0.9177669217775165 0.11484210875036031
    outer loop
      vertex 0.631618517128871 -0.631618517118259 -0.449573239476348
      vertex 2.00039065840741e-10 -0.893243472850767 -0.449573239544937
      vertex 0.341829478274303 -0.82524936217307 0.138575531756133
    endloop
  endfacet
  facet normal 1.6646346311750907e-10 1.3718744640878154e-11 1
    outer loop
      vertex 0.631618517210924 0.631618516800191 -0.449573239493678
      vertex 0.631618517128871 -0.631618517118259 -0.449573239476348
      vertex 0.893243472744792 -1.76107926388133e-10 -0.449573239528564
    endloop
  endfacet
  facet normal -8.597888550065288e-11 1.3718744657275446e-11 1
    outer loop
      vertex 2.80246570894533e-10 0.893243472444703 -0.449573239551573
      vertex 0.631618517128871 -0.631618517118259 -0.449573239476348
      vertex 0.631618517210924 0.631618516800191 -0.449573239493678
    endloop
  endfacet
  facet normal -1.1013110739558585e-10 3.7145667865629346e-12 1
    outer loop
      vertex 2.80246570894533e-10 0.893243472444703 -0.449573239551573
      vertex 2.00039065840741e-10 -0.893243472850767 -0.449573239544937
      vertex 0.631618517128871 -0.631618517118259 -0.449573239476348
    endloop
  endfacet
  facet normal 4.175810155130881e-11 3.714566779743598e-12 1
    outer loop
      vertex -0.631618516708283 0.631618516939165 -0.449573239524226
      vertex 2.00039065840741e-10 -0.893243472850767 -0.449573239544937
      vertex 2.80246570894533e-10 0.893243472444703 -0.449573239551573
    endloop
  endfacet
  facet normal -6.791102612545024e-12 -1.639517202703006e-11 1
    outer loop
      vertex -0.631618516708283 0.631618516939165 -0.449573239524226
      vertex -0.631618516639536 -0.631618516871695 -0.449573239544937
      vertex 2.00039065840741e-10 -0.893243472850767 -0.449573239544937
    endloop
  endfacet
  facet normal -2.1996953825973644e-10 -1.639517203863149e-11 1
    outer loop
      vertex -0.631618516639536 -0.631618516871695 -0.449573239544937
      vertex -0.631618516708283 0.631618516939165 -0.449573239524226
      vertex -0.89324347238158 1.97466577932219e-11 -0.449573239592131
    endloop
  endfacet
  facet normal -2.5510094875240533e-10 3.4489426616675284e-10 -1
    outer loop
      vertex -0.341829477878972 -0.341829477898881 0.621995415564739
      vertex 0.341829477638448 0.341829478180658 0.621995415626127
      vertex 0.341829478119742 -0.341829478073285 0.621995415390337
    endloop
  endfacet
  facet normal -3.291832205051771e-21 8.979331762738884e-11 -1
    outer loop
      vertex 0.341829477638448 0.341829478180658 0.621995415626127
      vertex -0.341829477878972 -0.341829477898881 0.621995415564739
      vertex -0.341829478310872 0.341829478155595 0.621995415626127
    endloop
  endfacet
endsolid OpenSCAD_Model
