solid OpenSCAD_Model
  facet normal 0.35682208918356884 0.4911234723028269 0.7946544731038061
    outer loop
      vertex -0.288403904307762 -0.396953920088345 -0.441571579435738
      vertex -0.755051225029041 -0.548576826277306 -0.138325768563204
      vertex -0.288403904333659 -0.887615950393473 -0.138325768563204
    endloop
  endfacet
  facet normal 8.201540188034188e-16 0.525731111058997 0.8506508090072404
    outer loop
      vertex -0.288403904307762 -0.396953920088345 -0.441571579435738
      vertex 0.288403905434677 -0.887615950393473 -0.138325768563204
      vertex 0.288403905267747 -0.396953920208315 -0.441571579361593
    endloop
  endfacet
  facet normal 0 0.5257311110589963 0.8506508090072409
    outer loop
      vertex 0.288403905434677 -0.887615950393473 -0.138325768563204
      vertex -0.288403904307762 -0.396953920088345 -0.441571579435738
      vertex -0.288403904333659 -0.887615950393473 -0.138325768563204
    endloop
  endfacet
  facet normal 3.0078995835137387e-18 0.9958102846634627 0.09144329914473423
    outer loop
      vertex 5.65460261798635e-10 -0.933294641399489 0.359111558383618
      vertex 0.288403905434677 -0.887615950393473 -0.138325768563204
      vertex -0.288403904333659 -0.887615950393473 -0.138325768563204
    endloop
  endfacet
  facet normal 0.30772230120311944 0.9470718601741059 -0.0914432994189025
    outer loop
      vertex -0.548576825577929 -0.755051225639555 0.359111558383618
      vertex 5.65460261798635e-10 -0.933294641399489 0.359111558383618
      vertex -0.288403904333659 -0.887615950393473 -0.138325768563204
    endloop
  endfacet
  facet normal 0.585322599465577 0.8056274434259109 0.0914432991196762
    outer loop
      vertex -0.755051225029041 -0.548576826277306 -0.138325768563204
      vertex -0.548576825577929 -0.755051225639555 0.359111558383618
      vertex -0.288403904333659 -0.887615950393473 -0.138325768563204
    endloop
  endfacet
  facet normal 0.4999999990842393 0.16245984843898784 0.850650808828712
    outer loop
      vertex -0.466647319966647 0.151622905463617 -0.441571579753258
      vertex -0.755051225029041 -0.548576826277306 -0.138325768563204
      vertex -0.288403904307762 -0.396953920088345 -0.441571579435738
    endloop
  endfacet
  facet normal 0.4999999994662743 0.16245984820383122 0.8506508086490683
    outer loop
      vertex -0.755051225029041 -0.548576826277306 -0.138325768563204
      vertex -0.466647319966647 0.151622905463617 -0.441571579753258
      vertex -0.933294641074161 1.40116306088025e-11 -0.138325768563204
    endloop
  endfacet
  facet normal 0.8056274430695258 0.5853225999733144 -0.09144329900948109
    outer loop
      vertex -0.88761595007111 -0.288403905049492 0.359111558300335
      vertex -0.548576825577929 -0.755051225639555 0.359111558383618
      vertex -0.755051225029041 -0.548576826277306 -0.138325768563204
    endloop
  endfacet
  facet normal 0.9470718600236251 0.30772230156359504 0.09144329976436287
    outer loop
      vertex -0.933294641074161 1.40116306088025e-11 -0.138325768563204
      vertex -0.88761595007111 -0.288403905049492 0.359111558300335
      vertex -0.755051225029041 -0.548576826277306 -0.138325768563204
    endloop
  endfacet
  facet normal 0.5773502684747943 -0.18759247333284493 0.7946544729887001
    outer loop
      vertex -0.466647319966647 0.151622905463617 -0.441571579753258
      vertex -0.755051225814434 0.548576826289321 -0.138325768563204
      vertex -0.933294641074161 1.40116306088025e-11 -0.138325768563204
    endloop
  endfacet
  facet normal 0.995810284650519 -2.2900022904777814e-10 -0.09144329928568934
    outer loop
      vertex -0.887615949932849 0.288403904862885 0.359111558361495
      vertex -0.88761595007111 -0.288403905049492 0.359111558300335
      vertex -0.933294641074161 1.40116306088025e-11 -0.138325768563204
    endloop
  endfacet
  facet normal 0.9470718605190694 -0.30772230037763937 0.09144329862402249
    outer loop
      vertex -0.755051225814434 0.548576826289321 -0.138325768563204
      vertex -0.887615949932849 0.288403904862885 0.359111558361495
      vertex -0.933294641074161 1.40116306088025e-11 -0.138325768563204
    endloop
  endfacet
  facet normal 0.3090169936719144 -0.4253254033320066 0.8506508090294383
    outer loop
      vertex -0.288403905604452 0.887615950363585 -0.138325768563204
      vertex -0.466647319966647 0.151622905463617 -0.441571579753258
      vertex 6.09518002746024e-10 0.490662029343404 -0.441571579753258
    endloop
  endfacet
  facet normal 0.30901699411643124 -0.4253254033661025 0.8506508088509102
    outer loop
      vertex -0.466647319966647 0.151622905463617 -0.441571579753258
      vertex -0.288403905604452 0.887615950363585 -0.138325768563204
      vertex -0.755051225814434 0.548576826289321 -0.138325768563204
    endloop
  endfacet
  facet normal 0.8056274444555199 -0.5853225980149256 -0.09144329933421082
    outer loop
      vertex -0.548576826850022 0.755051225896039 0.359111558315867
      vertex -0.887615949932849 0.288403904862885 0.359111558361495
      vertex -0.755051225814434 0.548576826289321 -0.138325768563204
    endloop
  endfacet
  facet normal 0.5853225997776804 -0.8056274431170525 0.09144329984300364
    outer loop
      vertex -0.288403905604452 0.887615950363585 -0.138325768563204
      vertex -0.548576826850022 0.755051225896039 0.359111558315867
      vertex -0.755051225814434 0.548576826289321 -0.138325768563204
    endloop
  endfacet
  facet normal 5.2396299761454106e-15 -0.6070619975312774 0.7946544728077324
    outer loop
      vertex 6.09518002746024e-10 0.490662029343404 -0.441571579753258
      vertex 0.288403904004478 0.88761595036359 -0.138325768563204
      vertex -0.288403905604452 0.887615950363585 -0.138325768563204
    endloop
  endfacet
  facet normal 0.30772230044752175 -0.9470718604264815 -0.0914432993477832
    outer loop
      vertex -8.49687533507347e-10 0.933294641118112 0.359111558380216
      vertex -0.548576826850022 0.755051225896039 0.359111558315867
      vertex -0.288403905604452 0.887615950363585 -0.138325768563204
    endloop
  endfacet
  facet normal 8.625181031209322e-15 -0.9958102847092507 0.0914432986461081
    outer loop
      vertex 0.288403904004478 0.88761595036359 -0.138325768563204
      vertex -8.49687533507347e-10 0.933294641118112 0.359111558380216
      vertex -0.288403905604452 0.887615950363585 -0.138325768563204
    endloop
  endfacet
  facet normal -0.3090169944465793 -0.425325404290669 0.8506508082686935
    outer loop
      vertex 0.288403904004478 0.88761595036359 -0.138325768563204
      vertex 0.466647321104134 0.151622905351376 -0.44157157975326
      vertex 0.755051224730301 0.548576826289321 -0.138325768563204
    endloop
  endfacet
  facet normal -0.30901699452933595 -0.42532540429701676 0.8506508082354567
    outer loop
      vertex 0.466647321104134 0.151622905351376 -0.44157157975326
      vertex 0.288403904004478 0.88761595036359 -0.138325768563204
      vertex 6.09518002746024e-10 0.490662029343404 -0.441571579753258
    endloop
  endfacet
  facet normal -0.307722300276963 -0.9470718604860373 -0.09144329930492841
    outer loop
      vertex 0.548576825427711 0.755051225913839 0.359111558338431
      vertex -8.49687533507347e-10 0.933294641118112 0.359111558380216
      vertex 0.288403904004478 0.88761595036359 -0.138325768563204
    endloop
  endfacet
  facet normal -0.5853225993579354 -0.8056274434298673 0.09144329977382609
    outer loop
      vertex 0.755051224730301 0.548576826289321 -0.138325768563204
      vertex 0.548576825427711 0.755051225913839 0.359111558338431
      vertex 0.288403904004478 0.88761595036359 -0.138325768563204
    endloop
  endfacet
  facet normal -0.5773502697608244 -0.18759247462913292 0.7946544717483326
    outer loop
      vertex 0.466647321104134 0.151622905351376 -0.44157157975326
      vertex 0.933294640824681 1.40116306088025e-11 -0.138325768563204
      vertex 0.755051224730301 0.548576826289321 -0.138325768563204
    endloop
  endfacet
  facet normal -0.8056274438568378 -0.5853225988502877 -0.09144329926157849
    outer loop
      vertex 0.887615949235853 0.288403904891494 0.359111558407415
      vertex 0.548576825427711 0.755051225913839 0.359111558338431
      vertex 0.755051224730301 0.548576826289321 -0.138325768563204
    endloop
  endfacet
  facet normal -0.9470718600997585 -0.3077223016823554 0.09144329857620442
    outer loop
      vertex 0.933294640824681 1.40116306088025e-11 -0.138325768563204
      vertex 0.887615949235853 0.288403904891494 0.359111558407415
      vertex 0.755051224730301 0.548576826289321 -0.138325768563204
    endloop
  endfacet
  facet normal -0.5000000006880939 0.16245984784007683 0.8506508080003716
    outer loop
      vertex 0.466647321104134 0.151622905351376 -0.44157157975326
      vertex 0.755051225614219 -0.548576826277303 -0.138325768563204
      vertex 0.933294640824681 1.40116306088025e-11 -0.138325768563204
    endloop
  endfacet
  facet normal -0.4999999992052967 0.16245984875279293 0.8506508086976247
    outer loop
      vertex 0.755051225614219 -0.548576826277303 -0.138325768563204
      vertex 0.466647321104134 0.151622905351376 -0.44157157975326
      vertex 0.288403905267747 -0.396953920208315 -0.441571579361593
    endloop
  endfacet
  facet normal -0.9958102846516191 -1.7804752908053657e-9 -0.0914432992737095
    outer loop
      vertex 0.88761595027049 -0.28840390502132 0.359111558371216
      vertex 0.887615949235853 0.288403904891494 0.359111558407415
      vertex 0.933294640824681 1.40116306088025e-11 -0.138325768563204
    endloop
  endfacet
  facet normal -0.9470718604445527 0.30772230025939734 0.09144329979369074
    outer loop
      vertex 0.755051225614219 -0.548576826277303 -0.138325768563204
      vertex 0.88761595027049 -0.28840390502132 0.359111558371216
      vertex 0.933294640824681 1.40116306088025e-11 -0.138325768563204
    endloop
  endfacet
  facet normal -0.3568220894807335 0.4911234721689383 0.7946544730531184
    outer loop
      vertex 0.288403905267747 -0.396953920208315 -0.441571579361593
      vertex 0.288403905434677 -0.887615950393473 -0.138325768563204
      vertex 0.755051225614219 -0.548576826277303 -0.138325768563204
    endloop
  endfacet
  facet normal -0.8056274433830803 0.5853225994932665 -0.0914432993197797
    outer loop
      vertex 0.548576826322484 -0.755051225426535 0.359111558446932
      vertex 0.88761595027049 -0.28840390502132 0.359111558371216
      vertex 0.755051225614219 -0.548576826277303 -0.138325768563204
    endloop
  endfacet
  facet normal -0.5853225999143588 0.8056274431530446 0.09144329865104052
    outer loop
      vertex 0.288403905434677 -0.887615950393473 -0.138325768563204
      vertex 0.548576826322484 -0.755051225426535 0.359111558446932
      vertex 0.755051225614219 -0.548576826277303 -0.138325768563204
    endloop
  endfacet
  facet normal -0.30772230171386616 0.9470718599796246 -0.0914432997143836
    outer loop
      vertex 5.65460261798635e-10 -0.933294641399489 0.359111558383618
      vertex 0.548576826322484 -0.755051225426535 0.359111558446932
      vertex 0.288403905434677 -0.887615950393473 -0.138325768563204
    endloop
  endfacet
  facet normal 4.1966405159882145e-10 5.776121188587799e-10 1
    outer loop
      vertex 6.09518002746024e-10 0.490662029343404 -0.441571579753258
      vertex 0.288403905267747 -0.396953920208315 -0.441571579361593
      vertex 0.466647321104134 0.151622905351376 -0.44157157975326
    endloop
  endfacet
  facet normal -1.2854362694872613e-10 3.994886464982559e-10 1
    outer loop
      vertex 6.09518002746024e-10 0.490662029343404 -0.441571579753258
      vertex -0.288403904307762 -0.396953920088345 -0.441571579435738
      vertex 0.288403905267747 -0.396953920208315 -0.441571579361593
    endloop
  endfacet
  facet normal -3.4021411512105833e-10 4.682645572778329e-10 1
    outer loop
      vertex -0.288403904307762 -0.396953920088345 -0.441571579435738
      vertex 6.09518002746024e-10 0.490662029343404 -0.441571579753258
      vertex -0.466647319966647 0.151622905463617 -0.441571579753258
    endloop
  endfacet
  facet normal -3.0970344722375913e-10 6.27574511107917e-11 -1
    outer loop
      vertex 0.548576826322484 -0.755051225426535 0.359111558446932
      vertex 0.887615949235853 0.288403904891494 0.359111558407415
      vertex 0.88761595027049 -0.28840390502132 0.359111558371216
    endloop
  endfacet
  facet normal 1.0457594458981434e-10 -7.18500826110932e-11 -1
    outer loop
      vertex 0.548576826322484 -0.755051225426535 0.359111558446932
      vertex 0.548576825427711 0.755051225913839 0.359111558338431
      vertex 0.887615949235853 0.288403904891494 0.359111558407415
    endloop
  endfacet
  facet normal 1.3876045389934583e-10 -7.185008259083802e-11 -1
    outer loop
      vertex 5.65460261798635e-10 -0.933294641399489 0.359111558383618
      vertex 0.548576825427711 0.755051225913839 0.359111558338431
      vertex 0.548576826322484 -0.755051225426535 0.359111558446932
    endloop
  endfacet
  facet normal -7.676205056383684e-11 -1.8225760983952307e-12 -1
    outer loop
      vertex 5.65460261798635e-10 -0.933294641399489 0.359111558383618
      vertex -8.49687533507347e-10 0.933294641118112 0.359111558380216
      vertex 0.548576825427711 0.755051225913839 0.359111558338431
    endloop
  endfacet
  facet normal -5.92190853651341e-13 -1.822576040647332e-12 -1
    outer loop
      vertex -0.548576825577929 -0.755051225639555 0.359111558383618
      vertex -8.49687533507347e-10 0.933294641118112 0.359111558380216
      vertex 5.65460261798635e-10 -0.933294641399489 0.359111558383618
    endloop
  endfacet
  facet normal 1.318793404935785e-10 -4.486518565292394e-11 -1
    outer loop
      vertex -0.548576825577929 -0.755051225639555 0.359111558383618
      vertex -0.548576826850022 0.755051225896039 0.359111558315867
      vertex -8.49687533507347e-10 0.933294641118112 0.359111558380216
    endloop
  endfacet
  facet normal 1.838927249658361e-10 -4.486518560910846e-11 -1
    outer loop
      vertex -0.88761595007111 -0.288403905049492 0.359111558300335
      vertex -0.548576826850022 0.755051225896039 0.359111558315867
      vertex -0.548576825577929 -0.755051225639555 0.359111558383618
    endloop
  endfacet
  facet normal -2.80520717908455e-10 1.0603188874952606e-10 -1
    outer loop
      vertex -0.548576826850022 0.755051225896039 0.359111558315867
      vertex -0.88761595007111 -0.288403905049492 0.359111558300335
      vertex -0.887615949932849 0.288403904862885 0.359111558361495
    endloop
  endfacet
endsolid OpenSCAD_Model
