solid OpenSCAD_Model
  facet normal 0.5257311120565944 0.7236067975545885 0.44721359588962567
    outer loop
      vertex -0.698388695523021 -0.226920242871682 -0.409181293874029
      vertex -0.26676074403719 -0.821005151812756 0.0446591916802084
      vertex 4.37657951368284e-10 -0.734329331501629 -0.409181294101111
    endloop
  endfacet
  facet normal 0.5257311120565937 0.7236067975545886 0.4472135958896263
    outer loop
      vertex -0.26676074403719 -0.821005151812756 0.0446591916802084
      vertex -0.698388695523021 -0.226920242871682 -0.409181293874029
      vertex -0.698388695536099 -0.50740908872559 0.0446591916802084
    endloop
  endfacet
  facet normal 0.5257311120565973 0.7236067975545925 0.4472135958896158
    outer loop
      vertex -0.698388695523021 -0.226920242871682 -0.409181293874029
      vertex 4.37657951368284e-10 -0.734329331501629 -0.409181294101111
      vertex -0.266760744080525 -0.367164665607074 -0.689670139582303
    endloop
  endfacet
  facet normal 0 0.9822469462722504 0.18759247463274928
    outer loop
      vertex 0.266760744884847 -0.821005151812756 0.0446591916802084
      vertex 4.37657951368284e-10 -0.734329331501629 -0.409181294101111
      vertex -0.26676074403719 -0.821005151812756 0.0446591916802084
    endloop
  endfacet
  facet normal 1.6207807401977986e-19 0.9958102846634628 0.0914432991447331
    outer loop
      vertex 4.37657951368284e-10 -0.863255902972535 0.504766525221093
      vertex 0.266760744884847 -0.821005151812756 0.0446591916802084
      vertex -0.26676074403719 -0.821005151812756 0.0446591916802084
    endloop
  endfacet
  facet normal 0.3077223012031192 0.947071860174106 -0.09144329941890339
    outer loop
      vertex -0.507409088197419 -0.698388695982076 0.504766525221093
      vertex 4.37657951368284e-10 -0.863255902972535 0.504766525221093
      vertex -0.26676074403719 -0.821005151812756 0.0446591916802084
    endloop
  endfacet
  facet normal 0.5853225994655782 0.8056274434259099 0.09144329911967587
    outer loop
      vertex -0.698388695536099 -0.50740908872559 0.0446591916802084
      vertex -0.507409088197419 -0.698388695982076 0.504766525221093
      vertex -0.26676074403719 -0.821005151812756 0.0446591916802084
    endloop
  endfacet
  facet normal 0.9341723587306554 0.3035309995152001 0.18759247457429432
    outer loop
      vertex -0.698388695523021 -0.226920242871682 -0.409181293874029
      vertex -0.863255902790343 4.6314350829368e-11 0.0446591916802084
      vertex -0.698388695536099 -0.50740908872559 0.0446591916802084
    endloop
  endfacet
  facet normal 0.805627443069526 0.5853225999733143 -0.09144329900948069
    outer loop
      vertex -0.821005151633306 -0.266760744580581 0.50476652514406
      vertex -0.507409088197419 -0.698388695982076 0.504766525221093
      vertex -0.698388695536099 -0.50740908872559 0.0446591916802084
    endloop
  endfacet
  facet normal 0.9470718600236248 0.307722301563596 0.0914432997643626
    outer loop
      vertex -0.863255902790343 4.6314350829368e-11 0.0446591916802084
      vertex -0.821005151633306 -0.266760744580581 0.50476652514406
      vertex -0.698388695536099 -0.50740908872559 0.0446591916802084
    endloop
  endfacet
  facet normal 0.8506508077244629 -0.2763932012799973 0.4472135972931878
    outer loop
      vertex -0.863255902790343 4.6314350829368e-11 0.0446591916802084
      vertex -0.431627950875266 0.594084908500848 -0.409181294122536
      vertex -0.698388696262553 0.507409088803412 0.0446591916802084
    endloop
  endfacet
  facet normal 0.8506508080287598 -0.2763932025364829 0.4472135959378302
    outer loop
      vertex -0.431627950875266 0.594084908500848 -0.409181294122536
      vertex -0.863255902790343 4.6314350829368e-11 0.0446591916802084
      vertex -0.431627950885704 0.140244422693825 -0.689670139818263
    endloop
  endfacet
  facet normal 0.8506508081390913 -0.2763932018932008 0.44721359612553746
    outer loop
      vertex -0.431627950885704 0.140244422693825 -0.689670139818263
      vertex -0.863255902790343 4.6314350829368e-11 0.0446591916802084
      vertex -0.698388695523021 -0.226920242871682 -0.409181293874029
    endloop
  endfacet
  facet normal 0.995810284650519 -2.2899973397183918e-10 -0.0914432992856893
    outer loop
      vertex -0.821005151505421 0.266760744474687 0.50476652520063
      vertex -0.821005151633306 -0.266760744580581 0.50476652514406
      vertex -0.863255902790343 4.6314350829368e-11 0.0446591916802084
    endloop
  endfacet
  facet normal 0.9470718605190694 -0.3077223003776393 0.09144329862402276
    outer loop
      vertex -0.698388696262553 0.507409088803412 0.0446591916802084
      vertex -0.821005151505421 0.266760744474687 0.50476652520063
      vertex -0.863255902790343 4.6314350829368e-11 0.0446591916802084
    endloop
  endfacet
  facet normal 0.577350269364505 -0.7946544716840498 0.18759247612118474
    outer loop
      vertex -0.431627950875266 0.594084908500848 -0.409181294122536
      vertex -0.266760745212617 0.821005151851819 0.0446591916802084
      vertex -0.698388696262553 0.507409088803412 0.0446591916802084
    endloop
  endfacet
  facet normal 0.8056274444555194 -0.5853225980149263 -0.09144329933421085
    outer loop
      vertex -0.507409089374049 0.69838869628602 0.504766525158425
      vertex -0.821005151505421 0.266760744474687 0.50476652520063
      vertex -0.698388696262553 0.507409088803412 0.0446591916802084
    endloop
  endfacet
  facet normal 0.585322599777681 -0.8056274431170524 0.09144329984300306
    outer loop
      vertex -0.266760745212617 0.821005151851819 0.0446591916802084
      vertex -0.507409089374049 0.69838869628602 0.504766525158425
      vertex -0.698388696262553 0.507409088803412 0.0446591916802084
    endloop
  endfacet
  facet normal 2.961142682381452e-10 -0.8944271906885167 0.4472135961227562
    outer loop
      vertex 4.68471437991892e-10 0.453840485551748 -0.689670139818263
      vertex -0.266760745212617 0.821005151851819 0.0446591916802084
      vertex -0.431627950875266 0.594084908500848 -0.409181294122536
    endloop
  endfacet
  facet normal 8.375597925339071e-15 -0.8944271907315435 0.4472135960367028
    outer loop
      vertex -0.266760745212617 0.821005151851819 0.0446591916802084
      vertex 4.68471437991892e-10 0.453840485551748 -0.689670139818263
      vertex 0.266760743561977 0.821005151851824 0.0446591916802084
    endloop
  endfacet
  facet normal -5.504827453570848e-10 -0.8944271906515523 0.44721359619668477
    outer loop
      vertex 0.266760743561977 0.821005151851824 0.0446591916802084
      vertex 4.68471437991892e-10 0.453840485551748 -0.689670139818263
      vertex 0.431627951851987 0.594084908407076 -0.409181294122536
    endloop
  endfacet
  facet normal 0.3077223004475222 -0.9470718604264813 -0.09144329934778425
    outer loop
      vertex -8.71290620426578e-10 0.863255902778982 0.504766525217946
      vertex -0.507409089374049 0.69838869628602 0.504766525158425
      vertex -0.266760745212617 0.821005151851819 0.0446591916802084
    endloop
  endfacet
  facet normal 9.324969814279111e-15 -0.9958102847092507 0.0914432986461071
    outer loop
      vertex 0.266760743561977 0.821005151851824 0.0446591916802084
      vertex -8.71290620426578e-10 0.863255902778982 0.504766525217946
      vertex -0.266760745212617 0.821005151851819 0.0446591916802084
    endloop
  endfacet
  facet normal -0.5773502692581427 -0.7946544724160688 0.18759247334765158
    outer loop
      vertex 0.431627951851987 0.594084908407076 -0.409181294122536
      vertex 0.698388695089043 0.507409088803412 0.0446591916802084
      vertex 0.266760743561977 0.821005151851824 0.0446591916802084
    endloop
  endfacet
  facet normal -0.3077223002769622 -0.9470718604860373 -0.0914432993049292
    outer loop
      vertex 0.507409087887739 0.698388696302485 0.504766525179297
      vertex -8.71290620426578e-10 0.863255902778982 0.504766525217946
      vertex 0.266760743561977 0.821005151851824 0.0446591916802084
    endloop
  endfacet
  facet normal -0.5853225993579361 -0.8056274434298668 0.09144329977382572
    outer loop
      vertex 0.698388695089043 0.507409088803412 0.0446591916802084
      vertex 0.507409087887739 0.698388696302485 0.504766525179297
      vertex 0.266760743561977 0.821005151851824 0.0446591916802084
    endloop
  endfacet
  facet normal -0.8506508087360436 -0.2763932018011083 0.44721359504698294
    outer loop
      vertex 0.86325590238885 4.6314350829368e-11 0.0446591916802084
      vertex 0.431627951851987 0.594084908407076 -0.409181294122536
      vertex 0.431627951760952 0.14024442260891 -0.689670139818263
    endloop
  endfacet
  facet normal -0.8506508090256758 -0.27639320299704206 0.44721359375694214
    outer loop
      vertex 0.431627951851987 0.594084908407076 -0.409181294122536
      vertex 0.86325590238885 4.6314350829368e-11 0.0446591916802084
      vertex 0.698388695089043 0.507409088803412 0.0446591916802084
    endloop
  endfacet
  facet normal -0.8506508085211237 -0.2763932030541865 0.44721359468133964
    outer loop
      vertex 0.86325590238885 4.6314350829368e-11 0.0446591916802084
      vertex 0.431627951760952 0.14024442260891 -0.689670139818263
      vertex 0.698388696229504 -0.226920243131331 -0.409181294122536
    endloop
  endfacet
  facet normal -0.8056274438568372 -0.585322598850289 -0.09144329926157793
    outer loop
      vertex 0.821005150689996 0.266760744501149 0.504766525243104
      vertex 0.507409087887739 0.698388696302485 0.504766525179297
      vertex 0.698388695089043 0.507409088803412 0.0446591916802084
    endloop
  endfacet
  facet normal -0.9470718600997584 -0.3077223016823555 0.0914432985762057
    outer loop
      vertex 0.86325590238885 4.6314350829368e-11 0.0446591916802084
      vertex 0.821005150689996 0.266760744501149 0.504766525243104
      vertex 0.698388695089043 0.507409088803412 0.0446591916802084
    endloop
  endfacet
  facet normal -0.9341723594572345 0.3035309983299394 0.18759247287386993
    outer loop
      vertex 0.698388696229504 -0.226920243131331 -0.409181294122536
      vertex 0.698388695906628 -0.507409088725588 0.0446591916802084
      vertex 0.86325590238885 4.6314350829368e-11 0.0446591916802084
    endloop
  endfacet
  facet normal -0.9958102846516192 -1.780474873857718e-9 -0.09144329927370838
    outer loop
      vertex 0.821005151646989 -0.266760744554524 0.504766525209621
      vertex 0.821005150689996 0.266760744501149 0.504766525243104
      vertex 0.86325590238885 4.6314350829368e-11 0.0446591916802084
    endloop
  endfacet
  facet normal -0.9470718604445529 0.3077223002593967 0.0914432997936914
    outer loop
      vertex 0.698388695906628 -0.507409088725588 0.0446591916802084
      vertex 0.821005151646989 -0.266760744554524 0.504766525209621
      vertex 0.86325590238885 4.6314350829368e-11 0.0446591916802084
    endloop
  endfacet
  facet normal -0.5257311127235296 0.7236067976726567 0.4472135949145578
    outer loop
      vertex 0.698388696229504 -0.226920243131331 -0.409181294122536
      vertex 0.266760744884847 -0.821005151812756 0.0446591916802084
      vertex 0.698388695906628 -0.507409088725588 0.0446591916802084
    endloop
  endfacet
  facet normal -0.5257311118878824 0.7236067977367534 0.4472135957932095
    outer loop
      vertex 0.698388696229504 -0.226920243131331 -0.409181294122536
      vertex 4.37657951368284e-10 -0.734329331501629 -0.409181294101111
      vertex 0.266760744884847 -0.821005151812756 0.0446591916802084
    endloop
  endfacet
  facet normal -0.5257311115848885 0.7236067973197184 0.4472135968241773
    outer loop
      vertex 4.37657951368284e-10 -0.734329331501629 -0.409181294101111
      vertex 0.698388696229504 -0.226920243131331 -0.409181294122536
      vertex 0.266760744827139 -0.36716466544566 -0.689670139497164
    endloop
  endfacet
  facet normal -0.8056274433830795 0.5853225994932676 -0.09144329931978054
    outer loop
      vertex 0.507409088715364 -0.698388695785042 0.504766525279655
      vertex 0.821005151646989 -0.266760744554524 0.504766525209621
      vertex 0.698388695906628 -0.507409088725588 0.0446591916802084
    endloop
  endfacet
  facet normal -0.5853225999143584 0.8056274431530451 0.09144329865103956
    outer loop
      vertex 0.266760744884847 -0.821005151812756 0.0446591916802084
      vertex 0.507409088715364 -0.698388695785042 0.504766525279655
      vertex 0.698388695906628 -0.507409088725588 0.0446591916802084
    endloop
  endfacet
  facet normal -0.307722301713866 0.9470718599796247 -0.09144329971438428
    outer loop
      vertex 4.37657951368284e-10 -0.863255902972535 0.504766525221093
      vertex 0.507409088715364 -0.698388695785042 0.504766525279655
      vertex 0.266760744884847 -0.821005151812756 0.0446591916802084
    endloop
  endfacet
  facet normal -3.1047370599236825e-10 0.6070619976183568 0.7946544727412098
    outer loop
      vertex 0.266760744827139 -0.36716466544566 -0.689670139497164
      vertex -0.266760744080525 -0.367164665607074 -0.689670139582303
      vertex 4.37657951368284e-10 -0.734329331501629 -0.409181294101111
    endloop
  endfacet
  facet normal 0.5773502691523715 0.18759247440682417 0.7946544722428793
    outer loop
      vertex -0.266760744080525 -0.367164665607074 -0.689670139582303
      vertex -0.431627950885704 0.140244422693825 -0.689670139818263
      vertex -0.698388695523021 -0.226920242871682 -0.409181293874029
    endloop
  endfacet
  facet normal 0.3568220896976454 -0.4911234732047254 0.7946544723155674
    outer loop
      vertex -0.431627950885704 0.140244422693825 -0.689670139818263
      vertex 4.68471437991892e-10 0.453840485551748 -0.689670139818263
      vertex -0.431627950875266 0.594084908500848 -0.409181294122536
    endloop
  endfacet
  facet normal -0.35682208979426644 -0.49112347313452837 0.794654472315566
    outer loop
      vertex 4.68471437991892e-10 0.453840485551748 -0.689670139818263
      vertex 0.431627951760952 0.14024442260891 -0.689670139818263
      vertex 0.431627951851987 0.594084908407076 -0.409181294122536
    endloop
  endfacet
  facet normal -0.5773502686722892 0.18759247462160664 0.7946544725409764
    outer loop
      vertex 0.431627951760952 0.14024442260891 -0.689670139818263
      vertex 0.266760744827139 -0.36716466544566 -0.689670139497164
      vertex 0.698388696229504 -0.226920243131331 -0.409181294122536
    endloop
  endfacet
  facet normal 3.7196261794579493e-10 5.119626223451535e-10 1
    outer loop
      vertex 4.68471437991892e-10 0.453840485551748 -0.689670139818263
      vertex 0.266760744827139 -0.36716466544566 -0.689670139497164
      vertex 0.431627951760952 0.14024442260891 -0.689670139818263
    endloop
  endfacet
  facet normal -1.595793398775544e-10 3.392541708152704e-10 1
    outer loop
      vertex 4.68471437991892e-10 0.453840485551748 -0.689670139818263
      vertex -0.266760744080525 -0.367164665607074 -0.689670139582303
      vertex 0.266760744827139 -0.36716466544566 -0.689670139497164
    endloop
  endfacet
  facet normal -2.7333716180349654e-10 3.7621632779126973e-10 1
    outer loop
      vertex -0.266760744080525 -0.367164665607074 -0.689670139582303
      vertex 4.68471437991892e-10 0.453840485551748 -0.689670139818263
      vertex -0.431627950885704 0.140244422693825 -0.689670139818263
    endloop
  endfacet
  facet normal -3.097054209399465e-10 6.27584727991815e-11 -1
    outer loop
      vertex 0.507409088715364 -0.698388695785042 0.504766525279655
      vertex 0.821005150689996 0.266760744501149 0.504766525243104
      vertex 0.821005151646989 -0.266760744554524 0.504766525209621
    endloop
  endfacet
  facet normal 1.0457597856885896e-10 -7.184971326242673e-11 -1
    outer loop
      vertex 0.507409088715364 -0.698388695785042 0.504766525279655
      vertex 0.507409087887739 0.698388696302485 0.504766525179297
      vertex 0.821005150689996 0.266760744501149 0.504766525243104
    endloop
  endfacet
  facet normal 1.3875925222658336e-10 -7.184971324217228e-11 -1
    outer loop
      vertex 4.37657951368284e-10 -0.863255902972535 0.504766525221093
      vertex 0.507409087887739 0.698388696302485 0.504766525179297
      vertex 0.507409088715364 -0.698388695785042 0.504766525279655
    endloop
  endfacet
  facet normal -7.676151095496086e-11 -1.8227725264290876e-12 -1
    outer loop
      vertex 4.37657951368284e-10 -0.863255902972535 0.504766525221093
      vertex -8.71290620426578e-10 0.863255902778982 0.504766525217946
      vertex 0.507409087887739 0.698388696302485 0.504766525179297
    endloop
  endfacet
  facet normal -5.92254676988599e-13 -1.8227724686816465e-12 -1
    outer loop
      vertex -0.507409088197419 -0.698388695982076 0.504766525221093
      vertex -8.71290620426578e-10 0.863255902778982 0.504766525217946
      vertex 4.37657951368284e-10 -0.863255902972535 0.504766525221093
    endloop
  endfacet
  facet normal 1.3188154701324738e-10 -4.486611976011619e-11 -1
    outer loop
      vertex -0.507409088197419 -0.698388695982076 0.504766525221093
      vertex -0.507409089374049 0.69838869628602 0.504766525158425
      vertex -8.71290620426578e-10 0.863255902778982 0.504766525217946
    endloop
  endfacet
  facet normal 1.8389126010036413e-10 -4.486611971630377e-11 -1
    outer loop
      vertex -0.821005151633306 -0.266760744580581 0.50476652514406
      vertex -0.507409089374049 0.69838869628602 0.504766525158425
      vertex -0.507409088197419 -0.698388695982076 0.504766525221093
    endloop
  endfacet
  facet normal -2.805238509513537e-10 1.06031496666032e-10 -1
    outer loop
      vertex -0.507409089374049 0.69838869628602 0.504766525158425
      vertex -0.821005151633306 -0.266760744580581 0.50476652514406
      vertex -0.821005151505421 0.266760744474687 0.50476652520063
    endloop
  endfacet
endsolid OpenSCAD_Model
