solid OpenSCAD_Model
  facet normal -1.0046390146575773e-27 1 2.5920987577428872e-11
    outer loop
      vertex 0.749999999951683 -0.433012701893754 -0.500000000034
      vertex -0.250000000048098 -0.433012701919675 0.500000000010682
      vertex 0.749999999951683 -0.433012701919675 0.500000000010682
    endloop
  endfacet
  facet normal 1.1638535060114423e-21 1 2.5920987578592728e-11
    outer loop
      vertex -0.250000000048098 -0.433012701919675 0.500000000010682
      vertex 0.749999999951683 -0.433012701893754 -0.500000000034
      vertex -0.250000000003201 -0.433012701893754 -0.4999999999891
    endloop
  endfacet
  facet normal 0 0 -1
    outer loop
      vertex 0.250000000003635 0.433012701894505 0.500000000010682
      vertex 0.749999999951683 -0.433012701919675 0.500000000010682
      vertex -0.250000000048098 -0.433012701919675 0.500000000010682
    endloop
  endfacet
  facet normal 0.4330127019097894 -0.25000000002742506 -0.8660254037677367
    outer loop
      vertex -0.250000000048098 -0.433012701919675 0.500000000010682
      vertex -0.499999999880485 0.866025403853441 1.07910347324468e-11
      vertex 0.250000000003635 0.433012701894505 0.500000000010682
    endloop
  endfacet
  facet normal 0.43301270190978924 -0.25000000002742506 -0.8660254037677367
    outer loop
      vertex -0.499999999880485 0.866025403853441 1.07910347324468e-11
      vertex -0.250000000048098 -0.433012701919675 0.500000000010682
      vertex -0.999999999988341 1.98159821884715e-11 -1.16570086916542e-11
    endloop
  endfacet
  facet normal 0.5000000000483686 0.866025403756513 4.489674900458618e-11
    outer loop
      vertex -0.250000000003201 -0.433012701893754 -0.4999999999891
      vertex -0.999999999988341 1.98159821884715e-11 -1.16570086916542e-11
      vertex -0.250000000048098 -0.433012701919675 0.500000000010682
    endloop
  endfacet
  facet normal -0.8660254038031461 -0.4999999999675978 9.487206518862929e-12
    outer loop
      vertex 0.749999999951683 -0.433012701893754 -0.500000000034
      vertex 0.250000000003635 0.433012701894505 0.500000000010682
      vertex 0.250000000013123 0.433012701859097 -0.50000000000808
    endloop
  endfacet
  facet normal -0.8660254038143699 -0.4999999999481576 -1.2960448323794892e-11
    outer loop
      vertex 0.250000000003635 0.433012701894505 0.500000000010682
      vertex 0.749999999951683 -0.433012701893754 -0.500000000034
      vertex 0.749999999951683 -0.433012701919675 0.500000000010682
    endloop
  endfacet
  facet normal -0.5000000001286784 -0.8660254037101461 2.592028378175433e-11
    outer loop
      vertex -0.499999999880485 0.866025403853441 1.07910347324468e-11
      vertex 0.250000000013123 0.433012701859097 -0.50000000000808
      vertex 0.250000000003635 0.433012701894505 0.500000000010682
    endloop
  endfacet
  facet normal 4.4900028141974913e-11 -4.006845302401351e-12 1
    outer loop
      vertex 0.749999999951683 -0.433012701893754 -0.500000000034
      vertex 0.250000000013123 0.433012701859097 -0.50000000000808
      vertex -0.250000000003201 -0.433012701893754 -0.4999999999891
    endloop
  endfacet
  facet normal 0.43301270192061575 -0.2500000000146953 0.8660254037659983
    outer loop
      vertex -0.499999999880485 0.866025403853441 1.07910347324468e-11
      vertex -0.250000000003201 -0.433012701893754 -0.4999999999891
      vertex 0.250000000013123 0.433012701859097 -0.50000000000808
    endloop
  endfacet
  facet normal 0.4330127018514673 -0.250000000038649 0.8660254037936577
    outer loop
      vertex -0.250000000003201 -0.433012701893754 -0.4999999999891
      vertex -0.499999999880485 0.866025403853441 1.07910347324468e-11
      vertex -0.999999999988341 1.98159821884715e-11 -1.16570086916542e-11
    endloop
  endfacet
endsolid OpenSCAD_Model
