solid OpenSCAD_Model
  facet normal 0.8164965809188035 0.4714045207207111 0.33333333345463745
    outer loop
      vertex -0.499999999963522 -0.288675134444054 -0.816496580825097
      vertex -0.999999999999997 1.09998343759349e-10 5.08852219584913e-16
      vertex -0.500000000008418 -0.866025403779578 5.08852219584913e-16
    endloop
  endfacet
  facet normal 2.0858522287550895e-17 0.8164965808247396 0.5773502693352706
    outer loop
      vertex 0.499999999888336 -0.288675134438087 -0.816496580833536
      vertex -0.500000000008418 -0.866025403779578 5.08852219584913e-16
      vertex 0.499999999922898 -0.866025403779578 5.08852219584913e-16
    endloop
  endfacet
  facet normal 2.4830693636113147e-16 0.8164965808247394 0.5773502693352708
    outer loop
      vertex -0.500000000008418 -0.866025403779578 5.08852219584913e-16
      vertex 0.499999999888336 -0.288675134438087 -0.816496580833536
      vertex -0.499999999963522 -0.288675134444054 -0.816496580825097
    endloop
  endfacet
  facet normal -1.2222956527799592e-11 0.8164965808811748 -0.5773502692554591
    outer loop
      vertex 0.499999999922898 -0.866025403779578 5.08852219584913e-16
      vertex -0.49999999988576 -0.288675134578743 0.816496580825096
      vertex 0.499999999877992 -0.288675134563773 0.816496580825096
    endloop
  endfacet
  facet normal -1.1645613005256819e-17 0.8164965808882317 -0.577350269245479
    outer loop
      vertex -0.49999999988576 -0.288675134578743 0.816496580825096
      vertex 0.499999999922898 -0.866025403779578 5.08852219584913e-16
      vertex -0.500000000008418 -0.866025403779578 5.08852219584913e-16
    endloop
  endfacet
  facet normal 0.8164965809188034 0.471404520720711 -0.33333333345463767
    outer loop
      vertex -0.999999999999997 1.09998343759349e-10 5.08852219584913e-16
      vertex -0.49999999988576 -0.288675134578743 0.816496580825096
      vertex -0.500000000008418 -0.866025403779578 5.08852219584913e-16
    endloop
  endfacet
  facet normal 0.7071067810973578 -0.4082482905252409 0.5773502692554597
    outer loop
      vertex -0.999999999999997 1.09998343759349e-10 5.08852219584913e-16
      vertex 3.5002667428768e-11 0.577350269068445 -0.816496580825097
      vertex -0.499999999930659 0.866025403775097 5.08852219584913e-16
    endloop
  endfacet
  facet normal 0.7071067810973578 -0.4082482905393583 0.5773502692454773
    outer loop
      vertex 3.5002667428768e-11 0.577350269068445 -0.816496580825097
      vertex -0.999999999999997 1.09998343759349e-10 5.08852219584913e-16
      vertex -0.499999999963522 -0.288675134444054 -0.816496580825097
    endloop
  endfacet
  facet normal 0.707106781048483 -0.40824829049702305 -0.5773502693352719
    outer loop
      vertex 1.4901668786791e-10 0.577350269014555 0.816496580833535
      vertex -0.999999999999997 1.09998343759349e-10 5.08852219584913e-16
      vertex -0.499999999930659 0.866025403775097 5.08852219584913e-16
    endloop
  endfacet
  facet normal 0.707106781048483 -0.40824829049702493 -0.5773502693352706
    outer loop
      vertex -0.999999999999997 1.09998343759349e-10 5.08852219584913e-16
      vertex 1.4901668786791e-10 0.577350269014555 0.816496580833535
      vertex -0.49999999988576 -0.288675134578743 0.816496580825096
    endloop
  endfacet
  facet normal -8.465476718660152e-11 -0.9428090415446029 0.33333333343928734
    outer loop
      vertex 3.5002667428768e-11 0.577350269068445 -0.816496580825097
      vertex 0.500000000000648 0.866025403685307 5.08852219584913e-16
      vertex -0.499999999930659 0.866025403775097 5.08852219584913e-16
    endloop
  endfacet
  facet normal -8.465477976847656e-11 -0.9428090415261293 -0.3333333334915384
    outer loop
      vertex 0.500000000000648 0.866025403685307 5.08852219584913e-16
      vertex 1.4901668786791e-10 0.577350269014555 0.816496580833535
      vertex -0.499999999930659 0.866025403775097 5.08852219584913e-16
    endloop
  endfacet
  facet normal -0.7071067811890057 -0.4082482904088427 0.5773502692255204
    outer loop
      vertex 3.5002667428768e-11 0.577350269068445 -0.816496580825097
      vertex 0.999999999914465 -6.95846713535343e-11 5.08852219584913e-16
      vertex 0.500000000000648 0.866025403685307 5.08852219584913e-16
    endloop
  endfacet
  facet normal -0.7071067811890057 -0.4082482904821619 0.5773502691736758
    outer loop
      vertex 0.999999999914465 -6.95846713535343e-11 5.08852219584913e-16
      vertex 3.5002667428768e-11 0.577350269068445 -0.816496580825097
      vertex 0.499999999888336 -0.288675134438087 -0.816496580833536
    endloop
  endfacet
  facet normal -0.7071067812207511 -0.4082482904271709 -0.5773502691736805
    outer loop
      vertex 0.999999999914465 -6.95846713535343e-11 5.08852219584913e-16
      vertex 1.4901668786791e-10 0.577350269014555 0.816496580833535
      vertex 0.500000000000648 0.866025403685307 5.08852219584913e-16
    endloop
  endfacet
  facet normal -0.707106781220751 -0.4082482903538552 -0.5773502692255225
    outer loop
      vertex 1.4901668786791e-10 0.577350269014555 0.816496580833535
      vertex 0.999999999914465 -6.95846713535343e-11 5.08852219584913e-16
      vertex 0.499999999877992 -0.288675134563773 0.816496580825096
    endloop
  endfacet
  facet normal -0.8164965808651851 0.4714045207874958 0.3333333334915272
    outer loop
      vertex 0.499999999888336 -0.288675134438087 -0.816496580833536
      vertex 0.499999999922898 -0.866025403779578 5.08852219584913e-16
      vertex 0.999999999914465 -6.95846713535343e-11 5.08852219584913e-16
    endloop
  endfacet
  facet normal -0.8164965808811816 0.47140452079673134 -0.333333333439283
    outer loop
      vertex 0.499999999922898 -0.866025403779578 5.08852219584913e-16
      vertex 0.499999999877992 -0.288675134563773 0.816496580825096
      vertex 0.999999999914465 -6.95846713535343e-11 5.08852219584913e-16
    endloop
  endfacet
  facet normal 8.439027256059988e-12 -4.872274659500384e-12 1
    outer loop
      vertex 0.499999999888336 -0.288675134438087 -0.816496580833536
      vertex 3.5002667428768e-11 0.577350269068445 -0.816496580825097
      vertex -0.499999999963522 -0.288675134444054 -0.816496580825097
    endloop
  endfacet
  facet normal -1.4587529645732306e-22 9.744549316727441e-12 -1
    outer loop
      vertex 1.4901668786791e-10 0.577350269014555 0.816496580833535
      vertex 0.499999999877992 -0.288675134563773 0.816496580825096
      vertex -0.49999999988576 -0.288675134578743 0.816496580825096
    endloop
  endfacet
endsolid OpenSCAD_Model
