solid OpenSCAD_Model
  facet normal 0.4999999998470923 0.4999999997797478 0.7071067814504113
    outer loop
      vertex -0.541196100194099 1.53894902548978e-10 -0.541196099768557
      vertex -0.382683432372 -0.923879532508421 -3.87688361422794e-16
      vertex -1.47201765704584e-11 -0.541196099822256 -0.541196099963804
    endloop
  endfacet
  facet normal 0.49999999984709215 0.4999999997797479 0.7071067814504114
    outer loop
      vertex -0.382683432372 -0.923879532508421 -3.87688361422794e-16
      vertex -0.541196100194099 1.53894902548978e-10 -0.541196099768557
      vertex -0.92387953255997 -0.382683432247558 -3.87688361422794e-16
    endloop
  endfacet
  facet normal 0 0.8164965806076514 0.5773502696422794
    outer loop
      vertex 0.382683432302882 -0.923879532508421 -3.87688361422794e-16
      vertex -1.47201765704584e-11 -0.541196099822256 -0.541196099963804
      vertex -0.382683432372 -0.923879532508421 -3.87688361422794e-16
    endloop
  endfacet
  facet normal 6.46975681563117e-18 0.8164965807739155 -0.5773502694071466
    outer loop
      vertex 8.09996337576739e-11 -0.541196100194094 0.541196099768558
      vertex 0.382683432302882 -0.923879532508421 -3.87688361422794e-16
      vertex -0.382683432372 -0.923879532508421 -3.87688361422794e-16
    endloop
  endfacet
  facet normal 0.4999999998470923 0.49999999977974763 -0.7071067814504116
    outer loop
      vertex -0.382683432372 -0.923879532508421 -3.87688361422794e-16
      vertex -0.541196099822258 5.81781512413418e-11 0.541196099963805
      vertex 8.09996337576739e-11 -0.541196100194094 0.541196099768558
    endloop
  endfacet
  facet normal 0.4999999998470919 0.49999999977974763 -0.7071067814504118
    outer loop
      vertex -0.541196099822258 5.81781512413418e-11 0.541196099963805
      vertex -0.382683432372 -0.923879532508421 -3.87688361422794e-16
      vertex -0.92387953255997 -0.382683432247558 -3.87688361422794e-16
    endloop
  endfacet
  facet normal 0.8164965807739157 -1.0997787627505245e-10 0.5773502694071463
    outer loop
      vertex -0.541196100194099 1.53894902548978e-10 -0.541196099768557
      vertex -0.923879532456879 0.382683432427321 -3.87688361422794e-16
      vertex -0.92387953255997 -0.382683432247558 -3.87688361422794e-16
    endloop
  endfacet
  facet normal 0.8164965806076513 -1.099778899600165e-10 -0.5773502696422799
    outer loop
      vertex -0.923879532456879 0.382683432427321 -3.87688361422794e-16
      vertex -0.541196099822258 5.81781512413418e-11 0.541196099963805
      vertex -0.92387953255997 -0.382683432247558 -3.87688361422794e-16
    endloop
  endfacet
  facet normal 0.49999999993466987 -0.4999999999275555 0.7071067812839689
    outer loop
      vertex -0.382683432289035 0.923879532473671 -3.87688361422794e-16
      vertex -0.541196100194099 1.53894902548978e-10 -0.541196099768557
      vertex 3.38760178323428e-11 0.541196100016259 -0.541196100032528
    endloop
  endfacet
  facet normal 0.4999999998327897 -0.49999999994503547 0.7071067813436489
    outer loop
      vertex -0.541196100194099 1.53894902548978e-10 -0.541196099768557
      vertex -0.382683432289035 0.923879532473671 -3.87688361422794e-16
      vertex -0.923879532456879 0.382683432427321 -3.87688361422794e-16
    endloop
  endfacet
  facet normal 0.500000000054387 -0.49999999983375654 -0.707106781265642
    outer loop
      vertex -0.541196099822258 5.81781512413418e-11 0.541196099963805
      vertex -0.382683432289035 0.923879532473671 -3.87688361422794e-16
      vertex -5.79675886638939e-12 0.541196100016259 0.541196100032528
    endloop
  endfacet
  facet normal 0.49999999977025944 -0.49999999988250515 -0.7071067814320801
    outer loop
      vertex -0.382683432289035 0.923879532473671 -3.87688361422794e-16
      vertex -0.541196099822258 5.81781512413418e-11 0.541196099963805
      vertex -0.923879532456879 0.382683432427321 -3.87688361422794e-16
    endloop
  endfacet
  facet normal -7.33129271036869e-11 -0.81649658082934 0.5773502693287648
    outer loop
      vertex 3.38760178323428e-11 0.541196100016259 -0.541196100032528
      vertex 0.382683432385848 0.923879532404949 -3.87688361422794e-16
      vertex -0.382683432289035 0.923879532473671 -3.87688361422794e-16
    endloop
  endfacet
  facet normal -7.331294773149367e-11 -0.8164965808293403 -0.5773502693287643
    outer loop
      vertex 0.382683432385848 0.923879532404949 -3.87688361422794e-16
      vertex -5.79675886638939e-12 0.541196100016259 0.541196100032528
      vertex -0.382683432289035 0.923879532473671 -3.87688361422794e-16
    endloop
  endfacet
  facet normal -0.49999999996477984 -0.4999999998974336 0.7071067812839774
    outer loop
      vertex 0.382683432385848 0.923879532404949 -3.87688361422794e-16
      vertex 0.541196100016253 -7.86924525216516e-11 -0.541196100032528
      vertex 0.923879532456498 0.382683432261404 -3.87688361422794e-16
    endloop
  endfacet
  facet normal -0.49999999999607025 -0.499999999892065 0.7071067812656479
    outer loop
      vertex 0.541196100016253 -7.86924525216516e-11 -0.541196100032528
      vertex 0.382683432385848 0.923879532404949 -3.87688361422794e-16
      vertex 3.38760178323428e-11 0.541196100016259 -0.541196100032528
    endloop
  endfacet
  facet normal -0.4999999999777432 -0.49999999991039695 -0.7071067812656444
    outer loop
      vertex 0.541196100016261 -3.90159370200915e-11 0.541196100032529
      vertex 0.382683432385848 0.923879532404949 -3.87688361422794e-16
      vertex 0.923879532456498 0.382683432261404 -3.87688361422794e-16
    endloop
  endfacet
  facet normal -0.4999999999464529 -0.4999999999157655 -0.7071067812839739
    outer loop
      vertex 0.382683432385848 0.923879532404949 -3.87688361422794e-16
      vertex 0.541196100016261 -3.90159370200915e-11 0.541196100032529
      vertex -5.79675886638939e-12 0.541196100016259 0.541196100032528
    endloop
  endfacet
  facet normal -0.8164965808293289 3.665215516914922e-11 0.5773502693287802
    outer loop
      vertex 0.541196100016253 -7.86924525216516e-11 -0.541196100032528
      vertex 0.923879532422141 -0.382683432413475 -3.87688361422794e-16
      vertex 0.923879532456498 0.382683432261404 -3.87688361422794e-16
    endloop
  endfacet
  facet normal -0.8164965808293354 3.665215084013553e-11 -0.5773502693287711
    outer loop
      vertex 0.923879532422141 -0.382683432413475 -3.87688361422794e-16
      vertex 0.541196100016261 -3.90159370200915e-11 0.541196100032529
      vertex 0.923879532456498 0.382683432261404 -3.87688361422794e-16
    endloop
  endfacet
  facet normal -0.49999999993283367 0.499999999955296 0.7071067812656517
    outer loop
      vertex 0.541196100016253 -7.86924525216516e-11 -0.541196100032528
      vertex 0.382683432302882 -0.923879532508421 -3.87688361422794e-16
      vertex 0.923879532422141 -0.382683432413475 -3.87688361422794e-16
    endloop
  endfacet
  facet normal -0.4999999996487184 0.5000000000040425 0.7071067814320827
    outer loop
      vertex 0.382683432302882 -0.923879532508421 -3.87688361422794e-16
      vertex 0.541196100016253 -7.86924525216516e-11 -0.541196100032528
      vertex -1.47201765704584e-11 -0.541196099822256 -0.541196099963804
    endloop
  endfacet
  facet normal -0.4999999999198771 0.49999999994233946 -0.7071067812839753
    outer loop
      vertex 0.382683432302882 -0.923879532508421 -3.87688361422794e-16
      vertex 0.541196100016261 -3.90159370200915e-11 0.541196100032529
      vertex 0.923879532422141 -0.382683432413475 -3.87688361422794e-16
    endloop
  endfacet
  facet normal -0.49999999981800697 0.49999999995981753 -0.7071067813436493
    outer loop
      vertex 0.541196100016261 -3.90159370200915e-11 0.541196100032529
      vertex 0.382683432302882 -0.923879532508421 -3.87688361422794e-16
      vertex 8.09996337576739e-11 -0.541196100194094 0.541196099768558
    endloop
  endfacet
  facet normal 6.349272148403066e-11 6.349272147082351e-11 1
    outer loop
      vertex 3.38760178323428e-11 0.541196100016259 -0.541196100032528
      vertex -1.47201765704584e-11 -0.541196099822256 -0.541196099963804
      vertex 0.541196100016253 -7.86924525216516e-11 -0.541196100032528
    endloop
  endfacet
  facet normal 4.2426221088689205e-10 6.349272145462603e-11 1
    outer loop
      vertex -1.47201765704584e-11 -0.541196099822256 -0.541196099963804
      vertex 3.38760178323428e-11 0.541196100016259 -0.541196100032528
      vertex -0.541196100194099 1.53894902548978e-10 -0.541196099768557
    endloop
  endfacet
  facet normal 2.438783893802701e-10 2.43876543083109e-10 -1
    outer loop
      vertex 8.09996337576739e-11 -0.541196100194094 0.541196099768558
      vertex -5.79675886638939e-12 0.541196100016259 0.541196100032528
      vertex 0.541196100016261 -3.90159370200915e-11 0.541196100032529
    endloop
  endfacet
  facet normal -1.1689294642872136e-10 2.4387654305417895e-10 -1
    outer loop
      vertex -5.79675886638939e-12 0.541196100016259 0.541196100032528
      vertex 8.09996337576739e-11 -0.541196100194094 0.541196099768558
      vertex -0.541196099822258 5.81781512413418e-11 0.541196099963805
    endloop
  endfacet
endsolid OpenSCAD_Model
