solid OpenSCAD_Model
  facet normal 0.49999999984709187 0.4999999997797481 0.7071067814504115
    outer loop
      vertex -0.541196099718759 6.78235827353661e-12 -0.541196099610562
      vertex -0.382683431942935 -0.92387953238582 -5.31079946999472e-18
      vertex 3.02625796035458e-10 -0.541196099811374 -0.541196099805809
    endloop
  endfacet
  facet normal 0.4999999998470924 0.499999999779748 0.7071067814504112
    outer loop
      vertex -0.382683431942935 -0.92387953238582 -5.31079946999472e-18
      vertex -0.541196099718759 6.78235827353661e-12 -0.541196099610562
      vertex -0.92387953197291 -0.382683432282952 -5.31079946999472e-18
    endloop
  endfacet
  facet normal 0 0.8164965806076514 0.5773502696422798
    outer loop
      vertex 0.382683432508509 -0.92387953238582 -5.31079946999472e-18
      vertex 3.02625796035458e-10 -0.541196099811374 -0.541196099805809
      vertex -0.382683431942935 -0.92387953238582 -5.31079946999472e-18
    endloop
  endfacet
  facet normal 8.860301031468254e-16 0.7071067808460408 -0.7071067815270542
    outer loop
      vertex 0.382683432508509 -0.92387953238582 -5.31079946999472e-18
      vertex -0.382683431908573 -0.382683432058785 0.541196099805809
      vertex 0.382683432335475 -0.382683432254033 0.541196099610562
    endloop
  endfacet
  facet normal -3.9709250031596217e-17 0.7071067808460403 -0.7071067815270548
    outer loop
      vertex -0.382683431908573 -0.382683432058785 0.541196099805809
      vertex 0.382683432508509 -0.92387953238582 -5.31079946999472e-18
      vertex -0.382683431942935 -0.92387953238582 -5.31079946999472e-18
    endloop
  endfacet
  facet normal 0.5773502690438996 0.5773502689661371 -0.5773502695588406
    outer loop
      vertex -0.92387953197291 -0.382683432282952 -5.31079946999472e-18
      vertex -0.382683431908573 -0.382683432058785 0.541196099805809
      vertex -0.382683431942935 -0.92387953238582 -5.31079946999472e-18
    endloop
  endfacet
  facet normal 0.8164965806314763 3.1734227234908524e-10 0.577350269608586
    outer loop
      vertex -0.541196099718759 6.78235827353661e-12 -0.541196099610562
      vertex -0.92387953227038 0.382683432334405 -5.31079946999472e-18
      vertex -0.92387953197291 -0.382683432282952 -5.31079946999472e-18
    endloop
  endfacet
  facet normal 0.7071067811840939 5.102051086826308e-10 -0.7071067811890013
    outer loop
      vertex -0.382683431908573 -0.382683432058785 0.541196099805809
      vertex -0.92387953227038 0.382683432334405 -5.31079946999472e-18
      vertex -0.382683432392091 0.382683432247689 0.541196099874533
    endloop
  endfacet
  facet normal 0.707106781017656 2.748264894056309e-10 -0.7071067813554391
    outer loop
      vertex -0.92387953227038 0.382683432334405 -5.31079946999472e-18
      vertex -0.382683431908573 -0.382683432058785 0.541196099805809
      vertex -0.92387953197291 -0.382683432282952 -5.31079946999472e-18
    endloop
  endfacet
  facet normal 0.4999999995645996 -0.4999999995574858 0.7071067818073268
    outer loop
      vertex -0.382683432661095 0.923879532388677 -5.31079946999472e-18
      vertex -0.541196099718759 6.78235827353661e-12 -0.541196099610562
      vertex 3.51221990424072e-10 0.541196099711152 -0.541196099874533
    endloop
  endfacet
  facet normal 0.4999999999094357 -0.4999999994983213 0.7071067816053266
    outer loop
      vertex -0.541196099718759 6.78235827353661e-12 -0.541196099610562
      vertex -0.382683432661095 0.923879532388677 -5.31079946999472e-18
      vertex -0.92387953227038 0.382683432334405 -5.31079946999472e-18
    endloop
  endfacet
  facet normal 0.5773502693156918 -0.5773502688409778 -0.5773502694122077
    outer loop
      vertex -0.382683432661095 0.923879532388677 -5.31079946999472e-18
      vertex -0.382683432392091 0.382683432247689 0.541196099874533
      vertex -0.92387953227038 0.382683432334405 -5.31079946999472e-18
    endloop
  endfacet
  facet normal 1.251111226674357e-17 -0.8164965805689024 0.577350269697079
    outer loop
      vertex 3.51221990424072e-10 0.541196099711152 -0.541196099874533
      vertex 0.382683431624436 0.923879532388677 -5.31079946999472e-18
      vertex -0.382683432661095 0.923879532388677 -5.31079946999472e-18
    endloop
  endfacet
  facet normal 2.592307624172376e-11 -0.7071067810124774 -0.7071067813606176
    outer loop
      vertex -0.382683432661095 0.923879532388677 -5.31079946999472e-18
      vertex 0.38268343179666 0.382683432275748 0.541196099874533
      vertex -0.382683432392091 0.382683432247689 0.541196099874533
    endloop
  endfacet
  facet normal -3.7585156016111137e-17 -0.7071067810308077 -0.7071067813422872
    outer loop
      vertex 0.38268343179666 0.382683432275748 0.541196099874533
      vertex -0.382683432661095 0.923879532388677 -5.31079946999472e-18
      vertex 0.382683431624436 0.923879532388677 -5.31079946999472e-18
    endloop
  endfacet
  facet normal -0.5000000000731599 -0.5000000000956231 0.7071067810672
    outer loop
      vertex 0.382683431624436 0.923879532388677 -5.31079946999472e-18
      vertex 0.541196100175605 -2.25804996729193e-10 -0.541196099874533
      vertex 0.923879531703014 0.382683432334413 -5.31079946999472e-18
    endloop
  endfacet
  facet normal -0.500000000181107 -0.5000000000771022 0.707106781003966
    outer loop
      vertex 0.541196100175605 -2.25804996729193e-10 -0.541196099874533
      vertex 0.382683431624436 0.923879532388677 -5.31079946999472e-18
      vertex 3.51221990424072e-10 0.541196099711152 -0.541196099874533
    endloop
  endfacet
  facet normal -0.5773502691488028 -0.577350269174741 -0.5773502692453336
    outer loop
      vertex 0.923879531703014 0.382683432334413 -5.31079946999472e-18
      vertex 0.38268343179666 0.382683432275748 0.541196099874533
      vertex 0.382683431624436 0.923879532388677 -5.31079946999472e-18
    endloop
  endfacet
  facet normal -0.8164965812566535 -3.9064456488785884e-10 0.5773502687244524
    outer loop
      vertex 0.541196100175605 -2.25804996729193e-10 -0.541196099874533
      vertex 0.923879532069196 -0.382683432282953 -5.31079946999472e-18
      vertex 0.923879531703014 0.382683432334413 -5.31079946999472e-18
    endloop
  endfacet
  facet normal -0.7071067811657594 -3.3830813322457775e-10 -0.7071067812073356
    outer loop
      vertex 0.923879532069196 -0.382683432282953 -5.31079946999472e-18
      vertex 0.38268343179666 0.382683432275748 0.541196099874533
      vertex 0.923879531703014 0.382683432334413 -5.31079946999472e-18
    endloop
  endfacet
  facet normal -0.7071067811060899 -2.53922831147681e-10 -0.7071067812670049
    outer loop
      vertex 0.38268343179666 0.382683432275748 0.541196099874533
      vertex 0.923879532069196 -0.382683432282953 -5.31079946999472e-18
      vertex 0.382683432335475 -0.382683432254033 0.541196099610562
    endloop
  endfacet
  facet normal -0.5000000003795592 0.4999999998786502 0.7071067810039661
    outer loop
      vertex 0.541196100175605 -2.25804996729193e-10 -0.541196099874533
      vertex 0.382683432508509 -0.92387953238582 -5.31079946999472e-18
      vertex 0.923879532069196 -0.382683432282953 -5.31079946999472e-18
    endloop
  endfacet
  facet normal -0.4999999996487179 0.5000000000040427 0.7071067814320828
    outer loop
      vertex 0.382683432508509 -0.92387953238582 -5.31079946999472e-18
      vertex 0.541196100175605 -2.25804996729193e-10 -0.541196099874533
      vertex 3.02625796035458e-10 -0.541196099811374 -0.541196099805809
    endloop
  endfacet
  facet normal -0.5773502693283462 0.5773502687499463 -0.5773502694905847
    outer loop
      vertex 0.382683432508509 -0.92387953238582 -5.31079946999472e-18
      vertex 0.382683432335475 -0.382683432254033 0.541196099610562
      vertex 0.923879532069196 -0.382683432282953 -5.31079946999472e-18
    endloop
  endfacet
  facet normal 6.34927215025664e-11 6.349272148935929e-11 1
    outer loop
      vertex 3.51221990424072e-10 0.541196099711152 -0.541196099874533
      vertex 3.02625796035458e-10 -0.541196099811374 -0.541196099805809
      vertex 0.541196100175605 -2.25804996729193e-10 -0.541196099874533
    endloop
  endfacet
  facet normal 4.2426200586828304e-10 6.349272147316183e-11 1
    outer loop
      vertex 3.02625796035458e-10 -0.541196099811374 -0.541196099805809
      vertex 3.51221990424072e-10 0.541196099711152 -0.541196099874533
      vertex -0.541196099718759 6.78235827353661e-12 -0.541196099610562
    endloop
  endfacet
  facet normal -2.551024074716824e-10 3.4489467509074386e-10 -1
    outer loop
      vertex -0.382683431908573 -0.382683432058785 0.541196099805809
      vertex 0.38268343179666 0.382683432275748 0.541196099874533
      vertex 0.382683432335475 -0.382683432254033 0.541196099610562
    endloop
  endfacet
  facet normal -3.2918608346136196e-21 8.979226783210367e-11 -1
    outer loop
      vertex 0.38268343179666 0.382683432275748 0.541196099874533
      vertex -0.382683431908573 -0.382683432058785 0.541196099805809
      vertex -0.382683432392091 0.382683432247689 0.541196099874533
    endloop
  endfacet
endsolid OpenSCAD_Model
