solid OpenSCAD_Model
  facet normal 0.35682208918357017 0.49112347230282744 0.7946544731038052
    outer loop
      vertex -0.30901699437006 -0.425325403527314 -0.324919695723773
      vertex -0.809016994445262 -0.587785252195691 6.07247674336796e-16
      vertex -0.309016994397808 -0.951056516287726 6.07247674336796e-16
    endloop
  endfacet
  facet normal -6.054431729736848e-16 0.5257311110589966 0.8506508090072407
    outer loop
      vertex -0.30901699437006 -0.425325403527314 -0.324919695723773
      vertex 0.309016994272202 -0.951056516287726 6.07247674336796e-16
      vertex 0.309016994093341 -0.425325403655858 -0.324919695644328
    endloop
  endfacet
  facet normal 0 0.5257311110589971 0.8506508090072402
    outer loop
      vertex 0.309016994272202 -0.951056516287726 6.07247674336796e-16
      vertex -0.30901699437006 -0.425325403527314 -0.324919695723773
      vertex -0.309016994397808 -0.951056516287726 6.07247674336796e-16
    endloop
  endfacet
  facet normal 0 0.5257311119137716 -0.8506508084789606
    outer loop
      vertex -0.309016994397808 -0.951056516287726 6.07247674336796e-16
      vertex 0.309016994244447 -0.425325404158109 0.324919696063986
      vertex 0.309016994272202 -0.951056516287726 6.07247674336796e-16
    endloop
  endfacet
  facet normal 6.652666266081274e-10 0.5257311113478621 -0.850650808828712
    outer loop
      vertex 0.309016994244447 -0.425325404158109 0.324919696063986
      vertex -0.309016994397808 -0.951056516287726 6.07247674336796e-16
      vertex -0.309016993820607 -0.425325403926519 0.324919695723772
    endloop
  endfacet
  facet normal 0.35682208918357033 0.4911234723028278 -0.7946544731038049
    outer loop
      vertex -0.809016994445262 -0.587785252195691 6.07247674336796e-16
      vertex -0.309016993820607 -0.425325403926519 0.324919695723772
      vertex -0.309016994397808 -0.951056516287726 6.07247674336796e-16
    endloop
  endfacet
  facet normal 0.49999999908424037 0.1624598484389886 0.8506508088287111
    outer loop
      vertex -0.499999999919294 0.162459848069713 -0.324919696063987
      vertex -0.809016994445262 -0.587785252195691 6.07247674336796e-16
      vertex -0.30901699437006 -0.425325403527314 -0.324919695723773
    endloop
  endfacet
  facet normal 0.49999999982802396 0.16245984798116248 0.850650808478963
    outer loop
      vertex -0.809016994445262 -0.587785252195691 6.07247674336796e-16
      vertex -0.499999999919294 0.162459848069713 -0.324919696063987
      vertex -0.999999999961188 4.8241539253782e-11 6.07247674336796e-16
    endloop
  endfacet
  facet normal 0.49999999901509007 0.16245984771702063 -0.8506508090072402
    outer loop
      vertex -0.809016994445262 -0.587785252195691 6.07247674336796e-16
      vertex -0.499999999394937 0.162459848081196 0.324919695644327
      vertex -0.309016993820607 -0.425325403926519 0.324919695723772
    endloop
  endfacet
  facet normal 0.4999999990150862 0.16245984771702301 -0.8506508090072421
    outer loop
      vertex -0.499999999394937 0.162459848081196 0.324919695644327
      vertex -0.809016994445262 -0.587785252195691 6.07247674336796e-16
      vertex -0.999999999961188 4.8241539253782e-11 6.07247674336796e-16
    endloop
  endfacet
  facet normal 0.5773502689504911 -0.1875924740876225 0.7946544724649074
    outer loop
      vertex -0.499999999919294 0.162459848069713 -0.324919696063987
      vertex -0.809016994286931 0.587785252240727 6.07247674336796e-16
      vertex -0.999999999961188 4.8241539253782e-11 6.07247674336796e-16
    endloop
  endfacet
  facet normal 0.5773502680551711 -0.18759247379671537 -0.7946544731840695
    outer loop
      vertex -0.809016994286931 0.587785252240727 6.07247674336796e-16
      vertex -0.499999999394937 0.162459848081196 0.324919695644327
      vertex -0.999999999961188 4.8241539253782e-11 6.07247674336796e-16
    endloop
  endfacet
  facet normal 0.30901699419544965 -0.42532540405259184 0.8506508084789604
    outer loop
      vertex -0.30901699431242 0.951056516142576 6.07247674336796e-16
      vertex -0.499999999919294 0.162459848069713 -0.324919696063987
      vertex 4.23838292020157e-13 0.525731111908473 -0.324919696063987
    endloop
  endfacet
  facet normal 0.3090169942164211 -0.42532540405420033 0.8506508084705379
    outer loop
      vertex -0.499999999919294 0.162459848069713 -0.324919696063987
      vertex -0.30901699431242 0.951056516142576 6.07247674336796e-16
      vertex -0.809016994286931 0.587785252240727 6.07247674336796e-16
    endloop
  endfacet
  facet normal 0.3090169948894319 -0.42532540356522736 -0.8506508084705389
    outer loop
      vertex -0.499999999394937 0.162459848081196 0.324919695644327
      vertex -0.30901699431242 0.951056516142576 6.07247674336796e-16
      vertex -3.16255961105732e-11 0.525731111908467 0.324919696063987
    endloop
  endfacet
  facet normal 0.30901699380047604 -0.4253254034817011 -0.8506508089078885
    outer loop
      vertex -0.30901699431242 0.951056516142576 6.07247674336796e-16
      vertex -0.499999999394937 0.162459848081196 0.324919695644327
      vertex -0.809016994286931 0.587785252240727 6.07247674336796e-16
    endloop
  endfacet
  facet normal -5.4513770922283506e-11 -0.607061997980054 0.7946544724648977
    outer loop
      vertex 4.23838292020157e-13 0.525731111908473 -0.324919696063987
      vertex 0.309016994357583 0.951056516087077 6.07247674336796e-16
      vertex -0.30901699431242 0.951056516142576 6.07247674336796e-16
    endloop
  endfacet
  facet normal -5.451377217984561e-11 -0.6070619979800471 -0.7946544724649031
    outer loop
      vertex 0.309016994357583 0.951056516087077 6.07247674336796e-16
      vertex -3.16255961105732e-11 0.525731111908467 0.324919696063987
      vertex -0.30901699431242 0.951056516142576 6.07247674336796e-16
    endloop
  endfacet
  facet normal -0.30901699428479423 -0.4253254039876925 0.8506508084789538
    outer loop
      vertex 0.309016994357583 0.951056516087077 6.07247674336796e-16
      vertex 0.499999999832763 0.16245984794945 -0.324919696063988
      vertex 0.809016994266863 0.587785252095439 6.07247674336796e-16
    endloop
  endfacet
  facet normal -0.3090169943057695 -0.4253254039893013 0.8506508084705297
    outer loop
      vertex 0.499999999832763 0.16245984794945 -0.324919696063988
      vertex 0.309016994357583 0.951056516087077 6.07247674336796e-16
      vertex 4.23838292020157e-13 0.525731111908473 -0.324919696063987
    endloop
  endfacet
  facet normal -0.30901699429279744 -0.4253254039987079 -0.8506508084705389
    outer loop
      vertex 0.499999999822856 0.162459847979913 0.324919696063986
      vertex 0.309016994357583 0.951056516087077 6.07247674336796e-16
      vertex 0.809016994266863 0.587785252095439 6.07247674336796e-16
    endloop
  endfacet
  facet normal -0.3090169942718359 -0.4253254039971 -0.8506508084789574
    outer loop
      vertex 0.309016994357583 0.951056516087077 6.07247674336796e-16
      vertex 0.499999999822856 0.162459847979913 0.324919696063986
      vertex -3.16255961105732e-11 0.525731111908467 0.324919696063987
    endloop
  endfacet
  facet normal -0.5773502689841968 -0.18759247398394402 0.7946544724648941
    outer loop
      vertex 0.499999999832763 0.16245984794945 -0.324919696063988
      vertex 0.999999999835563 -1.31346779956815e-10 6.07247674336796e-16
      vertex 0.809016994266863 0.587785252095439 6.07247674336796e-16
    endloop
  endfacet
  facet normal -0.5773502689841858 -0.18759247398394044 -0.7946544724649027
    outer loop
      vertex 0.999999999835563 -1.31346779956815e-10 6.07247674336796e-16
      vertex 0.499999999822856 0.162459847979913 0.324919696063986
      vertex 0.809016994266863 0.587785252095439 6.07247674336796e-16
    endloop
  endfacet
  facet normal -0.49999999981182347 0.16245984807516203 0.8506508084705333
    outer loop
      vertex 0.499999999832763 0.16245984794945 -0.324919696063988
      vertex 0.809016994214089 -0.587785252340984 6.07247674336796e-16
      vertex 0.999999999835563 -1.31346779956815e-10 6.07247674336796e-16
    endloop
  endfacet
  facet normal -0.4999999988817401 0.16245984864766244 0.8506508089078846
    outer loop
      vertex 0.809016994214089 -0.587785252340984 6.07247674336796e-16
      vertex 0.499999999832763 0.16245984794945 -0.324919696063988
      vertex 0.309016994093341 -0.425325403655858 -0.324919695644328
    endloop
  endfacet
  facet normal -0.4999999997988573 0.1624598480709491 -0.8506508084789591
    outer loop
      vertex 0.809016994214089 -0.587785252340984 6.07247674336796e-16
      vertex 0.499999999822856 0.162459847979913 0.324919696063986
      vertex 0.999999999835563 -1.31346779956815e-10 6.07247674336796e-16
    endloop
  endfacet
  facet normal -0.49999999981676274 0.16245984805992758 -0.8506508084705395
    outer loop
      vertex 0.499999999822856 0.162459847979913 0.324919696063986
      vertex 0.809016994214089 -0.587785252340984 6.07247674336796e-16
      vertex 0.309016994244447 -0.425325404158109 0.324919696063986
    endloop
  endfacet
  facet normal -0.3568220890777168 0.49112347224986846 0.7946544731840668
    outer loop
      vertex 0.309016994093341 -0.425325403655858 -0.324919695644328
      vertex 0.309016994272202 -0.951056516287726 6.07247674336796e-16
      vertex 0.809016994214089 -0.587785252340984 6.07247674336796e-16
    endloop
  endfacet
  facet normal -0.35682208963105333 0.49112347301147097 -0.7946544724649068
    outer loop
      vertex 0.309016994272202 -0.951056516287726 6.07247674336796e-16
      vertex 0.309016994244447 -0.425325404158109 0.324919696063986
      vertex 0.809016994214089 -0.587785252340984 6.07247674336796e-16
    endloop
  endfacet
  facet normal 4.1966164611235683e-10 5.776119517363318e-10 1
    outer loop
      vertex 4.23838292020157e-13 0.525731111908473 -0.324919696063987
      vertex 0.309016994093341 -0.425325403655858 -0.324919695644328
      vertex 0.499999999832763 0.16245984794945 -0.324919696063988
    endloop
  endfacet
  facet normal -1.2854472013001967e-10 3.994889057696054e-10 1
    outer loop
      vertex 4.23838292020157e-13 0.525731111908473 -0.324919696063987
      vertex -0.30901699437006 -0.425325403527314 -0.324919695723773
      vertex 0.309016994093341 -0.425325403655858 -0.324919695644328
    endloop
  endfacet
  facet normal -3.4021402389116625e-10 4.682644317106594e-10 1
    outer loop
      vertex -0.30901699437006 -0.425325403527314 -0.324919695723773
      vertex 4.23838292020157e-13 0.525731111908473 -0.324919696063987
      vertex -0.499999999919294 0.162459848069713 -0.324919696063987
    endloop
  endfacet
  facet normal -1.616740730480542e-15 5.253109070448434e-16 -1
    outer loop
      vertex 0.309016994244447 -0.425325404158109 0.324919696063986
      vertex -3.16255961105732e-11 0.525731111908467 0.324919696063987
      vertex 0.499999999822856 0.162459847979913 0.324919696063986
    endloop
  endfacet
  facet normal 5.504778543430762e-10 1.7886214782366667e-10 -1
    outer loop
      vertex -0.309016993820607 -0.425325403926519 0.324919695723772
      vertex -3.16255961105732e-11 0.525731111908467 0.324919696063987
      vertex 0.309016994244447 -0.425325404158109 0.324919696063986
    endloop
  endfacet
  facet normal 7.58469197509271e-10 1.1128166387848159e-10 -1
    outer loop
      vertex -3.16255961105732e-11 0.525731111908467 0.324919696063987
      vertex -0.309016993820607 -0.425325403926519 0.324919695723772
      vertex -0.499999999394937 0.162459848081196 0.324919695644327
    endloop
  endfacet
endsolid OpenSCAD_Model
