solid OpenSCAD_Model
  facet normal 0.35682208918356967 0.4911234723028281 0.794654473103805
    outer loop
      vertex -0.309016993689292 -0.425325403586065 -0.324919695608693
      vertex -0.809016993587403 -0.587785252196902 -1.02923334596902e-17
      vertex -0.30901699371704 -0.951056516160272 -1.02923334596902e-17
    endloop
  endfacet
  facet normal -6.526637786643005e-16 0.5257311110589971 0.8506508090072403
    outer loop
      vertex -0.309016993689292 -0.425325403586065 -0.324919695608693
      vertex 0.309016994734073 -0.951056516160272 -1.02923334596902e-17
      vertex 0.309016994555212 -0.425325403714609 -0.324919695529248
    endloop
  endfacet
  facet normal 0 0.5257311110589977 0.85065080900724
    outer loop
      vertex 0.309016994734073 -0.951056516160272 -1.02923334596902e-17
      vertex -0.309016993689292 -0.425325403586065 -0.324919695608693
      vertex -0.30901699371704 -0.951056516160272 -1.02923334596902e-17
    endloop
  endfacet
  facet normal 3.4353750754312743e-18 0.6070619970377741 -0.7946544731847356
    outer loop
      vertex 5.24535463355167e-10 -0.525731111504437 0.324919695608693
      vertex 0.309016994734073 -0.951056516160272 -1.02923334596902e-17
      vertex -0.30901699371704 -0.951056516160272 -1.02923334596902e-17
    endloop
  endfacet
  facet normal 0.3090169938441651 0.4253254033812063 -0.8506508089422647
    outer loop
      vertex -0.30901699371704 -0.951056516160272 -1.02923334596902e-17
      vertex -0.499999999254234 -0.1624598477665 0.324919695529248
      vertex 5.24535463355167e-10 -0.525731111504437 0.324919695608693
    endloop
  endfacet
  facet normal 0.3090169938441618 0.42532540338120595 -0.850650808942266
    outer loop
      vertex -0.499999999254234 -0.1624598477665 0.324919695529248
      vertex -0.30901699371704 -0.951056516160272 -1.02923334596902e-17
      vertex -0.809016993587403 -0.587785252196902 -1.02923334596902e-17
    endloop
  endfacet
  facet normal 0.49999999908424064 0.16245984843898795 0.8506508088287111
    outer loop
      vertex -0.499999999170882 0.162459847802778 -0.324919695948907
      vertex -0.809016993587403 -0.587785252196902 -1.02923334596902e-17
      vertex -0.309016993689292 -0.425325403586065 -0.324919695608693
    endloop
  endfacet
  facet normal 0.4999999994662761 0.16245984820383108 0.8506508086490672
    outer loop
      vertex -0.809016993587403 -0.587785252196902 -1.02923334596902e-17
      vertex -0.499999999170882 0.162459847802778 -0.324919695948907
      vertex -0.999999999482833 -1.58589763191418e-11 -1.02923334596902e-17
    endloop
  endfacet
  facet normal 0.5773502681532777 0.18759247404949056 -0.7946544730531185
    outer loop
      vertex -0.999999999482833 -1.58589763191418e-11 -1.02923334596902e-17
      vertex -0.499999999254234 -0.1624598477665 0.324919695529248
      vertex -0.809016993587403 -0.587785252196902 -1.02923334596902e-17
    endloop
  endfacet
  facet normal 0.5773502684747955 -0.187592473332845 0.7946544729886992
    outer loop
      vertex -0.499999999170882 0.162459847802778 -0.324919695948907
      vertex -0.80901699442893 0.587785252148031 -1.02923334596902e-17
      vertex -0.999999999482833 -1.58589763191418e-11 -1.02923334596902e-17
    endloop
  endfacet
  facet normal 0.5000000002070616 -0.16245984685872303 -0.8506508084705373
    outer loop
      vertex -0.499999999254234 -0.1624598477665 0.324919695529248
      vertex -0.80901699442893 0.587785252148031 -1.02923334596902e-17
      vertex -0.309016994650966 0.425325403977801 0.324919695948908
    endloop
  endfacet
  facet normal 0.49999999927698213 -0.16245984743122105 -0.8506508089078868
    outer loop
      vertex -0.80901699442893 0.587785252148031 -1.02923334596902e-17
      vertex -0.499999999254234 -0.1624598477665 0.324919695529248
      vertex -0.999999999482833 -1.58589763191418e-11 -1.02923334596902e-17
    endloop
  endfacet
  facet normal 0.30901699367191554 -0.4253254033320075 0.8506508090294375
    outer loop
      vertex -0.30901699507866 0.951056516066503 -1.02923334596902e-17
      vertex -0.499999999170882 0.162459847802778 -0.324919695948907
      vertex 5.71743377850285e-10 0.525731111512874 -0.324919695948907
    endloop
  endfacet
  facet normal 0.30901699411643174 -0.42532540336610336 0.8506508088509096
    outer loop
      vertex -0.499999999170882 0.162459847802778 -0.324919695948907
      vertex -0.30901699507866 0.951056516066503 -1.02923334596902e-17
      vertex -0.80901699442893 0.587785252148031 -1.02923334596902e-17
    endloop
  endfacet
  facet normal 0.35682208978846386 -0.49112347268523354 -0.794654472595851
    outer loop
      vertex -0.30901699507866 0.951056516066503 -1.02923334596902e-17
      vertex -0.309016994650966 0.425325403977801 0.324919695948908
      vertex -0.80901699442893 0.587785252148031 -1.02923334596902e-17
    endloop
  endfacet
  facet normal 5.867592195679556e-15 -0.6070619975312788 0.7946544728077314
    outer loop
      vertex 5.71743377850285e-10 0.525731111512874 -0.324919695948907
      vertex 0.309016993201654 0.951056516066509 -1.02923334596902e-17
      vertex -0.30901699507866 0.951056516066503 -1.02923334596902e-17
    endloop
  endfacet
  facet normal 1.602232338879297e-11 -0.5257311118222682 -0.8506508085355129
    outer loop
      vertex -0.309016994650966 0.425325403977801 0.324919695948908
      vertex 0.309016993201654 0.951056516066509 -1.02923334596902e-17
      vertex 0.309016993547933 0.425325403996638 0.324919695948907
    endloop
  endfacet
  facet normal 5.099825412944496e-15 -0.5257311118086431 -0.8506508085439336
    outer loop
      vertex 0.309016993201654 0.951056516066509 -1.02923334596902e-17
      vertex -0.309016994650966 0.425325403977801 0.324919695948908
      vertex -0.30901699507866 0.951056516066503 -1.02923334596902e-17
    endloop
  endfacet
  facet normal -0.30901699444657915 -0.42532540429066845 0.850650808268694
    outer loop
      vertex 0.309016993201654 0.951056516066509 -1.02923334596902e-17
      vertex 0.500000000226991 0.162459847682515 -0.324919695948908
      vertex 0.809016993104634 0.587785252148031 -1.02923334596902e-17
    endloop
  endfacet
  facet normal -0.30901699452933806 -0.4253254042970164 0.8506508082354561
    outer loop
      vertex 0.500000000226991 0.162459847682515 -0.324919695948908
      vertex 0.309016993201654 0.951056516066509 -1.02923334596902e-17
      vertex 5.71743377850285e-10 0.525731111512874 -0.324919695948907
    endloop
  endfacet
  facet normal -0.3568220896933296 -0.4911234730971821 -0.7946544723839707
    outer loop
      vertex 0.809016993104634 0.587785252148031 -1.02923334596902e-17
      vertex 0.309016993547933 0.425325403996638 0.324919695948907
      vertex 0.309016993201654 0.951056516066509 -1.02923334596902e-17
    endloop
  endfacet
  facet normal -0.5773502697608239 -0.1875924746291322 0.7946544717483331
    outer loop
      vertex 0.500000000226991 0.162459847682515 -0.324919695948908
      vertex 0.999999999052845 -1.58589763191418e-11 -1.02923334596902e-17
      vertex 0.809016993104634 0.587785252148031 -1.02923334596902e-17
    endloop
  endfacet
  facet normal -0.4999999998881958 -0.1624598483905602 -0.850650808365407
    outer loop
      vertex 0.499999999488891 -0.162459848084009 0.324919695948907
      vertex 0.809016993104634 0.587785252148031 -1.02923334596902e-17
      vertex 0.999999999052845 -1.58589763191418e-11 -1.02923334596902e-17
    endloop
  endfacet
  facet normal -0.49999999987029164 -0.1624598484015809 -0.8506508083738261
    outer loop
      vertex 0.809016993104634 0.587785252148031 -1.02923334596902e-17
      vertex 0.499999999488891 -0.162459848084009 0.324919695948907
      vertex 0.309016993547933 0.425325403996638 0.324919695948907
    endloop
  endfacet
  facet normal -0.5000000006880936 0.16245984784007722 0.8506508080003718
    outer loop
      vertex 0.500000000226991 0.162459847682515 -0.324919695948908
      vertex 0.809016994051727 -0.587785252196899 -1.02923334596902e-17
      vertex 0.999999999052845 -1.58589763191418e-11 -1.02923334596902e-17
    endloop
  endfacet
  facet normal -0.4999999992052974 0.16245984875279265 0.8506508086976243
    outer loop
      vertex 0.809016994051727 -0.587785252196899 -1.02923334596902e-17
      vertex 0.500000000226991 0.162459847682515 -0.324919695948908
      vertex 0.309016994555212 -0.425325403714609 -0.324919695529248
    endloop
  endfacet
  facet normal -0.5773502691437377 0.1875924734928761 -0.7946544724649061
    outer loop
      vertex 0.809016994051727 -0.587785252196899 -1.02923334596902e-17
      vertex 0.499999999488891 -0.162459848084009 0.324919695948907
      vertex 0.999999999052845 -1.58589763191418e-11 -1.02923334596902e-17
    endloop
  endfacet
  facet normal -0.3568220894807337 0.4911234721689386 0.7946544730531184
    outer loop
      vertex 0.309016994555212 -0.425325403714609 -0.324919695529248
      vertex 0.309016994734073 -0.951056516160272 -1.02923334596902e-17
      vertex 0.809016994051727 -0.587785252196899 -1.02923334596902e-17
    endloop
  endfacet
  facet normal -0.30901699440838226 0.4253254036876229 -0.8506508085840925
    outer loop
      vertex 0.309016994734073 -0.951056516160272 -1.02923334596902e-17
      vertex 0.499999999488891 -0.162459848084009 0.324919695948907
      vertex 0.809016994051727 -0.587785252196899 -1.02923334596902e-17
    endloop
  endfacet
  facet normal -0.309016993537539 0.4253254036208265 -0.8506508089338431
    outer loop
      vertex 0.499999999488891 -0.162459848084009 0.324919695948907
      vertex 0.309016994734073 -0.951056516160272 -1.02923334596902e-17
      vertex 5.24535463355167e-10 -0.525731111504437 0.324919695608693
    endloop
  endfacet
  facet normal 4.1966164626099467e-10 5.776119519409123e-10 1
    outer loop
      vertex 5.71743377850285e-10 0.525731111512874 -0.324919695948907
      vertex 0.309016994555212 -0.425325403714609 -0.324919695529248
      vertex 0.500000000226991 0.162459847682515 -0.324919695948908
    endloop
  endfacet
  facet normal -1.2854472017554793e-10 3.9948890591109753e-10 1
    outer loop
      vertex 5.71743377850285e-10 0.525731111512874 -0.324919695948907
      vertex -0.309016993689292 -0.425325403586065 -0.324919695608693
      vertex 0.309016994555212 -0.425325403714609 -0.324919695529248
    endloop
  endfacet
  facet normal -3.402140240116656e-10 4.682644318765113e-10 1
    outer loop
      vertex -0.309016993689292 -0.425325403586065 -0.324919695608693
      vertex 5.71743377850285e-10 0.525731111512874 -0.324919695948907
      vertex -0.499999999170882 0.162459847802778 -0.324919695948907
    endloop
  endfacet
  facet normal 5.504778545452303e-10 1.7886109764209075e-10 -1
    outer loop
      vertex 5.24535463355167e-10 -0.525731111504437 0.324919695608693
      vertex 0.309016993547933 0.425325403996638 0.324919695948907
      vertex 0.499999999488891 -0.162459848084009 0.324919695948907
    endloop
  endfacet
  facet normal -1.6167516344635336e-15 3.5772271960536997e-10 -1
    outer loop
      vertex 5.24535463355167e-10 -0.525731111504437 0.324919695608693
      vertex -0.309016994650966 0.425325403977801 0.324919695948908
      vertex 0.309016993547933 0.425325403996638 0.324919695948907
    endloop
  endfacet
  facet normal 5.482047499237658e-10 5.358457663521909e-10 -1
    outer loop
      vertex -0.309016994650966 0.425325403977801 0.324919695948908
      vertex 5.24535463355167e-10 -0.525731111504437 0.324919695608693
      vertex -0.499999999254234 -0.1624598477665 0.324919695529248
    endloop
  endfacet
endsolid OpenSCAD_Model
