solid OpenSCAD_Model
  facet normal 0.3568220891835697 0.49112347230282904 0.7946544731038044
    outer loop
      vertex -0.302402762318115 -0.416221695148577 -0.523756404976641
      vertex -0.791700711089449 -0.575204236546942 -0.205791323758367
      vertex -0.302402762345269 -0.930700005229077 -0.205791323758367
    endloop
  endfacet
  facet normal -9.722379798175053e-16 0.525731111058998 0.8506508090072399
    outer loop
      vertex -0.302402762318115 -0.416221695148577 -0.523756404976641
      vertex 0.302402763418169 -0.930700005229077 -0.205791323758367
      vertex 0.302402763243136 -0.41622169527437 -0.523756404898896
    endloop
  endfacet
  facet normal 0 0.5257311110589987 0.8506508090072394
    outer loop
      vertex 0.302402763418169 -0.930700005229077 -0.205791323758367
      vertex -0.302402762318115 -0.416221695148577 -0.523756404976641
      vertex -0.302402762345269 -0.930700005229077 -0.205791323758367
    endloop
  endfacet
  facet normal -9.013909398055307e-15 0.8944271907556464 -0.44721359598849697
    outer loop
      vertex 0.302402763418169 -0.930700005229077 -0.205791323758367
      vertex 4.59728415772339e-10 -0.514478309284332 0.626652066994421
      vertex 0.489297949025685 -0.673460850337897 0.308686985321465
    endloop
  endfacet
  facet normal 0 0.8944271907556476 -0.44721359598849436
    outer loop
      vertex -0.302402762345269 -0.930700005229077 -0.205791323758367
      vertex 4.59728415772339e-10 -0.514478309284332 0.626652066994421
      vertex 0.302402763418169 -0.930700005229077 -0.205791323758367
    endloop
  endfacet
  facet normal 3.065817226847199e-15 0.8944271907556473 -0.44721359598849525
    outer loop
      vertex 4.59728415772339e-10 -0.514478309284332 0.626652066994421
      vertex -0.302402762345269 -0.930700005229077 -0.205791323758367
      vertex -0.489297948067057 -0.673460850209188 0.308686985578888
    endloop
  endfacet
  facet normal 0.5773502691908436 0.7946544721734021 -0.1875924745827299
    outer loop
      vertex -0.791700711089449 -0.575204236546942 -0.205791323758367
      vertex -0.489297948067057 -0.673460850209188 0.308686985578888
      vertex -0.302402762345269 -0.930700005229077 -0.205791323758367
    endloop
  endfacet
  facet normal 0.49999999908424114 0.16245984843898795 0.8506508088287109
    outer loop
      vertex -0.489297948020853 0.158982540613845 -0.523756405309573
      vertex -0.791700711089449 -0.575204236546942 -0.205791323758367
      vertex -0.302402762318115 -0.416221695148577 -0.523756404976641
    endloop
  endfacet
  facet normal 0.4999999994662765 0.16245984820383114 0.8506508086490672
    outer loop
      vertex -0.791700711089449 -0.575204236546942 -0.205791323758367
      vertex -0.489297948020853 0.158982540613845 -0.523756405309573
      vertex -0.978595897197169 -9.27674739441259e-12 -0.205791323758367
    endloop
  endfacet
  facet normal 0.850650807832712 0.27639320351509433 -0.4472135957059202
    outer loop
      vertex -0.489297948163716 -0.158982540463736 0.626652066897906
      vertex -0.978595897197169 -9.27674739441259e-12 -0.205791323758367
      vertex -0.791700711609203 0.257239154708025 0.308686985603175
    endloop
  endfacet
  facet normal 0.8506508080478595 0.2763932022606877 -0.44721359607195105
    outer loop
      vertex -0.489297948067057 -0.673460850209188 0.308686985578888
      vertex -0.978595897197169 -9.27674739441259e-12 -0.205791323758367
      vertex -0.489297948163716 -0.158982540463736 0.626652066897906
    endloop
  endfacet
  facet normal 0.8506508081357067 0.27639320262342154 -0.447213595680674
    outer loop
      vertex -0.978595897197169 -9.27674739441259e-12 -0.205791323758367
      vertex -0.489297948067057 -0.673460850209188 0.308686985578888
      vertex -0.791700711089449 -0.575204236546942 -0.205791323758367
    endloop
  endfacet
  facet normal 0.5773502684747961 -0.18759247333284487 0.794654472988699
    outer loop
      vertex -0.489297948020853 0.158982540613845 -0.523756405309573
      vertex -0.791700711912964 0.575204236511603 -0.205791323758367
      vertex -0.978595897197169 -9.27674739441259e-12 -0.205791323758367
    endloop
  endfacet
  facet normal 0.9341723591808979 -0.3035309983329011 -0.18759247424517794
    outer loop
      vertex -0.791700711912964 0.575204236511603 -0.205791323758367
      vertex -0.791700711609203 0.257239154708025 0.308686985603175
      vertex -0.978595897197169 -9.27674739441259e-12 -0.205791323758367
    endloop
  endfacet
  facet normal 0.3090169936719158 -0.4253254033320076 0.8506508090294373
    outer loop
      vertex -0.302402763677745 0.930700005149802 -0.205791323758367
      vertex -0.489297948020853 0.158982540613845 -0.523756405309573
      vertex 5.98323247458454e-10 0.514478309048128 -0.523756405309573
    endloop
  endfacet
  facet normal 0.309016994116432 -0.4253254033661034 0.8506508088509095
    outer loop
      vertex -0.489297948020853 0.158982540613845 -0.523756405309573
      vertex -0.302402763677745 0.930700005149802 -0.205791323758367
      vertex -0.791700711912964 0.575204236511603 -0.205791323758367
    endloop
  endfacet
  facet normal 0.5257311124123679 -0.7236067973523697 -0.44721359579858566
    outer loop
      vertex -0.791700711609203 0.257239154708025 0.308686985603175
      vertex -8.20525742024136e-10 0.832443391184965 0.308686985603175
      vertex -0.302402763230757 0.416221695524424 0.626652067261908
    endloop
  endfacet
  facet normal 0.5257311124048393 -0.7236067973706569 -0.44721359577784675
    outer loop
      vertex -0.302402763677745 0.930700005149802 -0.205791323758367
      vertex -0.791700711609203 0.257239154708025 0.308686985603175
      vertex -0.791700711912964 0.575204236511603 -0.205791323758367
    endloop
  endfacet
  facet normal 0.5257311124245556 -0.7236067973691446 -0.4472135957571157
    outer loop
      vertex -0.791700711609203 0.257239154708025 0.308686985603175
      vertex -0.302402763677745 0.930700005149802 -0.205791323758367
      vertex -8.20525742024136e-10 0.832443391184965 0.308686985603175
    endloop
  endfacet
  facet normal 4.9977369428156296e-15 -0.6070619975312794 0.7946544728077312
    outer loop
      vertex 5.98323247458454e-10 0.514478309048128 -0.523756405309573
      vertex 0.30240276191855 0.930700005149807 -0.205791323758367
      vertex -0.302402763677745 0.930700005149802 -0.205791323758367
    endloop
  endfacet
  facet normal 8.11386318894857e-15 -0.9822469463367145 -0.18759247429521156
    outer loop
      vertex 0.30240276191855 0.930700005149807 -0.205791323758367
      vertex -8.20525742024136e-10 0.832443391184965 0.308686985603175
      vertex -0.302402763677745 0.930700005149802 -0.205791323758367
    endloop
  endfacet
  facet normal -0.3090169944465794 -0.4253254042906688 0.8506508082686938
    outer loop
      vertex 0.30240276191855 0.930700005149807 -0.205791323758367
      vertex 0.489297949131992 0.158982540496156 -0.523756405309574
      vertex 0.791700710694648 0.575204236511603 -0.205791323758367
    endloop
  endfacet
  facet normal -0.30901699452933845 -0.4253254042970166 0.8506508082354557
    outer loop
      vertex 0.489297949131992 0.158982540496156 -0.523756405309574
      vertex 0.30240276191855 0.930700005149807 -0.205791323758367
      vertex 5.98323247458454e-10 0.514478309048128 -0.523756405309573
    endloop
  endfacet
  facet normal -0.5257311120808185 -0.7236067977532323 -0.44721359553973594
    outer loop
      vertex -8.20525742024136e-10 0.832443391184965 0.308686985603175
      vertex 0.791700710864979 0.257239154737842 0.308686985603175
      vertex 0.302402762247196 0.416221695529608 0.626652067261908
    endloop
  endfacet
  facet normal -0.5257311120883492 -0.7236067977635976 -0.44721359551411205
    outer loop
      vertex 0.30240276191855 0.930700005149807 -0.205791323758367
      vertex 0.791700710864979 0.257239154737842 0.308686985603175
      vertex -8.20525742024136e-10 0.832443391184965 0.308686985603175
    endloop
  endfacet
  facet normal -0.5257311121080822 -0.7236067977620839 -0.44721359549336337
    outer loop
      vertex 0.791700710864979 0.257239154737842 0.308686985603175
      vertex 0.30240276191855 0.930700005149807 -0.205791323758367
      vertex 0.791700710694648 0.575204236511603 -0.205791323758367
    endloop
  endfacet
  facet normal -0.5773502697608242 -0.18759247462913292 0.7946544717483329
    outer loop
      vertex 0.489297949131992 0.158982540496156 -0.523756405309574
      vertex 0.97859589685402 -9.27674739441259e-12 -0.205791323758367
      vertex 0.791700710694648 0.575204236511603 -0.205791323758367
    endloop
  endfacet
  facet normal -0.9341723587778785 -0.3035309996232854 -0.1875924741642477
    outer loop
      vertex 0.97859589685402 -9.27674739441259e-12 -0.205791323758367
      vertex 0.791700710864979 0.257239154737842 0.308686985603175
      vertex 0.791700710694648 0.575204236511603 -0.205791323758367
    endloop
  endfacet
  facet normal -0.5000000006880936 0.16245984784007722 0.8506508080003717
    outer loop
      vertex 0.489297949131992 0.158982540496156 -0.523756405309574
      vertex 0.79170071162147 -0.575204236546939 -0.205791323758367
      vertex 0.97859589685402 -9.27674739441259e-12 -0.205791323758367
    endloop
  endfacet
  facet normal -0.49999999920529714 0.16245984875279293 0.8506508086976245
    outer loop
      vertex 0.79170071162147 -0.575204236546939 -0.205791323758367
      vertex 0.489297949131992 0.158982540496156 -0.523756405309574
      vertex 0.302402763243136 -0.41622169527437 -0.523756404898896
    endloop
  endfacet
  facet normal -0.8506508085459411 0.2763932014624701 -0.44721359561786944
    outer loop
      vertex 0.97859589685402 -9.27674739441259e-12 -0.205791323758367
      vertex 0.489297948374927 -0.158982540877121 0.626652067261908
      vertex 0.791700710864979 0.257239154737842 0.308686985603175
    endloop
  endfacet
  facet normal -0.8506508085554871 0.27639320146555735 -0.44721359559780366
    outer loop
      vertex 0.489297949025685 -0.673460850337897 0.308686985321465
      vertex 0.97859589685402 -9.27674739441259e-12 -0.205791323758367
      vertex 0.79170071162147 -0.575204236546939 -0.205791323758367
    endloop
  endfacet
  facet normal -0.8506508085495887 0.2763932014412022 -0.44721359562407526
    outer loop
      vertex 0.97859589685402 -9.27674739441259e-12 -0.205791323758367
      vertex 0.489297949025685 -0.673460850337897 0.308686985321465
      vertex 0.489297948374927 -0.158982540877121 0.626652067261908
    endloop
  endfacet
  facet normal -0.3568220894807335 0.491123472168939 0.7946544730531181
    outer loop
      vertex 0.302402763243136 -0.41622169527437 -0.523756404898896
      vertex 0.302402763418169 -0.930700005229077 -0.205791323758367
      vertex 0.79170071162147 -0.575204236546939 -0.205791323758367
    endloop
  endfacet
  facet normal -0.5773502696389097 0.7946544719116798 -0.1875924743123974
    outer loop
      vertex 0.302402763418169 -0.930700005229077 -0.205791323758367
      vertex 0.489297949025685 -0.673460850337897 0.308686985321465
      vertex 0.79170071162147 -0.575204236546939 -0.205791323758367
    endloop
  endfacet
  facet normal 4.196621561273353e-10 5.776125935506867e-10 1
    outer loop
      vertex 5.98323247458454e-10 0.514478309048128 -0.523756405309573
      vertex 0.302402763243136 -0.41622169527437 -0.523756404898896
      vertex 0.489297949131992 0.158982540496156 -0.523756405309574
    endloop
  endfacet
  facet normal -1.2854550644442984e-10 3.994891263810094e-10 1
    outer loop
      vertex 5.98323247458454e-10 0.514478309048128 -0.523756405309573
      vertex -0.302402762318115 -0.416221695148577 -0.523756404976641
      vertex 0.302402763243136 -0.41622169527437 -0.523756404898896
    endloop
  endfacet
  facet normal -3.4021399072056535e-10 4.682643860552423e-10 1
    outer loop
      vertex -0.302402762318115 -0.416221695148577 -0.523756404976641
      vertex 5.98323247458454e-10 0.514478309048128 -0.523756405309573
      vertex -0.489297948020853 0.158982540613845 -0.523756405309573
    endloop
  endfacet
  facet normal 0.3568220897760079 0.49112347259003414 -0.7946544726602807
    outer loop
      vertex -0.489297948163716 -0.158982540463736 0.626652066897906
      vertex 4.59728415772339e-10 -0.514478309284332 0.626652066994421
      vertex -0.489297948067057 -0.673460850209188 0.308686985578888
    endloop
  endfacet
  facet normal -0.35682208967596246 0.4911234731262126 -0.7946544723738272
    outer loop
      vertex 4.59728415772339e-10 -0.514478309284332 0.626652066994421
      vertex 0.489297948374927 -0.158982540877121 0.626652067261908
      vertex 0.489297949025685 -0.673460850337897 0.308686985321465
    endloop
  endfacet
  facet normal -0.5773502692160613 -0.18759247445759786 -0.79465447218462
    outer loop
      vertex 0.489297948374927 -0.158982540877121 0.626652067261908
      vertex 0.302402762247196 0.416221695529608 0.626652067261908
      vertex 0.791700710864979 0.257239154737842 0.308686985603175
    endloop
  endfacet
  facet normal 5.2033609711463145e-12 -0.607061998069594 -0.7946544723964952
    outer loop
      vertex 0.302402762247196 0.416221695529608 0.626652067261908
      vertex -0.302402763230757 0.416221695524424 0.626652067261908
      vertex -8.20525742024136e-10 0.832443391184965 0.308686985603175
    endloop
  endfacet
  facet normal 0.5773502692325329 -0.18759247289735392 -0.7946544725409763
    outer loop
      vertex -0.302402763230757 0.416221695524424 0.626652067261908
      vertex -0.489297948163716 -0.158982540463736 0.626652066897906
      vertex -0.791700711609203 0.257239154708025 0.308686985603175
    endloop
  endfacet
  facet normal 4.422694922063952e-10 1.4370206933956504e-10 -1
    outer loop
      vertex 4.59728415772339e-10 -0.514478309284332 0.626652066994421
      vertex 0.302402762247196 0.416221695529608 0.626652067261908
      vertex 0.489297948374927 -0.158982540877121 0.626652067261908
    endloop
  endfacet
  facet normal -2.4634103509107583e-21 2.8740413789713095e-10 -1
    outer loop
      vertex 4.59728415772339e-10 -0.514478309284332 0.626652066994421
      vertex -0.302402763230757 0.416221695524424 0.626652067261908
      vertex 0.302402762247196 0.416221695529608 0.626652067261908
    endloop
  endfacet
  facet normal 5.315438506024455e-10 4.6011320485220907e-10 -1
    outer loop
      vertex -0.302402763230757 0.416221695524424 0.626652067261908
      vertex 4.59728415772339e-10 -0.514478309284332 0.626652066994421
      vertex -0.489297948163716 -0.158982540463736 0.626652066897906
    endloop
  endfacet
endsolid OpenSCAD_Model
