solid OpenSCAD_Model
  facet normal 0.3568220891835699 0.49112347230282744 0.7946544731038053
    outer loop
      vertex -0.302402763014465 -0.416221695079852 -0.523756405158109
      vertex -0.791700711955329 -0.575204236533301 -0.205791323829668
      vertex -0.302402763041618 -0.930700005338609 -0.205791323829668
    endloop
  endfacet
  facet normal -8.160866101213087e-16 0.5257311110589957 0.8506508090072412
    outer loop
      vertex -0.302402763014465 -0.416221695079852 -0.523756405158109
      vertex 0.302402762931371 -0.930700005338609 -0.205791323829668
      vertex 0.302402762756339 -0.416221695205645 -0.523756405080364
    endloop
  endfacet
  facet normal 0 0.5257311110589965 0.8506508090072408
    outer loop
      vertex 0.302402762931371 -0.930700005338609 -0.205791323829668
      vertex -0.302402763014465 -0.416221695079852 -0.523756405158109
      vertex -0.302402763041618 -0.930700005338609 -0.205791323829668
    endloop
  endfacet
  facet normal -3.1633451420702483e-18 0.9822469463488886 -0.18759247423146663
    outer loop
      vertex 1.09088535719545e-10 -0.832443391428134 0.308686985428417
      vertex 0.302402762931371 -0.930700005338609 -0.205791323829668
      vertex -0.302402763041618 -0.930700005338609 -0.205791323829668
    endloop
  endfacet
  facet normal 0.5257311120565938 0.723606797554594 -0.44721359588961745
    outer loop
      vertex 1.09088535719545e-10 -0.832443391428134 0.308686985428417
      vertex -0.791700711640662 -0.257239154643842 0.308686985685839
      vertex -0.302402762702552 -0.416221695624077 0.626652067211538
    endloop
  endfacet
  facet normal 0.5257311120565913 0.7236067975545902 -0.4472135958896266
    outer loop
      vertex -0.302402763041618 -0.930700005338609 -0.205791323829668
      vertex -0.791700711640662 -0.257239154643842 0.308686985685839
      vertex 1.09088535719545e-10 -0.832443391428134 0.308686985428417
    endloop
  endfacet
  facet normal 0.5257311120565941 0.72360679755459 -0.4472135958896235
    outer loop
      vertex -0.791700711640662 -0.257239154643842 0.308686985685839
      vertex -0.302402763041618 -0.930700005338609 -0.205791323829668
      vertex -0.791700711955329 -0.575204236533301 -0.205791323829668
    endloop
  endfacet
  facet normal 0.49999999908424053 0.16245984843898784 0.8506508088287111
    outer loop
      vertex -0.489297948781958 0.158982540881865 -0.523756405491041
      vertex -0.791700711955329 -0.575204236533301 -0.205791323829668
      vertex -0.302402763014465 -0.416221695079852 -0.523756405158109
    endloop
  endfacet
  facet normal 0.4999999998280233 0.16245984798116223 0.8506508084789635
    outer loop
      vertex -0.791700711955329 -0.575204236533301 -0.205791323829668
      vertex -0.489297948781958 0.158982540881865 -0.523756405491041
      vertex -0.978595897690228 6.14756746896495e-11 -0.205791323829668
    endloop
  endfacet
  facet normal 0.9341723589068438 0.3035309989368197 -0.18759247463275097
    outer loop
      vertex -0.978595897690228 6.14756746896495e-11 -0.205791323829668
      vertex -0.791700711640662 -0.257239154643842 0.308686985685839
      vertex -0.791700711955329 -0.575204236533301 -0.205791323829668
    endloop
  endfacet
  facet normal 0.5773502689504904 -0.18759247408762222 0.7946544724649081
    outer loop
      vertex -0.489297948781958 0.158982540881865 -0.523756405491041
      vertex -0.791700711800387 0.575204236605906 -0.205791323829668
      vertex -0.978595897690228 6.14756746896495e-11 -0.205791323829668
    endloop
  endfacet
  facet normal 0.8506508081125577 -0.2763932016785021 -0.4472135963086984
    outer loop
      vertex -0.978595897690228 6.14756746896495e-11 -0.205791323829668
      vertex -0.4892979487677 0.673460850387202 0.308686985710127
      vertex -0.489297948258388 0.158982541011747 0.626652067115023
    endloop
  endfacet
  facet normal 0.8506508082734138 -0.2763932023427002 -0.44721359559223484
    outer loop
      vertex -0.4892979487677 0.673460850387202 0.308686985710127
      vertex -0.978595897690228 6.14756746896495e-11 -0.205791323829668
      vertex -0.791700711800387 0.575204236605906 -0.205791323829668
    endloop
  endfacet
  facet normal 0.8506508079252971 -0.2763932027703156 -0.44721359599011146
    outer loop
      vertex -0.978595897690228 6.14756746896495e-11 -0.205791323829668
      vertex -0.489297948258388 0.158982541011747 0.626652067115023
      vertex -0.791700711640662 -0.257239154643842 0.308686985685839
    endloop
  endfacet
  facet normal 0.3090169941954497 -0.42532540405259134 0.8506508084789608
    outer loop
      vertex -0.302402762958058 0.930700005225099 -0.205791323829668
      vertex -0.489297948781958 0.158982540881865 -0.523756405491041
      vertex 6.75000947402812e-12 0.514478309439319 -0.523756405491041
    endloop
  endfacet
  facet normal 0.3090169942164209 -0.4253254040541999 0.8506508084705381
    outer loop
      vertex -0.489297948781958 0.158982540881865 -0.523756405491041
      vertex -0.302402762958058 0.930700005225099 -0.205791323829668
      vertex -0.791700711800387 0.575204236605906 -0.205791323829668
    endloop
  endfacet
  facet normal 0.5773502690860308 -0.7946544723292379 -0.18759247424517966
    outer loop
      vertex -0.302402762958058 0.930700005225099 -0.205791323829668
      vertex -0.4892979487677 0.673460850387202 0.308686985710127
      vertex -0.791700711800387 0.575204236605906 -0.205791323829668
    endloop
  endfacet
  facet normal -5.451466951567915e-11 -0.607061997980054 0.7946544724648977
    outer loop
      vertex 6.75000947402812e-12 0.514478309439319 -0.523756405491041
      vertex 0.302402763014925 0.930700005170787 -0.205791323829668
      vertex -0.302402762958058 0.930700005225099 -0.205791323829668
    endloop
  endfacet
  facet normal -8.031588641217526e-11 -0.8944271909409581 -0.44721359561787344
    outer loop
      vertex -0.302402762958058 0.930700005225099 -0.205791323829668
      vertex -1.33471254521212e-11 0.514478309406418 0.626652067479025
      vertex -0.4892979487677 0.673460850387202 0.308686985710127
    endloop
  endfacet
  facet normal -8.032024662477115e-11 -0.8944271909409588 -0.4472135956178721
    outer loop
      vertex 0.302402763014925 0.930700005170787 -0.205791323829668
      vertex -1.33471254521212e-11 0.514478309406418 0.626652067479025
      vertex -0.302402762958058 0.930700005225099 -0.205791323829668
    endloop
  endfacet
  facet normal -3.6213143583212714e-11 -0.894427190947368 -0.44721359560505386
    outer loop
      vertex -1.33471254521212e-11 0.514478309406418 0.626652067479025
      vertex 0.302402763014925 0.930700005170787 -0.205791323829668
      vertex 0.489297948753006 0.673460850317758 0.308686985710127
    endloop
  endfacet
  facet normal -0.3090169942847926 -0.42532540398769225 0.8506508084789545
    outer loop
      vertex 0.302402763014925 0.930700005170787 -0.205791323829668
      vertex 0.48929794870995 0.158982540764176 -0.523756405491042
      vertex 0.791700711793419 0.575204236463729 -0.205791323829668
    endloop
  endfacet
  facet normal -0.3090169943057697 -0.4253254039893013 0.8506508084705297
    outer loop
      vertex 0.48929794870995 0.158982540764176 -0.523756405491042
      vertex 0.302402763014925 0.930700005170787 -0.205791323829668
      vertex 6.75000947402812e-12 0.514478309439319 -0.523756405491041
    endloop
  endfacet
  facet normal -0.5773502692287275 -0.794654472225562 -0.18759247424518294
    outer loop
      vertex 0.791700711793419 0.575204236463729 -0.205791323829668
      vertex 0.489297948753006 0.673460850317758 0.308686985710127
      vertex 0.302402763014925 0.930700005170787 -0.205791323829668
    endloop
  endfacet
  facet normal -0.5773502689841956 -0.18759247398394396 0.7946544724648947
    outer loop
      vertex 0.48929794870995 0.158982540764176 -0.523756405491042
      vertex 0.978595897579963 -1.14268717770883e-10 -0.205791323829668
      vertex 0.791700711793419 0.575204236463729 -0.205791323829668
    endloop
  endfacet
  facet normal -0.8506508083108572 -0.2763932021859742 -0.4472135956178756
    outer loop
      vertex 0.978595897579963 -1.14268717770883e-10 -0.205791323829668
      vertex 0.489297948753006 0.673460850317758 0.308686985710127
      vertex 0.791700711793419 0.575204236463729 -0.205791323829668
    endloop
  endfacet
  facet normal -0.8506508083108569 -0.2763932021859741 -0.44721359561787566
    outer loop
      vertex 0.489297948753006 0.673460850317758 0.308686985710127
      vertex 0.978595897579963 -1.14268717770883e-10 -0.205791323829668
      vertex 0.489297948672446 0.158982540773109 0.626652067479025
    endloop
  endfacet
  facet normal -0.8506508083033235 -0.2763932022298983 -0.44721359560505863
    outer loop
      vertex 0.489297948672446 0.158982540773109 0.626652067479025
      vertex 0.978595897579963 -1.14268717770883e-10 -0.205791323829668
      vertex 0.791700711679897 -0.257239154849609 0.308686985710127
    endloop
  endfacet
  facet normal -0.49999999981182264 0.16245984807516192 0.8506508084705338
    outer loop
      vertex 0.48929794870995 0.158982540764176 -0.523756405491042
      vertex 0.791700711741775 -0.575204236675484 -0.205791323829668
      vertex 0.978595897579963 -1.14268717770883e-10 -0.205791323829668
    endloop
  endfacet
  facet normal -0.49999999888173907 0.1624598486476625 0.8506508089078854
    outer loop
      vertex 0.791700711741775 -0.575204236675484 -0.205791323829668
      vertex 0.48929794870995 0.158982540764176 -0.523756405491042
      vertex 0.302402762756339 -0.416221695205645 -0.523756405080364
    endloop
  endfacet
  facet normal -0.9341723589227343 0.3035309991274414 -0.18759247424518688
    outer loop
      vertex 0.791700711741775 -0.575204236675484 -0.205791323829668
      vertex 0.791700711679897 -0.257239154849609 0.308686985710127
      vertex 0.978595897579963 -1.14268717770883e-10 -0.205791323829668
    endloop
  endfacet
  facet normal -0.35682208907771606 0.49112347224986797 0.7946544731840673
    outer loop
      vertex 0.302402762756339 -0.416221695205645 -0.523756405080364
      vertex 0.302402762931371 -0.930700005338609 -0.205791323829668
      vertex 0.791700711741775 -0.575204236675484 -0.205791323829668
    endloop
  endfacet
  facet normal -0.5257311120773849 0.7236067976973973 -0.44721359563411534
    outer loop
      vertex 0.791700711679897 -0.257239154849609 0.308686985710127
      vertex 1.09088535719545e-10 -0.832443391428134 0.308686985428417
      vertex 0.302402762875763 -0.416221695677155 0.626652067479025
    endloop
  endfacet
  facet normal -0.5257311120714855 0.7236067977117207 -0.44721359561787516
    outer loop
      vertex 0.302402762931371 -0.930700005338609 -0.205791323829668
      vertex 0.791700711679897 -0.257239154849609 0.308686985710127
      vertex 0.791700711741775 -0.575204236675484 -0.205791323829668
    endloop
  endfacet
  facet normal -0.5257311120869305 0.7236067977105358 -0.4472135956016352
    outer loop
      vertex 0.791700711679897 -0.257239154849609 0.308686985710127
      vertex 0.302402762931371 -0.930700005338609 -0.205791323829668
      vertex 1.09088535719545e-10 -0.832443391428134 0.308686985428417
    endloop
  endfacet
  facet normal 4.196620425313203e-10 5.776124371991875e-10 1
    outer loop
      vertex 6.75000947402812e-12 0.514478309439319 -0.523756405491041
      vertex 0.302402762756339 -0.416221695205645 -0.523756405080364
      vertex 0.48929794870995 0.158982540764176 -0.523756405491042
    endloop
  endfacet
  facet normal -1.2854532283294685e-10 3.994890665980796e-10 1
    outer loop
      vertex 6.75000947402812e-12 0.514478309439319 -0.523756405491041
      vertex -0.302402763014465 -0.416221695079852 -0.523756405158109
      vertex 0.302402762756339 -0.416221695205645 -0.523756405080364
    endloop
  endfacet
  facet normal -3.402139906026883e-10 4.682643858929996e-10 1
    outer loop
      vertex -0.302402763014465 -0.416221695079852 -0.523756405158109
      vertex 6.75000947402812e-12 0.514478309439319 -0.523756405491041
      vertex -0.489297948781958 0.158982540881865 -0.523756405491041
    endloop
  endfacet
  facet normal 0.5773502687529822 0.1875924735250533 -0.7946544727412106
    outer loop
      vertex -0.489297948258388 0.158982541011747 0.626652067115023
      vertex -0.302402762702552 -0.416221695624077 0.626652067211538
      vertex -0.791700711640662 -0.257239154643842 0.308686985685839
    endloop
  endfacet
  facet normal 4.047274451513356e-10 0.6070619982706781 -0.7946544722428807
    outer loop
      vertex -0.302402762702552 -0.416221695624077 0.626652067211538
      vertex 0.302402762875763 -0.416221695677155 0.626652067479025
      vertex 1.09088535719545e-10 -0.832443391428134 0.308686985428417
    endloop
  endfacet
  facet normal -0.5773502691548651 0.18759247409123272 -0.7946544723155687
    outer loop
      vertex 0.302402762875763 -0.416221695677155 0.626652067479025
      vertex 0.489297948672446 0.158982540773109 0.626652067479025
      vertex 0.791700711679897 -0.257239154849609 0.308686985710127
    endloop
  endfacet
  facet normal -0.3568220897858472 -0.4911234731406422 -0.7946544723155679
    outer loop
      vertex 0.489297948672446 0.158982540773109 0.626652067479025
      vertex -1.33471254521212e-11 0.514478309406418 0.626652067479025
      vertex 0.489297948753006 0.673460850317758 0.308686985710127
    endloop
  endfacet
  facet normal 0.35682209005293236 -0.49112347258187045 -0.7946544725409791
    outer loop
      vertex -1.33471254521212e-11 0.514478309406418 0.626652067479025
      vertex -0.489297948258388 0.158982541011747 0.626652067115023
      vertex -0.4892979487677 0.673460850387202 0.308686985710127
    endloop
  endfacet
  facet normal 0 0 -1
    outer loop
      vertex 0.302402762875763 -0.416221695677155 0.626652067479025
      vertex -1.33471254521212e-11 0.514478309406418 0.626652067479025
      vertex 0.489297948672446 0.158982540773109 0.626652067479025
    endloop
  endfacet
  facet normal 4.422694919586217e-10 1.437020689581286e-10 -1
    outer loop
      vertex -0.302402762702552 -0.416221695624077 0.626652067211538
      vertex -1.33471254521212e-11 0.514478309406418 0.626652067479025
      vertex 0.302402762875763 -0.416221695677155 0.626652067479025
    endloop
  endfacet
  facet normal 7.004757640698425e-10 5.980576552192592e-11 -1
    outer loop
      vertex -1.33471254521212e-11 0.514478309406418 0.626652067479025
      vertex -0.302402762702552 -0.416221695624077 0.626652067211538
      vertex -0.489297948258388 0.158982541011747 0.626652067115023
    endloop
  endfacet
endsolid OpenSCAD_Model
