solid OpenSCAD_Model
  facet normal 0.5257311120565952 0.7236067975545892 0.44721359588962345
    outer loop
      vertex -0.809016994434835 -0.262865555824054 -0.525731111750854
      vertex -0.309016994390167 -0.951056516290208 1.72453765145486e-15
      vertex -3.15018822631228e-11 -0.850650808063369 -0.525731112013908
    endloop
  endfacet
  facet normal 0.5257311120565913 0.7236067975545896 0.44721359588962767
    outer loop
      vertex -0.309016994390167 -0.951056516290208 1.72453765145486e-15
      vertex -0.809016994434835 -0.262865555824054 -0.525731111750854
      vertex -0.809016994449985 -0.587785252189192 1.72453765145486e-15
    endloop
  endfacet
  facet normal 0.5257311120565967 0.7236067975545915 0.4472135958896184
    outer loop
      vertex -0.809016994434835 -0.262865555824054 -0.525731111750854
      vertex -3.15018822631228e-11 -0.850650808063369 -0.525731112013908
      vertex -0.309016994440366 -0.425325403784716 -0.850650807947289
    endloop
  endfacet
  facet normal 0 0.982246946272251 0.187592474632747
    outer loop
      vertex 0.309016994295124 -0.951056516290208 1.72453765145486e-15
      vertex -3.15018822631228e-11 -0.850650808063369 -0.525731112013908
      vertex -0.309016994390167 -0.951056516290208 1.72453765145486e-15
    endloop
  endfacet
  facet normal 8.260696501488194e-18 0.9822469463488889 -0.18759247423146494
    outer loop
      vertex 1.20281698100027e-10 -0.850650808336222 0.525731111750854
      vertex 0.309016994295124 -0.951056516290208 1.72453765145486e-15
      vertex -0.309016994390167 -0.951056516290208 1.72453765145486e-15
    endloop
  endfacet
  facet normal 0.5257311120565934 0.7236067975545938 -0.44721359588961845
    outer loop
      vertex 1.20281698100027e-10 -0.850650808336222 0.525731111750854
      vertex -0.809016994128435 -0.262865555884096 0.525731112013907
      vertex -0.309016994043686 -0.425325404072925 0.850650807947286
    endloop
  endfacet
  facet normal 0.5257311120565913 0.7236067975545909 -0.4472135958896254
    outer loop
      vertex -0.309016994390167 -0.951056516290208 1.72453765145486e-15
      vertex -0.809016994128435 -0.262865555884096 0.525731112013907
      vertex 1.20281698100027e-10 -0.850650808336222 0.525731111750854
    endloop
  endfacet
  facet normal 0.5257311120565921 0.7236067975545908 -0.4472135958896246
    outer loop
      vertex -0.809016994128435 -0.262865555884096 0.525731112013907
      vertex -0.309016994390167 -0.951056516290208 1.72453765145486e-15
      vertex -0.809016994449985 -0.587785252189192 1.72453765145486e-15
    endloop
  endfacet
  facet normal 0.934172358979731 0.30353099896050023 0.18759247423147182
    outer loop
      vertex -0.809016994434835 -0.262865555824054 -0.525731111750854
      vertex -0.999999999970632 6.92742657656031e-11 1.72453765145486e-15
      vertex -0.809016994449985 -0.587785252189192 1.72453765145486e-15
    endloop
  endfacet
  facet normal 0.9341723589068445 0.30353099893681795 -0.1875924746327509
    outer loop
      vertex -0.999999999970632 6.92742657656031e-11 1.72453765145486e-15
      vertex -0.809016994128435 -0.262865555884096 0.525731112013907
      vertex -0.809016994449985 -0.587785252189192 1.72453765145486e-15
    endloop
  endfacet
  facet normal 0.8506508082612202 -0.27639320233873815 0.4472135956178772
    outer loop
      vertex -0.999999999970632 6.92742657656031e-11 1.72453765145486e-15
      vertex -0.499999999875873 0.688190960117112 -0.525731112038726
      vertex -0.809016994291653 0.587785252276293 1.72453765145486e-15
    endloop
  endfacet
  facet normal 0.8506508082612207 -0.27639320233874004 0.4472135956178752
    outer loop
      vertex -0.499999999875873 0.688190960117112 -0.525731112038726
      vertex -0.999999999970632 6.92742657656031e-11 1.72453765145486e-15
      vertex -0.499999999887964 0.162459848073428 -0.850650808220627
    endloop
  endfacet
  facet normal 0.8506508082553218 -0.27639320237313264 0.4472135956078395
    outer loop
      vertex -0.499999999887964 0.162459848073428 -0.850650808220627
      vertex -0.999999999970632 6.92742657656031e-11 1.72453765145486e-15
      vertex -0.809016994434835 -0.262865555824054 -0.525731111750854
    endloop
  endfacet
  facet normal 0.8506508081125579 -0.27639320167850184 -0.447213596308698
    outer loop
      vertex -0.999999999970632 6.92742657656031e-11 1.72453765145486e-15
      vertex -0.499999999901806 0.688190960098275 0.525731112038725
      vertex -0.499999999381354 0.162459848227485 0.85065080784866
    endloop
  endfacet
  facet normal 0.8506508082734141 -0.27639320234270015 -0.44721359559223445
    outer loop
      vertex -0.499999999901806 0.688190960098275 0.525731112038725
      vertex -0.999999999970632 6.92742657656031e-11 1.72453765145486e-15
      vertex -0.809016994291653 0.587785252276293 1.72453765145486e-15
    endloop
  endfacet
  facet normal 0.8506508079252972 -0.2763932027703159 -0.44721359599011096
    outer loop
      vertex -0.999999999970632 6.92742657656031e-11 1.72453765145486e-15
      vertex -0.499999999381354 0.162459848227485 0.85065080784866
      vertex -0.809016994128435 -0.262865555884096 0.525731112013907
    endloop
  endfacet
  facet normal 0.5773502690860306 -0.7946544723292369 0.18759247424518477
    outer loop
      vertex -0.499999999875873 0.688190960117112 -0.525731112038726
      vertex -0.30901699430478 0.951056516187124 1.72453765145486e-15
      vertex -0.809016994291653 0.587785252276293 1.72453765145486e-15
    endloop
  endfacet
  facet normal 0.577350269086031 -0.7946544723292376 -0.1875924742451799
    outer loop
      vertex -0.30901699430478 0.951056516187124 1.72453765145486e-15
      vertex -0.499999999901806 0.688190960098275 0.525731112038725
      vertex -0.809016994291653 0.587785252276293 1.72453765145486e-15
    endloop
  endfacet
  facet normal -1.244159507584794e-10 -0.8944271909473701 0.4472135956050495
    outer loop
      vertex 4.1926163441716e-12 0.52573111190889 -0.850650808220627
      vertex -0.30901699430478 0.951056516187124 1.72453765145486e-15
      vertex -0.499999999875873 0.688190960117112 -0.525731112038726
    endloop
  endfacet
  facet normal -8.032026479529498e-11 -0.8944271909409626 0.4472135956178643
    outer loop
      vertex -0.30901699430478 0.951056516187124 1.72453765145486e-15
      vertex 4.1926163441716e-12 0.52573111190889 -0.850650808220627
      vertex 0.309016994380505 0.951056516131624 1.72453765145486e-15
    endloop
  endfacet
  facet normal -8.030408690753648e-11 -0.894427190940965 0.4472135956178596
    outer loop
      vertex 0.309016994380505 0.951056516131624 1.72453765145486e-15
      vertex 4.1926163441716e-12 0.52573111190889 -0.850650808220627
      vertex 0.499999999930337 0.688190960008487 -0.525731112038726
    endloop
  endfacet
  facet normal -8.031443634321832e-11 -0.8944271909409579 -0.4472135956178739
    outer loop
      vertex -0.30901699430478 0.951056516187124 1.72453765145486e-15
      vertex -4.83190748337339e-12 0.525731111908884 0.850650808220624
      vertex -0.499999999901806 0.688190960098275 0.525731112038725
    endloop
  endfacet
  facet normal -8.032026479529463e-11 -0.8944271909409587 -0.44721359561787216
    outer loop
      vertex 0.309016994380505 0.951056516131624 1.72453765145486e-15
      vertex -4.83190748337339e-12 0.525731111908884 0.850650808220624
      vertex -0.30901699430478 0.951056516187124 1.72453765145486e-15
    endloop
  endfacet
  facet normal -3.6214782036643324e-11 -0.8944271909473677 -0.4472135956050544
    outer loop
      vertex -4.83190748337339e-12 0.525731111908884 0.850650808220624
      vertex 0.309016994380505 0.951056516131624 1.72453765145486e-15
      vertex 0.499999999904404 0.688190960027312 0.525731112038725
    endloop
  endfacet
  facet normal -0.5773502692287316 -0.7946544722255648 0.18759247424515776
    outer loop
      vertex 0.499999999930337 0.688190960008487 -0.525731112038726
      vertex 0.809016994302147 0.587785252131005 1.72453765145486e-15
      vertex 0.309016994380505 0.951056516131624 1.72453765145486e-15
    endloop
  endfacet
  facet normal -0.5773502692287287 -0.794654472225561 -0.18759247424518335
    outer loop
      vertex 0.809016994302147 0.587785252131005 1.72453765145486e-15
      vertex 0.499999999904404 0.688190960027312 0.525731112038725
      vertex 0.309016994380505 0.951056516131624 1.72453765145486e-15
    endloop
  endfacet
  facet normal -0.8506508083155213 -0.2763932021588267 0.4472135956257817
    outer loop
      vertex 0.99999999987557 -1.10314053449435e-10 1.72453765145486e-15
      vertex 0.499999999930337 0.688190960008487 -0.525731112038726
      vertex 0.499999999824882 0.162459847975062 -0.850650808220627
    endloop
  endfacet
  facet normal -0.850650808323056 -0.2763932021899385 0.4472135955922218
    outer loop
      vertex 0.499999999930337 0.688190960008487 -0.525731112038726
      vertex 0.99999999987557 -1.10314053449435e-10 1.72453765145486e-15
      vertex 0.809016994302147 0.587785252131005 1.72453765145486e-15
    endloop
  endfacet
  facet normal -0.8506508083108631 -0.27639320218598556 0.4472135956178569
    outer loop
      vertex 0.99999999987557 -1.10314053449435e-10 1.72453765145486e-15
      vertex 0.499999999824882 0.162459847975062 -0.850650808220627
      vertex 0.809016994176254 -0.262865556124833 -0.525731112038726
    endloop
  endfacet
  facet normal -0.8506508083108567 -0.2763932021859748 -0.44721359561787566
    outer loop
      vertex 0.99999999987557 -1.10314053449435e-10 1.72453765145486e-15
      vertex 0.499999999904404 0.688190960027312 0.525731112038725
      vertex 0.809016994302147 0.587785252131005 1.72453765145486e-15
    endloop
  endfacet
  facet normal -0.8506508083108568 -0.27639320218597496 -0.44721359561787544
    outer loop
      vertex 0.499999999904404 0.688190960027312 0.525731112038725
      vertex 0.99999999987557 -1.10314053449435e-10 1.72453765145486e-15
      vertex 0.499999999822082 0.162459847983628 0.850650808220624
    endloop
  endfacet
  facet normal -0.8506508083033236 -0.276393202229897 -0.44721359560505924
    outer loop
      vertex 0.499999999822082 0.162459847983628 0.850650808220624
      vertex 0.99999999987557 -1.10314053449435e-10 1.72453765145486e-15
      vertex 0.809016994186142 -0.262865556094363 0.525731112038725
    endloop
  endfacet
  facet normal -0.9341723589227383 0.3035309991274425 0.18759247424516542
    outer loop
      vertex 0.809016994176254 -0.262865556124833 -0.525731112038726
      vertex 0.809016994249374 -0.587785252334484 1.72453765145486e-15
      vertex 0.99999999987557 -1.10314053449435e-10 1.72453765145486e-15
    endloop
  endfacet
  facet normal -0.9341723589227342 0.3035309991274412 -0.18759247424518788
    outer loop
      vertex 0.809016994249374 -0.587785252334484 1.72453765145486e-15
      vertex 0.809016994186142 -0.262865556094363 0.525731112038725
      vertex 0.99999999987557 -1.10314053449435e-10 1.72453765145486e-15
    endloop
  endfacet
  facet normal -0.5257311120790218 0.723606797722093 0.44721359559223256
    outer loop
      vertex 0.809016994176254 -0.262865556124833 -0.525731112038726
      vertex 0.309016994295124 -0.951056516290208 1.72453765145486e-15
      vertex 0.809016994249374 -0.587785252334484 1.72453765145486e-15
    endloop
  endfacet
  facet normal -0.5257311118878827 0.7236067977367541 0.4472135957932081
    outer loop
      vertex 0.809016994176254 -0.262865556124833 -0.525731112038726
      vertex -3.15018822631228e-11 -0.850650808063369 -0.525731112013908
      vertex 0.309016994295124 -0.951056516290208 1.72453765145486e-15
    endloop
  endfacet
  facet normal -0.5257311115848876 0.7236067973197171 0.44721359682418005
    outer loop
      vertex -3.15018822631228e-11 -0.850650808063369 -0.525731112013908
      vertex 0.809016994176254 -0.262865556124833 -0.525731112038726
      vertex 0.309016994228274 -0.425325403597733 -0.850650807848663
    endloop
  endfacet
  facet normal -0.5257311120773861 0.7236067976973976 -0.44721359563411345
    outer loop
      vertex 0.809016994186142 -0.262865556094363 0.525731112038725
      vertex 1.20281698100027e-10 -0.850650808336222 0.525731111750854
      vertex 0.309016994238299 -0.425325404127165 0.850650808220624
    endloop
  endfacet
  facet normal -0.5257311120714854 0.72360679771172 -0.44721359561787577
    outer loop
      vertex 0.309016994295124 -0.951056516290208 1.72453765145486e-15
      vertex 0.809016994186142 -0.262865556094363 0.525731112038725
      vertex 0.809016994249374 -0.587785252334484 1.72453765145486e-15
    endloop
  endfacet
  facet normal -0.5257311120869311 0.7236067977105354 -0.4472135956016352
    outer loop
      vertex 0.809016994186142 -0.262865556094363 0.525731112038725
      vertex 0.309016994295124 -0.951056516290208 1.72453765145486e-15
      vertex 1.20281698100027e-10 -0.850650808336222 0.525731111750854
    endloop
  endfacet
  facet normal -3.1047459647319214e-10 0.6070619976183551 0.7946544727412111
    outer loop
      vertex 0.309016994228274 -0.425325403597733 -0.850650807848663
      vertex -0.309016994440366 -0.425325403784716 -0.850650807947289
      vertex -3.15018822631228e-11 -0.850650808063369 -0.525731112013908
    endloop
  endfacet
  facet normal 0.5773502691523709 0.18759247440682605 0.7946544722428793
    outer loop
      vertex -0.309016994440366 -0.425325403784716 -0.850650807947289
      vertex -0.499999999887964 0.162459848073428 -0.850650808220627
      vertex -0.809016994434835 -0.262865555824054 -0.525731111750854
    endloop
  endfacet
  facet normal 0.3568220896976467 -0.49112347320472594 0.7946544723155664
    outer loop
      vertex -0.499999999887964 0.162459848073428 -0.850650808220627
      vertex 4.1926163441716e-12 0.52573111190889 -0.850650808220627
      vertex -0.499999999875873 0.688190960117112 -0.525731112038726
    endloop
  endfacet
  facet normal -0.35682208979426727 -0.49112347313452864 0.7946544723155654
    outer loop
      vertex 4.1926163441716e-12 0.52573111190889 -0.850650808220627
      vertex 0.499999999824882 0.162459847975062 -0.850650808220627
      vertex 0.499999999930337 0.688190960008487 -0.525731112038726
    endloop
  endfacet
  facet normal -0.5773502686722884 0.1875924746216091 0.7946544725409763
    outer loop
      vertex 0.499999999824882 0.162459847975062 -0.850650808220627
      vertex 0.309016994228274 -0.425325403597733 -0.850650807848663
      vertex 0.809016994176254 -0.262865556124833 -0.525731112038726
    endloop
  endfacet
  facet normal 3.7196401557441166e-10 5.119645460159118e-10 1
    outer loop
      vertex 4.1926163441716e-12 0.52573111190889 -0.850650808220627
      vertex 0.309016994228274 -0.425325403597733 -0.850650807848663
      vertex 0.499999999824882 0.162459847975062 -0.850650808220627
    endloop
  endfacet
  facet normal -1.5958021424461565e-10 3.392553562698832e-10 1
    outer loop
      vertex 4.1926163441716e-12 0.52573111190889 -0.850650808220627
      vertex -0.309016994440366 -0.425325403784716 -0.850650807947289
      vertex 0.309016994228274 -0.425325403597733 -0.850650807848663
    endloop
  endfacet
  facet normal -2.7333801904355e-10 3.762175076809803e-10 1
    outer loop
      vertex -0.309016994440366 -0.425325403784716 -0.850650807947289
      vertex 4.1926163441716e-12 0.52573111190889 -0.850650808220627
      vertex -0.499999999887964 0.162459848073428 -0.850650808220627
    endloop
  endfacet
  facet normal 0.577350268752982 0.18759247352505293 -0.7946544727412109
    outer loop
      vertex -0.499999999381354 0.162459848227485 0.85065080784866
      vertex -0.309016994043686 -0.425325404072925 0.850650807947286
      vertex -0.809016994128435 -0.262865555884096 0.525731112013907
    endloop
  endfacet
  facet normal 4.0472907236115123e-10 0.607061998270678 -0.7946544722428808
    outer loop
      vertex -0.309016994043686 -0.425325404072925 0.850650807947286
      vertex 0.309016994238299 -0.425325404127165 0.850650808220624
      vertex 1.20281698100027e-10 -0.850650808336222 0.525731111750854
    endloop
  endfacet
  facet normal -0.5773502691548665 0.1875924740912325 -0.7946544723155677
    outer loop
      vertex 0.309016994238299 -0.425325404127165 0.850650808220624
      vertex 0.499999999822082 0.162459847983628 0.850650808220624
      vertex 0.809016994186142 -0.262865556094363 0.525731112038725
    endloop
  endfacet
  facet normal -0.356822089785848 -0.4911234731406434 -0.7946544723155666
    outer loop
      vertex 0.499999999822082 0.162459847983628 0.850650808220624
      vertex -4.83190748337339e-12 0.525731111908884 0.850650808220624
      vertex 0.499999999904404 0.688190960027312 0.525731112038725
    endloop
  endfacet
  facet normal 0.3568220900529333 -0.4911234725818707 -0.7946544725409785
    outer loop
      vertex -4.83190748337339e-12 0.525731111908884 0.850650808220624
      vertex -0.499999999381354 0.162459848227485 0.85065080784866
      vertex -0.499999999901806 0.688190960098275 0.525731112038725
    endloop
  endfacet
  facet normal 0 0 -1
    outer loop
      vertex 0.309016994238299 -0.425325404127165 0.850650808220624
      vertex -4.83190748337339e-12 0.525731111908884 0.850650808220624
      vertex 0.499999999822082 0.162459847983628 0.850650808220624
    endloop
  endfacet
  facet normal 4.422702053221368e-10 1.4370230074398518e-10 -1
    outer loop
      vertex -0.309016994043686 -0.425325404072925 0.850650807947286
      vertex -4.83190748337339e-12 0.525731111908884 0.850650808220624
      vertex 0.309016994238299 -0.425325404127165 0.850650808220624
    endloop
  endfacet
  facet normal 7.004764162939584e-10 5.980601717317718e-11 -1
    outer loop
      vertex -4.83190748337339e-12 0.525731111908884 0.850650808220624
      vertex -0.309016994043686 -0.425325404072925 0.850650807947286
      vertex -0.499999999381354 0.162459848227485 0.85065080784866
    endloop
  endfacet
endsolid OpenSCAD_Model
