solid OpenSCAD_Model
  facet normal 0.86602540381437 0.49999999994815747 7.776277603379884e-11
    outer loop
      vertex -0.34781848471797 -0.602439287405289 0.347818484793
      vertex -0.695636969455286 1.62836925965542e-10 -0.347818484645569
      vertex -0.695636969497949 1.28542017441192e-10 0.347818484793
    endloop
  endfacet
  facet normal 0.8660254038143697 0.4999999999481582 7.776351983521908e-11
    outer loop
      vertex -0.695636969455286 1.62836925965542e-10 -0.347818484645569
      vertex -0.34781848471797 -0.602439287405289 0.347818484793
      vertex -0.347818484686738 -0.602439287351194 -0.347818484730896
    endloop
  endfacet
  facet normal -1.204212756833854e-26 1 -3.8000997454265914e-10
    outer loop
      vertex 0.347818484814295 -0.602439287669638 -0.347818484901549
      vertex -0.34781848471797 -0.602439287405289 0.347818484793
      vertex 0.347818484805926 -0.602439287405289 0.347818484793
    endloop
  endfacet
  facet normal 4.577731659766276e-10 1 7.776319132717533e-11
    outer loop
      vertex -0.34781848471797 -0.602439287405289 0.347818484793
      vertex 0.347818484814295 -0.602439287669638 -0.347818484901549
      vertex -0.347818484686738 -0.602439287351194 -0.347818484730896
    endloop
  endfacet
  facet normal 6.915964390257511e-18 0.9428090415228835 -0.3333333335007194
    outer loop
      vertex 6.20099875814156e-11 -0.401626191496854 0.915803691943805
      vertex 0.347818484805926 -0.602439287405289 0.347818484793
      vertex -0.34781848471797 -0.602439287405289 0.347818484793
    endloop
  endfacet
  facet normal 0.7071067811584548 0.4082482903912022 -0.5773502692754109
    outer loop
      vertex 6.20099875814156e-11 -0.401626191496854 0.915803691943805
      vertex -0.695636969497949 1.28542017441192e-10 0.347818484793
      vertex -0.347818484686737 0.200813095991187 0.915803691949675
    endloop
  endfacet
  facet normal 0.7071067811584549 0.40824829039120475 -0.5773502692754091
    outer loop
      vertex -0.695636969497949 1.28542017441192e-10 0.347818484793
      vertex 6.20099875814156e-11 -0.401626191496854 0.915803691943805
      vertex -0.34781848471797 -0.602439287405289 0.347818484793
    endloop
  endfacet
  facet normal 0.8660254036999259 -0.5000000001463806 4.369353855980902e-10
    outer loop
      vertex -0.347818484880254 0.60243928763114 0.347818484793
      vertex -0.695636969455286 1.62836925965542e-10 -0.347818484645569
      vertex -0.347818484632643 0.602439287452118 -0.347818484730896
    endloop
  endfacet
  facet normal 0.8660254039041622 -0.49999999979263293 2.8462797101471147e-11
    outer loop
      vertex -0.695636969455286 1.62836925965542e-10 -0.347818484645569
      vertex -0.347818484880254 0.60243928763114 0.347818484793
      vertex -0.695636969497949 1.28542017441192e-10 0.347818484793
    endloop
  endfacet
  facet normal 0.8164965809921644 -0.47140452056755844 -0.3333333334915311
    outer loop
      vertex -0.347818484880254 0.60243928763114 0.347818484793
      vertex -0.347818484686737 0.200813095991187 0.915803691949675
      vertex -0.695636969497949 1.28542017441192e-10 0.347818484793
    endloop
  endfacet
  facet normal 8.789616079002155e-27 -1 2.5734961805019825e-10
    outer loop
      vertex -0.347818484632643 0.602439287452118 -0.347818484730896
      vertex 0.347818484535451 0.60243928763114 0.347818484793
      vertex -0.347818484880254 0.60243928763114 0.347818484793
    endloop
  endfacet
  facet normal -5.47570209487977e-10 -1 8.049198272581058e-10
    outer loop
      vertex 0.347818484535451 0.60243928763114 0.347818484793
      vertex -0.347818484632643 0.602439287452118 -0.347818484730896
      vertex 0.347818484868394 0.602439287071208 -0.347818484901549
    endloop
  endfacet
  facet normal -6.349686597816204e-11 -0.8164965808966744 -0.5773502692335395
    outer loop
      vertex -0.347818484880254 0.60243928763114 0.347818484793
      vertex 0.347818484558312 0.20081309594124 0.915803691943805
      vertex -0.347818484686737 0.200813095991187 0.915803691949675
    endloop
  endfacet
  facet normal 9.291327791136864e-19 -0.8164965808600144 -0.5773502692853845
    outer loop
      vertex 0.347818484558312 0.20081309594124 0.915803691943805
      vertex -0.347818484880254 0.60243928763114 0.347818484793
      vertex 0.347818484535451 0.60243928763114 0.347818484793
    endloop
  endfacet
  facet normal -0.866025403769471 -0.5000000000259246 -1.203372901847292e-11
    outer loop
      vertex 0.347818484868394 0.602439287071208 -0.347818484901549
      vertex 0.695636969369527 1.28543407603117e-10 0.347818484793
      vertex 0.347818484535451 0.60243928763114 0.347818484793
    endloop
  endfacet
  facet normal -0.8660254038592713 -0.49999999987038624 1.6756661084003905e-10
    outer loop
      vertex 0.695636969369527 1.28543407603117e-10 0.347818484793
      vertex 0.347818484868394 0.602439287071208 -0.347818484901549
      vertex 0.695636969582837 -4.74051472024973e-10 -0.347818484986876
    endloop
  endfacet
  facet normal -0.8164965808952844 -0.4714045208048908 -0.3333333333931992
    outer loop
      vertex 0.695636969369527 1.28543407603117e-10 0.347818484793
      vertex 0.347818484558312 0.20081309594124 0.915803691943805
      vertex 0.347818484535451 0.60243928763114 0.347818484793
    endloop
  endfacet
  facet normal -0.8660254036999298 0.5000000001463737 -6.98682464554315e-10
    outer loop
      vertex 0.347818484814295 -0.602439287669638 -0.347818484901549
      vertex 0.695636969369527 1.28543407603117e-10 0.347818484793
      vertex 0.695636969582837 -4.74051472024973e-10 -0.347818484986876
    endloop
  endfacet
  facet normal -0.866025403949059 0.49999999971486914 -2.004239268321876e-10
    outer loop
      vertex 0.695636969369527 1.28543407603117e-10 0.347818484793
      vertex 0.347818484814295 -0.602439287669638 -0.347818484901549
      vertex 0.347818484805926 -0.602439287405289 0.347818484793
    endloop
  endfacet
  facet normal -0.7071067812867573 0.40824829019719444 -0.5773502692554573
    outer loop
      vertex 0.695636969369527 1.28543407603117e-10 0.347818484793
      vertex 6.20099875814156e-11 -0.401626191496854 0.915803691943805
      vertex 0.347818484558312 0.20081309594124 0.915803691943805
    endloop
  endfacet
  facet normal -0.7071067812867573 0.40824829021130804 -0.5773502692454776
    outer loop
      vertex 6.20099875814156e-11 -0.401626191496854 0.915803691943805
      vertex 0.695636969369527 1.28543407603117e-10 0.347818484793
      vertex 0.347818484805926 -0.602439287405289 0.347818484793
    endloop
  endfacet
  facet normal 0.7071067812923417 0.4082482903867397 0.5773502691145893
    outer loop
      vertex -0.695636969455286 1.62836925965542e-10 -0.347818484645569
      vertex 2.17882395382644e-11 -0.401626191624163 -0.915803691903225
      vertex -0.347818484722717 0.20081309583992 -0.915803691812034
    endloop
  endfacet
  facet normal 0.7071067812923418 0.40824829038673177 0.5773502691145949
    outer loop
      vertex 2.17882395382644e-11 -0.401626191624163 -0.915803691903225
      vertex -0.695636969455286 1.62836925965542e-10 -0.347818484645569
      vertex -0.347818484686738 -0.602439287351194 -0.347818484730896
    endloop
  endfacet
  facet normal 5.133656923390862e-10 0.9428090415226876 0.33333333350127353
    outer loop
      vertex 0.347818484814295 -0.602439287669638 -0.347818484901549
      vertex 2.17882395382644e-11 -0.401626191624163 -0.915803691903225
      vertex -0.347818484686738 -0.602439287351194 -0.347818484730896
    endloop
  endfacet
  facet normal 0.8164965808678394 -0.47140452089325596 0.33333333333545806
    outer loop
      vertex -0.347818484722717 0.20081309583992 -0.915803691812034
      vertex -0.347818484632643 0.602439287452118 -0.347818484730896
      vertex -0.695636969455286 1.62836925965542e-10 -0.347818484645569
    endloop
  endfacet
  facet normal -3.054542276508896e-10 -0.8164965808792871 0.5773502692581288
    outer loop
      vertex -0.347818484722717 0.20081309583992 -0.915803691812034
      vertex 0.347818484868394 0.602439287071208 -0.347818484901549
      vertex -0.347818484632643 0.602439287452118 -0.347818484730896
    endloop
  endfacet
  facet normal -3.1766724263344064e-10 -0.8164965808722359 0.5773502692681006
    outer loop
      vertex 0.347818484868394 0.602439287071208 -0.347818484901549
      vertex -0.347818484722717 0.20081309583992 -0.915803691812034
      vertex 0.347818484661754 0.200813095448604 -0.915803691982688
    endloop
  endfacet
  facet normal -0.8164965808951946 -0.47140452065652694 0.33333333360323686
    outer loop
      vertex 0.347818484661754 0.200813095448604 -0.915803691982688
      vertex 0.695636969582837 -4.74051472024973e-10 -0.347818484986876
      vertex 0.347818484868394 0.602439287071208 -0.347818484901549
    endloop
  endfacet
  facet normal -0.7071067809211414 0.40824829047845057 0.5773502695043655
    outer loop
      vertex 2.17882395382644e-11 -0.401626191624163 -0.915803691903225
      vertex 0.695636969582837 -4.74051472024973e-10 -0.347818484986876
      vertex 0.347818484661754 0.200813095448604 -0.915803691982688
    endloop
  endfacet
  facet normal -0.7071067809211417 0.40824829055175577 0.5773502694525309
    outer loop
      vertex 0.695636969582837 -4.74051472024973e-10 -0.347818484986876
      vertex 2.17882395382644e-11 -0.401626191624163 -0.915803691903225
      vertex 0.347818484814295 -0.602439287669638 -0.347818484901549
    endloop
  endfacet
  facet normal -8.438427595686656e-12 4.871928440034064e-12 -1
    outer loop
      vertex -0.347818484686737 0.200813095991187 0.915803691949675
      vertex 0.347818484558312 0.20081309594124 0.915803691943805
      vertex 6.20099875814156e-11 -0.401626191496854 0.915803691943805
    endloop
  endfacet
  facet normal 2.4532039401896673e-10 -9.73372102810677e-12 1
    outer loop
      vertex 2.17882395382644e-11 -0.401626191624163 -0.915803691903225
      vertex 0.347818484661754 0.200813095448604 -0.915803691982688
      vertex -0.347818484722717 0.20081309583992 -0.915803691812034
    endloop
  endfacet
endsolid OpenSCAD_Model
