solid OpenSCAD_Model
  facet normal 0.8660254038143693 0.4999999999481584 7.776403547427738e-11
    outer loop
      vertex -0.347818484716312 -0.602439287491945 0.347818484798353
      vertex -0.695636969458982 8.54547981322284e-11 -0.347818484650924
      vertex -0.695636969501646 5.11598896073507e-11 0.347818484798353
    endloop
  endfacet
  facet normal 0.8660254038143698 0.49999999994815797 7.776351742627032e-11
    outer loop
      vertex -0.695636969458982 8.54547981322284e-11 -0.347818484650924
      vertex -0.347818484716312 -0.602439287491945 0.347818484798353
      vertex -0.34781848468508 -0.60243928743785 -0.347818484736251
    endloop
  endfacet
  facet normal -2.033138077186248e-28 1 -2.0844303055458006e-11
    outer loop
      vertex 0.347818484826661 -0.602439287506445 -0.347818484906905
      vertex -0.347818484716312 -0.602439287491945 0.347818484798353
      vertex 0.347818484818293 -0.602439287491945 0.347818484798353
    endloop
  endfacet
  facet normal 9.860749438831499e-11 1 7.776319130985285e-11
    outer loop
      vertex -0.347818484716312 -0.602439287491945 0.347818484798353
      vertex 0.347818484826661 -0.602439287506445 -0.347818484906905
      vertex -0.34781848468508 -0.60243928743785 -0.347818484736251
    endloop
  endfacet
  facet normal -3.297817997858207e-18 0.9428090415228831 -0.33333333350072014
    outer loop
      vertex 6.90221574083196e-11 -0.401626191580418 0.915803691957902
      vertex 0.347818484818293 -0.602439287491945 0.347818484798353
      vertex -0.347818484716312 -0.602439287491945 0.347818484798353
    endloop
  endfacet
  facet normal 0.7071067811584546 0.4082482903912035 -0.5773502692754103
    outer loop
      vertex 6.90221574083196e-11 -0.401626191580418 0.915803691957902
      vertex -0.695636969501646 5.11598896073507e-11 0.347818484798353
      vertex -0.34781848468508 0.200813095916896 0.915803691963772
    endloop
  endfacet
  facet normal 0.7071067811584546 0.4082482903912055 -0.5773502692754089
    outer loop
      vertex -0.695636969501646 5.11598896073507e-11 0.347818484798353
      vertex 6.90221574083196e-11 -0.401626191580418 0.915803691957902
      vertex -0.347818484716312 -0.602439287491945 0.347818484798353
    endloop
  endfacet
  facet normal 0.8660254036999261 -0.50000000014638 4.3693539628240644e-10
    outer loop
      vertex -0.347818484878596 0.602439287563032 0.347818484798353
      vertex -0.695636969458982 8.54547981322284e-11 -0.347818484650924
      vertex -0.347818484630985 0.60243928738401 -0.347818484736251
    endloop
  endfacet
  facet normal 0.8660254039041618 -0.4999999997926335 2.8464041044329747e-11
    outer loop
      vertex -0.695636969458982 8.54547981322284e-11 -0.347818484650924
      vertex -0.347818484878596 0.602439287563032 0.347818484798353
      vertex -0.695636969501646 5.11598896073507e-11 0.347818484798353
    endloop
  endfacet
  facet normal 0.8164965809921644 -0.4714045205675591 -0.3333333334915303
    outer loop
      vertex -0.347818484878596 0.602439287563032 0.347818484798353
      vertex -0.34781848468508 0.200813095916896 0.915803691963772
      vertex -0.695636969501646 5.11598896073507e-11 0.347818484798353
    endloop
  endfacet
  facet normal 1.0069433451935899e-26 -1 2.5734977764428484e-10
    outer loop
      vertex -0.347818484630985 0.60243928738401 -0.347818484736251
      vertex 0.347818484547818 0.602439287563032 0.347818484798353
      vertex -0.347818484878596 0.602439287563032 0.347818484798353
    endloop
  endfacet
  facet normal -1.884099643200263e-10 -1 4.4575974186794417e-10
    outer loop
      vertex 0.347818484547818 0.602439287563032 0.347818484798353
      vertex -0.347818484630985 0.60243928738401 -0.347818484736251
      vertex 0.347818484880754 0.602439287252945 -0.347818484906905
    endloop
  endfacet
  facet normal -6.34965731743128e-11 -0.8164965808966742 -0.5773502692335397
    outer loop
      vertex -0.347818484878596 0.602439287563032 0.347818484798353
      vertex 0.347818484570679 0.200813095866949 0.915803691957902
      vertex -0.34781848468508 0.200813095916896 0.915803691963772
    endloop
  endfacet
  facet normal -5.270454421522611e-18 -0.8164965808600144 -0.5773502692853845
    outer loop
      vertex 0.347818484570679 0.200813095866949 0.915803691957902
      vertex -0.347818484878596 0.602439287563032 0.347818484798353
      vertex 0.347818484547818 0.602439287563032 0.347818484798353
    endloop
  endfacet
  facet normal -0.8660254037694713 -0.5000000000259242 -1.9160506419670716e-10
    outer loop
      vertex 0.347818484880754 0.602439287252945 -0.347818484906905
      vertex 0.695636969387248 5.11612797692753e-11 0.347818484798353
      vertex 0.347818484547818 0.602439287563032 0.347818484798353
    endloop
  endfacet
  facet normal -0.8660254038143659 -0.49999999994816463 -1.0181611964087009e-10
    outer loop
      vertex 0.695636969387248 5.11612797692753e-11 0.347818484798353
      vertex 0.347818484880754 0.602439287252945 -0.347818484906905
      vertex 0.695636969600565 -1.76660541684273e-10 -0.347818484992232
    endloop
  endfacet
  facet normal -0.8164965808952848 -0.4714045208048903 -0.33333333339319887
    outer loop
      vertex 0.695636969387248 5.11612797692753e-11 0.347818484798353
      vertex 0.347818484570679 0.200813095866949 0.915803691957902
      vertex 0.347818484547818 0.602439287563032 0.347818484798353
    endloop
  endfacet
  facet normal -0.8660254037448206 0.5000000000686206 -4.2931717518850304e-10
    outer loop
      vertex 0.347818484826661 -0.602439287506445 -0.347818484906905
      vertex 0.695636969387248 5.11612797692753e-11 0.347818484798353
      vertex 0.695636969600565 -1.76660541684273e-10 -0.347818484992232
    endloop
  endfacet
  facet normal -0.8660254039490592 0.49999999971486875 -2.0839853379079748e-11
    outer loop
      vertex 0.695636969387248 5.11612797692753e-11 0.347818484798353
      vertex 0.347818484826661 -0.602439287506445 -0.347818484906905
      vertex 0.347818484818293 -0.602439287491945 0.347818484798353
    endloop
  endfacet
  facet normal -0.7071067812867573 0.4082482901971956 -0.5773502692554566
    outer loop
      vertex 0.695636969387248 5.11612797692753e-11 0.347818484798353
      vertex 6.90221574083196e-11 -0.401626191580418 0.915803691957902
      vertex 0.347818484570679 0.200813095866949 0.915803691957902
    endloop
  endfacet
  facet normal -0.7071067812867574 0.4082482902113076 -0.5773502692454779
    outer loop
      vertex 6.90221574083196e-11 -0.401626191580418 0.915803691957902
      vertex 0.695636969387248 5.11612797692753e-11 0.347818484798353
      vertex 0.347818484818293 -0.602439287491945 0.347818484798353
    endloop
  endfacet
  facet normal 0.8164965809975947 0.47140452071898886 0.3333333332640748
    outer loop
      vertex -0.347818484793186 -0.200813095725778 -0.915803691826126
      vertex -0.695636969458982 8.54547981322284e-11 -0.347818484650924
      vertex -0.34781848468508 -0.60243928743785 -0.347818484736251
    endloop
  endfacet
  facet normal 2.2214848765122422e-10 0.8164965808157935 0.5773502693479223
    outer loop
      vertex 0.34781848466328 -0.200813095790222 -0.915803692002651
      vertex -0.34781848468508 -0.60243928743785 -0.347818484736251
      vertex 0.347818484826661 -0.602439287506445 -0.347818484906905
    endloop
  endfacet
  facet normal 2.221490144972334e-10 0.8164965808157931 0.5773502693479228
    outer loop
      vertex -0.34781848468508 -0.60243928743785 -0.347818484736251
      vertex 0.34781848466328 -0.200813095790222 -0.915803692002651
      vertex -0.347818484793186 -0.200813095725778 -0.915803691826126
    endloop
  endfacet
  facet normal 0.70710678119099 -0.40824829054401285 0.5773502691275103
    outer loop
      vertex -0.695636969458982 8.54547981322284e-11 -0.347818484650924
      vertex -1.44529342963886e-11 0.401626191466624 -0.915803691911453
      vertex -0.347818484630985 0.60243928738401 -0.347818484736251
    endloop
  endfacet
  facet normal 0.7071067811909899 -0.4082482905581254 0.5773502691175313
    outer loop
      vertex -1.44529342963886e-11 0.401626191466624 -0.915803691911453
      vertex -0.695636969458982 8.54547981322284e-11 -0.347818484650924
      vertex -0.347818484793186 -0.200813095725778 -0.915803691826126
    endloop
  endfacet
  facet normal -9.586116729136062e-11 -0.9428090415411623 0.3333333334490193
    outer loop
      vertex -1.44529342963886e-11 0.401626191466624 -0.915803691911453
      vertex 0.347818484880754 0.602439287252945 -0.347818484906905
      vertex -0.347818484630985 0.60243928738401 -0.347818484736251
    endloop
  endfacet
  facet normal -0.707106781039618 -0.40824829040437555 0.5773502694116409
    outer loop
      vertex -1.44529342963886e-11 0.401626191466624 -0.915803691911453
      vertex 0.695636969600565 -1.76660541684273e-10 -0.347818484992232
      vertex 0.347818484880754 0.602439287252945 -0.347818484906905
    endloop
  endfacet
  facet normal -0.707106781039618 -0.4082482904776854 0.577350269359803
    outer loop
      vertex 0.695636969600565 -1.76660541684273e-10 -0.347818484992232
      vertex -1.44529342963886e-11 0.401626191466624 -0.915803691911453
      vertex 0.34781848466328 -0.200813095790222 -0.915803692002651
    endloop
  endfacet
  facet normal -0.8164965807494321 0.471404520821567 0.33333333372687923
    outer loop
      vertex 0.34781848466328 -0.200813095790222 -0.915803692002651
      vertex 0.347818484826661 -0.602439287506445 -0.347818484906905
      vertex 0.695636969600565 -1.76660541684273e-10 -0.347818484992232
    endloop
  endfacet
  facet normal -8.438267997508672e-12 4.871836295983129e-12 -1
    outer loop
      vertex -0.34781848468508 0.200813095916896 0.915803691963772
      vertex 0.347818484570679 0.200813095866949 0.915803691957902
      vertex 6.90221574083196e-11 -0.401626191580418 0.915803691957902
    endloop
  endfacet
  facet normal 2.537602579745055e-10 -4.872573472834146e-12 1
    outer loop
      vertex 0.34781848466328 -0.200813095790222 -0.915803692002651
      vertex -1.44529342963886e-11 0.401626191466624 -0.915803691911453
      vertex -0.347818484793186 -0.200813095725778 -0.915803691826126
    endloop
  endfacet
endsolid OpenSCAD_Model
