solid OpenSCAD_Model
  facet normal 0.7071067812341684 0.7071067811389267 1.0838963799126504e-10
    outer loop
      vertex -0.35740674398855 -0.862856209184783 0.357406744292646
      vertex -0.86285620889338 -0.357406744102302 -0.35740674394437
      vertex -0.862856208957565 -0.357406744147688 0.357406744292646
    endloop
  endfacet
  facet normal 0.7071067812341676 0.7071067811389273 1.0839067353279145e-10
    outer loop
      vertex -0.86285620889338 -0.357406744102302 -0.35740674394437
      vertex -0.35740674398855 -0.862856209184783 0.357406744292646
      vertex -0.357406743956457 -0.862856209107304 -0.357406744053941
    endloop
  endfacet
  facet normal -4.268914471644854e-27 1 6.349911661580462e-11
    outer loop
      vertex 0.357406744358038 -0.862856209139393 -0.357406744318472
      vertex -0.35740674398855 -0.862856209184783 0.357406744292646
      vertex 0.357406744358038 -0.862856209184783 0.357406744292646
    endloop
  endfacet
  facet normal 4.48914278739804e-11 1 1.0839054447317212e-10
    outer loop
      vertex -0.35740674398855 -0.862856209184783 0.357406744292646
      vertex 0.357406744358038 -0.862856209139393 -0.357406744318472
      vertex -0.357406743956457 -0.862856209107304 -0.357406744053941
    endloop
  endfacet
  facet normal 1.0829193233809574e-15 0.7071067808460406 -0.7071067815270544
    outer loop
      vertex 0.357406744358038 -0.862856209184783 0.357406744292646
      vertex -0.357406743956456 -0.357406743938328 0.862856209052302
      vertex 0.357406744196434 -0.357406744120679 0.862856208869952
    endloop
  endfacet
  facet normal 5.108514596104956e-18 0.7071067808460397 -0.7071067815270552
    outer loop
      vertex -0.357406743956456 -0.357406743938328 0.862856209052302
      vertex 0.357406744358038 -0.862856209184783 0.357406744292646
      vertex -0.35740674398855 -0.862856209184783 0.357406744292646
    endloop
  endfacet
  facet normal 0.5773502690439 0.5773502689661355 -0.5773502695588418
    outer loop
      vertex -0.862856208957565 -0.357406744147688 0.357406744292646
      vertex -0.357406743956456 -0.357406743938328 0.862856209052302
      vertex -0.35740674398855 -0.862856209184783 0.357406744292646
    endloop
  endfacet
  facet normal 1 3.88662207563075e-10 6.317424118421442e-10
    outer loop
      vertex -0.862856208957565 -0.357406744147688 0.357406744292646
      vertex -0.862856208783808 0.357406744166809 -0.357406744053941
      vertex -0.862856209235386 0.357406744353854 0.357406744292646
    endloop
  endfacet
  facet normal 1 -1.5328756369851506e-10 8.979264060488374e-11
    outer loop
      vertex -0.862856208783808 0.357406744166809 -0.357406744053941
      vertex -0.862856208957565 -0.357406744147688 0.357406744292646
      vertex -0.86285620889338 -0.357406744102302 -0.35740674394437
    endloop
  endfacet
  facet normal 0.7071067811840943 5.102062823251193e-10 -0.7071067811890006
    outer loop
      vertex -0.357406743956456 -0.357406743938328 0.862856209052302
      vertex -0.862856209235386 0.357406744353854 0.357406744292646
      vertex -0.357406744408038 0.357406744272866 0.862856209116487
    endloop
  endfacet
  facet normal 0.7071067810176552 2.748256824931418e-10 -0.7071067813554399
    outer loop
      vertex -0.862856209235386 0.357406744353854 0.357406744292646
      vertex -0.357406743956456 -0.357406743938328 0.862856209052302
      vertex -0.862856208957565 -0.357406744147688 0.357406744292646
    endloop
  endfacet
  facet normal 0.7071067814772499 -0.7071067808958452 1.2185747850632065e-9
    outer loop
      vertex -0.862856209235386 0.357406744353854 0.357406744292646
      vertex -0.357406743846885 0.862856208926095 -0.357406744318472
      vertex -0.357406744659274 0.862856209345562 0.357406744292646
    endloop
  endfacet
  facet normal 0.7071067810622935 -0.7071067813108016 6.317377067741086e-10
    outer loop
      vertex -0.357406743846885 0.862856208926095 -0.357406744318472
      vertex -0.862856209235386 0.357406744353854 0.357406744292646
      vertex -0.862856208783808 0.357406744166809 -0.357406744053941
    endloop
  endfacet
  facet normal 0.5773502693156926 -0.5773502688409775 -0.5773502694122071
    outer loop
      vertex -0.357406744659274 0.862856209345562 0.357406744292646
      vertex -0.357406744408038 0.357406744272866 0.862856209116487
      vertex -0.862856209235386 0.357406744353854 0.357406744292646
    endloop
  endfacet
  facet normal 2.476087632860077e-26 -1 5.868200759187613e-10
    outer loop
      vertex -0.357406743846885 0.862856208926095 -0.357406744318472
      vertex 0.357406743532359 0.862856209345562 0.357406744292646
      vertex -0.357406744659274 0.862856209345562 0.357406744292646
    endloop
  endfacet
  facet normal -1.346898148808609e-10 -1 7.215098905675044e-10
    outer loop
      vertex 0.357406743532359 0.862856209345562 0.357406744292646
      vertex -0.357406743846885 0.862856208926095 -0.357406744318472
      vertex 0.357406744467612 0.862856208829817 -0.357406744583003
    endloop
  endfacet
  facet normal 2.5922477351854804e-11 -0.7071067810124777 -0.7071067813606173
    outer loop
      vertex -0.357406744659274 0.862856209345562 0.357406744292646
      vertex 0.357406743693208 0.357406744299071 0.862856209116487
      vertex -0.357406744408038 0.357406744272866 0.862856209116487
    endloop
  endfacet
  facet normal 2.3103804903831595e-17 -0.7071067810308077 -0.7071067813422873
    outer loop
      vertex 0.357406743693208 0.357406744299071 0.862856209116487
      vertex -0.357406744659274 0.862856209345562 0.357406744292646
      vertex 0.357406743532359 0.862856209345562 0.357406744292646
    endloop
  endfacet
  facet normal -0.7071067812341726 -0.7071067811389226 -4.1498505248036435e-10
    outer loop
      vertex 0.862856209294963 0.35740674393438 -0.35740674469257
      vertex 0.357406743532359 0.862856209345562 0.357406744292646
      vertex 0.357406744467612 0.862856208829817 -0.357406744583003
    endloop
  endfacet
  facet normal -0.7071067811706643 -0.7071067812024306 -3.2517090961134893e-10
    outer loop
      vertex 0.357406743532359 0.862856209345562 0.357406744292646
      vertex 0.862856209294963 0.35740674393438 -0.35740674469257
      vertex 0.862856208546767 0.357406744353861 0.357406744292646
    endloop
  endfacet
  facet normal -0.5773502691488036 -0.5773502691747407 -0.5773502692453331
    outer loop
      vertex 0.862856208546767 0.357406744353861 0.357406744292646
      vertex 0.357406743693208 0.357406744299071 0.862856209116487
      vertex 0.357406743532359 0.862856209345562 0.357406744292646
    endloop
  endfacet
  facet normal -1 6.35005143339114e-11 -1.0467009383511703e-9
    outer loop
      vertex 0.862856209249572 -0.357406744334729 -0.357406744583003
      vertex 0.862856208546767 0.357406744353861 0.357406744292646
      vertex 0.862856209294963 0.35740674393438 -0.35740674469257
    endloop
  endfacet
  facet normal -1 -4.784408696628213e-10 -5.047595544962578e-10
    outer loop
      vertex 0.862856208546767 0.357406744353861 0.357406744292646
      vertex 0.862856209249572 -0.357406744334729 -0.357406744583003
      vertex 0.862856208888763 -0.35740674414769 0.357406744292646
    endloop
  endfacet
  facet normal -0.7071067811657602 -3.383087833254246e-10 -0.7071067812073346
    outer loop
      vertex 0.862856208888763 -0.35740674414769 0.357406744292646
      vertex 0.357406743693208 0.357406744299071 0.862856209116487
      vertex 0.862856208546767 0.357406744353861 0.357406744292646
    endloop
  endfacet
  facet normal -0.7071067811060908 -2.5392345228712565e-10 -0.7071067812670042
    outer loop
      vertex 0.357406743693208 0.357406744299071 0.862856209116487
      vertex 0.862856208888763 -0.35740674414769 0.357406744292646
      vertex 0.357406744196434 -0.357406744120679 0.862856208869952
    endloop
  endfacet
  facet normal -0.7071067811257833 0.7071067812473116 -5.419414446560036e-10
    outer loop
      vertex 0.357406744358038 -0.862856209139393 -0.357406744318472
      vertex 0.862856208888763 -0.35740674414769 0.357406744292646
      vertex 0.862856209249572 -0.357406744334729 -0.357406744583003
    endloop
  endfacet
  facet normal -0.7071067815407434 0.7071067808323517 4.490070640530499e-11
    outer loop
      vertex 0.862856208888763 -0.35740674414769 0.357406744292646
      vertex 0.357406744358038 -0.862856209139393 -0.357406744318472
      vertex 0.357406744358038 -0.862856209184783 0.357406744292646
    endloop
  endfacet
  facet normal -0.5773502693283461 0.5773502687499467 -0.5773502694905845
    outer loop
      vertex 0.357406744358038 -0.862856209184783 0.357406744292646
      vertex 0.357406744196434 -0.357406744120679 0.862856208869952
      vertex 0.862856208888763 -0.35740674414769 0.357406744292646
    endloop
  endfacet
  facet normal 0.5000000000928985 0.4999999998722633 0.707106781211182
    outer loop
      vertex -0.505449464889984 -1.48165566787104e-12 -0.86285620863125
      vertex -0.357406743956457 -0.862856209107304 -0.357406744053941
      vertex 3.89159995895781e-11 -0.50544946474058 -0.862856208923173
    endloop
  endfacet
  facet normal 0.500000000092895 0.49999999987226385 0.707106781211184
    outer loop
      vertex -0.357406743956457 -0.862856209107304 -0.357406744053941
      vertex -0.505449464889984 -1.48165566787104e-12 -0.86285620863125
      vertex -0.86285620889338 -0.357406744102302 -0.35740674394437
    endloop
  endfacet
  facet normal 2.5031369589674837e-10 0.8164965806839325 0.5773502695344019
    outer loop
      vertex 0.357406744358038 -0.862856209139393 -0.357406744318472
      vertex 3.89159995895781e-11 -0.50544946474058 -0.862856208923173
      vertex -0.357406743956457 -0.862856209107304 -0.357406744053941
    endloop
  endfacet
  facet normal 0.8164965809580749 -3.665893931487659e-11 0.577350269146706
    outer loop
      vertex -0.505449464889984 -1.48165566787104e-12 -0.86285620863125
      vertex -0.862856208783808 0.357406744166809 -0.357406744053941
      vertex -0.86285620889338 -0.357406744102302 -0.35740674394437
    endloop
  endfacet
  facet normal 0.500000000142144 -0.4999999998284587 0.7071067812073347
    outer loop
      vertex -0.357406743846885 0.862856208926095 -0.357406744318472
      vertex -0.505449464889984 -1.48165566787104e-12 -0.86285620863125
      vertex 1.0310192625957e-10 0.505449464585956 -0.862856209142313
    endloop
  endfacet
  facet normal 0.5000000000402833 -0.4999999998459352 0.707106781267003
    outer loop
      vertex -0.505449464889984 -1.48165566787104e-12 -0.86285620863125
      vertex -0.357406743846885 0.862856208926095 -0.357406744318472
      vertex -0.862856208783808 0.357406744166809 -0.357406744053941
    endloop
  endfacet
  facet normal 1.0368624733683079e-10 -0.8164965807286114 0.5773502694712164
    outer loop
      vertex 1.0310192625957e-10 0.505449464585956 -0.862856209142313
      vertex 0.357406744467612 0.862856208829817 -0.357406744583003
      vertex -0.357406743846885 0.862856208926095 -0.357406744318472
    endloop
  endfacet
  facet normal -0.4999999996872389 -0.4999999997731676 0.7071067815680978
    outer loop
      vertex 0.357406744467612 0.862856208829817 -0.357406744583003
      vertex 0.50544946484801 -2.64089766591707e-10 -0.862856209251887
      vertex 0.862856209294963 0.35740674393438 -0.35740674469257
    endloop
  endfacet
  facet normal -0.49999999971851516 -0.4999999997678014 0.7071067815497766
    outer loop
      vertex 0.50544946484801 -2.64089766591707e-10 -0.862856209251887
      vertex 0.357406744467612 0.862856208829817 -0.357406744583003
      vertex 1.0310192625957e-10 0.505449464585956 -0.862856209142313
    endloop
  endfacet
  facet normal -0.8164965805861799 1.4034451881620495e-10 0.5773502696726449
    outer loop
      vertex 0.50544946484801 -2.64089766591707e-10 -0.862856209251887
      vertex 0.862856209249572 -0.357406744334729 -0.357406744583003
      vertex 0.862856209294963 0.35740674393438 -0.35740674469257
    endloop
  endfacet
  facet normal -0.4999999996169772 0.5000000000729804 0.7071067814057805
    outer loop
      vertex 0.50544946484801 -2.64089766591707e-10 -0.862856209251887
      vertex 0.357406744358038 -0.862856209139393 -0.357406744318472
      vertex 0.862856209249572 -0.357406744334729 -0.357406744583003
    endloop
  endfacet
  facet normal -0.4999999993328512 0.5000000001217288 0.7071067815722177
    outer loop
      vertex 0.357406744358038 -0.862856209139393 -0.357406744318472
      vertex 0.50544946484801 -2.64089766591707e-10 -0.862856209251887
      vertex 3.89159995895781e-11 -0.50544946474058 -0.862856208923173
    endloop
  endfacet
  facet normal -2.551015431700928e-10 3.4489418357491123e-10 -1
    outer loop
      vertex -0.357406743956456 -0.357406743938328 0.862856209052302
      vertex 0.357406743693208 0.357406744299071 0.862856209116487
      vertex 0.357406744196434 -0.357406744120679 0.862856208869952
    endloop
  endfacet
  facet normal -3.2917881751074214e-21 8.979264061786019e-11 -1
    outer loop
      vertex 0.357406743693208 0.357406744299071 0.862856209116487
      vertex -0.357406743956456 -0.357406743938328 0.862856209052302
      vertex -0.357406744408038 0.357406744272866 0.862856209116487
    endloop
  endfacet
  facet normal 4.3356259339777445e-10 2.1677728805575814e-10 1
    outer loop
      vertex 1.0310192625957e-10 0.505449464585956 -0.862856209142313
      vertex 3.89159995895781e-11 -0.50544946474058 -0.862856208923173
      vertex 0.50544946484801 -2.64089766591707e-10 -0.862856209251887
    endloop
  endfacet
  facet normal 7.943286784484692e-10 2.1677728803285164e-10 1
    outer loop
      vertex 3.89159995895781e-11 -0.50544946474058 -0.862856208923173
      vertex 1.0310192625957e-10 0.505449464585956 -0.862856209142313
      vertex -0.505449464889984 -1.48165566787104e-12 -0.86285620863125
    endloop
  endfacet
endsolid OpenSCAD_Model
