solid OpenSCAD_Model
  facet normal 0.3568220891835705 0.491123472302828 0.7946544731038045
    outer loop
      vertex -0.295241808415395 -0.406365487116866 -0.605677416908426
      vertex -0.772953089850545 -0.561583292071783 -0.29524180853967
      vertex -0.295241808441906 -0.908660854175527 -0.29524180853967
    endloop
  endfacet
  facet normal -2.801946678631362e-16 0.5257311110589976 0.85065080900724
    outer loop
      vertex -0.295241808415395 -0.406365487116866 -0.605677416908426
      vertex 0.295241808865339 -0.908660854175527 -0.29524180853967
      vertex 0.295241808694451 -0.406365487239681 -0.605677416832522
    endloop
  endfacet
  facet normal 0 0.5257311110589978 0.8506508090072399
    outer loop
      vertex 0.295241808865339 -0.908660854175527 -0.29524180853967
      vertex -0.295241808415395 -0.406365487116866 -0.605677416908426
      vertex -0.295241808441906 -0.908660854175527 -0.29524180853967
    endloop
  endfacet
  facet normal -2.5296775070272554e-20 1 -1.3817818655368824e-10
    outer loop
      vertex 0.295241808865339 -0.908660854175527 -0.29524180853967
      vertex -0.295241808415395 -0.908660854093935 0.295241808767574
      vertex 0.295241808836768 -0.908660854093935 0.295241808659472
    endloop
  endfacet
  facet normal 5.3861868941813106e-27 1 -1.3817818652839148e-10
    outer loop
      vertex -0.295241808415395 -0.908660854093935 0.295241808767574
      vertex 0.295241808865339 -0.908660854175527 -0.29524180853967
      vertex -0.295241808441906 -0.908660854175527 -0.29524180853967
    endloop
  endfacet
  facet normal 0.5877852523505873 0.8090169943327251 -1.3817836792916963e-10
    outer loop
      vertex -0.295241808441906 -0.908660854175527 -0.29524180853967
      vertex -0.772953089802587 -0.561583292005775 0.295241808794087
      vertex -0.295241808415395 -0.908660854093935 0.295241808767574
    endloop
  endfacet
  facet normal 0.5877852523505891 0.8090169943327237 -1.381759806891852e-10
    outer loop
      vertex -0.772953089802587 -0.561583292005775 0.295241808794087
      vertex -0.295241808441906 -0.908660854175527 -0.29524180853967
      vertex -0.772953089850545 -0.561583292071783 -0.29524180853967
    endloop
  endfacet
  facet normal 0.49999999908424153 0.1624598484389882 0.8506508088287105
    outer loop
      vertex -0.477711281014472 0.155217804296865 -0.605677417233474
      vertex -0.772953089850545 -0.561583292071783 -0.29524180853967
      vertex -0.295241808415395 -0.406365487116866 -0.605677416908426
    endloop
  endfacet
  facet normal 0.49999999946627577 0.16245984820383208 0.8506508086490672
    outer loop
      vertex -0.772953089850545 -0.561583292071783 -0.29524180853967
      vertex -0.477711281014472 0.155217804296865 -0.605677417233474
      vertex -0.955422562845015 9.88335082055427e-11 -0.29524180853967
    endloop
  endfacet
  facet normal 0.9510565163253276 0.3090169942820812 -6.812174584239569e-10
    outer loop
      vertex -0.772953089802587 -0.561583292005775 0.295241808794087
      vertex -0.955422562845015 9.88335082055427e-11 -0.29524180853967
      vertex -0.955422562390218 8.1329829052664e-13 0.295241808728883
    endloop
  endfacet
  facet normal 0.951056516149364 0.3090169948236418 -1.1178696459653815e-10
    outer loop
      vertex -0.955422562845015 9.88335082055427e-11 -0.29524180853967
      vertex -0.772953089802587 -0.561583292005775 0.295241808794087
      vertex -0.772953089850545 -0.561583292071783 -0.29524180853967
    endloop
  endfacet
  facet normal 0.5773502684747958 -0.18759247333284515 0.7946544729886991
    outer loop
      vertex -0.477711281014472 0.155217804296865 -0.605677417233474
      vertex -0.77295309065456 0.561583292253062 -0.29524180853967
      vertex -0.955422562845015 9.88335082055427e-11 -0.29524180853967
    endloop
  endfacet
  facet normal 0.9510565165468841 -0.30901699360020046 -1.649681127397683e-9
    outer loop
      vertex -0.772953089726112 0.561583291958246 0.295241808596869
      vertex -0.955422562845015 9.88335082055427e-11 -0.29524180853967
      vertex -0.77295309065456 0.561583292253062 -0.29524180853967
    endloop
  endfacet
  facet normal 0.9510565162793155 -0.30901699442369185 -7.83810975443189e-10
    outer loop
      vertex -0.955422562845015 9.88335082055427e-11 -0.29524180853967
      vertex -0.772953089726112 0.561583291958246 0.295241808596869
      vertex -0.955422562390218 8.1329829052664e-13 0.295241808728883
    endloop
  endfacet
  facet normal 0.30901699367191515 -0.42532540333200713 0.8506508090294377
    outer loop
      vertex -0.295241809742829 0.90866085431391 -0.29524180853967
      vertex -0.477711281014472 0.155217804296865 -0.605677417233474
      vertex 2.72124750247572e-10 0.502295366158625 -0.605677417233474
    endloop
  endfacet
  facet normal 0.3090169941164326 -0.4253254033661031 0.8506508088509094
    outer loop
      vertex -0.477711281014472 0.155217804296865 -0.605677417233474
      vertex -0.295241809742829 0.90866085431391 -0.29524180853967
      vertex -0.77295309065456 0.561583292253062 -0.29524180853967
    endloop
  endfacet
  facet normal 0.5877852522425308 -0.8090169944112326 -1.328130389267176e-9
    outer loop
      vertex -0.77295309065456 0.561583292253062 -0.29524180853967
      vertex -0.29524180845484 0.908660853864699 0.295241808448468
      vertex -0.772953089726112 0.561583291958246 0.295241808596869
    endloop
  endfacet
  facet normal 0.587785252703212 -0.8090169940765283 -1.8975636884040856e-9
    outer loop
      vertex -0.29524180845484 0.908660853864699 0.295241808448468
      vertex -0.77295309065456 0.561583292253062 -0.29524180853967
      vertex -0.295241809742829 0.90866085431391 -0.29524180853967
    endloop
  endfacet
  facet normal 6.166810931545501e-15 -0.6070619975312783 0.7946544728077318
    outer loop
      vertex 2.72124750247572e-10 0.502295366158625 -0.605677417233474
      vertex 0.295241807401231 0.908660854313916 -0.29524180853967
      vertex -0.295241809742829 0.90866085431391 -0.29524180853967
    endloop
  endfacet
  facet normal -8.979913468032292e-11 -1 -7.607509991643505e-10
    outer loop
      vertex -0.295241809742829 0.90866085431391 -0.29524180853967
      vertex 0.29524180879732 0.908660853811674 0.295241808340366
      vertex -0.29524180845484 0.908660853864699 0.295241808448468
    endloop
  endfacet
  facet normal 1.015304092930733e-14 -1 -8.505602871380967e-10
    outer loop
      vertex 0.29524180879732 0.908660853811674 0.295241808340366
      vertex -0.295241809742829 0.90866085431391 -0.29524180853967
      vertex 0.295241807401231 0.908660854313916 -0.29524180853967
    endloop
  endfacet
  facet normal -0.3090169944465801 -0.42532540429066834 0.8506508082686937
    outer loop
      vertex 0.295241807401231 0.908660854313916 -0.29524180853967
      vertex 0.477711281475239 0.155217804181963 -0.605677417233475
      vertex 0.772953088841034 0.561583292253062 -0.29524180853967
    endloop
  endfacet
  facet normal -0.3090169945293376 -0.4253254042970161 0.8506508082354562
    outer loop
      vertex 0.477711281475239 0.155217804181963 -0.605677417233475
      vertex 0.295241807401231 0.908660854313916 -0.29524180853967
      vertex 2.72124750247572e-10 0.502295366158625 -0.605677417233474
    endloop
  endfacet
  facet normal -0.5877852523505832 -0.809016994332728 7.015914573208364e-10
    outer loop
      vertex 0.295241807401231 0.908660854313916 -0.29524180853967
      vertex 0.772953090052493 0.561583291819435 0.295241808313853
      vertex 0.29524180879732 0.908660853811674 0.295241808340366
    endloop
  endfacet
  facet normal -0.5877852522779518 -0.8090169943854979 6.118139752373842e-10
    outer loop
      vertex 0.772953090052493 0.561583291819435 0.295241808313853
      vertex 0.295241807401231 0.908660854313916 -0.29524180853967
      vertex 0.772953088841034 0.561583292253062 -0.29524180853967
    endloop
  endfacet
  facet normal -0.5773502697608243 -0.18759247462913242 0.7946544717483326
    outer loop
      vertex 0.477711281475239 0.155217804181963 -0.605677417233475
      vertex 0.955422561885931 9.88335082055427e-11 -0.29524180853967
      vertex 0.772953088841034 0.561583292253062 -0.29524180853967
    endloop
  endfacet
  facet normal -0.9510565161216155 -0.3090169949090429 1.7242949280601263e-9
    outer loop
      vertex 0.955422561885931 9.88335082055427e-11 -0.29524180853967
      vertex 0.772953090052493 0.561583291819435 0.295241808313853
      vertex 0.772953088841034 0.561583292253062 -0.29524180853967
    endloop
  endfacet
  facet normal -0.9510565162975818 -0.30901699436747415 1.1548558363632355e-9
    outer loop
      vertex 0.772953090052493 0.561583291819435 0.295241808313853
      vertex 0.955422561885931 9.88335082055427e-11 -0.29524180853967
      vertex 0.955422562690547 -1.70769433885425e-10 0.295241808379057
    endloop
  endfacet
  facet normal -0.5000000006880938 0.1624598478400774 0.8506508080003715
    outer loop
      vertex 0.477711281475239 0.155217804181963 -0.605677417233475
      vertex 0.772953089745908 -0.56158329207178 -0.29524180853967
      vertex 0.955422561885931 9.88335082055427e-11 -0.29524180853967
    endloop
  endfacet
  facet normal -0.4999999992052973 0.16245984875279318 0.8506508086976244
    outer loop
      vertex 0.772953089745908 -0.56158329207178 -0.29524180853967
      vertex 0.477711281475239 0.155217804181963 -0.605677417233475
      vertex 0.295241808694451 -0.406365487239681 -0.605677416832522
    endloop
  endfacet
  facet normal -0.9510565165746347 0.309016993514793 1.4370376672129613e-9
    outer loop
      vertex 0.772953089745908 -0.56158329207178 -0.29524180853967
      vertex 0.955422562690547 -1.70769433885425e-10 0.295241808379057
      vertex 0.955422561885931 9.88335082055427e-11 -0.29524180853967
    endloop
  endfacet
  facet normal -0.9510565163070646 0.3090169943382893 5.711624484903684e-10
    outer loop
      vertex 0.955422562690547 -1.70769433885425e-10 0.295241808379057
      vertex 0.772953089745908 -0.56158329207178 -0.29524180853967
      vertex 0.772953090076869 -0.56158329214459 0.295241808511071
    endloop
  endfacet
  facet normal -0.3568220894807344 0.4911234721689387 0.794654473053118
    outer loop
      vertex 0.295241808694451 -0.406365487239681 -0.605677416832522
      vertex 0.295241808865339 -0.908660854175527 -0.29524180853967
      vertex 0.772953089745908 -0.56158329207178 -0.29524180853967
    endloop
  endfacet
  facet normal -0.5877852523151761 0.8090169943584528 4.2920490099908197e-10
    outer loop
      vertex 0.772953089745908 -0.56158329207178 -0.29524180853967
      vertex 0.295241808836768 -0.908660854093935 0.295241808659472
      vertex 0.772953090076869 -0.56158329214459 0.295241808511071
    endloop
  endfacet
  facet normal -0.5877852527758577 0.8090169940237478 -1.4022897297536926e-10
    outer loop
      vertex 0.295241808836768 -0.908660854093935 0.295241808659472
      vertex 0.772953089745908 -0.56158329207178 -0.29524180853967
      vertex 0.295241808865339 -0.908660854175527 -0.29524180853967
    endloop
  endfacet
  facet normal 4.196621278653062e-10 5.776124864785084e-10 1
    outer loop
      vertex 2.72124750247572e-10 0.502295366158625 -0.605677417233474
      vertex 0.295241808694451 -0.406365487239681 -0.605677416832522
      vertex 0.477711281475239 0.155217804181963 -0.605677417233475
    endloop
  endfacet
  facet normal -1.2854558291885108e-10 3.9948900364367505e-10 1
    outer loop
      vertex 2.72124750247572e-10 0.502295366158625 -0.605677417233474
      vertex -0.295241808415395 -0.406365487116866 -0.605677416908426
      vertex 0.295241808694451 -0.406365487239681 -0.605677416832522
    endloop
  endfacet
  facet normal -3.402138503585276e-10 4.682641928634718e-10 1
    outer loop
      vertex -0.295241808415395 -0.406365487116866 -0.605677416908426
      vertex 2.72124750247572e-10 0.502295366158625 -0.605677417233474
      vertex -0.477711281014472 0.155217804296865 -0.605677417233474
    endloop
  endfacet
  facet normal -1.5573172066295078e-10 0.525731111728916 -0.8506508085932077
    outer loop
      vertex -0.295241808415395 -0.908660854093935 0.295241808767574
      vertex 0.295241808833632 -0.406365487605992 0.605677417222177
      vertex 0.295241808836768 -0.908660854093935 0.295241808659472
    endloop
  endfacet
  facet normal 5.095301023489006e-10 0.5257311111630105 -0.8506508089429565
    outer loop
      vertex 0.295241808833632 -0.406365487605992 0.605677417222177
      vertex -0.295241808415395 -0.908660854093935 0.295241808767574
      vertex -0.295241807840543 -0.406365487384726 0.605677417005234
    endloop
  endfacet
  facet normal 0.3568220890279727 0.4911234721493714 -0.7946544732685138
    outer loop
      vertex -0.772953089802587 -0.561583292005775 0.295241808794087
      vertex -0.295241807840543 -0.406365487384726 0.605677417005234
      vertex -0.295241808415395 -0.908660854093935 0.295241808767574
    endloop
  endfacet
  facet normal -0.3568220897747466 0.4911234728219477 -0.7946544725175164
    outer loop
      vertex 0.295241808833632 -0.406365487605992 0.605677417222177
      vertex 0.772953090076869 -0.56158329214459 0.295241808511071
      vertex 0.295241808836768 -0.908660854093935 0.295241808659472
    endloop
  endfacet
  facet normal -0.4999999999416862 0.16245984787623247 -0.850650808432194
    outer loop
      vertex 0.772953090076869 -0.56158329214459 0.295241808511071
      vertex 0.477711281406164 0.15521780429941 0.605677417090163
      vertex 0.955422562690547 -1.70769433885425e-10 0.295241808379057
    endloop
  endfacet
  facet normal -0.4999999999595938 0.16245984786520964 -0.8506508084237733
    outer loop
      vertex 0.477711281406164 0.15521780429941 0.605677417090163
      vertex 0.772953090076869 -0.56158329214459 0.295241808511071
      vertex 0.295241808833632 -0.406365487605992 0.605677417222177
    endloop
  endfacet
  facet normal -0.5773502691101164 -0.18759247414649538 -0.7946544723350347
    outer loop
      vertex 0.477711281406164 0.15521780429941 0.605677417090163
      vertex 0.772953090052493 0.561583291819435 0.295241808313853
      vertex 0.955422562690547 -1.70769433885425e-10 0.295241808379057
    endloop
  endfacet
  facet normal -0.3090169944384925 -0.42532540413425673 -0.8506508083498375
    outer loop
      vertex 0.477711281406164 0.15521780429941 0.605677417090163
      vertex 0.29524180879732 0.908660853811674 0.295241808340366
      vertex 0.772953090052493 0.561583291819435 0.295241808313853
    endloop
  endfacet
  facet normal -0.3090169944175226 -0.42532540413264824 -0.8506508083582596
    outer loop
      vertex 0.29524180879732 0.908660853811674 0.295241808340366
      vertex 0.477711281406164 0.15521780429941 0.605677417090163
      vertex 2.03342830214597e-10 0.502295366231373 0.605677417116676
    endloop
  endfacet
  facet normal -1.9999392677867945e-10 -0.6070619980838199 -0.7946544723856277
    outer loop
      vertex 2.03342830214597e-10 0.502295366231373 0.605677417116676
      vertex -0.29524180845484 0.908660853864699 0.295241808448468
      vertex 0.29524180879732 0.908660853811674 0.295241808340366
    endloop
  endfacet
  facet normal 0.30901699472906585 -0.4253254036670635 -0.8506508084778771
    outer loop
      vertex -0.477711280483976 0.155217804396173 0.605677416864126
      vertex -0.29524180845484 0.908660853864699 0.295241808448468
      vertex 2.03342830214597e-10 0.502295366231373 0.605677417116676
    endloop
  endfacet
  facet normal 0.309016993640113 -0.42532540358353743 -0.8506508089152255
    outer loop
      vertex -0.29524180845484 0.908660853864699 0.295241808448468
      vertex -0.477711280483976 0.155217804396173 0.605677416864126
      vertex -0.772953089726112 0.561583291958246 0.295241808596869
    endloop
  endfacet
  facet normal 0.5773502678984705 -0.18759247388507624 -0.7946544732770597
    outer loop
      vertex -0.477711280483976 0.155217804396173 0.605677416864126
      vertex -0.955422562390218 8.1329829052664e-13 0.295241808728883
      vertex -0.772953089726112 0.561583291958246 0.295241808596869
    endloop
  endfacet
  facet normal 0.4999999988410492 0.16245984758714085 -0.8506508091343438
    outer loop
      vertex -0.772953089802587 -0.561583292005775 0.295241808794087
      vertex -0.477711280483976 0.155217804396173 0.605677416864126
      vertex -0.295241807840543 -0.406365487384726 0.605677417005234
    endloop
  endfacet
  facet normal 0.49999999884104657 0.16245984758714244 -0.850650809134345
    outer loop
      vertex -0.477711280483976 0.155217804396173 0.605677416864126
      vertex -0.772953089802587 -0.561583292005775 0.295241808794087
      vertex -0.955422562390218 8.1329829052664e-13 0.295241808728883
    endloop
  endfacet
  facet normal -1.8307399369360218e-10 -1.7559042923024246e-10 -1
    outer loop
      vertex 0.295241808833632 -0.406365487605992 0.605677417222177
      vertex 2.03342830214597e-10 0.502295366231373 0.605677417116676
      vertex 0.477711281406164 0.15521780429941 0.605677417090163
    endloop
  endfacet
  facet normal 3.67398879459525e-10 3.2690495128902215e-12 -1
    outer loop
      vertex -0.295241807840543 -0.406365487384726 0.605677417005234
      vertex 2.03342830214597e-10 0.502295366231373 0.605677417116676
      vertex 0.295241808833632 -0.406365487605992 0.605677417222177
    endloop
  endfacet
  facet normal 5.753919671298607e-10 -6.431200123892836e-11 -1
    outer loop
      vertex 2.03342830214597e-10 0.502295366231373 0.605677417116676
      vertex -0.295241807840543 -0.406365487384726 0.605677417005234
      vertex -0.477711280483976 0.155217804396173 0.605677416864126
    endloop
  endfacet
endsolid OpenSCAD_Model
