solid OpenSCAD_Model
  facet normal 0.3568220891835701 0.4911234723028283 0.7946544731038047
    outer loop
      vertex -0.295241808113479 -0.406365487335554 -0.605677417035585
      vertex -0.772953089648922 -0.561583292323058 -0.295241808601655
      vertex -0.295241808139989 -0.908660854499669 -0.295241808601655
    endloop
  endfacet
  facet normal 3.8014078891781404e-16 0.5257311110589978 0.8506508090072398
    outer loop
      vertex -0.295241808113479 -0.406365487335554 -0.605677417035585
      vertex 0.295241809291224 -0.908660854499669 -0.295241808601655
      vertex 0.295241809120336 -0.406365487458368 -0.605677416959682
    endloop
  endfacet
  facet normal 0 0.5257311110589975 0.85065080900724
    outer loop
      vertex 0.295241809291224 -0.908660854499669 -0.295241808601655
      vertex -0.295241808113479 -0.406365487335554 -0.605677417035585
      vertex -0.295241808139989 -0.908660854499669 -0.295241808601655
    endloop
  endfacet
  facet normal -2.529681900499957e-20 1 -1.381783745439549e-10
    outer loop
      vertex 0.295241809291224 -0.908660854499669 -0.295241808601655
      vertex -0.295241808113479 -0.908660854418077 0.295241808829558
      vertex 0.295241809262653 -0.908660854418077 0.295241808721456
    endloop
  endfacet
  facet normal -4.1377929098162195e-27 1 -1.3817837451865808e-10
    outer loop
      vertex -0.295241808113479 -0.908660854418077 0.295241808829558
      vertex 0.295241809291224 -0.908660854499669 -0.295241808601655
      vertex -0.295241808139989 -0.908660854499669 -0.295241808601655
    endloop
  endfacet
  facet normal 0.5877852523505881 0.8090169943327244 -1.381775253763293e-10
    outer loop
      vertex -0.295241808139989 -0.908660854499669 -0.295241808601655
      vertex -0.772953089600964 -0.561583292257049 0.295241808856071
      vertex -0.295241808113479 -0.908660854418077 0.295241808829558
    endloop
  endfacet
  facet normal 0.5877852523505883 0.8090169943327242 -1.381773496572845e-10
    outer loop
      vertex -0.772953089600964 -0.561583292257049 0.295241808856071
      vertex -0.295241808139989 -0.908660854499669 -0.295241808601655
      vertex -0.772953089648922 -0.561583292323058 -0.295241808601655
    endloop
  endfacet
  facet normal 0.4999999990842408 0.16245984843898886 0.8506508088287107
    outer loop
      vertex -0.477711280750864 0.155217804196079 -0.605677417360634
      vertex -0.772953089648922 -0.561583292323058 -0.295241808601655
      vertex -0.295241808113479 -0.406365487335554 -0.605677417035585
    endloop
  endfacet
  facet normal 0.49999999946627666 0.16245984820383183 0.8506508086490667
    outer loop
      vertex -0.772953089648922 -0.561583292323058 -0.295241808601655
      vertex -0.477711280750864 0.155217804196079 -0.605677417360634
      vertex -0.9554225626817 -3.4539675739688e-11 -0.295241808601655
    endloop
  endfacet
  facet normal 0.951056516135144 0.30901699486740597 -6.577007703387459e-11
    outer loop
      vertex -0.772953089600964 -0.561583292257049 0.295241808856071
      vertex -0.9554225626817 -3.4539675739688e-11 -0.295241808601655
      vertex -0.955422562654119 6.25097683496512e-12 0.295241808790867
    endloop
  endfacet
  facet normal 0.9510565161493643 0.3090169948236409 -1.1178748540676166e-10
    outer loop
      vertex -0.9554225626817 -3.4539675739688e-11 -0.295241808601655
      vertex -0.772953089600964 -0.561583292257049 0.295241808856071
      vertex -0.772953089648922 -0.561583292323058 -0.295241808601655
    endloop
  endfacet
  facet normal 0.5773502684747965 -0.18759247333284562 0.7946544729886984
    outer loop
      vertex -0.477711280750864 0.155217804196079 -0.605677417360634
      vertex -0.772953090452936 0.561583292237591 -0.295241808601655
      vertex -0.9554225626817 -3.4539675739688e-11 -0.295241808601655
    endloop
  endfacet
  facet normal 0.9510565165698937 -0.3090169935293843 5.138461002836286e-11
    outer loop
      vertex -0.955422562654119 6.25097683496512e-12 0.295241808790867
      vertex -0.772953090452936 0.561583292237591 -0.295241808601655
      vertex -0.772953090479776 0.561583292253174 0.295241808658853
    endloop
  endfacet
  facet normal 0.951056516546884 -0.3090169936002007 -2.3076211650418985e-11
    outer loop
      vertex -0.772953090452936 0.561583292237591 -0.295241808601655
      vertex -0.955422562654119 6.25097683496512e-12 0.295241808790867
      vertex -0.9554225626817 -3.4539675739688e-11 -0.295241808601655
    endloop
  endfacet
  facet normal 0.309016993671916 -0.42532540333200825 0.8506508090294368
    outer loop
      vertex -0.295241809440912 0.908660854371305 -0.295241808601655
      vertex -0.477711280750864 0.155217804196079 -0.605677417360634
      vertex 6.36025518844092e-10 0.502295366130706 -0.605677417360634
    endloop
  endfacet
  facet normal 0.3090169941164322 -0.42532540336610397 0.850650808850909
    outer loop
      vertex -0.477711280750864 0.155217804196079 -0.605677417360634
      vertex -0.295241809440912 0.908660854371305 -0.295241808601655
      vertex -0.772953090452936 0.561583292237591 -0.295241808601655
    endloop
  endfacet
  facet normal 0.5877852527404389 -0.8090169940494812 4.8067593083849284e-11
    outer loop
      vertex -0.772953090452936 0.561583292237591 -0.295241808601655
      vertex -0.295241809535428 0.908660854371305 0.295241808510452
      vertex -0.772953090479776 0.561583292253174 0.295241808658853
    endloop
  endfacet
  facet normal 0.5877852527032107 -0.809016994076529 9.408409130966478e-11
    outer loop
      vertex -0.295241809535428 0.908660854371305 0.295241808510452
      vertex -0.772953090452936 0.561583292237591 -0.295241808601655
      vertex -0.295241809440912 0.908660854371305 -0.295241808601655
    endloop
  endfacet
  facet normal 6.3033135135822746e-15 -0.6070619975312794 0.7946544728077309
    outer loop
      vertex 6.36025518844092e-10 0.502295366130706 -0.605677417360634
      vertex 0.295241807827116 0.908660854371311 -0.295241808601655
      vertex -0.295241809440912 0.908660854371305 -0.295241808601655
    endloop
  endfacet
  facet normal 1.0341060204615725e-14 -1 1.6552461091109848e-24
    outer loop
      vertex -0.295241809440912 0.908660854371305 -0.295241808601655
      vertex 0.29524180767752 0.908660854371311 0.29524180840235
      vertex -0.295241809535428 0.908660854371305 0.295241808510452
    endloop
  endfacet
  facet normal 1.0341060203651115e-14 -1 2.619854676691305e-24
    outer loop
      vertex 0.29524180767752 0.908660854371311 0.29524180840235
      vertex -0.295241809440912 0.908660854371305 -0.295241808601655
      vertex 0.295241807827116 0.908660854371311 -0.295241808601655
    endloop
  endfacet
  facet normal -0.30901699444657965 -0.42532540429066895 0.8506508082686934
    outer loop
      vertex 0.295241807827116 0.908660854371311 -0.295241808601655
      vertex 0.477711281939432 0.155217804081177 -0.605677417360635
      vertex 0.772953089367212 0.561583292237591 -0.295241808601655
    endloop
  endfacet
  facet normal -0.3090169945293384 -0.42532540429701676 0.8506508082354557
    outer loop
      vertex 0.477711281939432 0.155217804081177 -0.605677417360635
      vertex 0.295241807827116 0.908660854371311 -0.295241808601655
      vertex 6.36025518844092e-10 0.502295366130706 -0.605677417360634
    endloop
  endfacet
  facet normal -0.5877852522779472 -0.8090169943855012 -1.4891238535937178e-10
    outer loop
      vertex 0.295241807827116 0.908660854371311 -0.295241808601655
      vertex 0.772953089196172 0.561583292253174 0.295241808375837
      vertex 0.29524180767752 0.908660854371311 0.29524180840235
    endloop
  endfacet
  facet normal -0.5877852522779508 -0.8090169943854987 -1.4890807899991326e-10
    outer loop
      vertex 0.772953089196172 0.561583292253174 0.295241808375837
      vertex 0.295241807827116 0.908660854371311 -0.295241808601655
      vertex 0.772953089367212 0.561583292237591 -0.295241808601655
    endloop
  endfacet
  facet normal -0.5773502697608244 -0.18759247462913267 0.7946544717483327
    outer loop
      vertex 0.477711281939432 0.155217804081177 -0.605677417360635
      vertex 0.955422562450418 -3.4539675739688e-11 -0.295241808601655
      vertex 0.772953089367212 0.561583292237591 -0.295241808601655
    endloop
  endfacet
  facet normal -0.9510565161073985 -0.30901699495279844 -2.6732871861163864e-10
    outer loop
      vertex 0.772953089367212 0.561583292237591 -0.295241808601655
      vertex 0.95542256229975 6.25687695153475e-12 0.295241808441041
      vertex 0.772953089196172 0.561583292253174 0.295241808375837
    endloop
  endfacet
  facet normal -0.9510565161216153 -0.3090169949090434 -2.2132195245393248e-10
    outer loop
      vertex 0.95542256229975 6.25687695153475e-12 0.295241808441041
      vertex 0.772953089367212 0.561583292237591 -0.295241808601655
      vertex 0.955422562450418 -3.4539675739688e-11 -0.295241808601655
    endloop
  endfacet
  facet normal -0.5000000006880939 0.16245984784007772 0.8506508080003715
    outer loop
      vertex 0.477711281939432 0.155217804081177 -0.605677417360635
      vertex 0.772953090272086 -0.561583292323055 -0.295241808601655
      vertex 0.955422562450418 -3.4539675739688e-11 -0.295241808601655
    endloop
  endfacet
  facet normal -0.4999999992052981 0.16245984875279296 0.8506508086976239
    outer loop
      vertex 0.772953090272086 -0.561583292323055 -0.295241808601655
      vertex 0.477711281939432 0.155217804081177 -0.605677417360635
      vertex 0.295241809120336 -0.406365487458368 -0.605677416959682
    endloop
  endfacet
  facet normal -0.9510565165746344 0.3090169935147936 -2.6402196999661236e-10
    outer loop
      vertex 0.772953090272086 -0.561583292323055 -0.295241808601655
      vertex 0.95542256229975 6.25687695153475e-12 0.295241808441041
      vertex 0.955422562450418 -3.4539675739688e-11 -0.295241808601655
    endloop
  endfacet
  facet normal -0.9510565165976429 0.30901699344398115 -1.8956533657824582e-10
    outer loop
      vertex 0.95542256229975 6.25687695153475e-12 0.295241808441041
      vertex 0.772953090272086 -0.561583292323055 -0.295241808601655
      vertex 0.772953090175838 -0.561583292257046 0.295241808573055
    endloop
  endfacet
  facet normal -0.35682208948073446 0.4911234721689388 0.7946544730531176
    outer loop
      vertex 0.295241809120336 -0.406365487458368 -0.605677416959682
      vertex 0.295241809291224 -0.908660854499669 -0.295241808601655
      vertex 0.772953090272086 -0.561583292323055 -0.295241808601655
    endloop
  endfacet
  facet normal -0.5877852528130868 0.8090169939966996 -1.862467148024922e-10
    outer loop
      vertex 0.772953090272086 -0.561583292323055 -0.295241808601655
      vertex 0.295241809262653 -0.908660854418077 0.295241808721456
      vertex 0.772953090175838 -0.561583292257046 0.295241808573055
    endloop
  endfacet
  facet normal -0.5877852527758577 0.809016994023748 -1.402291250567188e-10
    outer loop
      vertex 0.295241809262653 -0.908660854418077 0.295241808721456
      vertex 0.772953090272086 -0.561583292323055 -0.295241808601655
      vertex 0.295241809291224 -0.908660854499669 -0.295241808601655
    endloop
  endfacet
  facet normal 4.196620115748976e-10 5.776123264184926e-10 1
    outer loop
      vertex 6.36025518844092e-10 0.502295366130706 -0.605677417360634
      vertex 0.295241809120336 -0.406365487458368 -0.605677416959682
      vertex 0.477711281939432 0.155217804081177 -0.605677417360635
    endloop
  endfacet
  facet normal -1.2854370269909984e-10 3.994894922891339e-10 1
    outer loop
      vertex 6.36025518844092e-10 0.502295366130706 -0.605677417360634
      vertex -0.295241808113479 -0.406365487335554 -0.605677417035585
      vertex 0.295241809120336 -0.406365487458368 -0.605677416959682
    endloop
  endfacet
  facet normal -3.402148961078322e-10 4.682656322139082e-10 1
    outer loop
      vertex -0.295241808113479 -0.406365487335554 -0.605677417035585
      vertex 6.36025518844092e-10 0.502295366130706 -0.605677417360634
      vertex -0.477711280750864 0.155217804196079 -0.605677417360634
    endloop
  endfacet
  facet normal -1.4548022702685853e-10 0.6070619968624789 -0.7946544733186491
    outer loop
      vertex 6.1966259444785e-10 -0.502295366043563 0.605677417095186
      vertex 0.295241809262653 -0.908660854418077 0.295241808721456
      vertex -0.295241808113479 -0.908660854418077 0.295241808829558
    endloop
  endfacet
  facet normal 0.3090169936783875 0.42532540321802403 -0.850650809084078
    outer loop
      vertex -0.295241808113479 -0.908660854418077 0.295241808829558
      vertex -0.477711280780312 -0.155217804097922 0.605677417045798
      vertex 6.1966259444785e-10 -0.502295366043563 0.605677417095186
    endloop
  endfacet
  facet normal 0.30901699367839236 0.4253254032180244 -0.8506508090840761
    outer loop
      vertex -0.477711280780312 -0.155217804097922 0.605677417045798
      vertex -0.295241808113479 -0.908660854418077 0.295241808829558
      vertex -0.772953089600964 -0.561583292257049 0.295241808856071
    endloop
  endfacet
  facet normal -0.3090169945594872 0.42532540349072573 -0.850650808627649
    outer loop
      vertex 0.295241809262653 -0.908660854418077 0.295241808721456
      vertex 0.477711281195305 -0.155217804401271 0.605677417271835
      vertex 0.772953090175838 -0.561583292257046 0.295241808573055
    endloop
  endfacet
  facet normal -0.30901699368863855 0.4253254034239288 -0.8506508089774018
    outer loop
      vertex 0.477711281195305 -0.155217804401271 0.605677417271835
      vertex 0.295241809262653 -0.908660854418077 0.295241808721456
      vertex 6.1966259444785e-10 -0.502295366043563 0.605677417095186
    endloop
  endfacet
  facet normal -0.5773502692780018 0.18759247330217266 -0.7946544724123765
    outer loop
      vertex 0.477711281195305 -0.155217804401271 0.605677417271835
      vertex 0.95542256229975 6.25687695153475e-12 0.295241808441041
      vertex 0.772953090175838 -0.561583292257046 0.295241808573055
    endloop
  endfacet
  facet normal -0.5000000000256241 -0.1624598485594124 -0.8506508082523809
    outer loop
      vertex 0.477711281195305 -0.155217804401271 0.605677417271835
      vertex 0.772953089196172 0.561583292253174 0.295241808375837
      vertex 0.95542256229975 6.25687695153475e-12 0.295241808441041
    endloop
  endfacet
  facet normal -0.5000000000077127 -0.1624598485704374 -0.8506508082608032
    outer loop
      vertex 0.772953089196172 0.561583292253174 0.295241808375837
      vertex 0.477711281195305 -0.155217804401271 0.605677417271835
      vertex 0.295241808098646 0.406365487766108 0.605677417206634
    endloop
  endfacet
  facet normal -0.3568220898286918 -0.4911234732227935 -0.7946544722455572
    outer loop
      vertex 0.295241808098646 0.406365487766108 0.605677417206634
      vertex 0.29524180767752 0.908660854371311 0.29524180840235
      vertex 0.772953089196172 0.561583292253174 0.295241808375837
    endloop
  endfacet
  facet normal -1.3970841009587768e-10 -0.5257311119361493 -0.8506508084651304
    outer loop
      vertex -0.295241809036515 0.406365487748116 0.605677417314733
      vertex 0.29524180767752 0.908660854371311 0.29524180840235
      vertex 0.295241808098646 0.406365487766108 0.605677417206634
    endloop
  endfacet
  facet normal -1.5572636400368226e-10 -0.5257311119225236 -0.8506508084735516
    outer loop
      vertex 0.29524180767752 0.908660854371311 0.29524180840235
      vertex -0.295241809036515 0.406365487748116 0.605677417314733
      vertex -0.295241809535428 0.908660854371305 0.295241808510452
    endloop
  endfacet
  facet normal 0.3568220896411942 -0.4911234727747814 -0.7946544726066356
    outer loop
      vertex -0.295241809036515 0.406365487748116 0.605677417314733
      vertex -0.772953090479776 0.561583292253174 0.295241808658853
      vertex -0.295241809535428 0.908660854371305 0.295241808510452
    endloop
  endfacet
  facet normal 0.5000000000384256 -0.1624598469627421 -0.8506508085497931
    outer loop
      vertex -0.477711280780312 -0.155217804097922 0.605677417045798
      vertex -0.772953090479776 0.561583292253174 0.295241808658853
      vertex -0.295241809036515 0.406365487748116 0.605677417314733
    endloop
  endfacet
  facet normal 0.49999999910835313 -0.16245984753523587 -0.8506508089871394
    outer loop
      vertex -0.772953090479776 0.561583292253174 0.295241808658853
      vertex -0.477711280780312 -0.155217804097922 0.605677417045798
      vertex -0.955422562654119 6.25097683496512e-12 0.295241808790867
    endloop
  endfacet
  facet normal 0.5773502679882493 0.18759247393297787 -0.7946544732005237
    outer loop
      vertex -0.477711280780312 -0.155217804097922 0.605677417045798
      vertex -0.772953089600964 -0.561583292257049 0.295241808856071
      vertex -0.955422562654119 6.25097683496512e-12 0.295241808790867
    endloop
  endfacet
  facet normal 3.674029715563261e-10 3.274440166037344e-12 -1
    outer loop
      vertex 6.1966259444785e-10 -0.502295366043563 0.605677417095186
      vertex 0.295241808098646 0.406365487766108 0.605677417206634
      vertex 0.477711281195305 -0.155217804401271 0.605677417271835
    endloop
  endfacet
  facet normal -1.8306854090908398e-10 1.821334761029145e-10 -1
    outer loop
      vertex 6.1966259444785e-10 -0.502295366043563 0.605677417095186
      vertex -0.295241809036515 0.406365487748116 0.605677417314733
      vertex 0.295241808098646 0.406365487766108 0.605677417206634
    endloop
  endfacet
  facet normal 3.651225771457422e-10 3.602515683004418e-10 -1
    outer loop
      vertex -0.295241809036515 0.406365487748116 0.605677417314733
      vertex 6.1966259444785e-10 -0.502295366043563 0.605677417095186
      vertex -0.477711280780312 -0.155217804097922 0.605677417045798
    endloop
  endfacet
endsolid OpenSCAD_Model
