solid OpenSCAD_Model
  facet normal 0.3568220891835684 0.49112347230282816 0.7946544731038057
    outer loop
      vertex -0.276019995170481 -0.379908931509007 -0.73984552606325
      vertex -0.722629729961741 -0.525021231343206 -0.449620927835599
      vertex -0.276019995195266 -0.84950219712126 -0.449620927835599
    endloop
  endfacet
  facet normal -9.166304456585354e-16 0.5257311110589967 0.8506508090072407
    outer loop
      vertex -0.276019995170481 -0.379908931509007 -0.73984552606325
      vertex 0.2760199962655 -0.84950219712126 -0.449620927835599
      vertex 0.276019996105738 -0.379908931623825 -0.739845525992288
    endloop
  endfacet
  facet normal 0 0.5257311110589974 0.8506508090072401
    outer loop
      vertex 0.2760199962655 -0.84950219712126 -0.449620927835599
      vertex -0.276019995170481 -0.379908931509007 -0.73984552606325
      vertex -0.276019995195266 -0.84950219712126 -0.449620927835599
    endloop
  endfacet
  facet normal -2.5296503491972223e-20 1 -1.3817655301025758e-10
    outer loop
      vertex 0.2760199962655 -0.84950219712126 -0.449620927835599
      vertex -0.276019995170481 -0.849502197044981 0.102419063625167
      vertex 0.276019996238789 -0.849502197044981 0.102419063524103
    endloop
  endfacet
  facet normal -1.0499873498811973e-28 1 -1.381765529849611e-10
    outer loop
      vertex -0.276019995170481 -0.849502197044981 0.102419063625167
      vertex 0.2760199962655 -0.84950219712126 -0.449620927835599
      vertex -0.276019995195266 -0.84950219712126 -0.449620927835599
    endloop
  endfacet
  facet normal 0.5877852523505879 0.8090169943327247 -1.381770463366289e-10
    outer loop
      vertex -0.276019995195266 -0.84950219712126 -0.449620927835599
      vertex -0.722629729916905 -0.525021231281494 0.102419063649954
      vertex -0.276019995170481 -0.849502197044981 0.102419063625167
    endloop
  endfacet
  facet normal 0.5877852523505868 0.8090169943327253 -1.3817836804980775e-10
    outer loop
      vertex -0.722629729916905 -0.525021231281494 0.102419063649954
      vertex -0.276019995195266 -0.84950219712126 -0.449620927835599
      vertex -0.722629729961741 -0.525021231343206 -0.449620927835599
    endloop
  endfacet
  facet normal 0.4999999990842394 0.16245984843898778 0.8506508088287118
    outer loop
      vertex -0.446609734060785 0.145112299071952 -0.739845526367136
      vertex -0.722629729961741 -0.525021231343206 -0.449620927835599
      vertex -0.276019995170481 -0.379908931509007 -0.73984552606325
    endloop
  endfacet
  facet normal 0.4999999994662748 0.16245984820383094 0.8506508086490681
    outer loop
      vertex -0.722629729961741 -0.525021231343206 -0.449620927835599
      vertex -0.446609734060785 0.145112299071952 -0.739845526367136
      vertex -0.893219469221695 -5.46391665853506e-11 -0.449620927835599
    endloop
  endfacet
  facet normal 0.9510565161351443 0.3090169948674053 -6.577120172731067e-11
    outer loop
      vertex -0.722629729916905 -0.525021231281494 0.102419063649954
      vertex -0.893219469221695 -5.46391665853506e-11 -0.449620927835599
      vertex -0.893219469195909 -1.65042025757627e-11 0.102419063588995
    endloop
  endfacet
  facet normal 0.9510565161493644 0.3090169948236403 -1.1178833936885346e-10
    outer loop
      vertex -0.893219469221695 -5.46391665853506e-11 -0.449620927835599
      vertex -0.722629729916905 -0.525021231281494 0.102419063649954
      vertex -0.722629729961741 -0.525021231343206 -0.449620927835599
    endloop
  endfacet
  facet normal 0.5773502684747949 -0.18759247333284565 0.7946544729886997
    outer loop
      vertex -0.446609734060785 0.145112299071952 -0.739845526367136
      vertex -0.722629730713409 0.525021231218606 -0.449620927835599
      vertex -0.893219469221695 -5.46391665853506e-11 -0.449620927835599
    endloop
  endfacet
  facet normal 0.9510565165698939 -0.3090169935293835 5.138517858523247e-11
    outer loop
      vertex -0.893219469195909 -1.65042025757627e-11 0.102419063588995
      vertex -0.722629730713409 0.525021231218606 -0.449620927835599
      vertex -0.722629730738502 0.525021231233174 0.102419063465576
    endloop
  endfacet
  facet normal 0.9510565165468837 -0.3090169936002015 -2.3077384746997445e-11
    outer loop
      vertex -0.722629730713409 0.525021231218606 -0.449620927835599
      vertex -0.893219469195909 -1.65042025757627e-11 0.102419063588995
      vertex -0.893219469221695 -5.46391665853506e-11 -0.449620927835599
    endloop
  endfacet
  facet normal 0.3090169936719145 -0.4253254033320071 0.8506508090294381
    outer loop
      vertex -0.276019996411492 0.849502196956557 -0.449620927835599
      vertex -0.446609734060785 0.145112299071952 -0.739845526367136
      vertex 5.91592211577861e-10 0.469593264623777 -0.739845526367136
    endloop
  endfacet
  facet normal 0.3090169941164318 -0.42532540336610297 0.8506508088509097
    outer loop
      vertex -0.446609734060785 0.145112299071952 -0.739845526367136
      vertex -0.276019996411492 0.849502196956557 -0.449620927835599
      vertex -0.722629730713409 0.525021231218606 -0.449620927835599
    endloop
  endfacet
  facet normal 0.5877852527404391 -0.8090169940494811 4.806733027858629e-11
    outer loop
      vertex -0.722629730713409 0.525021231218606 -0.449620927835599
      vertex -0.276019996499854 0.849502196956557 0.102419063326837
      vertex -0.722629730738502 0.525021231233174 0.102419063465576
    endloop
  endfacet
  facet normal 0.5877852527032112 -0.8090169940765288 9.408353046715622e-11
    outer loop
      vertex -0.276019996499854 0.849502196956557 0.102419063326837
      vertex -0.722629730713409 0.525021231218606 -0.449620927835599
      vertex -0.276019996411492 0.849502196956557 -0.449620927835599
    endloop
  endfacet
  facet normal 6.579639715372532e-15 -0.6070619975312777 0.7946544728077324
    outer loop
      vertex 5.91592211577861e-10 0.469593264623777 -0.739845526367136
      vertex 0.276019994896713 0.849502196956563 -0.449620927835599
      vertex -0.276019996411492 0.849502196956557 -0.449620927835599
    endloop
  endfacet
  facet normal 1.08600906237388e-14 -1 1.7383145670558683e-24
    outer loop
      vertex -0.276019996411492 0.849502196956557 -0.449620927835599
      vertex 0.276019994756856 0.849502196956563 0.102419063225773
      vertex -0.276019996499854 0.849502196956557 0.102419063326837
    endloop
  endfacet
  facet normal 1.0860090622725757e-14 -1 2.7513572880948483e-24
    outer loop
      vertex 0.276019994756856 0.849502196956563 0.102419063225773
      vertex -0.276019996411492 0.849502196956557 -0.449620927835599
      vertex 0.276019994896713 0.849502196956563 -0.449620927835599
    endloop
  endfacet
  facet normal -0.3090169944465791 -0.4253254042906677 0.8506508082686943
    outer loop
      vertex 0.276019994896713 0.849502196956563 -0.449620927835599
      vertex 0.446609735165922 0.14511229896453 -0.739845526367137
      vertex 0.722629729692322 0.525021231218606 -0.449620927835599
    endloop
  endfacet
  facet normal -0.3090169945293372 -0.4253254042970156 0.8506508082354569
    outer loop
      vertex 0.446609735165922 0.14511229896453 -0.739845526367137
      vertex 0.276019994896713 0.849502196956563 -0.449620927835599
      vertex 5.91592211577861e-10 0.469593264623777 -0.739845526367136
    endloop
  endfacet
  facet normal -0.5877852522779475 -0.8090169943855009 -1.4891286766110794e-10
    outer loop
      vertex 0.276019994896713 0.849502196956563 -0.449620927835599
      vertex 0.722629729532418 0.525021231233174 0.102419063200986
      vertex 0.276019994756856 0.849502196956563 0.102419063225773
    endloop
  endfacet
  facet normal -0.5877852522779511 -0.8090169943854983 -1.4890846944942899e-10
    outer loop
      vertex 0.722629729532418 0.525021231233174 0.102419063200986
      vertex 0.276019994896713 0.849502196956563 -0.449620927835599
      vertex 0.722629729692322 0.525021231218606 -0.449620927835599
    endloop
  endfacet
  facet normal -0.5773502697608232 -0.18759247462913242 0.7946544717483336
    outer loop
      vertex 0.446609735165922 0.14511229896453 -0.739845526367137
      vertex 0.893219468999421 -5.46391665853506e-11 -0.449620927835599
      vertex 0.722629729692322 0.525021231218606 -0.449620927835599
    endloop
  endfacet
  facet normal -0.9510565161073985 -0.3090169949527977 -2.673283816073639e-10
    outer loop
      vertex 0.722629729692322 0.525021231218606 -0.449620927835599
      vertex 0.893219468858562 -1.64986865881814e-11 0.102419063261945
      vertex 0.722629729532418 0.525021231233174 0.102419063200986
    endloop
  endfacet
  facet normal -0.9510565161216152 -0.30901699490904344 -2.2132238032230415e-10
    outer loop
      vertex 0.893219468858562 -1.64986865881814e-11 0.102419063261945
      vertex 0.722629729692322 0.525021231218606 -0.449620927835599
      vertex 0.893219468999421 -5.46391665853506e-11 -0.449620927835599
    endloop
  endfacet
  facet normal -0.5000000006880929 0.16245984784007717 0.8506508080003724
    outer loop
      vertex 0.446609735165922 0.14511229896453 -0.739845526367137
      vertex 0.722629730538284 -0.525021231343203 -0.449620927835599
      vertex 0.893219468999421 -5.46391665853506e-11 -0.449620927835599
    endloop
  endfacet
  facet normal -0.49999999920529653 0.1624598487527927 0.8506508086976248
    outer loop
      vertex 0.722629730538284 -0.525021231343203 -0.449620927835599
      vertex 0.446609735165922 0.14511229896453 -0.739845526367137
      vertex 0.276019996105738 -0.379908931623825 -0.739845525992288
    endloop
  endfacet
  facet normal -0.9510565165746347 0.30901699351479317 -2.6402240357371883e-10
    outer loop
      vertex 0.722629730538284 -0.525021231343203 -0.449620927835599
      vertex 0.893219468858562 -1.64986865881814e-11 0.102419063261945
      vertex 0.893219468999421 -5.46391665853506e-11 -0.449620927835599
    endloop
  endfacet
  facet normal -0.951056516597643 0.30901699344398087 -1.8956603129233024e-10
    outer loop
      vertex 0.893219468858562 -1.64986865881814e-11 0.102419063261945
      vertex 0.722629730538284 -0.525021231343203 -0.449620927835599
      vertex 0.722629730448302 -0.525021231281491 0.102419063385364
    endloop
  endfacet
  facet normal -0.356822089480733 0.4911234721689382 0.7946544730531188
    outer loop
      vertex 0.276019996105738 -0.379908931623825 -0.739845525992288
      vertex 0.2760199962655 -0.84950219712126 -0.449620927835599
      vertex 0.722629730538284 -0.525021231343203 -0.449620927835599
    endloop
  endfacet
  facet normal -0.5877852528130875 0.809016993996699 -1.8624762451039156e-10
    outer loop
      vertex 0.722629730538284 -0.525021231343203 -0.449620927835599
      vertex 0.276019996238789 -0.849502197044981 0.102419063524103
      vertex 0.722629730448302 -0.525021231281491 0.102419063385364
    endloop
  endfacet
  facet normal -0.5877852527758567 0.8090169940237488 -1.4022777305088121e-10
    outer loop
      vertex 0.276019996238789 -0.849502197044981 0.102419063524103
      vertex 0.722629730538284 -0.525021231343203 -0.449620927835599
      vertex 0.2760199962655 -0.84950219712126 -0.449620927835599
    endloop
  endfacet
  facet normal 4.1966231101434013e-10 5.776125380773963e-10 1
    outer loop
      vertex 5.91592211577861e-10 0.469593264623777 -0.739845526367136
      vertex 0.276019996105738 -0.379908931623825 -0.739845525992288
      vertex 0.446609735165922 0.14511229896453 -0.739845526367137
    endloop
  endfacet
  facet normal -1.285450603546738e-10 3.9948916552522783e-10 1
    outer loop
      vertex 5.91592211577861e-10 0.469593264623777 -0.739845526367136
      vertex -0.276019995170481 -0.379908931509007 -0.73984552606325
      vertex 0.276019996105738 -0.379908931623825 -0.739845525992288
    endloop
  endfacet
  facet normal -3.4021416579824387e-10 4.682646270289951e-10 1
    outer loop
      vertex -0.276019995170481 -0.379908931509007 -0.73984552606325
      vertex 5.91592211577861e-10 0.469593264623777 -0.739845526367136
      vertex -0.446609734060785 0.145112299071952 -0.739845526367136
    endloop
  endfacet
  facet normal -8.188365307566339e-11 0.8944271906604327 -0.4472135961789243
    outer loop
      vertex 0.276019996238789 -0.849502197044981 0.102419063524103
      vertex 5.77928620028967e-10 -0.469593264739077 0.862236926744491
      vertex 0.446609735096597 -0.614705564303004 0.572012328085643
    endloop
  endfacet
  facet normal -8.187304823873989e-11 0.8944271906604342 -0.44721359617892126
    outer loop
      vertex -0.276019995170481 -0.849502197044981 0.102419063625167
      vertex 5.77928620028967e-10 -0.469593264739077 0.862236926744491
      vertex 0.276019996238789 -0.849502197044981 0.102419063524103
    endloop
  endfacet
  facet normal -8.186892349977308e-11 0.8944271906604337 -0.4472135961789225
    outer loop
      vertex 5.77928620028967e-10 -0.469593264739077 0.862236926744491
      vertex -0.276019995170481 -0.849502197044981 0.102419063625167
      vertex -0.446609733991926 -0.614705564185524 0.572012328484133
    endloop
  endfacet
  facet normal 0.5773502691555884 0.7946544721392067 -0.18759247483608818
    outer loop
      vertex -0.722629729916905 -0.525021231281494 0.102419063649954
      vertex -0.446609733991926 -0.614705564185524 0.572012328484133
      vertex -0.276019995170481 -0.849502197044981 0.102419063625167
    endloop
  endfacet
  facet normal -0.5773502697076238 0.7946544718491436 -0.1875924743658243
    outer loop
      vertex 0.446609735096597 -0.614705564303004 0.572012328085643
      vertex 0.722629730448302 -0.525021231281491 0.102419063385364
      vertex 0.276019996238789 -0.849502197044981 0.102419063524103
    endloop
  endfacet
  facet normal -0.8506508086366438 0.27639320131677747 -0.4472135955353854
    outer loop
      vertex 0.893219468858562 -1.64986865881814e-11 0.102419063261945
      vertex 0.446609734524479 -0.14511229922653 0.862236926849903
      vertex 0.72262972979318 0.234796632593985 0.572012328143078
    endloop
  endfacet
  facet normal -0.8506508086461849 0.2763932013198758 -0.44721359551532225
    outer loop
      vertex 0.446609735096597 -0.614705564303004 0.572012328085643
      vertex 0.893219468858562 -1.64986865881814e-11 0.102419063261945
      vertex 0.722629730448302 -0.525021231281491 0.102419063385364
    endloop
  endfacet
  facet normal -0.8506508086402884 0.2763932012955281 -0.4472135955415859
    outer loop
      vertex 0.893219468858562 -1.64986865881814e-11 0.102419063261945
      vertex 0.446609735096597 -0.614705564303004 0.572012328085643
      vertex 0.446609734524479 -0.14511229922653 0.862236926849903
    endloop
  endfacet
  facet normal -0.9341723587972719 -0.3035309996988821 -0.18759247394535425
    outer loop
      vertex 0.72262972979318 0.234796632593985 0.572012328143078
      vertex 0.722629729532418 0.525021231233174 0.102419063200986
      vertex 0.893219468858562 -1.64986865881814e-11 0.102419063261945
    endloop
  endfacet
  facet normal -0.525731112157976 -0.72360679782526 -0.44721359533248883
    outer loop
      vertex -7.2563760478799e-10 0.759817863776342 0.572012328183183
      vertex 0.72262972979318 0.234796632593985 0.572012328143078
      vertex 0.276019995227206 0.379908931918956 0.862236926788941
    endloop
  endfacet
  facet normal -0.5257311121655066 -0.7236067978356251 -0.44721359530686483
    outer loop
      vertex 0.276019994756856 0.849502196956563 0.102419063225773
      vertex 0.72262972979318 0.234796632593985 0.572012328143078
      vertex -7.2563760478799e-10 0.759817863776342 0.572012328183183
    endloop
  endfacet
  facet normal -0.5257311121852304 -0.7236067978341122 -0.4472135952861261
    outer loop
      vertex 0.72262972979318 0.234796632593985 0.572012328143078
      vertex 0.276019994756856 0.849502196956563 0.102419063225773
      vertex 0.722629729532418 0.525021231233174 0.102419063200986
    endloop
  endfacet
  facet normal -3.433258559187711e-11 -0.9822469463664315 -0.18759247413961058
    outer loop
      vertex -7.2563760478799e-10 0.759817863776342 0.572012328183183
      vertex -0.276019996499854 0.849502196956557 0.102419063326837
      vertex 0.276019994756856 0.849502196956563 0.102419063225773
    endloop
  endfacet
  facet normal 0.5257311123524135 -0.7236067973910375 -0.44721359580650033
    outer loop
      vertex -0.722629730355944 0.234796632566769 0.57201232840767
      vertex -7.2563760478799e-10 0.759817863776342 0.572012328183183
      vertex -0.276019995921487 0.37990893191422 0.862236926890009
    endloop
  endfacet
  facet normal 0.5257311123448836 -0.7236067974093283 -0.4472135957857572
    outer loop
      vertex -0.276019996499854 0.849502196956557 0.102419063326837
      vertex -0.722629730355944 0.234796632566769 0.57201232840767
      vertex -0.722629730738502 0.525021231233174 0.102419063465576
    endloop
  endfacet
  facet normal 0.5257311123646037 -0.7236067974078157 -0.44721359576502234
    outer loop
      vertex -0.722629730355944 0.234796632566769 0.57201232840767
      vertex -0.276019996499854 0.849502196956557 0.102419063326837
      vertex -7.2563760478799e-10 0.759817863776342 0.572012328183183
    endloop
  endfacet
  facet normal 0.9341723591668851 -0.3035309982955435 -0.18759247437540488
    outer loop
      vertex -0.722629730355944 0.234796632566769 0.57201232840767
      vertex -0.893219469195909 -1.65042025757627e-11 0.102419063588995
      vertex -0.722629730738502 0.525021231233174 0.102419063465576
    endloop
  endfacet
  facet normal 0.850650807733026 0.2763932034740557 -0.44721359592089743
    outer loop
      vertex -0.446609734058293 -0.145112298849211 0.862236926681183
      vertex -0.893219469195909 -1.65042025757627e-11 0.102419063588995
      vertex -0.722629730355944 0.234796632566769 0.57201232840767
    endloop
  endfacet
  facet normal 0.850650807948173 0.27639320221965236 -0.4472135962869274
    outer loop
      vertex -0.446609733991926 -0.614705564185524 0.572012328484133
      vertex -0.893219469195909 -1.65042025757627e-11 0.102419063588995
      vertex -0.446609734058293 -0.145112298849211 0.862236926681183
    endloop
  endfacet
  facet normal 0.8506508080360197 0.276393202582384 -0.4472135958956526
    outer loop
      vertex -0.893219469195909 -1.65042025757627e-11 0.102419063588995
      vertex -0.446609733991926 -0.614705564185524 0.572012328484133
      vertex -0.722629729916905 -0.525021231281494 0.102419063649954
    endloop
  endfacet
  facet normal 0.3568220896204118 0.4911234724365793 -0.7946544728249879
    outer loop
      vertex -0.446609734058293 -0.145112298849211 0.862236926681183
      vertex 5.77928620028967e-10 -0.469593264739077 0.862236926744491
      vertex -0.446609733991926 -0.614705564185524 0.572012328484133
    endloop
  endfacet
  facet normal -0.3568220898196565 0.49112347293669806 -0.7946544724264311
    outer loop
      vertex 5.77928620028967e-10 -0.469593264739077 0.862236926744491
      vertex 0.446609734524479 -0.14511229922653 0.862236926849903
      vertex 0.446609735096597 -0.614705564303004 0.572012328085643
    endloop
  endfacet
  facet normal -0.5773502693419953 -0.18759247462016063 -0.7946544720547477
    outer loop
      vertex 0.446609734524479 -0.14511229922653 0.862236926849903
      vertex 0.276019995227206 0.379908931918956 0.862236926788941
      vertex 0.72262972979318 0.234796632593985 0.572012328143078
    endloop
  endfacet
  facet normal -1.4027790084301565e-10 -0.6070619981733683 -0.7946544723172186
    outer loop
      vertex 0.276019995227206 0.379908931918956 0.862236926788941
      vertex -0.276019995921487 0.37990893191422 0.862236926890009
      vertex -7.2563760478799e-10 0.759817863776342 0.572012328183183
    endloop
  endfacet
  facet normal 0.577350269075832 -0.18759247298571577 -0.7946544726339668
    outer loop
      vertex -0.276019995921487 0.37990893191422 0.862236926890009
      vertex -0.446609734058293 -0.145112298849211 0.862236926681183
      vertex -0.722629730355944 0.234796632566769 0.57201232840767
    endloop
  endfacet
  facet normal 2.5919971556243506e-10 -3.189433173017087e-11 -1
    outer loop
      vertex 5.77928620028967e-10 -0.469593264739077 0.862236926744491
      vertex 0.276019995227206 0.379908931918956 0.862236926788941
      vertex 0.446609734524479 -0.14511229922653 0.862236926849903
    endloop
  endfacet
  facet normal -1.8308081556129645e-10 1.1181132355184193e-10 -1
    outer loop
      vertex 5.77928620028967e-10 -0.469593264739077 0.862236926744491
      vertex -0.276019995921487 0.37990893191422 0.862236926890009
      vertex 0.276019995227206 0.379908931918956 0.862236926788941
    endloop
  endfacet
  facet normal 3.484703420864506e-10 2.8452276473610884e-10 -1
    outer loop
      vertex -0.276019995921487 0.37990893191422 0.862236926890009
      vertex 5.77928620028967e-10 -0.469593264739077 0.862236926744491
      vertex -0.446609734058293 -0.145112298849211 0.862236926681183
    endloop
  endfacet
endsolid OpenSCAD_Model
