solid OpenSCAD_Model
  facet normal 0.3568220891835691 0.4911234723028284 0.794654473103805
    outer loop
      vertex -0.276019995502045 -0.379908931295684 -0.739845525918175
      vertex -0.722629730205731 -0.525021231101429 -0.449620927747432
      vertex -0.27601999552683 -0.849502196815857 -0.449620927747432
    endloop
  endfacet
  facet normal 8.781643146382985e-17 0.5257311110589981 0.8506508090072398
    outer loop
      vertex -0.276019995502045 -0.379908931295684 -0.739845525918175
      vertex 0.276019995825688 -0.849502196815857 -0.449620927747432
      vertex 0.276019995665926 -0.379908931410503 -0.739845525847213
    endloop
  endfacet
  facet normal 0 0.5257311110589978 0.8506508090072398
    outer loop
      vertex 0.276019995825688 -0.849502196815857 -0.449620927747432
      vertex -0.276019995502045 -0.379908931295684 -0.739845525918175
      vertex -0.27601999552683 -0.849502196815857 -0.449620927747432
    endloop
  endfacet
  facet normal -2.5296499111521987e-20 1 -1.3817655303735225e-10
    outer loop
      vertex 0.276019995825688 -0.849502196815857 -0.449620927747432
      vertex -0.276019995502045 -0.849502196739578 0.102419063605086
      vertex 0.276019995798978 -0.849502196739578 0.102419063504022
    endloop
  endfacet
  facet normal 4.285372100856755e-27 1 -1.3817655301205575e-10
    outer loop
      vertex -0.276019995502045 -0.849502196739578 0.102419063605086
      vertex 0.276019995825688 -0.849502196815857 -0.449620927747432
      vertex -0.27601999552683 -0.849502196815857 -0.449620927747432
    endloop
  endfacet
  facet normal 0.5877852523505891 0.8090169943327237 -1.3817704636372356e-10
    outer loop
      vertex -0.27601999552683 -0.849502196815857 -0.449620927747432
      vertex -0.722629730160894 -0.525021231039717 0.102419063629872
      vertex -0.276019995502045 -0.849502196739578 0.102419063605086
    endloop
  endfacet
  facet normal 0.5877852523505872 0.809016994332725 -1.3817931376595582e-10
    outer loop
      vertex -0.722629730160894 -0.525021231039717 0.102419063629872
      vertex -0.27601999552683 -0.849502196815857 -0.449620927747432
      vertex -0.722629730205731 -0.525021231101429 -0.449620927747432
    endloop
  endfacet
  facet normal 0.4999999990842403 0.16245984843898872 0.8506508088287112
    outer loop
      vertex -0.446609734358899 0.145112299182325 -0.739845526222061
      vertex -0.722629730205731 -0.525021231101429 -0.449620927747432
      vertex -0.276019995502045 -0.379908931295684 -0.739845525918175
    endloop
  endfacet
  facet normal 0.4999999994662771 0.16245984820383097 0.8506508086490666
    outer loop
      vertex -0.722629730205731 -0.525021231101429 -0.449620927747432
      vertex -0.446609734358899 0.145112299182325 -0.739845526222061
      vertex -0.893219469432234 8.41884346193819e-11 -0.449620927747432
    endloop
  endfacet
  facet normal 0.9510565163253268 0.30901699428208346 -6.812151955968416e-10
    outer loop
      vertex -0.722629730160894 -0.525021231039717 0.102419063629872
      vertex -0.893219469432234 8.41884346193819e-11 -0.449620927747432
      vertex -0.893219469007048 -7.45013798084997e-12 0.102419063568914
    endloop
  endfacet
  facet normal 0.9510565161493648 0.3090169948236391 -1.1178986994962179e-10
    outer loop
      vertex -0.893219469432234 8.41884346193819e-11 -0.449620927747432
      vertex -0.722629730160894 -0.525021231039717 0.102419063629872
      vertex -0.722629730205731 -0.525021231101429 -0.449620927747432
    endloop
  endfacet
  facet normal 0.577350268474797 -0.18759247333284543 0.7946544729886981
    outer loop
      vertex -0.446609734358899 0.145112299182325 -0.739845526222061
      vertex -0.722629730957399 0.525021231254484 -0.449620927747432
      vertex -0.893219469432234 8.41884346193819e-11 -0.449620927747432
    endloop
  endfacet
  facet normal 0.9510565165468842 -0.3090169936002003 -1.6496809988095059e-9
    outer loop
      vertex -0.722629730089398 0.525021230978862 0.102419063445494
      vertex -0.893219469432234 8.41884346193819e-11 -0.449620927747432
      vertex -0.722629730957399 0.525021231254484 -0.449620927747432
    endloop
  endfacet
  facet normal 0.9510565162793149 -0.30901699442369374 -7.838087759181609e-10
    outer loop
      vertex -0.893219469432234 8.41884346193819e-11 -0.449620927747432
      vertex -0.722629730089398 0.525021230978862 0.102419063445494
      vertex -0.893219469007048 -7.45013798084997e-12 0.102419063568914
    endloop
  endfacet
  facet normal 0.3090169936719151 -0.4253254033320083 0.8506508090294371
    outer loop
      vertex -0.276019996743056 0.849502196928809 -0.449620927747432
      vertex -0.446609734358899 0.145112299182325 -0.739845526222061
      vertex 2.0590473751892e-10 0.469593264670524 -0.739845526222061
    endloop
  endfacet
  facet normal 0.30901699411643285 -0.4253254033661042 0.8506508088509087
    outer loop
      vertex -0.446609734358899 0.145112299182325 -0.739845526222061
      vertex -0.276019996743056 0.849502196928809 -0.449620927747432
      vertex -0.722629730957399 0.525021231254484 -0.449620927747432
    endloop
  endfacet
  facet normal 0.5877852522425312 -0.8090169944112323 -1.3281303139852296e-9
    outer loop
      vertex -0.722629730957399 0.525021231254484 -0.449620927747432
      vertex -0.276019995538922 0.849502196508845 0.102419063306756
      vertex -0.722629730089398 0.525021230978862 0.102419063445494
    endloop
  endfacet
  facet normal 0.5877852527032115 -0.8090169940765285 -1.8975623096142736e-9
    outer loop
      vertex -0.276019995538922 0.849502196508845 0.102419063306756
      vertex -0.722629730957399 0.525021231254484 -0.449620927747432
      vertex -0.276019996743056 0.849502196928809 -0.449620927747432
    endloop
  endfacet
  facet normal 6.56741263958952e-15 -0.6070619975312792 0.7946544728077312
    outer loop
      vertex 2.0590473751892e-10 0.469593264670524 -0.739845526222061
      vertex 0.276019994456902 0.849502196928815 -0.449620927747432
      vertex -0.276019996743056 0.849502196928809 -0.449620927747432
    endloop
  endfacet
  facet normal -8.97994750335015e-11 -1 -7.607493482761176e-10
    outer loop
      vertex -0.276019996743056 0.849502196928809 -0.449620927747432
      vertex 0.276019995762098 0.849502196459272 0.102419063205691
      vertex -0.276019995538922 0.849502196508845 0.102419063306756
    endloop
  endfacet
  facet normal 1.086009062489335e-14 -1 -8.50559683652741e-10
    outer loop
      vertex 0.276019995762098 0.849502196459272 0.102419063205691
      vertex -0.276019996743056 0.849502196928809 -0.449620927747432
      vertex 0.276019994456902 0.849502196928815 -0.449620927747432
    endloop
  endfacet
  facet normal -0.30901699444658 -0.4253254042906685 0.8506508082686937
    outer loop
      vertex 0.276019994456902 0.849502196928815 -0.449620927747432
      vertex 0.44660973469266 0.145112299074903 -0.739845526222062
      vertex 0.722629729164937 0.525021231254484 -0.449620927747432
    endloop
  endfacet
  facet normal -0.3090169945293383 -0.42532540429701626 0.850650808235456
    outer loop
      vertex 0.44660973469266 0.145112299074903 -0.739845526222062
      vertex 0.276019994456902 0.849502196928815 -0.449620927747432
      vertex 2.0590473751892e-10 0.469593264670524 -0.739845526222061
    endloop
  endfacet
  facet normal -0.5877852523505833 -0.809016994332728 7.015917982812839e-10
    outer loop
      vertex 0.276019994456902 0.849502196928815 -0.449620927747432
      vertex 0.722629730297524 0.525021230849088 0.102419063180905
      vertex 0.276019995762098 0.849502196459272 0.102419063205691
    endloop
  endfacet
  facet normal -0.5877852522779514 -0.809016994385498 6.118139104737246e-10
    outer loop
      vertex 0.722629730297524 0.525021230849088 0.102419063180905
      vertex 0.276019994456902 0.849502196928815 -0.449620927747432
      vertex 0.722629729164937 0.525021231254484 -0.449620927747432
    endloop
  endfacet
  facet normal -0.5773502697608244 -0.18759247462913217 0.7946544717483327
    outer loop
      vertex 0.44660973469266 0.145112299074903 -0.739845526222062
      vertex 0.893219468438585 8.41884346193819e-11 -0.449620927747432
      vertex 0.722629729164937 0.525021231254484 -0.449620927747432
    endloop
  endfacet
  facet normal -0.9510565161216155 -0.3090169949090425 1.7242954518960482e-9
    outer loop
      vertex 0.893219468438585 8.41884346193819e-11 -0.449620927747432
      vertex 0.722629730297524 0.525021230849088 0.102419063180905
      vertex 0.722629729164937 0.525021231254484 -0.449620927747432
    endloop
  endfacet
  facet normal -0.9510565162975818 -0.30901699436747443 1.1548569921635255e-9
    outer loop
      vertex 0.722629730297524 0.525021230849088 0.102419063180905
      vertex 0.893219468438585 8.41884346193819e-11 -0.449620927747432
      vertex 0.893219469190817 -1.67861921153775e-10 0.102419063241863
    endloop
  endfacet
  facet normal -0.5000000006880942 0.16245984784007703 0.8506508080003713
    outer loop
      vertex 0.44660973469266 0.145112299074903 -0.739845526222062
      vertex 0.722629730010899 -0.525021231101426 -0.449620927747432
      vertex 0.893219468438585 8.41884346193819e-11 -0.449620927747432
    endloop
  endfacet
  facet normal -0.4999999992052969 0.16245984875279323 0.8506508086976245
    outer loop
      vertex 0.722629730010899 -0.525021231101426 -0.449620927747432
      vertex 0.44660973469266 0.145112299074903 -0.739845526222062
      vertex 0.276019995665926 -0.379908931410503 -0.739845525847213
    endloop
  endfacet
  facet normal -0.951056516574635 0.3090169935147921 1.4370388944690962e-9
    outer loop
      vertex 0.722629730010899 -0.525021231101426 -0.449620927747432
      vertex 0.893219469190817 -1.67861921153775e-10 0.102419063241863
      vertex 0.893219468438585 8.41884346193819e-11 -0.449620927747432
    endloop
  endfacet
  facet normal -0.951056516307064 0.30901699433829105 5.711609227910866e-10
    outer loop
      vertex 0.893219469190817 -1.67861921153775e-10 0.102419063241863
      vertex 0.722629730010899 -0.525021231101426 -0.449620927747432
      vertex 0.722629730320312 -0.525021231169495 0.102419063365283
    endloop
  endfacet
  facet normal -0.3568220894807334 0.49112347216893937 0.7946544730531178
    outer loop
      vertex 0.276019995665926 -0.379908931410503 -0.739845525847213
      vertex 0.276019995825688 -0.849502196815857 -0.449620927747432
      vertex 0.722629730010899 -0.525021231101426 -0.449620927747432
    endloop
  endfacet
  facet normal -0.5877852523151778 0.8090169943584515 4.292032104644974e-10
    outer loop
      vertex 0.722629730010899 -0.525021231101426 -0.449620927747432
      vertex 0.276019995798978 -0.849502196739578 0.102419063504022
      vertex 0.722629730320312 -0.525021231169495 0.102419063365283
    endloop
  endfacet
  facet normal -0.5877852527758561 0.809016994023749 -1.4022665007262683e-10
    outer loop
      vertex 0.276019995798978 -0.849502196739578 0.102419063504022
      vertex 0.722629730010899 -0.525021231101426 -0.449620927747432
      vertex 0.276019995825688 -0.849502196815857 -0.449620927747432
    endloop
  endfacet
  facet normal 4.1966243539116975e-10 5.776127092674141e-10 1
    outer loop
      vertex 2.0590473751892e-10 0.469593264670524 -0.739845526222061
      vertex 0.276019995665926 -0.379908931410503 -0.739845525847213
      vertex 0.44660973469266 0.145112299074903 -0.739845526222062
    endloop
  endfacet
  facet normal -1.28545060379879e-10 3.9948929629457503e-10 1
    outer loop
      vertex 2.0590473751892e-10 0.469593264670524 -0.739845526222061
      vertex -0.276019995502045 -0.379908931295684 -0.739845525918175
      vertex 0.276019995665926 -0.379908931410503 -0.739845525847213
    endloop
  endfacet
  facet normal -3.4021429015949463e-10 4.682647981975727e-10 1
    outer loop
      vertex -0.276019995502045 -0.379908931295684 -0.739845525918175
      vertex 2.0590473751892e-10 0.469593264670524 -0.739845526222061
      vertex -0.446609734358899 0.145112299182325 -0.739845526222061
    endloop
  endfacet
  facet normal -3.43432510902124e-11 0.9822469463127246 -0.1875924744208239
    outer loop
      vertex 3.78349279865591e-10 -0.759817863492723 0.572012328080721
      vertex 0.276019995798978 -0.849502196739578 0.102419063504022
      vertex -0.276019995502045 -0.849502196739578 0.102419063605086
    endloop
  endfacet
  facet normal 0.5257311119699996 0.7236067974695712 -0.4472135961289847
    outer loop
      vertex 3.78349279865591e-10 -0.759817863492723 0.572012328080721
      vertex -0.722629729807038 -0.234796632287477 0.572012328355791
      vertex -0.276019995084731 -0.379908931603815 0.862236926610199
    endloop
  endfacet
  facet normal 0.5257311119699961 0.7236067974695666 -0.4472135961289964
    outer loop
      vertex -0.276019995502045 -0.849502196739578 0.102419063605086
      vertex -0.722629729807038 -0.234796632287477 0.572012328355791
      vertex 3.78349279865591e-10 -0.759817863492723 0.572012328080721
    endloop
  endfacet
  facet normal 0.5257311119700014 0.7236067974695662 -0.44721359612899086
    outer loop
      vertex -0.722629729807038 -0.234796632287477 0.572012328355791
      vertex -0.276019995502045 -0.849502196739578 0.102419063605086
      vertex -0.722629730160894 -0.525021231039717 0.102419063629872
    endloop
  endfacet
  facet normal -0.5257311121811731 0.7236067975790146 -0.44721359570365254
    outer loop
      vertex 0.722629730330481 -0.234796632475292 0.572012328113368
      vertex 3.78349279865591e-10 -0.759817863492723 0.572012328080721
      vertex 0.276019995856051 -0.379908931652262 0.862236926753282
    endloop
  endfacet
  facet normal -0.5257311121752812 0.723606797593338 -0.44721359568740304
    outer loop
      vertex 0.276019995798978 -0.849502196739578 0.102419063504022
      vertex 0.722629730330481 -0.234796632475292 0.572012328113368
      vertex 0.722629730320312 -0.525021231169495 0.102419063365283
    endloop
  endfacet
  facet normal -0.5257311121907193 0.7236067975921537 -0.4472135956711703
    outer loop
      vertex 0.722629730330481 -0.234796632475292 0.572012328113368
      vertex 0.276019995798978 -0.849502196739578 0.102419063504022
      vertex 3.78349279865591e-10 -0.759817863492723 0.572012328080721
    endloop
  endfacet
  facet normal -0.9341723589774074 0.3035309990242113 -0.18759247413995603
    outer loop
      vertex 0.722629730330481 -0.234796632475292 0.572012328113368
      vertex 0.893219469190817 -1.67861921153775e-10 0.102419063241863
      vertex 0.722629730320312 -0.525021231169495 0.102419063365283
    endloop
  endfacet
  facet normal -0.8506508083749179 -0.2763932023019889 -0.44721359542432354
    outer loop
      vertex 0.893219469190817 -1.67861921153775e-10 0.102419063241863
      vertex 0.446609734677799 0.614705564044421 0.572012328014735
      vertex 0.722629730297524 0.525021230849088 0.102419063180905
    endloop
  endfacet
  facet normal -0.8506508083749187 -0.2763932023019918 -0.4472135954243203
    outer loop
      vertex 0.446609734677799 0.614705564044421 0.572012328014735
      vertex 0.893219469190817 -1.67861921153775e-10 0.102419063241863
      vertex 0.446609734688674 0.1451122992481 0.862236926629863
    endloop
  endfacet
  facet normal -0.8506508083673855 -0.2763932023459134 -0.4472135954115042
    outer loop
      vertex 0.446609734688674 0.1451122992481 0.862236926629863
      vertex 0.893219469190817 -1.67861921153775e-10 0.102419063241863
      vertex 0.722629730330481 -0.234796632475292 0.572012328113368
    endloop
  endfacet
  facet normal -0.5773502692621623 -0.7946544722572427 -0.18759247400807855
    outer loop
      vertex 0.446609734677799 0.614705564044421 0.572012328014735
      vertex 0.276019995762098 0.849502196459272 0.102419063205691
      vertex 0.722629730297524 0.525021230849088 0.102419063180905
    endloop
  endfacet
  facet normal -1.621941114525101e-10 -0.8944271910027988 -0.447213595494192
    outer loop
      vertex -0.276019995538922 0.849502196508845 0.102419063306756
      vertex 2.37854563358577e-10 0.469593264790968 0.862236926654649
      vertex -0.446609734316727 0.614705564107811 0.572012328178261
    endloop
  endfacet
  facet normal -1.6219294967597089e-10 -0.8944271910027988 -0.44721359549419243
    outer loop
      vertex 0.276019995762098 0.849502196459272 0.102419063205691
      vertex 2.37854563358577e-10 0.469593264790968 0.862236926654649
      vertex -0.276019995538922 0.849502196508845 0.102419063306756
    endloop
  endfacet
  facet normal -1.1809422513976714e-10 -0.8944271910092065 -0.44721359548137657
    outer loop
      vertex 2.37854563358577e-10 0.469593264790968 0.862236926654649
      vertex 0.276019995762098 0.849502196459272 0.102419063205691
      vertex 0.446609734677799 0.614705564044421 0.572012328014735
    endloop
  endfacet
  facet normal 0.5773502690860565 -0.7946544723325835 -0.18759247423092854
    outer loop
      vertex -0.446609734316727 0.614705564107811 0.572012328178261
      vertex -0.722629730089398 0.525021230978862 0.102419063445494
      vertex -0.276019995538922 0.849502196508845 0.102419063306756
    endloop
  endfacet
  facet normal 0.8506508080395097 -0.27639320168987297 -0.4472135964406163
    outer loop
      vertex -0.893219469007048 -7.45013798084997e-12 0.102419063568914
      vertex -0.446609734316727 0.614705564107811 0.572012328178261
      vertex -0.446609733767444 0.145112299465919 0.862236926461142
    endloop
  endfacet
  facet normal 0.8506508082003659 -0.2763932023540714 -0.4472135957241526
    outer loop
      vertex -0.446609734316727 0.614705564107811 0.572012328178261
      vertex -0.893219469007048 -7.45013798084997e-12 0.102419063568914
      vertex -0.722629730089398 0.525021230978862 0.102419063445494
    endloop
  endfacet
  facet normal 0.850650807852249 -0.27639320278168683 -0.44721359612202943
    outer loop
      vertex -0.893219469007048 -7.45013798084997e-12 0.102419063568914
      vertex -0.446609733767444 0.145112299465919 0.862236926461142
      vertex -0.722629729807038 -0.234796632287477 0.572012328355791
    endloop
  endfacet
  facet normal 0.9341723588575495 0.3035309989465468 -0.1875924748624881
    outer loop
      vertex -0.722629729807038 -0.234796632287477 0.572012328355791
      vertex -0.722629730160894 -0.525021231039717 0.102419063629872
      vertex -0.893219469007048 -7.45013798084997e-12 0.102419063568914
    endloop
  endfacet
  facet normal 0.5773502685879536 0.18759247340853305 -0.7946544728886176
    outer loop
      vertex -0.446609733767444 0.145112299465919 0.862236926461142
      vertex -0.276019995084731 -0.379908931603815 0.862236926610199
      vertex -0.722629729807038 -0.234796632287477 0.572012328355791
    endloop
  endfacet
  facet normal 2.592418800969324e-10 0.6070619980953863 -0.7946544723767917
    outer loop
      vertex -0.276019995084731 -0.379908931603815 0.862236926610199
      vertex 0.276019995856051 -0.379908931652262 0.862236926753282
      vertex 3.78349279865591e-10 -0.759817863492723 0.572012328080721
    endloop
  endfacet
  facet normal -0.5773502692891235 0.1875924739005306 -0.794654472263043
    outer loop
      vertex 0.276019995856051 -0.379908931652262 0.862236926753282
      vertex 0.446609734688674 0.1451122992481 0.862236926629863
      vertex 0.722629730330481 -0.234796632475292 0.572012328113368
    endloop
  endfacet
  facet normal -0.35682208992121106 -0.4911234732662575 -0.7946544721771513
    outer loop
      vertex 0.446609734688674 0.1451122992481 0.862236926629863
      vertex 2.37854563358577e-10 0.469593264790968 0.862236926654649
      vertex 0.446609734677799 0.614705564044421 0.572012328014735
    endloop
  endfacet
  facet normal 0.3568220899056636 -0.4911234726714178 -0.7946544725517637
    outer loop
      vertex 2.37854563358577e-10 0.469593264790968 0.862236926654649
      vertex -0.446609733767444 0.145112299465919 0.862236926461142
      vertex -0.446609734316727 0.614705564107811 0.572012328178261
    endloop
  endfacet
  facet normal -1.8307230123502915e-10 -1.7559060714976067e-10 -1
    outer loop
      vertex 0.276019995856051 -0.379908931652262 0.862236926753282
      vertex 2.37854563358577e-10 0.469593264790968 0.862236926654649
      vertex 0.446609734688674 0.1451122992481 0.862236926629863
    endloop
  endfacet
  facet normal 2.591895374379448e-10 -3.1891024872379735e-11 -1
    outer loop
      vertex -0.276019995084731 -0.379908931603815 0.862236926610199
      vertex 2.37854563358577e-10 0.469593264790968 0.862236926654649
      vertex 0.276019995856051 -0.379908931652262 0.862236926753282
    endloop
  endfacet
  facet normal 5.17406851795189e-10 -1.1579091613054776e-10 -1
    outer loop
      vertex 2.37854563358577e-10 0.469593264790968 0.862236926654649
      vertex -0.276019995084731 -0.379908931603815 0.862236926610199
      vertex -0.446609733767444 0.145112299465919 0.862236926461142
    endloop
  endfacet
endsolid OpenSCAD_Model
