solid OpenSCAD_Model
  facet normal 0.5257311120565945 0.7236067975545886 0.4472135958896252
    outer loop
      vertex -0.635384063812465 -0.20644879693381 -0.655592710163857
      vertex -0.242695116366411 -0.746938764700213 -0.242695116374567
      vertex 1.27204186263448e-10 -0.668082340944911 -0.655592710370453
    endloop
  endfacet
  facet normal 0.525731112056592 0.7236067975545889 0.4472135958896279
    outer loop
      vertex -0.242695116366411 -0.746938764700213 -0.242695116374567
      vertex -0.635384063812465 -0.20644879693381 -0.655592710163857
      vertex -0.635384063824364 -0.461633544051249 -0.242695116374567
    endloop
  endfacet
  facet normal 0.5257311120565966 0.7236067975545918 0.4472135958896176
    outer loop
      vertex -0.635384063812465 -0.20644879693381 -0.655592710163857
      vertex 1.27204186263448e-10 -0.668082340944911 -0.655592710370453
      vertex -0.242695116405836 -0.334041170318248 -0.9107774571488
    endloop
  endfacet
  facet normal 0 0.9822469462722507 0.18759247463274806
    outer loop
      vertex 0.242695116595655 -0.746938764700213 -0.242695116374567
      vertex 1.27204186263448e-10 -0.668082340944911 -0.655592710370453
      vertex -0.242695116366411 -0.746938764700213 -0.242695116374567
    endloop
  endfacet
  facet normal -2.5296895853460397e-20 1 -1.3817751504912998e-10
    outer loop
      vertex 0.242695116595655 -0.746938764700213 -0.242695116374567
      vertex -0.242695116344618 -0.746938764633143 0.242695116587499
      vertex 0.24269511657217 -0.746938764633143 0.242695116498636
    endloop
  endfacet
  facet normal -2.977983992680941e-27 1 -1.381775150238331e-10
    outer loop
      vertex -0.242695116344618 -0.746938764633143 0.242695116587499
      vertex 0.242695116595655 -0.746938764700213 -0.242695116374567
      vertex -0.242695116366411 -0.746938764700213 -0.242695116374567
    endloop
  endfacet
  facet normal 0.5877852523505878 0.8090169943327246 -1.3817829311558497e-10
    outer loop
      vertex -0.242695116366411 -0.746938764700213 -0.242695116374567
      vertex -0.635384063784941 -0.461633543996988 0.242695116609293
      vertex -0.242695116344618 -0.746938764633143 0.242695116587499
    endloop
  endfacet
  facet normal 0.5877852523505879 0.8090169943327246 -1.3817815873672504e-10
    outer loop
      vertex -0.635384063784941 -0.461633543996988 0.242695116609293
      vertex -0.242695116366411 -0.746938764700213 -0.242695116374567
      vertex -0.635384063824364 -0.461633544051249 -0.242695116374567
    endloop
  endfacet
  facet normal 0.9341723587306563 0.30353099951519696 0.18759247457429432
    outer loop
      vertex -0.635384063812465 -0.20644879693381 -0.655592710163857
      vertex -0.785377894998118 8.9003736811978e-11 -0.242695116374567
      vertex -0.635384063824364 -0.461633544051249 -0.242695116374567
    endloop
  endfacet
  facet normal 0.9510565163253276 0.3090169942820815 -6.812157943641312e-10
    outer loop
      vertex -0.635384063784941 -0.461633543996988 0.242695116609293
      vertex -0.785377894998118 8.9003736811978e-11 -0.242695116374567
      vertex -0.785377894624266 8.4290161404575e-12 0.242695116555694
    endloop
  endfacet
  facet normal 0.9510565161493649 0.3090169948236389 -1.1178856562593835e-10
    outer loop
      vertex -0.785377894998118 8.9003736811978e-11 -0.242695116374567
      vertex -0.635384063784941 -0.461633543996988 0.242695116609293
      vertex -0.635384063824364 -0.461633544051249 -0.242695116374567
    endloop
  endfacet
  facet normal 0.850650807724464 -0.2763932012799957 0.4472135972931871
    outer loop
      vertex -0.785377894998118 8.9003736811978e-11 -0.242695116374567
      vertex -0.392688947161543 0.54048996741276 -0.655592710389945
      vertex -0.635384064485281 0.461633544215785 -0.242695116374567
    endloop
  endfacet
  facet normal 0.8506508080287608 -0.2763932025364816 0.44721359593782917
    outer loop
      vertex -0.392688947161543 0.54048996741276 -0.655592710389945
      vertex -0.785377894998118 8.9003736811978e-11 -0.242695116374567
      vertex -0.392688947171039 0.127592373393489 -0.910777457363473
    endloop
  endfacet
  facet normal 0.8506508081390921 -0.27639320189320055 0.44721359612553613
    outer loop
      vertex -0.392688947171039 0.127592373393489 -0.910777457363473
      vertex -0.785377894998118 8.9003736811978e-11 -0.242695116374567
      vertex -0.635384063812465 -0.20644879693381 -0.655592710163857
    endloop
  endfacet
  facet normal 0.9510565165468846 -0.30901699360019885 -1.6496811698576588e-9
    outer loop
      vertex -0.635384063722077 0.461633543973439 0.242695116447175
      vertex -0.785377894998118 8.9003736811978e-11 -0.242695116374567
      vertex -0.635384064485281 0.461633544215785 -0.242695116374567
    endloop
  endfacet
  facet normal 0.9510565162793155 -0.3090169944236919 -7.83809336044389e-10
    outer loop
      vertex -0.785377894998118 8.9003736811978e-11 -0.242695116374567
      vertex -0.635384063722077 0.461633543973439 0.242695116447175
      vertex -0.785377894624266 8.4290161404575e-12 0.242695116555694
    endloop
  endfacet
  facet normal 0.5773502693645038 -0.794654471684051 0.1875924761211833
    outer loop
      vertex -0.392688947161543 0.54048996741276 -0.655592710389945
      vertex -0.242695117435797 0.746938764829487 -0.242695116374567
      vertex -0.635384064485281 0.461633544215785 -0.242695116374567
    endloop
  endfacet
  facet normal 0.5877852522425318 -0.8090169944112319 -1.3281315485014121e-9
    outer loop
      vertex -0.635384064485281 0.461633544215785 -0.242695116374567
      vertex -0.242695116377043 0.746938764460227 0.242695116325187
      vertex -0.635384063722077 0.461633543973439 0.242695116447175
    endloop
  endfacet
  facet normal 0.5877852527032098 -0.8090169940765297 -1.8975609842378767e-9
    outer loop
      vertex -0.242695116377043 0.746938764460227 0.242695116325187
      vertex -0.635384064485281 0.461633544215785 -0.242695116374567
      vertex -0.242695117435797 0.746938764829487 -0.242695116374567
    endloop
  endfacet
  facet normal 2.9611467998534524e-10 -0.8944271906885173 0.447213596122755
    outer loop
      vertex 1.5523785643637e-10 0.412897593833893 -0.910777457363473
      vertex -0.242695117435797 0.746938764829487 -0.242695116374567
      vertex -0.392688947161543 0.54048996741276 -0.655592710389945
    endloop
  endfacet
  facet normal 9.206121533328127e-15 -0.894427190731544 0.4472135960367018
    outer loop
      vertex -0.242695117435797 0.746938764829487 -0.242695116374567
      vertex 1.5523785643637e-10 0.412897593833893 -0.910777457363473
      vertex 0.242695115392127 0.746938764829492 -0.242695116374567
    endloop
  endfacet
  facet normal -5.504820075540285e-10 -0.894427190651553 0.4472135961966838
    outer loop
      vertex 0.242695115392127 0.746938764829492 -0.242695116374567
      vertex 1.5523785643637e-10 0.412897593833893 -0.910777457363473
      vertex 0.392688947508208 0.540489967327448 -0.655592710389945
    endloop
  endfacet
  facet normal -8.979995721436936e-11 -1 -7.60748632696649e-10
    outer loop
      vertex -0.242695117435797 0.746938764829487 -0.242695116374567
      vertex 0.242695116539742 0.746938764416639 0.242695116236325
      vertex -0.242695116377043 0.746938764460227 0.242695116325187
    endloop
  endfacet
  facet normal 1.0292756781899238e-14 -1 -8.505588829202965e-10
    outer loop
      vertex 0.242695116539742 0.746938764416639 0.242695116236325
      vertex -0.242695117435797 0.746938764829487 -0.242695116374567
      vertex 0.242695115392127 0.746938764829492 -0.242695116374567
    endloop
  endfacet
  facet normal -0.5773502692581423 -0.7946544724160696 0.18759247334765033
    outer loop
      vertex 0.392688947508208 0.540489967327448 -0.655592710389945
      vertex 0.635384062875697 0.461633544215785 -0.242695116374567
      vertex 0.242695115392127 0.746938764829492 -0.242695116374567
    endloop
  endfacet
  facet normal -0.5877852523505822 -0.8090169943327288 7.015924077686961e-10
    outer loop
      vertex 0.242695115392127 0.746938764829492 -0.242695116374567
      vertex 0.635384063871543 0.461633543859334 0.242695116214531
      vertex 0.242695116539742 0.746938764416639 0.242695116236325
    endloop
  endfacet
  facet normal -0.58778525227795 -0.809016994385499 6.118141741550067e-10
    outer loop
      vertex 0.635384063871543 0.461633543859334 0.242695116214531
      vertex 0.242695115392127 0.746938764829492 -0.242695116374567
      vertex 0.635384062875697 0.461633544215785 -0.242695116374567
    endloop
  endfacet
  facet normal -0.8506508087360436 -0.27639320180110727 0.4472135950469834
    outer loop
      vertex 0.785377894090905 8.9003736811978e-11 -0.242695116374567
      vertex 0.392688947508208 0.540489967327448 -0.655592710389945
      vertex 0.392688947425385 0.127592373316235 -0.910777457363473
    endloop
  endfacet
  facet normal -0.850650809025676 -0.2763932029970418 0.4472135937569415
    outer loop
      vertex 0.392688947508208 0.540489967327448 -0.655592710389945
      vertex 0.785377894090905 8.9003736811978e-11 -0.242695116374567
      vertex 0.635384062875697 0.461633544215785 -0.242695116374567
    endloop
  endfacet
  facet normal -0.8506508085211237 -0.27639320305418635 0.44721359468133987
    outer loop
      vertex 0.785377894090905 8.9003736811978e-11 -0.242695116374567
      vertex 0.392688947425385 0.127592373316235 -0.910777457363473
      vertex 0.635384063913272 -0.206448797170035 -0.655592710389945
    endloop
  endfacet
  facet normal -0.9510565161216152 -0.30901699490904344 1.7242958396140764e-9
    outer loop
      vertex 0.785377894090905 8.9003736811978e-11 -0.242695116374567
      vertex 0.635384063871543 0.461633543859334 0.242695116214531
      vertex 0.635384062875697 0.461633544215785 -0.242695116374567
    endloop
  endfacet
  facet normal -0.9510565162975818 -0.30901699436747443 1.1548564531747407e-9
    outer loop
      vertex 0.635384063871543 0.461633543859334 0.242695116214531
      vertex 0.785377894090905 8.9003736811978e-11 -0.242695116374567
      vertex 0.785377894752317 -1.32615679939261e-10 0.242695116268129
    endloop
  endfacet
  facet normal -0.9341723594572344 0.3035309983299398 0.1875924728738695
    outer loop
      vertex 0.635384063913272 -0.206448797170035 -0.655592710389945
      vertex 0.635384063619524 -0.461633544051246 -0.242695116374567
      vertex 0.785377894090905 8.9003736811978e-11 -0.242695116374567
    endloop
  endfacet
  facet normal -0.9510565165746351 0.3090169935147917 1.4370384245299078e-9
    outer loop
      vertex 0.635384063619524 -0.461633544051246 -0.242695116374567
      vertex 0.785377894752317 -1.32615679939261e-10 0.242695116268129
      vertex 0.785377894090905 8.9003736811978e-11 -0.242695116374567
    endloop
  endfacet
  facet normal -0.951056516307064 0.30901699433829094 5.711601133730273e-10
    outer loop
      vertex 0.785377894752317 -1.32615679939261e-10 0.242695116268129
      vertex 0.635384063619524 -0.461633544051246 -0.242695116374567
      vertex 0.63538406389158 -0.461633544111097 0.242695116376648
    endloop
  endfacet
  facet normal -0.5257311127235298 0.7236067976726573 0.4472135949145566
    outer loop
      vertex 0.635384063913272 -0.206448797170035 -0.655592710389945
      vertex 0.242695116595655 -0.746938764700213 -0.242695116374567
      vertex 0.635384063619524 -0.461633544051246 -0.242695116374567
    endloop
  endfacet
  facet normal -0.5257311118878825 0.7236067977367541 0.44721359579320824
    outer loop
      vertex 0.635384063913272 -0.206448797170035 -0.655592710389945
      vertex 1.27204186263448e-10 -0.668082340944911 -0.655592710370453
      vertex 0.242695116595655 -0.746938764700213 -0.242695116374567
    endloop
  endfacet
  facet normal -0.5257311115848873 0.7236067973197171 0.4472135968241804
    outer loop
      vertex 1.27204186263448e-10 -0.668082340944911 -0.655592710370453
      vertex 0.635384063913272 -0.206448797170035 -0.655592710389945
      vertex 0.242695116543153 -0.334041170171396 -0.910777457071341
    endloop
  endfacet
  facet normal -0.5877852523151775 0.8090169943584516 4.292030165377157e-10
    outer loop
      vertex 0.635384063619524 -0.461633544051246 -0.242695116374567
      vertex 0.24269511657217 -0.746938764633143 0.242695116498636
      vertex 0.63538406389158 -0.461633544111097 0.242695116376648
    endloop
  endfacet
  facet normal -0.5877852527758564 0.8090169940237489 -1.4022723657353865e-10
    outer loop
      vertex 0.24269511657217 -0.746938764633143 0.242695116498636
      vertex 0.635384063619524 -0.461633544051246 -0.242695116374567
      vertex 0.242695116595655 -0.746938764700213 -0.242695116374567
    endloop
  endfacet
  facet normal -3.104747788968729e-10 0.6070619976183554 0.7946544727412107
    outer loop
      vertex 0.242695116543153 -0.334041170171396 -0.910777457071341
      vertex -0.242695116405836 -0.334041170318248 -0.9107774571488
      vertex 1.27204186263448e-10 -0.668082340944911 -0.655592710370453
    endloop
  endfacet
  facet normal 0.5773502691523715 0.18759247440682542 0.7946544722428791
    outer loop
      vertex -0.242695116405836 -0.334041170318248 -0.9107774571488
      vertex -0.392688947171039 0.127592373393489 -0.910777457363473
      vertex -0.635384063812465 -0.20644879693381 -0.655592710163857
    endloop
  endfacet
  facet normal 0.3568220896976459 -0.491123473204725 0.7946544723155674
    outer loop
      vertex -0.392688947171039 0.127592373393489 -0.910777457363473
      vertex 1.5523785643637e-10 0.412897593833893 -0.910777457363473
      vertex -0.392688947161543 0.54048996741276 -0.655592710389945
    endloop
  endfacet
  facet normal -0.3568220897942668 -0.4911234731345277 0.7946544723155663
    outer loop
      vertex 1.5523785643637e-10 0.412897593833893 -0.910777457363473
      vertex 0.392688947425385 0.127592373316235 -0.910777457363473
      vertex 0.392688947508208 0.540489967327448 -0.655592710389945
    endloop
  endfacet
  facet normal -0.5773502686722878 0.18759247462160805 0.794654472540977
    outer loop
      vertex 0.392688947425385 0.127592373316235 -0.910777457363473
      vertex 0.242695116543153 -0.334041170171396 -0.910777457071341
      vertex 0.635384063913272 -0.206448797170035 -0.655592710389945
    endloop
  endfacet
  facet normal 3.7196373689008693e-10 5.119641624398455e-10 1
    outer loop
      vertex 1.5523785643637e-10 0.412897593833893 -0.910777457363473
      vertex 0.242695116543153 -0.334041170171396 -0.910777457071341
      vertex 0.392688947425385 0.127592373316235 -0.910777457363473
    endloop
  endfacet
  facet normal -1.595809597609491e-10 3.392548210109024e-10 1
    outer loop
      vertex 1.5523785643637e-10 0.412897593833893 -0.910777457363473
      vertex -0.242695116405836 -0.334041170318248 -0.9107774571488
      vertex 0.242695116543153 -0.334041170171396 -0.910777457071341
    endloop
  endfacet
  facet normal -2.733372796047917e-10 3.7621648993084186e-10 1
    outer loop
      vertex -0.242695116405836 -0.334041170318248 -0.9107774571488
      vertex 1.5523785643637e-10 0.412897593833893 -0.910777457363473
      vertex -0.392688947171039 0.127592373393489 -0.910777457363473
    endloop
  endfacet
  facet normal -3.4343537195102827e-11 0.9822469463127248 -0.18759247442082325
    outer loop
      vertex 3.15903966071483e-10 -0.668082341023173 0.655592710261453
      vertex 0.24269511657217 -0.746938764633143 0.242695116498636
      vertex -0.242695116344618 -0.746938764633143 0.242695116587499
    endloop
  endfacet
  facet normal 0.5257311119699997 0.7236067974695709 -0.4472135961289852
    outer loop
      vertex 3.15903966071483e-10 -0.668082341023173 0.655592710261453
      vertex -0.635384063473807 -0.206448796865661 0.655592710503313
      vertex -0.242695115977688 -0.33404117037876 0.910777457196912
    endloop
  endfacet
  facet normal 0.5257311119699963 0.7236067974695665 -0.44721359612899636
    outer loop
      vertex -0.242695116344618 -0.746938764633143 0.242695116587499
      vertex -0.635384063473807 -0.206448796865661 0.655592710503313
      vertex 3.15903966071483e-10 -0.668082341023173 0.655592710261453
    endloop
  endfacet
  facet normal 0.5257311119699991 0.7236067974695661 -0.44721359612899325
    outer loop
      vertex -0.635384063473807 -0.206448796865661 0.655592710503313
      vertex -0.242695116344618 -0.746938764633143 0.242695116587499
      vertex -0.635384063784941 -0.461633543996988 0.242695116609293
    endloop
  endfacet
  facet normal -0.5257311121811729 0.7236067975790148 -0.44721359570365216
    outer loop
      vertex 0.635384063900521 -0.206448797030801 0.655592710290159
      vertex 3.15903966071483e-10 -0.668082341023173 0.655592710261453
      vertex 0.242695116622352 -0.334041170421358 0.910777457322721
    endloop
  endfacet
  facet normal -0.5257311121752807 0.7236067975933383 -0.4472135956874031
    outer loop
      vertex 0.24269511657217 -0.746938764633143 0.242695116498636
      vertex 0.635384063900521 -0.206448797030801 0.655592710290159
      vertex 0.63538406389158 -0.461633544111097 0.242695116376648
    endloop
  endfacet
  facet normal -0.5257311121907192 0.7236067975921542 -0.4472135956711698
    outer loop
      vertex 0.635384063900521 -0.206448797030801 0.655592710290159
      vertex 0.24269511657217 -0.746938764633143 0.242695116498636
      vertex 3.15903966071483e-10 -0.668082341023173 0.655592710261453
    endloop
  endfacet
  facet normal -0.9341723589774074 0.3035309990242113 -0.1875924741399562
    outer loop
      vertex 0.635384063900521 -0.206448797030801 0.655592710290159
      vertex 0.785377894752317 -1.32615679939261e-10 0.242695116268129
      vertex 0.63538406389158 -0.461633544111097 0.242695116376648
    endloop
  endfacet
  facet normal -0.8506508083749178 -0.27639320230198855 -0.4472135954243238
    outer loop
      vertex 0.785377894752317 -1.32615679939261e-10 0.242695116268129
      vertex 0.392688947440219 0.540489967424002 0.655592710203434
      vertex 0.635384063871543 0.461633543859334 0.242695116214531
    endloop
  endfacet
  facet normal -0.8506508083749186 -0.2763932023019917 -0.4472135954243204
    outer loop
      vertex 0.392688947440219 0.540489967424002 0.655592710203434
      vertex 0.785377894752317 -1.32615679939261e-10 0.242695116268129
      vertex 0.392688947449781 0.127592373468079 0.910777457214202
    endloop
  endfacet
  facet normal -0.8506508083673855 -0.27639320234591347 -0.4472135954115042
    outer loop
      vertex 0.392688947449781 0.127592373468079 0.910777457214202
      vertex 0.785377894752317 -1.32615679939261e-10 0.242695116268129
      vertex 0.635384063900521 -0.206448797030801 0.655592710290159
    endloop
  endfacet
  facet normal -0.5773502692621614 -0.7946544722572434 -0.18759247400807888
    outer loop
      vertex 0.392688947440219 0.540489967424002 0.655592710203434
      vertex 0.242695116539742 0.746938764416639 0.242695116236325
      vertex 0.635384063871543 0.461633543859334 0.242695116214531
    endloop
  endfacet
  facet normal -1.621945551034005e-10 -0.8944271910027988 -0.4472135954941919
    outer loop
      vertex -0.242695116377043 0.746938764460227 0.242695116325187
      vertex 1.92371678114955e-10 0.412897593966196 0.910777457235996
      vertex -0.392688947156272 0.540489967479739 0.655592710347217
    endloop
  endfacet
  facet normal -1.621924007173988e-10 -0.8944271910027987 -0.4472135954941925
    outer loop
      vertex 0.242695116539742 0.746938764416639 0.242695116236325
      vertex 1.92371678114955e-10 0.412897593966196 0.910777457235996
      vertex -0.242695116377043 0.746938764460227 0.242695116325187
    endloop
  endfacet
  facet normal -1.1809528969359203e-10 -0.8944271910092063 -0.4472135954813772
    outer loop
      vertex 1.92371678114955e-10 0.412897593966196 0.910777457235996
      vertex 0.242695116539742 0.746938764416639 0.242695116236325
      vertex 0.392688947440219 0.540489967424002 0.655592710203434
    endloop
  endfacet
  facet normal 0.5773502690860568 -0.7946544723325832 -0.18759247423092829
    outer loop
      vertex -0.392688947156272 0.540489967479739 0.655592710347217
      vertex -0.635384063722077 0.461633543973439 0.242695116447175
      vertex -0.242695116377043 0.746938764460227 0.242695116325187
    endloop
  endfacet
  facet normal 0.8506508080395103 -0.2763932016898729 -0.4472135964406154
    outer loop
      vertex -0.785377894624266 8.4290161404575e-12 0.242695116555694
      vertex -0.392688947156272 0.540489967479739 0.655592710347217
      vertex -0.392688946673306 0.1275923736596 0.910777457065852
    endloop
  endfacet
  facet normal 0.850650808200366 -0.2763932023540695 -0.4472135957241535
    outer loop
      vertex -0.392688947156272 0.540489967479739 0.655592710347217
      vertex -0.785377894624266 8.4290161404575e-12 0.242695116555694
      vertex -0.635384063722077 0.461633543973439 0.242695116447175
    endloop
  endfacet
  facet normal 0.8506508078522493 -0.2763932027816879 -0.447213596122028
    outer loop
      vertex -0.785377894624266 8.4290161404575e-12 0.242695116555694
      vertex -0.392688946673306 0.1275923736596 0.910777457065852
      vertex -0.635384063473807 -0.206448796865661 0.655592710503313
    endloop
  endfacet
  facet normal 0.9341723588575502 0.30353099894654456 -0.187592474862488
    outer loop
      vertex -0.635384063473807 -0.206448796865661 0.655592710503313
      vertex -0.635384063784941 -0.461633543996988 0.242695116609293
      vertex -0.785377894624266 8.4290161404575e-12 0.242695116555694
    endloop
  endfacet
  facet normal 0.5773502685879535 0.18759247340853458 -0.7946544728886173
    outer loop
      vertex -0.392688946673306 0.1275923736596 0.910777457065852
      vertex -0.242695115977688 -0.33404117037876 0.910777457196912
      vertex -0.635384063473807 -0.206448796865661 0.655592710503313
    endloop
  endfacet
  facet normal 2.592434434110549e-10 0.6070619980953866 -0.7946544723767914
    outer loop
      vertex -0.242695115977688 -0.33404117037876 0.910777457196912
      vertex 0.242695116622352 -0.334041170421358 0.910777457322721
      vertex 3.15903966071483e-10 -0.668082341023173 0.655592710261453
    endloop
  endfacet
  facet normal -0.5773502692891237 0.18759247390052988 -0.7946544722630429
    outer loop
      vertex 0.242695116622352 -0.334041170421358 0.910777457322721
      vertex 0.392688947449781 0.127592373468079 0.910777457214202
      vertex 0.635384063900521 -0.206448797030801 0.655592710290159
    endloop
  endfacet
  facet normal -0.35682208992121167 -0.49112347326625705 -0.7946544721771511
    outer loop
      vertex 0.392688947449781 0.127592373468079 0.910777457214202
      vertex 1.92371678114955e-10 0.412897593966196 0.910777457235996
      vertex 0.392688947440219 0.540489967424002 0.655592710203434
    endloop
  endfacet
  facet normal 0.35682208990566344 -0.49112347267141815 -0.7946544725517635
    outer loop
      vertex 1.92371678114955e-10 0.412897593966196 0.910777457235996
      vertex -0.392688946673306 0.1275923736596 0.910777457065852
      vertex -0.392688947156272 0.540489967479739 0.655592710347217
    endloop
  endfacet
  facet normal -1.830741904201068e-10 -1.7559159968510162e-10 -1
    outer loop
      vertex 0.242695116622352 -0.334041170421358 0.910777457322721
      vertex 1.92371678114955e-10 0.412897593966196 0.910777457235996
      vertex 0.392688947449781 0.127592373468079 0.910777457214202
    endloop
  endfacet
  facet normal 2.591912864892688e-10 -3.189083527305424e-11 -1
    outer loop
      vertex -0.242695115977688 -0.33404117037876 0.910777457196912
      vertex 1.92371678114955e-10 0.412897593966196 0.910777457235996
      vertex 0.242695116622352 -0.334041170421358 0.910777457322721
    endloop
  endfacet
  facet normal 5.174055012821897e-10 -1.157897194217249e-10 -1
    outer loop
      vertex 1.92371678114955e-10 0.412897593966196 0.910777457235996
      vertex -0.242695115977688 -0.33404117037876 0.910777457196912
      vertex -0.392688946673306 0.1275923736596 0.910777457065852
    endloop
  endfacet
endsolid OpenSCAD_Model
