solid OpenSCAD_Model
  facet normal 0.5257311120565946 0.723606797554589 0.4472135958896248
    outer loop
      vertex -0.635384063450355 -0.206448797019375 -0.6555927100964
      vertex -0.242695116044706 -0.746938764730164 -0.242695116349596
      vertex 4.23935958617427e-10 -0.668082340982976 -0.655592710302996
    endloop
  endfacet
  facet normal 0.5257311120565931 0.7236067975545889 0.4472135958896263
    outer loop
      vertex -0.242695116044706 -0.746938764730164 -0.242695116349596
      vertex -0.635384063450355 -0.206448797019375 -0.6555927100964
      vertex -0.635384063462253 -0.461633544110556 -0.242695116349596
    endloop
  endfacet
  facet normal 0.5257311120565965 0.7236067975545913 0.4472135958896186
    outer loop
      vertex -0.635384063450355 -0.206448797019375 -0.6555927100964
      vertex 4.23935958617427e-10 -0.668082340982976 -0.655592710302996
      vertex -0.242695116084131 -0.334041170390685 -0.910777457055085
    endloop
  endfacet
  facet normal 0 0.9822469462722506 0.1875924746327481
    outer loop
      vertex 0.242695116867415 -0.746938764730164 -0.242695116349596
      vertex 4.23935958617427e-10 -0.668082340982976 -0.655592710302996
      vertex -0.242695116044706 -0.746938764730164 -0.242695116349596
    endloop
  endfacet
  facet normal -2.5296633158023184e-20 1 -1.3817751506334772e-10
    outer loop
      vertex 0.242695116867415 -0.746938764730164 -0.242695116349596
      vertex -0.242695116022914 -0.746938764663094 0.242695116562525
      vertex 0.242695116843929 -0.746938764663094 0.242695116473663
    endloop
  endfacet
  facet normal -8.920323540683285e-27 1 -1.3817751503805109e-10
    outer loop
      vertex -0.242695116022914 -0.746938764663094 0.242695116562525
      vertex 0.242695116867415 -0.746938764730164 -0.242695116349596
      vertex -0.242695116044706 -0.746938764730164 -0.242695116349596
    endloop
  endfacet
  facet normal 0.5877852523505895 0.8090169943327233 -1.3817708314367467e-10
    outer loop
      vertex -0.242695116044706 -0.746938764730164 -0.242695116349596
      vertex -0.63538406342283 -0.461633544056295 0.242695116584319
      vertex -0.242695116022914 -0.746938764663094 0.242695116562525
    endloop
  endfacet
  facet normal 0.5877852523505888 0.809016994332724 -1.3817811683043056e-10
    outer loop
      vertex -0.63538406342283 -0.461633544056295 0.242695116584319
      vertex -0.242695116044706 -0.746938764730164 -0.242695116349596
      vertex -0.635384063462253 -0.461633544110556 -0.242695116349596
    endloop
  endfacet
  facet normal 0.9341723587306561 0.30353099951519874 0.187592474574293
    outer loop
      vertex -0.635384063450355 -0.206448797019375 -0.6555927100964
      vertex -0.785377894620574 -1.7804325599543e-11 -0.242695116349596
      vertex -0.635384063462253 -0.461633544110556 -0.242695116349596
    endloop
  endfacet
  facet normal 0.9510565161351436 0.3090169948674071 -6.57695912699086e-11
    outer loop
      vertex -0.63538406342283 -0.461633544056295 0.242695116584319
      vertex -0.785377894620574 -1.7804325599543e-11 -0.242695116349596
      vertex -0.785377894597902 1.57264680911977e-11 0.24269511653072
    endloop
  endfacet
  facet normal 0.9510565161493644 0.30901699482364064 -1.1178838204107284e-10
    outer loop
      vertex -0.785377894620574 -1.7804325599543e-11 -0.242695116349596
      vertex -0.63538406342283 -0.461633544056295 0.242695116584319
      vertex -0.635384063462253 -0.461633544110556 -0.242695116349596
    endloop
  endfacet
  facet normal 0.8506508077244631 -0.2763932012799971 0.44721359729318777
    outer loop
      vertex -0.785377894620574 -1.7804325599543e-11 -0.242695116349596
      vertex -0.392688946824404 0.540489967250337 -0.655592710322488
      vertex -0.63538406412317 0.461633544061476 -0.242695116349596
    endloop
  endfacet
  facet normal 0.8506508080287601 -0.2763932025364841 0.4472135959378286
    outer loop
      vertex -0.392688946824404 0.540489967250337 -0.655592710322488
      vertex -0.785377894620574 -1.7804325599543e-11 -0.242695116349596
      vertex -0.392688946833901 0.127592373273552 -0.910777457269759
    endloop
  endfacet
  facet normal 0.8506508081390919 -0.27639320189320116 0.4472135961255361
    outer loop
      vertex -0.392688946833901 0.127592373273552 -0.910777457269759
      vertex -0.785377894620574 -1.7804325599543e-11 -0.242695116349596
      vertex -0.635384063450355 -0.206448797019375 -0.6555927100964
    endloop
  endfacet
  facet normal 0.9510565165698938 -0.3090169935293843 5.1384819401839686e-11
    outer loop
      vertex -0.785377894597902 1.57264680911977e-11 0.24269511653072
      vertex -0.63538406412317 0.461633544061476 -0.242695116349596
      vertex -0.635384064145233 0.461633544074286 0.242695116422201
    endloop
  endfacet
  facet normal 0.9510565165468842 -0.30901699360020046 -2.3075736974520696e-11
    outer loop
      vertex -0.63538406412317 0.461633544061476 -0.242695116349596
      vertex -0.785377894597902 1.57264680911977e-11 0.24269511653072
      vertex -0.785377894620574 -1.7804325599543e-11 -0.242695116349596
    endloop
  endfacet
  facet normal 0.5773502693645055 -0.7946544716840493 0.18759247612118532
    outer loop
      vertex -0.392688946824404 0.540489967250337 -0.655592710322488
      vertex -0.242695117114093 0.746938764645822 -0.242695116349596
      vertex -0.63538406412317 0.461633544061476 -0.242695116349596
    endloop
  endfacet
  facet normal 0.5877852527404384 -0.8090169940494817 4.8068137337471685e-11
    outer loop
      vertex -0.63538406412317 0.461633544061476 -0.242695116349596
      vertex -0.242695117191786 0.746938764645822 0.242695116300213
      vertex -0.635384064145233 0.461633544074286 0.242695116422201
    endloop
  endfacet
  facet normal 0.5877852527032118 -0.8090169940765284 9.408263956516464e-11
    outer loop
      vertex -0.242695117191786 0.746938764645822 0.242695116300213
      vertex -0.63538406412317 0.461633544061476 -0.242695116349596
      vertex -0.242695117114093 0.746938764645822 -0.242695116349596
    endloop
  endfacet
  facet normal 2.9611664703725584e-10 -0.8944271906885167 0.4472135961227562
    outer loop
      vertex 4.51969628787464e-10 0.412897593684599 -0.910777457269759
      vertex -0.242695117114093 0.746938764645822 -0.242695116349596
      vertex -0.392688946824404 0.540489967250337 -0.655592710322488
    endloop
  endfacet
  facet normal 9.206121534275383e-15 -0.8944271907315438 0.44721359603670235
    outer loop
      vertex -0.242695117114093 0.746938764645822 -0.242695116349596
      vertex 4.51969628787464e-10 0.412897593684599 -0.910777457269759
      vertex 0.242695115663887 0.746938764645827 -0.242695116349596
    endloop
  endfacet
  facet normal -5.50484414122941e-10 -0.8944271906515523 0.4472135961966851
    outer loop
      vertex 0.242695115663887 0.746938764645827 -0.242695116349596
      vertex 4.51969628787464e-10 0.412897593684599 -0.910777457269759
      vertex 0.392688947764533 0.540489967165025 -0.655592710322488
    endloop
  endfacet
  facet normal 1.0292756783930689e-14 -1 1.6474889803392355e-24
    outer loop
      vertex -0.242695117114093 0.746938764645822 -0.242695116349596
      vertex 0.242695115540915 0.746938764645827 0.242695116211351
      vertex -0.242695117191786 0.746938764645822 0.242695116300213
    endloop
  endfacet
  facet normal 1.0292756782970543e-14 -1 2.6076355421970074e-24
    outer loop
      vertex 0.242695115540915 0.746938764645827 0.242695116211351
      vertex -0.242695117114093 0.746938764645822 -0.242695116349596
      vertex 0.242695115663887 0.746938764645827 -0.242695116349596
    endloop
  endfacet
  facet normal -0.5773502692581439 -0.7946544724160678 0.18759247334765244
    outer loop
      vertex 0.392688947764533 0.540489967165025 -0.655592710322488
      vertex 0.63538406310705 0.461633544061476 -0.242695116349596
      vertex 0.242695115663887 0.746938764645827 -0.242695116349596
    endloop
  endfacet
  facet normal -0.5877852522779468 -0.8090169943855015 -1.4891342983593313e-10
    outer loop
      vertex 0.242695115663887 0.746938764645827 -0.242695116349596
      vertex 0.635384062966452 0.461633544074286 0.242695116189557
      vertex 0.242695115540915 0.746938764645827 0.242695116211351
    endloop
  endfacet
  facet normal -0.5877852522779521 -0.8090169943854975 -1.489068490300505e-10
    outer loop
      vertex 0.635384062966452 0.461633544074286 0.242695116189557
      vertex 0.242695115663887 0.746938764645827 -0.242695116349596
      vertex 0.63538406310705 0.461633544061476 -0.242695116349596
    endloop
  endfacet
  facet normal -0.8506508087360437 -0.2763932018011094 0.44721359504698216
    outer loop
      vertex 0.785377894306824 -1.7804325599543e-11 -0.242695116349596
      vertex 0.392688947764533 0.540489967165025 -0.655592710322488
      vertex 0.392688947681711 0.127592373196298 -0.910777457269759
    endloop
  endfacet
  facet normal -0.8506508090256757 -0.2763932029970419 0.4472135937569425
    outer loop
      vertex 0.392688947764533 0.540489967165025 -0.655592710322488
      vertex 0.785377894306824 -1.7804325599543e-11 -0.242695116349596
      vertex 0.63538406310705 0.461633544061476 -0.242695116349596
    endloop
  endfacet
  facet normal -0.8506508085211243 -0.27639320305418535 0.4472135946813395
    outer loop
      vertex 0.785377894306824 -1.7804325599543e-11 -0.242695116349596
      vertex 0.392688947681711 0.127592373196298 -0.910777457269759
      vertex 0.635384064144625 -0.2064487972556 -0.655592710322488
    endloop
  endfacet
  facet normal -0.9510565161073992 -0.30901699495279616 -2.6732742868627105e-10
    outer loop
      vertex 0.63538406310705 0.461633544061476 -0.242695116349596
      vertex 0.785377894182971 1.57313181139103e-11 0.242695116243156
      vertex 0.635384062966452 0.461633544074286 0.242695116189557
    endloop
  endfacet
  facet normal -0.9510565161216152 -0.3090169949090436 -2.2132327489338725e-10
    outer loop
      vertex 0.785377894182971 1.57313181139103e-11 0.242695116243156
      vertex 0.63538406310705 0.461633544061476 -0.242695116349596
      vertex 0.785377894306824 -1.7804325599543e-11 -0.242695116349596
    endloop
  endfacet
  facet normal -0.9341723594572342 0.3035309983299414 0.18759247287386857
    outer loop
      vertex 0.635384064144625 -0.2064487972556 -0.655592710322488
      vertex 0.635384063850876 -0.461633544110554 -0.242695116349596
      vertex 0.785377894306824 -1.7804325599543e-11 -0.242695116349596
    endloop
  endfacet
  facet normal -0.9510565165746345 0.3090169935147933 -2.6402328058209704e-10
    outer loop
      vertex 0.635384063850876 -0.461633544110554 -0.242695116349596
      vertex 0.785377894182971 1.57313181139103e-11 0.242695116243156
      vertex 0.785377894306824 -1.7804325599543e-11 -0.242695116349596
    endloop
  endfacet
  facet normal -0.9510565165976433 0.30901699344397976 -1.895654217763148e-10
    outer loop
      vertex 0.785377894182971 1.57313181139103e-11 0.242695116243156
      vertex 0.635384063850876 -0.461633544110554 -0.242695116349596
      vertex 0.635384063771758 -0.461633544056293 0.242695116351674
    endloop
  endfacet
  facet normal -0.5257311127235313 0.7236067976726566 0.4472135949145561
    outer loop
      vertex 0.635384064144625 -0.2064487972556 -0.655592710322488
      vertex 0.242695116867415 -0.746938764730164 -0.242695116349596
      vertex 0.635384063850876 -0.461633544110554 -0.242695116349596
    endloop
  endfacet
  facet normal -0.5257311118878826 0.7236067977367534 0.44721359579320935
    outer loop
      vertex 0.635384064144625 -0.2064487972556 -0.655592710322488
      vertex 4.23935958617427e-10 -0.668082340982976 -0.655592710302996
      vertex 0.242695116867415 -0.746938764730164 -0.242695116349596
    endloop
  endfacet
  facet normal -0.5257311115848881 0.7236067973197173 0.44721359682417927
    outer loop
      vertex 4.23935958617427e-10 -0.668082340982976 -0.655592710302996
      vertex 0.635384064144625 -0.2064487972556 -0.655592710322488
      vertex 0.242695116814913 -0.334041170243832 -0.910777456977627
    endloop
  endfacet
  facet normal -0.5877852528130876 0.8090169939966988 -1.862469669876533e-10
    outer loop
      vertex 0.635384063850876 -0.461633544110554 -0.242695116349596
      vertex 0.242695116843929 -0.746938764663094 0.242695116473663
      vertex 0.635384063771758 -0.461633544056293 0.242695116351674
    endloop
  endfacet
  facet normal -0.5877852527758578 0.8090169940237479 -1.4022841296337079e-10
    outer loop
      vertex 0.242695116843929 -0.746938764663094 0.242695116473663
      vertex 0.635384063850876 -0.461633544110554 -0.242695116349596
      vertex 0.242695116867415 -0.746938764730164 -0.242695116349596
    endloop
  endfacet
  facet normal -3.104742110004043e-10 0.6070619976183554 0.7946544727412108
    outer loop
      vertex 0.242695116814913 -0.334041170243832 -0.910777456977627
      vertex -0.242695116084131 -0.334041170390685 -0.910777457055085
      vertex 4.23935958617427e-10 -0.668082340982976 -0.655592710302996
    endloop
  endfacet
  facet normal 0.5773502691523703 0.18759247440682753 0.7946544722428796
    outer loop
      vertex -0.242695116084131 -0.334041170390685 -0.910777457055085
      vertex -0.392688946833901 0.127592373273552 -0.910777457269759
      vertex -0.635384063450355 -0.206448797019375 -0.6555927100964
    endloop
  endfacet
  facet normal 0.35682208969764684 -0.4911234732047265 0.7946544723155661
    outer loop
      vertex -0.392688946833901 0.127592373273552 -0.910777457269759
      vertex 4.51969628787464e-10 0.412897593684599 -0.910777457269759
      vertex -0.392688946824404 0.540489967250337 -0.655592710322488
    endloop
  endfacet
  facet normal -0.3568220897942673 -0.49112347313452936 0.794654472315565
    outer loop
      vertex 4.51969628787464e-10 0.412897593684599 -0.910777457269759
      vertex 0.392688947681711 0.127592373196298 -0.910777457269759
      vertex 0.392688947764533 0.540489967165025 -0.655592710322488
    endloop
  endfacet
  facet normal -0.5773502686722893 0.1875924746216084 0.7946544725409759
    outer loop
      vertex 0.392688947681711 0.127592373196298 -0.910777457269759
      vertex 0.242695116814913 -0.334041170243832 -0.910777456977627
      vertex 0.635384064144625 -0.2064487972556 -0.655592710322488
    endloop
  endfacet
  facet normal 3.7196359556672637e-10 5.119639679249282e-10 1
    outer loop
      vertex 4.51969628787464e-10 0.412897593684599 -0.910777457269759
      vertex 0.242695116814913 -0.334041170243832 -0.910777456977627
      vertex 0.392688947681711 0.127592373196298 -0.910777457269759
    endloop
  endfacet
  facet normal -1.5957867249808579e-10 3.3925541559148276e-10 1
    outer loop
      vertex 4.51969628787464e-10 0.412897593684599 -0.910777457269759
      vertex -0.242695116084131 -0.334041170390685 -0.910777457055085
      vertex 0.242695116814913 -0.334041170243832 -0.910777456977627
    endloop
  endfacet
  facet normal -2.733385518876228e-10 3.7621824107792887e-10 1
    outer loop
      vertex -0.242695116084131 -0.334041170390685 -0.910777457055085
      vertex 4.51969628787464e-10 0.412897593684599 -0.910777457269759
      vertex -0.392688946833901 0.127592373273552 -0.910777457269759
    endloop
  endfacet
  facet normal -8.188152825594901e-11 0.8944271906604327 -0.4472135961789243
    outer loop
      vertex 0.242695116843929 -0.746938764663094 0.242695116473663
      vertex 4.48997103756075e-10 -0.412897593751903 0.910777457072615
      vertex 0.392688947648656 -0.540489967444551 0.655592710099702
    endloop
  endfacet
  facet normal -8.187287749232784e-11 0.894427190660434 -0.44721359617892165
    outer loop
      vertex -0.242695116022914 -0.746938764663094 0.242695116562525
      vertex 4.48997103756075e-10 -0.412897593751903 0.910777457072615
      vertex 0.242695116843929 -0.746938764663094 0.242695116473663
    endloop
  endfacet
  facet normal -8.18674892390128e-11 0.8944271906604333 -0.4472135961789232
    outer loop
      vertex 4.48997103756075e-10 -0.412897593751903 0.910777457072615
      vertex -0.242695116022914 -0.746938764663094 0.242695116562525
      vertex -0.392688946795668 -0.540489967341254 0.65559271045008
    endloop
  endfacet
  facet normal 0.5773502691555902 0.7946544721392051 -0.18759247483608904
    outer loop
      vertex -0.63538406342283 -0.461633544056295 0.242695116584319
      vertex -0.392688946795668 -0.540489967341254 0.65559271045008
      vertex -0.242695116022914 -0.746938764663094 0.242695116562525
    endloop
  endfacet
  facet normal -0.5773502697076242 0.7946544718491435 -0.18759247436582438
    outer loop
      vertex 0.392688947648656 -0.540489967444551 0.655592710099702
      vertex 0.635384063771758 -0.461633544056293 0.242695116351674
      vertex 0.242695116843929 -0.746938764663094 0.242695116473663
    endloop
  endfacet
  facet normal -0.8506508086366441 0.27639320131677814 -0.4472135955353845
    outer loop
      vertex 0.785377894182971 1.57313181139103e-11 0.242695116243156
      vertex 0.392688947145612 -0.127592373365748 0.910777457165301
      vertex 0.635384063195731 0.206448797118656 0.655592710150202
    endloop
  endfacet
  facet normal -0.850650808646185 0.2763932013198748 -0.44721359551532236
    outer loop
      vertex 0.392688947648656 -0.540489967444551 0.655592710099702
      vertex 0.785377894182971 1.57313181139103e-11 0.242695116243156
      vertex 0.635384063771758 -0.461633544056293 0.242695116351674
    endloop
  endfacet
  facet normal -0.8506508086402889 0.2763932012955278 -0.44721359554158524
    outer loop
      vertex 0.785377894182971 1.57313181139103e-11 0.242695116243156
      vertex 0.392688947648656 -0.540489967444551 0.655592710099702
      vertex 0.392688947145612 -0.127592373365748 0.910777457165301
    endloop
  endfacet
  facet normal -0.9341723587972722 -0.30353099969888037 -0.18759247394535494
    outer loop
      vertex 0.635384063195731 0.206448797118656 0.655592710150202
      vertex 0.635384062966452 0.461633544074286 0.242695116189557
      vertex 0.785377894182971 1.57313181139103e-11 0.242695116243156
    endloop
  endfacet
  facet normal -0.5257311121579774 -0.7236067978252609 -0.44721359533248534
    outer loop
      vertex -6.97184917959369e-10 0.668082341118022 0.655592710185465
      vertex 0.635384063195731 0.206448797118656 0.655592710150202
      vertex 0.242695115954478 0.334041170601199 0.910777457111699
    endloop
  endfacet
  facet normal -0.5257311121655069 -0.7236067978356244 -0.44721359530686566
    outer loop
      vertex 0.242695115540915 0.746938764645827 0.242695116211351
      vertex 0.635384063195731 0.206448797118656 0.655592710150202
      vertex -6.97184917959369e-10 0.668082341118022 0.655592710185465
    endloop
  endfacet
  facet normal -0.5257311121852286 -0.7236067978341116 -0.44721359528612903
    outer loop
      vertex 0.635384063195731 0.206448797118656 0.655592710150202
      vertex 0.242695115540915 0.746938764645827 0.242695116211351
      vertex 0.635384062966452 0.461633544074286 0.242695116189557
    endloop
  endfacet
  facet normal -3.4333065833217814e-11 -0.9822469463664314 -0.18759247413961178
    outer loop
      vertex -6.97184917959369e-10 0.668082341118022 0.655592710185465
      vertex -0.242695117191786 0.746938764645822 0.242695116300213
      vertex 0.242695115540915 0.746938764645827 0.242695116211351
    endloop
  endfacet
  facet normal 0.5257311123524128 -0.7236067973910375 -0.4472135958065014
    outer loop
      vertex -0.635384063808863 0.206448797094727 0.655592710382849
      vertex -6.97184917959369e-10 0.668082341118022 0.655592710185465
      vertex -0.242695116683248 0.334041170597034 0.910777457200564
    endloop
  endfacet
  facet normal 0.5257311123448835 -0.7236067974093288 -0.44721359578575665
    outer loop
      vertex -0.242695117191786 0.746938764645822 0.242695116300213
      vertex -0.635384063808863 0.206448797094727 0.655592710382849
      vertex -0.635384064145233 0.461633544074286 0.242695116422201
    endloop
  endfacet
  facet normal 0.5257311123646032 -0.7236067974078163 -0.4472135957650221
    outer loop
      vertex -0.635384063808863 0.206448797094727 0.655592710382849
      vertex -0.242695117191786 0.746938764645822 0.242695116300213
      vertex -6.97184917959369e-10 0.668082341118022 0.655592710185465
    endloop
  endfacet
  facet normal 0.9341723591668848 -0.30353099829554475 -0.1875924743754044
    outer loop
      vertex -0.635384063808863 0.206448797094727 0.655592710382849
      vertex -0.785377894597902 1.57264680911977e-11 0.24269511653072
      vertex -0.635384064145233 0.461633544074286 0.242695116422201
    endloop
  endfacet
  facet normal 0.8506508077330256 0.27639320347405627 -0.4472135959208979
    outer loop
      vertex -0.392688946854022 -0.127592373033984 0.910777457016951
      vertex -0.785377894597902 1.57264680911977e-11 0.24269511653072
      vertex -0.635384063808863 0.206448797094727 0.655592710382849
    endloop
  endfacet
  facet normal 0.8506508079481726 0.27639320221965297 -0.4472135962869279
    outer loop
      vertex -0.392688946795668 -0.540489967341254 0.65559271045008
      vertex -0.785377894597902 1.57264680911977e-11 0.24269511653072
      vertex -0.392688946854022 -0.127592373033984 0.910777457016951
    endloop
  endfacet
  facet normal 0.8506508080360196 0.276393202582386 -0.4472135958956516
    outer loop
      vertex -0.785377894597902 1.57264680911977e-11 0.24269511653072
      vertex -0.392688946795668 -0.540489967341254 0.65559271045008
      vertex -0.63538406342283 -0.461633544056295 0.242695116584319
    endloop
  endfacet
  facet normal 0.3568220896204117 0.4911234724365803 -0.7946544728249874
    outer loop
      vertex -0.392688946854022 -0.127592373033984 0.910777457016951
      vertex 4.48997103756075e-10 -0.412897593751903 0.910777457072615
      vertex -0.392688946795668 -0.540489967341254 0.65559271045008
    endloop
  endfacet
  facet normal -0.35682208981965485 0.49112347293669817 -0.7946544724264317
    outer loop
      vertex 4.48997103756075e-10 -0.412897593751903 0.910777457072615
      vertex 0.392688947145612 -0.127592373365748 0.910777457165301
      vertex 0.392688947648656 -0.540489967444551 0.655592710099702
    endloop
  endfacet
  facet normal -0.5773502693419966 -0.18759247462016046 -0.7946544720547469
    outer loop
      vertex 0.392688947145612 -0.127592373365748 0.910777457165301
      vertex 0.242695115954478 0.334041170601199 0.910777457111699
      vertex 0.635384063195731 0.206448797118656 0.655592710150202
    endloop
  endfacet
  facet normal -1.4027595093861462e-10 -0.6070619981733689 -0.7946544723172183
    outer loop
      vertex 0.242695115954478 0.334041170601199 0.910777457111699
      vertex -0.242695116683248 0.334041170597034 0.910777457200564
      vertex -6.97184917959369e-10 0.668082341118022 0.655592710185465
    endloop
  endfacet
  facet normal 0.5773502690758311 -0.18759247298571577 -0.7946544726339674
    outer loop
      vertex -0.242695116683248 0.334041170597034 0.910777457200564
      vertex -0.392688946854022 -0.127592373033984 0.910777457016951
      vertex -0.635384063808863 0.206448797094727 0.655592710382849
    endloop
  endfacet
  facet normal 2.5920141505810917e-10 -3.1894126013593004e-11 -1
    outer loop
      vertex 4.48997103756075e-10 -0.412897593751903 0.910777457072615
      vertex 0.242695115954478 0.334041170601199 0.910777457111699
      vertex 0.392688947145612 -0.127592373365748 0.910777457165301
    endloop
  endfacet
  facet normal -1.8307955223184262e-10 1.1181167098741506e-10 -1
    outer loop
      vertex 4.48997103756075e-10 -0.412897593751903 0.910777457072615
      vertex -0.242695116683248 0.334041170597034 0.910777457200564
      vertex 0.242695115954478 0.334041170601199 0.910777457111699
    endloop
  endfacet
  facet normal 3.4846830649180755e-10 2.8452204028626343e-10 -1
    outer loop
      vertex -0.242695116683248 0.334041170597034 0.910777457200564
      vertex 4.48997103756075e-10 -0.412897593751903 0.910777457072615
      vertex -0.392688946854022 -0.127592373033984 0.910777457016951
    endloop
  endfacet
endsolid OpenSCAD_Model
