solid OpenSCAD_Model
  facet normal 0.8555996772072159 0.4939807038858519 -0.15470053830334993
    outer loop
      vertex -0.631344180527968 -0.364506732580359 -0.311871842807174
      vertex -0.729013465221309 8.13600526604319e-11 0.311871842722046
      vertex -0.364506732569717 -0.631344180659404 0.311871842722046
    endloop
  endfacet
  facet normal 0.493980703987063 0.8555996771163803 0.15470053848255164
    outer loop
      vertex 8.18761863371184e-11 -0.729013465269746 -0.311871842807174
      vertex -0.631344180527968 -0.364506732580359 -0.311871842807174
      vertex -0.364506732569717 -0.631344180659404 0.311871842722046
    endloop
  endfacet
  facet normal 0 0.987961407870463 -0.15470053832683497
    outer loop
      vertex 0.364506732695675 -0.631344180659404 0.311871842722046
      vertex 8.18761863371184e-11 -0.729013465269746 -0.311871842807174
      vertex -0.364506732569717 -0.631344180659404 0.311871842722046
    endloop
  endfacet
  facet normal 8.509305862545134e-19 0.9428090415228833 -0.33333333350072025
    outer loop
      vertex 8.18761863371184e-11 -0.420896120345595 0.907108844527578
      vertex 0.364506732695675 -0.631344180659404 0.311871842722046
      vertex -0.364506732569717 -0.631344180659404 0.311871842722046
    endloop
  endfacet
  facet normal 0.7071067811584547 0.40824829039120375 -0.5773502692754101
    outer loop
      vertex 8.18761863371184e-11 -0.420896120345595 0.907108844527578
      vertex -0.729013465221309 8.13600526604319e-11 0.311871842722046
      vertex -0.364506732536986 0.210448060347181 0.90710884453373
    endloop
  endfacet
  facet normal 0.7071067811584547 0.40824829039120475 -0.5773502692754092
    outer loop
      vertex -0.729013465221309 8.13600526604319e-11 0.311871842722046
      vertex 8.18761863371184e-11 -0.420896120345595 0.907108844527578
      vertex -0.364506732569717 -0.631344180659404 0.311871842722046
    endloop
  endfacet
  facet normal 0.8555996773171525 -0.4939807037444541 -0.1547005381468287
    outer loop
      vertex -0.631344180585095 0.364506732559426 -0.311871842765209
      vertex -0.364506732739787 0.631344180789393 0.311871842722046
      vertex -0.729013465221309 8.13600526604319e-11 0.311871842722046
    endloop
  endfacet
  facet normal 0.9879614078564898 6.851346076549674e-11 0.15470053841607273
    outer loop
      vertex -0.631344180527968 -0.364506732580359 -0.311871842807174
      vertex -0.631344180585095 0.364506732559426 -0.311871842765209
      vertex -0.729013465221309 8.13600526604319e-11 0.311871842722046
    endloop
  endfacet
  facet normal 0.8164965809921646 -0.47140452056755855 -0.33333333349153027
    outer loop
      vertex -0.364506732739787 0.631344180789393 0.311871842722046
      vertex -0.364506732536986 0.210448060347181 0.90710884453373
      vertex -0.729013465221309 8.13600526604319e-11 0.311871842722046
    endloop
  endfacet
  facet normal 2.232185756388142e-18 -0.9879614079525202 -0.15470053780279489
    outer loop
      vertex -3.23879750035405e-11 0.729013465047631 -0.311871842723244
      vertex 0.364506732412223 0.631344180789393 0.311871842722046
      vertex -0.364506732739787 0.631344180789393 0.311871842722046
    endloop
  endfacet
  facet normal 0.4939807037757337 -0.855599677162956 0.1547005388997602
    outer loop
      vertex -0.631344180585095 0.364506732559426 -0.311871842765209
      vertex -3.23879750035405e-11 0.729013465047631 -0.311871842723244
      vertex -0.364506732739787 0.631344180789393 0.311871842722046
    endloop
  endfacet
  facet normal -6.349635787987999e-11 -0.816496580896674 -0.5773502692335399
    outer loop
      vertex -0.364506732739787 0.631344180789393 0.311871842722046
      vertex 0.364506732436181 0.210448060294838 0.907108844527578
      vertex -0.364506732536986 0.210448060347181 0.90710884453373
    endloop
  endfacet
  facet normal -1.6600542117174384e-17 -0.8164965808600143 -0.5773502692853846
    outer loop
      vertex 0.364506732436181 0.210448060294838 0.907108844527578
      vertex -0.364506732739787 0.631344180789393 0.311871842722046
      vertex 0.364506732412223 0.631344180789393 0.311871842722046
    endloop
  endfacet
  facet normal -0.8555996771544088 -0.493980703957805 -0.15470053836565242
    outer loop
      vertex 0.631344180610184 0.364506732414935 -0.311871842723244
      vertex 0.729013465120508 8.13615095219938e-11 0.311871842722046
      vertex 0.364506732412223 0.631344180789393 0.311871842722046
    endloop
  endfacet
  facet normal -0.493980703888225 -0.8555996771226104 0.15470053876369802
    outer loop
      vertex -3.23879750035405e-11 0.729013465047631 -0.311871842723244
      vertex 0.631344180610184 0.364506732414935 -0.311871842723244
      vertex 0.364506732412223 0.631344180789393 0.311871842722046
    endloop
  endfacet
  facet normal -0.8164965808952843 -0.47140452080489087 -0.3333333333931992
    outer loop
      vertex 0.729013465120508 8.13615095219938e-11 0.311871842722046
      vertex 0.364506732436181 0.210448060294838 0.907108844527578
      vertex 0.364506732412223 0.631344180789393 0.311871842722046
    endloop
  endfacet
  facet normal -0.855599677288857 0.4939807036256815 -0.15470053868258007
    outer loop
      vertex 0.631344180732775 -0.364506732724857 -0.311871842765209
      vertex 0.364506732695675 -0.631344180659404 0.311871842722046
      vertex 0.729013465120508 8.13615095219938e-11 0.311871842722046
    endloop
  endfacet
  facet normal -0.9879614079071283 -1.750408406395744e-10 0.15470053809268045
    outer loop
      vertex 0.631344180610184 0.364506732414935 -0.311871842723244
      vertex 0.631344180732775 -0.364506732724857 -0.311871842765209
      vertex 0.729013465120508 8.13615095219938e-11 0.311871842722046
    endloop
  endfacet
  facet normal -0.7071067812867571 0.40824829019719516 -0.5773502692554573
    outer loop
      vertex 0.729013465120508 8.13615095219938e-11 0.311871842722046
      vertex 8.18761863371184e-11 -0.420896120345595 0.907108844527578
      vertex 0.364506732436181 0.210448060294838 0.907108844527578
    endloop
  endfacet
  facet normal -0.7071067812867571 0.40824829021130854 -0.5773502692454777
    outer loop
      vertex 8.18761863371184e-11 -0.420896120345595 0.907108844527578
      vertex 0.729013465120508 8.13615095219938e-11 0.311871842722046
      vertex 0.364506732695675 -0.631344180659404 0.311871842722046
    endloop
  endfacet
  facet normal -0.49398070383452075 0.8555996772291738 0.15470053834581476
    outer loop
      vertex 0.631344180732775 -0.364506732724857 -0.311871842765209
      vertex 8.18761863371184e-11 -0.729013465269746 -0.311871842807174
      vertex 0.364506732695675 -0.631344180659404 0.311871842722046
    endloop
  endfacet
  facet normal 0.4082482904919522 0.707106781088559 0.5773502692897747
    outer loop
      vertex -0.420896120276099 9.165844516813e-12 -0.90710884445524
      vertex 8.18761863371184e-11 -0.729013465269746 -0.311871842807174
      vertex 0.210448060222497 -0.364506732628594 -0.90710884445524
    endloop
  endfacet
  facet normal 0.40824829047783795 0.707106781088559 0.5773502692997551
    outer loop
      vertex 8.18761863371184e-11 -0.729013465269746 -0.311871842807174
      vertex -0.420896120276099 9.165844516813e-12 -0.90710884445524
      vertex -0.631344180527968 -0.364506732580359 -0.311871842807174
    endloop
  endfacet
  facet normal -0.4714045206691915 0.8164965809139901 0.333333333539287
    outer loop
      vertex 0.631344180732775 -0.364506732724857 -0.311871842765209
      vertex 0.210448060222497 -0.364506732628594 -0.90710884445524
      vertex 8.18761863371184e-11 -0.729013465269746 -0.311871842807174
    endloop
  endfacet
  facet normal 0.9428090415154773 5.4692368411302994e-11 0.33333333352166694
    outer loop
      vertex -0.420896120276099 9.165844516813e-12 -0.90710884445524
      vertex -0.631344180585095 0.364506732559426 -0.311871842765209
      vertex -0.631344180527968 -0.364506732580359 -0.311871842807174
    endloop
  endfacet
  facet normal 0.4082482903191258 -0.7071067812064102 0.5773502692676435
    outer loop
      vertex -0.420896120276099 9.165844516813e-12 -0.90710884445524
      vertex -3.23879750035405e-11 0.729013465047631 -0.311871842723244
      vertex -0.631344180585095 0.364506732559426 -0.311871842765209
    endloop
  endfacet
  facet normal 0.4082482903924417 -0.7071067812064102 0.5773502692158015
    outer loop
      vertex -3.23879750035405e-11 0.729013465047631 -0.311871842723244
      vertex -0.420896120276099 9.165844516813e-12 -0.90710884445524
      vertex 0.210448060095555 0.364506732453274 -0.907108844419431
    endloop
  endfacet
  facet normal -0.47140452076328376 -0.8164965809078819 0.33333333342118304
    outer loop
      vertex 0.210448060095555 0.364506732453274 -0.907108844419431
      vertex 0.631344180610184 0.364506732414935 -0.311871842723244
      vertex -3.23879750035405e-11 0.729013465047631 -0.311871842723244
    endloop
  endfacet
  facet normal -0.816496580797037 -1.705346661238804e-10 0.5773502693744479
    outer loop
      vertex 0.210448060222497 -0.364506732628594 -0.90710884445524
      vertex 0.631344180610184 0.364506732414935 -0.311871842723244
      vertex 0.210448060095555 0.364506732453274 -0.907108844419431
    endloop
  endfacet
  facet normal -0.8164965807970357 -1.705367812689897e-10 0.5773502693744497
    outer loop
      vertex 0.631344180610184 0.364506732414935 -0.311871842723244
      vertex 0.210448060222497 -0.364506732628594 -0.90710884445524
      vertex 0.631344180732775 -0.364506732724857 -0.311871842765209
    endloop
  endfacet
  facet normal -8.438757470720153e-12 4.87211889347331e-12 -1
    outer loop
      vertex -0.364506732536986 0.210448060347181 0.90710884453373
      vertex 0.364506732436181 0.210448060294838 0.907108844527578
      vertex 8.18761863371184e-11 -0.420896120345595 0.907108844527578
    endloop
  endfacet
  facet normal -2.835935099519707e-11 -4.9119836783173806e-11 1
    outer loop
      vertex 0.210448060095555 0.364506732453274 -0.907108844419431
      vertex -0.420896120276099 9.165844516813e-12 -0.90710884445524
      vertex 0.210448060222497 -0.364506732628594 -0.90710884445524
    endloop
  endfacet
endsolid OpenSCAD_Model
