solid OpenSCAD_Model
  facet normal 0.8555996772072161 0.49398070388585147 -0.15470053830335
    outer loop
      vertex -0.631344180591376 -0.364506732577497 -0.311871842798437
      vertex -0.729013465281981 7.40114810665326e-11 0.31187184271331
      vertex -0.3645067326406 -0.631344180649067 0.31187184271331
    endloop
  endfacet
  facet normal 0.4939807039870622 0.8555996771163807 0.1547005384825522
    outer loop
      vertex 7.8176810145449e-13 -0.729013465256672 -0.311871842798437
      vertex -0.631344180591376 -0.364506732577497 -0.311871842798437
      vertex -0.3645067326406 -0.631344180649067 0.31187184271331
    endloop
  endfacet
  facet normal 0 0.9879614078704633 -0.15470053832683342
    outer loop
      vertex 0.36450673260437 -0.631344180649067 0.31187184271331
      vertex 7.8176810145449e-13 -0.729013465256672 -0.311871842798437
      vertex -0.3645067326406 -0.631344180649067 0.31187184271331
    endloop
  endfacet
  facet normal -1.966574998542927e-17 0.9428090415228829 -0.333333333500721
    outer loop
      vertex 7.8176810145449e-13 -0.420896120341153 0.907108844502167
      vertex 0.36450673260437 -0.631344180649067 0.31187184271331
      vertex -0.3645067326406 -0.631344180649067 0.31187184271331
    endloop
  endfacet
  facet normal 0.7071067811584549 0.4082482903912042 -0.5773502692754096
    outer loop
      vertex 7.8176810145449e-13 -0.420896120341153 0.907108844502167
      vertex -0.729013465281981 7.40114810665326e-11 0.31187184271331
      vertex -0.364506732607869 0.210448060333937 0.90710884450832
    endloop
  endfacet
  facet normal 0.7071067811584549 0.4082482903912044 -0.5773502692754094
    outer loop
      vertex -0.729013465281981 7.40114810665326e-11 0.31187184271331
      vertex 7.8176810145449e-13 -0.420896120341153 0.907108844502167
      vertex -0.3645067326406 -0.631344180649067 0.31187184271331
    endloop
  endfacet
  facet normal 0.8555996773646904 -0.4939807037719003 -0.15470053779627138
    outer loop
      vertex -0.631344180386672 0.364506732541873 -0.311871842756472
      vertex -0.36450673281067 0.631344180764358 0.31187184271331
      vertex -0.729013465281981 7.40114810665326e-11 0.31187184271331
    endloop
  endfacet
  facet normal 0.9879614078247972 -2.8632075981708733e-10 0.15470053861847008
    outer loop
      vertex -0.631344180591376 -0.364506732577497 -0.311871842798437
      vertex -0.631344180386672 0.364506732541873 -0.311871842756472
      vertex -0.729013465281981 7.40114810665326e-11 0.31187184271331
    endloop
  endfacet
  facet normal 0.8164965809921647 -0.4714045205675589 -0.33333333349152994
    outer loop
      vertex -0.36450673281067 0.631344180764358 0.31187184271331
      vertex -0.364506732607869 0.210448060333937 0.90710884450832
      vertex -0.729013465281981 7.40114810665326e-11 0.31187184271331
    endloop
  endfacet
  facet normal 4.089626545474583e-18 -0.9879614079525219 -0.15470053780278406
    outer loop
      vertex 2.79271458369159e-10 0.729013465019853 -0.311871842714507
      vertex 0.364506732320918 0.631344180764358 0.31187184271331
      vertex -0.36450673281067 0.631344180764358 0.31187184271331
    endloop
  endfacet
  facet normal 0.49398070367908364 -0.8555996771730123 0.1547005391527596
    outer loop
      vertex -0.631344180386672 0.364506732541873 -0.311871842756472
      vertex 2.79271458369159e-10 0.729013465019853 -0.311871842714507
      vertex -0.36450673281067 0.631344180764358 0.31187184271331
    endloop
  endfacet
  facet normal -6.349714015434184e-11 -0.8164965808966745 -0.5773502692335394
    outer loop
      vertex -0.36450673281067 0.631344180764358 0.31187184271331
      vertex 0.364506732344875 0.210448060281594 0.907108844502167
      vertex -0.364506732607869 0.210448060333937 0.90710884450832
    endloop
  endfacet
  facet normal 8.981297043765057e-18 -0.8164965808600144 -0.5773502692853844
    outer loop
      vertex 0.364506732344875 0.210448060281594 0.907108844502167
      vertex -0.36450673281067 0.631344180764358 0.31187184271331
      vertex 0.364506732320918 0.631344180764358 0.31187184271331
    endloop
  endfacet
  facet normal -0.8555996771068702 -0.4939807039303576 -0.15470053871621745
    outer loop
      vertex 0.631344180773236 0.364506732397376 -0.311871842714507
      vertex 0.729013465018991 7.40129379280944e-11 0.31187184271331
      vertex 0.364506732320918 0.631344180764358 0.31187184271331
    endloop
  endfacet
  facet normal -0.49398070398485205 -0.8555996771125669 0.15470053851070237
    outer loop
      vertex 2.79271458369159e-10 0.729013465019853 -0.311871842714507
      vertex 0.631344180773236 0.364506732397376 -0.311871842714507
      vertex 0.364506732320918 0.631344180764358 0.31187184271331
    endloop
  endfacet
  facet normal -0.8164965808952845 -0.4714045208048899 -0.33333333339319987
    outer loop
      vertex 0.729013465018991 7.40129379280944e-11 0.31187184271331
      vertex 0.364506732344875 0.210448060281594 0.907108844502167
      vertex 0.364506732320918 0.631344180764358 0.31187184271331
    endloop
  endfacet
  facet normal -0.8555996772888578 0.4939807036256803 -0.15470053868257957
    outer loop
      vertex 0.631344180633994 -0.364506732721995 -0.311871842756472
      vertex 0.36450673260437 -0.631344180649067 0.31187184271331
      vertex 0.729013465018991 7.40129379280944e-11 0.31187184271331
    endloop
  endfacet
  facet normal -0.987961407938821 1.797959495352491e-10 0.1547005378902816
    outer loop
      vertex 0.631344180773236 0.364506732397376 -0.311871842714507
      vertex 0.631344180633994 -0.364506732721995 -0.311871842756472
      vertex 0.729013465018991 7.40129379280944e-11 0.31187184271331
    endloop
  endfacet
  facet normal -0.7071067812867573 0.4082482901971946 -0.5773502692554575
    outer loop
      vertex 0.729013465018991 7.40129379280944e-11 0.31187184271331
      vertex 7.8176810145449e-13 -0.420896120341153 0.907108844502167
      vertex 0.364506732344875 0.210448060281594 0.907108844502167
    endloop
  endfacet
  facet normal -0.7071067812867573 0.4082482902113072 -0.5773502692454785
    outer loop
      vertex 7.8176810145449e-13 -0.420896120341153 0.907108844502167
      vertex 0.729013465018991 7.40129379280944e-11 0.31187184271331
      vertex 0.36450673260437 -0.631344180649067 0.31187184271331
    endloop
  endfacet
  facet normal -0.49398070383452003 0.8555996772291741 0.1547005383458159
    outer loop
      vertex 0.631344180633994 -0.364506732721995 -0.311871842756472
      vertex 7.8176810145449e-13 -0.729013465256672 -0.311871842798437
      vertex 0.36450673260437 -0.631344180649067 0.31187184271331
    endloop
  endfacet
  facet normal 0.47140452081281703 0.8164965808243638 0.33333333355570893
    outer loop
      vertex -0.210448060151513 -0.364506732520874 -0.907108844443818
      vertex -0.631344180591376 -0.364506732577497 -0.311871842798437
      vertex 7.8176810145449e-13 -0.729013465256672 -0.311871842798437
    endloop
  endfacet
  facet normal -0.4082482903398578 0.7071067811093956 0.5773502693718019
    outer loop
      vertex 0.420896120429358 -1.1393223971161e-11 -0.907108844408009
      vertex 7.8176810145449e-13 -0.729013465256672 -0.311871842798437
      vertex 0.631344180633994 -0.364506732721995 -0.311871842756472
    endloop
  endfacet
  facet normal -0.4082482903398541 0.7071067811093956 0.5773502693718046
    outer loop
      vertex 7.8176810145449e-13 -0.729013465256672 -0.311871842798437
      vertex 0.420896120429358 -1.1393223971161e-11 -0.907108844408009
      vertex -0.210448060151513 -0.364506732520874 -0.907108844443818
    endloop
  endfacet
  facet normal 0.8164965808150975 -2.625035716474076e-10 0.5773502693489067
    outer loop
      vertex -0.631344180591376 -0.364506732577497 -0.311871842798437
      vertex -0.210448059935896 0.364506732476342 -0.907108844401856
      vertex -0.631344180386672 0.364506732541873 -0.311871842756472
    endloop
  endfacet
  facet normal 0.8164965808221528 -2.7472374093652786e-10 0.5773502693389289
    outer loop
      vertex -0.210448059935896 0.364506732476342 -0.907108844401856
      vertex -0.631344180591376 -0.364506732577497 -0.311871842798437
      vertex -0.210448060151513 -0.364506732520874 -0.907108844443818
    endloop
  endfacet
  facet normal 0.47140452058457344 -0.8164965810135124 0.33333333341517646
    outer loop
      vertex -0.210448059935896 0.364506732476342 -0.907108844401856
      vertex 2.79271458369159e-10 0.729013465019853 -0.311871842714507
      vertex -0.631344180386672 0.364506732541873 -0.311871842756472
    endloop
  endfacet
  facet normal -0.40824829045064814 -0.7071067811684535 0.5773502692211306
    outer loop
      vertex 0.420896120429358 -1.1393223971161e-11 -0.907108844408009
      vertex 2.79271458369159e-10 0.729013465019853 -0.311871842714507
      vertex -0.210448059935896 0.364506732476342 -0.907108844401856
    endloop
  endfacet
  facet normal -0.4082482905239574 -0.7071067811684534 0.5773502691692931
    outer loop
      vertex 2.79271458369159e-10 0.729013465019853 -0.311871842714507
      vertex 0.420896120429358 -1.1393223971161e-11 -0.907108844408009
      vertex 0.631344180773236 0.364506732397376 -0.311871842714507
    endloop
  endfacet
  facet normal -0.9428090415191623 1.6088894800232103e-10 0.3333333335112445
    outer loop
      vertex 0.420896120429358 -1.1393223971161e-11 -0.907108844408009
      vertex 0.631344180633994 -0.364506732721995 -0.311871842756472
      vertex 0.631344180773236 0.364506732397376 -0.311871842714507
    endloop
  endfacet
  facet normal -8.440128091349951e-12 4.8729102216622445e-12 -1
    outer loop
      vertex -0.364506732607869 0.210448060333937 0.90710884450832
      vertex 0.364506732344875 0.210448060281594 0.907108844502167
      vertex 7.8176810145449e-13 -0.420896120341153 0.907108844502167
    endloop
  endfacet
  facet normal -2.348644076018051e-11 -5.755996486817783e-11 1
    outer loop
      vertex 0.420896120429358 -1.1393223971161e-11 -0.907108844408009
      vertex -0.210448059935896 0.364506732476342 -0.907108844401856
      vertex -0.210448060151513 -0.364506732520874 -0.907108844443818
    endloop
  endfacet
endsolid OpenSCAD_Model
