solid OpenSCAD_Model
  facet normal 0.7024283914364574 0.7024283913418471 -0.1148421087445534
    outer loop
      vertex -0.6716444221893 -0.67164442226499 -0.312709991386605
      vertex -0.877545727758171 -0.363491341918436 0.312709991184577
      vertex -0.363491341888162 -0.877545727857683 0.312709991184577
    endloop
  endfacet
  facet normal 0.3801515061132623 0.9177669216112412 0.11484210898465813
    outer loop
      vertex 2.2373420194589e-10 -0.949848651182538 -0.312709991386605
      vertex -0.6716444221893 -0.67164442226499 -0.312709991386605
      vertex -0.363491341888162 -0.877545727857683 0.312709991184577
    endloop
  endfacet
  facet normal 0 0.9933837576956154 -0.11484210876912257
    outer loop
      vertex 0.363491342297942 -0.877545727857683 0.312709991184577
      vertex 2.2373420194589e-10 -0.949848651182538 -0.312709991386605
      vertex -0.363491341888162 -0.877545727857683 0.312709991184577
    endloop
  endfacet
  facet normal 9.441496000284773e-16 0.7071067808460408 -0.7071067815270542
    outer loop
      vertex 0.363491342297942 -0.877545727857683 0.312709991184577
      vertex -0.363491341855522 -0.363491341705512 0.826764376841662
      vertex 0.363491342133586 -0.363491341890967 0.826764376656208
    endloop
  endfacet
  facet normal 4.962736324902189e-17 0.7071067808460402 -0.707106781527055
    outer loop
      vertex -0.363491341855522 -0.363491341705512 0.826764376841662
      vertex 0.363491342297942 -0.877545727857683 0.312709991184577
      vertex -0.363491341888162 -0.877545727857683 0.312709991184577
    endloop
  endfacet
  facet normal 0.5773502690438996 0.5773502689661362 -0.5773502695588415
    outer loop
      vertex -0.877545727758171 -0.363491341918436 0.312709991184577
      vertex -0.363491341855522 -0.363491341705512 0.826764376841662
      vertex -0.363491341888162 -0.877545727857683 0.312709991184577
    endloop
  endfacet
  facet normal 0.9933837577180498 3.8609111487643024e-10 -0.11484210857506516
    outer loop
      vertex -0.949848651092061 -7.66691085503862e-11 -0.312709991313669
      vertex -0.877545728040722 0.363491342425259 0.312709991184577
      vertex -0.877545727758171 -0.363491341918436 0.312709991184577
    endloop
  endfacet
  facet normal 0.9177669215897692 0.38015150619887944 0.11484210887284145
    outer loop
      vertex -0.6716444221893 -0.67164442226499 -0.312709991386605
      vertex -0.949848651092061 -7.66691085503862e-11 -0.312709991313669
      vertex -0.877545727758171 -0.363491341918436 0.312709991184577
    endloop
  endfacet
  facet normal 0.7071067811840935 5.102057598653716e-10 -0.7071067811890014
    outer loop
      vertex -0.363491341855522 -0.363491341705512 0.826764376841662
      vertex -0.877545728040722 0.363491342425259 0.312709991184577
      vertex -0.363491342314791 0.363491342342892 0.82676437690694
    endloop
  endfacet
  facet normal 0.707106781017655 2.7482596228244243e-10 -0.7071067813554401
    outer loop
      vertex -0.877545728040722 0.363491342425259 0.312709991184577
      vertex -0.363491341855522 -0.363491341705512 0.826764376841662
      vertex -0.877545727758171 -0.363491341918436 0.312709991184577
    endloop
  endfacet
  facet normal 0.7024283917777603 -0.7024283912002025 -0.11484210752334963
    outer loop
      vertex -0.671644422311676 0.671644421978063 -0.312709991210522
      vertex -0.363491342570304 0.877545728318348 0.312709991184577
      vertex -0.877545728040722 0.363491342425259 0.312709991184577
    endloop
  endfacet
  facet normal 0.9177669215289997 -0.38015150611220677 0.11484210964538834
    outer loop
      vertex -0.949848651092061 -7.66691085503862e-11 -0.312709991313669
      vertex -0.671644422311676 0.671644421978063 -0.312709991210522
      vertex -0.877545728040722 0.363491342425259 0.312709991184577
    endloop
  endfacet
  facet normal 0.577350269315692 -0.5773502688409772 -0.5773502694122082
    outer loop
      vertex -0.363491342570304 0.877545728318348 0.312709991184577
      vertex -0.363491342314791 0.363491342342892 0.82676437690694
      vertex -0.877545728040722 0.363491342425259 0.312709991184577
    endloop
  endfacet
  facet normal -5.889171760201129e-18 -0.993383757884301 -0.11484210713699261
    outer loop
      vertex 5.06745036247881e-11 0.949848650573116 -0.312709991137586
      vertex 0.363491341458206 0.877545728318348 0.312709991184577
      vertex -0.363491342570304 0.877545728318348 0.312709991184577
    endloop
  endfacet
  facet normal 0.38015150567685585 -0.9177669215823915 0.1148421106598087
    outer loop
      vertex -0.671644422311676 0.671644421978063 -0.312709991210522
      vertex 5.06745036247881e-11 0.949848650573116 -0.312709991137586
      vertex -0.363491342570304 0.877545728318348 0.312709991184577
    endloop
  endfacet
  facet normal 2.5922506679555968e-11 -0.7071067810124767 -0.7071067813606184
    outer loop
      vertex -0.363491342570304 0.877545728318348 0.312709991184577
      vertex 0.363491341621793 0.363491342369543 0.82676437690694
      vertex -0.363491342314791 0.363491342342892 0.82676437690694
    endloop
  endfacet
  facet normal -1.5595808468836618e-17 -0.7071067810308067 -0.7071067813422885
    outer loop
      vertex 0.363491341621793 0.363491342369543 0.82676437690694
      vertex -0.363491342570304 0.877545728318348 0.312709991184577
      vertex 0.363491341458206 0.877545728318348 0.312709991184577
    endloop
  endfacet
  facet normal -0.7024283913992757 -0.7024283914308325 -0.11484210842769856
    outer loop
      vertex 0.671644422488687 0.671644421715877 -0.312709991137586
      vertex 0.877545727374381 0.363491342425267 0.312709991184577
      vertex 0.363491341458206 0.877545728318348 0.312709991184577
    endloop
  endfacet
  facet normal -0.38015150598125785 -0.9177669215256394 0.11484211010571248
    outer loop
      vertex 5.06745036247881e-11 0.949848650573116 -0.312709991137586
      vertex 0.671644422488687 0.671644421715877 -0.312709991137586
      vertex 0.363491341458206 0.877545728318348 0.312709991184577
    endloop
  endfacet
  facet normal -0.5773502691488026 -0.5773502691747402 -0.5773502692453345
    outer loop
      vertex 0.877545727374381 0.363491342425267 0.312709991184577
      vertex 0.363491341621793 0.363491342369543 0.82676437690694
      vertex 0.363491341458206 0.877545728318348 0.312709991184577
    endloop
  endfacet
  facet normal -0.9933837575870815 -4.752750797270522e-10 -0.1148421097079401
    outer loop
      vertex 0.949848651451754 -4.47459364227137e-10 -0.312709991210522
      vertex 0.877545727722199 -0.363491341918438 0.312709991184577
      vertex 0.877545727374381 0.363491342425267 0.312709991184577
    endloop
  endfacet
  facet normal -0.9177669215868881 -0.3801515063191745 0.11484210849766437
    outer loop
      vertex 0.671644422488687 0.671644421715877 -0.312709991137586
      vertex 0.949848651451754 -4.47459364227137e-10 -0.312709991210522
      vertex 0.877545727374381 0.363491342425267 0.312709991184577
    endloop
  endfacet
  facet normal -0.7071067811657596 -3.383085585430965e-10 -0.7071067812073355
    outer loop
      vertex 0.877545727722199 -0.363491341918438 0.312709991184577
      vertex 0.363491341621793 0.363491342369543 0.82676437690694
      vertex 0.877545727374381 0.363491342425267 0.312709991184577
    endloop
  endfacet
  facet normal -0.7071067811060905 -2.539235815883839e-10 -0.7071067812670047
    outer loop
      vertex 0.363491341621793 0.363491342369543 0.82676437690694
      vertex 0.877545727722199 -0.363491341918438 0.312709991184577
      vertex 0.363491342133586 -0.363491341890967 0.826764376656208
    endloop
  endfacet
  facet normal -0.7024283916839629 0.7024283909802587 -0.11484210944233893
    outer loop
      vertex 0.671644422731681 -0.671644422527179 -0.312709991313669
      vertex 0.363491342297942 -0.877545727857683 0.312709991184577
      vertex 0.877545727722199 -0.363491341918438 0.312709991184577
    endloop
  endfacet
  facet normal -0.9177669217520174 0.3801515060727541 0.11484210799372838
    outer loop
      vertex 0.949848651451754 -4.47459364227137e-10 -0.312709991210522
      vertex 0.671644422731681 -0.671644422527179 -0.312709991313669
      vertex 0.877545727722199 -0.363491341918438 0.312709991184577
    endloop
  endfacet
  facet normal -0.5773502693283455 0.5773502687499467 -0.5773502694905851
    outer loop
      vertex 0.363491342297942 -0.877545727857683 0.312709991184577
      vertex 0.363491342133586 -0.363491341890967 0.826764376656208
      vertex 0.877545727722199 -0.363491341918438 0.312709991184577
    endloop
  endfacet
  facet normal -0.3801515057826187 0.9177669217775166 0.11484210875035854
    outer loop
      vertex 0.671644422731681 -0.671644422527179 -0.312709991313669
      vertex 2.2373420194589e-10 -0.949848651182538 -0.312709991386605
      vertex 0.363491342297942 -0.877545727857683 0.312709991184577
    endloop
  endfacet
  facet normal 0.3124597140767559 0.7543444792516856 0.5773502695085327
    outer loop
      vertex -0.196720096659413 -0.474924325613537 -0.826764376574105
      vertex -0.6716444221893 -0.67164442226499 -0.312709991386605
      vertex 2.2373420194589e-10 -0.949848651182538 -0.312709991386605
    endloop
  endfacet
  facet normal -0.2705980497849316 0.6532814821199252 0.7071067815908609
    outer loop
      vertex 0.474924325595567 -0.196720096862226 -0.826764376686628
      vertex 2.2373420194589e-10 -0.949848651182538 -0.312709991386605
      vertex 0.671644422731681 -0.671644422527179 -0.312709991313669
    endloop
  endfacet
  facet normal -0.2705980497849259 0.6532814821199238 0.7071067815908643
    outer loop
      vertex 2.2373420194589e-10 -0.949848651182538 -0.312709991386605
      vertex 0.474924325595567 -0.196720096862226 -0.826764376686628
      vertex -0.196720096659413 -0.474924325613537 -0.826764376574105
    endloop
  endfacet
  facet normal 0.6532814820906183 0.2705980500799753 0.7071067815050287
    outer loop
      vertex -0.474924325378851 0.196720096560677 -0.826764376751903
      vertex -0.6716444221893 -0.67164442226499 -0.312709991386605
      vertex -0.196720096659413 -0.474924325613537 -0.826764376574105
    endloop
  endfacet
  facet normal 0.6532814821780455 0.27059805002484355 0.7071067814453545
    outer loop
      vertex -0.6716444221893 -0.67164442226499 -0.312709991386605
      vertex -0.474924325378851 0.196720096560677 -0.826764376751903
      vertex -0.949848651092061 -7.66691085503862e-11 -0.312709991313669
    endloop
  endfacet
  facet normal 0.7543444792101043 -0.312459714160834 0.5773502695173585
    outer loop
      vertex -0.474924325378851 0.196720096560677 -0.826764376751903
      vertex -0.671644422311676 0.671644421978063 -0.312709991210522
      vertex -0.949848651092061 -7.66691085503862e-11 -0.312709991313669
    endloop
  endfacet
  facet normal 0.27059804974788637 -0.653281482468992 0.7071067812825419
    outer loop
      vertex 5.06745036247881e-11 0.949848650573116 -0.312709991137586
      vertex -0.474924325378851 0.196720096560677 -0.826764376751903
      vertex 0.19672009690877 0.474924325095928 -0.826764376678965
    endloop
  endfacet
  facet normal 0.2705980497788536 -0.6532814824760073 0.7071067812642099
    outer loop
      vertex -0.474924325378851 0.196720096560677 -0.826764376751903
      vertex 5.06745036247881e-11 0.949848650573116 -0.312709991137586
      vertex -0.671644422311676 0.671644421978063 -0.312709991210522
    endloop
  endfacet
  facet normal -0.31245971409292783 -0.7543444794823089 0.5773502691984568
    outer loop
      vertex 0.19672009690877 0.474924325095928 -0.826764376678965
      vertex 0.671644422488687 0.671644421715877 -0.312709991137586
      vertex 5.06745036247881e-11 0.949848650573116 -0.312709991137586
    endloop
  endfacet
  facet normal -0.653281482093705 -0.2705980502122056 0.7071067814515747
    outer loop
      vertex 0.671644422488687 0.671644421715877 -0.312709991137586
      vertex 0.474924325595567 -0.196720096862226 -0.826764376686628
      vertex 0.949848651451754 -4.47459364227137e-10 -0.312709991210522
    endloop
  endfacet
  facet normal -0.6532814823375471 -0.27059805005843823 0.707106781285138
    outer loop
      vertex 0.474924325595567 -0.196720096862226 -0.826764376686628
      vertex 0.671644422488687 0.671644421715877 -0.312709991137586
      vertex 0.19672009690877 0.474924325095928 -0.826764376678965
    endloop
  endfacet
  facet normal -0.7543444790960513 0.31245971385689714 0.5773502698308653
    outer loop
      vertex 0.474924325595567 -0.196720096862226 -0.826764376686628
      vertex 0.671644422731681 -0.671644422527179 -0.312709991313669
      vertex 0.949848651451754 -4.47459364227137e-10 -0.312709991210522
    endloop
  endfacet
  facet normal -2.5510096666972893e-10 3.4489403396136573e-10 -1
    outer loop
      vertex -0.363491341855522 -0.363491341705512 0.826764376841662
      vertex 0.363491341621793 0.363491342369543 0.82676437690694
      vertex 0.363491342133586 -0.363491341890967 0.826764376656208
    endloop
  endfacet
  facet normal -3.291792799822413e-21 8.979306750467789e-11 -1
    outer loop
      vertex 0.363491341621793 0.363491342369543 0.82676437690694
      vertex -0.363491341855522 -0.363491341705512 0.826764376841662
      vertex -0.363491342314791 0.363491342342892 0.82676437690694
    endloop
  endfacet
  facet normal 1.4703284090676275e-10 4.94935484110897e-11 1
    outer loop
      vertex 0.19672009690877 0.474924325095928 -0.826764376678965
      vertex -0.196720096659413 -0.474924325613537 -0.826764376574105
      vertex 0.474924325595567 -0.196720096862226 -0.826764376686628
    endloop
  endfacet
  facet normal -1.862854046627833e-10 1.8755848639751218e-10 1
    outer loop
      vertex -0.196720096659413 -0.474924325613537 -0.826764376574105
      vertex 0.19672009690877 0.474924325095928 -0.826764376678965
      vertex -0.474924325378851 0.196720096560677 -0.826764376751903
    endloop
  endfacet
endsolid OpenSCAD_Model
