solid OpenSCAD_Model
  facet normal 0.7024283914364573 0.7024283913418472 -0.11484210874455354
    outer loop
      vertex -0.671644422361978 -0.671644422225525 -0.312709991363965
      vertex -0.877545727915941 -0.363491341901282 0.312709991161936
      vertex -0.36349134208315 -0.877545727803311 0.312709991161936
    endloop
  endfacet
  facet normal 0.3801515061132617 0.9177669216112415 0.11484210898465871
    outer loop
      vertex 2.42803778047608e-12 -0.94984865112293 -0.312709991363965
      vertex -0.671644422361978 -0.671644422225525 -0.312709991363965
      vertex -0.36349134208315 -0.877545727803311 0.312709991161936
    endloop
  endfacet
  facet normal 0 0.9933837576956155 -0.11484210876912078
    outer loop
      vertex 0.363491342050318 -0.877545727803311 0.312709991161936
      vertex 2.42803778047608e-12 -0.94984865112293 -0.312709991363965
      vertex -0.36349134208315 -0.877545727803311 0.312709991161936
    endloop
  endfacet
  facet normal 1.0694560107692518e-15 0.7071067808460403 -0.707106781527055
    outer loop
      vertex 0.363491342050318 -0.877545727803311 0.312709991161936
      vertex -0.363491342050511 -0.363491341688357 0.826764376781803
      vertex 0.363491341885963 -0.363491341873813 0.826764376596348
    endloop
  endfacet
  facet normal -8.576822551350466e-18 0.7071067808460393 -0.7071067815270555
    outer loop
      vertex -0.363491342050511 -0.363491341688357 0.826764376781803
      vertex 0.363491342050318 -0.877545727803311 0.312709991161936
      vertex -0.36349134208315 -0.877545727803311 0.312709991161936
    endloop
  endfacet
  facet normal 0.5773502690438994 0.5773502689661363 -0.5773502695588415
    outer loop
      vertex -0.877545727915941 -0.363491341901282 0.312709991161936
      vertex -0.363491342050511 -0.363491341688357 0.826764376781803
      vertex -0.36349134208315 -0.877545727803311 0.312709991161936
    endloop
  endfacet
  facet normal 0.9933837577926737 3.8609248051990875e-10 -0.11484210792956717
    outer loop
      vertex -0.949848650832769 -8.5839525478575e-11 -0.312709991291029
      vertex -0.877545728198493 0.363491342389779 0.312709991161936
      vertex -0.877545727915941 -0.363491341901282 0.312709991161936
    endloop
  endfacet
  facet normal 0.9177669217568791 0.38015150570536216 0.11484210917101982
    outer loop
      vertex -0.671644422361978 -0.671644422225525 -0.312709991363965
      vertex -0.949848650832769 -8.5839525478575e-11 -0.312709991291029
      vertex -0.877545727915941 -0.363491341901282 0.312709991161936
    endloop
  endfacet
  facet normal 0.7071067811840929 5.102047880200065e-10 -0.7071067811890022
    outer loop
      vertex -0.363491342050511 -0.363491341688357 0.826764376781803
      vertex -0.877545728198493 0.363491342389779 0.312709991161936
      vertex -0.36349134250978 0.363491342307412 0.82676437684708
    endloop
  endfacet
  facet normal 0.7071067810176556 2.7482693418464436e-10 -0.7071067813554394
    outer loop
      vertex -0.877545728198493 0.363491342389779 0.312709991161936
      vertex -0.363491342050511 -0.363491341688357 0.826764376781803
      vertex -0.877545727915941 -0.363491341901282 0.312709991161936
    endloop
  endfacet
  facet normal 0.7024283918523823 -0.7024283912748258 -0.11484210661049526
    outer loop
      vertex -0.671644421660715 0.671644421920272 -0.312709991187882
      vertex -0.363491342765293 0.877545728245649 0.312709991161936
      vertex -0.877545728198493 0.363491342389779 0.312709991161936
    endloop
  endfacet
  facet normal 0.9177669212345078 -0.3801515065529387 0.1148421105399232
    outer loop
      vertex -0.949848650832769 -8.5839525478575e-11 -0.312709991291029
      vertex -0.671644421660715 0.671644421920272 -0.312709991187882
      vertex -0.877545728198493 0.363491342389779 0.312709991161936
    endloop
  endfacet
  facet normal 0.5773502693156912 -0.5773502688409775 -0.5773502694122086
    outer loop
      vertex -0.363491342765293 0.877545728245649 0.312709991161936
      vertex -0.36349134250978 0.363491342307412 0.82676437684708
      vertex -0.877545728198493 0.363491342389779 0.312709991161936
    endloop
  endfacet
  facet normal -5.7098169389832595e-18 -0.9933837578843022 -0.11484210713698127
    outer loop
      vertex 8.2358689612518e-10 0.949848650495175 -0.312709991114946
      vertex 0.363491341210583 0.877545728245649 0.312709991161936
      vertex -0.363491342765293 0.877545728245649 0.312709991161936
    endloop
  endfacet
  facet normal 0.38015150557031796 -0.9177669215582994 0.11484211120500498
    outer loop
      vertex -0.671644421660715 0.671644421920272 -0.312709991187882
      vertex 8.2358689612518e-10 0.949848650495175 -0.312709991114946
      vertex -0.363491342765293 0.877545728245649 0.312709991161936
    endloop
  endfacet
  facet normal 2.592337688167136e-11 -0.7071067810124766 -0.7071067813606183
    outer loop
      vertex -0.363491342765293 0.877545728245649 0.312709991161936
      vertex 0.36349134137417 0.363491342334063 0.826764376847081
      vertex -0.36349134250978 0.363491342307412 0.82676437684708
    endloop
  endfacet
  facet normal -1.224522068143956e-17 -0.7071067810308072 -0.7071067813422878
    outer loop
      vertex 0.36349134137417 0.363491342334063 0.826764376847081
      vertex -0.363491342765293 0.877545728245649 0.312709991161936
      vertex 0.363491341210583 0.877545728245649 0.312709991161936
    endloop
  endfacet
  facet normal -0.7024283913246542 -0.7024283913562095 -0.11484210934054757
    outer loop
      vertex 0.671644423042395 0.671644421658078 -0.312709991114946
      vertex 0.877545727089539 0.363491342389786 0.312709991161936
      vertex 0.363491341210583 0.877545728245649 0.312709991161936
    endloop
  endfacet
  facet normal -0.38015150608778514 -0.9177669215497339 0.11484210956053115
    outer loop
      vertex 8.2358689612518e-10 0.949848650495175 -0.312709991114946
      vertex 0.671644423042395 0.671644421658078 -0.312709991114946
      vertex 0.363491341210583 0.877545728245649 0.312709991161936
    endloop
  endfacet
  facet normal -0.5773502691488037 -0.5773502691747402 -0.5773502692453333
    outer loop
      vertex 0.877545727089539 0.363491342389786 0.312709991161936
      vertex 0.36349134137417 0.363491342334063 0.826764376847081
      vertex 0.363491341210583 0.877545728245649 0.312709991161936
    endloop
  endfacet
  facet normal -0.9933837575124599 -4.752750764377431e-10 -0.11484211035341622
    outer loop
      vertex 0.949848651573491 -4.5662978112848e-10 -0.312709991187882
      vertex 0.877545727437357 -0.363491341901283 0.312709991161936
      vertex 0.877545727089539 0.363491342389786 0.312709991161936
    endloop
  endfacet
  facet normal -0.9177669218813884 -0.3801515058784186 0.11484210760314435
    outer loop
      vertex 0.671644423042395 0.671644421658078 -0.312709991114946
      vertex 0.949848651573491 -4.5662978112848e-10 -0.312709991187882
      vertex 0.877545727089539 0.363491342389786 0.312709991161936
    endloop
  endfacet
  facet normal -0.7071067811657602 -3.383085585675915e-10 -0.7071067812073347
    outer loop
      vertex 0.877545727437357 -0.363491341901283 0.312709991161936
      vertex 0.36349134137417 0.363491342334063 0.826764376847081
      vertex 0.877545727089539 0.363491342389786 0.312709991161936
    endloop
  endfacet
  facet normal -0.7071067811060905 -2.539225557310022e-10 -0.7071067812670048
    outer loop
      vertex 0.36349134137417 0.363491342334063 0.826764376847081
      vertex 0.877545727437357 -0.363491341901283 0.312709991161936
      vertex 0.363491341885963 -0.363491341873813 0.826764376596348
    endloop
  endfacet
  facet normal -0.7024283916839633 0.7024283909802579 -0.11484210944233966
    outer loop
      vertex 0.671644422461747 -0.671644422487714 -0.312709991291029
      vertex 0.363491342050318 -0.877545727803311 0.312709991161936
      vertex 0.877545727437357 -0.363491341901283 0.312709991161936
    endloop
  endfacet
  facet normal -0.917766921584911 0.38015150656626184 0.11484210769555421
    outer loop
      vertex 0.949848651573491 -4.5662978112848e-10 -0.312709991187882
      vertex 0.671644422461747 -0.671644422487714 -0.312709991291029
      vertex 0.877545727437357 -0.363491341901283 0.312709991161936
    endloop
  endfacet
  facet normal -0.5773502693283462 0.5773502687499463 -0.5773502694905847
    outer loop
      vertex 0.363491342050318 -0.877545727803311 0.312709991161936
      vertex 0.363491341885963 -0.363491341873813 0.826764376596348
      vertex 0.877545727437357 -0.363491341901283 0.312709991161936
    endloop
  endfacet
  facet normal -0.38015150578261786 0.917766921777517 0.11484210875035929
    outer loop
      vertex 0.671644422461747 -0.671644422487714 -0.312709991291029
      vertex 2.42803778047608e-12 -0.94984865112293 -0.312709991363965
      vertex 0.363491342050318 -0.877545727803311 0.312709991161936
    endloop
  endfacet
  facet normal 0.27059804996081593 0.653281482021922 0.707106781614096
    outer loop
      vertex -0.474924325383355 -0.196720096722916 -0.82676437649288
      vertex 2.42803778047608e-12 -0.94984865112293 -0.312709991363965
      vertex 0.196720096870022 -0.474924325373596 -0.826764376678341
    endloop
  endfacet
  facet normal 0.2705980499608093 0.6532814820219207 0.7071067816140999
    outer loop
      vertex 2.42803778047608e-12 -0.94984865112293 -0.312709991363965
      vertex -0.474924325383355 -0.196720096722916 -0.82676437649288
      vertex -0.671644422361978 -0.671644422225525 -0.312709991363965
    endloop
  endfacet
  facet normal -0.3124597137849769 0.7543444792134274 0.5773502697164291
    outer loop
      vertex 0.671644422461747 -0.671644422487714 -0.312709991291029
      vertex 0.196720096870022 -0.474924325373596 -0.826764376678341
      vertex 2.42803778047608e-12 -0.94984865112293 -0.312709991363965
    endloop
  endfacet
  facet normal 0.7543444793001817 0.312459713659547 0.5773502696709613
    outer loop
      vertex -0.474924325383355 -0.196720096722916 -0.82676437649288
      vertex -0.949848650832769 -8.5839525478575e-11 -0.312709991291029
      vertex -0.671644422361978 -0.671644422225525 -0.312709991363965
    endloop
  endfacet
  facet normal 0.6532814820861026 -0.270598050416127 0.7071067813805608
    outer loop
      vertex -0.671644421660715 0.671644421920272 -0.312709991187882
      vertex -0.474924325383355 -0.196720096722916 -0.82676437649288
      vertex -0.196720096091649 0.474924325143594 -0.826764376640472
    endloop
  endfacet
  facet normal 0.6532814819986679 -0.2705980504712635 0.7071067814402402
    outer loop
      vertex -0.474924325383355 -0.196720096722916 -0.82676437649288
      vertex -0.671644421660715 0.671644421920272 -0.312709991187882
      vertex -0.949848650832769 -8.5839525478575e-11 -0.312709991291029
    endloop
  endfacet
  facet normal 0.31245971373937786 -0.7543444795976625 0.5773502692390796
    outer loop
      vertex -0.196720096091649 0.474924325143594 -0.826764376640472
      vertex 8.2358689612518e-10 0.949848650495175 -0.312709991114946
      vertex -0.671644421660715 0.671644421920272 -0.312709991187882
    endloop
  endfacet
  facet normal -0.27059805010129073 -0.6532814823610718 0.707106781247005
    outer loop
      vertex 8.2358689612518e-10 0.949848650495175 -0.312709991114946
      vertex 0.474924326032036 0.196720096317053 -0.826764376640465
      vertex 0.671644423042395 0.671644421658078 -0.312709991114946
    endloop
  endfacet
  facet normal -0.27059805013226107 -0.653281482368088 0.7071067812286713
    outer loop
      vertex 0.474924326032036 0.196720096317053 -0.826764376640465
      vertex 8.2358689612518e-10 0.949848650495175 -0.312709991114946
      vertex -0.196720096091649 0.474924325143594 -0.826764376640472
    endloop
  endfacet
  facet normal -0.7543444793860313 -0.31245971389984994 0.577350269428742
    outer loop
      vertex 0.474924326032036 0.196720096317053 -0.826764376640465
      vertex 0.949848651573491 -4.5662978112848e-10 -0.312709991187882
      vertex 0.671644423042395 0.671644421658078 -0.312709991114946
    endloop
  endfacet
  facet normal -0.6532814821718215 0.27059805025707745 0.7071067813622327
    outer loop
      vertex 0.474924326032036 0.196720096317053 -0.826764376640465
      vertex 0.671644422461747 -0.671644422487714 -0.312709991291029
      vertex 0.949848651573491 -4.5662978112848e-10 -0.312709991187882
    endloop
  endfacet
  facet normal -0.6532814819279789 0.27059805041084495 0.7071067815286695
    outer loop
      vertex 0.671644422461747 -0.671644422487714 -0.312709991291029
      vertex 0.474924326032036 0.196720096317053 -0.826764376640465
      vertex 0.196720096870022 -0.474924325373596 -0.826764376678341
    endloop
  endfacet
  facet normal -2.5510234113733406e-10 3.448954084354713e-10 -1
    outer loop
      vertex -0.363491342050511 -0.363491341688357 0.826764376781803
      vertex 0.36349134137417 0.363491342334063 0.826764376847081
      vertex 0.363491341885963 -0.363491341873813 0.826764376596348
    endloop
  endfacet
  facet normal 1.3744458448234666e-15 8.97916930620436e-11 -1
    outer loop
      vertex 0.36349134137417 0.363491342334063 0.826764376847081
      vertex -0.363491342050511 -0.363491341688357 0.826764376781803
      vertex -0.36349134250978 0.363491342307412 0.82676437684708
    endloop
  endfacet
  facet normal -1.9946820799996067e-11 -4.8130744025144316e-11 1
    outer loop
      vertex -0.196720096091649 0.474924325143594 -0.826764376640472
      vertex 0.196720096870022 -0.474924325373596 -0.826764376678341
      vertex 0.474924326032036 0.196720096317053 -0.826764376640465
    endloop
  endfacet
  facet normal 3.1338379585326917e-10 8.993931804704478e-11 1
    outer loop
      vertex 0.196720096870022 -0.474924325373596 -0.826764376678341
      vertex -0.196720096091649 0.474924325143594 -0.826764376640472
      vertex -0.474924325383355 -0.196720096722916 -0.82676437649288
    endloop
  endfacet
endsolid OpenSCAD_Model
