solid OpenSCAD_Model
  facet normal 0.35682208918356995 0.4911234723028285 0.7946544731038045
    outer loop
      vertex -0.298595749106954 -0.410981790945549 -0.571470230800908
      vertex -0.781733821472574 -0.567962867166839 -0.257508079916913
      vertex -0.298595749133766 -0.918983223672539 -0.257508079916913
    endloop
  endfacet
  facet normal -7.459801457184531e-16 0.5257311110589975 0.8506508090072401
    outer loop
      vertex -0.298595749106954 -0.410981790945549 -0.571470230800908
      vertex 0.298595750661342 -0.918983223672539 -0.257508079916913
      vertex 0.298595750488513 -0.410981791069758 -0.571470230724142
    endloop
  endfacet
  facet normal 0 0.5257311110589982 0.8506508090072398
    outer loop
      vertex 0.298595750661342 -0.918983223672539 -0.257508079916913
      vertex -0.298595749106954 -0.410981790945549 -0.571470230800908
      vertex -0.298595749133766 -0.918983223672539 -0.257508079916913
    endloop
  endfacet
  facet normal -1.7920803642824025e-18 0.9958102846634627 0.09144329914473434
    outer loop
      vertex 7.79268272330305e-10 -0.966276144344879 0.257508080236592
      vertex 0.298595750661342 -0.918983223672539 -0.257508079916913
      vertex -0.298595749133766 -0.918983223672539 -0.257508079916913
    endloop
  endfacet
  facet normal 0.3077223012031191 0.947071860174106 -0.09144329941890283
    outer loop
      vertex -0.567962866590692 -0.781733821956717 0.257508080236592
      vertex 7.79268272330305e-10 -0.966276144344879 0.257508080236592
      vertex -0.298595749133766 -0.918983223672539 -0.257508079916913
    endloop
  endfacet
  facet normal 0.5853225994655767 0.8056274434259109 0.09144329911967561
    outer loop
      vertex -0.781733821472574 -0.567962867166839 -0.257508079916913
      vertex -0.567962866590692 -0.781733821956717 0.257508080236592
      vertex -0.298595749133766 -0.918983223672539 -0.257508079916913
    endloop
  endfacet
  facet normal 0.49999999908424103 0.1624598484389886 0.8506508088287107
    outer loop
      vertex -0.483138071390496 0.156981075812084 -0.571470231129649
      vertex -0.781733821472574 -0.567962867166839 -0.257508079916913
      vertex -0.298595749106954 -0.410981790945549 -0.571470230800908
    endloop
  endfacet
  facet normal 0.4999999994662776 0.16245984820383114 0.8506508086490664
    outer loop
      vertex -0.781733821472574 -0.567962867166839 -0.257508079916913
      vertex -0.483138071390496 0.156981075812084 -0.571470231129649
      vertex -0.966276144155999 3.56277614717792e-10 -0.257508079916913
    endloop
  endfacet
  facet normal 0.8056274430695257 0.5853225999733143 -0.09144329900948217
    outer loop
      vertex -0.91898322348673 -0.298595749726949 0.257508080150366
      vertex -0.567962866590692 -0.781733821956717 0.257508080236592
      vertex -0.781733821472574 -0.567962867166839 -0.257508079916913
    endloop
  endfacet
  facet normal 0.9470718600236255 0.30772230156359304 0.09144329976436333
    outer loop
      vertex -0.966276144155999 3.56277614717792e-10 -0.257508079916913
      vertex -0.91898322348673 -0.298595749726949 0.257508080150366
      vertex -0.781733821472574 -0.567962867166839 -0.257508079916913
    endloop
  endfacet
  facet normal 0.5773502684747974 -0.18759247333284548 0.7946544729886977
    outer loop
      vertex -0.483138071390496 0.156981075812084 -0.571470231129649
      vertex -0.781733822285721 0.56796286786282 -0.257508079916913
      vertex -0.966276144155999 3.56277614717792e-10 -0.257508079916913
    endloop
  endfacet
  facet normal 0.9958102847182063 1.0530751101319268e-9 -0.09144329854858221
    outer loop
      vertex -0.918983224131075 0.298595749754914 0.257508080010849
      vertex -0.91898322348673 -0.298595749726949 0.257508080150366
      vertex -0.966276144155999 3.56277614717792e-10 -0.257508079916913
    endloop
  endfacet
  facet normal 0.9470718604144632 -0.30772230034365006 0.09144329982180154
    outer loop
      vertex -0.781733822285721 0.56796286786282 -0.257508079916913
      vertex -0.918983224131075 0.298595749754914 0.257508080010849
      vertex -0.966276144155999 3.56277614717792e-10 -0.257508079916913
    endloop
  endfacet
  facet normal 0.3090169936719153 -0.42532540333200847 0.850650809029437
    outer loop
      vertex -0.298595750449467 0.918983224325136 -0.257508079916913
      vertex -0.483138071390496 0.156981075812084 -0.571470231129649
      vertex 8.24882960530389e-10 0.508001432073051 -0.571470231129649
    endloop
  endfacet
  facet normal 0.3090169941164326 -0.4253254033661043 0.8506508088509087
    outer loop
      vertex -0.483138071390496 0.156981075812084 -0.571470231129649
      vertex -0.298595750449467 0.918983224325136 -0.257508079916913
      vertex -0.781733822285721 0.56796286786282 -0.257508079916913
    endloop
  endfacet
  facet normal 0.8056274437352334 -0.5853225990005189 -0.09144329937131011
    outer loop
      vertex -0.567962868418006 0.781733821593926 0.257508079871333
      vertex -0.918983224131075 0.298595749754914 0.257508080010849
      vertex -0.781733822285721 0.56796286786282 -0.257508079916913
    endloop
  endfacet
  facet normal 0.5853225998536747 -0.8056274432216495 0.091443298435057
    outer loop
      vertex -0.298595750449467 0.918983224325136 -0.257508079916913
      vertex -0.567962868418006 0.781733821593926 0.257508079871333
      vertex -0.781733822285721 0.56796286786282 -0.257508079916913
    endloop
  endfacet
  facet normal 6.0962166346817215e-15 -0.6070619975312795 0.7946544728077309
    outer loop
      vertex 8.24882960530389e-10 0.508001432073051 -0.571470231129649
      vertex 0.298595749180602 0.918983224325142 -0.257508079916913
      vertex -0.298595750449467 0.918983224325136 -0.257508079916913
    endloop
  endfacet
  facet normal 0.30772230079932605 -0.9470718601290415 -0.09144330124446612
    outer loop
      vertex -1.47941751565099e-9 0.966276143616877 0.257508079785107
      vertex -0.567962868418006 0.781733821593926 0.257508079871333
      vertex -0.298595750449467 0.918983224325136 -0.257508079916913
    endloop
  endfacet
  facet normal 9.996937562822045e-15 -0.995810284899245 0.09144329657708382
    outer loop
      vertex 0.298595749180602 0.918983224325142 -0.257508079916913
      vertex -1.47941751565099e-9 0.966276143616877 0.257508079785107
      vertex -0.298595750449467 0.918983224325136 -0.257508079916913
    endloop
  endfacet
  facet normal -0.3090169944465795 -0.425325404290669 0.8506508082686935
    outer loop
      vertex 0.298595749180602 0.918983224325142 -0.257508079916913
      vertex 0.48313807295583 0.156981075695876 -0.57147023112965
      vertex 0.781733821550927 0.56796286786282 -0.257508079916913
    endloop
  endfacet
  facet normal -0.3090169945293386 -0.4253254042970168 0.8506508082354556
    outer loop
      vertex 0.48313807295583 0.156981075695876 -0.57147023112965
      vertex 0.298595749180602 0.918983224325142 -0.257508079916913
      vertex 8.24882960530389e-10 0.508001432073051 -0.571470231129649
    endloop
  endfacet
  facet normal -0.30772230120045213 -0.9470718598765169 -0.09144330250998817
    outer loop
      vertex 0.567962865873968 0.781733821177713 0.257508079785107
      vertex -1.47941751565099e-9 0.966276143616877 0.257508079785107
      vertex 0.298595749180602 0.918983224325142 -0.257508079916913
    endloop
  endfacet
  facet normal -0.585322599558038 -0.8056274437052843 0.0914432960665223
    outer loop
      vertex 0.781733821550927 0.56796286786282 -0.257508079916913
      vertex 0.567962865873968 0.781733821177713 0.257508079785107
      vertex 0.298595749180602 0.918983224325142 -0.257508079916913
    endloop
  endfacet
  facet normal -0.5773502697608246 -0.18759247462913287 0.7946544717483324
    outer loop
      vertex 0.48313807295583 0.156981075695876 -0.57147023112965
      vertex 0.966276144285354 3.56277614717792e-10 -0.257508079916913
      vertex 0.781733821550927 0.56796286786282 -0.257508079916913
    endloop
  endfacet
  facet normal -0.8056274428341066 -0.5853225998349161 -0.09144330196943375
    outer loop
      vertex 0.918983222672999 0.298595749081467 0.257508079871333
      vertex 0.567962865873968 0.781733821177713 0.257508079785107
      vertex 0.781733821550927 0.56796286786282 -0.257508079916913
    endloop
  endfacet
  facet normal -0.9470718602076765 -0.3077223017174199 0.09144329734050723
    outer loop
      vertex 0.966276144285354 3.56277614717792e-10 -0.257508079916913
      vertex 0.918983222672999 0.298595749081467 0.257508079871333
      vertex 0.781733821550927 0.56796286786282 -0.257508079916913
    endloop
  endfacet
  facet normal -0.5000000006880945 0.16245984784007736 0.8506508080003713
    outer loop
      vertex 0.48313807295583 0.156981075695876 -0.57147023112965
      vertex 0.781733822466081 -0.567962867166836 -0.257508079916913
      vertex 0.966276144285354 3.56277614717792e-10 -0.257508079916913
    endloop
  endfacet
  facet normal -0.49999999920529725 0.16245984875279346 0.8506508086976243
    outer loop
      vertex 0.781733822466081 -0.567962867166836 -0.257508079916913
      vertex 0.48313807295583 0.156981075695876 -0.57147023112965
      vertex 0.298595750488513 -0.410981791069758 -0.571470230724142
    endloop
  endfacet
  facet normal -0.9958102845546231 -1.1852270242068396e-9 -0.09144330032999048
    outer loop
      vertex 0.918983223370973 -0.298595750400402 0.257508080010849
      vertex 0.918983222672999 0.298595749081467 0.257508079871333
      vertex 0.966276144285354 3.56277614717792e-10 -0.257508079916913
    endloop
  endfacet
  facet normal -0.9470718605179669 0.30772230028325176 0.09144329895307313
    outer loop
      vertex 0.781733822466081 -0.567962867166836 -0.257508079916913
      vertex 0.918983223370973 -0.298595750400402 0.257508080010849
      vertex 0.966276144285354 3.56277614717792e-10 -0.257508079916913
    endloop
  endfacet
  facet normal -0.3568220894807335 0.49112347216893887 0.7946544730531181
    outer loop
      vertex 0.298595750488513 -0.410981791069758 -0.571470230724142
      vertex 0.298595750661342 -0.918983223672539 -0.257508079916913
      vertex 0.781733822466081 -0.567962867166836 -0.257508079916913
    endloop
  endfacet
  facet normal -0.8056274438224822 0.5853225989005814 -0.09144329924233045
    outer loop
      vertex 0.567962867701279 -0.781733822270935 0.257508080150366
      vertex 0.918983223370973 -0.298595750400402 0.257508080010849
      vertex 0.781733822466081 -0.567962867166836 -0.257508079916913
    endloop
  endfacet
  facet normal -0.5853225998710578 0.8056274430934467 0.09144329945327324
    outer loop
      vertex 0.298595750661342 -0.918983223672539 -0.257508079916913
      vertex 0.567962867701279 -0.781733822270935 0.257508080150366
      vertex 0.781733822466081 -0.567962867166836 -0.257508079916913
    endloop
  endfacet
  facet normal -0.3077223009659467 0.9470718602670553 -0.09144329925436086
    outer loop
      vertex 7.79268272330305e-10 -0.966276144344879 0.257508080236592
      vertex 0.567962867701279 -0.781733822270935 0.257508080150366
      vertex 0.298595750661342 -0.918983223672539 -0.257508079916913
    endloop
  endfacet
  facet normal 4.196622052238071e-10 5.776126252902233e-10 1
    outer loop
      vertex 8.24882960530389e-10 0.508001432073051 -0.571470231129649
      vertex 0.298595750488513 -0.410981791069758 -0.571470230724142
      vertex 0.48313807295583 0.156981075695876 -0.57147023112965
    endloop
  endfacet
  facet normal -1.2854490887910674e-10 3.994893363288782e-10 1
    outer loop
      vertex 8.24882960530389e-10 0.508001432073051 -0.571470231129649
      vertex -0.298595749106954 -0.410981790945549 -0.571470230800908
      vertex 0.298595750488513 -0.410981791069758 -0.571470230724142
    endloop
  endfacet
  facet normal -3.402143750506929e-10 4.682649150402833e-10 1
    outer loop
      vertex -0.298595749106954 -0.410981790945549 -0.571470230800908
      vertex 8.24882960530389e-10 0.508001432073051 -0.571470231129649
      vertex -0.483138071390496 0.156981075812084 -0.571470231129649
    endloop
  endfacet
  facet normal 0.16245984866745997 0.4999999994055078 -0.8506508085962406
    outer loop
      vertex 7.79268272330305e-10 -0.966276144344879 0.257508080236592
      vertex -0.410981790925422 -0.298595749835733 0.571470230713994
      vertex 0.156981075819443 -0.483138072256087 0.57147023104273
    endloop
  endfacet
  facet normal 0.16245984785988465 0.49999999907287723 -0.8506508089459893
    outer loop
      vertex -0.410981790925422 -0.298595749835733 0.571470230713994
      vertex 7.79268272330305e-10 -0.966276144344879 0.257508080236592
      vertex -0.567962866590692 -0.781733821956717 0.257508080236592
    endloop
  endfacet
  facet normal 0.49112347208886714 0.3568220893636165 -0.7946544731551941
    outer loop
      vertex -0.91898322348673 -0.298595749726949 0.257508080150366
      vertex -0.410981790925422 -0.298595749835733 0.571470230713994
      vertex -0.567962866590692 -0.781733821956717 0.257508080236592
    endloop
  endfacet
  facet normal -0.18759247386914613 0.5773502685226928 -0.7946544728272963
    outer loop
      vertex 0.156981075819443 -0.483138072256087 0.57147023104273
      vertex 0.567962867701279 -0.781733822270935 0.257508080150366
      vertex 7.79268272330305e-10 -0.966276144344879 0.257508080236592
    endloop
  endfacet
  facet normal -0.4253254038963692 0.30901699353634665 -0.8506508087965049
    outer loop
      vertex 0.567962867701279 -0.781733822270935 0.257508080150366
      vertex 0.508001431428173 -4.38506552268501e-10 0.571470230903214
      vertex 0.918983223370973 -0.298595750400402 0.257508080010849
    endloop
  endfacet
  facet normal -0.42532540391680684 0.30901699353139706 -0.850650808788084
    outer loop
      vertex 0.508001431428173 -4.38506552268501e-10 0.571470230903214
      vertex 0.567962867701279 -0.781733822270935 0.257508080150366
      vertex 0.156981075819443 -0.483138072256087 0.57147023104273
    endloop
  endfacet
  facet normal -0.6070619978392919 -8.95157576035459e-10 -0.7946544725724305
    outer loop
      vertex 0.508001431428173 -4.38506552268501e-10 0.571470230903214
      vertex 0.918983222672999 0.298595749081467 0.257508079871333
      vertex 0.918983223370973 -0.298595750400402 0.257508080010849
    endloop
  endfacet
  facet normal -0.4253254039394821 -0.30901699481496375 -0.8506508083104636
    outer loop
      vertex 0.508001431428173 -4.38506552268501e-10 0.571470230903214
      vertex 0.567962865873968 0.781733821177713 0.257508079785107
      vertex 0.918983222672999 0.298595749081467 0.257508079871333
    endloop
  endfacet
  facet normal -0.4253254039190468 -0.3090169948199128 -0.8506508083188834
    outer loop
      vertex 0.567962865873968 0.781733821177713 0.257508079785107
      vertex 0.508001431428173 -4.38506552268501e-10 0.571470230903214
      vertex 0.156981074660659 0.483138071583401 0.571470230816991
    endloop
  endfacet
  facet normal -0.18759247417984465 -0.5773502691461151 -0.7946544723010074
    outer loop
      vertex 0.156981074660659 0.483138071583401 0.571470230816991
      vertex -1.47941751565099e-9 0.966276143616877 0.257508079785107
      vertex 0.567962865873968 0.781733821177713 0.257508079785107
    endloop
  endfacet
  facet normal 0.1624598485479642 -0.49999999950573976 -0.8506508085601477
    outer loop
      vertex -0.410981791693979 0.298595749446488 0.571470230497709
      vertex -1.47941751565099e-9 0.966276143616877 0.257508079785107
      vertex 0.156981074660659 0.483138071583401 0.571470230816991
    endloop
  endfacet
  facet normal 0.16245984753811923 -0.4999999990897966 -0.850650808997496
    outer loop
      vertex -1.47941751565099e-9 0.966276143616877 0.257508079785107
      vertex -0.410981791693979 0.298595749446488 0.571470230497709
      vertex -0.567962868418006 0.781733821593926 0.257508079871333
    endloop
  endfacet
  facet normal 0.4911234719989054 -0.35682208875562255 -0.7946544734837997
    outer loop
      vertex -0.410981791693979 0.298595749446488 0.571470230497709
      vertex -0.918983224131075 0.298595749754914 0.257508080010849
      vertex -0.567962868418006 0.781733821593926 0.257508079871333
    endloop
  endfacet
  facet normal 0.5257311107948878 3.6851033046803324e-10 -0.8506508091704688
    outer loop
      vertex -0.91898322348673 -0.298595749726949 0.257508080150366
      vertex -0.410981791693979 0.298595749446488 0.571470230497709
      vertex -0.410981790925422 -0.298595749835733 0.571470230713994
    endloop
  endfacet
  facet normal 0.5257311107948868 3.6851158133264996e-10 -0.8506508091704694
    outer loop
      vertex -0.410981791693979 0.298595749446488 0.571470230497709
      vertex -0.91898322348673 -0.298595749726949 0.257508080150366
      vertex -0.918983224131075 0.298595749754914 0.257508080010849
    endloop
  endfacet
  facet normal -7.591144606899938e-11 -2.3361746493374815e-10 -1
    outer loop
      vertex 0.156981075819443 -0.483138072256087 0.57147023104273
      vertex 0.156981074660659 0.483138071583401 0.571470230816991
      vertex 0.508001431428173 -4.38506552268501e-10 0.571470230903214
    endloop
  endfacet
  facet normal 5.028913590719896e-10 -2.3361746423963247e-10 -1
    outer loop
      vertex -0.410981790925422 -0.298595749835733 0.571470230713994
      vertex 0.156981074660659 0.483138071583401 0.571470230816991
      vertex 0.156981075819443 -0.483138072256087 0.57147023104273
    endloop
  endfacet
  facet normal 6.798293335102682e-10 -3.621704272040947e-10 -1
    outer loop
      vertex 0.156981074660659 0.483138071583401 0.571470230816991
      vertex -0.410981790925422 -0.298595749835733 0.571470230713994
      vertex -0.410981791693979 0.298595749446488 0.571470230497709
    endloop
  endfacet
endsolid OpenSCAD_Model
