solid OpenSCAD_Model
  facet normal 0.3568220891835704 0.49112347230282904 0.794654473103804
    outer loop
      vertex -0.298595748789213 -0.410981791174625 -0.571470230782916
      vertex -0.781733821139621 -0.567962867390972 -0.257508079908806
      vertex -0.298595748816025 -0.91898322388562 -0.257508079908806
    endloop
  endfacet
  facet normal -9.529910469672195e-16 0.5257311110589982 0.8506508090072398
    outer loop
      vertex -0.298595748789213 -0.410981791174625 -0.571470230782916
      vertex 0.29859575096028 -0.91898322388562 -0.257508079908806
      vertex 0.298595750787451 -0.410981791298834 -0.57147023070615
    endloop
  endfacet
  facet normal 0 0.5257311110589988 0.8506508090072392
    outer loop
      vertex 0.29859575096028 -0.91898322388562 -0.257508079908806
      vertex -0.298595748789213 -0.410981791174625 -0.571470230782916
      vertex -0.298595748816025 -0.91898322388562 -0.257508079908806
    endloop
  endfacet
  facet normal 3.1050926942436153e-18 0.9958102846634627 0.0914432991447345
    outer loop
      vertex 1.08760759380516e-9 -0.966276144556471 0.257508080228484
      vertex 0.29859575096028 -0.91898322388562 -0.257508079908806
      vertex -0.298595748816025 -0.91898322388562 -0.257508079908806
    endloop
  endfacet
  facet normal 0.30772230120311994 0.9470718601741059 -0.09144329941890281
    outer loop
      vertex -0.56796286626447 -0.781733822174119 0.257508080228484
      vertex 1.08760759380516e-9 -0.966276144556471 0.257508080228484
      vertex -0.298595748816025 -0.91898322388562 -0.257508079908806
    endloop
  endfacet
  facet normal 0.5853225994655771 0.805627443425911 0.09144329911967532
    outer loop
      vertex -0.781733821139621 -0.567962867390972 -0.257508079908806
      vertex -0.56796286626447 -0.781733822174119 0.257508080228484
      vertex -0.298595748816025 -0.91898322388562 -0.257508079908806
    endloop
  endfacet
  facet normal 0.4999999990842421 0.16245984843898745 0.8506508088287104
    outer loop
      vertex -0.483138071066945 0.156981075565126 -0.571470231111656
      vertex -0.781733821139621 -0.567962867390972 -0.257508079908806
      vertex -0.298595748789213 -0.410981791174625 -0.571470230782916
    endloop
  endfacet
  facet normal 0.49999999946627577 0.16245984820383166 0.8506508086490674
    outer loop
      vertex -0.781733821139621 -0.567962867390972 -0.257508079908806
      vertex -0.483138071066945 0.156981075565126 -0.571470231111656
      vertex -0.966276143817237 1.14262278455845e-10 -0.257508079908806
    endloop
  endfacet
  facet normal 0.8056274430695257 0.5853225999733144 -0.09144329900948187
    outer loop
      vertex -0.918983223149456 -0.298595749959563 0.257508080142258
      vertex -0.56796286626447 -0.781733822174119 0.257508080228484
      vertex -0.781733821139621 -0.567962867390972 -0.257508079908806
    endloop
  endfacet
  facet normal 0.9470718600236251 0.30772230156359504 0.0914432997643626
    outer loop
      vertex -0.966276143817237 1.14262278455845e-10 -0.257508079908806
      vertex -0.918983223149456 -0.298595749959563 0.257508080142258
      vertex -0.781733821139621 -0.567962867390972 -0.257508079908806
    endloop
  endfacet
  facet normal 0.5773502684747958 -0.1875924733328454 0.794654472988699
    outer loop
      vertex -0.483138071066945 0.156981075565126 -0.571470231111656
      vertex -0.781733821952769 0.567962867602922 -0.257508079908806
      vertex -0.966276143817237 1.14262278455845e-10 -0.257508079908806
    endloop
  endfacet
  facet normal 0.9958102847505623 1.665947363843624e-9 -0.09144329819622457
    outer loop
      vertex -0.918983224161343 0.298595749770537 0.257508080002741
      vertex -0.918983223149456 -0.298595749959563 0.257508080142258
      vertex -0.966276143817237 1.14262278455845e-10 -0.257508079908806
    endloop
  endfacet
  facet normal 0.9470718603421117 -0.30772230032014225 0.09144330065024964
    outer loop
      vertex -0.781733821952769 0.567962867602922 -0.257508079908806
      vertex -0.918983224161343 0.298595749770537 0.257508080002741
      vertex -0.966276143817237 1.14262278455845e-10 -0.257508079908806
    endloop
  endfacet
  facet normal 0.3090169936719144 -0.42532540333200736 0.850650809029438
    outer loop
      vertex -0.298595750131726 0.918983224054187 -0.257508079908806
      vertex -0.483138071066945 0.156981075565126 -0.571470231111656
      vertex 1.13322228200381e-9 0.508001431815041 -0.571470231111656
    endloop
  endfacet
  facet normal 0.30901699411643224 -0.4253254033661033 0.8506508088509095
    outer loop
      vertex -0.483138071066945 0.156981075565126 -0.571470231111656
      vertex -0.298595750131726 0.918983224054187 -0.257508079908806
      vertex -0.781733821952769 0.567962867602922 -0.257508079908806
    endloop
  endfacet
  facet normal 0.8056274443903348 -0.5853225983190423 -0.09144329796186783
    outer loop
      vertex -0.567962868913628 0.781733821924417 0.257508079863224
      vertex -0.918983224161343 0.298595749770537 0.257508080002741
      vertex -0.781733821952769 0.567962867602922 -0.257508079908806
    endloop
  endfacet
  facet normal 0.5853225997536875 -0.8056274430840279 0.0914433002875316
    outer loop
      vertex -0.298595750131726 0.918983224054187 -0.257508079908806
      vertex -0.567962868913628 0.781733821924417 0.257508079863224
      vertex -0.781733821952769 0.567962867602922 -0.257508079908806
    endloop
  endfacet
  facet normal 6.1019206531038555e-15 -0.6070619975312775 0.7946544728077324
    outer loop
      vertex 1.13322228200381e-9 0.508001431815041 -0.571470231111656
      vertex 0.29859574947954 0.918983224054193 -0.257508079908806
      vertex -0.298595750131726 0.918983224054187 -0.257508079908806
    endloop
  endfacet
  facet normal 0.30772230143690643 -0.9470718601080511 -0.09144329931629734
    outer loop
      vertex -2.36046268411508e-9 0.966276144208586 0.257508079776998
      vertex -0.567962868913628 0.781733821924417 0.257508079863224
      vertex -0.298595750131726 0.918983224054187 -0.257508079908806
    endloop
  endfacet
  facet normal 9.996937561609373e-15 -0.9958102847470949 0.09144329823398518
    outer loop
      vertex 0.29859574947954 0.918983224054193 -0.257508079908806
      vertex -2.36046268411508e-9 0.966276144208586 0.257508079776998
      vertex -0.298595750131726 0.918983224054187 -0.257508079908806
    endloop
  endfacet
  facet normal -0.3090169944465798 -0.42532540429066895 0.8506508082686935
    outer loop
      vertex 0.29859574947954 0.918983224054193 -0.257508079908806
      vertex 0.483138073248958 0.156981075448918 -0.571470231111658
      vertex 0.781733821834654 0.567962867602922 -0.257508079908806
    endloop
  endfacet
  facet normal -0.3090169945293363 -0.42532540429701665 0.8506508082354565
    outer loop
      vertex 0.483138073248958 0.156981075448918 -0.571470231111658
      vertex 0.29859574947954 0.918983224054193 -0.257508079908806
      vertex 1.13322228200381e-9 0.508001431815041 -0.571470231111656
    endloop
  endfacet
  facet normal -0.3077223011415849 -0.9470718599847152 -0.09144330158748562
    outer loop
      vertex 0.567962864834653 0.781733821877233 0.257508079776998
      vertex -2.36046268411508e-9 0.966276144208586 0.257508079776998
      vertex 0.29859574947954 0.918983224054193 -0.257508079908806
    endloop
  endfacet
  facet normal -0.5853225995580374 -0.8056274437052826 0.09144329606654095
    outer loop
      vertex 0.781733821834654 0.567962867602922 -0.257508079908806
      vertex 0.567962864834653 0.781733821877233 0.257508079776998
      vertex 0.29859574947954 0.918983224054193 -0.257508079908806
    endloop
  endfacet
  facet normal -0.5773502697608249 -0.18759247462913237 0.7946544717483323
    outer loop
      vertex 0.483138073248958 0.156981075448918 -0.571470231111658
      vertex 0.96627614456327 1.14262278455845e-10 -0.257508079908806
      vertex 0.781733821834654 0.567962867602922 -0.257508079908806
    endloop
  endfacet
  facet normal -0.8056274427130196 -0.5853225998574628 -0.09144330289190607
    outer loop
      vertex 0.91898322176302 0.298595749694198 0.257508079863224
      vertex 0.567962864834653 0.781733821877233 0.257508079776998
      vertex 0.781733821834654 0.567962867602922 -0.257508079908806
    endloop
  endfacet
  facet normal -0.947071860352378 -0.30772230176443527 0.09144329568362845
    outer loop
      vertex 0.96627614456327 1.14262278455845e-10 -0.257508079908806
      vertex 0.91898322176302 0.298595749694198 0.257508079863224
      vertex 0.781733821834654 0.567962867602922 -0.257508079908806
    endloop
  endfacet
  facet normal -0.5000000006880949 0.16245984784007697 0.8506508080003711
    outer loop
      vertex 0.483138073248958 0.156981075448918 -0.571470231111658
      vertex 0.781733822749808 -0.567962867390969 -0.257508079908806
      vertex 0.96627614456327 1.14262278455845e-10 -0.257508079908806
    endloop
  endfacet
  facet normal -0.4999999992052969 0.16245984875279357 0.8506508086976245
    outer loop
      vertex 0.781733822749808 -0.567962867390969 -0.257508079908806
      vertex 0.483138073248958 0.156981075448918 -0.571470231111658
      vertex 0.298595750787451 -0.410981791298834 -0.57147023070615
    endloop
  endfacet
  facet normal -0.9958102843775651 -1.7980975794754653e-9 -0.09144330225813732
    outer loop
      vertex 0.918983222828535 -0.298595750035902 0.257508080002741
      vertex 0.91898322176302 0.298595749694198 0.257508079863224
      vertex 0.96627614456327 1.14262278455845e-10 -0.257508079908806
    endloop
  endfacet
  facet normal -0.9470718606797488 0.3077223003358168 0.09144329710061623
    outer loop
      vertex 0.781733822749808 -0.567962867390969 -0.257508079908806
      vertex 0.918983222828535 -0.298595750035902 0.257508080002741
      vertex 0.96627614456327 1.14262278455845e-10 -0.257508079908806
    endloop
  endfacet
  facet normal -0.35682208948073335 0.4911234721689393 0.794654473053118
    outer loop
      vertex 0.298595750787451 -0.410981791298834 -0.57147023070615
      vertex 0.29859575096028 -0.91898322388562 -0.257508079908806
      vertex 0.781733822749808 -0.567962867390969 -0.257508079908806
    endloop
  endfacet
  facet normal -0.8056274442681742 0.5853225980669474 -0.09144330065176134
    outer loop
      vertex 0.567962867624206 -0.781733822221298 0.257508080142258
      vertex 0.918983222828535 -0.298595750035902 0.257508080002741
      vertex 0.781733822749808 -0.567962867390969 -0.257508079908806
    endloop
  endfacet
  facet normal -0.5853225999157724 0.8056274431549924 0.09144329862483254
    outer loop
      vertex 0.29859575096028 -0.91898322388562 -0.257508079908806
      vertex 0.567962867624206 -0.781733822221298 0.257508080142258
      vertex 0.781733822749808 -0.567962867390969 -0.257508079908806
    endloop
  endfacet
  facet normal -0.3077223015388252 0.9470718600468943 -0.09144329960672068
    outer loop
      vertex 1.08760759380516e-9 -0.966276144556471 0.257508080228484
      vertex 0.567962867624206 -0.781733822221298 0.257508080142258
      vertex 0.29859575096028 -0.91898322388562 -0.257508079908806
    endloop
  endfacet
  facet normal 4.196638784033693e-10 5.776120816637057e-10 1
    outer loop
      vertex 1.13322228200381e-9 0.508001431815041 -0.571470231111656
      vertex 0.298595750787451 -0.410981791298834 -0.57147023070615
      vertex 0.483138073248958 0.156981075448918 -0.571470231111658
    endloop
  endfacet
  facet normal -1.285450947905266e-10 3.9948818864708374e-10 1
    outer loop
      vertex 1.13322228200381e-9 0.508001431815041 -0.571470231111656
      vertex -0.298595748789213 -0.410981791174625 -0.571470230782916
      vertex 0.298595750787451 -0.410981791298834 -0.57147023070615
    endloop
  endfacet
  facet normal -3.4021322609065506e-10 4.682633336324597e-10 1
    outer loop
      vertex -0.298595748789213 -0.410981791174625 -0.571470230782916
      vertex 1.13322228200381e-9 0.508001431815041 -0.571470231111656
      vertex -0.483138071066945 0.156981075565126 -0.571470231111656
    endloop
  endfacet
  facet normal 0.1875924737161809 0.5773502678955147 -0.7946544733190782
    outer loop
      vertex -0.156981074864052 -0.483138071854114 0.571470230719834
      vertex 1.08760759380516e-9 -0.966276144556471 0.257508080228484
      vertex -0.56796286626447 -0.781733822174119 0.257508080228484
    endloop
  endfacet
  facet normal 0.4253254031928446 0.30901699396886656 -0.850650808991145
    outer loop
      vertex -0.56796286626447 -0.781733822174119 0.257508080228484
      vertex -0.508001431732179 1.25919554031091e-10 0.571470230556843
      vertex -0.156981074864052 -0.483138071854114 0.571470230719834
    endloop
  endfacet
  facet normal 0.4253254031928459 0.3090169939688663 -0.8506508089911445
    outer loop
      vertex -0.508001431732179 1.25919554031091e-10 0.571470230556843
      vertex -0.56796286626447 -0.781733822174119 0.257508080228484
      vertex -0.918983223149456 -0.298595749959563 0.257508080142258
    endloop
  endfacet
  facet normal -0.1624598481817796 0.4999999990760353 -0.8506508088826564
    outer loop
      vertex 1.08760759380516e-9 -0.966276144556471 0.257508080228484
      vertex 0.410981791185755 -0.298595749912403 0.571470230962348
      vertex 0.567962867624206 -0.781733822221298 0.257508080142258
    endloop
  endfacet
  facet normal -0.16245984737420133 0.49999999874340345 -0.8506508092324062
    outer loop
      vertex 0.410981791185755 -0.298595749912403 0.571470230962348
      vertex 1.08760759380516e-9 -0.966276144556471 0.257508080228484
      vertex -0.156981074864052 -0.483138071854114 0.571470230719834
    endloop
  endfacet
  facet normal -0.4911234732487228 0.35682208843175006 -0.794654472856798
    outer loop
      vertex 0.410981791185755 -0.298595749912403 0.571470230962348
      vertex 0.918983222828535 -0.298595750035902 0.257508080002741
      vertex 0.567962867624206 -0.781733822221298 0.257508080142258
    endloop
  endfacet
  facet normal -0.525731111962539 -1.1367450975644119e-9 -0.8506508084488207
    outer loop
      vertex 0.410981791185755 -0.298595749912403 0.571470230962348
      vertex 0.91898322176302 0.298595749694198 0.257508079863224
      vertex 0.918983222828535 -0.298595750035902 0.257508080002741
    endloop
  endfacet
  facet normal -0.5257311119489138 -1.1527623698135019e-9 -0.8506508084572416
    outer loop
      vertex 0.91898322176302 0.298595749694198 0.257508079863224
      vertex 0.410981791185755 -0.298595749912403 0.571470230962348
      vertex 0.410981790102044 0.298595749739024 0.571470230822832
    endloop
  endfacet
  facet normal -0.4911234729397825 -0.3568220903328657 -0.7946544721940796
    outer loop
      vertex 0.410981790102044 0.298595749739024 0.571470230822832
      vertex 0.567962864834653 0.781733821877233 0.257508079776998
      vertex 0.91898322176302 0.298595749694198 0.257508079863224
    endloop
  endfacet
  facet normal -0.16245984813562772 -0.499999999921523 -0.8506508083945055
    outer loop
      vertex 0.410981790102044 0.298595749739024 0.571470230822832
      vertex -2.36046268411508e-9 0.966276144208586 0.257508079776998
      vertex 0.567962864834653 0.781733821877233 0.257508079776998
    endloop
  endfacet
  facet normal -0.16245984811618447 -0.49999999991351457 -0.8506508084029262
    outer loop
      vertex -2.36046268411508e-9 0.966276144208586 0.257508079776998
      vertex 0.410981790102044 0.298595749739024 0.571470230822832
      vertex -0.156981077023877 0.483138072028764 0.571470230822832
    endloop
  endfacet
  facet normal 0.1875924739990238 -0.5773502686323654 -0.7946544727169546
    outer loop
      vertex -0.156981077023877 0.483138072028764 0.571470230822832
      vertex -0.567962868913628 0.781733821924417 0.257508079863224
      vertex -2.36046268411508e-9 0.966276144208586 0.257508079776998
    endloop
  endfacet
  facet normal 0.4253254045300565 -0.3090169929070533 -0.8506508087082655
    outer loop
      vertex -0.508001431732179 1.25919554031091e-10 0.571470230556843
      vertex -0.567962868913628 0.781733821924417 0.257508079863224
      vertex -0.156981077023877 0.483138072028764 0.571470230822832
    endloop
  endfacet
  facet normal 0.42532540346858844 -0.3090169931641205 -0.8506508091456144
    outer loop
      vertex -0.567962868913628 0.781733821924417 0.257508079863224
      vertex -0.508001431732179 1.25919554031091e-10 0.571470230556843
      vertex -0.918983224161343 0.298595749770537 0.257508080002741
    endloop
  endfacet
  facet normal 0.6070619969486712 8.429629819179618e-10 -0.7946544732528039
    outer loop
      vertex -0.508001431732179 1.25919554031091e-10 0.571470230556843
      vertex -0.918983223149456 -0.298595749959563 0.257508080142258
      vertex -0.918983224161343 0.298595749770537 0.257508080002741
    endloop
  endfacet
  facet normal 5.028967834965403e-10 -2.3362012667855156e-10 -1
    outer loop
      vertex -0.156981074864052 -0.483138071854114 0.571470230719834
      vertex 0.410981790102044 0.298595749739024 0.571470230822832
      vertex 0.410981791185755 -0.298595749912403 0.571470230962348
    endloop
  endfacet
  facet normal 3.4634054414929055e-11 1.0659265908019795e-10 -1
    outer loop
      vertex -0.156981074864052 -0.483138071854114 0.571470230719834
      vertex -0.156981077023877 0.483138072028764 0.571470230822832
      vertex 0.410981790102044 0.298595749739024 0.571470230822832
    endloop
  endfacet
  facet normal 6.11047289167307e-10 1.0659266036859955e-10 -1
    outer loop
      vertex -0.156981077023877 0.483138072028764 0.571470230822832
      vertex -0.156981074864052 -0.483138071854114 0.571470230719834
      vertex -0.508001431732179 1.25919554031091e-10 0.571470230556843
    endloop
  endfacet
endsolid OpenSCAD_Model
