solid OpenSCAD_Model
  facet normal 0.356822089183569 0.49112347230282727 0.7946544731038059
    outer loop
      vertex -0.281294384413766 -0.38716850539844 -0.709746514159834
      vertex -0.736438260634011 -0.535053715882357 -0.413976094660278
      vertex -0.281294384439024 -0.865735098349175 -0.413976094660278
    endloop
  endfacet
  facet normal 5.421572148668705e-16 0.5257311110589967 0.8506508090072405
    outer loop
      vertex -0.281294384413766 -0.38716850539844 -0.709746514159834
      vertex 0.281294385954615 -0.865735098349175 -0.413976094660278
      vertex 0.2812943857918 -0.387168505515452 -0.709746514087517
    endloop
  endfacet
  facet normal 0 0.5257311110589964 0.8506508090072408
    outer loop
      vertex 0.281294385954615 -0.865735098349175 -0.413976094660278
      vertex -0.281294384413766 -0.38716850539844 -0.709746514159834
      vertex -0.281294384439024 -0.865735098349175 -0.413976094660278
    endloop
  endfacet
  facet normal 3.493790119526062e-18 0.9958102846634627 0.09144329914473368
    outer loop
      vertex 7.72378100585616e-10 -0.910287752059926 0.0711987753320491
      vertex 0.281294385954615 -0.865735098349175 -0.413976094660278
      vertex -0.281294384439024 -0.865735098349175 -0.413976094660278
    endloop
  endfacet
  facet normal 0.3077223012031205 0.9470718601741057 -0.09144329941890347
    outer loop
      vertex -0.53505371531792 -0.736438261111774 0.0711987753320491
      vertex 7.72378100585616e-10 -0.910287752059926 0.0711987753320491
      vertex -0.281294384439024 -0.865735098349175 -0.413976094660278
    endloop
  endfacet
  facet normal 0.5853225994655769 0.8056274434259111 0.09144329911967419
    outer loop
      vertex -0.736438260634011 -0.535053715882357 -0.413976094660278
      vertex -0.53505371531792 -0.736438261111774 0.0711987753320491
      vertex -0.281294384439024 -0.865735098349175 -0.413976094660278
    endloop
  endfacet
  facet normal 0.4999999990842395 0.16245984843898784 0.8506508088287117
    outer loop
      vertex -0.455143875263359 0.147885210115011 -0.709746514469527
      vertex -0.736438260634011 -0.535053715882357 -0.413976094660278
      vertex -0.281294384413766 -0.38716850539844 -0.709746514159834
    endloop
  endfacet
  facet normal 0.4999999994662751 0.16245984820383103 0.850650808649068
    outer loop
      vertex -0.736438260634011 -0.535053715882357 -0.413976094660278
      vertex -0.455143875263359 0.147885210115011 -0.709746514469527
      vertex -0.910287751860318 3.52223871625124e-10 -0.413976094660278
    endloop
  endfacet
  facet normal 0.805627443069525 0.5853225999733153 -0.09144329900948248
    outer loop
      vertex -0.865735098152459 -0.28129438501951 0.0711987752508191
      vertex -0.53505371531792 -0.736438261111774 0.0711987753320491
      vertex -0.736438260634011 -0.535053715882357 -0.413976094660278
    endloop
  endfacet
  facet normal 0.9470718600236254 0.3077223015635943 0.09144329976436265
    outer loop
      vertex -0.910287751860318 3.52223871625124e-10 -0.413976094660278
      vertex -0.865735098152459 -0.28129438501951 0.0711987752508191
      vertex -0.736438260634011 -0.535053715882357 -0.413976094660278
    endloop
  endfacet
  facet normal 0.5773502684747945 -0.18759247333284457 0.7946544729887001
    outer loop
      vertex -0.455143875263359 0.147885210115011 -0.709746514469527
      vertex -0.736438261400043 0.535053716571191 -0.413976094660278
      vertex -0.910287751860318 3.52223871625124e-10 -0.413976094660278
    endloop
  endfacet
  facet normal 0.9958102847182061 1.0530749194894149e-9 -0.09144329854858355
    outer loop
      vertex -0.865735098759469 0.281294385079034 0.071198775119386
      vertex -0.865735098152459 -0.28129438501951 0.0711987752508191
      vertex -0.910287751860318 3.52223871625124e-10 -0.413976094660278
    endloop
  endfacet
  facet normal 0.9470718604144633 -0.30772230034365006 0.09144329982179968
    outer loop
      vertex -0.736438261400043 0.535053716571191 -0.413976094660278
      vertex -0.865735098759469 0.281294385079034 0.071198775119386
      vertex -0.910287751860318 3.52223871625124e-10 -0.413976094660278
    endloop
  endfacet
  facet normal 0.30901699367191493 -0.4253254033320063 0.8506508090294382
    outer loop
      vertex -0.281294385678491 0.865735098997139 -0.413976094660278
      vertex -0.455143875263359 0.147885210115011 -0.709746514469527
      vertex 8.15349762699325e-10 0.478566592351277 -0.709746514469527
    endloop
  endfacet
  facet normal 0.3090169941164313 -0.42532540336610214 0.8506508088509105
    outer loop
      vertex -0.455143875263359 0.147885210115011 -0.709746514469527
      vertex -0.281294385678491 0.865735098997139 -0.413976094660278
      vertex -0.736438261400043 0.535053716571191 -0.413976094660278
    endloop
  endfacet
  facet normal 0.8056274437352339 -0.5853225990005182 -0.09144329937131124
    outer loop
      vertex -0.535053717039356 0.736438260803184 0.0711987749879535
      vertex -0.865735098759469 0.281294385079034 0.071198775119386
      vertex -0.736438261400043 0.535053716571191 -0.413976094660278
    endloop
  endfacet
  facet normal 0.5853225998536753 -0.8056274432216493 0.09144329843505575
    outer loop
      vertex -0.281294385678491 0.865735098997139 -0.413976094660278
      vertex -0.535053717039356 0.736438260803184 0.0711987749879535
      vertex -0.736438261400043 0.535053716571191 -0.413976094660278
    endloop
  endfacet
  facet normal 5.366532167796055e-15 -0.607061997531278 0.7946544728077322
    outer loop
      vertex 8.15349762699325e-10 0.478566592351277 -0.709746514469527
      vertex 0.281294384559672 0.865735098997144 -0.413976094660278
      vertex -0.281294385678491 0.865735098997139 -0.413976094660278
    endloop
  endfacet
  facet normal 0.307722300799325 -0.9470718601290417 -0.09144330124446855
    outer loop
      vertex -1.35543393391581e-9 0.910287751407285 0.0711987749067235
      vertex -0.535053717039356 0.736438260803184 0.0711987749879535
      vertex -0.281294385678491 0.865735098997139 -0.413976094660278
    endloop
  endfacet
  facet normal 8.843176476728173e-15 -0.9958102848992452 0.09144329657708139
    outer loop
      vertex 0.281294384559672 0.865735098997144 -0.413976094660278
      vertex -1.35543393391581e-9 0.910287751407285 0.0711987749067235
      vertex -0.281294385678491 0.865735098997139 -0.413976094660278
    endloop
  endfacet
  facet normal -0.30901699444657865 -0.4253254042906677 0.8506508082686945
    outer loop
      vertex 0.281294384559672 0.865735098997144 -0.413976094660278
      vertex 0.455143876814519 0.147885210005537 -0.709746514469528
      vertex 0.736438260784349 0.535053716571191 -0.413976094660278
    endloop
  endfacet
  facet normal -0.3090169945293381 -0.42532540429701565 0.8506508082354564
    outer loop
      vertex 0.455143876814519 0.147885210005537 -0.709746514469528
      vertex 0.281294384559672 0.865735098997144 -0.413976094660278
      vertex 8.15349762699325e-10 0.478566592351277 -0.709746514469527
    endloop
  endfacet
  facet normal -0.30772230120044997 -0.9470718598765178 -0.09144330250998853
    outer loop
      vertex 0.535053714719251 0.736438260411088 0.0711987749067235
      vertex -1.35543393391581e-9 0.910287751407285 0.0711987749067235
      vertex 0.281294384559672 0.865735098997144 -0.413976094660278
    endloop
  endfacet
  facet normal -0.585322599558038 -0.805627443705284 0.09144329606652343
    outer loop
      vertex 0.736438260784349 0.535053716571191 -0.413976094660278
      vertex 0.535053714719251 0.736438260411088 0.0711987749067235
      vertex 0.281294384559672 0.865735098997144 -0.413976094660278
    endloop
  endfacet
  facet normal -0.577350269760823 -0.18759247462913237 0.7946544717483337
    outer loop
      vertex 0.455143876814519 0.147885210005537 -0.709746514469528
      vertex 0.910287752058702 3.52223871625124e-10 -0.413976094660278
      vertex 0.736438260784349 0.535053716571191 -0.413976094660278
    endloop
  endfacet
  facet normal -0.8056274428341074 -0.5853225998349151 -0.09144330196943289
    outer loop
      vertex 0.865735097462403 0.281294384444608 0.0711987749879535
      vertex 0.535053714719251 0.736438260411088 0.0711987749067235
      vertex 0.736438260784349 0.535053716571191 -0.413976094660278
    endloop
  endfacet
  facet normal -0.9470718602076765 -0.3077223017174198 0.09144329734050781
    outer loop
      vertex 0.910287752058702 3.52223871625124e-10 -0.413976094660278
      vertex 0.865735097462403 0.281294384444608 0.0711987749879535
      vertex 0.736438260784349 0.535053716571191 -0.413976094660278
    endloop
  endfacet
  facet normal -0.5000000006880927 0.16245984784007675 0.8506508080003723
    outer loop
      vertex 0.455143876814519 0.147885210005537 -0.709746514469528
      vertex 0.736438261646477 -0.535053715882354 -0.413976094660278
      vertex 0.910287752058702 3.52223871625124e-10 -0.413976094660278
    endloop
  endfacet
  facet normal -0.4999999992052979 0.1624598487527913 0.8506508086976242
    outer loop
      vertex 0.736438261646477 -0.535053715882354 -0.413976094660278
      vertex 0.455143876814519 0.147885210005537 -0.709746514469528
      vertex 0.2812943857918 -0.387168505515452 -0.709746514087517
    endloop
  endfacet
  facet normal -0.995810284554623 -1.1852259040152009e-9 -0.09144330032999011
    outer loop
      vertex 0.865735098119934 -0.281294385653941 0.071198775119386
      vertex 0.865735097462403 0.281294384444608 0.0711987749879535
      vertex 0.910287752058702 3.52223871625124e-10 -0.413976094660278
    endloop
  endfacet
  facet normal -0.947071860517967 0.30772230028325165 0.09144329895307238
    outer loop
      vertex 0.736438261646477 -0.535053715882354 -0.413976094660278
      vertex 0.865735098119934 -0.281294385653941 0.071198775119386
      vertex 0.910287752058702 3.52223871625124e-10 -0.413976094660278
    endloop
  endfacet
  facet normal -0.3568220894807342 0.49112347216893804 0.7946544730531184
    outer loop
      vertex 0.2812943857918 -0.387168505515452 -0.709746514087517
      vertex 0.281294385954615 -0.865735098349175 -0.413976094660278
      vertex 0.736438261646477 -0.535053715882354 -0.413976094660278
    endloop
  endfacet
  facet normal -0.8056274438224824 0.585322598900581 -0.091443299242331
    outer loop
      vertex 0.535053716440682 -0.736438261407786 0.0711987752508191
      vertex 0.865735098119934 -0.281294385653941 0.071198775119386
      vertex 0.736438261646477 -0.535053715882354 -0.413976094660278
    endloop
  endfacet
  facet normal -0.5853225998710591 0.8056274430934457 0.09144329945327194
    outer loop
      vertex 0.281294385954615 -0.865735098349175 -0.413976094660278
      vertex 0.535053716440682 -0.736438261407786 0.0711987752508191
      vertex 0.736438261646477 -0.535053715882354 -0.413976094660278
    endloop
  endfacet
  facet normal -0.30772230096594705 0.9470718602670549 -0.09144329925436184
    outer loop
      vertex 7.72378100585616e-10 -0.910287752059926 0.0711987753320491
      vertex 0.535053716440682 -0.736438261407786 0.0711987752508191
      vertex 0.281294385954615 -0.865735098349175 -0.413976094660278
    endloop
  endfacet
  facet normal 4.1966135934923895e-10 5.776112859624717e-10 1
    outer loop
      vertex 8.15349762699325e-10 0.478566592351277 -0.709746514469527
      vertex 0.2812943857918 -0.387168505515452 -0.709746514087517
      vertex 0.455143876814519 0.147885210005537 -0.709746514469528
    endloop
  endfacet
  facet normal -1.2854334289511244e-10 3.994887806614778e-10 1
    outer loop
      vertex 8.15349762699325e-10 0.478566592351277 -0.709746514469527
      vertex -0.281294384413766 -0.38716850539844 -0.709746514159834
      vertex 0.2812943857918 -0.387168505515452 -0.709746514087517
    endloop
  endfacet
  facet normal -3.402143304952602e-10 4.682648537149892e-10 1
    outer loop
      vertex -0.281294384413766 -0.38716850539844 -0.709746514159834
      vertex 8.15349762699325e-10 0.478566592351277 -0.709746514469527
      vertex -0.455143875263359 0.147885210115011 -0.709746514469527
    endloop
  endfacet
  facet normal 0.3035309991564969 0.9341723588694305 -0.18759247446361646
    outer loop
      vertex -0.239283295315863 -0.736438261107833 0.549765366899957
      vertex 7.72378100585616e-10 -0.910287752059926 0.0711987753320491
      vertex -0.53505371531792 -0.736438261111774 0.0711987753320491
    endloop
  endfacet
  facet normal 0.7236067972204422 0.525731112437279 -0.44721359598276433
    outer loop
      vertex -0.239283295315863 -0.736438261107833 0.549765366899957
      vertex -0.774337011995736 1.18558260378286e-10 0.54976536700798
      vertex -0.387168505565361 -0.281294385081142 0.845535786461875
    endloop
  endfacet
  facet normal 0.7236067972204382 0.5257311124372761 -0.44721359598277416
    outer loop
      vertex -0.774337011995736 1.18558260378286e-10 0.54976536700798
      vertex -0.239283295315863 -0.736438261107833 0.549765366899957
      vertex -0.865735098152459 -0.28129438501951 0.0711987752508191
    endloop
  endfacet
  facet normal 0.7236067972204382 0.5257311124372749 -0.4472135959827754
    outer loop
      vertex -0.865735098152459 -0.28129438501951 0.0711987752508191
      vertex -0.239283295315863 -0.736438261107833 0.549765366899957
      vertex -0.53505371531792 -0.736438261111774 0.0711987753320491
    endloop
  endfacet
  facet normal -0.27639320206035745 0.8506508081029546 -0.447213596090965
    outer loop
      vertex 7.72378100585616e-10 -0.910287752059926 0.0711987753320491
      vertex 0.147885210160523 -0.455143875962803 0.845535786710691
      vertex 0.626451802246014 -0.455143876217734 0.549765367030574
    endloop
  endfacet
  facet normal -0.2763932020603625 0.8506508081029559 -0.44721359609095945
    outer loop
      vertex 7.72378100585616e-10 -0.910287752059926 0.0711987753320491
      vertex 0.626451802246014 -0.455143876217734 0.549765367030574
      vertex 0.535053716440682 -0.736438261407786 0.0711987752508191
    endloop
  endfacet
  facet normal -0.27639320209475754 0.8506508080970545 -0.44721359608092714
    outer loop
      vertex 0.147885210160523 -0.455143875962803 0.845535786710691
      vertex 7.72378100585616e-10 -0.910287752059926 0.0711987753320491
      vertex -0.239283295315863 -0.736438261107833 0.549765366899957
    endloop
  endfacet
  facet normal -0.7946544725945455 0.5773502686271964 -0.1875924745334663
    outer loop
      vertex 0.626451802246014 -0.455143876217734 0.549765367030574
      vertex 0.865735098119934 -0.281294385653941 0.071198775119386
      vertex 0.535053716440682 -0.736438261407786 0.0711987752508191
    endloop
  endfacet
  facet normal -0.8944271908810763 -1.1498464671406907e-9 -0.4472135957376372
    outer loop
      vertex 0.865735097462403 0.281294384444608 0.0711987749879535
      vertex 0.478566591771164 -2.95180743418587e-10 0.845535786579259
      vertex 0.626451801164966 0.455143875409464 0.549765366817909
    endloop
  endfacet
  facet normal -0.8944271908810759 -1.1498488216145362e-9 -0.4472135957376379
    outer loop
      vertex 0.865735098119934 -0.281294385653941 0.071198775119386
      vertex 0.478566591771164 -2.95180743418587e-10 0.845535786579259
      vertex 0.865735097462403 0.281294384444608 0.0711987749879535
    endloop
  endfacet
  facet normal -0.8944271908874838 -1.1939472228123911e-9 -0.4472135957248221
    outer loop
      vertex 0.478566591771164 -2.95180743418587e-10 0.845535786579259
      vertex 0.865735098119934 -0.281294385653941 0.071198775119386
      vertex 0.626451802246014 -0.455143876217734 0.549765367030574
    endloop
  endfacet
  facet normal -0.7946544718791454 -0.5773502697828586 -0.18759247400718618
    outer loop
      vertex 0.626451801164966 0.455143875409464 0.549765366817909
      vertex 0.535053714719251 0.736438260411088 0.0711987749067235
      vertex 0.865735097462403 0.281294384444608 0.0711987749879535
    endloop
  endfacet
  facet normal -0.27639320241367055 -0.8506508083618756 -0.4472135953801087
    outer loop
      vertex -1.35543393391581e-9 0.910287751407285 0.0711987749067235
      vertex 0.147885209088814 0.455143875579405 0.845535786498032
      vertex -0.239283297178839 0.736438260726773 0.549765366817909
    endloop
  endfacet
  facet normal -0.2763932023865272 -0.850650808366531 -0.447213595388029
    outer loop
      vertex 0.147885209088814 0.455143875579405 0.845535786498032
      vertex -1.35543393391581e-9 0.910287751407285 0.0711987749067235
      vertex 0.626451801164966 0.455143875409464 0.549765366817909
    endloop
  endfacet
  facet normal -0.2763932024176279 -0.850650808374063 -0.44721359535448096
    outer loop
      vertex 0.626451801164966 0.455143875409464 0.549765366817909
      vertex -1.35543393391581e-9 0.910287751407285 0.0711987749067235
      vertex 0.535053714719251 0.736438260411088 0.0711987749067235
    endloop
  endfacet
  facet normal 0.303530998811519 -0.9341723590345824 -0.1875924741993799
    outer loop
      vertex -0.239283297178839 0.736438260726773 0.549765366817909
      vertex -0.535053717039356 0.736438260803184 0.0711987749879535
      vertex -1.35543393391581e-9 0.910287751407285 0.0711987749067235
    endloop
  endfacet
  facet normal 0.7236067973735643 -0.5257311112091435 -0.4472135971787672
    outer loop
      vertex -0.774337011995736 1.18558260378286e-10 0.54976536700798
      vertex -0.239283297178839 0.736438260726773 0.549765366817909
      vertex -0.387168506002166 0.281294385002246 0.845535786240665
    endloop
  endfacet
  facet normal 0.7236067977759447 -0.5257311117032739 -0.4472135959468169
    outer loop
      vertex -0.239283297178839 0.736438260726773 0.549765366817909
      vertex -0.865735098759469 0.281294385079034 0.071198775119386
      vertex -0.535053717039356 0.736438260803184 0.0711987749879535
    endloop
  endfacet
  facet normal 0.7236067977906051 -0.5257311115121414 -0.4472135961477856
    outer loop
      vertex -0.239283297178839 0.736438260726773 0.549765366817909
      vertex -0.774337011995736 1.18558260378286e-10 0.54976536700798
      vertex -0.865735098759469 0.281294385079034 0.071198775119386
    endloop
  endfacet
  facet normal 0.9822469462398804 1.015978081415202e-9 -0.18759247480224098
    outer loop
      vertex -0.774337011995736 1.18558260378286e-10 0.54976536700798
      vertex -0.865735098152459 -0.28129438501951 0.0711987752508191
      vertex -0.865735098759469 0.281294385079034 0.071198775119386
    endloop
  endfacet
  facet normal 0.6070619973569605 1.588767409343408e-10 -0.7946544729408987
    outer loop
      vertex -0.387168506002166 0.281294385002246 0.845535786240665
      vertex -0.387168505565361 -0.281294385081142 0.845535786461875
      vertex -0.774337011995736 1.18558260378286e-10 0.54976536700798
    endloop
  endfacet
  facet normal 0.18759247448208885 0.5773502689430081 -0.7946544723772233
    outer loop
      vertex -0.387168505565361 -0.281294385081142 0.845535786461875
      vertex 0.147885210160523 -0.455143875962803 0.845535786710691
      vertex -0.239283295315863 -0.736438261107833 0.549765366899957
    endloop
  endfacet
  facet normal -0.49112347307439636 0.35682208900425705 -0.794654472707466
    outer loop
      vertex 0.147885210160523 -0.455143875962803 0.845535786710691
      vertex 0.478566591771164 -2.95180743418587e-10 0.845535786579259
      vertex 0.626451802246014 -0.455143876217734 0.549765367030574
    endloop
  endfacet
  facet normal -0.491123473041209 -0.3568220903456094 -0.7946544721256721
    outer loop
      vertex 0.478566591771164 -2.95180743418587e-10 0.845535786579259
      vertex 0.147885209088814 0.455143875579405 0.845535786498032
      vertex 0.626451801164966 0.455143875409464 0.549765366817909
    endloop
  endfacet
  facet normal 0.18759247428249437 -0.5773502686157841 -0.7946544726620833
    outer loop
      vertex 0.147885209088814 0.455143875579405 0.845535786498032
      vertex -0.387168506002166 0.281294385002246 0.845535786240665
      vertex -0.239283297178839 0.736438260726773 0.549765366817909
    endloop
  endfacet
  facet normal -7.59113667510215e-11 -2.336173382982727e-10 -1
    outer loop
      vertex 0.147885210160523 -0.455143875962803 0.845535786710691
      vertex 0.147885209088814 0.455143875579405 0.845535786498032
      vertex 0.478566591771164 -2.95180743418587e-10 0.845535786579259
    endloop
  endfacet
  facet normal 3.8912301042105795e-10 -2.336173377507738e-10 -1
    outer loop
      vertex -0.387168505565361 -0.281294385081142 0.845535786461875
      vertex 0.147885209088814 0.455143875579405 0.845535786498032
      vertex 0.147885210160523 -0.455143875962803 0.845535786710691
    endloop
  endfacet
  facet normal 6.087697865889792e-10 -3.9320006148792525e-10 -1
    outer loop
      vertex 0.147885209088814 0.455143875579405 0.845535786498032
      vertex -0.387168505565361 -0.281294385081142 0.845535786461875
      vertex -0.387168506002166 0.281294385002246 0.845535786240665
    endloop
  endfacet
endsolid OpenSCAD_Model
