solid OpenSCAD_Model
  facet normal 0.35682208918356967 0.4911234723028273 0.7946544731038055
    outer loop
      vertex -0.281294384110847 -0.387168505691869 -0.709746514228419
      vertex -0.736438260375073 -0.535053716190076 -0.413976094700282
      vertex -0.281294384136106 -0.865735098688848 -0.413976094700282
    endloop
  endfacet
  facet normal 1.329439536446997e-16 0.5257311110589971 0.8506508090072403
    outer loop
      vertex -0.281294384110847 -0.387168505691869 -0.709746514228419
      vertex 0.281294386311896 -0.865735098688848 -0.413976094700282
      vertex 0.281294386149081 -0.387168505808882 -0.709746514156101
    endloop
  endfacet
  facet normal 0 0.5257311110589971 0.8506508090072405
    outer loop
      vertex 0.281294386311896 -0.865735098688848 -0.413976094700282
      vertex -0.281294384110847 -0.387168505691869 -0.709746514228419
      vertex -0.281294384136106 -0.865735098688848 -0.413976094700282
    endloop
  endfacet
  facet normal 4.785132334329952e-18 0.9958102846634624 0.0914432991447355
    outer loop
      vertex 1.1024782382953e-9 -0.910287752403905 0.0711987753389273
      vertex 0.281294386311896 -0.865735098688848 -0.413976094700282
      vertex -0.281294384136106 -0.865735098688848 -0.413976094700282
    endloop
  endfacet
  facet normal 0.30772230120312166 0.9470718601741055 -0.09144329941890295
    outer loop
      vertex -0.535053715039523 -0.736438261438953 0.0711987753389273
      vertex 1.1024782382953e-9 -0.910287752403905 0.0711987753389273
      vertex -0.281294384136106 -0.865735098688848 -0.413976094700282
    endloop
  endfacet
  facet normal 0.5853225994655776 0.8056274434259105 0.09144329911967476
    outer loop
      vertex -0.736438260375073 -0.535053716190076 -0.413976094700282
      vertex -0.535053715039523 -0.736438261438953 0.0711987753389273
      vertex -0.281294384136106 -0.865735098688848 -0.413976094700282
    endloop
  endfacet
  facet normal 0.49999999908423975 0.162459848438989 0.8506508088287115
    outer loop
      vertex -0.45514387497724 0.147885209873284 -0.709746514538112
      vertex -0.736438260375073 -0.535053716190076 -0.413976094700282
      vertex -0.281294384110847 -0.387168505691869 -0.709746514228419
    endloop
  endfacet
  facet normal 0.4999999994662763 0.16245984820383144 0.8506508086490672
    outer loop
      vertex -0.736438260375073 -0.535053716190076 -0.413976094700282
      vertex -0.45514387497724 0.147885209873284 -0.709746514538112
      vertex -0.910287751618179 9.62068600278161e-11 -0.413976094700282
    endloop
  endfacet
  facet normal 0.8056274430695254 0.585322599973315 -0.09144329900948135
    outer loop
      vertex -0.865735097906015 -0.281294385302709 0.0711987752576973
      vertex -0.535053715039523 -0.736438261438953 0.0711987753389273
      vertex -0.736438260375073 -0.535053716190076 -0.413976094700282
    endloop
  endfacet
  facet normal 0.9470718600236252 0.30772230156359426 0.0914432997643633
    outer loop
      vertex -0.910287751618179 9.62068600278161e-11 -0.413976094700282
      vertex -0.865735097906015 -0.281294385302709 0.0711987752576973
      vertex -0.736438260375073 -0.535053716190076 -0.413976094700282
    endloop
  endfacet
  facet normal 0.577350268474796 -0.18759247333284504 0.794654472988699
    outer loop
      vertex -0.45514387497724 0.147885209873284 -0.709746514538112
      vertex -0.736438261141105 0.535053716366876 -0.413976094700282
      vertex -0.910287751618179 9.62068600278161e-11 -0.413976094700282
    endloop
  endfacet
  facet normal 0.9958102847505627 1.6659477407445553e-9 -0.09144329819622354
    outer loop
      vertex -0.865735098859271 0.281294385101766 0.0711987751262643
      vertex -0.865735097906015 -0.281294385302709 0.0711987752576973
      vertex -0.910287751618179 9.62068600278161e-11 -0.413976094700282
    endloop
  endfacet
  facet normal 0.9470718603421117 -0.3077223003201416 0.09144330065025072
    outer loop
      vertex -0.736438261141105 0.535053716366876 -0.413976094700282
      vertex -0.865735098859271 0.281294385101766 0.0711987751262643
      vertex -0.910287751618179 9.62068600278161e-11 -0.413976094700282
    endloop
  endfacet
  facet normal 0.30901699367191554 -0.4253254033320074 0.8506508090294376
    outer loop
      vertex -0.281294385375572 0.865735098824778 -0.413976094700282
      vertex -0.45514387497724 0.147885209873284 -0.709746514538112
      vertex 1.14544990041316e-9 0.478566592141504 -0.709746514538112
    endloop
  endfacet
  facet normal 0.309016994116432 -0.42532540336610325 0.8506508088509096
    outer loop
      vertex -0.45514387497724 0.147885209873284 -0.709746514538112
      vertex -0.281294385375572 0.865735098824778 -0.413976094700282
      vertex -0.736438261141105 0.535053716366876 -0.413976094700282
    endloop
  endfacet
  facet normal 0.805627444390335 -0.5853225983190424 -0.0914432979618669
    outer loop
      vertex -0.535053717535182 0.736438261180851 0.0711987749948317
      vertex -0.865735098859271 0.281294385101766 0.0711987751262643
      vertex -0.736438261141105 0.535053716366876 -0.413976094700282
    endloop
  endfacet
  facet normal 0.5853225997536874 -0.8056274430840281 0.09144330028753274
    outer loop
      vertex -0.281294385375572 0.865735098824778 -0.413976094700282
      vertex -0.535053717535182 0.736438261180851 0.0711987749948317
      vertex -0.736438261141105 0.535053716366876 -0.413976094700282
    endloop
  endfacet
  facet normal 5.397379691093482e-15 -0.607061997531279 0.7946544728077313
    outer loop
      vertex 1.14544990041316e-9 0.478566592141504 -0.709746514538112
      vertex 0.281294384916954 0.865735098824783 -0.413976094700282
      vertex -0.281294385375572 0.865735098824778 -0.413976094700282
    endloop
  endfacet
  facet normal 0.30772230143690515 -0.9470718601080516 -0.09144329931629637
    outer loop
      vertex -2.1458024535767e-9 0.910287752053307 0.0711987749136017
      vertex -0.535053717535182 0.736438261180851 0.0711987749948317
      vertex -0.281294385375572 0.865735098824778 -0.413976094700282
    endloop
  endfacet
  facet normal 8.843176474522504e-15 -0.9958102847470949 0.091443298233986
    outer loop
      vertex 0.281294384916954 0.865735098824783 -0.413976094700282
      vertex -2.1458024535767e-9 0.910287752053307 0.0711987749136017
      vertex -0.281294385375572 0.865735098824778 -0.413976094700282
    endloop
  endfacet
  facet normal -0.30901699444657915 -0.4253254042906683 0.850650808268694
    outer loop
      vertex 0.281294384916954 0.865735098824783 -0.413976094700282
      vertex 0.4551438771886 0.14788520976381 -0.709746514538113
      vertex 0.736438261185612 0.535053716366876 -0.413976094700282
    endloop
  endfacet
  facet normal -0.30901699452933856 -0.42532540429701626 0.8506508082354558
    outer loop
      vertex 0.4551438771886 0.14788520976381 -0.709746514538113
      vertex 0.281294384916954 0.865735098824783 -0.413976094700282
      vertex 1.14544990041316e-9 0.478566592141504 -0.709746514538112
    endloop
  endfacet
  facet normal -0.30772230114158533 -0.9470718599847151 -0.09144330158748457
    outer loop
      vertex 0.535053713848331 0.7364382611364 0.0711987749136017
      vertex -2.1458024535767e-9 0.910287752053307 0.0711987749136017
      vertex 0.281294384916954 0.865735098824783 -0.413976094700282
    endloop
  endfacet
  facet normal -0.5853225995580372 -0.8056274437052828 0.09144329606654096
    outer loop
      vertex 0.736438261185612 0.535053716366876 -0.413976094700282
      vertex 0.535053713848331 0.7364382611364 0.0711987749136017
      vertex 0.281294384916954 0.865735098824783 -0.413976094700282
    endloop
  endfacet
  facet normal -0.5773502697608236 -0.18759247462913248 0.7946544717483333
    outer loop
      vertex 0.4551438771886 0.14788520976381 -0.709746514538113
      vertex 0.910287752476764 9.62068600278161e-11 -0.413976094700282
      vertex 0.736438261185612 0.535053716366876 -0.413976094700282
    endloop
  endfacet
  facet normal -0.8056274427130191 -0.5853225998574634 -0.09144330289190544
    outer loop
      vertex 0.865735096755691 0.28129438502985 0.0711987749948317
      vertex 0.535053713848331 0.7364382611364 0.0711987749136017
      vertex 0.736438261185612 0.535053716366876 -0.413976094700282
    endloop
  endfacet
  facet normal -0.9470718603523778 -0.3077223017644361 0.09144329568362894
    outer loop
      vertex 0.910287752476764 9.62068600278161e-11 -0.413976094700282
      vertex 0.865735096755691 0.28129438502985 0.0711987749948317
      vertex 0.736438261185612 0.535053716366876 -0.413976094700282
    endloop
  endfacet
  facet normal -0.5000000006880935 0.16245984784007686 0.8506508080003721
    outer loop
      vertex 0.4551438771886 0.14788520976381 -0.709746514538113
      vertex 0.73643826204774 -0.535053716190073 -0.413976094700282
      vertex 0.910287752476764 9.62068600278161e-11 -0.413976094700282
    endloop
  endfacet
  facet normal -0.49999999920529614 0.16245984875279296 0.850650808697625
    outer loop
      vertex 0.73643826204774 -0.535053716190073 -0.413976094700282
      vertex 0.4551438771886 0.14788520976381 -0.709746514538113
      vertex 0.281294386149081 -0.387168505808882 -0.709746514156101
    endloop
  endfacet
  facet normal -0.995810284377565 -1.7980967622005902e-9 -0.0914433022581377
    outer loop
      vertex 0.865735097759467 -0.281294385374624 0.0711987751262643
      vertex 0.865735096755691 0.28129438502985 0.0711987749948317
      vertex 0.910287752476764 9.62068600278161e-11 -0.413976094700282
    endloop
  endfacet
  facet normal -0.9470718606797488 0.30772230033581754 0.09144329710061565
    outer loop
      vertex 0.73643826204774 -0.535053716190073 -0.413976094700282
      vertex 0.865735097759467 -0.281294385374624 0.0711987751262643
      vertex 0.910287752476764 9.62068600278161e-11 -0.413976094700282
    endloop
  endfacet
  facet normal -0.3568220894807336 0.4911234721689385 0.7946544730531185
    outer loop
      vertex 0.281294386149081 -0.387168505808882 -0.709746514156101
      vertex 0.281294386311896 -0.865735098688848 -0.413976094700282
      vertex 0.73643826204774 -0.535053716190073 -0.413976094700282
    endloop
  endfacet
  facet normal -0.8056274442681745 0.5853225980669472 -0.09144330065176108
    outer loop
      vertex 0.535053716476251 -0.736438261483398 0.0711987752576973
      vertex 0.865735097759467 -0.281294385374624 0.0711987751262643
      vertex 0.73643826204774 -0.535053716190073 -0.413976094700282
    endloop
  endfacet
  facet normal -0.5853225999157734 0.8056274431549916 0.0914432986248319
    outer loop
      vertex 0.281294386311896 -0.865735098688848 -0.413976094700282
      vertex 0.535053716476251 -0.736438261483398 0.0711987752576973
      vertex 0.73643826204774 -0.535053716190073 -0.413976094700282
    endloop
  endfacet
  facet normal -0.30772230153882746 0.9470718600468933 -0.09144329960672104
    outer loop
      vertex 1.1024782382953e-9 -0.910287752403905 0.0711987753389273
      vertex 0.535053716476251 -0.736438261483398 0.0711987752576973
      vertex 0.281294386311896 -0.865735098688848 -0.413976094700282
    endloop
  endfacet
  facet normal 4.1966245698436126e-10 5.776127967276094e-10 1
    outer loop
      vertex 1.14544990041316e-9 0.478566592141504 -0.709746514538112
      vertex 0.281294386149081 -0.387168505808882 -0.709746514156101
      vertex 0.4551438771886 0.14788520976381 -0.709746514538113
    endloop
  endfacet
  facet normal -1.2854492161740184e-10 3.9948942182537894e-10 1
    outer loop
      vertex 1.14544990041316e-9 0.478566592141504 -0.709746514538112
      vertex -0.281294384110847 -0.387168505691869 -0.709746514228419
      vertex 0.281294386149081 -0.387168505808882 -0.709746514156101
    endloop
  endfacet
  facet normal -3.402144524263486e-10 4.682650215387354e-10 1
    outer loop
      vertex -0.281294384110847 -0.387168505691869 -0.709746514228419
      vertex 1.14544990041316e-9 0.478566592141504 -0.709746514538112
      vertex -0.45514387497724 0.147885209873284 -0.709746514538112
    endloop
  endfacet
  facet normal 0.2763932022121177 0.8506508080014974 -0.447213596190155
    outer loop
      vertex 1.1024782382953e-9 -0.910287752403905 0.0711987753389273
      vertex -0.14788520926565 -0.455143875897072 0.845535786566036
      vertex 0.239283296941067 -0.736438261317511 0.549765366916759
    endloop
  endfacet
  facet normal 0.27639320221212454 0.8506508080014963 -0.44721359619015294
    outer loop
      vertex -0.14788520926565 -0.455143875897072 0.845535786566036
      vertex 1.1024782382953e-9 -0.910287752403905 0.0711987753389273
      vertex -0.626451801390708 -0.45514387594615 0.549765367156213
    endloop
  endfacet
  facet normal 0.2763932022121255 0.8506508080014965 -0.44721359619015183
    outer loop
      vertex -0.626451801390708 -0.45514387594615 0.549765367156213
      vertex 1.1024782382953e-9 -0.910287752403905 0.0711987753389273
      vertex -0.535053715039523 -0.736438261438953 0.0711987753389273
    endloop
  endfacet
  facet normal 0.7946544717985133 0.5773502696573148 -0.18759247473513257
    outer loop
      vertex -0.865735097906015 -0.281294385302709 0.0711987752576973
      vertex -0.626451801390708 -0.45514387594615 0.549765367156213
      vertex -0.535053715039523 -0.736438261438953 0.0711987753389273
    endloop
  endfacet
  facet normal -0.3035309994948493 0.9341723587206583 -0.18759247465700615
    outer loop
      vertex 0.239283296941067 -0.736438261317511 0.549765366916759
      vertex 0.535053716476251 -0.736438261483398 0.0711987752576973
      vertex 1.1024782382953e-9 -0.910287752403905 0.0711987753389273
    endloop
  endfacet
  facet normal -0.7236067983843375 0.52573111073184 -0.4472135961044058
    outer loop
      vertex 0.239283296941067 -0.736438261317511 0.549765366916759
      vertex 0.774337011093443 -4.63080201701638e-11 0.549765366966143
      vertex 0.865735097759467 -0.281294385374624 0.0711987751262643
    endloop
  endfacet
  facet normal -0.7236067983831532 0.5257311107472799 -0.4472135960881714
    outer loop
      vertex 0.239283296941067 -0.736438261317511 0.549765366916759
      vertex 0.865735097759467 -0.281294385374624 0.0711987751262643
      vertex 0.535053716476251 -0.736438261483398 0.0711987752576973
    endloop
  endfacet
  facet normal -0.7236067983762139 0.5257311107259377 -0.44721359612448863
    outer loop
      vertex 0.774337011093443 -4.63080201701638e-11 0.549765366966143
      vertex 0.239283296941067 -0.736438261317511 0.549765366916759
      vertex 0.387168505774221 -0.28129438513697 0.84553578673362
    endloop
  endfacet
  facet normal -0.9822469463578353 -1.7963594114603332e-9 -0.1875924741846221
    outer loop
      vertex 0.774337011093443 -4.63080201701638e-11 0.549765366966143
      vertex 0.865735096755691 0.28129438502985 0.0711987749948317
      vertex 0.865735097759467 -0.281294385374624 0.0711987751262643
    endloop
  endfacet
  facet normal -0.7236067973910499 -0.5257311128201334 -0.4472135952566425
    outer loop
      vertex 0.865735096755691 0.28129438502985 0.0711987749948317
      vertex 0.239283294136402 0.736438261189655 0.549765366834711
      vertex 0.535053713848331 0.7364382611364 0.0711987749136017
    endloop
  endfacet
  facet normal -0.7236067973895374 -0.5257311128398547 -0.44721359523590626
    outer loop
      vertex 0.774337011093443 -4.63080201701638e-11 0.549765366966143
      vertex 0.239283294136402 0.736438261189655 0.549765366834711
      vertex 0.865735096755691 0.28129438502985 0.0711987749948317
    endloop
  endfacet
  facet normal -0.723606797372758 -0.5257311128276638 -0.44721359527738697
    outer loop
      vertex 0.239283294136402 0.736438261189655 0.549765366834711
      vertex 0.774337011093443 -4.63080201701638e-11 0.549765366966143
      vertex 0.387168504765623 0.281294385157423 0.845535786602188
    endloop
  endfacet
  facet normal -0.3035309991812168 -0.9341723589455054 -0.1875924740447815
    outer loop
      vertex 0.239283294136402 0.736438261189655 0.549765366834711
      vertex -2.1458024535767e-9 0.910287752053307 0.0711987749136017
      vertex 0.535053713848331 0.7364382611364 0.0711987749136017
    endloop
  endfacet
  facet normal 0.27639320241490445 -0.8506508080905506 -0.4472135958954367
    outer loop
      vertex -2.1458024535767e-9 0.910287752053307 0.0711987749136017
      vertex -0.147885211125308 0.455143876035724 0.845535786602188
      vertex -0.626451803087959 0.455143876039949 0.549765366966143
    endloop
  endfacet
  facet normal 0.2763932024148941 -0.8506508080905482 -0.44721359589544774
    outer loop
      vertex -2.1458024535767e-9 0.910287752053307 0.0711987749136017
      vertex -0.626451803087959 0.455143876039949 0.549765366966143
      vertex -0.535053717535182 0.736438261180851 0.0711987749948317
    endloop
  endfacet
  facet normal 0.2763932024588279 -0.8506508080830171 -0.44721359588262
    outer loop
      vertex -0.147885211125308 0.455143876035724 0.845535786602188
      vertex -2.1458024535767e-9 0.910287752053307 0.0711987749136017
      vertex 0.239283294136402 0.736438261189655 0.549765366834711
    endloop
  endfacet
  facet normal 0.7946544730571247 -0.577350268038962 -0.1875924743843477
    outer loop
      vertex -0.626451803087959 0.455143876039949 0.549765366966143
      vertex -0.865735098859271 0.281294385101766 0.0711987751262643
      vertex -0.535053717535182 0.736438261180851 0.0711987749948317
    endloop
  endfacet
  facet normal 0.8944271907691591 2.352710409254202e-9 -0.4472135959614714
    outer loop
      vertex -0.478566591985532 3.26958342173222e-10 0.845535786395032
      vertex -0.865735098859271 0.281294385101766 0.0711987751262643
      vertex -0.626451803087959 0.455143876039949 0.549765366966143
    endloop
  endfacet
  facet normal 0.8944271906323275 1.4110474719144346e-9 -0.44721359623513474
    outer loop
      vertex -0.478566591985532 3.26958342173222e-10 0.845535786395032
      vertex -0.865735097906015 -0.281294385302709 0.0711987752576973
      vertex -0.865735098859271 0.281294385101766 0.0711987751262643
    endloop
  endfacet
  facet normal 0.8944271907070543 8.96783766815032e-10 -0.44721359608568095
    outer loop
      vertex -0.865735097906015 -0.281294385302709 0.0711987752576973
      vertex -0.478566591985532 3.26958342173222e-10 0.845535786395032
      vertex -0.626451801390708 -0.45514387594615 0.549765367156213
    endloop
  endfacet
  facet normal 0.4911234727410551 0.3568220894536968 -0.7946544727116711
    outer loop
      vertex -0.478566591985532 3.26958342173222e-10 0.845535786395032
      vertex -0.14788520926565 -0.455143875897072 0.845535786566036
      vertex -0.626451801390708 -0.45514387594615 0.549765367156213
    endloop
  endfacet
  facet normal -0.18759247387640515 0.5773502686456933 -0.7946544727362176
    outer loop
      vertex -0.14788520926565 -0.455143875897072 0.845535786566036
      vertex 0.387168505774221 -0.28129438513697 0.84553578673362
      vertex 0.239283296941067 -0.736438261317511 0.549765366916759
    endloop
  endfacet
  facet normal -0.6070619982061861 -1.273975923968108e-9 -0.7946544722921481
    outer loop
      vertex 0.387168505774221 -0.28129438513697 0.84553578673362
      vertex 0.387168504765623 0.281294385157423 0.845535786602188
      vertex 0.774337011093443 -4.63080201701638e-11 0.549765366966143
    endloop
  endfacet
  facet normal -0.18759247415071917 -0.5773502692497309 -0.7946544722326019
    outer loop
      vertex 0.387168504765623 0.281294385157423 0.845535786602188
      vertex -0.147885211125308 0.455143876035724 0.845535786602188
      vertex 0.239283294136402 0.736438261189655 0.549765366834711
    endloop
  endfacet
  facet normal 0.49112347339655354 -0.3568220882641146 -0.7946544728407064
    outer loop
      vertex -0.147885211125308 0.455143876035724 0.845535786602188
      vertex -0.478566591985532 3.26958342173222e-10 0.845535786395032
      vertex -0.626451803087959 0.455143876039949 0.549765366966143
    endloop
  endfacet
  facet normal 3.8911730736099297e-10 -2.3361997778976413e-10 -1
    outer loop
      vertex -0.14788520926565 -0.455143875897072 0.845535786566036
      vertex 0.387168504765623 0.281294385157423 0.845535786602188
      vertex 0.387168505774221 -0.28129438513697 0.84553578673362
    endloop
  endfacet
  facet normal 1.2904147282961614e-11 3.971488164429389e-11 -1
    outer loop
      vertex -0.14788520926565 -0.455143875897072 0.845535786566036
      vertex -0.147885211125308 0.455143876035724 0.845535786602188
      vertex 0.387168504765623 0.281294385157423 0.845535786602188
    endloop
  endfacet
  facet normal 5.717889918291223e-10 3.971488278605887e-11 -1
    outer loop
      vertex -0.147885211125308 0.455143876035724 0.845535786602188
      vertex -0.14788520926565 -0.455143875897072 0.845535786566036
      vertex -0.478566591985532 3.26958342173222e-10 0.845535786395032
    endloop
  endfacet
endsolid OpenSCAD_Model
