solid OpenSCAD_Model
  facet normal 0.5257311120565947 0.7236067975545895 0.44721359588962384
    outer loop
      vertex -0.655249857777656 -0.212903584617922 -0.641650629364757
      vertex -0.250283174153138 -0.770292406488828 -0.215843459794846
      vertex 6.02592999528622e-10 -0.688970473140905 -0.641650629577812
    endloop
  endfacet
  facet normal 0.5257311120565922 0.7236067975545896 0.4472135958896265
    outer loop
      vertex -0.250283174153138 -0.770292406488828 -0.215843459794846
      vertex -0.655249857777656 -0.212903584617922 -0.641650629364757
      vertex -0.655249857789926 -0.476066888356963 -0.215843459794846
    endloop
  endfacet
  facet normal 0.5257311120565961 0.7236067975545911 0.4472135958896193
    outer loop
      vertex -0.655249857777656 -0.212903584617922 -0.641650629364757
      vertex 6.02592999528622e-10 -0.688970473140905 -0.641650629577812
      vertex -0.250283174193796 -0.344485236307712 -0.904813932967159
    endloop
  endfacet
  facet normal 0 0.9822469462722508 0.18759247463274714
    outer loop
      vertex 0.250283175332374 -0.770292406488828 -0.215843459794846
      vertex 6.02592999528622e-10 -0.688970473140905 -0.641650629577812
      vertex -0.250283174153138 -0.770292406488828 -0.215843459794846
    endloop
  endfacet
  facet normal 6.677464773450939e-18 0.9958102846634627 0.09144329914473541
    outer loop
      vertex 6.02592999528622e-10 -0.809933366994099 0.215843460234216
      vertex 0.250283175332374 -0.770292406488828 -0.215843459794846
      vertex -0.250283174153138 -0.770292406488828 -0.215843459794846
    endloop
  endfacet
  facet normal 0.30772230120312094 0.9470718601741056 -0.09144329941890206
    outer loop
      vertex -0.476066887925203 -0.655249858144568 0.215843460234216
      vertex 6.02592999528622e-10 -0.809933366994099 0.215843460234216
      vertex -0.250283174153138 -0.770292406488828 -0.215843459794846
    endloop
  endfacet
  facet normal 0.5853225994655766 0.8056274434259112 0.09144329911967522
    outer loop
      vertex -0.655249857789926 -0.476066888356963 -0.215843459794846
      vertex -0.476066887925203 -0.655249858144568 0.215843460234216
      vertex -0.250283174153138 -0.770292406488828 -0.215843459794846
    endloop
  endfacet
  facet normal 0.934172358730656 0.3035309995151992 0.18759247457429326
    outer loop
      vertex -0.655249857777656 -0.212903584617922 -0.641650629364757
      vertex -0.809933366886947 2.99209236502574e-10 -0.215843459794846
      vertex -0.655249857789926 -0.476066888356963 -0.215843459794846
    endloop
  endfacet
  facet normal 0.8056274430695253 0.585322599973315 -0.09144329900948141
    outer loop
      vertex -0.77029240638425 -0.250283174599178 0.215843460161941
      vertex -0.476066887925203 -0.655249858144568 0.215843460234216
      vertex -0.655249857789926 -0.476066888356963 -0.215843459794846
    endloop
  endfacet
  facet normal 0.9470718600236249 0.3077223015635949 0.09144329976436343
    outer loop
      vertex -0.809933366886947 2.99209236502574e-10 -0.215843459794846
      vertex -0.77029240638425 -0.250283174599178 0.215843460161941
      vertex -0.655249857789926 -0.476066888356963 -0.215843459794846
    endloop
  endfacet
  facet normal 0.8506508077244633 -0.2763932012799976 0.447213597293187
    outer loop
      vertex -0.809933366886947 2.99209236502574e-10 -0.215843459794846
      vertex -0.404966682859698 0.557388821713629 -0.641650629597913
      vertex -0.655249858471507 0.476066888941489 -0.215843459794846
    endloop
  endfacet
  facet normal 0.8506508080287599 -0.27639320253648275 0.44721359593782983
    outer loop
      vertex -0.404966682859698 0.557388821713629 -0.641650629597913
      vertex -0.809933366886947 2.99209236502574e-10 -0.215843459794846
      vertex -0.404966682869491 0.131581651906547 -0.904813933188544
    endloop
  endfacet
  facet normal 0.8506508081390911 -0.2763932018932024 0.4472135961255365
    outer loop
      vertex -0.404966682869491 0.131581651906547 -0.904813933188544
      vertex -0.809933366886947 2.99209236502574e-10 -0.215843459794846
      vertex -0.655249857777656 -0.212903584617922 -0.641650629364757
    endloop
  endfacet
  facet normal 0.9958102847182061 1.0530761620563264e-9 -0.09144329854858262
    outer loop
      vertex -0.770292406924341 0.250283174623772 0.215843460044998
      vertex -0.77029240638425 -0.250283174599178 0.215843460161941
      vertex -0.809933366886947 2.99209236502574e-10 -0.215843459794846
    endloop
  endfacet
  facet normal 0.9470718604144629 -0.3077223003436508 0.0914432998218017
    outer loop
      vertex -0.655249858471507 0.476066888941489 -0.215843459794846
      vertex -0.770292406924341 0.250283174623772 0.215843460044998
      vertex -0.809933366886947 2.99209236502574e-10 -0.215843459794846
    endloop
  endfacet
  facet normal 0.577350269364505 -0.7946544716840499 0.18759247612118415
    outer loop
      vertex -0.404966682859698 0.557388821713629 -0.641650629597913
      vertex -0.25028317525596 0.77029240703699 -0.215843459794846
      vertex -0.655249858471507 0.476066888941489 -0.215843459794846
    endloop
  endfacet
  facet normal 0.8056274437352323 -0.5853225990005203 -0.09144329937131075
    outer loop
      vertex -0.476066889456859 0.65524985784163 0.215843459928055
      vertex -0.770292406924341 0.250283174623772 0.215843460044998
      vertex -0.655249858471507 0.476066888941489 -0.215843459794846
    endloop
  endfacet
  facet normal 0.5853225998536751 -0.8056274432216495 0.09144329843505455
    outer loop
      vertex -0.25028317525596 0.77029240703699 -0.215843459794846
      vertex -0.476066889456859 0.65524985784163 0.215843459928055
      vertex -0.655249858471507 0.476066888941489 -0.215843459794846
    endloop
  endfacet
  facet normal 2.961156449923254e-10 -0.8944271906885168 0.4472135961227558
    outer loop
      vertex 6.31503164975312e-10 0.425807169823331 -0.904813933188544
      vertex -0.25028317525596 0.77029240703699 -0.215843459794846
      vertex -0.404966682859698 0.557388821713629 -0.641650629597913
    endloop
  endfacet
  facet normal 8.927011334925052e-15 -0.8944271907315438 0.4472135960367021
    outer loop
      vertex -0.25028317525596 0.77029240703699 -0.215843459794846
      vertex 6.31503164975312e-10 0.425807169823331 -0.904813933188544
      vertex 0.250283174091217 0.770292407036995 -0.215843459794846
    endloop
  endfacet
  facet normal -5.504849712753206e-10 -0.8944271906515524 0.44721359619668505
    outer loop
      vertex 0.250283174091217 0.770292407036995 -0.215843459794846
      vertex 6.31503164975312e-10 0.425807169823331 -0.904813933188544
      vertex 0.404966684160025 0.557388821625649 -0.641650629597913
    endloop
  endfacet
  facet normal 0.30772230079932605 -0.9470718601290413 -0.09144330124446907
    outer loop
      vertex -1.29063907077465e-9 0.80993336638504 0.21584345985578
      vertex -0.476066889456859 0.65524985784163 0.215843459928055
      vertex -0.25028317525596 0.77029240703699 -0.215843459794846
    endloop
  endfacet
  facet normal 9.938885795119644e-15 -0.9958102848992453 0.09144329657708068
    outer loop
      vertex 0.250283174091217 0.770292407036995 -0.215843459794846
      vertex -1.29063907077465e-9 0.80993336638504 0.21584345985578
      vertex -0.25028317525596 0.77029240703699 -0.215843459794846
    endloop
  endfacet
  facet normal -0.5773502692581429 -0.7946544724160682 0.18759247334765328
    outer loop
      vertex 0.404966684160025 0.557388821625649 -0.641650629597913
      vertex 0.655249857754422 0.476066888941489 -0.215843459794846
      vertex 0.250283174091217 0.770292407036995 -0.215843459794846
    endloop
  endfacet
  facet normal -0.3077223012004503 -0.9470718598765173 -0.09144330250999068
    outer loop
      vertex 0.476066887223264 0.655249857492761 0.21584345985578
      vertex -1.29063907077465e-9 0.80993336638504 0.21584345985578
      vertex 0.250283174091217 0.770292407036995 -0.215843459794846
    endloop
  endfacet
  facet normal -0.5853225995580389 -0.8056274437052837 0.09144329606652088
    outer loop
      vertex 0.655249857754422 0.476066888941489 -0.215843459794846
      vertex 0.476066887223264 0.655249857492761 0.21584345985578
      vertex 0.250283174091217 0.770292407036995 -0.215843459794846
    endloop
  endfacet
  facet normal -0.8506508087360439 -0.2763932018011095 0.44721359504698127
    outer loop
      vertex 0.809933366894191 2.99209236502574e-10 -0.215843459794846
      vertex 0.404966684160025 0.557388821625649 -0.641650629597913
      vertex 0.404966684074614 0.131581651826877 -0.904813933188544
    endloop
  endfacet
  facet normal -0.8506508090256755 -0.2763932029970402 0.4472135937569437
    outer loop
      vertex 0.404966684160025 0.557388821625649 -0.641650629597913
      vertex 0.809933366894191 2.99209236502574e-10 -0.215843459794846
      vertex 0.655249857754422 0.476066888941489 -0.215843459794846
    endloop
  endfacet
  facet normal -0.8506508085211245 -0.27639320305418646 0.44721359468133837
    outer loop
      vertex 0.809933366894191 2.99209236502574e-10 -0.215843459794846
      vertex 0.404966684074614 0.131581651826877 -0.904813933188544
      vertex 0.655249858824438 -0.212903584861533 -0.641650629597913
    endloop
  endfacet
  facet normal -0.8056274428341064 -0.5853225998349161 -0.09144330196943483
    outer loop
      vertex 0.770292405601 0.250283174059288 0.215843459928055
      vertex 0.476066887223264 0.655249857492761 0.21584345985578
      vertex 0.655249857754422 0.476066888941489 -0.215843459794846
    endloop
  endfacet
  facet normal -0.947071860207677 -0.3077223017174184 0.09144329734050753
    outer loop
      vertex 0.809933366894191 2.99209236502574e-10 -0.215843459794846
      vertex 0.770292405601 0.250283174059288 0.215843459928055
      vertex 0.655249857754422 0.476066888941489 -0.215843459794846
    endloop
  endfacet
  facet normal -0.9341723594572351 0.30353099832993935 0.1875924728738675
    outer loop
      vertex 0.655249858824438 -0.212903584861533 -0.641650629597913
      vertex 0.655249858521505 -0.47606688835696 -0.215843459794846
      vertex 0.809933366894191 2.99209236502574e-10 -0.215843459794846
    endloop
  endfacet
  facet normal -0.995810284554623 -1.1852265109540224e-9 -0.0914433003299891
    outer loop
      vertex 0.770292406186042 -0.250283175163666 0.215843460044998
      vertex 0.770292405601 0.250283174059288 0.215843459928055
      vertex 0.809933366894191 2.99209236502574e-10 -0.215843459794846
    endloop
  endfacet
  facet normal -0.9470718605179674 0.3077223002832503 0.09144329895307265
    outer loop
      vertex 0.655249858521505 -0.47606688835696 -0.215843459794846
      vertex 0.770292406186042 -0.250283175163666 0.215843460044998
      vertex 0.809933366894191 2.99209236502574e-10 -0.215843459794846
    endloop
  endfacet
  facet normal -0.5257311127235307 0.7236067976726572 0.4472135949145556
    outer loop
      vertex 0.655249858824438 -0.212903584861533 -0.641650629597913
      vertex 0.250283175332374 -0.770292406488828 -0.215843459794846
      vertex 0.655249858521505 -0.47606688835696 -0.215843459794846
    endloop
  endfacet
  facet normal -0.5257311118878827 0.723606797736754 0.4472135957932082
    outer loop
      vertex 0.655249858824438 -0.212903584861533 -0.641650629597913
      vertex 6.02592999528622e-10 -0.688970473140905 -0.641650629577812
      vertex 0.250283175332374 -0.770292406488828 -0.215843459794846
    endloop
  endfacet
  facet normal -0.525731111584888 0.7236067973197177 0.44721359682417866
    outer loop
      vertex 6.02592999528622e-10 -0.688970473140905 -0.641650629577812
      vertex 0.655249858824438 -0.212903584861533 -0.641650629597913
      vertex 0.250283175278231 -0.344485236156269 -0.904813932887278
    endloop
  endfacet
  facet normal -0.8056274438224817 0.5853225989005817 -0.09144329924233191
    outer loop
      vertex 0.476066888754917 -0.655249858407946 0.215843460161941
      vertex 0.770292406186042 -0.250283175163666 0.215843460044998
      vertex 0.655249858521505 -0.47606688835696 -0.215843459794846
    endloop
  endfacet
  facet normal -0.5853225998710583 0.8056274430934466 0.09144329945327166
    outer loop
      vertex 0.250283175332374 -0.770292406488828 -0.215843459794846
      vertex 0.476066888754917 -0.655249858407946 0.215843460161941
      vertex 0.655249858521505 -0.47606688835696 -0.215843459794846
    endloop
  endfacet
  facet normal -0.3077223009659484 0.9470718602670548 -0.09144329925436087
    outer loop
      vertex 6.02592999528622e-10 -0.809933366994099 0.215843460234216
      vertex 0.476066888754917 -0.655249858407946 0.215843460161941
      vertex 0.250283175332374 -0.770292406488828 -0.215843459794846
    endloop
  endfacet
  facet normal -3.1047444194650885e-10 0.6070619976183551 0.794654472741211
    outer loop
      vertex 0.250283175278231 -0.344485236156269 -0.904813932887278
      vertex -0.250283174193796 -0.344485236307712 -0.904813932967159
      vertex 6.02592999528622e-10 -0.688970473140905 -0.641650629577812
    endloop
  endfacet
  facet normal 0.57735026915237 0.18759247440682472 0.7946544722428803
    outer loop
      vertex -0.250283174193796 -0.344485236307712 -0.904813932967159
      vertex -0.404966682869491 0.131581651906547 -0.904813933188544
      vertex -0.655249857777656 -0.212903584617922 -0.641650629364757
    endloop
  endfacet
  facet normal 0.3568220896976465 -0.49112347320472566 0.7946544723155666
    outer loop
      vertex -0.404966682869491 0.131581651906547 -0.904813933188544
      vertex 6.31503164975312e-10 0.425807169823331 -0.904813933188544
      vertex -0.404966682859698 0.557388821713629 -0.641650629597913
    endloop
  endfacet
  facet normal -0.3568220897942676 -0.4911234731345293 0.7946544723155649
    outer loop
      vertex 6.31503164975312e-10 0.425807169823331 -0.904813933188544
      vertex 0.404966684074614 0.131581651826877 -0.904813933188544
      vertex 0.404966684160025 0.557388821625649 -0.641650629597913
    endloop
  endfacet
  facet normal -0.5773502686722889 0.18759247462160852 0.7946544725409762
    outer loop
      vertex 0.404966684074614 0.131581651826877 -0.904813933188544
      vertex 0.250283175278231 -0.344485236156269 -0.904813932887278
      vertex 0.655249858824438 -0.212903584861533 -0.641650629597913
    endloop
  endfacet
  facet normal 3.719639475225784e-10 5.119644523505989e-10 1
    outer loop
      vertex 6.31503164975312e-10 0.425807169823331 -0.904813933188544
      vertex 0.250283175278231 -0.344485236156269 -0.904813932887278
      vertex 0.404966684074614 0.131581651826877 -0.904813933188544
    endloop
  endfacet
  facet normal -1.5958122404077345e-10 3.3925495661328984e-10 1
    outer loop
      vertex 6.31503164975312e-10 0.425807169823331 -0.904813933188544
      vertex -0.250283174193796 -0.344485236307712 -0.904813932967159
      vertex 0.250283175278231 -0.344485236156269 -0.904813932887278
    endloop
  endfacet
  facet normal -2.73337326903369e-10 3.762165550317483e-10 1
    outer loop
      vertex -0.250283174193796 -0.344485236307712 -0.904813932967159
      vertex 6.31503164975312e-10 0.425807169823331 -0.904813933188544
      vertex -0.404966682869491 0.131581651906547 -0.904813933188544
    endloop
  endfacet
  facet normal 0.3035309991564972 0.9341723588694301 -0.18759247446361818
    outer loop
      vertex -0.212903584252015 -0.655249858141061 0.64165062940195
      vertex 6.02592999528622e-10 -0.809933366994099 0.215843460234216
      vertex -0.476066887925203 -0.655249858144568 0.215843460234216
    endloop
  endfacet
  facet normal 0.7236067972204409 0.5257311124372794 -0.4472135959827656
    outer loop
      vertex -0.212903584252015 -0.655249858141061 0.64165062940195
      vertex -0.688970473304389 9.1304016602271e-11 0.641650629498064
      vertex -0.344485236309686 -0.250283174654015 0.904813932683521
    endloop
  endfacet
  facet normal 0.7236067972204376 0.525731112437277 -0.44721359598277377
    outer loop
      vertex -0.688970473304389 9.1304016602271e-11 0.641650629498064
      vertex -0.212903584252015 -0.655249858141061 0.64165062940195
      vertex -0.77029240638425 -0.250283174599178 0.215843460161941
    endloop
  endfacet
  facet normal 0.7236067972204379 0.5257311124372741 -0.4472135959827767
    outer loop
      vertex -0.77029240638425 -0.250283174599178 0.215843460161941
      vertex -0.212903584252015 -0.655249858141061 0.64165062940195
      vertex -0.476066887925203 -0.655249858144568 0.215843460234216
    endloop
  endfacet
  facet normal -0.27639320206035967 0.8506508081029543 -0.4472135960909637
    outer loop
      vertex 6.02592999528622e-10 -0.809933366994099 0.215843460234216
      vertex 0.131581651893871 -0.404966683444386 0.904813932904907
      vertex 0.557388821522127 -0.404966683671211 0.641650629518167
    endloop
  endfacet
  facet normal -0.2763932020603637 0.8506508081029555 -0.44721359609095956
    outer loop
      vertex 6.02592999528622e-10 -0.809933366994099 0.215843460234216
      vertex 0.557388821522127 -0.404966683671211 0.641650629518167
      vertex 0.476066888754917 -0.655249858407946 0.215843460161941
    endloop
  endfacet
  facet normal -0.2763932020947543 0.8506508080970554 -0.44721359608092764
    outer loop
      vertex 0.131581651893871 -0.404966683444386 0.904813932904907
      vertex 6.02592999528622e-10 -0.809933366994099 0.215843460234216
      vertex -0.212903584252015 -0.655249858141061 0.64165062940195
    endloop
  endfacet
  facet normal -0.7946544725945448 0.5773502686271971 -0.18759247453346664
    outer loop
      vertex 0.557388821522127 -0.404966683671211 0.641650629518167
      vertex 0.770292406186042 -0.250283175163666 0.215843460044998
      vertex 0.476066888754917 -0.655249858407946 0.215843460161941
    endloop
  endfacet
  facet normal -0.8944271908810761 -1.149845795605895e-9 -0.4472135957376372
    outer loop
      vertex 0.770292405601 0.250283174059288 0.215843459928055
      vertex 0.425807169263948 -2.76822461687482e-10 0.904813932787964
      vertex 0.557388820560259 0.404966682923681 0.641650629328947
    endloop
  endfacet
  facet normal -0.8944271908810757 -1.1498495228966383e-9 -0.44721359573763836
    outer loop
      vertex 0.770292406186042 -0.250283175163666 0.215843460044998
      vertex 0.425807169263948 -2.76822461687482e-10 0.904813932787964
      vertex 0.770292405601 0.250283174059288 0.215843459928055
    endloop
  endfacet
  facet normal -0.8944271908874833 -1.1939470207996888e-9 -0.4472135957248229
    outer loop
      vertex 0.425807169263948 -2.76822461687482e-10 0.904813932787964
      vertex 0.770292406186042 -0.250283175163666 0.215843460044998
      vertex 0.557388821522127 -0.404966683671211 0.641650629518167
    endloop
  endfacet
  facet normal -0.7946544718791448 -0.5773502697828599 -0.1875924740071853
    outer loop
      vertex 0.557388820560259 0.404966682923681 0.641650629328947
      vertex 0.476066887223264 0.655249857492761 0.21584345985578
      vertex 0.770292405601 0.250283174059288 0.215843459928055
    endloop
  endfacet
  facet normal -0.2763932024136711 -0.8506508083618757 -0.4472135953801081
    outer loop
      vertex -1.29063907077465e-9 0.80993336638504 0.21584345985578
      vertex 0.131581650940312 0.404966683074887 0.904813932715693
      vertex -0.212903585909608 0.655249857773644 0.641650629328947
    endloop
  endfacet
  facet normal -0.276393202386528 -0.8506508083665311 -0.44721359538802824
    outer loop
      vertex 0.131581650940312 0.404966683074887 0.904813932715693
      vertex -1.29063907077465e-9 0.80993336638504 0.21584345985578
      vertex 0.557388820560259 0.404966682923681 0.641650629328947
    endloop
  endfacet
  facet normal -0.2763932024176283 -0.8506508083740629 -0.4472135953544808
    outer loop
      vertex 0.557388820560259 0.404966682923681 0.641650629328947
      vertex -1.29063907077465e-9 0.80993336638504 0.21584345985578
      vertex 0.476066887223264 0.655249857492761 0.21584345985578
    endloop
  endfacet
  facet normal 0.3035309988115202 -0.9341723590345823 -0.1875924741993781
    outer loop
      vertex -0.212903585909608 0.655249857773644 0.641650629328947
      vertex -0.476066889456859 0.65524985784163 0.215843459928055
      vertex -1.29063907077465e-9 0.80993336638504 0.21584345985578
    endloop
  endfacet
  facet normal 0.7236067973735636 -0.5257311112091436 -0.44721359717876846
    outer loop
      vertex -0.688970473304389 9.1304016602271e-11 0.641650629498064
      vertex -0.212903585909608 0.655249857773644 0.641650629328947
      vertex -0.344485236698335 0.25028317455545 0.904813932486699
    endloop
  endfacet
  facet normal 0.723606797775944 -0.5257311117032768 -0.44721359594681476
    outer loop
      vertex -0.212903585909608 0.655249857773644 0.641650629328947
      vertex -0.770292406924341 0.250283174623772 0.215843460044998
      vertex -0.476066889456859 0.65524985784163 0.215843459928055
    endloop
  endfacet
  facet normal 0.7236067977906047 -0.5257311115121416 -0.447213596147786
    outer loop
      vertex -0.212903585909608 0.655249857773644 0.641650629328947
      vertex -0.688970473304389 9.1304016602271e-11 0.641650629498064
      vertex -0.770292406924341 0.250283174623772 0.215843460044998
    endloop
  endfacet
  facet normal 0.9822469462398805 1.0159793631538388e-9 -0.1875924748022404
    outer loop
      vertex -0.688970473304389 9.1304016602271e-11 0.641650629498064
      vertex -0.77029240638425 -0.250283174599178 0.215843460161941
      vertex -0.770292406924341 0.250283174623772 0.215843460044998
    endloop
  endfacet
  facet normal 0.6070619973569591 1.5887708113913321e-10 -0.7946544729408999
    outer loop
      vertex -0.344485236698335 0.25028317455545 0.904813932486699
      vertex -0.344485236309686 -0.250283174654015 0.904813932683521
      vertex -0.688970473304389 9.1304016602271e-11 0.641650629498064
    endloop
  endfacet
  facet normal 0.18759247448209093 0.5773502689430078 -0.7946544723772229
    outer loop
      vertex -0.344485236309686 -0.250283174654015 0.904813932683521
      vertex 0.131581651893871 -0.404966683444386 0.904813932904907
      vertex -0.212903584252015 -0.655249858141061 0.64165062940195
    endloop
  endfacet
  facet normal -0.4911234730743981 0.3568220890042557 -0.7946544727074654
    outer loop
      vertex 0.131581651893871 -0.404966683444386 0.904813932904907
      vertex 0.425807169263948 -2.76822461687482e-10 0.904813932787964
      vertex 0.557388821522127 -0.404966683671211 0.641650629518167
    endloop
  endfacet
  facet normal -0.4911234730412106 -0.3568220903456081 -0.7946544721256716
    outer loop
      vertex 0.425807169263948 -2.76822461687482e-10 0.904813932787964
      vertex 0.131581650940312 0.404966683074887 0.904813932715693
      vertex 0.557388820560259 0.404966682923681 0.641650629328947
    endloop
  endfacet
  facet normal 0.1875924742824945 -0.5773502686157846 -0.7946544726620829
    outer loop
      vertex 0.131581650940312 0.404966683074887 0.904813932715693
      vertex -0.344485236698335 0.25028317455545 0.904813932486699
      vertex -0.212903585909608 0.655249857773644 0.641650629328947
    endloop
  endfacet
  facet normal -7.59146321022258e-11 -2.3361672171228236e-10 -1
    outer loop
      vertex 0.131581651893871 -0.404966683444386 0.904813932904907
      vertex 0.131581650940312 0.404966683074887 0.904813932715693
      vertex 0.425807169263948 -2.76822461687482e-10 0.904813932787964
    endloop
  endfacet
  facet normal 3.89124660998782e-10 -2.336167211647775e-10 -1
    outer loop
      vertex -0.344485236309686 -0.250283174654015 0.904813932683521
      vertex 0.131581650940312 0.404966683074887 0.904813932715693
      vertex 0.131581651893871 -0.404966683444386 0.904813932904907
    endloop
  endfacet
  facet normal 6.087703160184739e-10 -3.931986303400619e-10 -1
    outer loop
      vertex 0.131581650940312 0.404966683074887 0.904813932715693
      vertex -0.344485236309686 -0.250283174654015 0.904813932683521
      vertex -0.344485236698335 0.25028317455545 0.904813932486699
    endloop
  endfacet
endsolid OpenSCAD_Model
