solid OpenSCAD_Model
  facet normal 0.5257311120565947 0.7236067975545889 0.4472135958896248
    outer loop
      vertex -0.65524985746965 -0.212903584800666 -0.641650629314806
      vertex -0.250283173876659 -0.77029240662818 -0.215843459778044
      vertex 8.5958784256665e-10 -0.688970473286587 -0.641650629527862
    endloop
  endfacet
  facet normal 0.5257311120565916 0.7236067975545891 0.44721359588962806
    outer loop
      vertex -0.250283173876659 -0.77029240662818 -0.215843459778044
      vertex -0.65524985746965 -0.212903584800666 -0.641650629314806
      vertex -0.655249857481921 -0.47606688851922 -0.215843459778044
    endloop
  endfacet
  facet normal 0.525731112056597 0.7236067975545918 0.4472135958896174
    outer loop
      vertex -0.65524985746965 -0.212903584800666 -0.641650629314806
      vertex 8.5958784256665e-10 -0.688970473286587 -0.641650629527862
      vertex -0.250283173917317 -0.344485236480213 -0.904813932896721
    endloop
  endfacet
  facet normal 0 0.9822469462722506 0.1875924746327486
    outer loop
      vertex 0.250283175569884 -0.77029240662818 -0.215843459778044
      vertex 8.5958784256665e-10 -0.688970473286587 -0.641650629527862
      vertex -0.250283173876659 -0.77029240662818 -0.215843459778044
    endloop
  endfacet
  facet normal 6.2057117785316145e-18 0.9958102846634627 0.09144329914473562
    outer loop
      vertex 8.5958784256665e-10 -0.809933367130365 0.215843460217411
      vertex 0.250283175569884 -0.77029240662818 -0.215843459778044
      vertex -0.250283173876659 -0.77029240662818 -0.215843459778044
    endloop
  endfacet
  facet normal 0.30772230120312083 0.9470718601741056 -0.0914432994189022
    outer loop
      vertex -0.476066887631147 -0.655249858292876 0.215843460217411
      vertex 8.5958784256665e-10 -0.809933367130365 0.215843460217411
      vertex -0.250283173876659 -0.77029240662818 -0.215843459778044
    endloop
  endfacet
  facet normal 0.5853225994655764 0.8056274434259113 0.09144329911967532
    outer loop
      vertex -0.655249857481921 -0.47606688851922 -0.215843459778044
      vertex -0.476066887631147 -0.655249858292876 0.215843460217411
      vertex -0.250283173876659 -0.77029240662818 -0.215843459778044
    endloop
  endfacet
  facet normal 0.9341723587306564 0.30353099951519713 0.18759247457429443
    outer loop
      vertex -0.65524985746965 -0.212903584800666 -0.641650629314806
      vertex -0.809933366566899 9.98908709100572e-11 -0.215843459778044
      vertex -0.655249857481921 -0.47606688851922 -0.215843459778044
    endloop
  endfacet
  facet normal 0.8056274430695262 0.5853225999733137 -0.09144329900948277
    outer loop
      vertex -0.770292406067288 -0.250283174779012 0.215843460145136
      vertex -0.476066887631147 -0.655249858292876 0.215843460217411
      vertex -0.655249857481921 -0.47606688851922 -0.215843459778044
    endloop
  endfacet
  facet normal 0.9470718600236258 0.30772230156359304 0.0914432997643623
    outer loop
      vertex -0.809933366566899 9.98908709100572e-11 -0.215843459778044
      vertex -0.770292406067288 -0.250283174779012 0.215843460145136
      vertex -0.655249857481921 -0.47606688851922 -0.215843459778044
    endloop
  endfacet
  facet normal 0.8506508077244637 -0.276393201279996 0.4472135972931875
    outer loop
      vertex -0.809933366566899 9.98908709100572e-11 -0.215843459778044
      vertex -0.404966682571177 0.557388821470918 -0.641650629547963
      vertex -0.655249858163502 0.476066888705109 -0.215843459778044
    endloop
  endfacet
  facet normal 0.8506508080287605 -0.27639320253648175 0.44721359593782967
    outer loop
      vertex -0.404966682571177 0.557388821470918 -0.641650629547963
      vertex -0.809933366566899 9.98908709100572e-11 -0.215843459778044
      vertex -0.40496668258097 0.131581651696985 -0.904813933118106
    endloop
  endfacet
  facet normal 0.8506508081390917 -0.27639320189320127 0.44721359612553635
    outer loop
      vertex -0.40496668258097 0.131581651696985 -0.904813933118106
      vertex -0.809933366566899 9.98908709100572e-11 -0.215843459778044
      vertex -0.65524985746965 -0.212903584800666 -0.641650629314806
    endloop
  endfacet
  facet normal 0.9958102847505625 1.6659484987456668e-9 -0.09144329819622331
    outer loop
      vertex -0.770292406915453 0.250283174628803 0.215843460028193
      vertex -0.770292406067288 -0.250283174779012 0.215843460145136
      vertex -0.809933366566899 9.98908709100572e-11 -0.215843459778044
    endloop
  endfacet
  facet normal 0.9470718603421121 -0.3077223003201407 0.09144330065025102
    outer loop
      vertex -0.655249858163502 0.476066888705109 -0.215843459778044
      vertex -0.770292406915453 0.250283174628803 0.215843460028193
      vertex -0.809933366566899 9.98908709100572e-11 -0.215843459778044
    endloop
  endfacet
  facet normal 0.577350269364505 -0.7946544716840498 0.1875924761211847
    outer loop
      vertex -0.404966682571177 0.557388821470918 -0.641650629547963
      vertex -0.250283174979481 0.770292406777705 -0.215843459778044
      vertex -0.655249858163502 0.476066888705109 -0.215843459778044
    endloop
  endfacet
  facet normal 0.8056274443903345 -0.5853225983190429 -0.09144329796186756
    outer loop
      vertex -0.476066889851673 0.655249858091808 0.21584345991125
      vertex -0.770292406915453 0.250283174628803 0.215843460028193
      vertex -0.655249858163502 0.476066888705109 -0.215843459778044
    endloop
  endfacet
  facet normal 0.5853225997536874 -0.8056274430840281 0.09144330028753166
    outer loop
      vertex -0.250283174979481 0.770292406777705 -0.215843459778044
      vertex -0.476066889851673 0.655249858091808 0.21584345991125
      vertex -0.655249858163502 0.476066888705109 -0.215843459778044
    endloop
  endfacet
  facet normal 2.96115896203875e-10 -0.894427190688517 0.44721359612275585
    outer loop
      vertex 8.88498008011088e-10 0.425807169590864 -0.904813933118106
      vertex -0.250283174979481 0.770292406777705 -0.215843459778044
      vertex -0.404966682571177 0.557388821470918 -0.641650629547963
    endloop
  endfacet
  facet normal 8.92701133562002e-15 -0.8944271907315438 0.44721359603670224
    outer loop
      vertex -0.250283174979481 0.770292406777705 -0.215843459778044
      vertex 8.88498008011088e-10 0.425807169590864 -0.904813933118106
      vertex 0.250283174328727 0.77029240677771 -0.215843459778044
    endloop
  endfacet
  facet normal -5.504819874782208e-10 -0.8944271906515527 0.4472135961966842
    outer loop
      vertex 0.250283174328727 0.77029240677771 -0.215843459778044
      vertex 8.88498008011088e-10 0.425807169590864 -0.904813933118106
      vertex 0.404966684385494 0.557388821382939 -0.641650629547963
    endloop
  endfacet
  facet normal 0.3077223014369058 -0.9470718601080512 -0.09144329931629724
    outer loop
      vertex -2.03058717214837e-9 0.809933366846999 0.215843459838976
      vertex -0.476066889851673 0.655249858091808 0.21584345991125
      vertex -0.250283174979481 0.770292406777705 -0.215843459778044
    endloop
  endfacet
  facet normal 9.938885794374819e-15 -0.9958102847470951 0.09144329823398474
    outer loop
      vertex 0.250283174328727 0.77029240677771 -0.215843459778044
      vertex -2.03058717214837e-9 0.809933366846999 0.215843459838976
      vertex -0.250283174979481 0.770292406777705 -0.215843459778044
    endloop
  endfacet
  facet normal -0.5773502692581434 -0.7946544724160686 0.1875924733476505
    outer loop
      vertex 0.404966684385494 0.557388821382939 -0.641650629547963
      vertex 0.655249857960406 0.476066888705109 -0.215843459778044
      vertex 0.250283174328727 0.77029240677771 -0.215843459778044
    endloop
  endfacet
  facet normal -0.30772230114158466 -0.9470718599847152 -0.09144330158748579
    outer loop
      vertex 0.476066886328582 0.655249858052258 0.215843459838976
      vertex -2.03058717214837e-9 0.809933366846999 0.215843459838976
      vertex 0.250283174328727 0.77029240677771 -0.215843459778044
    endloop
  endfacet
  facet normal -0.585322599558038 -0.8056274437052823 0.09144329606654086
    outer loop
      vertex 0.655249857960406 0.476066888705109 -0.215843459778044
      vertex 0.476066886328582 0.655249858052258 0.215843459838976
      vertex 0.250283174328727 0.77029240677771 -0.215843459778044
    endloop
  endfacet
  facet normal -0.8506508087360437 -0.2763932018011073 0.44721359504698344
    outer loop
      vertex 0.809933367088134 9.98908709100572e-11 -0.215843459778044
      vertex 0.404966684385494 0.557388821382939 -0.641650629547963
      vertex 0.404966684300082 0.131581651617315 -0.904813933118106
    endloop
  endfacet
  facet normal -0.8506508090256762 -0.27639320299704234 0.447213593756941
    outer loop
      vertex 0.404966684385494 0.557388821382939 -0.641650629547963
      vertex 0.809933367088134 9.98908709100572e-11 -0.215843459778044
      vertex 0.655249857960406 0.476066888705109 -0.215843459778044
    endloop
  endfacet
  facet normal -0.8506508085211236 -0.27639320305418724 0.44721359468133953
    outer loop
      vertex 0.809933367088134 9.98908709100572e-11 -0.215843459778044
      vertex 0.404966684300082 0.131581651617315 -0.904813933118106
      vertex 0.655249859030422 -0.212903585044277 -0.641650629547963
    endloop
  endfacet
  facet normal -0.8056274427130202 -0.5853225998574618 -0.0914433028919056
    outer loop
      vertex 0.770292404801085 0.250283174564815 0.21584345991125
      vertex 0.476066886328582 0.655249858052258 0.215843459838976
      vertex 0.655249857960406 0.476066888705109 -0.215843459778044
    endloop
  endfacet
  facet normal -0.9470718603523778 -0.3077223017644366 0.09144329568362766
    outer loop
      vertex 0.809933367088134 9.98908709100572e-11 -0.215843459778044
      vertex 0.770292404801085 0.250283174564815 0.21584345991125
      vertex 0.655249857960406 0.476066888705109 -0.215843459778044
    endloop
  endfacet
  facet normal -0.9341723594572344 0.30353099832994096 0.18759247287386815
    outer loop
      vertex 0.655249859030422 -0.212903585044277 -0.641650629547963
      vertex 0.655249858727489 -0.476066888519217 -0.215843459778044
      vertex 0.809933367088134 9.98908709100572e-11 -0.215843459778044
    endloop
  endfacet
  facet normal -0.9958102843775649 -1.7980988474912971e-9 -0.09144330225813825
    outer loop
      vertex 0.770292405694201 -0.250283174842999 0.215843460028193
      vertex 0.770292404801085 0.250283174564815 0.21584345991125
      vertex 0.809933367088134 9.98908709100572e-11 -0.215843459778044
    endloop
  endfacet
  facet normal -0.9470718606797486 0.307722300335818 0.09144329710061663
    outer loop
      vertex 0.655249858727489 -0.476066888519217 -0.215843459778044
      vertex 0.770292405694201 -0.250283174842999 0.215843460028193
      vertex 0.809933367088134 9.98908709100572e-11 -0.215843459778044
    endloop
  endfacet
  facet normal -0.5257311127235309 0.7236067976726576 0.4472135949145551
    outer loop
      vertex 0.655249859030422 -0.212903585044277 -0.641650629547963
      vertex 0.250283175569884 -0.77029240662818 -0.215843459778044
      vertex 0.655249858727489 -0.476066888519217 -0.215843459778044
    endloop
  endfacet
  facet normal -0.5257311118878824 0.7236067977367543 0.44721359579320796
    outer loop
      vertex 0.655249859030422 -0.212903585044277 -0.641650629547963
      vertex 8.5958784256665e-10 -0.688970473286587 -0.641650629527862
      vertex 0.250283175569884 -0.77029240662818 -0.215843459778044
    endloop
  endfacet
  facet normal -0.5257311115848873 0.7236067973197176 0.4472135968241799
    outer loop
      vertex 8.5958784256665e-10 -0.688970473286587 -0.641650629527862
      vertex 0.655249859030422 -0.212903585044277 -0.641650629547963
      vertex 0.250283175515741 -0.344485236328769 -0.904813932816841
    endloop
  endfacet
  facet normal -0.8056274442681738 0.5853225980669482 -0.09144330065176089
    outer loop
      vertex 0.476066888666787 -0.655249858332421 0.215843460145136
      vertex 0.770292405694201 -0.250283174842999 0.215843460028193
      vertex 0.655249858727489 -0.476066888519217 -0.215843459778044
    endloop
  endfacet
  facet normal -0.5853225999157733 0.8056274431549917 0.09144329862483208
    outer loop
      vertex 0.250283175569884 -0.77029240662818 -0.215843459778044
      vertex 0.476066888666787 -0.655249858332421 0.215843460145136
      vertex 0.655249858727489 -0.476066888519217 -0.215843459778044
    endloop
  endfacet
  facet normal -0.3077223015388272 0.9470718600468935 -0.09144329960672083
    outer loop
      vertex 8.5958784256665e-10 -0.809933367130365 0.215843460217411
      vertex 0.476066888666787 -0.655249858332421 0.215843460145136
      vertex 0.250283175569884 -0.77029240662818 -0.215843459778044
    endloop
  endfacet
  facet normal -3.104741348309235e-10 0.6070619976183552 0.7946544727412109
    outer loop
      vertex 0.250283175515741 -0.344485236328769 -0.904813932816841
      vertex -0.250283173917317 -0.344485236480213 -0.904813932896721
      vertex 8.5958784256665e-10 -0.688970473286587 -0.641650629527862
    endloop
  endfacet
  facet normal 0.577350269152371 0.18759247440682483 0.7946544722428797
    outer loop
      vertex -0.250283173917317 -0.344485236480213 -0.904813932896721
      vertex -0.40496668258097 0.131581651696985 -0.904813933118106
      vertex -0.65524985746965 -0.212903584800666 -0.641650629314806
    endloop
  endfacet
  facet normal 0.356822089697646 -0.4911234732047247 0.7946544723155676
    outer loop
      vertex -0.40496668258097 0.131581651696985 -0.904813933118106
      vertex 8.88498008011088e-10 0.425807169590864 -0.904813933118106
      vertex -0.404966682571177 0.557388821470918 -0.641650629547963
    endloop
  endfacet
  facet normal -0.35682208979426666 -0.491123473134527 0.7946544723155669
    outer loop
      vertex 8.88498008011088e-10 0.425807169590864 -0.904813933118106
      vertex 0.404966684300082 0.131581651617315 -0.904813933118106
      vertex 0.404966684385494 0.557388821382939 -0.641650629547963
    endloop
  endfacet
  facet normal -0.5773502686722881 0.18759247462160683 0.7946544725409771
    outer loop
      vertex 0.404966684300082 0.131581651617315 -0.904813933118106
      vertex 0.250283175515741 -0.344485236328769 -0.904813932816841
      vertex 0.655249859030422 -0.212903585044277 -0.641650629547963
    endloop
  endfacet
  facet normal 3.719627138689103e-10 5.119627543719934e-10 1
    outer loop
      vertex 8.88498008011088e-10 0.425807169590864 -0.904813933118106
      vertex 0.250283175515741 -0.344485236328769 -0.904813932816841
      vertex 0.404966684300082 0.131581651617315 -0.904813933118106
    endloop
  endfacet
  facet normal -1.5957922791277897e-10 3.392543080543616e-10 1
    outer loop
      vertex 8.88498008011088e-10 0.425807169590864 -0.904813933118106
      vertex -0.250283173917317 -0.344485236480213 -0.904813932896721
      vertex 0.250283175515741 -0.344485236328769 -0.904813932816841
    endloop
  endfacet
  facet normal -2.73337326924648e-10 3.762165550610362e-10 1
    outer loop
      vertex -0.250283173917317 -0.344485236480213 -0.904813932896721
      vertex 8.88498008011088e-10 0.425807169590864 -0.904813933118106
      vertex -0.40496668258097 0.131581651696985 -0.904813933118106
    endloop
  endfacet
  facet normal 0.27639320221211755 0.8506508080014976 -0.4472135961901548
    outer loop
      vertex 8.5958784256665e-10 -0.809933367130365 0.215843460217411
      vertex -0.131581651280677 -0.404966683286768 0.904813932633064
      vertex 0.212903585454919 -0.655249858184822 0.64165062931968
    endloop
  endfacet
  facet normal 0.27639320221212604 0.8506508080014961 -0.4472135961901524
    outer loop
      vertex -0.131581651280677 -0.404966683286768 0.904813932633064
      vertex 8.5958784256665e-10 -0.809933367130365 0.215843460217411
      vertex -0.557388820869843 -0.404966683330435 0.641650629532736
    endloop
  endfacet
  facet normal 0.2763932022121244 0.8506508080014957 -0.44721359619015405
    outer loop
      vertex -0.557388820869843 -0.404966683330435 0.641650629532736
      vertex 8.5958784256665e-10 -0.809933367130365 0.215843460217411
      vertex -0.476066887631147 -0.655249858292876 0.215843460217411
    endloop
  endfacet
  facet normal 0.7946544717985141 0.5773502696573136 -0.18759247473513377
    outer loop
      vertex -0.770292406067288 -0.250283174779012 0.215843460145136
      vertex -0.557388820869843 -0.404966683330435 0.641650629532736
      vertex -0.476066887631147 -0.655249858292876 0.215843460217411
    endloop
  endfacet
  facet normal -0.3035309994948491 0.9341723587206584 -0.18759247465700635
    outer loop
      vertex 0.212903585454919 -0.655249858184822 0.64165062931968
      vertex 0.476066888666787 -0.655249858332421 0.215843460145136
      vertex 8.5958784256665e-10 -0.809933367130365 0.215843460217411
    endloop
  endfacet
  facet normal -0.723606798384337 0.5257311107318393 -0.44721359610440725
    outer loop
      vertex 0.212903585454919 -0.655249858184822 0.64165062931968
      vertex 0.688970472175374 -2.69125014105566e-11 0.64165062936362
      vertex 0.770292405694201 -0.250283174842999 0.215843460028193
    endloop
  endfacet
  facet normal -0.7236067983831527 0.5257311107472807 -0.447213596088171
    outer loop
      vertex 0.212903585454919 -0.655249858184822 0.64165062931968
      vertex 0.770292405694201 -0.250283174842999 0.215843460028193
      vertex 0.476066888666787 -0.655249858332421 0.215843460145136
    endloop
  endfacet
  facet normal -0.723606798376214 0.5257311107259375 -0.44721359612448863
    outer loop
      vertex 0.688970472175374 -2.69125014105566e-11 0.64165062936362
      vertex 0.212903585454919 -0.655249858184822 0.64165062931968
      vertex 0.344485236229432 -0.250283174631545 0.904813932782172
    endloop
  endfacet
  facet normal -0.9822469463578349 -1.796361508653853e-9 -0.18759247418462327
    outer loop
      vertex 0.688970472175374 -2.69125014105566e-11 0.64165062936362
      vertex 0.770292404801085 0.250283174564815 0.21584345991125
      vertex 0.770292405694201 -0.250283174842999 0.215843460028193
    endloop
  endfacet
  facet normal -0.7236067973910509 -0.5257311128201313 -0.4472135952566434
    outer loop
      vertex 0.770292404801085 0.250283174564815 0.21584345991125
      vertex 0.212903582959454 0.655249858099642 0.641650629246678
      vertex 0.476066886328582 0.655249858052258 0.215843459838976
    endloop
  endfacet
  facet normal -0.7236067973895381 -0.5257311128398541 -0.44721359523590565
    outer loop
      vertex 0.688970472175374 -2.69125014105566e-11 0.64165062936362
      vertex 0.212903582959454 0.655249858099642 0.641650629246678
      vertex 0.770292404801085 0.250283174564815 0.21584345991125
    endloop
  endfacet
  facet normal -0.723606797372759 -0.5257311128276633 -0.4472135952773861
    outer loop
      vertex 0.212903582959454 0.655249858099642 0.641650629246678
      vertex 0.688970472175374 -2.69125014105566e-11 0.64165062936362
      vertex 0.344485235332027 0.250283174678324 0.90481393266523
    endloop
  endfacet
  facet normal -0.30353099918121607 -0.9341723589455057 -0.18759247404478124
    outer loop
      vertex 0.212903582959454 0.655249858099642 0.641650629246678
      vertex -2.03058717214837e-9 0.809933366846999 0.215843459838976
      vertex 0.476066886328582 0.655249858052258 0.215843459838976
    endloop
  endfacet
  facet normal 0.2763932024149042 -0.8506508080905508 -0.4472135958954362
    outer loop
      vertex -2.03058717214837e-9 0.809933366846999 0.215843459838976
      vertex -0.131581652935317 0.404966683438716 0.90481393266523
      vertex -0.557388822379982 0.404966683442475 0.64165062936362
    endloop
  endfacet
  facet normal 0.27639320241489557 -0.8506508080905488 -0.44721359589544546
    outer loop
      vertex -2.03058717214837e-9 0.809933366846999 0.215843459838976
      vertex -0.557388822379982 0.404966683442475 0.64165062936362
      vertex -0.476066889851673 0.655249858091808 0.21584345991125
    endloop
  endfacet
  facet normal 0.27639320245882687 -0.8506508080830175 -0.4472135958826197
    outer loop
      vertex -0.131581652935317 0.404966683438716 0.90481393266523
      vertex -2.03058717214837e-9 0.809933366846999 0.215843459838976
      vertex 0.212903582959454 0.655249858099642 0.641650629246678
    endloop
  endfacet
  facet normal 0.7946544730571247 -0.5773502680389628 -0.18759247438434584
    outer loop
      vertex -0.557388822379982 0.404966683442475 0.64165062936362
      vertex -0.770292406915453 0.250283174628803 0.215843460028193
      vertex -0.476066889851673 0.655249858091808 0.21584345991125
    endloop
  endfacet
  facet normal 0.8944271907691594 2.3527114613044044e-9 -0.44721359596147076
    outer loop
      vertex -0.425807169586371 3.05203228913443e-10 0.904813932480912
      vertex -0.770292406915453 0.250283174628803 0.215843460028193
      vertex -0.557388822379982 0.404966683442475 0.64165062936362
    endloop
  endfacet
  facet normal 0.8944271906323278 1.4110483099828014e-9 -0.44721359623513407
    outer loop
      vertex -0.425807169586371 3.05203228913443e-10 0.904813932480912
      vertex -0.770292406067288 -0.250283174779012 0.215843460145136
      vertex -0.770292406915453 0.250283174628803 0.215843460028193
    endloop
  endfacet
  facet normal 0.8944271907070547 8.967847436216112e-10 -0.44721359608568034
    outer loop
      vertex -0.770292406067288 -0.250283174779012 0.215843460145136
      vertex -0.425807169586371 3.05203228913443e-10 0.904813932480912
      vertex -0.557388820869843 -0.404966683330435 0.641650629532736
    endloop
  endfacet
  facet normal 0.4911234727410565 0.3568220894536973 -0.79465447271167
    outer loop
      vertex -0.425807169586371 3.05203228913443e-10 0.904813932480912
      vertex -0.131581651280677 -0.404966683286768 0.904813932633064
      vertex -0.557388820869843 -0.404966683330435 0.641650629532736
    endloop
  endfacet
  facet normal -0.18759247387640604 0.5773502686456934 -0.7946544727362173
    outer loop
      vertex -0.131581651280677 -0.404966683286768 0.904813932633064
      vertex 0.344485236229432 -0.250283174631545 0.904813932782172
      vertex 0.212903585454919 -0.655249858184822 0.64165062931968
    endloop
  endfacet
  facet normal -0.6070619982061868 -1.2739748806505876e-9 -0.7946544722921477
    outer loop
      vertex 0.344485236229432 -0.250283174631545 0.904813932782172
      vertex 0.344485235332027 0.250283174678324 0.90481393266523
      vertex 0.688970472175374 -2.69125014105566e-11 0.64165062936362
    endloop
  endfacet
  facet normal -0.18759247415071995 -0.5773502692497308 -0.7946544722326019
    outer loop
      vertex 0.344485235332027 0.250283174678324 0.90481393266523
      vertex -0.131581652935317 0.404966683438716 0.90481393266523
      vertex 0.212903582959454 0.655249858099642 0.641650629246678
    endloop
  endfacet
  facet normal 0.49112347339655327 -0.3568220882641144 -0.7946544728407068
    outer loop
      vertex -0.131581652935317 0.404966683438716 0.90481393266523
      vertex -0.425807169586371 3.05203228913443e-10 0.904813932480912
      vertex -0.557388822379982 0.404966683442475 0.64165062936362
    endloop
  endfacet
  facet normal 3.891157585483929e-10 -2.336194021868441e-10 -1
    outer loop
      vertex -0.131581651280677 -0.404966683286768 0.904813932633064
      vertex 0.344485235332027 0.250283174678324 0.90481393266523
      vertex 0.344485236229432 -0.250283174631545 0.904813932782172
    endloop
  endfacet
  facet normal 1.290400279225884e-11 3.971443694763663e-11 -1
    outer loop
      vertex -0.131581651280677 -0.404966683286768 0.904813932633064
      vertex -0.131581652935317 0.404966683438716 0.90481393266523
      vertex 0.344485235332027 0.250283174678324 0.90481393266523
    endloop
  endfacet
  facet normal 5.717892280460793e-10 3.971443808940198e-11 -1
    outer loop
      vertex -0.131581652935317 0.404966683438716 0.90481393266523
      vertex -0.131581651280677 -0.404966683286768 0.904813932633064
      vertex -0.425807169586371 3.05203228913443e-10 0.904813932480912
    endloop
  endfacet
endsolid OpenSCAD_Model
