solid OpenSCAD_Model
  facet normal -1.6095280629740534e-27 1 2.5920642764721967e-11
    outer loop
      vertex 0.711200164683424 -0.410611606535589 -0.570607075256286
      vertex -0.430013985748416 -0.41061160656517 0.570607075226795
      vertex 0.711200164683424 -0.41061160656517 0.570607075226795
    endloop
  endfacet
  facet normal 1.1638213015395742e-21 1 2.592064276588579e-11
    outer loop
      vertex -0.430013985748416 -0.41061160656517 0.570607075226795
      vertex 0.711200164683424 -0.410611606535589 -0.570607075256286
      vertex -0.430013985697179 -0.410611606535589 -0.570607075205046
    endloop
  endfacet
  facet normal 0 0 -1
    outer loop
      vertex 0.140593089526667 0.577708838901237 0.570607075226795
      vertex 0.711200164683424 -0.41061160656517 0.570607075226795
      vertex -0.430013985748416 -0.41061160656517 0.570607075226795
    endloop
  endfacet
  facet normal 0.5000000000344516 -0.28867513463465744 -0.8164965808925418
    outer loop
      vertex -0.843558536974589 0.487028748458203 -1.40063295059654e-11
      vertex 0.140593089526667 0.577708838901237 0.570607075226795
      vertex -0.430013985748416 -0.41061160656517 0.570607075226795
    endloop
  endfacet
  facet normal 0.9082482905012663 0.41843164651054693 5.162353520489519e-11
    outer loop
      vertex -0.430013985697179 -0.410611606535589 -0.570607075205046
      vertex -0.843558536974589 0.487028748458203 -1.40063295059654e-11
      vertex -0.430013985748416 -0.41061160656517 0.570607075226795
    endloop
  endfacet
  facet normal -0.8660254037949308 -0.49999999998182726 2.5917730288725164e-11
    outer loop
      vertex 0.711200164683424 -0.410611606535589 -0.570607075256286
      vertex 0.140593089526667 0.577708838901237 0.570607075226795
      vertex 0.140593089526669 0.577708838842078 -0.570607075205046
    endloop
  endfacet
  facet normal -0.8660254038143699 -0.49999999994815786 -1.2960337441223548e-11
    outer loop
      vertex 0.140593089526667 0.577708838901237 0.570607075226795
      vertex 0.711200164683424 -0.410611606535589 -0.570607075256286
      vertex 0.711200164683424 -0.41061160656517 0.570607075226795
    endloop
  endfacet
  facet normal 0.09175170951686923 -0.9957819157831357 5.1620158124557974e-11
    outer loop
      vertex -0.843558536974589 0.487028748458203 -1.40063295059654e-11
      vertex 0.140593089526669 0.577708838842078 -0.570607075205046
      vertex 0.140593089526667 0.577708838901237 0.570607075226795
    endloop
  endfacet
  facet normal 4.489946185282671e-11 -2.5922716388990646e-11 1
    outer loop
      vertex 0.711200164683424 -0.410611606535589 -0.570607075256286
      vertex 0.140593089526669 0.577708838842078 -0.570607075205046
      vertex -0.430013985697179 -0.410611606535589 -0.570607075205046
    endloop
  endfacet
  facet normal 0.49999999999316275 -0.28867513461081906 0.8164965809262539
    outer loop
      vertex 0.140593089526669 0.577708838842078 -0.570607075205046
      vertex -0.843558536974589 0.487028748458203 -1.40063295059654e-11
      vertex -0.430013985697179 -0.410611606535589 -0.570607075205046
    endloop
  endfacet
endsolid OpenSCAD_Model
