solid OpenSCAD_Model
  facet normal -6.936167593151859e-29 1 2.5922015894143635e-11
    outer loop
      vertex 0.532057204888857 -0.43963660619508 -0.532057204954964
      vertex -0.532057204984899 -0.439636606222664 0.532057204966563
      vertex 0.532057204936628 -0.439636606222664 0.532057204966563
    endloop
  endfacet
  facet normal -9.389974545349767e-16 1 2.592107689668914e-11
    outer loop
      vertex -0.532057204984899 -0.439636606222664 0.532057204966563
      vertex 0.532057204888857 -0.43963660619508 -0.532057204954964
      vertex -0.532057204937124 -0.439636606195081 -0.532057204954964
    endloop
  endfacet
  facet normal 0 0 -1
    outer loop
      vertex 3.10301751336105e-11 0.481913505334317 0.532057204966563
      vertex 0.532057204936628 -0.439636606222664 0.532057204966563
      vertex -0.532057204984899 -0.439636606222664 0.532057204966563
    endloop
  endfacet
  facet normal 0.500000000034451 -0.28867513463465677 -0.8164965808925423
    outer loop
      vertex -0.917662935458695 0.397359707173905 -1.74003135084191e-11
      vertex 3.10301751336105e-11 0.481913505334317 0.532057204966563
      vertex -0.532057204984899 -0.439636606222664 0.532057204966563
    endloop
  endfacet
  facet normal 0.9082482905012664 0.4184316465105467 5.162326800978824e-11
    outer loop
      vertex -0.532057204937124 -0.439636606195081 -0.532057204954964
      vertex -0.917662935458695 0.397359707173905 -1.74003135084191e-11
      vertex -0.532057204984899 -0.439636606222664 0.532057204966563
    endloop
  endfacet
  facet normal 0.09175170951686878 -0.9957819157831358 5.162085125304886e-11
    outer loop
      vertex -0.917662935458695 0.397359707173905 -1.74003135084191e-11
      vertex 3.10323016613842e-11 0.481913505279154 -0.532057204954964
      vertex 3.10301751336105e-11 0.481913505334317 0.532057204966563
    endloop
  endfacet
  facet normal -0.5000000000776513 -0.2886751345997367 -0.8164965808784337
    outer loop
      vertex 0.917662935493171 0.397359707048113 -1.73971237167585e-11
      vertex 0.532057204936628 -0.439636606222664 0.532057204966563
      vertex 3.10301751336105e-11 0.481913505334317 0.532057204966563
    endloop
  endfacet
  facet normal -0.09175170965495509 -0.9957819157704124 5.1620490755233274e-11
    outer loop
      vertex 3.10323016613842e-11 0.481913505279154 -0.532057204954964
      vertex 0.917662935493171 0.397359707048113 -1.73971237167585e-11
      vertex 3.10301751336105e-11 0.481913505334317 0.532057204966563
    endloop
  endfacet
  facet normal -0.9082482904432438 0.41843164663649074 5.162032014824696e-11
    outer loop
      vertex 0.917662935493171 0.397359707048113 -1.73971237167585e-11
      vertex 0.532057204888857 -0.43963660619508 -0.532057204954964
      vertex 0.532057204936628 -0.439636606222664 0.532057204966563
    endloop
  endfacet
  facet normal 0 0 1
    outer loop
      vertex 0.532057204888857 -0.43963660619508 -0.532057204954964
      vertex 3.10323016613842e-11 0.481913505279154 -0.532057204954964
      vertex -0.532057204937124 -0.439636606195081 -0.532057204954964
    endloop
  endfacet
  facet normal 0.49999999999316225 -0.288675134610819 0.8164965809262543
    outer loop
      vertex 3.10323016613842e-11 0.481913505279154 -0.532057204954964
      vertex -0.917662935458695 0.397359707173905 -1.74003135084191e-11
      vertex -0.532057204937124 -0.439636606195081 -0.532057204954964
    endloop
  endfacet
  facet normal -0.5000000000363682 -0.2886751345759024 0.8164965809121411
    outer loop
      vertex 0.532057204888857 -0.43963660619508 -0.532057204954964
      vertex 0.917662935493171 0.397359707048113 -1.73971237167585e-11
      vertex 3.10323016613842e-11 0.481913505279154 -0.532057204954964
    endloop
  endfacet
endsolid OpenSCAD_Model
