solid OpenSCAD_Model
  facet normal 0 0 -1
    outer loop
      vertex 1.89034567337251e-11 0.57979589716355 0.50211797593355
      vertex 0.502117975903113 -0.289897948581776 0.50211797593355
      vertex -0.502117975969429 -0.289897948581776 0.50211797593355
    endloop
  endfacet
  facet normal 0.5000000000344513 -0.2886751346346572 -0.8164965808925418
    outer loop
      vertex -0.866025403760408 0.500000000041622 -2.46153892349716e-11
      vertex 1.89034567337251e-11 0.57979589716355 0.50211797593355
      vertex -0.502117975969429 -0.289897948581776 0.50211797593355
    endloop
  endfacet
  facet normal 0.9082482905012668 0.418431646510546 5.1623631113307944e-11
    outer loop
      vertex -0.502117975924342 -0.289897948555745 -0.502117975938992
      vertex -0.866025403760408 0.500000000041622 -2.46153892349716e-11
      vertex -0.502117975969429 -0.289897948581776 0.50211797593355
    endloop
  endfacet
  facet normal 0.8164965808933978 0.5773502692381731 5.162362357400256e-11
    outer loop
      vertex -7.12727515443979e-12 -0.999999999964529 -2.46163926682599e-11
      vertex -0.502117975924342 -0.289897948555745 -0.502117975938992
      vertex -0.502117975969429 -0.289897948581776 0.50211797593355
    endloop
  endfacet
  facet normal 0 0.5773502692593389 -0.8164965808784316
    outer loop
      vertex 0.502117975903113 -0.289897948581776 0.50211797593355
      vertex -7.12727515443979e-12 -0.999999999964529 -2.46163926682599e-11
      vertex -0.502117975969429 -0.289897948581776 0.50211797593355
    endloop
  endfacet
  facet normal 0.09175170951686851 -0.9957819157831358 5.16198565813826e-11
    outer loop
      vertex -0.866025403760408 0.500000000041622 -2.46153892349716e-11
      vertex 1.89054636003018e-11 0.579795897111492 -0.502117975938992
      vertex 1.89034567337251e-11 0.57979589716355 0.50211797593355
    endloop
  endfacet
  facet normal -0.5000000000776512 -0.28867513459973704 -0.8164965808784336
    outer loop
      vertex 0.866025403772184 0.499999999922908 -2.46123789351066e-11
      vertex 0.502117975903113 -0.289897948581776 0.50211797593355
      vertex 1.89034567337251e-11 0.57979589716355 0.50211797593355
    endloop
  endfacet
  facet normal -0.0917517096549552 -0.9957819157704125 5.161948707498019e-11
    outer loop
      vertex 1.89054636003018e-11 0.579795897111492 -0.502117975938992
      vertex 0.866025403772184 0.499999999922908 -2.46123789351066e-11
      vertex 1.89034567337251e-11 0.57979589716355 0.50211797593355
    endloop
  endfacet
  facet normal -0.9082482904629456 0.4184316465937259 -2.993387045285211e-11
    outer loop
      vertex 0.866025403772184 0.499999999922908 -2.46123789351066e-11
      vertex 0.502117975948203 -0.289897948555745 -0.502117975848822
      vertex 0.502117975903113 -0.289897948581776 0.50211797593355
    endloop
  endfacet
  facet normal -0.8164965808971775 0.577350269232828 -2.1694897622479284e-11
    outer loop
      vertex 0.502117975948203 -0.289897948555745 -0.502117975848822
      vertex -7.12727515443979e-12 -0.999999999964529 -2.46163926682599e-11
      vertex 0.502117975903113 -0.289897948581776 0.50211797593355
    endloop
  endfacet
  facet normal 0.49999999999316264 -0.2886751346108191 0.816496580926254
    outer loop
      vertex 1.89054636003018e-11 0.579795897111492 -0.502117975938992
      vertex -0.866025403760408 0.500000000041622 -2.46153892349716e-11
      vertex -0.502117975924342 -0.289897948555745 -0.502117975938992
    endloop
  endfacet
  facet normal -8.978963800645492e-11 5.1840071677049084e-11 1
    outer loop
      vertex 0.502117975948203 -0.289897948555745 -0.502117975848822
      vertex 1.89054636003018e-11 0.579795897111492 -0.502117975938992
      vertex -0.502117975924342 -0.289897948555745 -0.502117975938992
    endloop
  endfacet
  facet normal -7.331296214512589e-11 0.5773502691771011 0.8164965809365823
    outer loop
      vertex -7.12727515443979e-12 -0.999999999964529 -2.46163926682599e-11
      vertex 0.502117975948203 -0.289897948555745 -0.502117975848822
      vertex -0.502117975924342 -0.289897948555745 -0.502117975938992
    endloop
  endfacet
  facet normal -0.5000000000389755 -0.28867513454459465 0.8164965809216133
    outer loop
      vertex 0.502117975948203 -0.289897948555745 -0.502117975848822
      vertex 0.866025403772184 0.499999999922908 -2.46123789351066e-11
      vertex 1.89054636003018e-11 0.579795897111492 -0.502117975938992
    endloop
  endfacet
endsolid OpenSCAD_Model
