solid OpenSCAD_Model
  facet normal 1.5186039811951732e-27 1 6.179397119414217e-11
    outer loop
      vertex 0.489286752648259 -0.511642041415778 -0.394181101079867
      vertex -0.29907544944744 -0.511642041464494 0.394181101051231
      vertex 0.489286752648259 -0.511642041464494 0.394181101051231
    endloop
  endfacet
  facet normal 2.774594326008036e-21 1 6.179397119691678e-11
    outer loop
      vertex -0.29907544944744 -0.511642041464494 0.394181101051231
      vertex 0.489286752648259 -0.511642041415778 -0.394181101079867
      vertex -0.299075449412046 -0.511642041415778 -0.394181101044469
    endloop
  endfacet
  facet normal 0 0 -1
    outer loop
      vertex 0.489286752648259 -0.511642041464494 0.394181101051231
      vertex 0.0951056516606269 0.701522643933151 0.394181101051231
      vertex 0.73290407084562 0.238134968030668 0.394181101051231
    endloop
  endfacet
  facet normal 0 0 -1
    outer loop
      vertex -0.29907544944744 -0.511642041464494 0.394181101051231
      vertex 0.0951056516606269 0.701522643933151 0.394181101051231
      vertex 0.489286752648259 -0.511642041464494 0.394181101051231
    endloop
  endfacet
  facet normal 0 0 -1
    outer loop
      vertex 0.0951056516606269 0.701522643933151 0.394181101051231
      vertex -0.29907544944744 -0.511642041464494 0.394181101051231
      vertex -0.542692767607582 0.238134968145207 0.394181101051231
    endloop
  endfacet
  facet normal 0.5490927357560819 0.17841104487285603 -0.8164965808913578
    outer loop
      vertex -0.951056516320264 -0.309016994297666 -3.38047345523466e-11
      vertex -0.542692767607582 0.238134968145207 0.394181101051231
      vertex -0.29907544944744 -0.511642041464494 0.394181101051231
    endloop
  endfacet
  facet normal 0.2967814164500765 0.9549454386769364 7.233406084439639e-11
    outer loop
      vertex -0.299075449412046 -0.511642041415778 -0.394181101044469
      vertex -0.951056516320264 -0.309016994297666 -3.38047345523466e-11
      vertex -0.29907544944744 -0.511642041464494 0.394181101051231
    endloop
  endfacet
  facet normal 0.5877852522052979 -0.8090169944382839 6.179088521723877e-11
    outer loop
      vertex -0.542692767550313 0.238134968126602 -0.394181101044469
      vertex 0.0951056516606269 0.701522643933151 0.394181101051231
      vertex -0.542692767607582 0.238134968145207 0.394181101051231
    endloop
  endfacet
  facet normal 0.5877852522052964 -0.809016994438285 6.179266689784503e-11
    outer loop
      vertex 0.0951056516606269 0.701522643933151 0.394181101051231
      vertex -0.542692767550313 0.238134968126602 -0.394181101044469
      vertex 0.0951056516606269 0.701522643872936 -0.394181101044469
    endloop
  endfacet
  facet normal 0.8014040550273656 -0.5981233489721793 7.233180155352742e-11
    outer loop
      vertex -0.951056516320264 -0.309016994297666 -3.38047345523466e-11
      vertex -0.542692767550313 0.238134968126602 -0.394181101044469
      vertex -0.542692767607582 0.238134968145207 0.394181101051231
    endloop
  endfacet
  facet normal -0.587785252350584 -0.8090169943327273 6.179266688978253e-11
    outer loop
      vertex 0.0951056516606269 0.701522643872936 -0.394181101044469
      vertex 0.73290407084562 0.238134968030668 0.394181101051231
      vertex 0.0951056516606269 0.701522643933151 0.394181101051231
    endloop
  endfacet
  facet normal -0.5877852523505881 -0.8090169943327243 6.179765164596173e-11
    outer loop
      vertex 0.73290407084562 0.238134968030668 0.394181101051231
      vertex 0.0951056516606269 0.701522643872936 -0.394181101044469
      vertex 0.732904070874253 0.238134967949645 -0.394181101009074
    endloop
  endfacet
  facet normal -0.9510565162576644 0.30901699449032694 -6.630083610957842e-11
    outer loop
      vertex 0.489286752648259 -0.511642041415778 -0.394181101079867
      vertex 0.73290407084562 0.238134968030668 0.394181101051231
      vertex 0.732904070874253 0.238134967949645 -0.394181101009074
    endloop
  endfacet
  facet normal -0.9510565162840533 0.30901699440911035 1.9095372740802947e-11
    outer loop
      vertex 0.73290407084562 0.238134968030668 0.394181101051231
      vertex 0.489286752648259 -0.511642041415778 -0.394181101079867
      vertex 0.489286752648259 -0.511642041464494 0.394181101051231
    endloop
  endfacet
  facet normal -1.003948305080457e-10 -6.179845825661828e-11 1
    outer loop
      vertex 0.0951056516606269 0.701522643872936 -0.394181101044469
      vertex 0.489286752648259 -0.511642041415778 -0.394181101079867
      vertex 0.732904070874253 0.238134967949645 -0.394181101009074
    endloop
  endfacet
  facet normal 4.4900633549630955e-11 -1.458910021539413e-11 1
    outer loop
      vertex 0.0951056516606269 0.701522643872936 -0.394181101044469
      vertex -0.299075449412046 -0.511642041415778 -0.394181101044469
      vertex 0.489286752648259 -0.511642041415778 -0.394181101079867
    endloop
  endfacet
  facet normal 0 0 1
    outer loop
      vertex -0.299075449412046 -0.511642041415778 -0.394181101044469
      vertex 0.0951056516606269 0.701522643872936 -0.394181101044469
      vertex -0.542692767550313 0.238134968126602 -0.394181101044469
    endloop
  endfacet
  facet normal 0.5490927356550257 0.17841104484002013 0.8164965809664928
    outer loop
      vertex -0.542692767550313 0.238134968126602 -0.394181101044469
      vertex -0.951056516320264 -0.309016994297666 -3.38047345523466e-11
      vertex -0.299075449412046 -0.511642041415778 -0.394181101044469
    endloop
  endfacet
endsolid OpenSCAD_Model
