solid OpenSCAD_Model
  facet normal -6.301749551721075e-28 1 6.179554532666765e-11
    outer loop
      vertex 0.394415781753582 -0.542866751160402 -0.363691624127993
      vertex -0.332967466453964 -0.542866751205351 0.363691624112213
      vertex 0.394415781753582 -0.542866751205351 0.363691624112213
    endloop
  endfacet
  facet normal 2.774669394703401e-21 1 6.179554532944232e-11
    outer loop
      vertex -0.332967466453964 -0.542866751205351 0.363691624112213
      vertex 0.394415781753582 -0.542866751160402 -0.363691624127993
      vertex -0.332967466421307 -0.542866751160402 -0.363691624095333
    endloop
  endfacet
  facet normal 0 0 -1
    outer loop
      vertex 0.394415781753582 -0.542866751205351 0.363691624112213
      vertex 0.0307241577053689 0.576460972941558 0.363691624112213
      vertex 0.619189566898213 0.148915826838298 0.363691624112213
    endloop
  endfacet
  facet normal 0 0 -1
    outer loop
      vertex -0.332967466453964 -0.542866751205351 0.363691624112213
      vertex 0.0307241577053689 0.576460972941558 0.363691624112213
      vertex 0.394415781753582 -0.542866751205351 0.363691624112213
    endloop
  endfacet
  facet normal 0 0 -1
    outer loop
      vertex 0.0307241577053689 0.576460972941558 0.363691624112213
      vertex -0.332967466453964 -0.542866751205351 0.363691624112213
      vertex -0.557741251564256 0.148915826943978 0.363691624112213
    endloop
  endfacet
  facet normal 0.5490927357560821 0.178411044872856 -0.8164965808913575
    outer loop
      vertex -0.934518511051365 -0.355914529771321 -2.5869462627315e-11
      vertex -0.557741251564256 0.148915826943978 0.363691624112213
      vertex -0.332967466453964 -0.542866751205351 0.363691624112213
    endloop
  endfacet
  facet normal 0.2967814164500761 0.9549454386769363 7.233585435453272e-11
    outer loop
      vertex -0.332967466421307 -0.542866751160402 -0.363691624095333
      vertex -0.934518511051365 -0.355914529771321 -2.5869462627315e-11
      vertex -0.332967466453964 -0.542866751205351 0.363691624112213
    endloop
  endfacet
  facet normal 0.587785252205297 -0.8090169944382846 6.179165138688643e-11
    outer loop
      vertex -0.557741251511416 0.148915826926812 -0.363691624095333
      vertex 0.0307241577053689 0.576460972941558 0.363691624112213
      vertex -0.557741251564256 0.148915826943978 0.363691624112213
    endloop
  endfacet
  facet normal 0.5877852522052965 -0.8090169944382849 6.179212960367907e-11
    outer loop
      vertex 0.0307241577053689 0.576460972941558 0.363691624112213
      vertex -0.557741251511416 0.148915826926812 -0.363691624095333
      vertex 0.0307241577053689 0.576460972886001 -0.363691624095333
    endloop
  endfacet
  facet normal 0.8014040550273661 -0.5981233489721784 7.233280275322644e-11
    outer loop
      vertex -0.934518511051365 -0.355914529771321 -2.5869462627315e-11
      vertex -0.557741251511416 0.148915826926812 -0.363691624095333
      vertex -0.557741251564256 0.148915826943978 0.363691624112213
    endloop
  endfacet
  facet normal -0.33935797372849147 -0.46708617953707254 -0.8164965808577243
    outer loop
      vertex 0.627276934340816 0.778796281145051 -2.58687358254481e-11
      vertex 0.619189566898213 0.148915826838298 0.363691624112213
      vertex 0.0307241577053689 0.576460972941558 0.363691624112213
    endloop
  endfacet
  facet normal 0.32120163605848945 -0.9470108283400721 7.233199826847541e-11
    outer loop
      vertex 0.0307241577053689 0.576460972886001 -0.363691624095333
      vertex 0.627276934340816 0.778796281145051 -2.58687358254481e-11
      vertex 0.0307241577053689 0.576460972941558 0.363691624112213
    endloop
  endfacet
  facet normal -0.9510565162972473 0.30901699436850366 6.179072352515608e-11
    outer loop
      vertex 0.394415781753582 -0.542866751160402 -0.363691624127993
      vertex 0.619189566898213 0.148915826838298 0.363691624112213
      vertex 0.619189566845376 0.148915826821129 -0.363691624095333
    endloop
  endfacet
  facet normal -0.9510565162840539 0.30901699440910885 1.9095864716115276e-11
    outer loop
      vertex 0.619189566898213 0.148915826838298 0.363691624112213
      vertex 0.394415781753582 -0.542866751160402 -0.363691624127993
      vertex 0.394415781753582 -0.542866751205351 0.363691624112213
    endloop
  endfacet
  facet normal -0.999917583455535 0.01283846939643635 7.233090752777676e-11
    outer loop
      vertex 0.627276934340816 0.778796281145051 -2.58687358254481e-11
      vertex 0.619189566845376 0.148915826821129 -0.363691624095333
      vertex 0.619189566898213 0.148915826838298 0.363691624112213
    endloop
  endfacet
  facet normal -2.775013222735745e-11 -3.8194780282649805e-11 1
    outer loop
      vertex 0.0307241577053689 0.576460972886001 -0.363691624095333
      vertex 0.394415781753582 -0.542866751160402 -0.363691624127993
      vertex 0.619189566845376 0.148915826821129 -0.363691624095333
    endloop
  endfacet
  facet normal 4.490065712794352e-11 -1.4589107876452285e-11 1
    outer loop
      vertex 0.0307241577053689 0.576460972886001 -0.363691624095333
      vertex -0.332967466421307 -0.542866751160402 -0.363691624095333
      vertex 0.394415781753582 -0.542866751160402 -0.363691624127993
    endloop
  endfacet
  facet normal 0 0 1
    outer loop
      vertex -0.332967466421307 -0.542866751160402 -0.363691624095333
      vertex 0.0307241577053689 0.576460972886001 -0.363691624095333
      vertex -0.557741251511416 0.148915826926812 -0.363691624095333
    endloop
  endfacet
  facet normal 0.5490927356550254 0.17841104484002013 0.8164965809664929
    outer loop
      vertex -0.557741251511416 0.148915826926812 -0.363691624095333
      vertex -0.934518511051365 -0.355914529771321 -2.5869462627315e-11
      vertex -0.332967466421307 -0.542866751160402 -0.363691624095333
    endloop
  endfacet
  facet normal -0.3393579736660368 -0.4670861794511108 0.8164965809328574
    outer loop
      vertex 0.619189566845376 0.148915826821129 -0.363691624095333
      vertex 0.627276934340816 0.778796281145051 -2.58687358254481e-11
      vertex 0.0307241577053689 0.576460972886001 -0.363691624095333
    endloop
  endfacet
endsolid OpenSCAD_Model
