solid OpenSCAD_Model
  facet normal -2.915955070459761e-28 1 7.776395207671407e-11
    outer loop
      vertex 0.41649246591613 -0.554719445295854 -0.344323682320027
      vertex -0.272154898668278 -0.554719445349406 0.344323682295301
      vertex 0.41649246591613 -0.554719445349406 0.344323682295301
    endloop
  endfacet
  facet normal 3.491576046656251e-21 1 7.776395208020566e-11
    outer loop
      vertex -0.272154898668278 -0.554719445349406 0.344323682295301
      vertex 0.41649246591613 -0.554719445295854 -0.344323682320027
      vertex -0.27215489863736 -0.554719445295854 -0.344323682289107
    endloop
  endfacet
  facet normal 0 0 -1
    outer loop
      vertex 0.41649246591613 -0.554719445349406 0.344323682295301
      vertex 0.416492465969679 0.638052778619501 0.344323682295301
      vertex 0.760816148226183 0.0416666666195898 0.344323682295301
    endloop
  endfacet
  facet normal 0 0 -1
    outer loop
      vertex -0.272154898668278 -0.554719445349406 0.344323682295301
      vertex 0.416492465969679 0.638052778619501 0.344323682295301
      vertex 0.41649246591613 -0.554719445349406 0.344323682295301
    endloop
  endfacet
  facet normal 0 0 -1
    outer loop
      vertex -0.272154898668278 -0.554719445349406 0.344323682295301
      vertex -0.272154898614727 0.638052778681342 0.344323682295301
      vertex 0.416492465969679 0.638052778619501 0.344323682295301
    endloop
  endfacet
  facet normal 0 0 -1
    outer loop
      vertex -0.272154898614727 0.638052778681342 0.344323682295301
      vertex -0.272154898668278 -0.554719445349406 0.344323682295301
      vertex -0.616478580978333 0.0416666667432613 0.344323682295301
    endloop
  endfacet
  facet normal 0.5000000000624691 0.2886751345909717 -0.8164965808908298
    outer loop
      vertex -0.866025403824987 -0.499999999929768 -3.71613635581036e-11
      vertex -0.616478580978333 0.0416666667432613 0.344323682295301
      vertex -0.272154898668278 -0.554719445349406 0.344323682295301
    endloop
  endfacet
  facet normal 0.09175170965495565 0.9957819157704124 8.155529306042913e-11
    outer loop
      vertex -0.27215489863736 -0.554719445295854 -0.344323682289107
      vertex -0.866025403824987 -0.499999999929768 -3.71613635581036e-11
      vertex -0.272154898668278 -0.554719445349406 0.344323682295301
    endloop
  endfacet
  facet normal 0.8660254037245777 -0.5000000001036823 7.776669157286414e-11
    outer loop
      vertex -0.616478580978333 0.0416666667432613 0.344323682295301
      vertex -0.272154898583809 0.638052778627786 -0.344323682289107
      vertex -0.272154898614727 0.638052778681342 0.344323682295301
    endloop
  endfacet
  facet normal 0.8660254037245745 -0.5000000001036876 7.776058292676106e-11
    outer loop
      vertex -0.272154898583809 0.638052778627786 -0.344323682289107
      vertex -0.616478580978333 0.0416666667432613 0.344323682295301
      vertex -0.616478580916498 0.0416666667432633 -0.344323682289107
    endloop
  endfacet
  facet normal 0.9082482904432424 -0.41843164663649396 8.155217686049926e-11
    outer loop
      vertex -0.866025403824987 -0.499999999929768 -3.71613635581036e-11
      vertex -0.616478580916498 0.0416666667432633 -0.344323682289107
      vertex -0.616478580978333 0.0416666667432613 0.344323682295301
    endloop
  endfacet
  facet normal -8.980064393505129e-11 -1 7.776991713957553e-11
    outer loop
      vertex -0.272154898583809 0.638052778627786 -0.344323682289107
      vertex 0.416492465969679 0.638052778619501 0.344323682295301
      vertex -0.272154898614727 0.638052778681342 0.344323682295301
    endloop
  endfacet
  facet normal -8.979048720493486e-11 -1 7.775976040945955e-11
    outer loop
      vertex 0.416492465969679 0.638052778619501 0.344323682295301
      vertex -0.272154898583809 0.638052778627786 -0.344323682289107
      vertex 0.416492466031519 0.638052778565952 -0.344323682258189
    endloop
  endfacet
  facet normal -0.8660254038726923 -0.49999999984714 -3.8888559817976615e-11
    outer loop
      vertex 0.76081614816435 0.0416666666195898 -0.344323682289107
      vertex 0.416492465969679 0.638052778619501 0.344323682295301
      vertex 0.416492466031519 0.638052778565952 -0.344323682258189
    endloop
  endfacet
  facet normal -0.8660254038143683 -0.4999999999481604 7.775969955027787e-11
    outer loop
      vertex 0.416492465969679 0.638052778619501 0.344323682295301
      vertex 0.76081614816435 0.0416666666195898 -0.344323682289107
      vertex 0.760816148226183 0.0416666666195898 0.344323682295301
    endloop
  endfacet
  facet normal -0.866025403788913 0.49999999999225025 7.775974720446488e-11
    outer loop
      vertex 0.41649246591613 -0.554719445295854 -0.344323682320027
      vertex 0.760816148226183 0.0416666666195898 0.344323682295301
      vertex 0.76081614816435 0.0416666666195898 -0.344323682289107
    endloop
  endfacet
  facet normal -0.8660254037694741 0.5000000000259193 3.8881955194345345e-11
    outer loop
      vertex 0.760816148226183 0.0416666666195898 0.344323682295301
      vertex 0.41649246591613 -0.554719445295854 -0.344323682320027
      vertex 0.41649246591613 -0.554719445349406 0.344323682295301
    endloop
  endfacet
  facet normal -2.982534029331507e-15 -5.1843959354308886e-11 1
    outer loop
      vertex 0.416492466031519 0.638052778565952 -0.344323682258189
      vertex 0.41649246591613 -0.554719445295854 -0.344323682320027
      vertex 0.76081614816435 0.0416666666195898 -0.344323682289107
    endloop
  endfacet
  facet normal -4.489669456674486e-11 -5.184395934996587e-11 1
    outer loop
      vertex -0.272154898583809 0.638052778627786 -0.344323682289107
      vertex 0.41649246591613 -0.554719445295854 -0.344323682320027
      vertex 0.416492466031519 0.638052778565952 -0.344323682258189
    endloop
  endfacet
  facet normal 4.489967709782227e-11 -2.0158270154178775e-21 1
    outer loop
      vertex -0.272154898583809 0.638052778627786 -0.344323682289107
      vertex -0.27215489863736 -0.554719445295854 -0.344323682289107
      vertex 0.41649246591613 -0.554719445295854 -0.344323682320027
    endloop
  endfacet
  facet normal 0 0 1
    outer loop
      vertex -0.27215489863736 -0.554719445295854 -0.344323682289107
      vertex -0.272154898583809 0.638052778627786 -0.344323682289107
      vertex -0.616478580916498 0.0416666667432633 -0.344323682289107
    endloop
  endfacet
  facet normal 0.4999999999478641 0.2886751345248046 0.8164965809844041
    outer loop
      vertex -0.616478580916498 0.0416666667432633 -0.344323682289107
      vertex -0.866025403824987 -0.499999999929768 -3.71613635581036e-11
      vertex -0.27215489863736 -0.554719445295854 -0.344323682289107
    endloop
  endfacet
endsolid OpenSCAD_Model
