solid OpenSCAD_Model
  facet normal -2.4049026899169095e-28 1 7.776309224772829e-11
    outer loop
      vertex 0.31783724516527 -0.550510257187404 -0.31783724522295
      vertex -0.317837245220558 -0.550510257236836 0.31783724519142
      vertex 0.31783724516527 -0.550510257236836 0.31783724519142
    endloop
  endfacet
  facet normal 3.491582415266798e-21 1 7.776309225121987e-11
    outer loop
      vertex -0.317837245220558 -0.550510257236836 0.31783724519142
      vertex 0.31783724516527 -0.550510257187404 -0.31783724522295
      vertex -0.317837245192018 -0.550510257187404 -0.317837245194408
    endloop
  endfacet
  facet normal 0 0 -1
    outer loop
      vertex 0.31783724516527 -0.550510257236836 0.31783724519142
      vertex 0.3178372452147 0.550510257196383 0.31783724519142
      vertex 0.635674490374661 -3.44957465710736e-11 0.31783724519142
    endloop
  endfacet
  facet normal 0 0 -1
    outer loop
      vertex -0.317837245220558 -0.550510257236836 0.31783724519142
      vertex 0.3178372452147 0.550510257196383 0.31783724519142
      vertex 0.31783724516527 -0.550510257236836 0.31783724519142
    endloop
  endfacet
  facet normal 0 0 -1
    outer loop
      vertex -0.317837245220558 -0.550510257236836 0.31783724519142
      vertex -0.317837245171126 0.550510257253466 0.31783724519142
      vertex 0.3178372452147 0.550510257196383 0.31783724519142
    endloop
  endfacet
  facet normal 0 0 -1
    outer loop
      vertex -0.317837245171126 0.550510257253466 0.31783724519142
      vertex -0.317837245220558 -0.550510257236836 0.31783724519142
      vertex -0.635674490429949 7.96625005498291e-11 0.31783724519142
    endloop
  endfacet
  facet normal 0.5000000000624689 0.28867513459097127 -0.8164965808908299
    outer loop
      vertex -0.866025403826941 -0.499999999926384 -3.8655557250275e-11
      vertex -0.635674490429949 7.96625005498291e-11 0.31783724519142
      vertex -0.317837245220558 -0.550510257236836 0.31783724519142
    endloop
  endfacet
  facet normal 0.09175170965495508 0.9957819157704125 8.155447568732726e-11
    outer loop
      vertex -0.317837245192018 -0.550510257187404 -0.317837245194408
      vertex -0.866025403826941 -0.499999999926384 -3.8655557250275e-11
      vertex -0.317837245220558 -0.550510257236836 0.31783724519142
    endloop
  endfacet
  facet normal 0.866025403724575 -0.5000000001036868 7.776680422789017e-11
    outer loop
      vertex -0.317837245171126 0.550510257253466 0.31783724519142
      vertex -0.63567449037287 7.96644060490586e-11 -0.317837245194408
      vertex -0.317837245142586 0.55051025720403 -0.317837245194408
    endloop
  endfacet
  facet normal 0.8660254037245779 -0.5000000001036821 7.77612173508426e-11
    outer loop
      vertex -0.63567449037287 7.96644060490586e-11 -0.317837245194408
      vertex -0.317837245171126 0.550510257253466 0.31783724519142
      vertex -0.635674490429949 7.96625005498291e-11 0.31783724519142
    endloop
  endfacet
  facet normal 0.9082482904432415 -0.41843164663649546 8.155279055478545e-11
    outer loop
      vertex -0.866025403826941 -0.499999999926384 -3.8655557250275e-11
      vertex -0.63567449037287 7.96644060490586e-11 -0.317837245194408
      vertex -0.635674490429949 7.96625005498291e-11 0.31783724519142
    endloop
  endfacet
  facet normal -8.97991123646873e-11 -1 7.776937974644931e-11
    outer loop
      vertex -0.317837245142586 0.55051025720403 -0.317837245194408
      vertex 0.3178372452147 0.550510257196383 0.31783724519142
      vertex -0.317837245171126 0.550510257253466 0.31783724519142
    endloop
  endfacet
  facet normal -8.978968111525487e-11 -1 7.775994849701732e-11
    outer loop
      vertex 0.3178372452147 0.550510257196383 0.31783724519142
      vertex -0.317837245142586 0.55051025720403 -0.317837245194408
      vertex 0.317837245271784 0.550510257146953 -0.317837245165868
    endloop
  endfacet
  facet normal -0.5000000000318245 -0.28867513457328103 -0.8164965809158502
    outer loop
      vertex 0.866025403761162 0.499999999883696 2.80483134927378e-11
      vertex 0.635674490374661 -3.44957465710736e-11 0.31783724519142
      vertex 0.3178372452147 0.550510257196383 0.31783724519142
    endloop
  endfacet
  facet normal -0.0917517096760326 -0.9957819157684703 6.919259219536936e-11
    outer loop
      vertex 0.317837245271784 0.550510257146953 -0.317837245165868
      vertex 0.866025403761162 0.499999999883696 2.80483134927378e-11
      vertex 0.3178372452147 0.550510257196383 0.31783724519142
    endloop
  endfacet
  facet normal -0.8660254037305909 0.500000000093267 -3.8882993241572096e-11
    outer loop
      vertex 0.31783724516527 -0.550510257187404 -0.31783724522295
      vertex 0.635674490374661 -3.44957465710736e-11 0.31783724519142
      vertex 0.635674490403202 -3.44951114046637e-11 -0.317837245165871
    endloop
  endfacet
  facet normal -0.8660254037694731 0.5000000000259208 3.8881532277948504e-11
    outer loop
      vertex 0.635674490374661 -3.44957465710736e-11 0.31783724519142
      vertex 0.31783724516527 -0.550510257187404 -0.31783724522295
      vertex 0.31783724516527 -0.550510257236836 0.31783724519142
    endloop
  endfacet
  facet normal -0.9082482904520957 0.41843164661727694 -4.077889194057443e-11
    outer loop
      vertex 0.866025403761162 0.499999999883696 2.80483134927378e-11
      vertex 0.635674490403202 -3.44951114046637e-11 -0.317837245165871
      vertex 0.635674490374661 -3.44957465710736e-11 0.31783724519142
    endloop
  endfacet
  facet normal -8.978810924563505e-11 -5.1844634169914884e-11 1
    outer loop
      vertex 0.317837245271784 0.550510257146953 -0.317837245165868
      vertex 0.31783724516527 -0.550510257187404 -0.31783724522295
      vertex 0.635674490403202 -3.44951114046637e-11 -0.317837245165871
    endloop
  endfacet
  facet normal -4.489719837275978e-11 -5.184463417425769e-11 1
    outer loop
      vertex -0.317837245142586 0.55051025720403 -0.317837245194408
      vertex 0.31783724516527 -0.550510257187404 -0.31783724522295
      vertex 0.317837245271784 0.550510257146953 -0.317837245165868
    endloop
  endfacet
  facet normal 4.490034212176705e-11 -2.015870106910709e-21 1
    outer loop
      vertex -0.317837245142586 0.55051025720403 -0.317837245194408
      vertex -0.317837245192018 -0.550510257187404 -0.317837245194408
      vertex 0.31783724516527 -0.550510257187404 -0.31783724522295
    endloop
  endfacet
  facet normal 0 0 1
    outer loop
      vertex -0.317837245192018 -0.550510257187404 -0.317837245194408
      vertex -0.317837245142586 0.55051025720403 -0.317837245194408
      vertex -0.63567449037287 7.96644060490586e-11 -0.317837245194408
    endloop
  endfacet
  facet normal 0.49999999994786404 0.28867513452480376 0.8164965809844045
    outer loop
      vertex -0.63567449037287 7.96644060490586e-11 -0.317837245194408
      vertex -0.866025403826941 -0.499999999926384 -3.8655557250275e-11
      vertex -0.317837245192018 -0.550510257187404 -0.317837245194408
    endloop
  endfacet
  facet normal -0.500000000082191 -0.2886751346023609 0.816496580874726
    outer loop
      vertex 0.635674490403202 -3.44951114046637e-11 -0.317837245165871
      vertex 0.866025403761162 0.499999999883696 2.80483134927378e-11
      vertex 0.317837245271784 0.550510257146953 -0.317837245165868
    endloop
  endfacet
endsolid OpenSCAD_Model
