solid OpenSCAD_Model
  facet normal -5.4602601042740895e-28 1 7.77635361247023e-11
    outer loop
      vertex 0.392951313233664 -0.606689512344038 -0.328932873312111
      vertex -0.26491443334669 -0.606689512395196 0.328932873297781
      vertex 0.392951313233664 -0.606689512395196 0.328932873297781
    endloop
  endfacet
  facet normal 3.491579588230162e-21 1 7.776353612819388e-11
    outer loop
      vertex -0.26491443334669 -0.606689512395196 0.328932873297781
      vertex 0.392951313233664 -0.606689512344038 -0.328932873312111
      vertex -0.264914433317154 -0.606689512344038 -0.328932873282573
    endloop
  endfacet
  facet normal 0 0 -1
    outer loop
      vertex 0.392951313233664 -0.606689512395196 0.328932873297781
      vertex 0.39295131328482 0.532767385251052 0.328932873297781
      vertex 0.721884186540893 -0.0369610635868391 0.328932873297781
    endloop
  endfacet
  facet normal 0 0 -1
    outer loop
      vertex -0.26491443334669 -0.606689512395196 0.328932873297781
      vertex 0.39295131328482 0.532767385251052 0.328932873297781
      vertex 0.392951313233664 -0.606689512395196 0.328932873297781
    endloop
  endfacet
  facet normal 0 0 -1
    outer loop
      vertex -0.26491443334669 -0.606689512395196 0.328932873297781
      vertex -0.264914433295532 0.532767385310128 0.328932873297781
      vertex 0.39295131328482 0.532767385251052 0.328932873297781
    endloop
  endfacet
  facet normal 0 0 -1
    outer loop
      vertex -0.264914433295532 0.532767385310128 0.328932873297781
      vertex -0.26491443334669 -0.606689512395196 0.328932873297781
      vertex -0.593847306653919 -0.0369610634686956 0.328932873297781
    endloop
  endfacet
  facet normal 0.500000000062469 0.288675134590971 -0.81649658089083
    outer loop
      vertex -0.832239719609487 -0.554415953147384 -3.08546598172674e-11
      vertex -0.593847306653919 -0.0369610634686956 0.328932873297781
      vertex -0.26491443334669 -0.606689512395196 0.328932873297781
    endloop
  endfacet
  facet normal 0.09175170965495481 0.9957819157704124 8.155487743504826e-11
    outer loop
      vertex -0.264914433317154 -0.606689512344038 -0.328932873282573
      vertex -0.832239719609487 -0.554415953147384 -3.08546598172674e-11
      vertex -0.26491443334669 -0.606689512395196 0.328932873297781
    endloop
  endfacet
  facet normal 0.8660254037245777 -0.5000000001036822 7.776647966122325e-11
    outer loop
      vertex -0.593847306653919 -0.0369610634686956 0.328932873297781
      vertex -0.264914433265996 0.532767385258966 -0.328932873282573
      vertex -0.264914433295532 0.532767385310128 0.328932873297781
    endloop
  endfacet
  facet normal 0.8660254037245748 -0.5000000001036873 7.776064592621786e-11
    outer loop
      vertex -0.264914433265996 0.532767385258966 -0.328932873282573
      vertex -0.593847306653919 -0.0369610634686956 0.328932873297781
      vertex -0.593847306594848 -0.0369610634686937 -0.328932873282573
    endloop
  endfacet
  facet normal 0.9082482904432421 -0.41843164663649446 8.15521573001032e-11
    outer loop
      vertex -0.832239719609487 -0.554415953147384 -3.08546598172674e-11
      vertex -0.593847306594848 -0.0369610634686937 -0.328932873282573
      vertex -0.593847306653919 -0.0369610634686956 0.328932873297781
    endloop
  endfacet
  facet normal -5.1845709681397764e-11 -0.5773502693016747 -0.8164965808484956
    outer loop
      vertex 0.0640184400534708 0.997948715716882 -3.08572891769836e-11
      vertex 0.39295131328482 0.532767385251052 0.328932873297781
      vertex -0.264914433295532 0.532767385310128 0.328932873297781
    endloop
  endfacet
  facet normal 0.8164965808415497 -0.5773502693114974 8.155828798106866e-11
    outer loop
      vertex -0.264914433265996 0.532767385258966 -0.328932873282573
      vertex 0.0640184400534708 0.997948715716882 -3.08572891769836e-11
      vertex -0.264914433295532 0.532767385310128 0.328932873297781
    endloop
  endfacet
  facet normal -0.8660254038143674 -0.4999999999481619 7.776139399486537e-11
    outer loop
      vertex 0.721884186481824 -0.0369610635868391 -0.328932873282573
      vertex 0.39295131328482 0.532767385251052 0.328932873297781
      vertex 0.392951313255288 0.53276738519989 -0.328932873282573
    endloop
  endfacet
  facet normal -0.8660254038143683 -0.4999999999481604 7.77594958930391e-11
    outer loop
      vertex 0.39295131328482 0.532767385251052 0.328932873297781
      vertex 0.721884186481824 -0.0369610635868391 -0.328932873282573
      vertex 0.721884186540893 -0.0369610635868391 0.328932873297781
    endloop
  endfacet
  facet normal -0.8164965809734608 -0.5773502691249469 8.155351826812629e-11
    outer loop
      vertex 0.0640184400534708 0.997948715716882 -3.08572891769836e-11
      vertex 0.392951313255288 0.53276738519989 -0.328932873282573
      vertex 0.39295131328482 0.532767385251052 0.328932873297781
    endloop
  endfacet
  facet normal -0.8660254037889124 0.4999999999922514 7.775949302026117e-11
    outer loop
      vertex 0.392951313233664 -0.606689512344038 -0.328932873312111
      vertex 0.721884186540893 -0.0369610635868391 0.328932873297781
      vertex 0.721884186481824 -0.0369610635868391 -0.328932873282573
    endloop
  endfacet
  facet normal -0.8660254037694733 0.5000000000259205 3.888175433549151e-11
    outer loop
      vertex 0.721884186540893 -0.0369610635868391 0.328932873297781
      vertex 0.392951313233664 -0.606689512344038 -0.328932873312111
      vertex 0.392951313233664 -0.606689512395196 0.328932873297781
    endloop
  endfacet
  facet normal -4.489979732295768e-11 -2.5922910067385806e-11 1
    outer loop
      vertex 0.392951313255288 0.53276738519989 -0.328932873282573
      vertex 0.392951313233664 -0.606689512344038 -0.328932873312111
      vertex 0.721884186481824 -0.0369610635868391 -0.328932873282573
    endloop
  endfacet
  facet normal -2.3278668159450997e-21 -2.5922910068237892e-11 1
    outer loop
      vertex -0.264914433265996 0.532767385258966 -0.328932873282573
      vertex 0.392951313233664 -0.606689512344038 -0.328932873312111
      vertex 0.392951313255288 0.53276738519989 -0.328932873282573
    endloop
  endfacet
  facet normal 4.489979731659868e-11 -2.0158571536253295e-21 1
    outer loop
      vertex -0.264914433265996 0.532767385258966 -0.328932873282573
      vertex -0.264914433317154 -0.606689512344038 -0.328932873282573
      vertex 0.392951313233664 -0.606689512344038 -0.328932873312111
    endloop
  endfacet
  facet normal 0 0 1
    outer loop
      vertex -0.264914433317154 -0.606689512344038 -0.328932873282573
      vertex -0.264914433265996 0.532767385258966 -0.328932873282573
      vertex -0.593847306594848 -0.0369610634686937 -0.328932873282573
    endloop
  endfacet
  facet normal 0.49999999994786465 0.288675134524804 0.8164965809844041
    outer loop
      vertex -0.593847306594848 -0.0369610634686937 -0.328932873282573
      vertex -0.832239719609487 -0.554415953147384 -3.08546598172674e-11
      vertex -0.264914433317154 -0.606689512344038 -0.328932873282573
    endloop
  endfacet
  facet normal -5.184582013510087e-11 -0.5773502691693312 0.8164965809420764
    outer loop
      vertex 0.392951313255288 0.53276738519989 -0.328932873282573
      vertex 0.0640184400534708 0.997948715716882 -3.08572891769836e-11
      vertex -0.264914433265996 0.532767385258966 -0.328932873282573
    endloop
  endfacet
endsolid OpenSCAD_Model
