solid OpenSCAD_Model
  facet normal 7.555677149932546e-27 1 7.77599485007341e-11
    outer loop
      vertex 0.317837245154084 -0.550510257195464 -0.317837245188977
      vertex -0.317837245210197 -0.550510257244894 0.317837245203842
      vertex 0.317837245182623 -0.550510257244894 0.317837245203842
    endloop
  endfacet
  facet normal 3.143749630844543e-15 1 7.77630922503648e-11
    outer loop
      vertex -0.317837245210197 -0.550510257244894 0.317837245203842
      vertex 0.317837245154084 -0.550510257195464 -0.317837245188977
      vertex -0.317837245181657 -0.550510257195462 -0.317837245188977
    endloop
  endfacet
  facet normal 0 0 -1
    outer loop
      vertex 0.317837245182623 -0.550510257244894 0.317837245203842
      vertex 0.317837245232053 0.550510257200435 0.317837245203842
      vertex 0.635674490395509 -3.64986379838809e-11 0.317837245203842
    endloop
  endfacet
  facet normal 0 0 -1
    outer loop
      vertex -0.317837245210197 -0.550510257244894 0.317837245203842
      vertex 0.317837245232053 0.550510257200435 0.317837245203842
      vertex 0.317837245182623 -0.550510257244894 0.317837245203842
    endloop
  endfacet
  facet normal 0 0 -1
    outer loop
      vertex -0.317837245210197 -0.550510257244894 0.317837245203842
      vertex -0.317837245160765 0.550510257257518 0.317837245203842
      vertex 0.317837245232053 0.550510257200435 0.317837245203842
    endloop
  endfacet
  facet normal 0 0 -1
    outer loop
      vertex -0.317837245160765 0.550510257257518 0.317837245203842
      vertex -0.317837245210197 -0.550510257244894 0.317837245203842
      vertex -0.635674490423084 7.76596091382773e-11 0.317837245203842
    endloop
  endfacet
  facet normal 0.5000000000624688 0.28867513459097127 -0.8164965808908301
    outer loop
      vertex -0.866025403822609 -0.499999999933887 -2.97291049616293e-11
      vertex -0.635674490423084 7.76596091382773e-11 0.317837245203842
      vertex -0.317837245210197 -0.550510257244894 0.317837245203842
    endloop
  endfacet
  facet normal 0.09175170965495417 0.9957819157704126 8.155447568643031e-11
    outer loop
      vertex -0.317837245181657 -0.550510257195462 -0.317837245188977
      vertex -0.866025403822609 -0.499999999933887 -2.97291049616293e-11
      vertex -0.317837245210197 -0.550510257244894 0.317837245203842
    endloop
  endfacet
  facet normal 0.8660254037245748 -0.5000000001036871 7.776680422703493e-11
    outer loop
      vertex -0.317837245160765 0.550510257257518 0.317837245203842
      vertex -0.635674490366005 7.76615146375069e-11 -0.317837245188977
      vertex -0.317837245132225 0.550510257208082 -0.317837245188977
    endloop
  endfacet
  facet normal 0.8660254037245776 -0.5000000001036824 7.776136860371191e-11
    outer loop
      vertex -0.635674490366005 7.76615146375069e-11 -0.317837245188977
      vertex -0.317837245160765 0.550510257257518 0.317837245203842
      vertex -0.635674490423084 7.76596091382773e-11 0.317837245203842
    endloop
  endfacet
  facet normal 0.9082482904432423 -0.4184316466364939 8.155293001996022e-11
    outer loop
      vertex -0.866025403822609 -0.499999999933887 -2.97291049616293e-11
      vertex -0.635674490366005 7.76615146375069e-11 -0.317837245188977
      vertex -0.635674490423084 7.76596091382773e-11 0.317837245203842
    endloop
  endfacet
  facet normal -5.18455167472843e-11 -0.5773502693016748 -0.8164965808484954
    outer loop
      vertex 9.24862986436597e-11 0.999999999934748 -2.97316456272687e-11
      vertex 0.317837245232053 0.550510257200435 0.317837245203842
      vertex -0.317837245160765 0.550510257257518 0.317837245203842
    endloop
  endfacet
  facet normal 0.8164965808415497 -0.5773502693114975 8.155858130079963e-11
    outer loop
      vertex -0.317837245132225 0.550510257208082 -0.317837245188977
      vertex 9.24862986436597e-11 0.999999999934748 -2.97316456272687e-11
      vertex -0.317837245160765 0.550510257257518 0.317837245203842
    endloop
  endfacet
  facet normal -0.8660254038143679 -0.4999999999481611 7.776129232298418e-11
    outer loop
      vertex 0.635674490338432 -3.64986379838809e-11 -0.317837245188977
      vertex 0.317837245232053 0.550510257200435 0.317837245203842
      vertex 0.317837245203517 0.550510257150999 -0.317837245188977
    endloop
  endfacet
  facet normal -0.8660254038143684 -0.4999999999481601 7.77601744877373e-11
    outer loop
      vertex 0.317837245232053 0.550510257200435 0.317837245203842
      vertex 0.635674490338432 -3.64986379838809e-11 -0.317837245188977
      vertex 0.635674490395509 -3.64986379838809e-11 0.317837245203842
    endloop
  endfacet
  facet normal -0.8164965809734603 -0.5773502691249477 8.155335020270453e-11
    outer loop
      vertex 9.24862986436597e-11 0.999999999934748 -2.97316456272687e-11
      vertex 0.317837245203517 0.550510257150999 -0.317837245188977
      vertex 0.317837245232053 0.550510257200435 0.317837245203842
    endloop
  endfacet
  facet normal -0.5000000000883864 0.28867513466579603 -0.8164965808485042
    outer loop
      vertex 0.866025403697838 -0.500000000019507 -2.97278346288096e-11
      vertex 0.317837245182623 -0.550510257244894 0.317837245203842
      vertex 0.635674490395509 -3.64986379838809e-11 0.317837245203842
    endloop
  endfacet
  facet normal -0.9082482905012648 -0.41843164651055037 8.155132437717786e-11
    outer loop
      vertex 0.635674490338432 -3.64986379838809e-11 -0.317837245188977
      vertex 0.866025403697838 -0.500000000019507 -2.97278346288096e-11
      vertex 0.635674490395509 -3.64986379838809e-11 0.317837245203842
    endloop
  endfacet
  facet normal -0.09175170951686819 0.9957819157831359 8.155120752572371e-11
    outer loop
      vertex 0.866025403697838 -0.500000000019507 -2.97278346288096e-11
      vertex 0.317837245154084 -0.550510257195464 -0.317837245188977
      vertex 0.317837245182623 -0.550510257244894 0.317837245203842
    endloop
  endfacet
  facet normal 0 0 1
    outer loop
      vertex 0.317837245203517 0.550510257150999 -0.317837245188977
      vertex 0.317837245154084 -0.550510257195464 -0.317837245188977
      vertex 0.635674490338432 -3.64986379838809e-11 -0.317837245188977
    endloop
  endfacet
  facet normal 0 0 1
    outer loop
      vertex -0.317837245132225 0.550510257208082 -0.317837245188977
      vertex 0.317837245154084 -0.550510257195464 -0.317837245188977
      vertex 0.317837245203517 0.550510257150999 -0.317837245188977
    endloop
  endfacet
  facet normal 0 0 1
    outer loop
      vertex -0.317837245132225 0.550510257208082 -0.317837245188977
      vertex -0.317837245181657 -0.550510257195462 -0.317837245188977
      vertex 0.317837245154084 -0.550510257195464 -0.317837245188977
    endloop
  endfacet
  facet normal 0 0 1
    outer loop
      vertex -0.317837245181657 -0.550510257195462 -0.317837245188977
      vertex -0.317837245132225 0.550510257208082 -0.317837245188977
      vertex -0.635674490366005 7.76615146375069e-11 -0.317837245188977
    endloop
  endfacet
  facet normal 0.49999999994786387 0.2886751345248036 0.8164965809844048
    outer loop
      vertex -0.635674490366005 7.76615146375069e-11 -0.317837245188977
      vertex -0.866025403822609 -0.499999999933887 -2.97291049616293e-11
      vertex -0.317837245181657 -0.550510257195462 -0.317837245188977
    endloop
  endfacet
  facet normal -5.1845541699004044e-11 -0.577350269169331 0.8164965809420766
    outer loop
      vertex 0.317837245203517 0.550510257150999 -0.317837245188977
      vertex 9.24862986436597e-11 0.999999999934748 -2.97316456272687e-11
      vertex -0.317837245132225 0.550510257208082 -0.317837245188977
    endloop
  endfacet
  facet normal -0.4999999999737856 0.28867513459963157 0.8164965809420754
    outer loop
      vertex 0.317837245154084 -0.550510257195464 -0.317837245188977
      vertex 0.866025403697838 -0.500000000019507 -2.97278346288096e-11
      vertex 0.635674490338432 -3.64986379838809e-11 -0.317837245188977
    endloop
  endfacet
endsolid OpenSCAD_Model
