solid OpenSCAD_Model
  facet normal 0.8506508084067641 0.27639320221713437 -0.4472135954161916
    outer loop
      vertex -0.320268908448364 -0.440812335362081 0.663249341181041
      vertex -0.838474887816899 0.272437005964807 0.118375329433498
      vertex -0.518205979415537 0.168375329461952 0.663249341181041
    endloop
  endfacet
  facet normal 0.8506508084067638 0.2763932022171329 -0.44721359541619304
    outer loop
      vertex -0.838474887816899 0.272437005964807 0.118375329433498
      vertex -0.320268908448364 -0.440812335362081 0.663249341181041
      vertex -0.838474887832018 -0.272437005775525 -0.218375329460299
    endloop
  endfacet
  facet normal 0.8506508084067635 0.2763932022171345 -0.4472135954161926
    outer loop
      vertex -0.838474887832018 -0.272437005775525 -0.218375329460299
      vertex -0.320268908448364 -0.440812335362081 0.663249341181041
      vertex -0.518205979391074 -0.713249341231942 0.118375329381087
    endloop
  endfacet
  facet normal -6.510580008053048e-16 0.89442719101969 -0.4472135954604098
    outer loop
      vertex 1.10560554191095e-11 -0.881624670644919 -0.21837532948209
      vertex 0.320268908495653 -0.440812335362081 0.663249341181041
      vertex 0.518205979477367 -0.713249341243194 0.118375329358584
    endloop
  endfacet
  facet normal 0 0.8944271910196898 -0.44721359546040984
    outer loop
      vertex 0.320268908495653 -0.440812335362081 0.663249341181041
      vertex 1.10560554191095e-11 -0.881624670644919 -0.21837532948209
      vertex -0.320268908448364 -0.440812335362081 0.663249341181041
    endloop
  endfacet
  facet normal 1.8198272396364853e-15 0.8944271910196901 -0.44721359546040934
    outer loop
      vertex -0.320268908448364 -0.440812335362081 0.663249341181041
      vertex 1.10560554191095e-11 -0.881624670644919 -0.21837532948209
      vertex -0.518205979391074 -0.713249341231942 0.118375329381087
    endloop
  endfacet
  facet normal 1.6900661392645914e-17 0.6070619980974098 -0.7946544723752459
    outer loop
      vertex 4.0247954416917e-11 2.45543072510398e-11 1
      vertex 0.320268908495653 -0.440812335362081 0.663249341181041
      vertex -0.320268908448364 -0.440812335362081 0.663249341181041
    endloop
  endfacet
  facet normal 0.5773502691408631 0.187592474034847 -0.7946544723390525
    outer loop
      vertex -0.518205979415537 0.168375329461952 0.663249341181041
      vertex 4.0247954416917e-11 2.45543072510398e-11 1
      vertex -0.320268908448364 -0.440812335362081 0.663249341181041
    endloop
  endfacet
  facet normal -0.850650808395695 0.27639320219650954 -0.4472135954499931
    outer loop
      vertex 0.320268908495653 -0.440812335362081 0.663249341181041
      vertex 0.838474887873997 0.272437005847115 0.118375329363218
      vertex 0.838474887904154 -0.272437005894041 -0.218375329509114
    endloop
  endfacet
  facet normal -0.850650808364253 0.2763932020666812 -0.4472135955900374
    outer loop
      vertex 0.838474887873997 0.272437005847115 0.118375329363218
      vertex 0.320268908495653 -0.440812335362081 0.663249341181041
      vertex 0.518205979364972 0.168375329461952 0.663249341181041
    endloop
  endfacet
  facet normal -0.8506508083956942 0.2763932021965141 -0.4472135954499918
    outer loop
      vertex 0.320268908495653 -0.440812335362081 0.663249341181041
      vertex 0.838474887904154 -0.272437005894041 -0.218375329509114
      vertex 0.518205979477367 -0.713249341243194 0.118375329358584
    endloop
  endfacet
  facet normal -0.5773502692327245 0.1875924739719547 -0.7946544722871584
    outer loop
      vertex 4.0247954416917e-11 2.45543072510398e-11 1
      vertex 0.518205979364972 0.168375329461952 0.663249341181041
      vertex 0.320268908495653 -0.440812335362081 0.663249341181041
    endloop
  endfacet
  facet normal -0.5257311120987729 0.7236067977037651 0.4472135955986691
    outer loop
      vertex 0.838474887904154 -0.272437005894041 -0.218375329509114
      vertex 1.10560554191095e-11 -0.881624670644919 -0.21837532948209
      vertex 0.518205979477367 -0.713249341243194 0.118375329358584
    endloop
  endfacet
  facet normal -0.5257311120987712 0.7236067977037629 0.4472135955986745
    outer loop
      vertex 0.518205979354031 -0.168375329406615 -0.763249341273593
      vertex 1.10560554191095e-11 -0.881624670644919 -0.21837532948209
      vertex 0.838474887904154 -0.272437005894041 -0.218375329509114
    endloop
  endfacet
  facet normal -0.5257311120987752 0.7236067977037627 0.4472135955986702
    outer loop
      vertex 1.10560554191095e-11 -0.881624670644919 -0.21837532948209
      vertex 0.518205979354031 -0.168375329406615 -0.763249341273593
      vertex -6.89810615517778e-11 -0.544874011775685 -0.763249341205452
    endloop
  endfacet
  facet normal 0.525731112192815 0.7236067976134206 0.44721359563429636
    outer loop
      vertex 1.10560554191095e-11 -0.881624670644919 -0.21837532948209
      vertex -0.838474887832018 -0.272437005775525 -0.218375329460299
      vertex -0.518205979391074 -0.713249341231942 0.118375329381087
    endloop
  endfacet
  facet normal 0.5257311122053892 0.7236067977167847 0.44721359545226785
    outer loop
      vertex -0.518205979517384 -0.16837532945087 -0.763249341059563
      vertex 1.10560554191095e-11 -0.881624670644919 -0.21837532948209
      vertex -6.89810615517778e-11 -0.544874011775685 -0.763249341205452
    endloop
  endfacet
  facet normal 0.525731112264613 0.723606797712242 0.44721359538999617
    outer loop
      vertex 1.10560554191095e-11 -0.881624670644919 -0.21837532948209
      vertex -0.518205979517384 -0.16837532945087 -0.763249341059563
      vertex -0.838474887832018 -0.272437005775525 -0.218375329460299
    endloop
  endfacet
  facet normal 0.52573111203394 -0.723606797827291 -0.4472135954750155
    outer loop
      vertex 2.65088253009173e-10 0.881624670581574 0.118375329555704
      vertex -0.518205979415537 0.168375329461952 0.663249341181041
      vertex -0.838474887816899 0.272437005964807 0.118375329433498
    endloop
  endfacet
  facet normal 0.525731112301184 -0.7236067978067925 -0.44721359519401865
    outer loop
      vertex -0.518205979415537 0.168375329461952 0.663249341181041
      vertex 2.65088253009173e-10 0.881624670581574 0.118375329555704
      vertex -5.55201801180461e-11 0.544874011834486 0.663249341181041
    endloop
  endfacet
  facet normal 0.5257311120339395 -0.7236067978272901 -0.44721359547501766
    outer loop
      vertex 2.65088253009173e-10 0.881624670581574 0.118375329555704
      vertex -0.838474887816899 0.272437005964807 0.118375329433498
      vertex -0.518205979219885 0.713249341225699 -0.218375329352573
    endloop
  endfacet
  facet normal 0.3568220897834742 -0.49112347307120957 -0.7946544723595452
    outer loop
      vertex -5.55201801180461e-11 0.544874011834486 0.663249341181041
      vertex 4.0247954416917e-11 2.45543072510398e-11 1
      vertex -0.518205979415537 0.168375329461952 0.663249341181041
    endloop
  endfacet
  facet normal -0.5257311121113256 -0.7236067976299208 -0.4472135957033951
    outer loop
      vertex 2.65088253009173e-10 0.881624670581574 0.118375329555704
      vertex 0.518205979364972 0.168375329461952 0.663249341181041
      vertex -5.55201801180461e-11 0.544874011834486 0.663249341181041
    endloop
  endfacet
  facet normal -0.5257311123148767 -0.7236067976143078 -0.44721359548936884
    outer loop
      vertex 2.65088253009173e-10 0.881624670581574 0.118375329555704
      vertex 0.838474887873997 0.272437005847115 0.118375329363218
      vertex 0.518205979364972 0.168375329461952 0.663249341181041
    endloop
  endfacet
  facet normal -0.5257311124689895 -0.7236067978264261 -0.4472135949649833
    outer loop
      vertex 0.838474887873997 0.272437005847115 0.118375329363218
      vertex 2.65088253009173e-10 0.881624670581574 0.118375329555704
      vertex 0.518205979262703 0.713249341089174 -0.218375329447238
    endloop
  endfacet
  facet normal -0.35682208980468166 -0.49112347315771404 -0.7946544722965598
    outer loop
      vertex 4.0247954416917e-11 2.45543072510398e-11 1
      vertex -5.55201801180461e-11 0.544874011834486 0.663249341181041
      vertex 0.518205979364972 0.168375329461952 0.663249341181041
    endloop
  endfacet
  facet normal -0.8506508082587836 -0.2763932025429245 0.447213595496318
    outer loop
      vertex 0.320268908330207 0.440812335370253 -0.763249341169826
      vertex 0.838474887873997 0.272437005847115 0.118375329363218
      vertex 0.518205979262703 0.713249341089174 -0.218375329447238
    endloop
  endfacet
  facet normal -0.8506508082920203 -0.27639320235653353 0.4472135955482939
    outer loop
      vertex 0.838474887904154 -0.272437005894041 -0.218375329509114
      vertex 0.320268908330207 0.440812335370253 -0.763249341169826
      vertex 0.518205979354031 -0.168375329406615 -0.763249341273593
    endloop
  endfacet
  facet normal -0.8506508082912778 -0.276393202353468 0.44721359555160056
    outer loop
      vertex 0.320268908330207 0.440812335370253 -0.763249341169826
      vertex 0.838474887904154 -0.272437005894041 -0.218375329509114
      vertex 0.838474887873997 0.272437005847115 0.118375329363218
    endloop
  endfacet
  facet normal 2.0650237141142781e-10 -1.0323997690100065e-10 1
    outer loop
      vertex 0.320268908330207 0.440812335370253 -0.763249341169826
      vertex -6.89810615517778e-11 -0.544874011775685 -0.763249341205452
      vertex 0.518205979354031 -0.168375329406615 -0.763249341273593
    endloop
  endfacet
  facet normal 2.0651078338829247e-10 -1.0324271011796739e-10 1
    outer loop
      vertex -0.320268908613811 0.440812335285388 -0.763249341037548
      vertex -6.89810615517778e-11 -0.544874011775685 -0.763249341205452
      vertex 0.320268908330207 0.440812335370253 -0.763249341169826
    endloop
  endfacet
  facet normal 2.0651861537679114e-10 -1.0324016535064284e-10 1
    outer loop
      vertex -6.89810615517778e-11 -0.544874011775685 -0.763249341205452
      vertex -0.320268908613811 0.440812335285388 -0.763249341037548
      vertex -0.518205979517384 -0.16837532945087 -0.763249341059563
    endloop
  endfacet
  facet normal 0.8506508083165307 -0.276393202753663 0.4472135952562327
    outer loop
      vertex -0.838474887816899 0.272437005964807 0.118375329433498
      vertex -0.320268908613811 0.440812335285388 -0.763249341037548
      vertex -0.518205979219885 0.713249341225699 -0.218375329352573
    endloop
  endfacet
  facet normal 0.8506508084019987 -0.2763932022553455 0.4472135954016398
    outer loop
      vertex -0.838474887832018 -0.272437005775525 -0.218375329460299
      vertex -0.320268908613811 0.440812335285388 -0.763249341037548
      vertex -0.838474887816899 0.272437005964807 0.118375329433498
    endloop
  endfacet
  facet normal 0.8506508083829192 -0.2763932021765632 0.4472135954866216
    outer loop
      vertex -0.320268908613811 0.440812335285388 -0.763249341037548
      vertex -0.838474887832018 -0.272437005775525 -0.218375329460299
      vertex -0.518205979517384 -0.16837532945087 -0.763249341059563
    endloop
  endfacet
  facet normal -2.2163418990464002e-10 -0.894427190967889 0.44721359556401147
    outer loop
      vertex -0.320268908613811 0.440812335285388 -0.763249341037548
      vertex 2.65088253009173e-10 0.881624670581574 0.118375329555704
      vertex -0.518205979219885 0.713249341225699 -0.218375329352573
    endloop
  endfacet
  facet normal 2.108572958947592e-10 -0.8944271910307336 0.44721359543832206
    outer loop
      vertex 0.320268908330207 0.440812335370253 -0.763249341169826
      vertex 2.65088253009173e-10 0.881624670581574 0.118375329555704
      vertex -0.320268908613811 0.440812335285388 -0.763249341037548
    endloop
  endfacet
  facet normal -1.1020183125142246e-10 -0.8944271910773864 0.44721359534501687
    outer loop
      vertex 2.65088253009173e-10 0.881624670581574 0.118375329555704
      vertex 0.320268908330207 0.440812335370253 -0.763249341169826
      vertex 0.518205979262703 0.713249341089174 -0.218375329447238
    endloop
  endfacet
endsolid OpenSCAD_Model
