solid OpenSCAD_Model
  facet normal 0.8506508084067641 0.2763932022171339 -0.4472135954161916
    outer loop
      vertex -0.305018008050563 -0.419821271771486 0.679285086838022
      vertex -0.79854751221271 0.259463815208757 0.160357456600545
      vertex -0.493529504210401 0.160357456634281 0.679285086838022
    endloop
  endfacet
  facet normal 0.8506508084067639 0.27639320221713315 -0.44721359541619254
    outer loop
      vertex -0.79854751221271 0.259463815208757 0.160357456600545
      vertex -0.305018008050563 -0.419821271771486 0.679285086838022
      vertex -0.798547512227109 -0.259463815021852 -0.160357456632707
    endloop
  endfacet
  facet normal 0.8506508084067634 0.2763932022171359 -0.44721359541619166
    outer loop
      vertex -0.798547512227109 -0.259463815021852 -0.160357456632707
      vertex -0.305018008050563 -0.419821271771486 0.679285086838022
      vertex -0.493529504187102 -0.679285086886501 0.160357456550629
    endloop
  endfacet
  facet normal -2.1148916163316395e-15 0.8944271910196901 -0.44721359546040934
    outer loop
      vertex 7.04028434191575e-12 -0.83964254347082 -0.16035745665346
      vertex 0.305018008088621 -0.419821271771486 0.679285086838022
      vertex 0.493529504262307 -0.679285086897216 0.160357456529198
    endloop
  endfacet
  facet normal 0 0.8944271910196897 -0.44721359546040995
    outer loop
      vertex 0.305018008088621 -0.419821271771486 0.679285086838022
      vertex 7.04028434191575e-12 -0.83964254347082 -0.16035745665346
      vertex -0.305018008050563 -0.419821271771486 0.679285086838022
    endloop
  endfacet
  facet normal 9.962536537674556e-16 0.8944271910196898 -0.4472135954604097
    outer loop
      vertex -0.305018008050563 -0.419821271771486 0.679285086838022
      vertex 7.04028434191575e-12 -0.83964254347082 -0.16035745665346
      vertex -0.493529504187102 -0.679285086886501 0.160357456550629
    endloop
  endfacet
  facet normal 2.457504273937686e-17 0.60706199809741 -0.7946544723752456
    outer loop
      vertex 3.48420929113485e-11 2.6702826617782e-11 1
      vertex 0.305018008088621 -0.419821271771486 0.679285086838022
      vertex -0.305018008050563 -0.419821271771486 0.679285086838022
    endloop
  endfacet
  facet normal 0.5773502691408632 0.18759247403484675 -0.7946544723390526
    outer loop
      vertex -0.493529504210401 0.160357456634281 0.679285086838022
      vertex 3.48420929113485e-11 2.6702826617782e-11 1
      vertex -0.305018008050563 -0.419821271771486 0.679285086838022
    endloop
  endfacet
  facet normal -0.850650808395695 0.27639320219650887 -0.44721359544999334
    outer loop
      vertex 0.305018008088621 -0.419821271771486 0.679285086838022
      vertex 0.79854751226011 0.259463815096669 0.160357456533611
      vertex 0.798547512288831 -0.259463815134725 -0.160357456679197
    endloop
  endfacet
  facet normal -0.8506508083642529 0.27639320206667983 -0.4472135955900386
    outer loop
      vertex 0.79854751226011 0.259463815096669 0.160357456533611
      vertex 0.305018008088621 -0.419821271771486 0.679285086838022
      vertex 0.493529504155264 0.160357456634281 0.679285086838022
    endloop
  endfacet
  facet normal -0.8506508083956937 0.27639320219651603 -0.44721359544999134
    outer loop
      vertex 0.305018008088621 -0.419821271771486 0.679285086838022
      vertex 0.798547512288831 -0.259463815134725 -0.160357456679197
      vertex 0.493529504262307 -0.679285086897216 0.160357456529198
    endloop
  endfacet
  facet normal -0.5773502692327255 0.18759247397195397 -0.7946544722871578
    outer loop
      vertex 3.48420929113485e-11 2.6702826617782e-11 1
      vertex 0.493529504155264 0.160357456634281 0.679285086838022
      vertex 0.305018008088621 -0.419821271771486 0.679285086838022
    endloop
  endfacet
  facet normal -0.5257311120987731 0.7236067977037652 0.44721359559866863
    outer loop
      vertex 0.798547512288831 -0.259463815134725 -0.160357456679197
      vertex 7.04028434191575e-12 -0.83964254347082 -0.16035745665346
      vertex 0.493529504262307 -0.679285086897216 0.160357456529198
    endloop
  endfacet
  facet normal -0.5257311120987715 0.7236067977037631 0.4472135955986738
    outer loop
      vertex 0.493529504144845 -0.160357456574943 -0.679285086932804
      vertex 7.04028434191575e-12 -0.83964254347082 -0.16035745665346
      vertex 0.798547512288831 -0.259463815134725 -0.160357456679197
    endloop
  endfacet
  facet normal -0.5257311120987761 0.7236067977037627 0.4472135955986691
    outer loop
      vertex 7.04028434191575e-12 -0.83964254347082 -0.16035745665346
      vertex 0.493529504144845 -0.160357456574943 -0.679285086932804
      vertex -6.91855413448965e-11 -0.518927630260962 -0.679285086867908
    endloop
  endfacet
  facet normal 0.5257311121928144 0.7236067976134194 0.44721359563429897
    outer loop
      vertex 7.04028434191575e-12 -0.83964254347082 -0.16035745665346
      vertex -0.798547512227109 -0.259463815021852 -0.160357456632707
      vertex -0.493529504187102 -0.679285086886501 0.160357456550629
    endloop
  endfacet
  facet normal 0.5257311122053886 0.7236067977167855 0.44721359545226713
    outer loop
      vertex -0.493529504307398 -0.160357456617091 -0.679285086728967
      vertex 7.04028434191575e-12 -0.83964254347082 -0.16035745665346
      vertex -6.91855413448965e-11 -0.518927630260962 -0.679285086867908
    endloop
  endfacet
  facet normal 0.5257311122646138 0.7236067977122427 0.44721359538999406
    outer loop
      vertex 7.04028434191575e-12 -0.83964254347082 -0.16035745665346
      vertex -0.493529504307398 -0.160357456617091 -0.679285086728967
      vertex -0.798547512227109 -0.259463815021852 -0.160357456632707
    endloop
  endfacet
  facet normal 0.5257311120339402 -0.7236067978272912 -0.4472135954750149
    outer loop
      vertex 2.4897571061897e-10 0.839642543417127 0.160357456716932
      vertex -0.493529504210401 0.160357456634281 0.679285086838022
      vertex -0.79854751221271 0.259463815208757 0.160357456600545
    endloop
  endfacet
  facet normal 0.5257311123011829 -0.7236067978067929 -0.4472135951940193
    outer loop
      vertex -0.493529504210401 0.160357456634281 0.679285086838022
      vertex 2.4897571061897e-10 0.839642543417127 0.160357456716932
      vertex -5.63656542651095e-11 0.518927630323598 0.679285086838022
    endloop
  endfacet
  facet normal 0.5257311120339397 -0.7236067978272906 -0.4472135954750163
    outer loop
      vertex 2.4897571061897e-10 0.839642543417127 0.160357456716932
      vertex -0.79854751221271 0.259463815208757 0.160357456600545
      vertex -0.493529504024065 0.67928508688719 -0.160357456530111
    endloop
  endfacet
  facet normal 0.3568220897834736 -0.49112347307121007 -0.7946544723595452
    outer loop
      vertex -5.63656542651095e-11 0.518927630323598 0.679285086838022
      vertex 3.48420929113485e-11 2.6702826617782e-11 1
      vertex -0.493529504210401 0.160357456634281 0.679285086838022
    endloop
  endfacet
  facet normal -0.5257311121113254 -0.7236067976299206 -0.44721359570339536
    outer loop
      vertex 2.4897571061897e-10 0.839642543417127 0.160357456716932
      vertex 0.493529504155264 0.160357456634281 0.679285086838022
      vertex -5.63656542651095e-11 0.518927630323598 0.679285086838022
    endloop
  endfacet
  facet normal -0.5257311123148776 -0.7236067976143076 -0.44721359548936795
    outer loop
      vertex 2.4897571061897e-10 0.839642543417127 0.160357456716932
      vertex 0.79854751226011 0.259463815096669 0.160357456533611
      vertex 0.493529504155264 0.160357456634281 0.679285086838022
    endloop
  endfacet
  facet normal -0.5257311124689896 -0.7236067978264248 -0.44721359496498564
    outer loop
      vertex 0.79854751226011 0.259463815096669 0.160357456533611
      vertex 2.4897571061897e-10 0.839642543417127 0.160357456716932
      vertex 0.493529504057866 0.679285086757167 -0.160357456620268
    endloop
  endfacet
  facet normal -0.35682208980468183 -0.49112347315771426 -0.7946544722965595
    outer loop
      vertex 3.48420929113485e-11 2.6702826617782e-11 1
      vertex -5.63656542651095e-11 0.518927630323598 0.679285086838022
      vertex 0.493529504155264 0.160357456634281 0.679285086838022
    endloop
  endfacet
  facet normal -0.8506508082739371 -0.27639320260549366 0.447213595428824
    outer loop
      vertex 0.305018008024305 0.41982127169471 -0.679285086833972
      vertex 0.79854751226011 0.259463815096669 0.160357456533611
      vertex 0.493529504057866 0.679285086757167 -0.160357456620268
    endloop
  endfacet
  facet normal -0.850650808307174 -0.27639320226818237 0.4472135955740738
    outer loop
      vertex 0.798547512288831 -0.259463815134725 -0.160357456679197
      vertex 0.305018008024305 0.41982127169471 -0.679285086833972
      vertex 0.493529504144845 -0.160357456574943 -0.679285086932804
    endloop
  endfacet
  facet normal -0.8506508083215849 -0.2763932023276868 0.4472135955098869
    outer loop
      vertex 0.305018008024305 0.41982127169471 -0.679285086833972
      vertex 0.798547512288831 -0.259463815134725 -0.160357456679197
      vertex 0.79854751226011 0.259463815096669 0.160357456533611
    endloop
  endfacet
  facet normal 0.3568220898641364 0.4911234730203281 0.794654472354772
    outer loop
      vertex -1.52914806587402e-10 5.79452312883354e-11 -0.999999999933638
      vertex -0.493529504307398 -0.160357456617091 -0.679285086728967
      vertex -6.91855413448965e-11 -0.518927630260962 -0.679285086867908
    endloop
  endfacet
  facet normal -0.3568220895767483 0.491123472994718 0.7946544724996454
    outer loop
      vertex 0.493529504144845 -0.160357456574943 -0.679285086932804
      vertex -1.52914806587402e-10 5.79452312883354e-11 -0.999999999933638
      vertex -6.91855413448965e-11 -0.518927630260962 -0.679285086867908
    endloop
  endfacet
  facet normal 0.8506508082820452 -0.27639320261126876 0.44721359540983247
    outer loop
      vertex -0.79854751221271 0.259463815208757 0.160357456600545
      vertex -0.305018008075193 0.419821271668656 -0.679285086707993
      vertex -0.493529504024065 0.67928508688719 -0.160357456530111
    endloop
  endfacet
  facet normal 0.8506508083330281 -0.27639320231401576 0.44721359549656964
    outer loop
      vertex -0.798547512227109 -0.259463815021852 -0.160357456632707
      vertex -0.305018008075193 0.419821271668656 -0.679285086707993
      vertex -0.79854751221271 0.259463815208757 0.160357456600545
    endloop
  endfacet
  facet normal 0.8506508083484339 -0.27639320237762877 0.44721359542795097
    outer loop
      vertex -0.305018008075193 0.419821271668656 -0.679285086707993
      vertex -0.798547512227109 -0.259463815021852 -0.160357456632707
      vertex -0.493529504307398 -0.160357456617091 -0.679285086728967
    endloop
  endfacet
  facet normal -0.5773502689380807 -0.1875924741092302 0.7946544724688231
    outer loop
      vertex 0.305018008024305 0.41982127169471 -0.679285086833972
      vertex -1.52914806587402e-10 5.79452312883354e-11 -0.999999999933638
      vertex 0.493529504144845 -0.160357456574943 -0.679285086932804
    endloop
  endfacet
  facet normal 0.577350269299357 -0.18759247422589295 0.7946544721788003
    outer loop
      vertex -1.52914806587402e-10 5.79452312883354e-11 -0.999999999933638
      vertex -0.305018008075193 0.419821271668656 -0.679285086707993
      vertex -0.493529504307398 -0.160357456617091 -0.679285086728967
    endloop
  endfacet
  facet normal -2.5464372349303994e-10 -0.8944271909475708 0.4472135956046481
    outer loop
      vertex -0.305018008075193 0.419821271668656 -0.679285086707993
      vertex 2.4897571061897e-10 0.839642543417127 0.160357456716932
      vertex -0.493529504024065 0.67928508688719 -0.160357456530111
    endloop
  endfacet
  facet normal 1.305544604382217e-10 -0.8944271910035435 0.4472135954927029
    outer loop
      vertex 0.305018008024305 0.41982127169471 -0.679285086833972
      vertex 2.4897571061897e-10 0.839642543417127 0.160357456716932
      vertex -0.305018008075193 0.419821271668656 -0.679285086707993
    endloop
  endfacet
  facet normal -2.7560680636454772e-11 -0.8944271910265189 0.44721359544675193
    outer loop
      vertex 2.4897571061897e-10 0.839642543417127 0.160357456716932
      vertex 0.305018008024305 0.41982127169471 -0.679285086833972
      vertex 0.493529504057866 0.679285086757167 -0.160357456620268
    endloop
  endfacet
  facet normal 1.9003167895775577e-10 -0.6070619982575136 0.7946544722529375
    outer loop
      vertex -0.305018008075193 0.419821271668656 -0.679285086707993
      vertex -1.52914806587402e-10 5.79452312883354e-11 -0.999999999933638
      vertex 0.305018008024305 0.41982127169471 -0.679285086833972
    endloop
  endfacet
endsolid OpenSCAD_Model
