solid OpenSCAD_Model
  facet normal 0.8506508084067641 0.27639320221713515 -0.44721359541619105
    outer loop
      vertex -0.352235988555073 -0.443143809882323 0.670436135868615
      vertex -0.858046198245365 0.25304421816327 0.138595807679709
      vertex -0.545438296821351 0.151471753722061 0.670436135868615
    endloop
  endfacet
  facet normal 0.8506508084067637 0.2763932022171329 -0.4472135954161935
    outer loop
      vertex -0.858046198245365 0.25304421816327 0.138595807679709
      vertex -0.352235988555073 -0.443143809882323 0.670436135868615
      vertex -0.858046198260122 -0.278796110018597 -0.190099591775107
    endloop
  endfacet
  facet normal 0.8506508084067634 0.27639320221713387 -0.44721359541619304
    outer loop
      vertex -0.858046198260122 -0.278796110018597 -0.190099591775107
      vertex -0.352235988555073 -0.443143809882323 0.670436135868615
      vertex -0.545438296797473 -0.709063973972959 0.138595807628552
    endloop
  endfacet
  facet normal -2.3608807595557203e-15 0.8944271910196903 -0.4472135954604092
    outer loop
      vertex -0.03962808707439 -0.873411673667257 -0.190099591796377
      vertex 0.272979814430868 -0.443143809882323 0.670436135868615
      vertex 0.466182122711338 -0.709063973983941 0.138595807606587
    endloop
  endfacet
  facet normal 0 0.8944271910196899 -0.4472135954604098
    outer loop
      vertex 0.272979814430868 -0.443143809882323 0.670436135868615
      vertex -0.03962808707439 -0.873411673667257 -0.190099591796377
      vertex -0.352235988555073 -0.443143809882323 0.670436135868615
    endloop
  endfacet
  facet normal 1.4479857674485507e-15 0.8944271910196901 -0.4472135954604094
    outer loop
      vertex -0.352235988555073 -0.443143809882323 0.670436135868615
      vertex -0.03962808707439 -0.873411673667257 -0.190099591796377
      vertex -0.545438296797473 -0.709063973972959 0.138595807628552
    endloop
  endfacet
  facet normal 1.175966575722511e-17 0.6070619980974095 -0.7946544723752461
    outer loop
      vertex -0.0396280870458963 -0.012875945996074 0.999131535250384
      vertex 0.272979814430868 -0.443143809882323 0.670436135868615
      vertex -0.352235988555073 -0.443143809882323 0.670436135868615
    endloop
  endfacet
  facet normal 0.5773502691408627 0.18759247403484744 -0.7946544723390527
    outer loop
      vertex -0.545438296821351 0.151471753722061 0.670436135868615
      vertex -0.0396280870458963 -0.012875945996074 0.999131535250384
      vertex -0.352235988555073 -0.443143809882323 0.670436135868615
    endloop
  endfacet
  facet normal -0.8506508083956953 0.27639320219650837 -0.44721359544999323
    outer loop
      vertex 0.272979814430868 -0.443143809882323 0.670436135868615
      vertex 0.778790024130733 0.253044218048393 0.13859580761111
      vertex 0.778790024160169 -0.278796110134279 -0.190099591822755
    endloop
  endfacet
  facet normal -0.8506508083642532 0.27639320206667956 -0.44721359559003815
    outer loop
      vertex 0.778790024130733 0.253044218048393 0.13859580761111
      vertex 0.272979814430868 -0.443143809882323 0.670436135868615
      vertex 0.466182122601631 0.151471753722061 0.670436135868615
    endloop
  endfacet
  facet normal -0.850650808395694 0.2763932021965156 -0.44721359544999106
    outer loop
      vertex 0.272979814430868 -0.443143809882323 0.670436135868615
      vertex 0.778790024160169 -0.278796110134279 -0.190099591822755
      vertex 0.466182122711338 -0.709063973983941 0.138595807606587
    endloop
  endfacet
  facet normal -0.5773502692327251 0.18759247397195358 -0.794654472287158
    outer loop
      vertex -0.0396280870458963 -0.012875945996074 0.999131535250384
      vertex 0.466182122601631 0.151471753722061 0.670436135868615
      vertex 0.272979814430868 -0.443143809882323 0.670436135868615
    endloop
  endfacet
  facet normal -0.5257311120987725 0.7236067977037658 0.44721359559866813
    outer loop
      vertex 0.778790024160169 -0.278796110134279 -0.190099591822755
      vertex -0.03962808707439 -0.873411673667257 -0.190099591796377
      vertex 0.466182122711338 -0.709063973983941 0.138595807606587
    endloop
  endfacet
  facet normal -0.5257311120987705 0.7236067977037628 0.4472135955986754
    outer loop
      vertex 0.466182122590953 -0.177223645708129 -0.721939920028191
      vertex -0.03962808707439 -0.873411673667257 -0.190099591796377
      vertex 0.778790024160169 -0.278796110134279 -0.190099591822755
    endloop
  endfacet
  facet normal -0.5257311120987751 0.7236067977037625 0.4472135955986707
    outer loop
      vertex -0.03962808707439 -0.873411673667257 -0.190099591796377
      vertex 0.466182122590953 -0.177223645708129 -0.721939920028191
      vertex -0.0396280871525125 -0.544716274236415 -0.72193991996168
    endloop
  endfacet
  facet normal 0.5257311121928148 0.7236067976134195 0.44721359563429824
    outer loop
      vertex -0.03962808707439 -0.873411673667257 -0.190099591796377
      vertex -0.858046198260122 -0.278796110018597 -0.190099591775107
      vertex -0.545438296797473 -0.709063973972959 0.138595807628552
    endloop
  endfacet
  facet normal 0.5257311122053886 0.7236067977167847 0.4472135954522687
    outer loop
      vertex -0.545438296920761 -0.177223645751326 -0.721939919819281
      vertex -0.03962808707439 -0.873411673667257 -0.190099591796377
      vertex -0.0396280871525125 -0.544716274236415 -0.72193991996168
    endloop
  endfacet
  facet normal 0.5257311122646134 0.7236067977122419 0.4472135953899959
    outer loop
      vertex -0.03962808707439 -0.873411673667257 -0.190099591796377
      vertex -0.545438296920761 -0.177223645751326 -0.721939919819281
      vertex -0.858046198260122 -0.278796110018597 -0.190099591775107
    endloop
  endfacet
  facet normal 0.5257311120339392 -0.7236067978272919 -0.44721359547501505
    outer loop
      vertex -0.0396280868264343 0.847659781565344 0.138595807798992
      vertex -0.545438296821351 0.151471753722061 0.670436135868615
      vertex -0.858046198245365 0.25304421816327 0.138595807679709
    endloop
  endfacet
  facet normal 0.5257311123011839 -0.7236067978067934 -0.44721359519401743
    outer loop
      vertex -0.545438296821351 0.151471753722061 0.670436135868615
      vertex -0.0396280868264343 0.847659781565344 0.138595807798992
      vertex -0.0396280871393737 0.518964382253728 0.670436135868615
    endloop
  endfacet
  facet normal 0.525731112033938 -0.7236067978272901 -0.44721359547501943
    outer loop
      vertex -0.0396280868264343 0.847659781565344 0.138595807798992
      vertex -0.858046198245365 0.25304421816327 0.138595807679709
      vertex -0.545438296630379 0.683312081926783 -0.190099591669958
    endloop
  endfacet
  facet normal 0.3568220897834738 -0.4911234730712096 -0.7946544723595453
    outer loop
      vertex -0.0396280871393737 0.518964382253728 0.670436135868615
      vertex -0.0396280870458963 -0.012875945996074 0.999131535250384
      vertex -0.545438296821351 0.151471753722061 0.670436135868615
    endloop
  endfacet
  facet normal -0.5257311121113264 -0.723606797629921 -0.4472135957033937
    outer loop
      vertex -0.0396280868264343 0.847659781565344 0.138595807798992
      vertex 0.466182122601631 0.151471753722061 0.670436135868615
      vertex -0.0396280871393737 0.518964382253728 0.670436135868615
    endloop
  endfacet
  facet normal -0.5257311123148765 -0.7236067976143081 -0.4472135954893686
    outer loop
      vertex -0.0396280868264343 0.847659781565344 0.138595807798992
      vertex 0.778790024130733 0.253044218048393 0.13859580761111
      vertex 0.466182122601631 0.151471753722061 0.670436135868615
    endloop
  endfacet
  facet normal -0.5257311123945239 -0.7236067977239334 -0.4472135952183596
    outer loop
      vertex 0.778790024130733 0.253044218048393 0.13859580761111
      vertex -0.0396280868264343 0.847659781565344 0.138595807798992
      vertex 0.466182122591084 0.683312081849937 -0.190099591725803
    endloop
  endfacet
  facet normal -0.3568220898046821 -0.4911234731577139 -0.7946544722965596
    outer loop
      vertex -0.0396280870458963 -0.012875945996074 0.999131535250384
      vertex -0.0396280871393737 0.518964382253728 0.670436135868615
      vertex 0.466182122601631 0.151471753722061 0.670436135868615
    endloop
  endfacet
  facet normal -0.7745966692611894 0.3553802835350137 0.5231680934881684
    outer loop
      vertex 0.83218982867304 0.270394866421842 -0.484093694603404
      vertex 0.466182122590953 -0.177223645708129 -0.721939920028191
      vertex 0.778790024160169 -0.278796110134279 -0.190099591822755
    endloop
  endfacet
  facet normal -0.9951248486834869 0.051849284458744704 -0.08389390462830718
    outer loop
      vertex 0.778790024130733 0.253044218048393 0.13859580761111
      vertex 0.83218982867304 0.270394866421842 -0.484093694603404
      vertex 0.778790024160169 -0.278796110134279 -0.190099591822755
    endloop
  endfacet
  facet normal 2.1524765615536553e-10 -1.152772897351805e-10 1
    outer loop
      vertex 0.272979814295875 0.417391917792823 -0.721939919918059
      vertex -0.0396280871525125 -0.544716274236415 -0.72193991996168
      vertex 0.466182122590953 -0.177223645708129 -0.721939920028191
    endloop
  endfacet
  facet normal 1.923590346989253e-10 -1.0784032580552831e-10 1
    outer loop
      vertex -0.352235988716562 0.417391917767382 -0.721939919797793
      vertex -0.0396280871525125 -0.544716274236415 -0.72193991996168
      vertex 0.272979814295875 0.417391917792823 -0.721939919918059
    endloop
  endfacet
  facet normal 2.065188138649586e-10 -1.0323953465907215e-10 1
    outer loop
      vertex -0.0396280871525125 -0.544716274236415 -0.72193991996168
      vertex -0.352235988716562 0.417391917767382 -0.721939919797793
      vertex -0.545438296920761 -0.177223645751326 -0.721939919819281
    endloop
  endfacet
  facet normal 0.8506508083165301 -0.2763932027536628 0.4472135952562339
    outer loop
      vertex -0.858046198245365 0.25304421816327 0.138595807679709
      vertex -0.352235988716562 0.417391917767382 -0.721939919797793
      vertex -0.545438296630379 0.683312081926783 -0.190099591669958
    endloop
  endfacet
  facet normal 0.8506508084019984 -0.2763932022553451 0.447213595401641
    outer loop
      vertex -0.858046198260122 -0.278796110018597 -0.190099591775107
      vertex -0.352235988716562 0.417391917767382 -0.721939919797793
      vertex -0.858046198245365 0.25304421816327 0.138595807679709
    endloop
  endfacet
  facet normal 0.850650808382919 -0.2763932021765633 0.447213595486622
    outer loop
      vertex -0.352235988716562 0.417391917767382 -0.721939919797793
      vertex -0.858046198260122 -0.278796110018597 -0.190099591775107
      vertex -0.545438296920761 -0.177223645751326 -0.721939919819281
    endloop
  endfacet
  facet normal -0.7745966692409804 -0.6268666626558921 -0.08389390473355673
    outer loop
      vertex 0.466182122591084 0.683312081849937 -0.190099591725803
      vertex 0.83218982867304 0.270394866421842 -0.484093694603404
      vertex 0.778790024130733 0.253044218048393 0.13859580761111
    endloop
  endfacet
  facet normal -0.4177745793995811 -0.13574318961769427 0.8983530415598969
    outer loop
      vertex 0.83218982867304 0.270394866421842 -0.484093694603404
      vertex 0.272979814295875 0.417391917792823 -0.721939919918059
      vertex 0.466182122590953 -0.177223645708129 -0.721939920028191
    endloop
  endfacet
  facet normal -2.21635709346048e-10 -0.8944271909678893 0.4472135955640111
    outer loop
      vertex -0.352235988716562 0.417391917767382 -0.721939919797793
      vertex -0.0396280868264343 0.847659781565344 0.138595807798992
      vertex -0.545438296630379 0.683312081926783 -0.190099591669958
    endloop
  endfacet
  facet normal 1.2242117931919785e-10 -0.8944271910178837 0.44721359546402234
    outer loop
      vertex 0.272979814295875 0.417391917792823 -0.721939919918059
      vertex -0.0396280868264343 0.847659781565344 0.138595807798992
      vertex -0.352235988716562 0.417391917767382 -0.721939919797793
    endloop
  endfacet
  facet normal 3.272967411334371e-11 -0.8944271910309166 0.44721359543795647
    outer loop
      vertex -0.0396280868264343 0.847659781565344 0.138595807798992
      vertex 0.272979814295875 0.417391917792823 -0.721939919918059
      vertex 0.466182122591084 0.683312081849937 -0.190099591725803
    endloop
  endfacet
  facet normal -0.4177745793910304 -0.742805187726273 0.5231680933520162
    outer loop
      vertex 0.272979814295875 0.417391917792823 -0.721939919918059
      vertex 0.83218982867304 0.270394866421842 -0.484093694603404
      vertex 0.466182122591084 0.683312081849937 -0.190099591725803
    endloop
  endfacet
endsolid OpenSCAD_Model
