solid OpenSCAD_Model
  facet normal 0.8506508084067645 0.27639320221713415 -0.447213595416191
    outer loop
      vertex -0.320523204791546 -0.402106263908833 0.677608689794352
      vertex -0.8161840562537 0.280112370962389 0.156440028383909
      vertex -0.509848803178246 0.180578013518584 0.677608689794352
    endloop
  endfacet
  facet normal 0.8506508083998717 0.27639320218867364 -0.44721359544689093
    outer loop
      vertex -0.8161840562537 0.280112370962389 0.156440028383909
      vertex -0.320523204791546 -0.402106263908833 0.677608689794352
      vertex -0.81618405625893 -0.241056290606746 -0.165659918313784
    endloop
  endfacet
  facet normal 0.8506508083887198 0.27639320225369535 -0.44721359542791794
    outer loop
      vertex -0.81618405625893 -0.241056290606746 -0.165659918313784
      vertex -0.320523204791546 -0.402106263908833 0.677608689794352
      vertex -0.509848803154847 -0.662690594610315 0.156440028333778
    endloop
  endfacet
  facet normal 1.8571223048454e-16 0.8944271910196899 -0.44721359546041006
    outer loop
      vertex -0.0141879516605588 -0.823740567911962 -0.165659918305121
      vertex 0.29214730149451 -0.402106263908833 0.677608689794352
      vertex 0.481472899895118 -0.662690594621077 0.156440028312254
    endloop
  endfacet
  facet normal 0 0.8944271910196899 -0.4472135954604101
    outer loop
      vertex 0.29214730149451 -0.402106263908833 0.677608689794352
      vertex -0.0141879516605588 -0.823740567911962 -0.165659918305121
      vertex -0.320523204791546 -0.402106263908833 0.677608689794352
    endloop
  endfacet
  facet normal -1.1498684046312445e-17 0.8944271910196898 -0.4472135954604099
    outer loop
      vertex -0.320523204791546 -0.402106263908833 0.677608689794352
      vertex -0.0141879516605588 -0.823740567911962 -0.165659918305121
      vertex -0.509848803154847 -0.662690594610315 0.156440028333778
    endloop
  endfacet
  facet normal -1.4878055385531994e-17 0.6070619980974105 -0.7946544723752456
    outer loop
      vertex -0.0141879516326369 0.0195280401935779 0.999708636390958
      vertex 0.29214730149451 -0.402106263908833 0.677608689794352
      vertex -0.320523204791546 -0.402106263908833 0.677608689794352
    endloop
  endfacet
  facet normal 0.5773502691408633 0.18759247403484686 -0.7946544723390524
    outer loop
      vertex -0.509848803178246 0.180578013518584 0.677608689794352
      vertex -0.0141879516326369 0.0195280401935779 0.999708636390958
      vertex -0.320523204791546 -0.402106263908833 0.677608689794352
    endloop
  endfacet
  facet normal -0.8506508083956954 0.27639320219650865 -0.44721359544999284
    outer loop
      vertex 0.29214730149451 -0.402106263908833 0.677608689794352
      vertex 0.787808152966046 0.280112370849817 0.156440028316686
      vertex 0.787808152994891 -0.241056290554518 -0.16565991833097
    endloop
  endfacet
  facet normal -0.8506508083642531 0.2763932020666792 -0.44721359559003837
    outer loop
      vertex 0.787808152966046 0.280112370849817 0.156440028316686
      vertex 0.29214730149451 -0.402106263908833 0.677608689794352
      vertex 0.481472899787612 0.180578013518584 0.677608689794352
    endloop
  endfacet
  facet normal -0.8506508083956943 0.2763932021965143 -0.44721359544999123
    outer loop
      vertex 0.29214730149451 -0.402106263908833 0.677608689794352
      vertex 0.787808152994891 -0.241056290554518 -0.16565991833097
      vertex 0.481472899895118 -0.662690594621077 0.156440028312254
    endloop
  endfacet
  facet normal -0.5773502692327256 0.18759247397195356 -0.7946544722871578
    outer loop
      vertex -0.0141879516326369 0.0195280401935779 0.999708636390958
      vertex 0.481472899787612 0.180578013518584 0.677608689794352
      vertex 0.29214730149451 -0.402106263908833 0.677608689794352
    endloop
  endfacet
  facet normal -0.5257311120987719 0.7236067977037652 0.4472135955986701
    outer loop
      vertex 0.787808152994891 -0.241056290554518 -0.16565991833097
      vertex -0.0141879516605588 -0.823740567911962 -0.165659918305121
      vertex 0.481472899895118 -0.662690594621077 0.156440028312254
    endloop
  endfacet
  facet normal -0.5257311120987704 0.7236067977037635 0.44721359559867485
    outer loop
      vertex 0.481472899777148 -0.141521933125471 -0.686828579757612
      vertex -0.0141879516605588 -0.823740567911962 -0.165659918305121
      vertex 0.787808152994891 -0.241056290554518 -0.16565991833097
    endloop
  endfacet
  facet normal -0.5257311120987755 0.7236067977037629 0.44721359559866936
    outer loop
      vertex -0.0141879516605588 -0.823740567911962 -0.165659918305121
      vertex 0.481472899777148 -0.141521933125471 -0.686828579757612
      vertex -0.0141879517371138 -0.501640621267269 -0.686828579692436
    endloop
  endfacet
  facet normal 0.2581988898215911 0.9624422819317031 -0.08389390469512074
    outer loop
      vertex -0.542189476354515 -0.707203712358896 -0.453754868710433
      vertex -0.509848803154847 -0.662690594610315 0.156440028333778
      vertex -0.0141879516605588 -0.823740567911962 -0.165659918305121
    endloop
  endfacet
  facet normal -0.09862319985003391 0.8465037569043112 0.5231680934443793
    outer loop
      vertex -0.0141879517371138 -0.501640621267269 -0.686828579692436
      vertex -0.542189476354515 -0.707203712358896 -0.453754868710433
      vertex -0.0141879516605588 -0.823740567911962 -0.165659918305121
    endloop
  endfacet
  facet normal 0.835549158947772 0.5429727578076115 -0.08389390478734246
    outer loop
      vertex -0.542189476354515 -0.707203712358896 -0.453754868710433
      vertex -0.81618405625893 -0.241056290606746 -0.165659918313784
      vertex -0.509848803154847 -0.662690594610315 0.156440028333778
    endloop
  endfacet
  facet normal 0.5257311120339393 -0.7236067978272912 -0.44721359547501605
    outer loop
      vertex -0.0141879514175785 0.862796648191556 0.156440028500799
      vertex -0.509848803178246 0.180578013518584 0.677608689794352
      vertex -0.8161840562537 0.280112370962389 0.156440028383909
    endloop
  endfacet
  facet normal 0.525731112301183 -0.7236067978067928 -0.4472135951940193
    outer loop
      vertex -0.509848803178246 0.180578013518584 0.677608689794352
      vertex -0.0141879514175785 0.862796648191556 0.156440028500799
      vertex -0.0141879517242385 0.540696701663695 0.677608689794352
    endloop
  endfacet
  facet normal 0.525731112033939 -0.7236067978272908 -0.44721359547501727
    outer loop
      vertex -0.0141879514175785 0.862796648191556 0.156440028500799
      vertex -0.8161840562537 0.280112370962389 0.156440028383909
      vertex -0.509848802991106 0.701746674944526 -0.165659918181239
    endloop
  endfacet
  facet normal 0.3568220897834742 -0.4911234730712107 -0.7946544723595446
    outer loop
      vertex -0.0141879517242385 0.540696701663695 0.677608689794352
      vertex -0.0141879516326369 0.0195280401935779 0.999708636390958
      vertex -0.509848803178246 0.180578013518584 0.677608689794352
    endloop
  endfacet
  facet normal -0.5257311121113255 -0.7236067976299205 -0.4472135957033955
    outer loop
      vertex -0.0141879514175785 0.862796648191556 0.156440028500799
      vertex 0.481472899787612 0.180578013518584 0.677608689794352
      vertex -0.0141879517242385 0.540696701663695 0.677608689794352
    endloop
  endfacet
  facet normal -0.5257311123148765 -0.7236067976143076 -0.4472135954893694
    outer loop
      vertex -0.0141879514175785 0.862796648191556 0.156440028500799
      vertex 0.787808152966046 0.280112370849817 0.156440028316686
      vertex 0.481472899787612 0.180578013518584 0.677608689794352
    endloop
  endfacet
  facet normal -0.5257311123945239 -0.723606797723933 -0.44721359521836057
    outer loop
      vertex 0.787808152966046 0.280112370849817 0.156440028316686
      vertex -0.0141879514175785 0.862796648191556 0.156440028500799
      vertex 0.481472899777277 0.701746674869223 -0.165659918235963
    endloop
  endfacet
  facet normal -0.3568220898046825 -0.4911234731577149 -0.7946544722965588
    outer loop
      vertex -0.0141879516326369 0.0195280401935779 0.999708636390958
      vertex -0.0141879517242385 0.540696701663695 0.677608689794352
      vertex 0.481472899787612 0.180578013518584 0.677608689794352
    endloop
  endfacet
  facet normal -0.7745966692611899 0.3553802835350129 0.5231680934881682
    outer loop
      vertex 0.84013646125298 0.297114868983396 -0.453754868803271
      vertex 0.481472899777148 -0.141521933125471 -0.686828579757612
      vertex 0.787808152994891 -0.241056290554518 -0.16565991833097
    endloop
  endfacet
  facet normal -0.9951248486834869 0.05184928445874475 -0.08389390462830633
    outer loop
      vertex 0.787808152966046 0.280112370849817 0.156440028316686
      vertex 0.84013646125298 0.297114868983396 -0.453754868803271
      vertex 0.787808152994891 -0.241056290554518 -0.16565991833097
    endloop
  endfacet
  facet normal 2.1524692538597057e-10 -1.1527726819543358e-10 1
    outer loop
      vertex 0.292147301362225 0.44116234420059 -0.68682857964969
      vertex -0.0141879517371138 -0.501640621267269 -0.686828579692436
      vertex 0.481472899777148 -0.141521933125471 -0.686828579757612
    endloop
  endfacet
  facet normal 1.923596116221284e-10 -1.0784072916086307e-10 1
    outer loop
      vertex -0.320523204949794 0.441162344175661 -0.686828579531837
      vertex -0.0141879517371138 -0.501640621267269 -0.686828579692436
      vertex 0.292147301362225 0.44116234420059 -0.68682857964969
    endloop
  endfacet
  facet normal -1.7614715851353165e-10 -2.2757583700183182e-10 1
    outer loop
      vertex -0.0141879517371138 -0.501640621267269 -0.686828579692436
      vertex -0.320523204949794 0.441162344175661 -0.686828579531837
      vertex -0.509848803202996 -0.14152193319768 -0.686828579697791
    endloop
  endfacet
  facet normal 0.25819888983464045 0.35538028385537007 0.8983530414792592
    outer loop
      vertex -0.509848803202996 -0.14152193319768 -0.686828579697791
      vertex -0.542189476354515 -0.707203712358896 -0.453754868710433
      vertex -0.0141879517371138 -0.501640621267269 -0.686828579692436
    endloop
  endfacet
  facet normal 0.8506508083165306 -0.27639320275366286 0.44721359525623294
    outer loop
      vertex -0.8161840562537 0.280112370962389 0.156440028383909
      vertex -0.320523204949794 0.441162344175661 -0.686828579531837
      vertex -0.509848802991106 0.701746674944526 -0.165659918181239
    endloop
  endfacet
  facet normal 0.8506508084132697 -0.27639320218963065 0.44721359542081535
    outer loop
      vertex -0.81618405625893 -0.241056290606746 -0.165659918313784
      vertex -0.320523204949794 0.441162344175661 -0.686828579531837
      vertex -0.8161840562537 0.280112370962389 0.156440028383909
    endloop
  endfacet
  facet normal 0.8506508084100487 -0.2763932021763311 0.4472135954351615
    outer loop
      vertex -0.320523204949794 0.441162344175661 -0.686828579531837
      vertex -0.81618405625893 -0.241056290606746 -0.165659918313784
      vertex -0.509848803202996 -0.14152193319768 -0.686828579697791
    endloop
  endfacet
  facet normal 0.8355491589614207 0.16778780972676677 0.5231680933179668
    outer loop
      vertex -0.542189476354515 -0.707203712358896 -0.453754868710433
      vertex -0.509848803202996 -0.14152193319768 -0.686828579697791
      vertex -0.81618405625893 -0.241056290606746 -0.165659918313784
    endloop
  endfacet
  facet normal -0.7745966692409808 -0.6268666626558916 -0.08389390473355658
    outer loop
      vertex 0.481472899777277 0.701746674869223 -0.165659918235963
      vertex 0.84013646125298 0.297114868983396 -0.453754868803271
      vertex 0.787808152966046 0.280112370849817 0.156440028316686
    endloop
  endfacet
  facet normal -0.4177745793995813 -0.1357431896176941 0.8983530415598967
    outer loop
      vertex 0.84013646125298 0.297114868983396 -0.453754868803271
      vertex 0.292147301362225 0.44116234420059 -0.68682857964969
      vertex 0.481472899777148 -0.141521933125471 -0.686828579757612
    endloop
  endfacet
  facet normal -2.2163365585429199e-10 -0.89442719096789 0.44721359556400947
    outer loop
      vertex -0.320523204949794 0.441162344175661 -0.686828579531837
      vertex -0.0141879514175785 0.862796648191556 0.156440028500799
      vertex -0.509848802991106 0.701746674944526 -0.165659918181239
    endloop
  endfacet
  facet normal 1.224191779521057e-10 -0.8944271910178839 0.4472135954640219
    outer loop
      vertex 0.292147301362225 0.44116234420059 -0.68682857964969
      vertex -0.0141879514175785 0.862796648191556 0.156440028500799
      vertex -0.320523204949794 0.441162344175661 -0.686828579531837
    endloop
  endfacet
  facet normal 3.273110039874845e-11 -0.8944271910309163 0.447213595437957
    outer loop
      vertex -0.0141879514175785 0.862796648191556 0.156440028500799
      vertex 0.292147301362225 0.44116234420059 -0.68682857964969
      vertex 0.481472899777277 0.701746674869223 -0.165659918235963
    endloop
  endfacet
  facet normal -0.41777457939102947 -0.7428051877262729 0.523168093352017
    outer loop
      vertex 0.292147301362225 0.44116234420059 -0.68682857964969
      vertex 0.84013646125298 0.297114868983396 -0.453754868803271
      vertex 0.481472899777277 0.701746674869223 -0.165659918235963
    endloop
  endfacet
endsolid OpenSCAD_Model
