solid OpenSCAD_Model
  facet normal 0.8506508083453101 0.27639320219716684 0.4472135955454242
    outer loop
      vertex -0.779809594579834 0.202700397304502 0.327976132293093
      vertex 2.59437051294035e-11 -0.0506750992271357 -0.998715191655919
      vertex -0.481948834199606 0.612670562764805 -0.491964198414988
    endloop
  endfacet
  facet normal 0.8506508083453103 0.2763932021971669 0.4472135955454242
    outer loop
      vertex 4.7943778734254e-11 -0.870615430230653 -0.491964198539177
      vertex -0.779809594579834 0.202700397304502 0.327976132293093
      vertex -0.481948834202616 -0.714020761447015 0.327976132293093
    endloop
  endfacet
  facet normal 0.8506508083453101 0.27639320219716695 0.4472135955454243
    outer loop
      vertex -0.779809594579834 0.202700397304502 0.327976132293093
      vertex 4.7943778734254e-11 -0.870615430230653 -0.491964198539177
      vertex 2.59437051294035e-11 -0.0506750992271357 -0.998715191655919
    endloop
  endfacet
  facet normal 0 0.9822469463838895 -0.1875924740481999
    outer loop
      vertex 0.481948834248534 -0.714020761447015 0.327976132293093
      vertex 4.7943778734254e-11 -0.870615430230653 -0.491964198539177
      vertex -0.481948834202616 -0.714020761447015 0.327976132293093
    endloop
  endfacet
  facet normal -6.608437641463788e-18 0.6070619980974097 -0.794654472375246
    outer loop
      vertex 4.7943778734254e-11 -0.0506750993113159 0.834727125440704
      vertex 0.481948834248534 -0.714020761447015 0.327976132293093
      vertex -0.481948834202616 -0.714020761447015 0.327976132293093
    endloop
  endfacet
  facet normal 0.5773502691408633 0.18759247403484722 -0.7946544723390525
    outer loop
      vertex -0.779809594579834 0.202700397304502 0.327976132293093
      vertex 4.7943778734254e-11 -0.0506750993113159 0.834727125440704
      vertex -0.481948834202616 -0.714020761447015 0.327976132293093
    endloop
  endfacet
  facet normal -0.8506508083834523 0.27639320220483576 0.44721359546813416
    outer loop
      vertex 2.59437051294035e-11 -0.0506750992271357 -0.998715191655919
      vertex 0.779809594478497 0.202700397304502 0.327976132293093
      vertex 0.481948834229365 0.612670562694122 -0.491964198296085
    endloop
  endfacet
  facet normal -0.8506508083981407 0.2763932021191952 0.4472135954931238
    outer loop
      vertex 4.7943778734254e-11 -0.870615430230653 -0.491964198539177
      vertex 0.779809594478497 0.202700397304502 0.327976132293093
      vertex 2.59437051294035e-11 -0.0506750992271357 -0.998715191655919
    endloop
  endfacet
  facet normal -0.8506508083872306 0.2763932020741457 0.44721359554171825
    outer loop
      vertex 0.779809594478497 0.202700397304502 0.327976132293093
      vertex 4.7943778734254e-11 -0.870615430230653 -0.491964198539177
      vertex 0.481948834248534 -0.714020761447015 0.327976132293093
    endloop
  endfacet
  facet normal -1.4254186558828813e-10 -0.6070619983164788 0.7946544722078921
    outer loop
      vertex 0.481948834229365 0.612670562694122 -0.491964198296085
      vertex -0.481948834199606 0.612670562764805 -0.491964198414988
      vertex 2.59437051294035e-11 -0.0506750992271357 -0.998715191655919
    endloop
  endfacet
  facet normal 0.5773502692904474 -0.7946544722177565 -0.18759247408829213
    outer loop
      vertex -9.61705563577439e-11 0.769265231595203 0.327976132293093
      vertex -0.779809594579834 0.202700397304502 0.327976132293093
      vertex -0.481948834199606 0.612670562764805 -0.491964198414988
    endloop
  endfacet
  facet normal -9.516931758603156e-11 -0.982246946358025 0.18759247418362832
    outer loop
      vertex 0.481948834229365 0.612670562694122 -0.491964198296085
      vertex -9.61705563577439e-11 0.769265231595203 0.327976132293093
      vertex -0.481948834199606 0.612670562764805 -0.491964198414988
    endloop
  endfacet
  facet normal 0.3568220897834736 -0.49112347307121046 -0.794654472359545
    outer loop
      vertex -9.61705563577439e-11 0.769265231595203 0.327976132293093
      vertex 4.7943778734254e-11 -0.0506750993113159 0.834727125440704
      vertex -0.779809594579834 0.202700397304502 0.327976132293093
    endloop
  endfacet
  facet normal -0.5773502692327249 0.18759247397195372 -0.7946544722871582
    outer loop
      vertex 4.7943778734254e-11 -0.0506750993113159 0.834727125440704
      vertex 0.779809594478497 0.202700397304502 0.327976132293093
      vertex 0.481948834248534 -0.714020761447015 0.327976132293093
    endloop
  endfacet
  facet normal -0.5773502692373539 -0.7946544722374159 -0.18759247416841915
    outer loop
      vertex -9.61705563577439e-11 0.769265231595203 0.327976132293093
      vertex 0.481948834229365 0.612670562694122 -0.491964198296085
      vertex 0.779809594478497 0.202700397304502 0.327976132293093
    endloop
  endfacet
  facet normal -0.35682208980468133 -0.49112347315771476 -0.7946544722965595
    outer loop
      vertex 4.7943778734254e-11 -0.0506750993113159 0.834727125440704
      vertex -9.61705563577439e-11 0.769265231595203 0.327976132293093
      vertex 0.779809594478497 0.202700397304502 0.327976132293093
    endloop
  endfacet
endsolid OpenSCAD_Model
