solid OpenSCAD_Model
  facet normal 0 0.9822469463838893 -0.18759247404820073
    outer loop
      vertex 0.500516800935184 -0.747377221218932 0.436932742098112
      vertex 1.08379744982727e-11 -0.910004988109168 -0.414597300541663
      vertex -0.500516800965404 -0.747377221218932 0.436932742098112
    endloop
  endfacet
  facet normal 0 0 -1
    outer loop
      vertex 0.500516800935184 -0.747377221218932 0.436932742098112
      vertex 6.13521000218055e-11 0.793055097192474 0.436932742098112
      vertex 0.80985319589703 0.204662308887921 0.436932742098112
    endloop
  endfacet
  facet normal 0 0 -1
    outer loop
      vertex -0.500516800965404 -0.747377221218932 0.436932742098112
      vertex 6.13521000218055e-11 0.793055097192474 0.436932742098112
      vertex 0.500516800935184 -0.747377221218932 0.436932742098112
    endloop
  endfacet
  facet normal 0 0 -1
    outer loop
      vertex 6.13521000218055e-11 0.793055097192474 0.436932742098112
      vertex -0.500516800965404 -0.747377221218932 0.436932742098112
      vertex -0.809853195879991 0.204662309033359 0.436932742098112
    endloop
  endfacet
  facet normal 0.8506508083453103 0.2763932021971663 0.4472135955454246
    outer loop
      vertex -0.809853195879991 0.204662309033359 0.436932742098112
      vertex -1.20096924725678e-11 -0.0584749452915478 -0.940871809247004
      vertex -0.500516800962277 0.630427330399116 -0.41459730041269
    endloop
  endfacet
  facet normal 0.8506508083453101 0.27639320219716723 0.44721359554542417
    outer loop
      vertex 1.08379744982727e-11 -0.910004988109168 -0.414597300541663
      vertex -0.809853195879991 0.204662309033359 0.436932742098112
      vertex -0.500516800965404 -0.747377221218932 0.436932742098112
    endloop
  endfacet
  facet normal 0.8506508083453101 0.27639320219716706 0.44721359554542445
    outer loop
      vertex -0.809853195879991 0.204662309033359 0.436932742098112
      vertex 1.08379744982727e-11 -0.910004988109168 -0.414597300541663
      vertex -1.20096924725678e-11 -0.0584749452915478 -0.940871809247004
    endloop
  endfacet
  facet normal -0.8506508083475339 0.276393202056524 0.44721359562811674
    outer loop
      vertex -1.20096924725678e-11 -0.0584749452915478 -0.940871809247004
      vertex 0.80985319589703 0.204662308887921 0.436932742098112
      vertex 0.500516800915278 0.630427330325711 -0.414597300289205
    endloop
  endfacet
  facet normal -0.8506508083263041 0.2763932021803031 0.44721359559199847
    outer loop
      vertex 1.08379744982727e-11 -0.910004988109168 -0.414597300541663
      vertex 0.80985319589703 0.204662308887921 0.436932742098112
      vertex -1.20096924725678e-11 -0.0584749452915478 -0.940871809247004
    endloop
  endfacet
  facet normal -0.8506508083513126 0.2763932022835666 0.4472135954806093
    outer loop
      vertex 0.80985319589703 0.204662308887921 0.436932742098112
      vertex 1.08379744982727e-11 -0.910004988109168 -0.414597300541663
      vertex 0.500516800935184 -0.747377221218932 0.436932742098112
    endloop
  endfacet
  facet normal -1.4254199812000019e-10 -0.6070619983164787 0.7946544722078922
    outer loop
      vertex 0.500516800915278 0.630427330325711 -0.414597300289205
      vertex -0.500516800962277 0.630427330399116 -0.41459730041269
      vertex -1.20096924725678e-11 -0.0584749452915478 -0.940871809247004
    endloop
  endfacet
  facet normal 0.5773502690889379 -0.7946544723332492 -0.1875924742192401
    outer loop
      vertex 6.13521000218055e-11 0.793055097192474 0.436932742098112
      vertex -0.809853195879991 0.204662309033359 0.436932742098112
      vertex -0.500516800962277 0.630427330399116 -0.41459730041269
    endloop
  endfacet
  facet normal -9.516838627867636e-11 -0.9822469463889377 0.18759247402176674
    outer loop
      vertex 0.500516800915278 0.630427330325711 -0.414597300289205
      vertex 6.13521000218055e-11 0.793055097192474 0.436932742098112
      vertex -0.500516800962277 0.630427330399116 -0.41459730041269
    endloop
  endfacet
  facet normal -0.5773502692373509 -0.7946544722374185 -0.18759247416841732
    outer loop
      vertex 6.13521000218055e-11 0.793055097192474 0.436932742098112
      vertex 0.500516800915278 0.630427330325711 -0.414597300289205
      vertex 0.80985319589703 0.204662308887921 0.436932742098112
    endloop
  endfacet
endsolid OpenSCAD_Model
