solid OpenSCAD_Model
  facet normal 0 0 -1
    outer loop
      vertex 0.340470637692994 -0.39925597108531 0.276374725012181
      vertex 4.15851095073629e-11 0.648604905498083 0.276374725012181
      vertex 0.550893063988322 0.248357666097143 0.276374725012181
    endloop
  endfacet
  facet normal 0 0 -1
    outer loop
      vertex -0.340470637713848 -0.39925597108531 0.276374725012181
      vertex 4.15851095073629e-11 0.648604905498083 0.276374725012181
      vertex 0.340470637692994 -0.39925597108531 0.276374725012181
    endloop
  endfacet
  facet normal 0 0 -1
    outer loop
      vertex 4.15851095073629e-11 0.648604905498083 0.276374725012181
      vertex -0.340470637713848 -0.39925597108531 0.276374725012181
      vertex -0.550893063977029 0.248357666196075 0.276374725012181
    endloop
  endfacet
  facet normal 0.8506508083453103 0.2763932021971666 0.4472135955454242
    outer loop
      vertex -0.550893063977029 0.248357666196075 0.276374725012181
      vertex -8.31838269550085e-12 0.069361659242004 -0.660860535295761
      vertex -0.340470637711721 0.537979289408292 -0.302868521262115
    endloop
  endfacet
  facet normal 0.8506508083453103 0.2763932021971665 0.44721359554542467
    outer loop
      vertex 7.22347270041816e-12 -0.509881587241001 -0.302868521349847
      vertex -0.550893063977029 0.248357666196075 0.276374725012181
      vertex -0.340470637713848 -0.39925597108531 0.276374725012181
    endloop
  endfacet
  facet normal 0.8506508083453103 0.2763932021971667 0.44721359554542417
    outer loop
      vertex -0.550893063977029 0.248357666196075 0.276374725012181
      vertex 7.22347270041816e-12 -0.509881587241001 -0.302868521349847
      vertex -8.31838269550085e-12 0.069361659242004 -0.660860535295761
    endloop
  endfacet
  facet normal 0.8164965809086541 0.4158475891500151 0.4005048263911409
    outer loop
      vertex 1.34007971917668e-12 -0.982246946388333 0.187592474024934
      vertex 7.22347270041816e-12 -0.509881587241001 -0.302868521349847
      vertex -0.340470637713848 -0.39925597108531 0.276374725012181
    endloop
  endfacet
  facet normal 0 0.1505517681507133 -0.9886021267965661
    outer loop
      vertex 0.340470637692994 -0.39925597108531 0.276374725012181
      vertex 1.34007971917668e-12 -0.982246946388333 0.187592474024934
      vertex -0.340470637713848 -0.39925597108531 0.276374725012181
    endloop
  endfacet
  facet normal -0.8506508083475337 0.2763932020565258 0.4472135956281159
    outer loop
      vertex -8.31838269550085e-12 0.069361659242004 -0.660860535295761
      vertex 0.550893063988322 0.248357666097143 0.276374725012181
      vertex 0.340470637679453 0.537979289358358 -0.302868521178116
    endloop
  endfacet
  facet normal -0.8506508083263042 0.2763932021803031 0.4472135955919983
    outer loop
      vertex 7.22347270041816e-12 -0.509881587241001 -0.302868521349847
      vertex 0.550893063988322 0.248357666097143 0.276374725012181
      vertex -8.31838269550085e-12 0.069361659242004 -0.660860535295761
    endloop
  endfacet
  facet normal -0.8506508083513123 0.27639320228356534 0.44721359548061046
    outer loop
      vertex 0.550893063988322 0.248357666097143 0.276374725012181
      vertex 7.22347270041816e-12 -0.509881587241001 -0.302868521349847
      vertex 0.340470637692994 -0.39925597108531 0.276374725012181
    endloop
  endfacet
  facet normal -0.8164965809321699 0.415847589135849 0.4005048263579087
    outer loop
      vertex 1.34007971917668e-12 -0.982246946388333 0.187592474024934
      vertex 0.340470637692994 -0.39925597108531 0.276374725012181
      vertex 7.22347270041816e-12 -0.509881587241001 -0.302868521349847
    endloop
  endfacet
  facet normal -1.4254263204701684e-10 -0.6070619983164781 0.7946544722078926
    outer loop
      vertex 0.340470637679453 0.537979289358358 -0.302868521178116
      vertex -0.340470637711721 0.537979289408292 -0.302868521262115
      vertex -8.31838269550085e-12 0.069361659242004 -0.660860535295761
    endloop
  endfacet
  facet normal 0.5773502690889385 -0.7946544723332486 -0.18759247421924102
    outer loop
      vertex 4.15851095073629e-11 0.648604905498083 0.276374725012181
      vertex -0.550893063977029 0.248357666196075 0.276374725012181
      vertex -0.340470637711721 0.537979289408292 -0.302868521262115
    endloop
  endfacet
  facet normal -9.516979455070873e-11 -0.9822469463889377 0.18759247402176676
    outer loop
      vertex 0.340470637679453 0.537979289358358 -0.302868521178116
      vertex 4.15851095073629e-11 0.648604905498083 0.276374725012181
      vertex -0.340470637711721 0.537979289408292 -0.302868521262115
    endloop
  endfacet
  facet normal -0.5773502692373509 -0.7946544722374187 -0.1875924741684167
    outer loop
      vertex 4.15851095073629e-11 0.648604905498083 0.276374725012181
      vertex 0.340470637679453 0.537979289358358 -0.302868521178116
      vertex 0.550893063988322 0.248357666097143 0.276374725012181
    endloop
  endfacet
endsolid OpenSCAD_Model
