solid OpenSCAD_Model
  facet normal 0 0 -1
    outer loop
      vertex 0.350070021038012 -0.417700243210174 0.495440357100906
      vertex 0.350070021092455 0.794977882011855 0.495440357100906
      vertex 0.70014004207179 0.188638819385125 0.495440357100906
    endloop
  endfacet
  facet normal 0 0 -1
    outer loop
      vertex -0.350070020993249 -0.417700243210174 0.495440357100906
      vertex 0.350070021092455 0.794977882011855 0.495440357100906
      vertex 0.350070021038012 -0.417700243210174 0.495440357100906
    endloop
  endfacet
  facet normal 0 0 -1
    outer loop
      vertex -0.350070020993249 -0.417700243210174 0.495440357100906
      vertex -0.350070020938804 0.794977882074728 0.495440357100906
      vertex 0.350070021092455 0.794977882011855 0.495440357100906
    endloop
  endfacet
  facet normal 0 0 -1
    outer loop
      vertex -0.350070020938804 0.794977882074728 0.495440357100906
      vertex -0.350070020993249 -0.417700243210174 0.495440357100906
      vertex -0.700140042027028 0.18863881951086 0.495440357100906
    endloop
  endfacet
  facet normal 0.8164965809794612 0.4714045207557317 -0.33333333325653025
    outer loop
      vertex -0.700140041972583 -0.215587222264743 -0.0762215933980912
      vertex -0.700140042027028 0.18863881951086 0.495440357100906
      vertex -0.350070020993249 -0.417700243210174 0.495440357100906
    endloop
  endfacet
  facet normal 0.7071067811849296 0.680413817485848 -0.19245008957291587
    outer loop
      vertex -5.02112586642827e-11 -0.889297291732666 0.114332390018946
      vertex -0.700140041972583 -0.215587222264743 -0.0762215933980912
      vertex -0.350070020993249 -0.417700243210174 0.495440357100906
    endloop
  endfacet
  facet normal 0.7071067811849298 0.6804138174905526 -0.19245008955628182
    outer loop
      vertex -0.700140041972583 -0.215587222264743 -0.0762215933980912
      vertex -5.02112586642827e-11 -0.889297291732666 0.114332390018946
      vertex -0.350070020961809 -0.687184270819355 -0.457329560389203
    endloop
  endfacet
  facet normal 0 0.6285393612814976 -0.7777777775945048
    outer loop
      vertex 0.350070021038012 -0.417700243210174 0.495440357100906
      vertex -5.02112586642827e-11 -0.889297291732666 0.114332390018946
      vertex -0.350070020993249 -0.417700243210174 0.495440357100906
    endloop
  endfacet
  facet normal 0.816496580857178 -0.4714045208806375 0.33333333337941795
    outer loop
      vertex -0.700140042027028 0.18863881951086 0.495440357100906
      vertex 1.13123011481315e-10 0.997090902852509 -0.0762215933980912
      vertex -0.350070020938804 0.794977882074728 0.495440357100906
    endloop
  endfacet
  facet normal 0.816496580857178 -0.4714045208806387 0.33333333337941623
    outer loop
      vertex 1.13123011481315e-10 0.997090902852509 -0.0762215933980912
      vertex -0.700140042027028 0.18863881951086 0.495440357100906
      vertex 1.04049220037941e-10 0.592864861134534 -0.647883543867451
    endloop
  endfacet
  facet normal 0.8164965808901 -0.47140452078560147 0.3333333334331774
    outer loop
      vertex -0.700140041972583 -0.215587222264743 -0.0762215933980912
      vertex 1.04049220037941e-10 0.592864861134534 -0.647883543867451
      vertex -0.700140042027028 0.18863881951086 0.495440357100906
    endloop
  endfacet
  facet normal 0.8164965808901 -0.47140452106255765 0.33333333304150214
    outer loop
      vertex 1.04049220037941e-10 0.592864861134534 -0.647883543867451
      vertex -0.700140041972583 -0.215587222264743 -0.0762215933980912
      vertex -0.350070021047688 -0.0134742013297925 -0.647883543867444
    endloop
  endfacet
  facet normal -8.466471372897465e-11 -0.9428090416146478 -0.3333333332411704
    outer loop
      vertex 1.13123011481315e-10 0.997090902852509 -0.0762215933980912
      vertex 0.350070021092455 0.794977882011855 0.495440357100906
      vertex -0.350070020938804 0.794977882074728 0.495440357100906
    endloop
  endfacet
  facet normal -0.8164965809559456 -0.47140452075437306 0.33333333331605297
    outer loop
      vertex 0.70014004207179 0.188638819385125 0.495440357100906
      vertex 1.13123011481315e-10 0.997090902852509 -0.0762215933980912
      vertex 1.04049220037941e-10 0.592864861134534 -0.647883543867451
    endloop
  endfacet
  facet normal -0.8164965809559455 -0.47140452074215816 0.33333333333332743
    outer loop
      vertex 1.13123011481315e-10 0.997090902852509 -0.0762215933980912
      vertex 0.70014004207179 0.188638819385125 0.495440357100906
      vertex 0.350070021092455 0.794977882011855 0.495440357100906
    endloop
  endfacet
  facet normal -0.8164965809959207 -0.47140452061046223 0.33333333342165494
    outer loop
      vertex 0.700140041908461 -0.215587222264744 -0.0762215933980898
      vertex 1.04049220037941e-10 0.592864861134534 -0.647883543867451
      vertex 0.350070020874682 -0.0134742013297918 -0.647883543867451
    endloop
  endfacet
  facet normal -0.8164965809959207 -0.47140452063897476 0.33333333338133214
    outer loop
      vertex 1.04049220037941e-10 0.592864861134534 -0.647883543867451
      vertex 0.700140041908461 -0.215587222264744 -0.0762215933980898
      vertex 0.70014004207179 0.188638819385125 0.495440357100906
    endloop
  endfacet
  facet normal -0.8164965809935688 0.47140452086162954 -0.33333333307221175
    outer loop
      vertex 0.700140041908461 -0.215587222264744 -0.0762215933980898
      vertex 0.350070021038012 -0.417700243210174 0.495440357100906
      vertex 0.70014004207179 0.188638819385125 0.495440357100906
    endloop
  endfacet
  facet normal -0.7071067811665981 0.6804138175528707 -0.19245008940330907
    outer loop
      vertex -5.02112586642827e-11 -0.889297291732666 0.114332390018946
      vertex 0.700140041908461 -0.215587222264744 -0.0762215933980898
      vertex 0.350070020788801 -0.687184270808169 -0.457329560438563
    endloop
  endfacet
  facet normal -0.7071067811665981 0.6804138175528697 -0.1924500894033127
    outer loop
      vertex 0.700140041908461 -0.215587222264744 -0.0762215933980898
      vertex -5.02112586642827e-11 -0.889297291732666 0.114332390018946
      vertex 0.350070021038012 -0.417700243210174 0.495440357100906
    endloop
  endfacet
  facet normal 0.8164965809438793 0.15713484035562394 0.5555555555058087
    outer loop
      vertex -0.350070020961809 -0.687184270819355 -0.457329560389203
      vertex -0.350070021047688 -0.0134742013297925 -0.647883543867444
      vertex -0.700140041972583 -0.215587222264743 -0.0762215933980912
    endloop
  endfacet
  facet normal -0.8164965808714467 0.15713484034823824 0.5555555556143515
    outer loop
      vertex 0.350070020874682 -0.0134742013297918 -0.647883543867451
      vertex 0.350070020788801 -0.687184270808169 -0.457329560438563
      vertex 0.700140041908461 -0.215587222264744 -0.0762215933980898
    endloop
  endfacet
  facet normal 9.990008621609456e-15 5.767734164201869e-15 1
    outer loop
      vertex 0.350070020874682 -0.0134742013297918 -0.647883543867451
      vertex 1.04049220037941e-10 0.592864861134534 -0.647883543867451
      vertex -0.350070021047688 -0.0134742013297925 -0.647883543867444
    endloop
  endfacet
  facet normal 9.340457210856447e-15 0.27216552691793044 0.962250448665775
    outer loop
      vertex -0.350070021047688 -0.0134742013297925 -0.647883543867444
      vertex 0.350070020788801 -0.687184270808169 -0.457329560438563
      vertex 0.350070020874682 -0.0134742013297918 -0.647883543867451
    endloop
  endfacet
  facet normal 6.349046476788057e-11 0.2721655269790152 0.9622504486484976
    outer loop
      vertex 0.350070020788801 -0.687184270808169 -0.457329560438563
      vertex -0.350070021047688 -0.0134742013297925 -0.647883543867444
      vertex -0.350070020961809 -0.687184270819355 -0.457329560389203
    endloop
  endfacet
  facet normal 8.437046117721742e-12 0.9428090415456714 0.33333333343626564
    outer loop
      vertex 0.350070020788801 -0.687184270808169 -0.457329560438563
      vertex -0.350070020961809 -0.687184270819355 -0.457329560389203
      vertex -5.02112586642827e-11 -0.889297291732666 0.114332390018946
    endloop
  endfacet
endsolid OpenSCAD_Model
