solid OpenSCAD_Model
  facet normal 0 0.8164965808788218 -0.5773502692587866
    outer loop
      vertex 0.351135723100964 -0.513382060159438 0.611306386874287
      vertex 0.0979243268905286 -0.766593456445551 0.253211396163382
      vertex -0.155287069346161 -0.513382060159438 0.611306386874287
    endloop
  endfacet
  facet normal 0 0 -1
    outer loop
      vertex 0.351135723100964 -0.513382060159438 0.611306386874287
      vertex 0.709230713818531 0.351135722966437 0.611306386874287
      vertex 0.709230713795792 -0.155287069480687 0.611306386874287
    endloop
  endfacet
  facet normal 0 0 -1
    outer loop
      vertex 0.351135723100964 -0.513382060159438 0.611306386874287
      vertex 0.351135723155855 0.709230713677344 0.611306386874287
      vertex 0.709230713818531 0.351135722966437 0.611306386874287
    endloop
  endfacet
  facet normal 0 0 -1
    outer loop
      vertex -0.155287069346161 -0.513382060159438 0.611306386874287
      vertex 0.351135723155855 0.709230713677344 0.611306386874287
      vertex 0.351135723100964 -0.513382060159438 0.611306386874287
    endloop
  endfacet
  facet normal 0 0 -1
    outer loop
      vertex -0.155287069346161 -0.513382060159438 0.611306386874287
      vertex -0.15528706929127 0.70923071372282 0.611306386874287
      vertex 0.351135723155855 0.709230713677344 0.611306386874287
    endloop
  endfacet
  facet normal 0 0 -1
    outer loop
      vertex -0.513382060086463 -0.155287069370904 0.611306386874287
      vertex -0.15528706929127 0.70923071372282 0.611306386874287
      vertex -0.155287069346161 -0.513382060159438 0.611306386874287
    endloop
  endfacet
  facet normal 0 0 -1
    outer loop
      vertex -0.15528706929127 0.70923071372282 0.611306386874287
      vertex -0.513382060086463 -0.155287069370904 0.611306386874287
      vertex -0.513382060018253 0.351135723076219 0.611306386874287
    endloop
  endfacet
  facet normal 0.40824829056870365 0.40824829051371647 -0.8164965808503789
    outer loop
      vertex -0.587545960896831 -0.587545960725823 0.358094990731741
      vertex -0.513382060086463 -0.155287069370904 0.611306386874287
      vertex -0.155287069346161 -0.513382060159438 0.611306386874287
    endloop
  endfacet
  facet normal 0.1464466098327964 0.8535533906207895 -0.4999999998282344
    outer loop
      vertex -0.334334564884701 -0.840757356970078 2.65219787029617e-11
      vertex -0.155287069346161 -0.513382060159438 0.611306386874287
      vertex 0.0979243268905286 -0.766593456445551 0.253211396163382
    endloop
  endfacet
  facet normal 0.14644660983279895 0.853553390620789 -0.4999999998282348
    outer loop
      vertex -0.155287069346161 -0.513382060159438 0.611306386874287
      vertex -0.334334564884701 -0.840757356970078 2.65219787029617e-11
      vertex -0.587545960896831 -0.587545960725823 0.358094990731741
    endloop
  endfacet
  facet normal 0.8164965807119393 -1.0997376870029962e-10 -0.5773502694947943
    outer loop
      vertex -0.766593456416104 0.097924326977525 0.253211396273164
      vertex -0.513382060018253 0.351135723076219 0.611306386874287
      vertex -0.513382060086463 -0.155287069370904 0.611306386874287
    endloop
  endfacet
  facet normal 0.8535533904817775 0.14644660953279928 -0.5000000001534102
    outer loop
      vertex -0.513382060086463 -0.155287069370904 0.611306386874287
      vertex -0.840757357263893 -0.334334564586987 9.08276482636115e-11
      vertex -0.766593456416104 0.097924326977525 0.253211396273164
    endloop
  endfacet
  facet normal 0.8535533904519392 0.14644660964703318 -0.5000000001708891
    outer loop
      vertex -0.840757357263893 -0.334334564586987 9.08276482636115e-11
      vertex -0.513382060086463 -0.155287069370904 0.611306386874287
      vertex -0.587545960896831 -0.587545960725823 0.358094990731741
    endloop
  endfacet
  facet normal 0.7071067809880487 -0.7071067813850465 -7.173314027710546e-11
    outer loop
      vertex -0.766593456416104 0.097924326977525 0.253211396273164
      vertex 0.0979243269681566 0.962442109876411 0.253211396163381
      vertex -0.15528706929127 0.70923071372282 0.611306386874287
    endloop
  endfacet
  facet normal 0.7071067809880486 -0.7071067813850465 9.673333206395012e-11
    outer loop
      vertex 0.0979243269681566 0.962442109876411 0.253211396163381
      vertex -0.766593456416104 0.097924326977525 0.253211396273164
      vertex 0.0979243270141661 0.962442109853141 -0.253211396267666
    endloop
  endfacet
  facet normal 0.707106781107185 -0.7071067812659101 -4.784901367380046e-10
    outer loop
      vertex -0.766593456416104 0.097924326977525 0.253211396273164
      vertex -0.15528706929127 0.70923071372282 0.611306386874287
      vertex -0.513382060018253 0.351135723076219 0.611306386874287
    endloop
  endfacet
  facet normal 0.7071067808830741 -0.707106781490021 -2.616722561312497e-10
    outer loop
      vertex -0.76659345652064 0.097924327060396 -0.253211396064181
      vertex 0.0979243270141661 0.962442109853141 -0.253211396267666
      vertex -0.766593456416104 0.097924326977525 0.253211396273164
    endloop
  endfacet
  facet normal 0.7071067808830741 -0.7071067814900209 4.1367926513182043e-10
    outer loop
      vertex 0.0979243270141661 0.962442109853141 -0.253211396267666
      vertex -0.76659345652064 0.097924327060396 -0.253211396064181
      vertex -0.155287069207638 0.709230713639185 -0.611306386962495
    endloop
  endfacet
  facet normal 0.7071067811071811 -0.707106781265914 1.1788281993104808e-9
    outer loop
      vertex -0.155287069207638 0.709230713639185 -0.611306386962495
      vertex -0.76659345652064 0.097924327060396 -0.253211396064181
      vertex -0.513382059934621 0.351135722992588 -0.611306386985233
    endloop
  endfacet
  facet normal -7.332008078282893e-11 -0.8164965809968247 -0.5773502690919058
    outer loop
      vertex 0.0979243269681566 0.962442109876411 0.253211396163381
      vertex 0.351135723155855 0.709230713677344 0.611306386874287
      vertex -0.15528706929127 0.70923071372282 0.611306386874287
    endloop
  endfacet
  facet normal -0.7071067812825377 -0.7071067810905575 2.6188205006736824e-10
    outer loop
      vertex 0.96244210996022 0.0979243266723698 -0.253211396267666
      vertex 0.0979243270141661 0.962442109853141 -0.253211396267666
      vertex 0.351135723072224 0.709230713593713 -0.611306386985233
    endloop
  endfacet
  facet normal -0.7071067812825376 -0.7071067810905575 -3.1750737704137315e-11
    outer loop
      vertex 0.0979243270141661 0.962442109853141 -0.253211396267666
      vertex 0.96244210996022 0.0979243266723698 -0.253211396267666
      vertex 0.0979243269681566 0.962442109876411 0.253211396163381
    endloop
  endfacet
  facet normal -0.7071067812341669 -0.7071067811389283 9.673386233015838e-11
    outer loop
      vertex 0.96244210996022 0.0979243266723698 -0.253211396267666
      vertex 0.351135723072224 0.709230713593713 -0.611306386985233
      vertex 0.7092307137349 0.351135722882806 -0.611306386962495
    endloop
  endfacet
  facet normal -0.7071067812449038 -0.7071067811281913 9.673920337508504e-11
    outer loop
      vertex 0.96244210998349 0.0979243267183834 0.253211396163381
      vertex 0.0979243269681566 0.962442109876411 0.253211396163381
      vertex 0.96244210996022 0.0979243266723698 -0.253211396267666
    endloop
  endfacet
  facet normal -0.7071067812449037 -0.7071067811281913 6.007940061432748e-11
    outer loop
      vertex 0.0979243269681566 0.962442109876411 0.253211396163381
      vertex 0.96244210998349 0.0979243267183834 0.253211396163381
      vertex 0.351135723155855 0.709230713677344 0.611306386874287
    endloop
  endfacet
  facet normal -0.7071067812341668 -0.7071067811389283 9.673772182739723e-11
    outer loop
      vertex 0.351135723155855 0.709230713677344 0.611306386874287
      vertex 0.96244210998349 0.0979243267183834 0.253211396163381
      vertex 0.709230713818531 0.351135722966437 0.611306386874287
    endloop
  endfacet
  facet normal -0.816496580996825 3.666174721304567e-11 -0.5773502690919051
    outer loop
      vertex 0.96244210998349 0.0979243267183834 0.253211396163381
      vertex 0.709230713795792 -0.155287069480687 0.611306386874287
      vertex 0.709230713818531 0.351135722966437 0.611306386874287
    endloop
  endfacet
  facet normal -0.7071067811033269 0.7071067812697681 1.607558440392495e-10
    outer loop
      vertex 0.097924326753836 -0.766593456330521 -0.253211396173963
      vertex 0.96244210996022 0.0979243266723698 -0.253211396267666
      vertex 0.709230713681741 -0.155287069465097 -0.611306387009232
    endloop
  endfacet
  facet normal -0.7071067811033269 0.7071067812697682 -3.1756298971334493e-11
    outer loop
      vertex 0.96244210996022 0.0979243266723698 -0.253211396267666
      vertex 0.097924326753836 -0.766593456330521 -0.253211396173963
      vertex 0.96244210998349 0.0979243267183834 0.253211396163381
    endloop
  endfacet
  facet normal -0.7071067811082394 0.7071067812648555 1.439833398850749e-10
    outer loop
      vertex 0.097924326753836 -0.766593456330521 -0.253211396173963
      vertex 0.709230713681741 -0.155287069465097 -0.611306387009232
      vertex 0.351135722978375 -0.513382060089149 -0.611306387004102
    endloop
  endfacet
  facet normal -0.7071067812155727 0.7071067811575223 3.5147460006579286e-10
    outer loop
      vertex 0.0979243268905286 -0.766593456445551 0.253211396163382
      vertex 0.96244210998349 0.0979243267183834 0.253211396163381
      vertex 0.097924326753836 -0.766593456330521 -0.253211396173963
    endloop
  endfacet
  facet normal -0.7071067812155727 0.7071067811575223 -1.8591487242424403e-11
    outer loop
      vertex 0.96244210998349 0.0979243267183834 0.253211396163381
      vertex 0.0979243268905286 -0.766593456445551 0.253211396163382
      vertex 0.709230713795792 -0.155287069480687 0.611306386874287
    endloop
  endfacet
  facet normal -0.7071067811706745 0.7071067812024207 -1.718836070578609e-10
    outer loop
      vertex 0.709230713795792 -0.155287069480687 0.611306386874287
      vertex 0.0979243268905286 -0.766593456445551 0.253211396163382
      vertex 0.351135723100964 -0.513382060159438 0.611306386874287
    endloop
  endfacet
  facet normal -0.16910197801226648 0.9855985597759054 2.6951468114273667e-10
    outer loop
      vertex 0.097924326753836 -0.766593456330521 -0.253211396173963
      vertex -0.334334564884701 -0.840757356970078 2.65219787029617e-11
      vertex 0.0979243268905286 -0.766593456445551 0.253211396163382
    endloop
  endfacet
  facet normal 0.9855985596881983 -0.1691019785234608 -2.3111958545699667e-10
    outer loop
      vertex -0.840757357263893 -0.334334564586987 9.08276482636115e-11
      vertex -0.76659345652064 0.097924327060396 -0.253211396064181
      vertex -0.766593456416104 0.097924326977525 0.253211396273164
    endloop
  endfacet
  facet normal 5.070070948398775e-10 0.8164965808485319 0.5773502693016231
    outer loop
      vertex 0.351135722978375 -0.513382060089149 -0.611306387004102
      vertex -0.155287069598538 -0.51338205995936 -0.61130638674293
      vertex 0.097924326753836 -0.766593456330521 -0.253211396173963
    endloop
  endfacet
  facet normal 0.1464466098796839 0.8535533904823707 0.5000000000507974
    outer loop
      vertex -0.155287069598538 -0.51338205995936 -0.61130638674293
      vertex -0.334334564884701 -0.840757356970078 2.65219787029617e-11
      vertex 0.097924326753836 -0.766593456330521 -0.253211396173963
    endloop
  endfacet
  facet normal 0.1464466095610784 0.8535533905655919 0.5000000000020476
    outer loop
      vertex -0.334334564884701 -0.840757356970078 2.65219787029617e-11
      vertex -0.155287069598538 -0.51338205995936 -0.61130638674293
      vertex -0.587545961104827 -0.587545960795474 -0.358094990484044
    endloop
  endfacet
  facet normal 0.8164965808240646 -3.2363558335900163e-10 0.5773502693362252
    outer loop
      vertex -0.51338206033884 -0.155287069170827 -0.611306386697458
      vertex -0.513382059934621 0.351135722992588 -0.611306386985233
      vertex -0.76659345652064 0.097924327060396 -0.253211396064181
    endloop
  endfacet
  facet normal 0.8535533906236352 0.14644660951618668 0.4999999999161094
    outer loop
      vertex -0.840757357263893 -0.334334564586987 9.08276482636115e-11
      vertex -0.51338206033884 -0.155287069170827 -0.611306386697458
      vertex -0.76659345652064 0.097924327060396 -0.253211396064181
    endloop
  endfacet
  facet normal 0.8535533906144704 0.14644660955127367 0.4999999999214779
    outer loop
      vertex -0.51338206033884 -0.155287069170827 -0.611306386697458
      vertex -0.840757357263893 -0.334334564586987 9.08276482636115e-11
      vertex -0.587545961104827 -0.587545960795474 -0.358094990484044
    endloop
  endfacet
  facet normal -4.739101396345843e-11 -0.8164965809283647 0.5773502691887223
    outer loop
      vertex -0.155287069207638 0.709230713639185 -0.611306386962495
      vertex 0.351135723072224 0.709230713593713 -0.611306386985233
      vertex 0.0979243270141661 0.962442109853141 -0.253211396267666
    endloop
  endfacet
  facet normal -0.816496580921139 3.242451823842572e-11 0.5773502691989412
    outer loop
      vertex 0.7092307137349 0.351135722882806 -0.611306386962495
      vertex 0.709230713681741 -0.155287069465097 -0.611306387009232
      vertex 0.96244210996022 0.0979243266723698 -0.253211396267666
    endloop
  endfacet
  facet normal -1.5578582848744358e-10 -9.228861608435726e-11 1
    outer loop
      vertex 0.351135723072224 0.709230713593713 -0.611306386985233
      vertex 0.709230713681741 -0.155287069465097 -0.611306387009232
      vertex 0.7092307137349 0.351135722882806 -0.611306386962495
    endloop
  endfacet
  facet normal 2.975918420143932e-11 -1.5433355407841624e-11 1
    outer loop
      vertex 0.351135723072224 0.709230713593713 -0.611306386985233
      vertex 0.351135722978375 -0.513382060089149 -0.611306387004102
      vertex 0.709230713681741 -0.155287069465097 -0.611306387009232
    endloop
  endfacet
  facet normal 4.489930947829573e-11 -1.5433355409003793e-11 1
    outer loop
      vertex -0.155287069207638 0.709230713639185 -0.611306386962495
      vertex 0.351135722978375 -0.513382060089149 -0.611306387004102
      vertex 0.351135723072224 0.709230713593713 -0.611306386985233
    endloop
  endfacet
  facet normal 5.157192306286918e-10 1.7958664128110305e-10 1
    outer loop
      vertex -0.155287069207638 0.709230713639185 -0.611306386962495
      vertex -0.155287069598538 -0.51338205995936 -0.61130638674293
      vertex 0.351135722978375 -0.513382060089149 -0.611306387004102
    endloop
  endfacet
  facet normal -2.430838538626507e-10 1.7958664152371146e-10 1
    outer loop
      vertex -0.513382059934621 0.351135722992588 -0.611306386985233
      vertex -0.155287069598538 -0.51338205995936 -0.61130638674293
      vertex -0.155287069207638 0.709230713639185 -0.611306386962495
    endloop
  endfacet
  facet normal 6.952338047915663e-10 5.68250541253619e-10 1
    outer loop
      vertex -0.155287069598538 -0.51338205995936 -0.61130638674293
      vertex -0.513382059934621 0.351135722992588 -0.611306386985233
      vertex -0.51338206033884 -0.155287069170827 -0.611306386697458
    endloop
  endfacet
  facet normal 0.4082482906000466 0.40824829044137917 0.8164965808708761
    outer loop
      vertex -0.51338206033884 -0.155287069170827 -0.611306386697458
      vertex -0.587545961104827 -0.587545960795474 -0.358094990484044
      vertex -0.155287069598538 -0.51338205995936 -0.61130638674293
    endloop
  endfacet
  facet normal 0.7071067811892695 0.7071067811838253 -4.5451250450810346e-10
    outer loop
      vertex -0.334334564884701 -0.840757356970078 2.65219787029617e-11
      vertex -0.840757357263893 -0.334334564586987 9.08276482636115e-11
      vertex -0.587545960896831 -0.587545960725823 0.358094990731741
    endloop
  endfacet
  facet normal 0.7071067811892695 0.7071067811838253 -9.373890303048385e-11
    outer loop
      vertex -0.840757357263893 -0.334334564586987 9.08276482636115e-11
      vertex -0.334334564884701 -0.840757356970078 2.65219787029617e-11
      vertex -0.587545961104827 -0.587545960795474 -0.358094990484044
    endloop
  endfacet
endsolid OpenSCAD_Model
