solid OpenSCAD_Model
  facet normal 0 0.8164965808788218 -0.5773502692587869
    outer loop
      vertex 0.245021112376321 -0.591533292562446 0.591533292491828
      vertex 1.45651179045768e-11 -0.836554404997432 0.245021112280791
      vertex -0.245021112372595 -0.591533292562446 0.591533292491828
    endloop
  endfacet
  facet normal 0 0 -1
    outer loop
      vertex 0.245021112376321 -0.591533292562446 0.591533292491828
      vertex 0.591533292593802 0.245021112366389 0.591533292491828
      vertex 0.5915332925718 -0.245021112382525 0.591533292491828
    endloop
  endfacet
  facet normal 0 0 -1
    outer loop
      vertex 0.245021112376321 -0.591533292562446 0.591533292491828
      vertex 0.245021112429436 0.591533292577427 0.591533292491828
      vertex 0.591533292593802 0.245021112366389 0.591533292491828
    endloop
  endfacet
  facet normal 0 0 -1
    outer loop
      vertex -0.245021112372595 -0.591533292562446 0.591533292491828
      vertex 0.245021112429436 0.591533292577427 0.591533292491828
      vertex 0.245021112376321 -0.591533292562446 0.591533292491828
    endloop
  endfacet
  facet normal 0 0 -1
    outer loop
      vertex -0.245021112372595 -0.591533292562446 0.591533292491828
      vertex -0.24502111231948 0.591533292621433 0.591533292491828
      vertex 0.245021112429436 0.591533292577427 0.591533292491828
    endloop
  endfacet
  facet normal 0 0 -1
    outer loop
      vertex -0.591533292612077 -0.245021112276293 0.591533292491828
      vertex -0.24502111231948 0.591533292621433 0.591533292491828
      vertex -0.245021112372595 -0.591533292562446 0.591533292491828
    endloop
  endfacet
  facet normal 0 0 -1
    outer loop
      vertex -0.24502111231948 0.591533292621433 0.591533292491828
      vertex -0.591533292612077 -0.245021112276293 0.591533292491828
      vertex -0.591533292546073 0.245021112472621 0.591533292491828
    endloop
  endfacet
  facet normal 0.40824829056870293 0.40824829051371675 -0.8164965808503791
    outer loop
      vertex -0.663298314825143 -0.663298314539421 0.346512180195766
      vertex -0.591533292612077 -0.245021112276293 0.591533292491828
      vertex -0.245021112372595 -0.591533292562446 0.591533292491828
    endloop
  endfacet
  facet normal 0.1464466098327963 0.8535533906207893 -0.49999999982823495
    outer loop
      vertex -0.418277202655279 -0.908319426933902 -9.76787550254997e-12
      vertex -0.245021112372595 -0.591533292562446 0.591533292491828
      vertex 1.45651179045768e-11 -0.836554404997432 0.245021112280791
    endloop
  endfacet
  facet normal 0.14644660983279797 0.8535533906207889 -0.4999999998282353
    outer loop
      vertex -0.245021112372595 -0.591533292562446 0.591533292491828
      vertex -0.418277202655279 -0.908319426933902 -9.76787550254997e-12
      vertex -0.663298314825143 -0.663298314539421 0.346512180195766
    endloop
  endfacet
  facet normal 0.8164965807119394 -1.0997421426254181e-10 -0.5773502694947941
    outer loop
      vertex -0.836554405089182 2.18992506606429e-10 0.245021112387023
      vertex -0.591533292546073 0.245021112472621 0.591533292491828
      vertex -0.591533292612077 -0.245021112276293 0.591533292491828
    endloop
  endfacet
  facet normal 0.8535533904817778 0.14644660953279942 -0.5000000001534096
    outer loop
      vertex -0.591533292612077 -0.245021112276293 0.591533292491828
      vertex -0.908319427338458 -0.418277202246949 5.24577862280279e-11
      vertex -0.836554405089182 2.18992506606429e-10 0.245021112387023
    endloop
  endfacet
  facet normal 0.8535533904519398 0.14644660964703196 -0.5000000001708884
    outer loop
      vertex -0.908319427338458 -0.418277202246949 5.24577862280279e-11
      vertex -0.591533292612077 -0.245021112276293 0.591533292491828
      vertex -0.663298314825143 -0.663298314539421 0.346512180195766
    endloop
  endfacet
  facet normal 0.7071067809880487 -0.7071067813850463 -7.173149378278797e-11
    outer loop
      vertex -0.836554405089182 2.18992506606429e-10 0.245021112387023
      vertex 8.96821903689783e-11 0.836554404928182 0.245021112280791
      vertex -0.24502111231948 0.591533292621433 0.591533292491828
    endloop
  endfacet
  facet normal 0.7071067809880487 -0.7071067813850463 4.0332242686928943e-10
    outer loop
      vertex 8.96821903689783e-11 0.836554404928182 0.245021112280791
      vertex -0.836554405089182 2.18992506606429e-10 0.245021112387023
      vertex 2.13880473309674e-10 0.836554404772868 -0.245021112361895
    endloop
  endfacet
  facet normal 0.7071067811071859 -0.7071067812659091 -4.784913760018533e-10
    outer loop
      vertex -0.836554405089182 2.18992506606429e-10 0.245021112387023
      vertex -0.24502111231948 0.591533292621433 0.591533292491828
      vertex -0.591533292546073 0.245021112472621 0.591533292491828
    endloop
  endfacet
  facet normal 0.707106780793276 -0.7071067815798189 -2.6167258852562e-10
    outer loop
      vertex -0.836554405190337 2.99183011582966e-10 -0.245021112255663
      vertex 2.13880473309674e-10 0.836554404772868 -0.245021112361895
      vertex -0.836554405089182 2.18992506606429e-10 0.245021112387023
    endloop
  endfacet
  facet normal 0.70710678110718 -0.7071067812659152 1.1788258459336337e-9
    outer loop
      vertex -0.245021112238553 0.591533292540502 -0.591533292648046
      vertex -0.836554405190337 2.99183011582966e-10 -0.245021112255663
      vertex -0.591533292465147 0.245021112391695 -0.591533292670049
    endloop
  endfacet
  facet normal 0.7071067807932762 -0.7071067815798189 1.0709112018108462e-10
    outer loop
      vertex 2.13880473309674e-10 0.836554404772868 -0.245021112361895
      vertex -0.836554405190337 2.99183011582966e-10 -0.245021112255663
      vertex -0.245021112238553 0.591533292540502 -0.591533292648046
    endloop
  endfacet
  facet normal -7.332159428912749e-11 -0.8164965809968248 -0.5773502690919052
    outer loop
      vertex 8.96821903689783e-11 0.836554404928182 0.245021112280791
      vertex 0.245021112429436 0.591533292577427 0.591533292491828
      vertex -0.24502111231948 0.591533292621433 0.591533292491828
    endloop
  endfacet
  facet normal -0.4082482906710848 -0.4082482906160976 -0.8164965807479978
    outer loop
      vertex 0.663298314787278 0.663298314516845 0.346512180169727
      vertex 0.591533292593802 0.245021112366389 0.591533292491828
      vertex 0.245021112429436 0.591533292577427 0.591533292491828
    endloop
  endfacet
  facet normal -0.14644660986919955 -0.8535533907046788 -0.4999999996743643
    outer loop
      vertex 0.418277202664819 0.908319426827093 -3.58086884017219e-11
      vertex 0.245021112429436 0.591533292577427 0.591533292491828
      vertex 8.96821903689783e-11 0.836554404928182 0.245021112280791
    endloop
  endfacet
  facet normal -0.14644660986919375 -0.8535533907046804 -0.49999999967436337
    outer loop
      vertex 0.245021112429436 0.591533292577427 0.591533292491828
      vertex 0.418277202664819 0.908319426827093 -3.58086884017219e-11
      vertex 0.663298314787278 0.663298314516845 0.346512180169727
    endloop
  endfacet
  facet normal -0.8164965808017172 3.665928607466649e-11 -0.5773502693678293
    outer loop
      vertex 0.836554405012085 -1.0689539282577e-10 0.245021112387022
      vertex 0.5915332925718 -0.245021112382525 0.591533292491828
      vertex 0.591533292593802 0.245021112366389 0.591533292491828
    endloop
  endfacet
  facet normal -0.8535533905137045 -0.14644660967962875 -0.500000000055902
    outer loop
      vertex 0.908319427241764 0.418277202246369 2.64217610230724e-11
      vertex 0.591533292593802 0.245021112366389 0.591533292491828
      vertex 0.663298314787278 0.663298314516845 0.346512180169727
    endloop
  endfacet
  facet normal -0.8535533905435391 -0.14644660956540925 -0.5000000000384252
    outer loop
      vertex 0.591533292593802 0.245021112366389 0.591533292491828
      vertex 0.908319427241764 0.418277202246369 2.64217610230724e-11
      vertex 0.836554405012085 -1.0689539282577e-10 0.245021112387022
    endloop
  endfacet
  facet normal -0.7071067809465615 0.7071067814265335 6.959858394996304e-10
    outer loop
      vertex -1.17706115177638e-10 -0.836554404886123 -0.245021112361895
      vertex 0.836554405105164 -2.3109166275867e-10 -0.245021112255663
      vertex 0.591533292461437 -0.24502111236744 -0.591533292693272
    endloop
  endfacet
  facet normal -0.7071067809465615 0.7071067814265335 -3.135174914106817e-10
    outer loop
      vertex 0.836554405105164 -2.3109166275867e-10 -0.245021112255663
      vertex -1.17706115177638e-10 -0.836554404886123 -0.245021112361895
      vertex 0.836554405012085 -1.0689539282577e-10 0.245021112387022
    endloop
  endfacet
  facet normal -0.7071067811082389 0.707106781264856 1.439849593768525e-10
    outer loop
      vertex -1.17706115177638e-10 -0.836554404886123 -0.245021112361895
      vertex 0.591533292461437 -0.24502111236744 -0.591533292693272
      vertex 0.245021112257697 -0.591533292494431 -0.591533292688308
    endloop
  endfacet
  facet normal -0.7071067811413332 0.7071067812317618 3.5147437829098747e-10
    outer loop
      vertex 1.45651179045768e-11 -0.836554404997432 0.245021112280791
      vertex 0.836554405012085 -1.0689539282577e-10 0.245021112387022
      vertex -1.17706115177638e-10 -0.836554404886123 -0.245021112361895
    endloop
  endfacet
  facet normal -0.7071067811413332 0.707106781231762 -2.7205972434589944e-10
    outer loop
      vertex 0.836554405012085 -1.0689539282577e-10 0.245021112387022
      vertex 1.45651179045768e-11 -0.836554404997432 0.245021112280791
      vertex 0.5915332925718 -0.245021112382525 0.591533292491828
    endloop
  endfacet
  facet normal -0.7071067811706735 0.7071067812024218 -1.7188600903810677e-10
    outer loop
      vertex 0.5915332925718 -0.245021112382525 0.591533292491828
      vertex 1.45651179045768e-11 -0.836554404997432 0.245021112280791
      vertex 0.245021112376321 -0.591533292562446 0.591533292491828
    endloop
  endfacet
  facet normal -0.16910197801226512 0.9855985597759056 2.695143043075272e-10
    outer loop
      vertex -1.17706115177638e-10 -0.836554404886123 -0.245021112361895
      vertex -0.418277202655279 -0.908319426933902 -9.76787550254997e-12
      vertex 1.45651179045768e-11 -0.836554404997432 0.245021112280791
    endloop
  endfacet
  facet normal 0.9855985596881983 -0.16910197852346032 -2.3112002324651447e-10
    outer loop
      vertex -0.908319427338458 -0.418277202246949 5.24577862280279e-11
      vertex -0.836554405190337 2.99183011582966e-10 -0.245021112255663
      vertex -0.836554405089182 2.18992506606429e-10 0.245021112387023
    endloop
  endfacet
  facet normal 0.16910197801226545 -0.9855985597759056 3.552334990704201e-10
    outer loop
      vertex 2.13880473309674e-10 0.836554404772868 -0.245021112361895
      vertex 0.418277202664819 0.908319426827093 -3.58086884017219e-11
      vertex 8.96821903689783e-11 0.836554404928182 0.245021112280791
    endloop
  endfacet
  facet normal -0.9855985596881991 0.16910197852345607 -2.3006253132293183e-10
    outer loop
      vertex 0.908319427241764 0.418277202246369 2.64217610230724e-11
      vertex 0.836554405105164 -2.3109166275867e-10 -0.245021112255663
      vertex 0.836554405012085 -1.0689539282577e-10 0.245021112387022
    endloop
  endfacet
  facet normal 5.070066664058793e-10 0.816496580848531 0.5773502693016241
    outer loop
      vertex 0.245021112257697 -0.591533292494431 -0.591533292688308
      vertex -0.245021112616809 -0.591533292368841 -0.591533292435583
      vertex -1.17706115177638e-10 -0.836554404886123 -0.245021112361895
    endloop
  endfacet
  facet normal 0.14644660987968544 0.8535533904823706 0.5000000000507971
    outer loop
      vertex -0.245021112616809 -0.591533292368841 -0.591533292435583
      vertex -0.418277202655279 -0.908319426933902 -9.76787550254997e-12
      vertex -1.17706115177638e-10 -0.836554404886123 -0.245021112361895
    endloop
  endfacet
  facet normal 0.14644660956107897 0.8535533905655918 0.5000000000020473
    outer loop
      vertex -0.418277202655279 -0.908319426933902 -9.76787550254997e-12
      vertex -0.245021112616809 -0.591533292368841 -0.591533292435583
      vertex -0.663298315026411 -0.663298314606819 -0.346512180026945
    endloop
  endfacet
  facet normal 0.8164965808240652 -3.2363495752590513e-10 0.5773502693362244
    outer loop
      vertex -0.591533292856291 -0.245021112082688 -0.591533292391582
      vertex -0.591533292465147 0.245021112391695 -0.591533292670049
      vertex -0.836554405190337 2.99183011582966e-10 -0.245021112255663
    endloop
  endfacet
  facet normal 0.8535533906236357 0.1464466095161864 0.4999999999161088
    outer loop
      vertex -0.908319427338458 -0.418277202246949 5.24577862280279e-11
      vertex -0.591533292856291 -0.245021112082688 -0.591533292391582
      vertex -0.836554405190337 2.99183011582966e-10 -0.245021112255663
    endloop
  endfacet
  facet normal 0.853553390614471 0.1464466095512731 0.49999999992147737
    outer loop
      vertex -0.591533292856291 -0.245021112082688 -0.591533292391582
      vertex -0.908319427338458 -0.418277202246949 5.24577862280279e-11
      vertex -0.663298315026411 -0.663298314606819 -0.346512180026945
    endloop
  endfacet
  facet normal -6.883824075648587e-10 -0.8164965809334258 0.577350269181565
    outer loop
      vertex -0.245021112238553 0.591533292540502 -0.591533292648046
      vertex 0.24502111265416 0.591533292277585 -0.591533292435583
      vertex 2.13880473309674e-10 0.836554404772868 -0.245021112361895
    endloop
  endfacet
  facet normal -0.14644660985915256 -0.8535533904909961 0.5000000000420863
    outer loop
      vertex 0.24502111265416 0.591533292277585 -0.591533292435583
      vertex 0.418277202664819 0.908319426827093 -3.58086884017219e-11
      vertex 2.13880473309674e-10 0.836554404772868 -0.245021112361895
    endloop
  endfacet
  facet normal -0.1464466095405513 -0.853553390574216 0.4999999999933373
    outer loop
      vertex 0.418277202664819 0.908319426827093 -3.58086884017219e-11
      vertex 0.24502111265416 0.591533292277585 -0.591533292435583
      vertex 0.663298314977125 0.66329831452201 -0.346512180052981
    endloop
  endfacet
  facet normal -0.8164965809047592 2.395325650265924e-10 0.5773502692221055
    outer loop
      vertex 0.591533292818526 0.245021112066547 -0.591533292391582
      vertex 0.591533292461437 -0.24502111236744 -0.591533292693272
      vertex 0.836554405105164 -2.3109166275867e-10 -0.245021112255663
    endloop
  endfacet
  facet normal -0.8535533906452265 -0.14644660953454072 0.4999999998738751
    outer loop
      vertex 0.591533292818526 0.245021112066547 -0.591533292391582
      vertex 0.908319427241764 0.418277202246369 2.64217610230724e-11
      vertex 0.663298314977125 0.66329831452201 -0.346512180052981
    endloop
  endfacet
  facet normal -0.8535533906543908 -0.14644660949945573 0.49999999986850685
    outer loop
      vertex 0.908319427241764 0.418277202246369 2.64217610230724e-11
      vertex 0.591533292818526 0.245021112066547 -0.591533292391582
      vertex 0.836554405105164 -2.3109166275867e-10 -0.245021112255663
    endloop
  endfacet
  facet normal -7.42623139952822e-10 -6.156408386919596e-10 1
    outer loop
      vertex 0.24502111265416 0.591533292277585 -0.591533292435583
      vertex 0.591533292461437 -0.24502111236744 -0.591533292693272
      vertex 0.591533292818526 0.245021112066547 -0.591533292391582
    endloop
  endfacet
  facet normal 2.2794432906432017e-10 -2.1361863012816673e-10 1
    outer loop
      vertex 0.24502111265416 0.591533292277585 -0.591533292435583
      vertex 0.245021112257697 -0.591533292494431 -0.591533292688308
      vertex 0.591533292461437 -0.24502111236744 -0.591533292693272
    endloop
  endfacet
  facet normal -4.335606941999503e-10 -2.1361862990648667e-10 1
    outer loop
      vertex -0.245021112238553 0.591533292540502 -0.591533292648046
      vertex 0.245021112257697 -0.591533292494431 -0.591533292688308
      vertex 0.24502111265416 0.591533292277585 -0.591533292435583
    endloop
  endfacet
  facet normal 5.157209936068456e-10 1.7958671952248155e-10 1
    outer loop
      vertex -0.245021112238553 0.591533292540502 -0.591533292648046
      vertex -0.245021112616809 -0.591533292368841 -0.591533292435583
      vertex 0.245021112257697 -0.591533292494431 -0.591533292688308
    endloop
  endfacet
  facet normal -2.430850792893529e-10 1.795867197650908e-10 1
    outer loop
      vertex -0.591533292465147 0.245021112391695 -0.591533292670049
      vertex -0.245021112616809 -0.591533292368841 -0.591533292435583
      vertex -0.245021112238553 0.591533292540502 -0.591533292648046
    endloop
  endfacet
  facet normal 6.952331620978586e-10 5.682508608709077e-10 1
    outer loop
      vertex -0.245021112616809 -0.591533292368841 -0.591533292435583
      vertex -0.591533292465147 0.245021112391695 -0.591533292670049
      vertex -0.591533292856291 -0.245021112082688 -0.591533292391582
    endloop
  endfacet
  facet normal 0.408248290600046 0.4082482904413793 0.8164965808708764
    outer loop
      vertex -0.591533292856291 -0.245021112082688 -0.591533292391582
      vertex -0.663298315026411 -0.663298314606819 -0.346512180026945
      vertex -0.245021112616809 -0.591533292368841 -0.591533292435583
    endloop
  endfacet
  facet normal -0.40824829061566287 -0.40824829045699484 0.8164965808552602
    outer loop
      vertex 0.591533292818526 0.245021112066547 -0.591533292391582
      vertex 0.663298314977125 0.66329831452201 -0.346512180052981
      vertex 0.24502111265416 0.591533292277585 -0.591533292435583
    endloop
  endfacet
  facet normal 0.7071067811892704 0.7071067811838248 -4.545118819443127e-10
    outer loop
      vertex -0.418277202655279 -0.908319426933902 -9.76787550254997e-12
      vertex -0.908319427338458 -0.418277202246949 5.24577862280279e-11
      vertex -0.663298314825143 -0.663298314539421 0.346512180195766
    endloop
  endfacet
  facet normal 0.7071067811892704 0.7071067811838248 -9.373883631439678e-11
    outer loop
      vertex -0.908319427338458 -0.418277202246949 5.24577862280279e-11
      vertex -0.418277202655279 -0.908319426933902 -9.76787550254997e-12
      vertex -0.663298315026411 -0.663298314606819 -0.346512180026945
    endloop
  endfacet
  facet normal -0.707106781189274 -0.707106781183821 -1.8595464698736512e-11
    outer loop
      vertex 0.908319427241764 0.418277202246369 2.64217610230724e-11
      vertex 0.418277202664819 0.908319426827093 -3.58086884017219e-11
      vertex 0.663298314977125 0.66329831452201 -0.346512180052981
    endloop
  endfacet
  facet normal -0.7071067811892741 -0.7071067811838211 -3.7935411305334227e-10
    outer loop
      vertex 0.418277202664819 0.908319426827093 -3.58086884017219e-11
      vertex 0.908319427241764 0.418277202246369 2.64217610230724e-11
      vertex 0.663298314787278 0.663298314516845 0.346512180169727
    endloop
  endfacet
endsolid OpenSCAD_Model
