solid OpenSCAD_Model
  facet normal 0.5257311119995496 0.7236067974760731 -0.4472135960837263
    outer loop
      vertex -5.56664372879074e-12 -0.703314478591894 0.547041040935011
      vertex -0.413397878332443 -0.30035113925469 0.713071067430704
      vertex -0.157903938632523 -0.485978352122361 0.713071067430704
    endloop
  endfacet
  facet normal 0.525731111999549 0.7236067974760731 -0.447213596083727
    outer loop
      vertex -1.57767105799747e-10 -0.869344505251235 0.278398814920584
      vertex -0.413397878332443 -0.30035113925469 0.713071067430704
      vertex -5.56664372879074e-12 -0.703314478591894 0.547041040935011
    endloop
  endfacet
  facet normal 0.5257311119995476 0.7236067974760733 -0.44721359608372857
    outer loop
      vertex -0.413397878332443 -0.30035113925469 0.713071067430704
      vertex -1.57767105799747e-10 -0.869344505251235 0.278398814920584
      vertex -0.66889181792134 -0.217336126166955 0.547041040936464
    endloop
  endfacet
  facet normal 0.5257311119995464 0.7236067974760728 -0.4472135960837305
    outer loop
      vertex -0.157903938864445 -0.920650605170096 0.0097565889446303
      vertex -0.66889181792134 -0.217336126166955 0.547041040936464
      vertex -1.57767105799747e-10 -0.869344505251235 0.278398814920584
    endloop
  endfacet
  facet normal 0.5257311119995471 0.7236067974760728 -0.44721359608372974
    outer loop
      vertex -0.66889181792134 -0.217336126166955 0.547041040936464
      vertex -0.157903938864445 -0.920650605170096 0.0097565889446303
      vertex -0.826795756608504 -0.268642226104837 0.278398814952673
    endloop
  endfacet
  facet normal 0.5257311119995492 0.7236067974760736 -0.44721359608372613
    outer loop
      vertex -0.413397878539956 -0.837635591997203 -0.156273437513644
      vertex -0.826795756608504 -0.268642226104837 0.278398814952673
      vertex -0.157903938864445 -0.920650605170096 0.0097565889446303
    endloop
  endfacet
  facet normal 0.5257311119995418 0.723606797476074 -0.44721359608373384
    outer loop
      vertex -0.826795756608504 -0.268642226104837 0.278398814952673
      vertex -0.413397878539956 -0.837635591997203 -0.156273437513644
      vertex -0.826795756697092 -0.434672252790406 0.0097565889705928
    endloop
  endfacet
  facet normal 0.5257311119995473 0.723606797476076 -0.4472135960837245
    outer loop
      vertex -0.826795756697092 -0.434672252790406 0.0097565889705928
      vertex -0.413397878539956 -0.837635591997203 -0.156273437513644
      vertex -0.668891818153263 -0.652008379186333 -0.156273437503728
    endloop
  endfacet
  facet normal 0 0.6070619978360199 -0.79465447257493
    outer loop
      vertex 0.157903938605017 -0.485978352122361 0.713071067430704
      vertex -5.56664372879074e-12 -0.703314478591894 0.547041040935011
      vertex -0.157903938632523 -0.485978352122361 0.713071067430704
    endloop
  endfacet
  facet normal 0 0.5257311119137722 -0.8506508084789601
    outer loop
      vertex -0.157903938632523 -0.485978352122361 0.713071067430704
      vertex 0.157903938590835 -0.217336126026225 0.879101093881923
      vertex 0.157903938605017 -0.485978352122361 0.713071067430704
    endloop
  endfacet
  facet normal 6.652666679703369e-10 0.5257311113478627 -0.8506508088287115
    outer loop
      vertex 0.157903938590835 -0.217336126026225 0.879101093881923
      vertex -0.157903938632523 -0.485978352122361 0.713071067430704
      vertex -0.15790393833758 -0.217336125907885 0.879101093708078
    endloop
  endfacet
  facet normal 0.356822089183571 0.4911234723028279 -0.7946544731038044
    outer loop
      vertex -0.413397878332443 -0.30035113925469 0.713071067430704
      vertex -0.15790393833758 -0.217336125907885 0.879101093708078
      vertex -0.157903938632523 -0.485978352122361 0.713071067430704
    endloop
  endfacet
  facet normal 0.5773502691280474 0.18759247397337311 -0.7946544723628758
    outer loop
      vertex -0.66889181792134 -0.217336126166955 0.547041040936464
      vertex -0.510987879313171 3.03430766414075e-10 0.713071067430704
      vertex -0.413397878332443 -0.30035113925469 0.713071067430704
    endloop
  endfacet
  facet normal 0.4999999990150906 0.1624598477170203 -0.85065080900724
    outer loop
      vertex -0.413397878332443 -0.30035113925469 0.713071067430704
      vertex -0.255493939348153 0.0830150135295315 0.879101093667482
      vertex -0.15790393833758 -0.217336125907885 0.879101093708078
    endloop
  endfacet
  facet normal 0.49999999901508746 0.1624598477170222 -0.8506508090072415
    outer loop
      vertex -0.255493939348153 0.0830150135295315 0.879101093667482
      vertex -0.413397878332443 -0.30035113925469 0.713071067430704
      vertex -0.510987879313171 3.03430766414075e-10 0.713071067430704
    endloop
  endfacet
  facet normal 0.8506508084040032 -0.27639320238512777 -0.4472135953176175
    outer loop
      vertex -0.826795756334112 0.434672252862643 -0.156273437816049
      vertex -0.510987879146156 0.703314478897988 0.278398814807329
      vertex -0.413397878197499 0.568993365870718 0.54704104088129
    endloop
  endfacet
  facet normal 0.8506508084040032 -0.2763932023851267 -0.44721359531761823
    outer loop
      vertex -0.510987879146156 0.703314478897988 0.278398814807329
      vertex -0.826795756334112 0.434672252862643 -0.156273437816049
      vertex -0.668891817718831 0.65200837913361 0.00975658872310364
    endloop
  endfacet
  facet normal 0.8506508084040036 -0.2763932023851317 -0.44721359531761384
    outer loop
      vertex -0.924385757401776 0.134321113332766 -0.156273437828732
      vertex -0.413397878197499 0.568993365870718 0.54704104088129
      vertex -0.413397878251537 0.300351139835263 0.713071067430704
    endloop
  endfacet
  facet normal 0.8506508084040038 -0.2763932023851242 -0.44721359531761856
    outer loop
      vertex -0.413397878197499 0.568993365870718 0.54704104088129
      vertex -0.924385757401776 0.134321113332766 -0.156273437828732
      vertex -0.826795756334112 0.434672252862643 -0.156273437816049
    endloop
  endfacet
  facet normal 0.8506508084040032 -0.27639320238513115 -0.4472135953176151
    outer loop
      vertex -0.924385757478176 -0.134321112721707 0.00975658868990271
      vertex -0.413397878251537 0.300351139835263 0.713071067430704
      vertex -0.510987879313171 3.03430766414075e-10 0.713071067430704
    endloop
  endfacet
  facet normal 0.8506508084040033 -0.2763932023851344 -0.447213595317613
    outer loop
      vertex -0.413397878251537 0.300351139835263 0.713071067430704
      vertex -0.924385757478176 -0.134321112721707 0.00975658868990271
      vertex -0.924385757401776 0.134321113332766 -0.156273437828732
    endloop
  endfacet
  facet normal 0.8506508083573832 -0.2763932018345292 -0.44721359574658265
    outer loop
      vertex -0.826795756608504 -0.268642226104837 0.278398814952673
      vertex -0.510987879313171 3.03430766414075e-10 0.713071067430704
      vertex -0.66889181792134 -0.217336126166955 0.547041040936464
    endloop
  endfacet
  facet normal 0.8506508083573832 -0.2763932026569472 -0.4472135952383003
    outer loop
      vertex -0.510987879313171 3.03430766414075e-10 0.713071067430704
      vertex -0.826795756608504 -0.268642226104837 0.278398814952673
      vertex -0.924385757478176 -0.134321112721707 0.00975658868990271
    endloop
  endfacet
  facet normal 0.5773502680551721 -0.18759247379671565 -0.7946544731840686
    outer loop
      vertex -0.413397878251537 0.300351139835263 0.713071067430704
      vertex -0.255493939348153 0.0830150135295315 0.879101093667482
      vertex -0.510987879313171 3.03430766414075e-10 0.713071067430704
    endloop
  endfacet
  facet normal 0.3568220897979885 -0.49112347333397316 -0.794654472190631
    outer loop
      vertex -0.413397878197499 0.568993365870718 0.54704104088129
      vertex -0.157903938588891 0.485978352605751 0.713071067430704
      vertex -0.413397878251537 0.300351139835263 0.713071067430704
    endloop
  endfacet
  facet normal 0.3090169948894344 -0.42532540356522724 -0.8506508084705379
    outer loop
      vertex -0.255493939348153 0.0830150135295315 0.879101093667482
      vertex -0.157903938588891 0.485978352605751 0.713071067430704
      vertex 2.17852476550343e-12 0.268642226261911 0.879101093881924
    endloop
  endfacet
  facet normal 0.30901699380047704 -0.4253254034817008 -0.850650808907888
    outer loop
      vertex -0.157903938588891 0.485978352605751 0.713071067430704
      vertex -0.255493939348153 0.0830150135295315 0.879101093667482
      vertex -0.413397878251537 0.300351139835263 0.713071067430704
    endloop
  endfacet
  facet normal -1.140157565471416e-10 -0.8944271910910849 -0.4472135953176198
    outer loop
      vertex -0.157903938549854 0.920650605013938 -0.156273437828732
      vertex -0.157903938588891 0.485978352605751 0.713071067430704
      vertex -0.413397878197499 0.568993365870718 0.54704104088129
    endloop
  endfacet
  facet normal -8.032078995037304e-11 -0.8944271910910848 -0.44721359531761984
    outer loop
      vertex -0.157903938588891 0.485978352605751 0.713071067430704
      vertex -0.157903938549854 0.920650605013938 -0.156273437828732
      vertex 0.157903938648646 0.485978352577391 0.713071067430704
    endloop
  endfacet
  facet normal -5.825263591735029e-10 -0.8944271910974941 -0.4472135953048015
    outer loop
      vertex -0.413397878211623 0.837635591819873 0.00975658868990271
      vertex -0.413397878197499 0.568993365870718 0.54704104088129
      vertex -0.510987879146156 0.703314478897988 0.278398814807329
    endloop
  endfacet
  facet normal -8.031100313898087e-11 -0.8944271910910836 -0.4472135953176226
    outer loop
      vertex 0.157903938687686 0.92065060497924 -0.156273437816049
      vertex 0.157903938648646 0.485978352577391 0.713071067430704
      vertex -0.157903938549854 0.920650605013938 -0.156273437828732
    endloop
  endfacet
  facet normal -6.990843644929845e-11 -0.8944271910974941 -0.44721359530480154
    outer loop
      vertex -0.413397878197499 0.568993365870718 0.54704104088129
      vertex -0.413397878211623 0.837635591819873 0.00975658868990271
      vertex -0.157903938549854 0.920650605013938 -0.156273437828732
    endloop
  endfacet
  facet normal -8.030097113683357e-11 -0.8944271910910835 -0.4472135953176226
    outer loop
      vertex 0.157903938648646 0.485978352577391 0.713071067430704
      vertex 0.157903938687686 0.92065060497924 -0.156273437816049
      vertex 0.413397878285423 0.568993365786852 0.54704104088129
    endloop
  endfacet
  facet normal -8.031758936919783e-11 -0.8944271910910859 -0.44721359531761773
    outer loop
      vertex 0.413397878317879 0.83763559172903 0.00975658872310364
      vertex 0.413397878285423 0.568993365786852 0.54704104088129
      vertex 0.157903938687686 0.92065060497924 -0.156273437816049
    endloop
  endfacet
  facet normal -8.028587055820511e-11 -0.8944271910910859 -0.44721359531761773
    outer loop
      vertex 0.413397878285423 0.568993365786852 0.54704104088129
      vertex 0.413397878317879 0.83763559172903 0.00975658872310364
      vertex 0.510987879326996 0.703314478746615 0.278398814807329
    endloop
  endfacet
  facet normal -5.451500101101448e-11 -0.6070619979800493 -0.7946544724649012
    outer loop
      vertex 0.157903938648646 0.485978352577391 0.713071067430704
      vertex 2.17852476550343e-12 0.268642226261911 0.879101093881924
      vertex -0.157903938588891 0.485978352605751 0.713071067430704
    endloop
  endfacet
  facet normal -0.35682208988617203 -0.49112347326988975 -0.7946544721906398
    outer loop
      vertex 0.413397878285423 0.568993365786852 0.54704104088129
      vertex 0.413397878277961 0.300351139761023 0.713071067430704
      vertex 0.157903938648646 0.485978352577391 0.713071067430704
    endloop
  endfacet
  facet normal -0.30901699429279594 -0.4253254039987086 -0.8506508084705389
    outer loop
      vertex 0.255493939603492 0.0830150134777769 0.879101093881923
      vertex 0.157903938648646 0.485978352577391 0.713071067430704
      vertex 0.413397878277961 0.300351139761023 0.713071067430704
    endloop
  endfacet
  facet normal -0.30901699427183843 -0.42532540399710106 -0.8506508084789558
    outer loop
      vertex 0.157903938648646 0.485978352577391 0.713071067430704
      vertex 0.255493939603492 0.0830150134777769 0.879101093881923
      vertex 2.17852476550343e-12 0.268642226261911 0.879101093881924
    endloop
  endfacet
  facet normal -0.850650808500299 -0.2763932024250277 -0.44721359510979264
    outer loop
      vertex 0.826795756390699 0.434672252716118 -0.156273437828732
      vertex 0.510987879326996 0.703314478746615 0.278398814807329
      vertex 0.668891817819054 0.652008379034466 0.00975658868990271
    endloop
  endfacet
  facet normal -0.850650808500299 -0.2763932019889778 -0.44721359537928607
    outer loop
      vertex 0.510987879326996 0.703314478746615 0.278398814807329
      vertex 0.826795756390699 0.434672252716118 -0.156273437828732
      vertex 0.413397878285423 0.568993365786852 0.54704104088129
    endloop
  endfacet
  facet normal -0.8506508084582952 -0.27639320223387837 -0.4472135953078252
    outer loop
      vertex 0.924385757392363 0.1343211131648 -0.156273437816049
      vertex 0.413397878285423 0.568993365786852 0.54704104088129
      vertex 0.826795756390699 0.434672252716118 -0.156273437828732
    endloop
  endfacet
  facet normal -0.8506508084582951 -0.2763932022052008 -0.44721359532554894
    outer loop
      vertex 0.413397878285423 0.568993365786852 0.54704104088129
      vertex 0.924385757392363 0.1343211131648 -0.156273437816049
      vertex 0.413397878277961 0.300351139761023 0.713071067430704
    endloop
  endfacet
  facet normal -0.8506508084536364 -0.2763932022323639 -0.4472135953176227
    outer loop
      vertex 0.924385757405608 -0.134321112876993 0.00975658872310364
      vertex 0.413397878277961 0.300351139761023 0.713071067430704
      vertex 0.924385757392363 0.1343211131648 -0.156273437816049
    endloop
  endfacet
  facet normal -0.8506508084536364 -0.2763932022323634 -0.447213595317623
    outer loop
      vertex 0.413397878277961 0.300351139761023 0.713071067430704
      vertex 0.924385757405608 -0.134321112876993 0.00975658872310364
      vertex 0.510987879285656 2.1166331202438e-10 0.713071067430704
    endloop
  endfacet
  facet normal -0.8506508084536323 -0.27639320223238684 -0.4472135953176162
    outer loop
      vertex 0.826795756425375 -0.268642225880394 0.278398814807329
      vertex 0.510987879285656 2.1166331202438e-10 0.713071067430704
      vertex 0.924385757405608 -0.134321112876993 0.00975658872310364
    endloop
  endfacet
  facet normal -0.8506508084536323 -0.2763932022323899 -0.4472135953176143
    outer loop
      vertex 0.510987879285656 2.1166331202438e-10 0.713071067430704
      vertex 0.826795756425375 -0.268642225880394 0.278398814807329
      vertex 0.668891817864218 -0.217336126078148 0.54704104088129
    endloop
  endfacet
  facet normal -0.5773502689841867 -0.18759247398393933 -0.7946544724649023
    outer loop
      vertex 0.510987879285656 2.1166331202438e-10 0.713071067430704
      vertex 0.255493939603492 0.0830150134777769 0.879101093881923
      vertex 0.413397878277961 0.300351139761023 0.713071067430704
    endloop
  endfacet
  facet normal -0.5773502693087925 0.18759247414672084 -0.794654472190635
    outer loop
      vertex 0.668891817864218 -0.217336126078148 0.54704104088129
      vertex 0.413397878250994 -0.300351139328933 0.713071067430704
      vertex 0.510987879285656 2.1166331202438e-10 0.713071067430704
    endloop
  endfacet
  facet normal -0.49999999979885873 0.1624598480709489 -0.8506508084789584
    outer loop
      vertex 0.413397878250994 -0.300351139328933 0.713071067430704
      vertex 0.255493939603492 0.0830150134777769 0.879101093881923
      vertex 0.510987879285656 2.1166331202438e-10 0.713071067430704
    endloop
  endfacet
  facet normal -0.49999999981676324 0.16245984805992805 -0.8506508084705393
    outer loop
      vertex 0.255493939603492 0.0830150134777769 0.879101093881923
      vertex 0.413397878250994 -0.300351139328933 0.713071067430704
      vertex 0.157903938590835 -0.217336126026225 0.879101093881923
    endloop
  endfacet
  facet normal -0.5257311122380157 0.7236067975967332 -0.44721359560816065
    outer loop
      vertex -1.57767105799747e-10 -0.869344505251235 0.278398814920584
      vertex 0.413397878250994 -0.300351139328933 0.713071067430704
      vertex 0.668891817864218 -0.217336126078148 0.54704104088129
    endloop
  endfacet
  facet normal -0.525731112283404 0.7236067975932519 -0.4472135955604367
    outer loop
      vertex -5.56664372879074e-12 -0.703314478591894 0.547041040935011
      vertex 0.413397878250994 -0.300351139328933 0.713071067430704
      vertex -1.57767105799747e-10 -0.869344505251235 0.278398814920584
    endloop
  endfacet
  facet normal -0.525731112404136 0.723606797502946 -0.4472135955646255
    outer loop
      vertex 0.157903938419619 -0.920650605277108 0.00975658882475597
      vertex 0.668891817864218 -0.217336126078148 0.54704104088129
      vertex 0.826795756425375 -0.268642225880394 0.278398814807329
    endloop
  endfacet
  facet normal -0.525731111893329 0.7236067974665087 -0.4472135962240717
    outer loop
      vertex 0.413397878250994 -0.300351139328933 0.713071067430704
      vertex -5.56664372879074e-12 -0.703314478591894 0.547041040935011
      vertex 0.157903938605017 -0.485978352122361 0.713071067430704
    endloop
  endfacet
  facet normal -0.5257311101122798 0.7236067974618706 -0.44721359832532526
    outer loop
      vertex 0.413397878089445 -0.837635592295212 -0.156273437737764
      vertex 0.826795756425375 -0.268642225880394 0.278398814807329
      vertex 0.826795756704344 -0.434672253472125 0.00975658848704361
    endloop
  endfacet
  facet normal -0.5257311120362214 0.7236067975311662 -0.4472135959514736
    outer loop
      vertex 0.668891817864218 -0.217336126078148 0.54704104088129
      vertex 0.157903938419619 -0.920650605277108 0.00975658882475597
      vertex -1.57767105799747e-10 -0.869344505251235 0.278398814920584
    endloop
  endfacet
  facet normal -0.5257311116085536 0.7236067979480395 -0.4472135957797119
    outer loop
      vertex 0.413397878089445 -0.837635592295212 -0.156273437737764
      vertex 0.826795756704344 -0.434672253472125 0.00975658848704361
      vertex 0.668891817884414 -0.652008379706848 -0.156273437882151
    endloop
  endfacet
  facet normal -0.5257311118641568 0.7236067973274961 -0.4472135964832926
    outer loop
      vertex 0.826795756425375 -0.268642225880394 0.278398814807329
      vertex 0.413397878089445 -0.837635592295212 -0.156273437737764
      vertex 0.157903938419619 -0.920650605277108 0.00975658882475597
    endloop
  endfacet
  facet normal -0.356822089631054 0.4911234730114719 -0.794654472464906
    outer loop
      vertex 0.157903938605017 -0.485978352122361 0.713071067430704
      vertex 0.157903938590835 -0.217336126026225 0.879101093881923
      vertex 0.413397878250994 -0.300351139328933 0.713071067430704
    endloop
  endfacet
  facet normal 2.616294580498595e-10 0.9822469462379052 -0.18759247481258332
    outer loop
      vertex 0.157903938419619 -0.920650605277108 0.00975658882475597
      vertex -0.157903938864445 -0.920650605170096 0.0097565889446303
      vertex -1.57767105799747e-10 -0.869344505251235 0.278398814920584
    endloop
  endfacet
  facet normal 8.742539678967396e-10 0.894427191106867 0.44721359528605575
    outer loop
      vertex 0.157903938515142 -0.485978352920773 -0.859587916407673
      vertex 0.157903938419619 -0.920650605277108 0.00975658882475597
      vertex 0.413397878089445 -0.837635592295212 -0.156273437737764
    endloop
  endfacet
  facet normal 4.728312454648881e-10 0.894427191106867 0.44721359528605586
    outer loop
      vertex 0.157903938419619 -0.920650605277108 0.00975658882475597
      vertex 0.157903938515142 -0.485978352920773 -0.859587916407673
      vertex -0.157903938864445 -0.920650605170096 0.0097565889446303
    endloop
  endfacet
  facet normal 8.742566824551032e-10 0.8944271911068664 0.4472135952860569
    outer loop
      vertex 0.413397878155424 -0.568993366340345 -0.693557889968725
      vertex 0.413397878089445 -0.837635592295212 -0.156273437737764
      vertex 0.510987879140963 -0.703314479428636 -0.424915663822308
    endloop
  endfacet
  facet normal 8.742551855762401e-10 0.8944271910485366 0.44721359540271644
    outer loop
      vertex -0.157903938730253 -0.485978352666936 -0.859587916297976
      vertex -0.157903938864445 -0.920650605170096 0.0097565889446303
      vertex 0.157903938515142 -0.485978352920773 -0.859587916407673
    endloop
  endfacet
  facet normal 8.742502572882911e-10 0.8944271911068664 0.44721359528605703
    outer loop
      vertex 0.413397878089445 -0.837635592295212 -0.156273437737764
      vertex 0.413397878155424 -0.568993366340345 -0.693557889968725
      vertex 0.157903938515142 -0.485978352920773 -0.859587916407673
    endloop
  endfacet
  facet normal -1.179092042642619e-10 0.8944271910485366 0.44721359540271644
    outer loop
      vertex -0.157903938864445 -0.920650605170096 0.0097565889446303
      vertex -0.157903938730253 -0.485978352666936 -0.859587916297976
      vertex -0.413397878539956 -0.837635591997203 -0.156273437513644
    endloop
  endfacet
  facet normal 1.3048918356833457e-9 0.8944271908417917 0.4472135958162065
    outer loop
      vertex -0.413397878394642 -0.568993365675793 -0.693557889681536
      vertex -0.413397878539956 -0.837635591997203 -0.156273437513644
      vertex -0.157903938730253 -0.485978352666936 -0.859587916297976
    endloop
  endfacet
  facet normal 2.6984774215775725e-9 0.8944271908417916 0.4472135958162066
    outer loop
      vertex -0.413397878539956 -0.837635591997203 -0.156273437513644
      vertex -0.413397878394642 -0.568993365675793 -0.693557889681536
      vertex -0.510987879451239 -0.703314478556227 -0.424915663569276
    endloop
  endfacet
  facet normal -0.5773502684717019 0.7946544728208168 0.1875924740535279
    outer loop
      vertex 0.668891817884414 -0.652008379706848 -0.156273437882151
      vertex 0.510987879140963 -0.703314479428636 -0.424915663822308
      vertex 0.413397878089445 -0.837635592295212 -0.156273437737764
    endloop
  endfacet
  facet normal -0.8506508092769814 0.2763931962152781 0.4472135974702907
    outer loop
      vertex 0.510987879778942 -8.80321332610415e-10 -0.859587916806083
      vertex 0.826795756290475 0.268642226151517 -0.424915663854798
      vertex 0.668891817597998 0.217336126314441 -0.693557889844919
    endloop
  endfacet
  facet normal -0.8506508092769814 0.2763932001671899 0.4472135950278749
    outer loop
      vertex 0.826795756290475 0.268642226151517 -0.424915663854798
      vertex 0.510987879778942 -8.80321332610415e-10 -0.859587916806083
      vertex 0.924385757392363 0.1343211131648 -0.156273437816049
    endloop
  endfacet
  facet normal -0.8506508086699285 0.2763932037065804 0.4472135939950948
    outer loop
      vertex 0.413397878399073 -0.300351140257366 -0.859587916677603
      vertex 0.924385757392363 0.1343211131648 -0.156273437816049
      vertex 0.510987879778942 -8.80321332610415e-10 -0.859587916806083
    endloop
  endfacet
  facet normal -0.8506508086699286 0.27639320198767825 0.44721359505743463
    outer loop
      vertex 0.924385757392363 0.1343211131648 -0.156273437816049
      vertex 0.413397878399073 -0.300351140257366 -0.859587916677603
      vertex 0.924385757405608 -0.134321112876993 0.00975658872310364
    endloop
  endfacet
  facet normal -0.8506508085168284 0.2763932028803203 0.44721359479696526
    outer loop
      vertex 0.413397878155424 -0.568993366340345 -0.693557889968725
      vertex 0.924385757405608 -0.134321112876993 0.00975658872310364
      vertex 0.413397878399073 -0.300351140257366 -0.859587916677603
    endloop
  endfacet
  facet normal -0.8506508085168284 0.2763932000711846 0.44721359653310666
    outer loop
      vertex 0.924385757405608 -0.134321112876993 0.00975658872310364
      vertex 0.413397878155424 -0.568993366340345 -0.693557889968725
      vertex 0.826795756704344 -0.434672253472125 0.00975658848704361
    endloop
  endfacet
  facet normal -0.8506508079825256 0.2763932031864086 0.4472135956240964
    outer loop
      vertex 0.510987879140963 -0.703314479428636 -0.424915663822308
      vertex 0.826795756704344 -0.434672253472125 0.00975658848704361
      vertex 0.413397878155424 -0.568993366340345 -0.693557889968725
    endloop
  endfacet
  facet normal -0.8506508079825257 0.27639320291205416 0.4472135957936568
    outer loop
      vertex 0.826795756704344 -0.434672253472125 0.00975658848704361
      vertex 0.510987879140963 -0.703314479428636 -0.424915663822308
      vertex 0.668891817884414 -0.652008379706848 -0.156273437882151
    endloop
  endfacet
  facet normal -0.9341723593636996 0.30353099731549865 -0.1875924749810551
    outer loop
      vertex 0.826795756425375 -0.268642225880394 0.278398814807329
      vertex 0.924385757405608 -0.134321112876993 0.00975658872310364
      vertex 0.826795756704344 -0.434672253472125 0.00975658848704361
    endloop
  endfacet
  facet normal 0.5773502691112584 0.7946544720276075 0.1875924754452633
    outer loop
      vertex -0.510987879451239 -0.703314478556227 -0.424915663569276
      vertex -0.668891818153263 -0.652008379186333 -0.156273437503728
      vertex -0.413397878539956 -0.837635591997203 -0.156273437513644
    endloop
  endfacet
  facet normal 0.8506508081929024 0.2763932022145987 0.4472135958245478
    outer loop
      vertex -0.510987878871539 2.70640416941249e-10 -0.859587916300235
      vertex -0.826795756258646 0.268642226334133 -0.424915663854795
      vertex -0.924385757401776 0.134321113332766 -0.156273437828732
    endloop
  endfacet
  facet normal 0.8506508081929024 0.2763932022146035 0.44721359582454484
    outer loop
      vertex -0.826795756258646 0.268642226334133 -0.424915663854795
      vertex -0.510987878871539 2.70640416941249e-10 -0.859587916300235
      vertex -0.668891817544499 0.217336126563749 -0.693557889844919
    endloop
  endfacet
  facet normal 0.8506508081929016 0.2763932022145993 0.4472135958245488
    outer loop
      vertex -0.413397877858054 -0.300351139276839 -0.859587916267441
      vertex -0.924385757401776 0.134321113332766 -0.156273437828732
      vertex -0.924385757478176 -0.134321112721707 0.00975658868990271
    endloop
  endfacet
  facet normal 0.8506508081929016 0.27639320221460306 0.4472135958245465
    outer loop
      vertex -0.924385757401776 0.134321113332766 -0.156273437828732
      vertex -0.413397877858054 -0.300351139276839 -0.859587916267441
      vertex -0.510987878871539 2.70640416941249e-10 -0.859587916300235
    endloop
  endfacet
  facet normal 0.8506508084398695 0.27639320152611074 0.44721359578029735
    outer loop
      vertex -0.413397878394642 -0.568993365675793 -0.693557889681536
      vertex -0.924385757478176 -0.134321112721707 0.00975658868990271
      vertex -0.826795756697092 -0.434672252790406 0.0097565889705928
    endloop
  endfacet
  facet normal 0.8506508084398695 0.2763932007746663 0.44721359624471557
    outer loop
      vertex -0.924385757478176 -0.134321112721707 0.00975658868990271
      vertex -0.413397878394642 -0.568993365675793 -0.693557889681536
      vertex -0.413397877858054 -0.300351139276839 -0.859587916267441
    endloop
  endfacet
  facet normal 0.850650808263017 0.27639320122484684 0.44721359630288204
    outer loop
      vertex -0.510987879451239 -0.703314478556227 -0.424915663569276
      vertex -0.826795756697092 -0.434672252790406 0.0097565889705928
      vertex -0.668891818153263 -0.652008379186333 -0.156273437503728
    endloop
  endfacet
  facet normal 0.850650808263017 0.27639320255723954 0.447213595479418
    outer loop
      vertex -0.826795756697092 -0.434672252790406 0.0097565889705928
      vertex -0.510987879451239 -0.703314478556227 -0.424915663569276
      vertex -0.413397878394642 -0.568993365675793 -0.693557889681536
    endloop
  endfacet
  facet normal 0.93417235943847 0.30353099779731046 -0.18759247382912525
    outer loop
      vertex -0.924385757478176 -0.134321112721707 0.00975658868990271
      vertex -0.826795756608504 -0.268642226104837 0.278398814952673
      vertex -0.826795756697092 -0.434672252790406 0.0097565889705928
    endloop
  endfacet
  facet normal 0.934172358850043 -0.30353099922522037 0.18759247444896565
    outer loop
      vertex -0.826795756258646 0.268642226334133 -0.424915663854795
      vertex -0.826795756334112 0.434672252862643 -0.156273437816049
      vertex -0.924385757401776 0.134321113332766 -0.156273437828732
    endloop
  endfacet
  facet normal 0.525731112165848 -0.7236067977863389 0.4472135953862103
    outer loop
      vertex -0.826795756334112 0.434672252862643 -0.156273437816049
      vertex -0.413397878211623 0.837635591819873 0.00975658868990271
      vertex -0.668891817718831 0.65200837913361 0.00975658872310364
    endloop
  endfacet
  facet normal 0.5257311119838314 -0.7236067977271982 0.44721359569587527
    outer loop
      vertex -0.826795756258646 0.268642226334133 -0.424915663854795
      vertex -0.413397878211623 0.837635591819873 0.00975658868990271
      vertex -0.826795756334112 0.434672252862643 -0.156273437816049
    endloop
  endfacet
  facet normal 0.5257311120067601 -0.7236067977254395 0.4472135956717667
    outer loop
      vertex -0.413397878211623 0.837635591819873 0.00975658868990271
      vertex -0.826795756258646 0.268642226334133 -0.424915663854795
      vertex -0.157903938549854 0.920650605013938 -0.156273437828732
    endloop
  endfacet
  facet normal 0.5257311119834 -0.7236067977178492 0.4472135957115092
    outer loop
      vertex -0.668891817544499 0.217336126563749 -0.693557889844919
      vertex -0.157903938549854 0.920650605013938 -0.156273437828732
      vertex -0.826795756258646 0.268642226334133 -0.424915663854795
    endloop
  endfacet
  facet normal 0.5257311119274024 -0.7236067977221444 0.44721359577038855
    outer loop
      vertex -0.157903938549854 0.920650605013938 -0.156273437828732
      vertex -0.668891817544499 0.217336126563749 -0.693557889844919
      vertex 8.22522652024325e-11 0.869344505127962 -0.424915663854795
    endloop
  endfacet
  facet normal 0.52573111162585 -0.7236067976241642 0.44721359628342017
    outer loop
      vertex -0.413397878126005 0.30035113937725 -0.859587916267438
      vertex 8.22522652024325e-11 0.869344505127962 -0.424915663854795
      vertex -0.668891817544499 0.217336126563749 -0.693557889844919
    endloop
  endfacet
  facet normal 0.5257311120622604 -0.7236067975906901 0.44721359582455134
    outer loop
      vertex 8.22522652024325e-11 0.869344505127962 -0.424915663854795
      vertex -0.413397878126005 0.30035113937725 -0.859587916267438
      vertex 1.17315771016745e-10 0.703314478521055 -0.693557889844919
    endloop
  endfacet
  facet normal 0.5257311120622639 -0.7236067975906912 0.44721359582454534
    outer loop
      vertex 1.17315771016745e-10 0.703314478521055 -0.693557889844919
      vertex -0.413397878126005 0.30035113937725 -0.859587916267438
      vertex -0.157903938483603 0.485978352175605 -0.859587916300231
    endloop
  endfacet
  facet normal 0.577350269160945 -0.7946544723430043 -0.18759247395630144
    outer loop
      vertex -0.413397878211623 0.837635591819873 0.00975658868990271
      vertex -0.510987879146156 0.703314478897988 0.278398814807329
      vertex -0.668891817718831 0.65200837913361 0.00975658872310364
    endloop
  endfacet
  facet normal -1.154539143287482e-10 -0.9822469463073489 0.18759247444897179
    outer loop
      vertex 8.22522652024325e-11 0.869344505127962 -0.424915663854795
      vertex 0.157903938687686 0.92065060497924 -0.156273437816049
      vertex -0.157903938549854 0.920650605013938 -0.156273437828732
    endloop
  endfacet
  facet normal -0.5257311121892253 -0.7236067976401662 0.44721359559524076
    outer loop
      vertex 0.826795756290475 0.268642226151517 -0.424915663854798
      vertex 0.413397878317879 0.83763559172903 0.00975658872310364
      vertex 0.157903938687686 0.92065060497924 -0.156273437816049
    endloop
  endfacet
  facet normal -0.525731111976469 -0.7236067976564853 0.4472135958189459
    outer loop
      vertex 0.826795756390699 0.434672252716118 -0.156273437828732
      vertex 0.413397878317879 0.83763559172903 0.00975658872310364
      vertex 0.826795756290475 0.268642226151517 -0.424915663854798
    endloop
  endfacet
  facet normal -0.5257311121673887 -0.7236067975804057 0.44721359571760605
    outer loop
      vertex 0.668891817597998 0.217336126314441 -0.693557889844919
      vertex 0.157903938687686 0.92065060497924 -0.156273437816049
      vertex 8.22522652024325e-11 0.869344505127962 -0.424915663854795
    endloop
  endfacet
  facet normal -0.5257311119957507 -0.7236067976627503 0.4472135957861421
    outer loop
      vertex 0.413397878317879 0.83763559172903 0.00975658872310364
      vertex 0.826795756390699 0.434672252716118 -0.156273437828732
      vertex 0.668891817819054 0.652008379034466 0.00975658868990271
    endloop
  endfacet
  facet normal -0.5257311123404322 -0.7236067975058214 0.44721359563486124
    outer loop
      vertex 0.413397877901407 0.300351139527972 -0.859587916300235
      vertex 8.22522652024325e-11 0.869344505127962 -0.424915663854795
      vertex 1.17315771016745e-10 0.703314478521055 -0.693557889844919
    endloop
  endfacet
  facet normal -0.5257311120362571 -0.7236067975904641 0.4472135958554859
    outer loop
      vertex 0.157903938687686 0.92065060497924 -0.156273437816049
      vertex 0.668891817597998 0.217336126314441 -0.693557889844919
      vertex 0.826795756290475 0.268642226151517 -0.424915663854798
    endloop
  endfacet
  facet normal -0.5257311116895119 -0.7236067972943243 0.44721359674227307
    outer loop
      vertex 0.413397877901407 0.300351139527972 -0.859587916300235
      vertex 1.17315771016745e-10 0.703314478521055 -0.693557889844919
      vertex 0.157903938251847 0.485978352316477 -0.859587916267441
    endloop
  endfacet
  facet normal -0.5257311120147292 -0.7236067975308036 0.44721359597732574
    outer loop
      vertex 8.22522652024325e-11 0.869344505127962 -0.424915663854795
      vertex 0.413397877901407 0.300351139527972 -0.859587916300235
      vertex 0.668891817597998 0.217336126314441 -0.693557889844919
    endloop
  endfacet
  facet normal -0.5773502692186767 -0.7946544723010602 -0.1875924739562999
    outer loop
      vertex 0.668891817819054 0.652008379034466 0.00975658868990271
      vertex 0.510987879326996 0.703314478746615 0.278398814807329
      vertex 0.413397878317879 0.83763559172903 0.00975658872310364
    endloop
  endfacet
  facet normal -0.9341723589213963 -0.30353099900561553 0.1875924744489683
    outer loop
      vertex 0.826795756290475 0.268642226151517 -0.424915663854798
      vertex 0.924385757392363 0.1343211131648 -0.156273437816049
      vertex 0.826795756390699 0.434672252716118 -0.156273437828732
    endloop
  endfacet
  facet normal -0.35682208890810063 0.4911234739733704 0.7946544721950465
    outer loop
      vertex 0.413397878399073 -0.300351140257366 -0.859587916677603
      vertex 0.157903938515142 -0.485978352920773 -0.859587916407673
      vertex 0.413397878155424 -0.568993366340345 -0.693557889968725
    endloop
  endfacet
  facet normal 3.249964255092946e-9 -6.282114065462154e-10 1
    outer loop
      vertex 0.413397877901407 0.300351139527972 -0.859587916300235
      vertex 0.413397878399073 -0.300351140257366 -0.859587916677603
      vertex 0.510987879778942 -8.80321332610415e-10 -0.859587916806083
    endloop
  endfacet
  facet normal -3.28067050664141e-10 -6.282114095105201e-10 1
    outer loop
      vertex 0.157903938251847 0.485978352316477 -0.859587916267441
      vertex 0.413397878399073 -0.300351140257366 -0.859587916677603
      vertex 0.413397877901407 0.300351139527972 -0.859587916300235
    endloop
  endfacet
  facet normal 1.1613269386236877e-9 -1.4427796640745908e-10 1
    outer loop
      vertex 0.157903938251847 0.485978352316477 -0.859587916267441
      vertex 0.157903938515142 -0.485978352920773 -0.859587916407673
      vertex 0.413397878399073 -0.300351140257366 -0.859587916677603
    endloop
  endfacet
  facet normal -1.0382892682007851e-10 -1.4427796675017927e-10 1
    outer loop
      vertex -0.157903938483603 0.485978352175605 -0.859587916300231
      vertex 0.157903938515142 -0.485978352920773 -0.859587916407673
      vertex 0.157903938251847 0.485978352316477 -0.859587916267441
    endloop
  endfacet
  facet normal 3.4735333131373506e-10 2.3200353353257376e-12 1
    outer loop
      vertex -0.157903938483603 0.485978352175605 -0.859587916300231
      vertex -0.157903938730253 -0.485978352666936 -0.859587916297976
      vertex 0.157903938515142 -0.485978352920773 -0.859587916407673
    endloop
  endfacet
  facet normal 1.26665739654217e-10 2.320035391328841e-12 1
    outer loop
      vertex -0.413397878126005 0.30035113937725 -0.859587916267438
      vertex -0.157903938730253 -0.485978352666936 -0.859587916297976
      vertex -0.157903938483603 0.485978352175605 -0.859587916300231
    endloop
  endfacet
  facet normal 1.195100469384702e-10 -4.990109493788186e-15 1
    outer loop
      vertex -0.413397878126005 0.30035113937725 -0.859587916267438
      vertex -0.413397877858054 -0.300351139276839 -0.859587916267441
      vertex -0.157903938730253 -0.485978352666936 -0.859587916297976
    endloop
  endfacet
  facet normal -3.3605377857879563e-10 -4.9903127039049884e-15 1
    outer loop
      vertex -0.413397877858054 -0.300351139276839 -0.859587916267441
      vertex -0.413397878126005 0.30035113937725 -0.859587916267438
      vertex -0.510987878871539 2.70640416941249e-10 -0.859587916300235
    endloop
  endfacet
  facet normal 0.3568220909568404 0.49112347213084045 0.794654472413851
    outer loop
      vertex -0.413397877858054 -0.300351139276839 -0.859587916267441
      vertex -0.413397878394642 -0.568993365675793 -0.693557889681536
      vertex -0.157903938730253 -0.485978352666936 -0.859587916297976
    endloop
  endfacet
  facet normal 0.5773502690901711 -0.18759247387774064 0.7946544724129703
    outer loop
      vertex -0.413397878126005 0.30035113937725 -0.859587916267438
      vertex -0.668891817544499 0.217336126563749 -0.693557889844919
      vertex -0.510987878871539 2.70640416941249e-10 -0.859587916300235
    endloop
  endfacet
  facet normal 1.882832875231784e-10 -0.6070619980480298 0.7946544724129688
    outer loop
      vertex 0.157903938251847 0.485978352316477 -0.859587916267441
      vertex 1.17315771016745e-10 0.703314478521055 -0.693557889844919
      vertex -0.157903938483603 0.485978352175605 -0.859587916300231
    endloop
  endfacet
  facet normal -0.577350269242478 -0.1875924765417918 0.7946544716734157
    outer loop
      vertex 0.510987879778942 -8.80321332610415e-10 -0.859587916806083
      vertex 0.668891817597998 0.217336126314441 -0.693557889844919
      vertex 0.413397877901407 0.300351139527972 -0.859587916300235
    endloop
  endfacet
  facet normal -3.163951232136582e-15 1.028030073260608e-15 -1
    outer loop
      vertex 0.157903938590835 -0.217336126026225 0.879101093881923
      vertex 2.17852476550343e-12 0.268642226261911 0.879101093881924
      vertex 0.255493939603492 0.0830150134777769 0.879101093881923
    endloop
  endfacet
  facet normal 5.504772432500786e-10 1.7886295470584795e-10 -1
    outer loop
      vertex -0.15790393833758 -0.217336125907885 0.879101093708078
      vertex 2.17852476550343e-12 0.268642226261911 0.879101093881924
      vertex 0.157903938590835 -0.217336126026225 0.879101093881923
    endloop
  endfacet
  facet normal 7.584728788988522e-10 1.1128107604852932e-10 -1
    outer loop
      vertex 2.17852476550343e-12 0.268642226261911 0.879101093881924
      vertex -0.15790393833758 -0.217336125907885 0.879101093708078
      vertex -0.255493939348153 0.0830150135295315 0.879101093667482
    endloop
  endfacet
endsolid OpenSCAD_Model
