solid OpenSCAD_Model
  facet normal 0.5257311119995461 0.7236067974760723 -0.44721359608373207
    outer loop
      vertex -2.09463164963614e-10 -0.710760567044096 0.626866662264056
      vertex -0.417774579428524 -0.303530998731715 0.794654471765395
      vertex -0.159575689818464 -0.491123472745523 0.794654471765395
    endloop
  endfacet
  facet normal 0.5257311119995488 0.7236067974760729 -0.4472135960837277
    outer loop
      vertex -3.63274994516264e-10 -0.878548376710816 0.355380283601738
      vertex -0.417774579428524 -0.303530998731715 0.794654471765395
      vertex -2.09463164963614e-10 -0.710760567044096 0.626866662264056
    endloop
  endfacet
  facet normal 0.5257311119995467 0.7236067974760731 -0.4472135960837298
    outer loop
      vertex -0.417774579428524 -0.303530998731715 0.794654471765395
      vertex -3.63274994516264e-10 -0.878548376710816 0.355380283601738
      vertex -0.675973468926386 -0.219637094142852 0.626866662265525
    endloop
  endfacet
  facet normal 0.5257311119995456 0.7236067974760727 -0.44721359608373157
    outer loop
      vertex -0.159575690052842 -0.930397661452488 0.0838939049783009
      vertex -0.675973468926386 -0.219637094142852 0.626866662265525
      vertex -3.63274994516264e-10 -0.878548376710816 0.355380283601738
    endloop
  endfacet
  facet normal 0.525731111999547 0.7236067974760726 -0.44721359608373
    outer loop
      vertex -0.675973468926386 -0.219637094142852 0.626866662265525
      vertex -0.159575690052842 -0.930397661452488 0.0838939049783009
      vertex -0.835549158596233 -0.271486378903746 0.355380283634167
    endloop
  endfacet
  facet normal 0.5257311119995512 0.723606797476074 -0.44721359608372313
    outer loop
      vertex -0.417774579638234 -0.846503756777565 -0.0838939044852236
      vertex -0.835549158596233 -0.271486378903746 0.355380283634167
      vertex -0.159575690052842 -0.930397661452488 0.0838939049783009
    endloop
  endfacet
  facet normal 0.5257311119995409 0.7236067974760748 -0.44721359608373373
    outer loop
      vertex -0.835549158596233 -0.271486378903746 0.355380283634167
      vertex -0.417774579638234 -0.846503756777565 -0.0838939044852236
      vertex -0.835549158685758 -0.439274188596972 0.0838939050045383
    endloop
  endfacet
  facet normal 0.525731111999547 0.7236067974760767 -0.44721359608372346
    outer loop
      vertex -0.835549158685758 -0.439274188596972 0.0838939050045383
      vertex -0.417774579638234 -0.846503756777565 -0.0838939044852236
      vertex -0.675973469160765 -0.658911282821158 -0.0838939044752024
    endloop
  endfacet
  facet normal 0 0.6070619978360182 -0.7946544725749312
    outer loop
      vertex 0.159575689382992 -0.491123472745523 0.794654471765395
      vertex -2.09463164963614e-10 -0.710760567044096 0.626866662264056
      vertex -0.159575689818464 -0.491123472745523 0.794654471765395
    endloop
  endfacet
  facet normal 0 0.525731111913775 -0.8506508084789586
    outer loop
      vertex -0.159575689818464 -0.491123472745523 0.794654471765395
      vertex 0.159575689368659 -0.219637094000632 0.96244228122179
      vertex 0.159575689382992 -0.491123472745523 0.794654471765395
    endloop
  endfacet
  facet normal 6.652680580154041e-10 0.5257311113478641 -0.8506508088287107
    outer loop
      vertex 0.159575689368659 -0.219637094000632 0.96244228122179
      vertex -0.159575689818464 -0.491123472745523 0.794654471765395
      vertex -0.159575689520399 -0.219637093881039 0.962442281046104
    endloop
  endfacet
  facet normal 0.3568220891835707 0.49112347230282993 -0.7946544731038032
    outer loop
      vertex -0.417774579428524 -0.303530998731715 0.794654471765395
      vertex -0.159575689520399 -0.219637093881039 0.962442281046104
      vertex -0.159575689818464 -0.491123472745523 0.794654471765395
    endloop
  endfacet
  facet normal 0.5773502691280455 0.1875924739733738 -0.794654472362877
    outer loop
      vertex -0.675973468926386 -0.219637094142852 0.626866662265525
      vertex -0.516397779336372 1.56582400507809e-10 0.794654471765395
      vertex -0.417774579428524 -0.303530998731715 0.794654471765395
    endloop
  endfacet
  facet normal 0.49999999901509223 0.16245984771701993 -0.8506508090072392
    outer loop
      vertex -0.417774579428524 -0.303530998731715 0.794654471765395
      vertex -0.258198889458407 0.0838939048852761 0.962442281005078
      vertex -0.159575689520399 -0.219637093881039 0.962442281046104
    endloop
  endfacet
  facet normal 0.49999999901508685 0.16245984771702318 -0.8506508090072415
    outer loop
      vertex -0.258198889458407 0.0838939048852761 0.962442281005078
      vertex -0.417774579428524 -0.303530998731715 0.794654471765395
      vertex -0.516397779336372 1.56582400507809e-10 0.794654471765395
    endloop
  endfacet
  facet normal 0.8506508084040039 -0.2763932023851231 -0.4472135953176192
    outer loop
      vertex -0.835549158318935 0.439274188369852 -0.0838939047908303
      vertex -0.516397779167589 0.710760567053309 0.355380283487284
      vertex -0.417774579292151 0.575017377701881 0.626866662209767
    endloop
  endfacet
  facet normal 0.8506508084040039 -0.276393202385128 -0.4472135953176161
    outer loop
      vertex -0.516397779167589 0.710760567053309 0.355380283487284
      vertex -0.835549158318935 0.439274188369852 -0.0838939047908303
      vertex -0.675973468721733 0.658911282467756 0.0838939047544289
    endloop
  endfacet
  facet normal 0.8506508084040035 -0.27639320238513254 -0.4472135953176138
    outer loop
      vertex -0.934172358314639 0.135743189510097 -0.0838939048036474
      vertex -0.417774579292151 0.575017377701881 0.626866662209767
      vertex -0.417774579346762 0.303530999018312 0.794654471765395
    endloop
  endfacet
  facet normal 0.8506508084040036 -0.27639320238512466 -0.4472135953176187
    outer loop
      vertex -0.417774579292151 0.575017377701881 0.626866662209767
      vertex -0.934172358314639 0.135743189510097 -0.0838939048036474
      vertex -0.835549158318935 0.439274188369852 -0.0838939047908303
    endloop
  endfacet
  facet normal 0.8506508084040032 -0.27639320238513243 -0.44721359531761473
    outer loop
      vertex -0.934172358391848 -0.135743189192691 0.0838939047208765
      vertex -0.417774579346762 0.303530999018312 0.794654471765395
      vertex -0.516397779336372 1.56582400507809e-10 0.794654471765395
    endloop
  endfacet
  facet normal 0.8506508084040031 -0.2763932023851352 -0.4472135953176131
    outer loop
      vertex -0.417774579346762 0.303530999018312 0.794654471765395
      vertex -0.934172358391848 -0.135743189192691 0.0838939047208765
      vertex -0.934172358314639 0.135743189510097 -0.0838939048036474
    endloop
  endfacet
  facet normal 0.8506508083573828 -0.2763932018345248 -0.44721359574658603
    outer loop
      vertex -0.835549158596233 -0.271486378903746 0.355380283634167
      vertex -0.516397779336372 1.56582400507809e-10 0.794654471765395
      vertex -0.675973468926386 -0.219637094142852 0.626866662265525
    endloop
  endfacet
  facet normal 0.8506508083573827 -0.2763932026569496 -0.4472135952382995
    outer loop
      vertex -0.516397779336372 1.56582400507809e-10 0.794654471765395
      vertex -0.835549158596233 -0.271486378903746 0.355380283634167
      vertex -0.934172358391848 -0.135743189192691 0.0838939047208765
    endloop
  endfacet
  facet normal 0.5773502680551721 -0.18759247379671642 -0.7946544731840685
    outer loop
      vertex -0.417774579346762 0.303530999018312 0.794654471765395
      vertex -0.258198889458407 0.0838939048852761 0.962442281005078
      vertex -0.516397779336372 1.56582400507809e-10 0.794654471765395
    endloop
  endfacet
  facet normal 0.3568220897979886 -0.4911234733339717 -0.7946544721906319
    outer loop
      vertex -0.417774579292151 0.575017377701881 0.626866662209767
      vertex -0.15957568977437 0.49112347293391 0.794654471765395
      vertex -0.417774579346762 0.303530999018312 0.794654471765395
    endloop
  endfacet
  facet normal 0.30901699488943224 -0.4253254035652272 -0.8506508084705388
    outer loop
      vertex -0.258198889458407 0.0838939048852761 0.962442281005078
      vertex -0.15957568977437 0.49112347293391 0.794654471765395
      vertex -2.01635997292168e-10 0.271486378762361 0.96244228122179
    endloop
  endfacet
  facet normal 0.30901699380047815 -0.425325403481701 -0.8506508089078877
    outer loop
      vertex -0.15957568977437 0.49112347293391 0.794654471765395
      vertex -0.258198889458407 0.0838939048852761 0.962442281005078
      vertex -0.417774579346762 0.303530999018312 0.794654471765395
    endloop
  endfacet
  facet normal -1.140162846094049e-10 -0.8944271910910854 -0.447213595317619
    outer loop
      vertex -0.15957568973492 0.930397660994554 -0.0838939048036474
      vertex -0.15957568977437 0.49112347293391 0.794654471765395
      vertex -0.417774579292151 0.575017377701881 0.626866662209767
    endloop
  endfacet
  facet normal -8.032019218717543e-11 -0.8944271910910853 -0.4472135953176191
    outer loop
      vertex -0.15957568977437 0.49112347293391 0.794654471765395
      vertex -0.15957568973492 0.930397660994554 -0.0838939048036474
      vertex 0.159575689427083 0.49112347290525 0.794654471765395
    endloop
  endfacet
  facet normal -5.825302145694126e-10 -0.8944271910974948 -0.44721359530480004
    outer loop
      vertex -0.417774579306426 0.846503756298235 0.0838939047208765
      vertex -0.417774579292151 0.575017377701881 0.626866662209767
      vertex -0.516397779167589 0.710760567053309 0.355380283487284
    endloop
  endfacet
  facet normal -8.031035233377719e-11 -0.8944271910910839 -0.447213595317622
    outer loop
      vertex 0.159575689466536 0.930397660959489 -0.0838939047908303
      vertex 0.159575689427083 0.49112347290525 0.794654471765395
      vertex -0.15957568973492 0.930397660994554 -0.0838939048036474
    endloop
  endfacet
  facet normal -6.990685479994532e-11 -0.8944271910974948 -0.44721359530480004
    outer loop
      vertex -0.417774579292151 0.575017377701881 0.626866662209767
      vertex -0.417774579306426 0.846503756298235 0.0838939047208765
      vertex -0.15957568973492 0.930397660994554 -0.0838939048036474
    endloop
  endfacet
  facet normal -8.030118914531006e-11 -0.8944271910910838 -0.4472135953176219
    outer loop
      vertex 0.159575689427083 0.49112347290525 0.794654471765395
      vertex 0.159575689466536 0.930397660959489 -0.0838939047908303
      vertex 0.417774578973332 0.575017377617127 0.626866662209767
    endloop
  endfacet
  facet normal -8.031223485066414e-11 -0.8944271910910855 -0.4472135953176188
    outer loop
      vertex 0.417774579006131 0.846503756206432 0.0838939047544289
      vertex 0.417774578973332 0.575017377617127 0.626866662209767
      vertex 0.159575689466536 0.930397660959489 -0.0838939047908303
    endloop
  endfacet
  facet normal -8.029386551622289e-11 -0.8944271910910855 -0.44721359531761873
    outer loop
      vertex 0.417774578973332 0.575017377617127 0.626866662209767
      vertex 0.417774579006131 0.846503756206432 0.0838939047544289
      vertex 0.516397778942668 0.710760566900333 0.355380283487284
    endloop
  endfacet
  facet normal -5.4514595299599536e-11 -0.6070619979800472 -0.7946544724649028
    outer loop
      vertex 0.159575689427083 0.49112347290525 0.794654471765395
      vertex -2.01635997292168e-10 0.271486378762361 0.96244228122179
      vertex -0.15957568977437 0.49112347293391 0.794654471765395
    endloop
  endfacet
  facet normal -0.35682208988617264 -0.49112347326988637 -0.7946544721906416
    outer loop
      vertex 0.417774578973332 0.575017377617127 0.626866662209767
      vertex 0.41777457896579 0.303530998943286 0.794654471765395
      vertex 0.159575689427083 0.49112347290525 0.794654471765395
    endloop
  endfacet
  facet normal -0.3090169942927986 -0.4253254039987087 -0.8506508084705378
    outer loop
      vertex 0.258198889308773 0.0838939048329735 0.96244228122179
      vertex 0.159575689427083 0.49112347290525 0.794654471765395
      vertex 0.41777457896579 0.303530998943286 0.794654471765395
    endloop
  endfacet
  facet normal -0.30901699427183543 -0.4253254039971008 -0.8506508084789571
    outer loop
      vertex 0.159575689427083 0.49112347290525 0.794654471765395
      vertex 0.258198889308773 0.0838939048329735 0.96244228122179
      vertex -2.01635997292168e-10 0.271486378762361 0.96244228122179
    endloop
  endfacet
  facet normal -0.8506508085002985 -0.2763932024250317 -0.4472135951097908
    outer loop
      vertex 0.835549157968447 0.439274188221775 -0.0838939048036474
      vertex 0.516397778942668 0.710760566900333 0.355380283487284
      vertex 0.675973468415342 0.658911282367562 0.0838939047208765
    endloop
  endfacet
  facet normal -0.8506508085002985 -0.2763932019889805 -0.4472135953792853
    outer loop
      vertex 0.516397778942668 0.710760566900333 0.355380283487284
      vertex 0.835549157968447 0.439274188221775 -0.0838939048036474
      vertex 0.417774578973332 0.575017377617127 0.626866662209767
    endloop
  endfacet
  facet normal -0.8506508084582955 -0.2763932022338764 -0.44721359530782556
    outer loop
      vertex 0.934172357897451 0.135743189340353 -0.0838939047908303
      vertex 0.417774578973332 0.575017377617127 0.626866662209767
      vertex 0.835549157968447 0.439274188221775 -0.0838939048036474
    endloop
  endfacet
  facet normal -0.8506508084582957 -0.276393202205197 -0.44721359532555044
    outer loop
      vertex 0.417774578973332 0.575017377617127 0.626866662209767
      vertex 0.934172357897451 0.135743189340353 -0.0838939047908303
      vertex 0.41777457896579 0.303530998943286 0.794654471765395
    endloop
  endfacet
  facet normal -0.8506508084536357 -0.27639320223236585 -0.44721359531762267
    outer loop
      vertex 0.934172357910837 -0.135743189349621 0.0838939047544289
      vertex 0.41777457896579 0.303530998943286 0.794654471765395
      vertex 0.934172357897451 0.135743189340353 -0.0838939047908303
    endloop
  endfacet
  facet normal -0.8506508084536359 -0.2763932022323673 -0.44721359531762184
    outer loop
      vertex 0.41777457896579 0.303530998943286 0.794654471765395
      vertex 0.934172357910837 -0.135743189349621 0.0838939047544289
      vertex 0.516397778900891 6.38433913023845e-11 0.794654471765395
    endloop
  endfacet
  facet normal -0.8506508084536324 -0.2763932022323864 -0.4472135953176162
    outer loop
      vertex 0.83554915800349 -0.271486378676927 0.355380283487284
      vertex 0.516397778900891 6.38433913023845e-11 0.794654471765395
      vertex 0.934172357910837 -0.135743189349621 0.0838939047544289
    endloop
  endfacet
  facet normal -0.8506508084536325 -0.2763932022323861 -0.44721359531761656
    outer loop
      vertex 0.516397778900891 6.38433913023845e-11 0.794654471765395
      vertex 0.83554915800349 -0.271486378676927 0.355380283487284
      vertex 0.675973468460984 -0.219637094053104 0.626866662209767
    endloop
  endfacet
  facet normal -0.5773502689841858 -0.18759247398394174 -0.7946544724649025
    outer loop
      vertex 0.516397778900891 6.38433913023845e-11 0.794654471765395
      vertex 0.258198889308773 0.0838939048329735 0.96244228122179
      vertex 0.41777457896579 0.303530998943286 0.794654471765395
    endloop
  endfacet
  facet normal -0.5773502693087917 0.18759247414672192 -0.7946544721906351
    outer loop
      vertex 0.675973468460984 -0.219637094053104 0.626866662209767
      vertex 0.417774578938538 -0.303530998806744 0.794654471765395
      vertex 0.516397778900891 6.38433913023845e-11 0.794654471765395
    endloop
  endfacet
  facet normal -0.4999999997988576 0.1624598480709496 -0.8506508084789589
    outer loop
      vertex 0.417774578938538 -0.303530998806744 0.794654471765395
      vertex 0.258198889308773 0.0838939048329735 0.96244228122179
      vertex 0.516397778900891 6.38433913023845e-11 0.794654471765395
    endloop
  endfacet
  facet normal -0.4999999998167638 0.16245984805992772 -0.850650808470539
    outer loop
      vertex 0.258198889308773 0.0838939048329735 0.96244228122179
      vertex 0.417774578938538 -0.303530998806744 0.794654471765395
      vertex 0.159575689368659 -0.219637094000632 0.96244228122179
    endloop
  endfacet
  facet normal -0.5257311122380167 0.7236067975967331 -0.44721359560815965
    outer loop
      vertex -3.63274994516264e-10 -0.878548376710816 0.355380283601738
      vertex 0.417774578938538 -0.303530998806744 0.794654471765395
      vertex 0.675973468460984 -0.219637094053104 0.626866662209767
    endloop
  endfacet
  facet normal -0.525731112283403 0.7236067975932519 -0.4472135955604375
    outer loop
      vertex -2.09463164963614e-10 -0.710760567044096 0.626866662264056
      vertex 0.417774578938538 -0.303530998806744 0.794654471765395
      vertex -3.63274994516264e-10 -0.878548376710816 0.355380283601738
    endloop
  endfacet
  facet normal -0.5257311124041343 0.723606797502946 -0.4472135955646272
    outer loop
      vertex 0.15957568919563 -0.930397661560633 0.0838939048571575
      vertex 0.675973468460984 -0.219637094053104 0.626866662209767
      vertex 0.83554915800349 -0.271486378676927 0.355380283487284
    endloop
  endfacet
  facet normal -0.5257311118933258 0.7236067974665079 -0.4472135962240767
    outer loop
      vertex 0.417774578938538 -0.303530998806744 0.794654471765395
      vertex -2.09463164963614e-10 -0.710760567044096 0.626866662264056
      vertex 0.159575689382992 -0.491123472745523 0.794654471765395
    endloop
  endfacet
  facet normal -0.5257311101122806 0.7236067974618706 -0.44721359832532404
    outer loop
      vertex 0.417774578775279 -0.846503757078729 -0.0838939047117158
      vertex 0.83554915800349 -0.271486378676927 0.355380283487284
      vertex 0.835549158285412 -0.439274189285908 0.0838939045158697
    endloop
  endfacet
  facet normal -0.5257311120362221 0.7236067975311661 -0.4472135959514731
    outer loop
      vertex 0.675973468460984 -0.219637094053104 0.626866662209767
      vertex 0.15957568919563 -0.930397661560633 0.0838939048571575
      vertex -3.63274994516264e-10 -0.878548376710816 0.355380283601738
    endloop
  endfacet
  facet normal -0.5257311116085563 0.7236067979480401 -0.4472135957797079
    outer loop
      vertex 0.417774578775279 -0.846503757078729 -0.0838939047117158
      vertex 0.835549158285412 -0.439274189285908 0.0838939045158697
      vertex 0.675973468481394 -0.658911283347184 -0.0838939048576319
    endloop
  endfacet
  facet normal -0.5257311118641559 0.7236067973274964 -0.4472135964832934
    outer loop
      vertex 0.83554915800349 -0.271486378676927 0.355380283487284
      vertex 0.417774578775279 -0.846503757078729 -0.0838939047117158
      vertex 0.15957568919563 -0.930397661560633 0.0838939048571575
    endloop
  endfacet
  facet normal -0.35682208963105344 0.4911234730114737 -0.7946544724649052
    outer loop
      vertex 0.159575689382992 -0.491123472745523 0.794654471765395
      vertex 0.159575689368659 -0.219637094000632 0.96244228122179
      vertex 0.417774578938538 -0.303530998806744 0.794654471765395
    endloop
  endfacet
  facet normal 2.616295890114833e-10 0.9822469462379051 -0.18759247481258376
    outer loop
      vertex 0.15957568919563 -0.930397661560633 0.0838939048571575
      vertex -0.159575690052842 -0.930397661452488 0.0838939049783009
      vertex -3.63274994516264e-10 -0.878548376710816 0.355380283601738
    endloop
  endfacet
  facet normal 8.742522113551589e-10 0.8944271911068665 0.44721359528605675
    outer loop
      vertex 0.159575689292165 -0.491123473552388 -0.794654471684592
      vertex 0.15957568919563 -0.930397661560633 0.0838939048571575
      vertex 0.417774578775279 -0.846503757078729 -0.0838939047117158
    endloop
  endfacet
  facet normal 4.728312590640409e-10 0.8944271911068664 0.44721359528605664
    outer loop
      vertex 0.15957568919563 -0.930397661560633 0.0838939048571575
      vertex 0.159575689292165 -0.491123473552388 -0.794654471684592
      vertex -0.159575690052842 -0.930397661452488 0.0838939049783009
    endloop
  endfacet
  facet normal 8.742493958465539e-10 0.8944271911068667 0.44721359528605625
    outer loop
      vertex 0.417774578841956 -0.575017378476602 -0.626866662240599
      vertex 0.417774578775279 -0.846503757078729 -0.0838939047117158
      vertex 0.516397778754665 -0.710760567889696 -0.355380283444893
    endloop
  endfacet
  facet normal 8.742536634999698e-10 0.8944271910485363 0.4472135954027168
    outer loop
      vertex -0.159575689917229 -0.491123473295864 -0.794654471573734
      vertex -0.159575690052842 -0.930397661452488 0.0838939049783009
      vertex 0.159575689292165 -0.491123473552388 -0.794654471684592
    endloop
  endfacet
  facet normal 8.742538149014903e-10 0.8944271911068667 0.44721359528605625
    outer loop
      vertex 0.417774578775279 -0.846503757078729 -0.0838939047117158
      vertex 0.417774578841956 -0.575017378476602 -0.626866662240599
      vertex 0.159575689292165 -0.491123473552388 -0.794654471684592
    endloop
  endfacet
  facet normal -1.1790782777266194e-10 0.8944271910485365 0.4472135954027169
    outer loop
      vertex -0.159575690052842 -0.930397661452488 0.0838939049783009
      vertex -0.159575689917229 -0.491123473295864 -0.794654471573734
      vertex -0.417774579638234 -0.846503756777565 -0.0838939044852236
    endloop
  endfacet
  facet normal 1.3048917192975492e-9 0.8944271908417916 0.4472135958162066
    outer loop
      vertex -0.417774579491382 -0.575017377805014 -0.626866661950369
      vertex -0.417774579638234 -0.846503756777565 -0.0838939044852236
      vertex -0.159575689917229 -0.491123473295864 -0.794654471573734
    endloop
  endfacet
  facet normal 2.6984770493903963e-9 0.8944271908417916 0.4472135958162066
    outer loop
      vertex -0.417774579638234 -0.846503756777565 -0.0838939044852236
      vertex -0.417774579491382 -0.575017377805014 -0.626866661950369
      vertex -0.516397779475902 -0.710760567008051 -0.355380283189183
    endloop
  endfacet
  facet normal -0.5773502684717023 0.7946544728208159 0.1875924740535303
    outer loop
      vertex 0.675973468481394 -0.658911283347184 -0.0838939048576319
      vertex 0.516397778754665 -0.710760567889696 -0.355380283444893
      vertex 0.417774578775279 -0.846503757078729 -0.0838939047117158
    endloop
  endfacet
  facet normal -0.8506508093048863 0.27639319605258306 0.44721359751776374
    outer loop
      vertex 0.516397779833113 -2.31763901320113e-11 -0.794654471962544
      vertex 0.835549157867161 0.271486378650799 -0.355380283477728
      vertex 0.675973468191946 0.219637093991777 -0.626866662115482
    endloop
  endfacet
  facet normal -0.8506508093048863 0.2763932001106482 0.44721359500974156
    outer loop
      vertex 0.835549157867161 0.271486378650799 -0.355380283477728
      vertex 0.516397779833113 -2.31763901320113e-11 -0.794654471962544
      vertex 0.934172357897451 0.135743189340353 -0.0838939047908303
    endloop
  endfacet
  facet normal -0.8506508086474155 0.276393203943998 0.4472135938911852
    outer loop
      vertex 0.417774579207825 -0.303530999425688 -0.794654471833106
      vertex 0.934172357897451 0.135743189340353 -0.0838939047908303
      vertex 0.516397779833113 -2.31763901320113e-11 -0.794654471962544
    endloop
  endfacet
  facet normal -0.8506508086474154 0.2763932020068275 0.4472135950884223
    outer loop
      vertex 0.934172357897451 0.135743189340353 -0.0838939047908303
      vertex 0.417774579207825 -0.303530999425688 -0.794654471833106
      vertex 0.934172357910837 -0.135743189349621 0.0838939047544289
    endloop
  endfacet
  facet normal -0.8506508085168281 0.27639320276821 0.44721359486625395
    outer loop
      vertex 0.417774578841956 -0.575017378476602 -0.626866662240599
      vertex 0.934172357910837 -0.135743189349621 0.0838939047544289
      vertex 0.417774579207825 -0.303530999425688 -0.794654471833106
    endloop
  endfacet
  facet normal -0.8506508085168281 0.27639320007118623 0.44721359653310616
    outer loop
      vertex 0.934172357910837 -0.135743189349621 0.0838939047544289
      vertex 0.417774578841956 -0.575017378476602 -0.626866662240599
      vertex 0.835549158285412 -0.439274189285908 0.0838939045158697
    endloop
  endfacet
  facet normal -0.8506508079825251 0.27639320318641214 0.44721359562409563
    outer loop
      vertex 0.516397778754665 -0.710760567889696 -0.355380283444893
      vertex 0.835549158285412 -0.439274189285908 0.0838939045158697
      vertex 0.417774578841956 -0.575017378476602 -0.626866662240599
    endloop
  endfacet
  facet normal -0.850650807982525 0.27639320291205466 0.4472135957936577
    outer loop
      vertex 0.835549158285412 -0.439274189285908 0.0838939045158697
      vertex 0.516397778754665 -0.710760567889696 -0.355380283444893
      vertex 0.675973468481394 -0.658911283347184 -0.0838939048576319
    endloop
  endfacet
  facet normal -0.934172359363699 0.3035309973155003 -0.18759247498105433
    outer loop
      vertex 0.83554915800349 -0.271486378676927 0.355380283487284
      vertex 0.934172357910837 -0.135743189349621 0.0838939047544289
      vertex 0.835549158285412 -0.439274189285908 0.0838939045158697
    endloop
  endfacet
  facet normal 0.5773502691112583 0.7946544720276081 0.1875924754452614
    outer loop
      vertex -0.516397779475902 -0.710760567008051 -0.355380283189183
      vertex -0.675973469160765 -0.658911282821158 -0.0838939044752024
      vertex -0.417774579638234 -0.846503756777565 -0.0838939044852236
    endloop
  endfacet
  facet normal 0.8506508074907498 0.276393203637314 0.4472135962808349
    outer loop
      vertex -0.516397778144418 8.06955507112621e-10 -0.794654471603802
      vertex -0.83554915824267 0.271486378835348 -0.355380283477725
      vertex -0.934172358314639 0.135743189510097 -0.0838939048036474
    endloop
  endfacet
  facet normal 0.8506508074907498 0.27639320630847025 0.4472135946299695
    outer loop
      vertex -0.83554915824267 0.271486378835348 -0.355380283477725
      vertex -0.516397778144418 8.06955507112621e-10 -0.794654471603802
      vertex -0.675973468545556 0.219637094243725 -0.626866662115482
    endloop
  endfacet
  facet normal 0.8506508081929016 0.276393202214599 0.44721359582454906
    outer loop
      vertex -0.417774578949113 -0.303530998754098 -0.794654471542876
      vertex -0.934172358314639 0.135743189510097 -0.0838939048036474
      vertex -0.934172358391848 -0.135743189192691 0.0838939047208765
    endloop
  endfacet
  facet normal 0.8506508081929016 0.2763931995434548 0.4472135974754069
    outer loop
      vertex -0.934172358314639 0.135743189510097 -0.0838939048036474
      vertex -0.417774578949113 -0.303530998754098 -0.794654471542876
      vertex -0.516397778144418 8.06955507112621e-10 -0.794654471603802
    endloop
  endfacet
  facet normal 0.8506508084398693 0.27639320152611174 0.44721359578029696
    outer loop
      vertex -0.417774579491382 -0.575017377805014 -0.626866661950369
      vertex -0.934172358391848 -0.135743189192691 0.0838939047208765
      vertex -0.835549158685758 -0.439274188596972 0.0838939050045383
    endloop
  endfacet
  facet normal 0.8506508084398694 0.27639320077466634 0.4472135962447157
    outer loop
      vertex -0.934172358391848 -0.135743189192691 0.0838939047208765
      vertex -0.417774579491382 -0.575017377805014 -0.626866661950369
      vertex -0.417774578949113 -0.303530998754098 -0.794654471542876
    endloop
  endfacet
  facet normal 0.8506508082630179 0.2763932012248483 0.44721359630287977
    outer loop
      vertex -0.516397779475902 -0.710760567008051 -0.355380283189183
      vertex -0.835549158685758 -0.439274188596972 0.0838939050045383
      vertex -0.675973469160765 -0.658911282821158 -0.0838939044752024
    endloop
  endfacet
  facet normal 0.8506508082630178 0.27639320255723576 0.44721359547941913
    outer loop
      vertex -0.835549158685758 -0.439274188596972 0.0838939050045383
      vertex -0.516397779475902 -0.710760567008051 -0.355380283189183
      vertex -0.417774579491382 -0.575017377805014 -0.626866661950369
    endloop
  endfacet
  facet normal 0.9341723594384699 0.30353099779731196 -0.18759247382912334
    outer loop
      vertex -0.934172358391848 -0.135743189192691 0.0838939047208765
      vertex -0.835549158596233 -0.271486378903746 0.355380283634167
      vertex -0.835549158685758 -0.439274188596972 0.0838939050045383
    endloop
  endfacet
  facet normal 0.9341723588500428 -0.30353099922522064 0.1875924744489662
    outer loop
      vertex -0.83554915824267 0.271486378835348 -0.355380283477725
      vertex -0.835549158318935 0.439274188369852 -0.0838939047908303
      vertex -0.934172358314639 0.135743189510097 -0.0838939048036474
    endloop
  endfacet
  facet normal 0.525731112165846 -0.7236067977863392 0.44721359538621214
    outer loop
      vertex -0.835549158318935 0.439274188369852 -0.0838939047908303
      vertex -0.417774579306426 0.846503756298235 0.0838939047208765
      vertex -0.675973468721733 0.658911282467756 0.0838939047544289
    endloop
  endfacet
  facet normal 0.5257311119838302 -0.7236067977271987 0.44721359569587615
    outer loop
      vertex -0.83554915824267 0.271486378835348 -0.355380283477725
      vertex -0.417774579306426 0.846503756298235 0.0838939047208765
      vertex -0.835549158318935 0.439274188369852 -0.0838939047908303
    endloop
  endfacet
  facet normal 0.5257311120067598 -0.7236067977254399 0.44721359567176644
    outer loop
      vertex -0.417774579306426 0.846503756298235 0.0838939047208765
      vertex -0.83554915824267 0.271486378835348 -0.355380283477725
      vertex -0.15957568973492 0.930397660994554 -0.0838939048036474
    endloop
  endfacet
  facet normal 0.5257311119833998 -0.7236067977178497 0.4472135957115087
    outer loop
      vertex -0.675973468545556 0.219637094243725 -0.626866662115482
      vertex -0.15957568973492 0.930397660994554 -0.0838939048036474
      vertex -0.83554915824267 0.271486378835348 -0.355380283477725
    endloop
  endfacet
  facet normal 0.525731111927402 -0.723606797722145 0.4472135957703884
    outer loop
      vertex -0.15957568973492 0.930397660994554 -0.0838939048036474
      vertex -0.675973468545556 0.219637094243725 -0.626866662115482
      vertex -1.20714505017157e-10 0.878548376286115 -0.355380283477725
    endloop
  endfacet
  facet normal 0.5257311123367546 -0.7236067978551517 0.4472135950739563
    outer loop
      vertex -0.417774577491876 0.303531000200612 -0.794654471733243
      vertex -1.20714505017157e-10 0.878548376286115 -0.355380283477725
      vertex -0.675973468545556 0.219637094243725 -0.626866662115482
    endloop
  endfacet
  facet normal 0.52573111142641 -0.7236067979249778 0.447213596031149
    outer loop
      vertex -1.20714505017157e-10 0.878548376286115 -0.355380283477725
      vertex -0.417774577491876 0.303531000200612 -0.794654471733243
      vertex -8.52797769851552e-11 0.710760566672386 -0.626866662115482
    endloop
  endfacet
  facet normal 0.525731112409982 -0.7236067982445599 0.4472135943577964
    outer loop
      vertex -8.52797769851552e-11 0.710760566672386 -0.626866662115482
      vertex -0.417774577491876 0.303531000200612 -0.794654471733243
      vertex -0.15957568755937 0.491123474304129 -0.794654471881757
    endloop
  endfacet
  facet normal 0.5773502691609437 -0.7946544723430057 -0.18759247395629974
    outer loop
      vertex -0.417774579306426 0.846503756298235 0.0838939047208765
      vertex -0.516397779167589 0.710760567053309 0.355380283487284
      vertex -0.675973468721733 0.658911282467756 0.0838939047544289
    endloop
  endfacet
  facet normal -1.1545286135699394e-10 -0.9822469463073487 0.18759247444897265
    outer loop
      vertex -1.20714505017157e-10 0.878548376286115 -0.355380283477725
      vertex 0.159575689466536 0.930397660959489 -0.0838939047908303
      vertex -0.15957568973492 0.930397660994554 -0.0838939048036474
    endloop
  endfacet
  facet normal -0.5257311121892236 -0.7236067976401662 0.4472135955952426
    outer loop
      vertex 0.835549157867161 0.271486378650799 -0.355380283477728
      vertex 0.417774579006131 0.846503756206432 0.0838939047544289
      vertex 0.159575689466536 0.930397660959489 -0.0838939047908303
    endloop
  endfacet
  facet normal -0.52573111197647 -0.7236067976564853 0.4472135958189449
    outer loop
      vertex 0.835549157968447 0.439274188221775 -0.0838939048036474
      vertex 0.417774579006131 0.846503756206432 0.0838939047544289
      vertex 0.835549157867161 0.271486378650799 -0.355380283477728
    endloop
  endfacet
  facet normal -0.5257311121673881 -0.7236067975804057 0.4472135957176067
    outer loop
      vertex 0.675973468191946 0.219637093991777 -0.626866662115482
      vertex 0.159575689466536 0.930397660959489 -0.0838939047908303
      vertex -1.20714505017157e-10 0.878548376286115 -0.355380283477725
    endloop
  endfacet
  facet normal -0.5257311119957531 -0.7236067976627507 0.4472135957861388
    outer loop
      vertex 0.417774579006131 0.846503756206432 0.0838939047544289
      vertex 0.835549157968447 0.439274188221775 -0.0838939048036474
      vertex 0.675973468415342 0.658911282367562 0.0838939047208765
    endloop
  endfacet
  facet normal -0.5257311091203093 -0.7236067991987414 0.44721359668114036
    outer loop
      vertex 0.417774580610553 0.303530999529025 -0.794654472023473
      vertex -1.20714505017157e-10 0.878548376286115 -0.355380283477725
      vertex -8.52797769851552e-11 0.710760566672386 -0.626866662115482
    endloop
  endfacet
  facet normal -0.5257311120362556 -0.723606797590464 0.4472135958554876
    outer loop
      vertex 0.159575689466536 0.930397660959489 -0.0838939047908303
      vertex 0.675973468191946 0.219637093991777 -0.626866662115482
      vertex 0.835549157867161 0.271486378650799 -0.355380283477728
    endloop
  endfacet
  facet normal -0.5257311178055848 -0.7236068020207584 0.4472135819048668
    outer loop
      vertex 0.417774580610553 0.303530999529025 -0.794654472023473
      vertex -8.52797769851552e-11 0.710760566672386 -0.626866662115482
      vertex 0.159575691561823 0.491123474047604 -0.794654471992614
    endloop
  endfacet
  facet normal -0.5257311156149391 -0.723606798700583 0.44721358985228227
    outer loop
      vertex -1.20714505017157e-10 0.878548376286115 -0.355380283477725
      vertex 0.417774580610553 0.303530999529025 -0.794654472023473
      vertex 0.675973468191946 0.219637093991777 -0.626866662115482
    endloop
  endfacet
  facet normal -0.5773502692186779 -0.794654472301059 -0.1875924739563016
    outer loop
      vertex 0.675973468415342 0.658911282367562 0.0838939047208765
      vertex 0.516397778942668 0.710760566900333 0.355380283487284
      vertex 0.417774579006131 0.846503756206432 0.0838939047544289
    endloop
  endfacet
  facet normal -0.9341723589213967 -0.30353099900561376 0.187592474448969
    outer loop
      vertex 0.835549157867161 0.271486378650799 -0.355380283477728
      vertex 0.934172357897451 0.135743189340353 -0.0838939047908303
      vertex 0.835549157968447 0.439274188221775 -0.0838939048036474
    endloop
  endfacet
  facet normal -0.35682208926786735 0.4911234733337001 0.794654472428839
    outer loop
      vertex 0.417774579207825 -0.303530999425688 -0.794654471833106
      vertex 0.159575689292165 -0.491123473552388 -0.794654471684592
      vertex 0.417774578841956 -0.575017378476602 -0.626866662240599
    endloop
  endfacet
  facet normal 7.639628038301959e-10 0.6070619972965046 0.7946544729870829
    outer loop
      vertex -2.88005159432024e-11 -0.271486378634465 -0.962442281269518
      vertex -0.159575689917229 -0.491123473295864 -0.794654471573734
      vertex 0.159575689292165 -0.491123473552388 -0.794654471684592
    endloop
  endfacet
  facet normal -0.30901699365072416 0.4253254040358588 0.8506508086852099
    outer loop
      vertex 0.25819888983956 -0.0838939046241776 -0.962442281377005
      vertex 0.159575689292165 -0.491123473552388 -0.794654471684592
      vertex 0.417774579207825 -0.303530999425688 -0.794654471833106
    endloop
  endfacet
  facet normal -0.30901699365073526 0.42532540403585967 0.8506508086852055
    outer loop
      vertex 0.159575689292165 -0.491123473552388 -0.794654471684592
      vertex 0.25819888983956 -0.0838939046241776 -0.962442281377005
      vertex -2.88005159432024e-11 -0.271486378634465 -0.962442281269518
    endloop
  endfacet
  facet normal 0.3568220909568403 0.4911234721308416 0.7946544724138501
    outer loop
      vertex -0.417774578949113 -0.303530998754098 -0.794654471542876
      vertex -0.417774579491382 -0.575017377805014 -0.626866661950369
      vertex -0.159575689917229 -0.491123473295864 -0.794654471573734
    endloop
  endfacet
  facet normal 0.30901699468303995 0.42532540337826513 0.8506508086389961
    outer loop
      vertex -0.258198888878245 -0.0838939043730725 -0.962442281414346
      vertex -0.159575689917229 -0.491123473295864 -0.794654471573734
      vertex -2.88005159432024e-11 -0.271486378634465 -0.962442281269518
    endloop
  endfacet
  facet normal 0.3090169955538837 0.4253254034450616 0.8506508082892454
    outer loop
      vertex -0.159575689917229 -0.491123473295864 -0.794654471573734
      vertex -0.258198888878245 -0.0838939043730725 -0.962442281414346
      vertex -0.417774578949113 -0.303530998754098 -0.794654471542876
    endloop
  endfacet
  facet normal 0.5773502702769525 0.18759247273505902 0.7946544718204737
    outer loop
      vertex -0.258198888878245 -0.0838939043730725 -0.962442281414346
      vertex -0.516397778144418 8.06955507112621e-10 -0.794654471603802
      vertex -0.417774578949113 -0.303530998754098 -0.794654471542876
    endloop
  endfacet
  facet normal 0.5773502677224476 -0.1875924742819494 0.7946544733112587
    outer loop
      vertex -0.417774577491876 0.303531000200612 -0.794654471733243
      vertex -0.675973468545556 0.219637094243725 -0.626866662115482
      vertex -0.516397778144418 8.06955507112621e-10 -0.794654471603802
    endloop
  endfacet
  facet normal 0.5000000006432526 -0.16245984885637277 0.8506508078326335
    outer loop
      vertex -0.417774577491876 0.303531000200612 -0.794654471733243
      vertex -0.258198888878245 -0.0838939043730725 -0.962442281414346
      vertex -0.159575688229445 0.219637094977594 -0.962442281543784
    endloop
  endfacet
  facet normal 0.5000000006611736 -0.1624598488453417 0.8506508078242065
    outer loop
      vertex -0.258198888878245 -0.0838939043730725 -0.962442281414346
      vertex -0.417774577491876 0.303531000200612 -0.794654471733243
      vertex -0.516397778144418 8.06955507112621e-10 -0.794654471603802
    endloop
  endfacet
  facet normal 0.35682209005487525 -0.4911234732514301 0.794654472126296
    outer loop
      vertex -0.159575688229445 0.219637094977594 -0.962442281543784
      vertex -0.15957568755937 0.491123474304129 -0.794654471881757
      vertex -0.417774577491876 0.303531000200612 -0.794654471733243
    endloop
  endfacet
  facet normal -2.119169643421938e-10 -0.6070620017131798 0.7946544696130434
    outer loop
      vertex 0.159575691561823 0.491123474047604 -0.794654471992614
      vertex -8.52797769851552e-11 0.710760566672386 -0.626866662115482
      vertex -0.15957568755937 0.491123474304129 -0.794654471881757
    endloop
  endfacet
  facet normal -1.2709516536736484e-10 -0.5257311115513523 0.8506508087029481
    outer loop
      vertex -0.15957568755937 0.491123474304129 -0.794654471881757
      vertex 0.159575690849707 0.219637094711346 -0.962442281654645
      vertex 0.159575691561823 0.491123474047604 -0.794654471992614
    endloop
  endfacet
  facet normal -1.431009988208404e-10 -0.5257311115649677 0.8506508086945334
    outer loop
      vertex 0.159575690849707 0.219637094711346 -0.962442281654645
      vertex -0.15957568755937 0.491123474304129 -0.794654471881757
      vertex -0.159575688229445 0.219637094977594 -0.962442281543784
    endloop
  endfacet
  facet normal -0.35682209048639574 -0.4911234718375148 0.794654472806379
    outer loop
      vertex 0.159575690849707 0.219637094711346 -0.962442281654645
      vertex 0.417774580610553 0.303530999529025 -0.794654472023473
      vertex 0.159575691561823 0.491123474047604 -0.794654471992614
    endloop
  endfacet
  facet normal -0.5773502732999821 -0.18759247345559354 0.7946544694540191
    outer loop
      vertex 0.516397779833113 -2.31763901320113e-11 -0.794654471962544
      vertex 0.675973468191946 0.219637093991777 -0.626866662115482
      vertex 0.417774580610553 0.303530999529025 -0.794654472023473
    endloop
  endfacet
  facet normal -0.4999999997844277 -0.16245984631203927 0.8506508088233625
    outer loop
      vertex 0.417774580610553 0.303530999529025 -0.794654472023473
      vertex 0.25819888983956 -0.0838939046241776 -0.962442281377005
      vertex 0.516397779833113 -2.31763901320113e-11 -0.794654471962544
    endloop
  endfacet
  facet normal -0.5000000007145039 -0.16245984573954322 0.8506508083860145
    outer loop
      vertex 0.25819888983956 -0.0838939046241776 -0.962442281377005
      vertex 0.417774580610553 0.303530999529025 -0.794654472023473
      vertex 0.159575690849707 0.219637094711346 -0.962442281654645
    endloop
  endfacet
  facet normal -0.5773502683339441 0.18759247510107774 0.7946544726736106
    outer loop
      vertex 0.25819888983956 -0.0838939046241776 -0.962442281377005
      vertex 0.417774579207825 -0.303530999425688 -0.794654471833106
      vertex 0.516397779833113 -2.31763901320113e-11 -0.794654471962544
    endloop
  endfacet
  facet normal 0 0 -1
    outer loop
      vertex 0.159575689368659 -0.219637094000632 0.96244228122179
      vertex -2.01635997292168e-10 0.271486378762361 0.96244228122179
      vertex 0.258198889308773 0.0838939048329735 0.96244228122179
    endloop
  endfacet
  facet normal 5.504786534823106e-10 1.7886135685792927e-10 -1
    outer loop
      vertex -0.159575689520399 -0.219637093881039 0.962442281046104
      vertex -2.01635997292168e-10 0.271486378762361 0.96244228122179
      vertex 0.159575689368659 -0.219637094000632 0.96244228122179
    endloop
  endfacet
  facet normal 7.584721096351977e-10 1.1128018636175081e-10 -1
    outer loop
      vertex -2.01635997292168e-10 0.271486378762361 0.96244228122179
      vertex -0.159575689520399 -0.219637093881039 0.962442281046104
      vertex -0.258198889458407 0.0838939048852761 0.962442281005078
    endloop
  endfacet
  facet normal -2.0085729353628913e-10 8.494378590555639e-10 1
    outer loop
      vertex 0.159575690849707 0.219637094711346 -0.962442281654645
      vertex -2.88005159432024e-11 -0.271486378634465 -0.962442281269518
      vertex 0.25819888983956 -0.0838939046241776 -0.962442281377005
    endloop
  endfacet
  facet normal 3.4736176780949577e-10 6.713106869392718e-10 1
    outer loop
      vertex -0.159575688229445 0.219637094977594 -0.962442281543784
      vertex -2.88005159432024e-11 -0.271486378634465 -0.962442281269518
      vertex 0.159575690849707 0.219637094711346 -0.962442281654645
    endloop
  endfacet
  facet normal -2.0313505896744244e-10 4.924434270644346e-10 1
    outer loop
      vertex -2.88005159432024e-11 -0.271486378634465 -0.962442281269518
      vertex -0.159575688229445 0.219637094977594 -0.962442281543784
      vertex -0.258198888878245 -0.0838939043730725 -0.962442281414346
    endloop
  endfacet
endsolid OpenSCAD_Model
