solid OpenSCAD_Model
  facet normal 0.5257311119995478 0.7236067974760736 -0.44721359608372746
    outer loop
      vertex -0.0573867771023023 -0.678842616709787 0.577869148150505
      vertex -0.467360355184649 -0.27921714515994 0.742523897485538
      vertex -0.213982749423672 -0.463306751417275 0.742523897485538
    endloop
  endfacet
  facet normal 0.5257311119995469 0.7236067974760731 -0.44721359608372924
    outer loop
      vertex -0.057386777253242 -0.843497366207113 0.311452167325906
      vertex -0.467360355184649 -0.27921714515994 0.742523897485538
      vertex -0.0573867771023023 -0.678842616709787 0.577869148150505
    endloop
  endfacet
  facet normal 0.5257311119995491 0.723606797476073 -0.447213596083727
    outer loop
      vertex -0.467360355184649 -0.27921714515994 0.742523897485538
      vertex -0.057386777253242 -0.843497366207113 0.311452167325906
      vertex -0.720737960835523 -0.196889770651208 0.577869148151946
    endloop
  endfacet
  facet normal 0.5257311119995463 0.723606797476072 -0.4472135960837318
    outer loop
      vertex -0.213982749653674 -0.894378482110069 0.0450351865394618
      vertex -0.720737960835523 -0.196889770651208 0.577869148151946
      vertex -0.057386777253242 -0.843497366207113 0.311452167325906
    endloop
  endfacet
  facet normal 0.5257311119995451 0.7236067974760723 -0.44721359608373323
    outer loop
      vertex -0.720737960835523 -0.196889770651208 0.577869148151946
      vertex -0.213982749653674 -0.894378482110069 0.0450351865394618
      vertex -0.877333933216603 -0.247770886573028 0.31145216735773
    endloop
  endfacet
  facet normal 0.5257311119995497 0.7236067974760739 -0.44721359608372496
    outer loop
      vertex -0.467360355390444 -0.812051107516885 -0.119619562758462
      vertex -0.877333933216603 -0.247770886573028 0.31145216735773
      vertex -0.213982749653674 -0.894378482110069 0.0450351865394618
    endloop
  endfacet
  facet normal 0.5257311119995425 0.7236067974760744 -0.4472135960837325
    outer loop
      vertex -0.877333933216603 -0.247770886573028 0.31145216735773
      vertex -0.467360355390444 -0.812051107516885 -0.119619562758462
      vertex -0.877333933304457 -0.412425636096364 0.0450351865652093
    endloop
  endfacet
  facet normal 0.5257311119995519 0.7236067974760774 -0.44721359608371675
    outer loop
      vertex -0.877333933304457 -0.412425636096364 0.0450351865652093
      vertex -0.467360355390444 -0.812051107516885 -0.119619562758462
      vertex -0.720737961065525 -0.627961501315879 -0.119619562748628
    endloop
  endfacet
  facet normal 0 0.607061997836021 -0.7946544725749292
    outer loop
      vertex 0.0992091952028311 -0.463306751417275 0.742523897485538
      vertex -0.0573867771023023 -0.678842616709787 0.577869148150505
      vertex -0.213982749423672 -0.463306751417275 0.742523897485538
    endloop
  endfacet
  facet normal 0 0.5257311119137719 -0.8506508084789605
    outer loop
      vertex -0.213982749423672 -0.463306751417275 0.742523897485538
      vertex 0.099209195188766 -0.196889770511644 0.907178646776465
      vertex 0.0992091952028311 -0.463306751417275 0.742523897485538
    endloop
  endfacet
  facet normal 6.652668849684041e-10 0.5257311113478621 -0.8506508088287119
    outer loop
      vertex 0.099209195188766 -0.196889770511644 0.907178646776465
      vertex -0.213982749423672 -0.463306751417275 0.742523897485538
      vertex -0.213982749131173 -0.196889770394284 0.90717864660406
    endloop
  endfacet
  facet normal 0.35682208918357033 0.49112347230282843 -0.7946544731038045
    outer loop
      vertex -0.467360355184649 -0.27921714515994 0.742523897485538
      vertex -0.213982749131173 -0.196889770394284 0.90717864660406
      vertex -0.213982749423672 -0.463306751417275 0.742523897485538
    endloop
  endfacet
  facet normal 0.5773502691280484 0.18759247397337597 -0.7946544723628745
    outer loop
      vertex -0.720737960835523 -0.196889770651208 0.577869148151946
      vertex -0.564141988532786 0.0186460946421498 0.742523897485538
      vertex -0.467360355184649 -0.27921714515994 0.742523897485538
    endloop
  endfacet
  facet normal 0.4999999990150918 0.16245984771701918 -0.8506508090072396
    outer loop
      vertex -0.467360355184649 -0.27921714515994 0.742523897485538
      vertex -0.310764382508906 0.100973469288101 0.9071786465638
      vertex -0.213982749131173 -0.196889770394284 0.90717864660406
    endloop
  endfacet
  facet normal 0.4999999990150848 0.1624598477170235 -0.8506508090072429
    outer loop
      vertex -0.310764382508906 0.100973469288101 0.9071786465638
      vertex -0.467360355184649 -0.27921714515994 0.742523897485538
      vertex -0.564141988532786 0.0186460946421498 0.742523897485538
    endloop
  endfacet
  facet normal 0.8506508084040042 -0.27639320238512305 -0.44721359531761845
    outer loop
      vertex -0.877333932944483 0.449717824850467 -0.119619563058363
      vertex -0.564141988367154 0.716134805695811 0.311452167213589
      vertex -0.467360355050823 0.582926315263621 0.577869148097229
    endloop
  endfacet
  facet normal 0.8506508084040041 -0.27639320238512444 -0.4472135953176178
    outer loop
      vertex -0.564141988367154 0.716134805695811 0.311452167213589
      vertex -0.877333932944483 0.449717824850467 -0.119619563058363
      vertex -0.720737960634692 0.665253689946058 0.0450351863197702
    endloop
  endfacet
  facet normal 0.8506508084040033 -0.27639320238513354 -0.44721359531761357
    outer loop
      vertex -0.974115566378835 0.151854585076388 -0.11961956307094
      vertex -0.467360355050823 0.582926315263621 0.577869148097229
      vertex -0.467360355104414 0.316509334418168 0.742523897485538
    endloop
  endfacet
  facet normal 0.8506508084040033 -0.2763932023851276 -0.4472135953176172
    outer loop
      vertex -0.467360355050823 0.582926315263621 0.577869148097229
      vertex -0.974115566378835 0.151854585076388 -0.11961956307094
      vertex -0.877333932944483 0.449717824850467 -0.119619563058363
    endloop
  endfacet
  facet normal 0.8506508084040035 -0.2763932023851335 -0.4472135953176134
    outer loop
      vertex -0.974115566454602 -0.114562395787926 0.0450351862868442
      vertex -0.467360355104414 0.316509334418168 0.742523897485538
      vertex -0.564141988532786 0.0186460946421498 0.742523897485538
    endloop
  endfacet
  facet normal 0.8506508084040034 -0.27639320238513293 -0.44721359531761373
    outer loop
      vertex -0.467360355104414 0.316509334418168 0.742523897485538
      vertex -0.974115566454602 -0.114562395787926 0.0450351862868442
      vertex -0.974115566378835 0.151854585076388 -0.11961956307094
    endloop
  endfacet
  facet normal 0.8506508083573835 -0.2763932018345195 -0.4472135957465881
    outer loop
      vertex -0.877333933216603 -0.247770886573028 0.31145216735773
      vertex -0.564141988532786 0.0186460946421498 0.742523897485538
      vertex -0.720737960835523 -0.196889770651208 0.577869148151946
    endloop
  endfacet
  facet normal 0.8506508083573834 -0.276393202656949 -0.4472135952382988
    outer loop
      vertex -0.564141988532786 0.0186460946421498 0.742523897485538
      vertex -0.877333933216603 -0.247770886573028 0.31145216735773
      vertex -0.974115566454602 -0.114562395787926 0.0450351862868442
    endloop
  endfacet
  facet normal 0.5773502680551704 -0.18759247379671662 -0.7946544731840696
    outer loop
      vertex -0.467360355104414 0.316509334418168 0.742523897485538
      vertex -0.310764382508906 0.100973469288101 0.9071786465638
      vertex -0.564141988532786 0.0186460946421498 0.742523897485538
    endloop
  endfacet
  facet normal 0.3568220897979896 -0.49112347333397366 -0.7946544721906302
    outer loop
      vertex -0.467360355050823 0.582926315263621 0.577869148097229
      vertex -0.213982749380402 0.500598940579126 0.742523897485538
      vertex -0.467360355104414 0.316509334418168 0.742523897485538
    endloop
  endfacet
  facet normal 0.30901699488943335 -0.4253254035652267 -0.8506508084705385
    outer loop
      vertex -0.310764382508906 0.100973469288101 0.9071786465638
      vertex -0.213982749380402 0.500598940579126 0.742523897485538
      vertex -0.0573867770946213 0.285063075411265 0.907178646776466
    endloop
  endfacet
  facet normal 0.3090169938004772 -0.4253254034817003 -0.8506508089078882
    outer loop
      vertex -0.213982749380402 0.500598940579126 0.742523897485538
      vertex -0.310764382508906 0.100973469288101 0.9071786465638
      vertex -0.467360355104414 0.316509334418168 0.742523897485538
    endloop
  endfacet
  facet normal -1.1401499598289428e-10 -0.8944271910910849 -0.44721359531761967
    outer loop
      vertex -0.213982749341689 0.931670670637669 -0.11961956307094
      vertex -0.213982749380402 0.500598940579126 0.742523897485538
      vertex -0.467360355050823 0.582926315263621 0.577869148097229
    endloop
  endfacet
  facet normal -8.032076467201897e-11 -0.894427191091085 -0.4472135953176197
    outer loop
      vertex -0.213982749380402 0.500598940579126 0.742523897485538
      vertex -0.213982749341689 0.931670670637669 -0.11961956307094
      vertex 0.0992091952460986 0.500598940551001 0.742523897485538
    endloop
  endfacet
  facet normal -5.825291798934661e-10 -0.8944271910974945 -0.4472135953048007
    outer loop
      vertex -0.467360355064831 0.849343296023488 0.0450351862868442
      vertex -0.467360355050823 0.582926315263621 0.577869148097229
      vertex -0.564141988367154 0.716134805695811 0.311452167213589
    endloop
  endfacet
  facet normal -8.031321463455611e-11 -0.894427191091084 -0.44721359531762195
    outer loop
      vertex 0.0992091952848154 0.931670670603258 -0.119619563058363
      vertex 0.0992091952460986 0.500598940551001 0.742523897485538
      vertex -0.213982749341689 0.931670670637669 -0.11961956307094
    endloop
  endfacet
  facet normal -6.990553945577477e-11 -0.8944271910974945 -0.44721359530480065
    outer loop
      vertex -0.467360355050823 0.582926315263621 0.577869148097229
      vertex -0.467360355064831 0.849343296023488 0.0450351862868442
      vertex -0.213982749341689 0.931670670637669 -0.11961956307094
    endloop
  endfacet
  facet normal -8.029996627612706e-11 -0.8944271910910839 -0.44721359531762195
    outer loop
      vertex 0.0992091952460986 0.500598940551001 0.742523897485538
      vertex 0.0992091952848154 0.931670670603258 -0.119619563058363
      vertex 0.352586800944456 0.58292631518045 0.577869148097229
    endloop
  endfacet
  facet normal -8.031120160630436e-11 -0.8944271910910856 -0.4472135953176187
    outer loop
      vertex 0.352586800976643 0.849343295933399 0.0450351863197702
      vertex 0.352586800944456 0.58292631518045 0.577869148097229
      vertex 0.0992091952848154 0.931670670603258 -0.119619563058363
    endloop
  endfacet
  facet normal -8.029948355978857e-11 -0.8944271910910856 -0.4472135953176187
    outer loop
      vertex 0.352586800944456 0.58292631518045 0.577869148097229
      vertex 0.352586800976643 0.849343295933399 0.0450351863197702
      vertex 0.449368434352932 0.716134805545691 0.311452167213589
    endloop
  endfacet
  facet normal -5.451498385419232e-11 -0.6070619979800481 -0.7946544724649024
    outer loop
      vertex 0.0992091952460986 0.500598940551001 0.742523897485538
      vertex -0.0573867770946213 0.285063075411265 0.907178646776466
      vertex -0.213982749380402 0.500598940579126 0.742523897485538
    endloop
  endfacet
  facet normal -0.35682208988617276 -0.49112347326988864 -0.7946544721906402
    outer loop
      vertex 0.352586800944456 0.58292631518045 0.577869148097229
      vertex 0.352586800937055 0.316509334344543 0.742523897485538
      vertex 0.0992091952460986 0.500598940551001 0.742523897485538
    endloop
  endfacet
  facet normal -0.309016994292797 -0.4253254039987082 -0.8506508084705388
    outer loop
      vertex 0.195990828568566 0.100973469236775 0.907178646776465
      vertex 0.0992091952460986 0.500598940551001 0.742523897485538
      vertex 0.352586800937055 0.316509334344543 0.742523897485538
    endloop
  endfacet
  facet normal -0.3090169942718371 -0.4253254039971005 -0.8506508084789566
    outer loop
      vertex 0.0992091952460986 0.500598940551001 0.742523897485538
      vertex 0.195990828568566 0.100973469236775 0.907178646776465
      vertex -0.0573867770946213 0.285063075411265 0.907178646776466
    endloop
  endfacet
  facet normal -0.850650808500298 -0.27639320242503373 -0.4472135951097905
    outer loop
      vertex 0.762560378807039 0.449717824705156 -0.11961956307094
      vertex 0.449368434352932 0.716134805545691 0.311452167213589
      vertex 0.605964406540521 0.665253689847735 0.0450351862868442
    endloop
  endfacet
  facet normal -0.850650808500298 -0.27639320198898204 -0.4472135953792853
    outer loop
      vertex 0.449368434352932 0.716134805545691 0.311452167213589
      vertex 0.762560378807039 0.449717824705156 -0.11961956307094
      vertex 0.352586800944456 0.58292631518045 0.577869148097229
    endloop
  endfacet
  facet normal -0.8506508085644406 -0.2763932016150018 -0.44721359548841116
    outer loop
      vertex 0.859342012662819 0.151854583589027 -0.119619563603345
      vertex 0.352586800944456 0.58292631518045 0.577869148097229
      vertex 0.762560378807039 0.449717824705156 -0.11961956307094
    endloop
  endfacet
  facet normal -0.8506508085644405 -0.2763932021149062 -0.44721359517945336
    outer loop
      vertex 0.352586800944456 0.58292631518045 0.577869148097229
      vertex 0.859342012662819 0.151854583589027 -0.119619563603345
      vertex 0.352586800937055 0.316509334344543 0.742523897485538
    endloop
  endfacet
  facet normal -0.8506508085389475 -0.2763932022635422 -0.44721359513608205
    outer loop
      vertex 0.859342012624907 -0.114562397133411 0.0450351858773866
      vertex 0.352586800937055 0.316509334344543 0.742523897485538
      vertex 0.859342012662819 0.151854583589027 -0.119619563603345
    endloop
  endfacet
  facet normal -0.8506508085389475 -0.2763932022600854 -0.44721359513821846
    outer loop
      vertex 0.352586800937055 0.316509334344543 0.742523897485538
      vertex 0.859342012624907 -0.114562397133411 0.0450351858773866
      vertex 0.449368434311935 0.0186460945511425 0.742523897485538
    endloop
  endfacet
  facet normal -0.850650808453633 -0.27639320275750806 -0.4472135949930725
    outer loop
      vertex 0.762560378841427 -0.247770886350444 0.311452167213589
      vertex 0.449368434311935 0.0186460945511425 0.742523897485538
      vertex 0.859342012624907 -0.114562397133411 0.0450351858773866
    endloop
  endfacet
  facet normal -0.850650808453633 -0.276393202232386 -0.4472135953176156
    outer loop
      vertex 0.449368434311935 0.0186460945511425 0.742523897485538
      vertex 0.762560378841427 -0.247770886350444 0.311452167213589
      vertex 0.605964406585311 -0.196889770563137 0.577869148097229
    endloop
  endfacet
  facet normal -0.5773502689841857 -0.18759247398394086 -0.7946544724649027
    outer loop
      vertex 0.449368434311935 0.0186460945511425 0.742523897485538
      vertex 0.195990828568566 0.100973469236775 0.907178646776465
      vertex 0.352586800937055 0.316509334344543 0.742523897485538
    endloop
  endfacet
  facet normal -0.5773502693087935 0.18759247414672198 -0.794654472190634
    outer loop
      vertex 0.605964406585311 -0.196889770563137 0.577869148097229
      vertex 0.352586800910312 -0.279217145233567 0.742523897485538
      vertex 0.449368434311935 0.0186460945511425 0.742523897485538
    endloop
  endfacet
  facet normal -0.4999999997988572 0.162459848070949 -0.8506508084789594
    outer loop
      vertex 0.352586800910312 -0.279217145233567 0.742523897485538
      vertex 0.195990828568566 0.100973469236775 0.907178646776465
      vertex 0.449368434311935 0.0186460945511425 0.742523897485538
    endloop
  endfacet
  facet normal -0.4999999998167623 0.16245984805992766 -0.8506508084705396
    outer loop
      vertex 0.195990828568566 0.100973469236775 0.907178646776465
      vertex 0.352586800910312 -0.279217145233567 0.742523897485538
      vertex 0.099209195188766 -0.196889770511644 0.907178646776465
    endloop
  endfacet
  facet normal -0.5257311122380157 0.7236067975967329 -0.4472135956081612
    outer loop
      vertex -0.057386777253242 -0.843497366207113 0.311452167325906
      vertex 0.352586800910312 -0.279217145233567 0.742523897485538
      vertex 0.605964406585311 -0.196889770563137 0.577869148097229
    endloop
  endfacet
  facet normal -0.5257311122834023 0.7236067975932515 -0.447213595560439
    outer loop
      vertex -0.0573867771023023 -0.678842616709787 0.577869148150505
      vertex 0.352586800910312 -0.279217145233567 0.742523897485538
      vertex -0.057386777253242 -0.843497366207113 0.311452167325906
    endloop
  endfacet
  facet normal -0.5257311124041354 0.7236067975029462 -0.4472135955646257
    outer loop
      vertex 0.0992091950189681 -0.894378482216194 0.0450351864205805
      vertex 0.605964406585311 -0.196889770563137 0.577869148097229
      vertex 0.762560378841427 -0.247770886350444 0.311452167213589
    endloop
  endfacet
  facet normal -0.5257311118933309 0.7236067974665097 -0.447213596224068
    outer loop
      vertex 0.352586800910312 -0.279217145233567 0.742523897485538
      vertex -0.0573867771023023 -0.678842616709787 0.577869148150505
      vertex 0.0992091952028311 -0.463306751417275 0.742523897485538
    endloop
  endfacet
  facet normal -0.5257311101122796 0.7236067974618705 -0.44721359832532526
    outer loop
      vertex 0.352586800750101 -0.812051107812425 -0.119619562980725
      vertex 0.762560378841427 -0.247770886350444 0.311452167213589
      vertex 0.762560379118085 -0.412425636772436 0.0450351860856655
    endloop
  endfacet
  facet normal -0.5257311120362226 0.7236067975311663 -0.4472135959514721
    outer loop
      vertex 0.605964406585311 -0.196889770563137 0.577869148097229
      vertex 0.0992091950189681 -0.894378482216194 0.0450351864205805
      vertex -0.057386777253242 -0.843497366207113 0.311452167325906
    endloop
  endfacet
  facet normal -0.5257311116085545 0.7236067979480397 -0.44721359577971076
    outer loop
      vertex 0.352586800750101 -0.812051107812425 -0.119619562980725
      vertex 0.762560379118085 -0.412425636772436 0.0450351860856655
      vertex 0.60596440660534 -0.627961501832083 -0.119619563123917
    endloop
  endfacet
  facet normal -0.5257311118641561 0.7236067973274962 -0.44721359648329356
    outer loop
      vertex 0.762560378841427 -0.247770886350444 0.311452167213589
      vertex 0.352586800750101 -0.812051107812425 -0.119619562980725
      vertex 0.0992091950189681 -0.894378482216194 0.0450351864205805
    endloop
  endfacet
  facet normal -0.3568220896310541 0.49112347301147097 -0.7946544724649065
    outer loop
      vertex 0.0992091952028311 -0.463306751417275 0.742523897485538
      vertex 0.099209195188766 -0.196889770511644 0.907178646776465
      vertex 0.352586800910312 -0.279217145233567 0.742523897485538
    endloop
  endfacet
  facet normal 2.6162779371454975e-10 0.9822469462379055 -0.1875924748125824
    outer loop
      vertex 0.0992091950189681 -0.894378482216194 0.0450351864205805
      vertex -0.213982749653674 -0.894378482110069 0.0450351865394618
      vertex -0.057386777253242 -0.843497366207113 0.311452167325906
    endloop
  endfacet
  facet normal 8.742522363349298e-10 0.8944271911068667 0.4472135952860563
    outer loop
      vertex 0.0992091951137002 -0.463306752209073 -0.817108274109114
      vertex 0.0992091950189681 -0.894378482216194 0.0450351864205805
      vertex 0.352586800750101 -0.812051107812425 -0.119619562980725
    endloop
  endfacet
  facet normal 4.728295857187963e-10 0.8944271911068666 0.44721359528605625
    outer loop
      vertex 0.0992091950189681 -0.894378482216194 0.0450351864205805
      vertex 0.0992091951137002 -0.463306752209073 -0.817108274109114
      vertex -0.213982749653674 -0.894378482110069 0.0450351865394618
    endloop
  endfacet
  facet normal 5.819222816420132e-10 0.8944271911493455 0.4472135952010985
    outer loop
      vertex 0.352586800734927 -0.545634127159732 -0.652453524731207
      vertex 0.352586800750101 -0.812051107812425 -0.119619562980725
      vertex 0.44936843416844 -0.678842617539598 -0.386036543874861
    endloop
  endfacet
  facet normal 8.742537041552353e-10 0.8944271910485363 0.44721359540271693
    outer loop
      vertex -0.213982749520593 -0.463306751957339 -0.817108274000326
      vertex -0.213982749653674 -0.894378482110069 0.0450351865394618
      vertex 0.0992091951137002 -0.463306752209073 -0.817108274109114
    endloop
  endfacet
  facet normal 1.1665880002169513e-9 0.8944271911493457 0.44721359520109855
    outer loop
      vertex 0.352586800750101 -0.812051107812425 -0.119619562980725
      vertex 0.352586800734927 -0.545634127159732 -0.652453524731207
      vertex 0.0992091951137002 -0.463306752209073 -0.817108274109114
    endloop
  endfacet
  facet normal -1.1790827732395626e-10 0.8944271910485364 0.44721359540271693
    outer loop
      vertex -0.213982749653674 -0.894378482110069 0.0450351865394618
      vertex -0.213982749520593 -0.463306751957339 -0.817108274000326
      vertex -0.467360355390444 -0.812051107516885 -0.119619562758462
    endloop
  endfacet
  facet normal 1.304892753501544e-9 0.8944271908417913 0.44721359581620707
    outer loop
      vertex -0.467360355246334 -0.545634126387845 -0.652453524545547
      vertex -0.467360355390444 -0.812051107516885 -0.119619562758462
      vertex -0.213982749520593 -0.463306751957339 -0.817108274000326
    endloop
  endfacet
  facet normal 2.6984738185483064e-9 0.8944271908417913 0.44721359581620707
    outer loop
      vertex -0.467360355390444 -0.812051107516885 -0.119619562758462
      vertex -0.467360355246334 -0.545634126387845 -0.652453524545547
      vertex -0.56414198866971 -0.678842616674416 -0.386036543623925
    endloop
  endfacet
  facet normal -0.5773502684717005 0.7946544728208176 0.18759247405352855
    outer loop
      vertex 0.60596440660534 -0.627961501832083 -0.119619563123917
      vertex 0.44936843416844 -0.678842617539598 -0.386036543874861
      vertex 0.352586800750101 -0.812051107812425 -0.119619562980725
    endloop
  endfacet
  facet normal -0.6381966011125425 0.7330937577268252 0.23511410147067172
    outer loop
      vertex 0.7893101641366 -0.421117168973182 -0.266891248397523
      vertex 0.44936843416844 -0.678842617539598 -0.386036543874861
      vertex 0.60596440660534 -0.627961501832083 -0.119619563123917
    endloop
  endfacet
  facet normal -0.6381966010557217 0.7330937580581159 0.23511410059193077
    outer loop
      vertex 0.44936843416844 -0.678842617539598 -0.386036543874861
      vertex 0.7893101641366 -0.421117168973182 -0.266891248397523
      vertex 0.632714191980574 -0.471998284789709 -0.533308228932352
    endloop
  endfacet
  facet normal -0.7745966694736869 0.6268666625446188 -0.08389390341641588
    outer loop
      vertex 0.762560379118085 -0.412425636772436 0.0450351860856655
      vertex 0.7893101641366 -0.421117168973182 -0.266891248397523
      vertex 0.60596440660534 -0.627961501832083 -0.119619563123917
    endloop
  endfacet
  facet normal -0.9341723584614751 0.30353099932478234 -0.18759247622286004
    outer loop
      vertex 0.762560378841427 -0.247770886350444 0.311452167213589
      vertex 0.859342012624907 -0.114562397133411 0.0450351858773866
      vertex 0.762560379118085 -0.412425636772436 0.0450351860856655
    endloop
  endfacet
  facet normal -0.947213595512227 0.3077683541813869 -0.08980559359683385
    outer loop
      vertex 0.886091797604529 -0.123253929431608 -0.266891248529533
      vertex 0.762560379118085 -0.412425636772436 0.0450351860856655
      vertex 0.859342012624907 -0.114562397133411 0.0450351858773866
    endloop
  endfacet
  facet normal -0.9472135955122256 0.30776835418139264 -0.08980559359682808
    outer loop
      vertex 0.762560379118085 -0.412425636772436 0.0450351860856655
      vertex 0.886091797604529 -0.123253929431608 -0.266891248529533
      vertex 0.7893101641366 -0.421117168973182 -0.266891248397523
    endloop
  endfacet
  facet normal 0.5773502691112615 0.794654472027606 0.1875924754452603
    outer loop
      vertex -0.56414198866971 -0.678842616674416 -0.386036543623925
      vertex -0.720737961065525 -0.627961501315879 -0.119619562748628
      vertex -0.467360355390444 -0.812051107516885 -0.119619562758462
    endloop
  endfacet
  facet normal 0.8506508081929024 0.2763932022146001 0.44721359582454684
    outer loop
      vertex -0.564141988094812 0.0186460946096311 -0.817108274002566
      vertex -0.877333932869643 0.285063075482889 -0.386036543907079
      vertex -0.974115566378835 0.151854585076388 -0.11961956307094
    endloop
  endfacet
  facet normal 0.8506508081929025 0.2763932022146002 0.4472135958245468
    outer loop
      vertex -0.877333932869643 0.285063075482889 -0.386036543907079
      vertex -0.564141988094812 0.0186460946096311 -0.817108274002566
      vertex -0.720737960461804 0.23418195972718 -0.652453524707576
    endloop
  endfacet
  facet normal 0.8506508081929021 0.27639320221459873 0.44721359582454834
    outer loop
      vertex -0.467360354714191 -0.279217145181905 -0.817108273970044
      vertex -0.974115566378835 0.151854585076388 -0.11961956307094
      vertex -0.974115566454602 -0.114562395787926 0.0450351862868442
    endloop
  endfacet
  facet normal 0.8506508081929021 0.27639320221460234 0.44721359582454623
    outer loop
      vertex -0.974115566378835 0.151854585076388 -0.11961956307094
      vertex -0.467360354714191 -0.279217145181905 -0.817108273970044
      vertex -0.564141988094812 0.0186460946096311 -0.817108274002566
    endloop
  endfacet
  facet normal 0.8506508084398697 0.2763932015261105 0.44721359578029696
    outer loop
      vertex -0.467360355246334 -0.545634126387845 -0.652453524545547
      vertex -0.974115566454602 -0.114562395787926 0.0450351862868442
      vertex -0.877333933304457 -0.412425636096364 0.0450351865652093
    endloop
  endfacet
  facet normal 0.8506508084398697 0.2763932007746664 0.4472135962447151
    outer loop
      vertex -0.974115566454602 -0.114562395787926 0.0450351862868442
      vertex -0.467360355246334 -0.545634126387845 -0.652453524545547
      vertex -0.467360354714191 -0.279217145181905 -0.817108273970044
    endloop
  endfacet
  facet normal 0.8506508082630174 0.27639320122485633 0.44721359630287555
    outer loop
      vertex -0.56414198866971 -0.678842616674416 -0.386036543623925
      vertex -0.877333933304457 -0.412425636096364 0.0450351865652093
      vertex -0.720737961065525 -0.627961501315879 -0.119619562748628
    endloop
  endfacet
  facet normal 0.8506508082630174 0.2763932025572388 0.44721359547941786
    outer loop
      vertex -0.877333933304457 -0.412425636096364 0.0450351865652093
      vertex -0.56414198866971 -0.678842616674416 -0.386036543623925
      vertex -0.467360355246334 -0.545634126387845 -0.652453524545547
    endloop
  endfacet
  facet normal 0.9341723594384704 0.3035309977973103 -0.1875924738291238
    outer loop
      vertex -0.974115566454602 -0.114562395787926 0.0450351862868442
      vertex -0.877333933216603 -0.247770886573028 0.31145216735773
      vertex -0.877333933304457 -0.412425636096364 0.0450351865652093
    endloop
  endfacet
  facet normal 0.9341723588500428 -0.30353099922522203 0.18759247444896415
    outer loop
      vertex -0.877333932869643 0.285063075482889 -0.386036543907079
      vertex -0.877333932944483 0.449717824850467 -0.119619563058363
      vertex -0.974115566378835 0.151854585076388 -0.11961956307094
    endloop
  endfacet
  facet normal 0.5257311121658483 -0.7236067977863392 0.44721359538620953
    outer loop
      vertex -0.877333932944483 0.449717824850467 -0.119619563058363
      vertex -0.467360355064831 0.849343296023488 0.0450351862868442
      vertex -0.720737960634692 0.665253689946058 0.0450351863197702
    endloop
  endfacet
  facet normal 0.5257311119838316 -0.7236067977271984 0.4472135956958748
    outer loop
      vertex -0.877333932869643 0.285063075482889 -0.386036543907079
      vertex -0.467360355064831 0.849343296023488 0.0450351862868442
      vertex -0.877333932944483 0.449717824850467 -0.119619563058363
    endloop
  endfacet
  facet normal 0.525731112006761 -0.7236067977254396 0.4472135956717653
    outer loop
      vertex -0.467360355064831 0.849343296023488 0.0450351862868442
      vertex -0.877333932869643 0.285063075482889 -0.386036543907079
      vertex -0.213982749341689 0.931670670637669 -0.11961956307094
    endloop
  endfacet
  facet normal 0.5257311119833995 -0.7236067977178489 0.44721359571151037
    outer loop
      vertex -0.720737960461804 0.23418195972718 -0.652453524707576
      vertex -0.213982749341689 0.931670670637669 -0.11961956307094
      vertex -0.877333932869643 0.285063075482889 -0.386036543907079
    endloop
  endfacet
  facet normal 0.5257311119274012 -0.7236067977221442 0.4472135957703904
    outer loop
      vertex -0.213982749341689 0.931670670637669 -0.11961956307094
      vertex -0.720737960461804 0.23418195972718 -0.652453524707576
      vertex -0.0573867770152108 0.880789554767325 -0.386036543907079
    endloop
  endfacet
  facet normal 0.5257311116258497 -0.7236067976241642 0.44721359628342044
    outer loop
      vertex -0.467360354979921 0.316509333963949 -0.817108273970041
      vertex -0.0573867770152108 0.880789554767325 -0.386036543907079
      vertex -0.720737960461804 0.23418195972718 -0.652453524707576
    endloop
  endfacet
  facet normal 0.5257311120622615 -0.7236067975906901 0.44721359582454995
    outer loop
      vertex -0.0573867770152108 0.880789554767325 -0.386036543907079
      vertex -0.467360354979921 0.316509333963949 -0.817108273970041
      vertex -0.0573867769804377 0.716134805322 -0.652453524707576
    endloop
  endfacet
  facet normal 0.5257311120622673 -0.723606797590692 0.4472135958245401
    outer loop
      vertex -0.0573867769804377 0.716134805322 -0.652453524707576
      vertex -0.467360354979921 0.316509333963949 -0.817108273970041
      vertex -0.213982749275986 0.500598940152543 -0.817108274002563
    endloop
  endfacet
  facet normal 0.577350269160945 -0.7946544723430047 -0.18759247395629955
    outer loop
      vertex -0.467360355064831 0.849343296023488 0.0450351862868442
      vertex -0.564141988367154 0.716134805695811 0.311452167213589
      vertex -0.720737960634692 0.665253689946058 0.0450351863197702
    endloop
  endfacet
  facet normal -1.1545437805555437e-10 -0.9822469463073485 0.18759247444897334
    outer loop
      vertex -0.0573867770152108 0.880789554767325 -0.386036543907079
      vertex 0.0992091952848154 0.931670670603258 -0.119619563058363
      vertex -0.213982749341689 0.931670670637669 -0.11961956307094
    endloop
  endfacet
  facet normal -0.5257311123454467 -0.7236067972608827 0.4472135960252853
    outer loop
      vertex 0.762560379217345 0.28506307394466 -0.386036544467467
      vertex 0.352586800976643 0.849343295933399 0.0450351863197702
      vertex 0.0992091952848154 0.931670670603258 -0.119619563058363
    endloop
  endfacet
  facet normal -0.5257311110619285 -0.7236067973593325 0.4472135973748562
    outer loop
      vertex 0.762560378807039 0.449717824705156 -0.11961956307094
      vertex 0.352586800976643 0.849343295933399 0.0450351863197702
      vertex 0.762560379217345 0.28506307394466 -0.386036544467467
    endloop
  endfacet
  facet normal -0.5257311124919587 -0.7236067972640267 0.4472135958479631
    outer loop
      vertex 0.605964406775879 0.234181958210504 -0.652453525210637
      vertex 0.0992091952848154 0.931670670603258 -0.119619563058363
      vertex -0.0573867770152108 0.880789554767325 -0.386036543907079
    endloop
  endfacet
  facet normal -0.5257311119957565 -0.7236067976627516 0.44721359578613323
    outer loop
      vertex 0.352586800976643 0.849343295933399 0.0450351863197702
      vertex 0.762560378807039 0.449717824705156 -0.11961956307094
      vertex 0.605964406540521 0.665253689847735 0.0450351862868442
    endloop
  endfacet
  facet normal -0.5257311123404322 -0.7236067975058218 0.4472135956348602
    outer loop
      vertex 0.352586800563621 0.316509334113423 -0.817108274002566
      vertex -0.0573867770152108 0.880789554767325 -0.386036543907079
      vertex -0.0573867769804377 0.716134805322 -0.652453524707576
    endloop
  endfacet
  facet normal -0.5257311123812564 -0.7236067972725179 0.44721359596436233
    outer loop
      vertex 0.0992091952848154 0.931670670603258 -0.119619563058363
      vertex 0.605964406775879 0.234181958210504 -0.652453525210637
      vertex 0.762560379217345 0.28506307394466 -0.386036544467467
    endloop
  endfacet
  facet normal -0.5257311116895094 -0.7236067972943242 0.4472135967422764
    outer loop
      vertex 0.352586800563621 0.316509334113423 -0.817108274002566
      vertex -0.0573867769804377 0.716134805322 -0.652453524707576
      vertex 0.0992091948525858 0.500598940292248 -0.817108273970044
    endloop
  endfacet
  facet normal -0.525731113065065 -0.7236067974502403 0.44721359487293627
    outer loop
      vertex -0.0573867770152108 0.880789554767325 -0.386036543907079
      vertex 0.352586800563621 0.316509334113423 -0.817108274002566
      vertex 0.605964406775879 0.234181958210504 -0.652453525210637
    endloop
  endfacet
  facet normal -0.5773502692186799 -0.7946544723010572 -0.18759247395630282
    outer loop
      vertex 0.605964406540521 0.665253689847735 0.0450351862868442
      vertex 0.449368434352932 0.716134805545691 0.311452167213589
      vertex 0.352586800976643 0.849343295933399 0.0450351863197702
    endloop
  endfacet
  facet normal -0.9341723588273392 -0.3035309994993449 0.18759247411848293
    outer loop
      vertex 0.762560379217345 0.28506307394466 -0.386036544467467
      vertex 0.859342012662819 0.151854583589027 -0.119619563603345
      vertex 0.762560378807039 0.449717824705156 -0.11961956307094
    endloop
  endfacet
  facet normal -0.9951248488808141 -0.05184928339484021 -0.083893902945199
    outer loop
      vertex 0.886091797604529 -0.123253929431608 -0.266891248529533
      vertex 0.859342012624907 -0.114562397133411 0.0450351858773866
      vertex 0.859342012662819 0.151854583589027 -0.119619563603345
    endloop
  endfacet
  facet normal -0.9472135957794855 -0.21796275721090513 0.2351141008946877
    outer loop
      vertex 0.886091797604529 -0.123253929431608 -0.266891248529533
      vertex 0.762560379217345 0.28506307394466 -0.386036544467467
      vertex 0.789310164488681 0.00995456087976451 -0.533308229214845
    endloop
  endfacet
  facet normal -0.9472135955934714 -0.21796275683399938 0.2351141019935009
    outer loop
      vertex 0.762560379217345 0.28506307394466 -0.386036544467467
      vertex 0.886091797604529 -0.123253929431608 -0.266891248529533
      vertex 0.859342012662819 0.151854583589027 -0.119619563603345
    endloop
  endfacet
  facet normal -0.417774579060458 0.7428051879407986 0.5231680933114058
    outer loop
      vertex 0.632714191980574 -0.471998284789709 -0.533308228932352
      vertex 0.352586800734927 -0.545634127159732 -0.652453524731207
      vertex 0.44936843416844 -0.678842617539598 -0.386036543874861
    endloop
  endfacet
  facet normal -0.35682208918826874 0.4911234737584262 0.794654472202086
    outer loop
      vertex 0.352586800787628 -0.279217146424717 -0.81710827419159
      vertex 0.0992091951137002 -0.463306752209073 -0.817108274109114
      vertex 0.352586800734927 -0.545634127159732 -0.652453524731207
    endloop
  endfacet
  facet normal -0.4472135951588128 0.47022820235845064 0.7608452129125013
    outer loop
      vertex 0.352586800787628 -0.279217146424717 -0.81710827419159
      vertex 0.632714191980574 -0.471998284789709 -0.533308228932352
      vertex 0.632714192038292 -0.205581304085521 -0.697962978364141
    endloop
  endfacet
  facet normal -0.44721359514448733 0.47022820237584073 0.760845212910174
    outer loop
      vertex 0.632714191980574 -0.471998284789709 -0.533308228932352
      vertex 0.352586800787628 -0.279217146424717 -0.81710827419159
      vertex 0.352586800734927 -0.545634127159732 -0.652453524731207
    endloop
  endfacet
  facet normal 2.868705120532317e-9 -3.173000096392571e-10 1
    outer loop
      vertex 0.352586800563621 0.316509334113423 -0.817108274002566
      vertex 0.352586800787628 -0.279217146424717 -0.81710827419159
      vertex 0.44936843430641 0.0186460932104242 -0.817108274374716
    endloop
  endfacet
  facet normal -1.0217812597556407e-10 -3.1730001075637816e-10 1
    outer loop
      vertex 0.0992091948525858 0.500598940292248 -0.817108273970044
      vertex 0.352586800787628 -0.279217146424717 -0.81710827419159
      vertex 0.352586800563621 0.316509334113423 -0.817108274002566
    endloop
  endfacet
  facet normal 4.3033017052918666e-10 -1.4427757686820325e-10 1
    outer loop
      vertex 0.0992091948525858 0.500598940292248 -0.817108273970044
      vertex 0.0992091951137002 -0.463306752209073 -0.817108274109114
      vertex 0.352586800787628 -0.279217146424717 -0.81710827419159
    endloop
  endfacet
  facet normal -1.038308554618414e-10 -1.4427757701290325e-10 1
    outer loop
      vertex -0.213982749275986 0.500598940152543 -0.817108274002563
      vertex 0.0992091951137002 -0.463306752209073 -0.817108274109114
      vertex 0.0992091948525858 0.500598940292248 -0.817108273970044
    endloop
  endfacet
  facet normal 3.4735241595396357e-10 2.320754307878271e-12 1
    outer loop
      vertex -0.213982749275986 0.500598940152543 -0.817108274002563
      vertex -0.213982749520593 -0.463306751957339 -0.817108274000326
      vertex 0.0992091951137002 -0.463306752209073 -0.817108274109114
    endloop
  endfacet
  facet normal 1.266676992186289e-10 2.3207543638806633e-12 1
    outer loop
      vertex -0.467360354979921 0.316509333963949 -0.817108273970041
      vertex -0.213982749520593 -0.463306751957339 -0.817108274000326
      vertex -0.213982749275986 0.500598940152543 -0.817108274002563
    endloop
  endfacet
  facet normal 1.195096654541635e-10 -5.031789779569936e-15 1
    outer loop
      vertex -0.467360354979921 0.316509333963949 -0.817108273970041
      vertex -0.467360354714191 -0.279217145181905 -0.817108273970044
      vertex -0.213982749520593 -0.463306751957339 -0.817108274000326
    endloop
  endfacet
  facet normal -3.360501658695462e-10 -5.03199298677204e-15 1
    outer loop
      vertex -0.467360354714191 -0.279217145181905 -0.817108273970044
      vertex -0.467360354979921 0.316509333963949 -0.817108273970041
      vertex -0.564141988094812 0.0186460946096311 -0.817108274002566
    endloop
  endfacet
  facet normal 0.356822090956839 0.49112347213084084 0.7946544724138515
    outer loop
      vertex -0.467360354714191 -0.279217145181905 -0.817108273970044
      vertex -0.467360355246334 -0.545634126387845 -0.652453524545547
      vertex -0.213982749520593 -0.463306751957339 -0.817108274000326
    endloop
  endfacet
  facet normal 0.5773502690901706 -0.18759247387774233 0.7946544724129703
    outer loop
      vertex -0.467360354979921 0.316509333963949 -0.817108273970041
      vertex -0.720737960461804 0.23418195972718 -0.652453524707576
      vertex -0.564141988094812 0.0186460946096311 -0.817108274002566
    endloop
  endfacet
  facet normal 1.8828151253508002e-10 -0.607061998048031 0.794654472412968
    outer loop
      vertex 0.0992091948525858 0.500598940292248 -0.817108273970044
      vertex -0.0573867769804377 0.716134805322 -0.652453524707576
      vertex -0.213982749275986 0.500598940152543 -0.817108274002563
    endloop
  endfacet
  facet normal -0.5773502678832169 -0.18759247463335676 0.7946544731114971
    outer loop
      vertex 0.44936843430641 0.0186460932104242 -0.817108274374716
      vertex 0.605964406775879 0.234181958210504 -0.652453525210637
      vertex 0.352586800563621 0.316509334113423 -0.817108274002566
    endloop
  endfacet
  facet normal -0.7745966693636664 -0.35538028277052286 0.5231680938557491
    outer loop
      vertex 0.789310164488681 0.00995456087976451 -0.533308229214845
      vertex 0.762560379217345 0.28506307394466 -0.386036544467467
      vertex 0.605964406775879 0.234181958210504 -0.652453525210637
    endloop
  endfacet
  facet normal -0.6381966010784138 -0.11755704955207798 0.7608452132152572
    outer loop
      vertex 0.44936843430641 0.0186460932104242 -0.817108274374716
      vertex 0.789310164488681 0.00995456087976451 -0.533308229214845
      vertex 0.605964406775879 0.234181958210504 -0.652453525210637
    endloop
  endfacet
  facet normal -0.6381966010770448 -0.11755704957458255 0.7608452132129283
    outer loop
      vertex 0.789310164488681 0.00995456087976451 -0.533308229214845
      vertex 0.44936843430641 0.0186460932104242 -0.817108274374716
      vertex 0.632714192038292 -0.205581304085521 -0.697962978364141
    endloop
  endfacet
  facet normal -0.4177745793355534 0.13574319021291686 0.8983530414997332
    outer loop
      vertex 0.352586800787628 -0.279217146424717 -0.81710827419159
      vertex 0.632714192038292 -0.205581304085521 -0.697962978364141
      vertex 0.44936843430641 0.0186460932104242 -0.817108274374716
    endloop
  endfacet
  facet normal -3.190378103420732e-15 1.0366166842507992e-15 -1
    outer loop
      vertex 0.099209195188766 -0.196889770511644 0.907178646776465
      vertex -0.0573867770946213 0.285063075411265 0.907178646776466
      vertex 0.195990828568566 0.100973469236775 0.907178646776465
    endloop
  endfacet
  facet normal 5.504770551399571e-10 1.7886291075838625e-10 -1
    outer loop
      vertex -0.213982749131173 -0.196889770394284 0.90717864660406
      vertex -0.0573867770946213 0.285063075411265 0.907178646776466
      vertex 0.099209195188766 -0.196889770511644 0.907178646776465
    endloop
  endfacet
  facet normal 7.584743460194649e-10 1.1128049428400076e-10 -1
    outer loop
      vertex -0.0573867770946213 0.285063075411265 0.907178646776466
      vertex -0.213982749131173 -0.196889770394284 0.90717864660406
      vertex -0.310764382508906 0.100973469288101 0.9071786465638
    endloop
  endfacet
  facet normal -0.8506508080985188 0.2763932033909902 0.4472135952770263
    outer loop
      vertex 0.632714192038292 -0.205581304085521 -0.697962978364141
      vertex 0.886091797604529 -0.123253929431608 -0.266891248529533
      vertex 0.789310164488681 0.00995456087976451 -0.533308229214845
    endloop
  endfacet
  facet normal -0.8506508082145071 0.2763932027147255 0.44721359547435774
    outer loop
      vertex 0.632714191980574 -0.471998284789709 -0.533308228932352
      vertex 0.886091797604529 -0.123253929431608 -0.266891248529533
      vertex 0.632714192038292 -0.205581304085521 -0.697962978364141
    endloop
  endfacet
  facet normal -0.8506508082506646 0.2763932028640254 0.4472135953133094
    outer loop
      vertex 0.886091797604529 -0.123253929431608 -0.266891248529533
      vertex 0.632714191980574 -0.471998284789709 -0.533308228932352
      vertex 0.7893101641366 -0.421117168973182 -0.266891248397523
    endloop
  endfacet
endsolid OpenSCAD_Model
