solid OpenSCAD_Model
  facet normal 0.5257311119995451 0.7236067974760727 -0.44721359608373246
    outer loop
      vertex -0.0207697808084963 -0.736689059961501 0.617773305746269
      vertex -0.436981640290552 -0.330982766916571 0.784933491321742
      vertex -0.179748564592915 -0.517873536048758 0.784933491321742
    endloop
  endfacet
  facet normal 0.5257311119995471 0.7236067974760734 -0.4472135960837289
    outer loop
      vertex -0.0207697809617327 -0.903849245701737 0.347302443928122
      vertex -0.436981640290552 -0.330982766916571 0.784933491321742
      vertex -0.0207697808084963 -0.736689059961501 0.617773305746269
    endloop
  endfacet
  facet normal 0.5257311119995483 0.7236067974760733 -0.4472135960837278
    outer loop
      vertex -0.436981640290552 -0.330982766916571 0.784933491321742
      vertex -0.0207697809617327 -0.903849245701737 0.347302443928122
      vertex -0.694214715876411 -0.247402674290035 0.617773305747732
    endloop
  endfacet
  facet normal 0.5257311119995467 0.7236067974760728 -0.44721359608373057
    outer loop
      vertex -0.179748564826416 -0.955504583983653 0.0768315821487111
      vertex -0.694214715876411 -0.247402674290035 0.617773305747732
      vertex -0.0207697809617327 -0.903849245701737 0.347302443928122
    endloop
  endfacet
  facet normal 0.5257311119995466 0.7236067974760728 -0.44721359608373057
    outer loop
      vertex -0.694214715876411 -0.247402674290035 0.617773305747732
      vertex -0.179748564826416 -0.955504583983653 0.0768315821487111
      vertex -0.853193499721448 -0.299058012591102 0.34730244396043
    endloop
  endfacet
  facet normal 0.52573111199955 0.7236067974760738 -0.4472135960837248
    outer loop
      vertex -0.436981640499478 -0.87192449127138 -0.0903286033890888
      vertex -0.853193499721448 -0.299058012591102 0.34730244396043
      vertex -0.179748564826416 -0.955504583983653 0.0768315821487111
    endloop
  endfacet
  facet normal 0.525731111999542 0.7236067974760744 -0.4472135960837332
    outer loop
      vertex -0.853193499721448 -0.299058012591102 0.34730244396043
      vertex -0.436981640499478 -0.87192449127138 -0.0903286033890888
      vertex -0.853193499810638 -0.466218198357744 0.0768315821748503
    endloop
  endfacet
  facet normal 0.5257311119995466 0.7236067974760759 -0.44721359608372535
    outer loop
      vertex -0.853193499810638 -0.466218198357744 0.0768315821748503
      vertex -0.436981640499478 -0.87192449127138 -0.0903286033890888
      vertex -0.694214716109913 -0.685033722196379 -0.090328603379105
    endloop
  endfacet
  facet normal 0 0.607061997836019 -0.7946544725749307
    outer loop
      vertex 0.138209002959439 -0.517873536048758 0.784933491321742
      vertex -0.0207697808084963 -0.736689059961501 0.617773305746269
      vertex -0.179748564592915 -0.517873536048758 0.784933491321742
    endloop
  endfacet
  facet normal 0 0.5257311119137726 -0.85065080847896
    outer loop
      vertex -0.179748564592915 -0.517873536048758 0.784933491321742
      vertex 0.13820900294516 -0.247402674148347 0.952093676852438
      vertex 0.138209002959439 -0.517873536048758 0.784933491321742
    endloop
  endfacet
  facet normal 6.652673430964733e-10 0.5257311113478623 -0.8506508088287117
    outer loop
      vertex 0.13820900294516 -0.247402674148347 0.952093676852438
      vertex -0.179748564592915 -0.517873536048758 0.784933491321742
      vertex -0.179748564295965 -0.247402674029202 0.952093676677409
    endloop
  endfacet
  facet normal 0.35682208918356895 0.4911234723028287 -0.7946544731038049
    outer loop
      vertex -0.436981640290552 -0.330982766916571 0.784933491321742
      vertex -0.179748564295965 -0.247402674029202 0.952093676677409
      vertex -0.179748564592915 -0.517873536048758 0.784933491321742
    endloop
  endfacet
  facet normal 0.5773502691280469 0.18759247397337447 -0.7946544723628759
    outer loop
      vertex -0.694214715876411 -0.247402674290035 0.617773305747732
      vertex -0.535235932110908 -0.0285871503764338 0.784933491321742
      vertex -0.436981640290552 -0.330982766916571 0.784933491321742
    endloop
  endfacet
  facet normal 0.49999999901509024 0.162459847717019 -0.8506508090072404
    outer loop
      vertex -0.436981640290552 -0.330982766916571 0.784933491321742
      vertex -0.278002856146367 0.054992942389409 0.952093676636537
      vertex -0.179748564295965 -0.247402674029202 0.952093676677409
    endloop
  endfacet
  facet normal 0.4999999990150844 0.16245984771702257 -0.8506508090072432
    outer loop
      vertex -0.278002856146367 0.054992942389409 0.952093676636537
      vertex -0.436981640290552 -0.330982766916571 0.784933491321742
      vertex -0.535235932110908 -0.0285871503764338 0.784933491321742
    endloop
  endfacet
  facet normal 0.8506508084040041 -0.27639320238512566 -0.44721359531761723
    outer loop
      vertex -0.853193499445187 0.409043897066612 -0.0903286036935523
      vertex -0.535235931942756 0.679514758905819 0.347302443814096
      vertex -0.43698164015469 0.544279327976553 0.617773305692182
    endloop
  endfacet
  facet normal 0.850650808404004 -0.27639320238511844 -0.44721359531762167
    outer loop
      vertex -0.535235931942756 0.679514758905819 0.347302443814096
      vertex -0.853193499445187 0.409043897066612 -0.0903286036935523
      vertex -0.694214715672524 0.627859420779438 0.0768315819256765
    endloop
  endfacet
  facet normal 0.8506508084040035 -0.27639320238513226 -0.447213595317614
    outer loop
      vertex -0.951447791353071 0.106648280554912 -0.0903286037063214
      vertex -0.43698164015469 0.544279327976553 0.617773305692182
      vertex -0.436981640209096 0.273808466137235 0.784933491321742
    endloop
  endfacet
  facet normal 0.8506508084040035 -0.2763932023851284 -0.4472135953176164
    outer loop
      vertex -0.43698164015469 0.544279327976553 0.617773305692182
      vertex -0.951447791353071 0.106648280554912 -0.0903286037063214
      vertex -0.853193499445187 0.409043897066612 -0.0903286036935523
    endloop
  endfacet
  facet normal 0.8506508084040031 -0.27639320238513226 -0.44721359531761434
    outer loop
      vertex -0.951447791429991 -0.163822581303554 0.0768315818922495
      vertex -0.436981640209096 0.273808466137235 0.784933491321742
      vertex -0.535235932110908 -0.0285871503764338 0.784933491321742
    endloop
  endfacet
  facet normal 0.8506508084040033 -0.2763932023851338 -0.4472135953176136
    outer loop
      vertex -0.436981640209096 0.273808466137235 0.784933491321742
      vertex -0.951447791429991 -0.163822581303554 0.0768315818922495
      vertex -0.951447791353071 0.106648280554912 -0.0903286037063214
    endloop
  endfacet
  facet normal 0.8506508083573832 -0.2763932018345256 -0.4472135957465846
    outer loop
      vertex -0.853193499721448 -0.299058012591102 0.34730244396043
      vertex -0.535235932110908 -0.0285871503764338 0.784933491321742
      vertex -0.694214715876411 -0.247402674290035 0.617773305747732
    endloop
  endfacet
  facet normal 0.8506508083573833 -0.2763932026569478 -0.4472135952382998
    outer loop
      vertex -0.535235932110908 -0.0285871503764338 0.784933491321742
      vertex -0.853193499721448 -0.299058012591102 0.34730244396043
      vertex -0.951447791429991 -0.163822581303554 0.0768315818922495
    endloop
  endfacet
  facet normal 0.5773502680551692 -0.18759247379671543 -0.7946544731840707
    outer loop
      vertex -0.436981640209096 0.273808466137235 0.784933491321742
      vertex -0.278002856146367 0.054992942389409 0.952093676636537
      vertex -0.535235932110908 -0.0285871503764338 0.784933491321742
    endloop
  endfacet
  facet normal 0.35682208979798813 -0.4911234733339735 -0.794654472190631
    outer loop
      vertex -0.43698164015469 0.544279327976553 0.617773305692182
      vertex -0.179748564548986 0.460699235171579 0.784933491321742
      vertex -0.436981640209096 0.273808466137235 0.784933491321742
    endloop
  endfacet
  facet normal 0.3090169948894352 -0.4253254035652263 -0.8506508084705381
    outer loop
      vertex -0.278002856146367 0.054992942389409 0.952093676636537
      vertex -0.179748564548986 0.460699235171579 0.784933491321742
      vertex -0.0207697808006984 0.241883711385385 0.952093676852439
    endloop
  endfacet
  facet normal 0.30901699380047587 -0.42532540348169984 -0.8506508089078891
    outer loop
      vertex -0.179748564548986 0.460699235171579 0.784933491321742
      vertex -0.278002856146367 0.054992942389409 0.952093676636537
      vertex -0.436981640209096 0.273808466137235 0.784933491321742
    endloop
  endfacet
  facet normal -1.4289121811867297e-10 -0.8944271911088584 -0.44721359528207305
    outer loop
      vertex -0.179748564716347 0.898330282423033 -0.0903286037142067
      vertex -0.179748564548986 0.460699235171579 0.784933491321742
      vertex -0.43698164015469 0.544279327976553 0.617773305692182
    endloop
  endfacet
  facet normal -8.032069748931653e-11 -0.8944271911088584 -0.4472135952820731
    outer loop
      vertex -0.179748564548986 0.460699235171579 0.784933491321742
      vertex -0.179748564716347 0.898330282423033 -0.0903286037142067
      vertex 0.138209003003365 0.460699235143026 0.784933491321742
    endloop
  endfacet
  facet normal -5.825274771211458e-10 -0.8944271910974948 -0.44721359530480004
    outer loop
      vertex -0.436981640168911 0.814750189728982 0.0768315818922495
      vertex -0.43698164015469 0.544279327976553 0.617773305692182
      vertex -0.535235931942756 0.679514758905819 0.347302443814096
    endloop
  endfacet
  facet normal 4.2002002441794247e-11 -0.8944271910910837 -0.44721359531762206
    outer loop
      vertex 0.138209003042671 0.898330282427637 -0.0903286036935523
      vertex 0.138209003003365 0.460699235143026 0.784933491321742
      vertex -0.179748564716347 0.898330282423033 -0.0903286037142067
    endloop
  endfacet
  facet normal -2.2109409984231208e-10 -0.8944271910974949 -0.44721359530480004
    outer loop
      vertex -0.43698164015469 0.544279327976553 0.617773305692182
      vertex -0.436981640168911 0.814750189728982 0.0768315818922495
      vertex -0.179748564716347 0.898330282423033 -0.0903286037142067
    endloop
  endfacet
  facet normal -8.029994506096884e-11 -0.8944271910910838 -0.44721359531762206
    outer loop
      vertex 0.138209003003365 0.460699235143026 0.784933491321742
      vertex 0.138209003042671 0.898330282427637 -0.0903286036935523
      vertex 0.395442078637429 0.544279327892116 0.617773305692182
    endloop
  endfacet
  facet normal -8.031287407210294e-11 -0.8944271910910855 -0.4472135953176183
    outer loop
      vertex 0.395442078670106 0.814750189637522 0.0768315819256765
      vertex 0.395442078637429 0.544279327892116 0.617773305692182
      vertex 0.138209003042671 0.898330282427637 -0.0903286036935523
    endloop
  endfacet
  facet normal -8.02954247058596e-11 -0.8944271910910857 -0.44721359531761834
    outer loop
      vertex 0.395442078637429 0.544279327892116 0.617773305692182
      vertex 0.395442078670106 0.814750189637522 0.0768315819256765
      vertex 0.493696370519043 0.679514758753415 0.347302443814096
    endloop
  endfacet
  facet normal -5.451493825513761e-11 -0.6070619979800489 -0.7946544724649016
    outer loop
      vertex 0.138209003003365 0.460699235143026 0.784933491321742
      vertex -0.0207697808006984 0.241883711385385 0.952093676852439
      vertex -0.179748564548986 0.460699235171579 0.784933491321742
    endloop
  endfacet
  facet normal -0.35682208988617276 -0.49112347326989014 -0.7946544721906393
    outer loop
      vertex 0.395442078637429 0.544279327892116 0.617773305692182
      vertex 0.395442078629916 0.27380846606249 0.784933491321742
      vertex 0.138209003003365 0.460699235143026 0.784933491321742
    endloop
  endfacet
  facet normal -0.3090169942927957 -0.42532540399870783 -0.8506508084705393
    outer loop
      vertex 0.236463294797661 0.0549929423373021 0.952093676852438
      vertex 0.138209003003365 0.460699235143026 0.784933491321742
      vertex 0.395442078629916 0.27380846606249 0.784933491321742
    endloop
  endfacet
  facet normal -0.3090169942718379 -0.4253254039971003 -0.8506508084789565
    outer loop
      vertex 0.138209003003365 0.460699235143026 0.784933491321742
      vertex 0.236463294797661 0.0549929423373021 0.952093676852438
      vertex -0.0207697808006984 0.241883711385385 0.952093676852439
    endloop
  endfacet
  facet normal -0.8506508085002983 -0.2763932024250253 -0.44721359510979525
    outer loop
      vertex 0.811653937896377 0.40904389691909 -0.0903286037063214
      vertex 0.493696370519043 0.679514758753415 0.347302443814096
      vertex 0.652675154167646 0.627859420679618 0.0768315818922495
    endloop
  endfacet
  facet normal -0.8506508085002982 -0.27639320198898026 -0.4472135953792859
    outer loop
      vertex 0.493696370519043 0.679514758753415 0.347302443814096
      vertex 0.811653937896377 0.40904389691909 -0.0903286037063214
      vertex 0.395442078637429 0.544279327892116 0.617773305692182
    endloop
  endfacet
  facet normal -0.8506508085644404 -0.27639320161500186 -0.4472135954884113
    outer loop
      vertex 0.909908230232101 0.106648279044918 -0.090328604246827
      vertex 0.395442078637429 0.544279327892116 0.617773305692182
      vertex 0.811653937896377 0.40904389691909 -0.0903286037063214
    endloop
  endfacet
  facet normal -0.8506508085644405 -0.27639320211490803 -0.4472135951794524
    outer loop
      vertex 0.395442078637429 0.544279327892116 0.617773305692182
      vertex 0.909908230232101 0.106648279044918 -0.090328604246827
      vertex 0.395442078629916 0.27380846606249 0.784933491321742
    endloop
  endfacet
  facet normal -0.8506508085389479 -0.2763932022635419 -0.4472135951360816
    outer loop
      vertex 0.909908230193612 -0.163822582669512 0.0768315814765614
      vertex 0.395442078629916 0.27380846606249 0.784933491321742
      vertex 0.909908230232101 0.106648279044918 -0.090328604246827
    endloop
  endfacet
  facet normal -0.8506508085389479 -0.27639320226008385 -0.44721359513821884
    outer loop
      vertex 0.395442078629916 0.27380846606249 0.784933491321742
      vertex 0.909908230193612 -0.163822582669512 0.0768315814765614
      vertex 0.493696370477422 -0.0285871504688259 0.784933491321742
    endloop
  endfacet
  facet normal -0.8506508084536323 -0.27639320275751167 -0.4472135949930713
    outer loop
      vertex 0.811653937931289 -0.299058012365131 0.347302443814096
      vertex 0.493696370477422 -0.0285871504688259 0.784933491321742
      vertex 0.909908230193612 -0.163822582669512 0.0768315814765614
    endloop
  endfacet
  facet normal -0.8506508084536323 -0.2763932022323887 -0.4472135953176151
    outer loop
      vertex 0.493696370477422 -0.0285871504688259 0.784933491321742
      vertex 0.811653937931289 -0.299058012365131 0.347302443814096
      vertex 0.652675154213117 -0.247402674200623 0.617773305692182
    endloop
  endfacet
  facet normal -0.5773502689841857 -0.1875924739839397 -0.794654472464903
    outer loop
      vertex 0.493696370477422 -0.0285871504688259 0.784933491321742
      vertex 0.236463294797661 0.0549929423373021 0.952093676852438
      vertex 0.395442078629916 0.27380846606249 0.784933491321742
    endloop
  endfacet
  facet normal -0.5773502693087926 0.1875924741467223 -0.7946544721906346
    outer loop
      vertex 0.652675154213117 -0.247402674200623 0.617773305692182
      vertex 0.395442078602765 -0.330982766991319 0.784933491321742
      vertex 0.493696370477422 -0.0285871504688259 0.784933491321742
    endloop
  endfacet
  facet normal -0.4999999997988573 0.16245984807094957 -0.850650808478959
    outer loop
      vertex 0.395442078602765 -0.330982766991319 0.784933491321742
      vertex 0.236463294797661 0.0549929423373021 0.952093676852438
      vertex 0.493696370477422 -0.0285871504688259 0.784933491321742
    endloop
  endfacet
  facet normal -0.4999999998167634 0.16245984805992772 -0.8506508084705391
    outer loop
      vertex 0.236463294797661 0.0549929423373021 0.952093676852438
      vertex 0.395442078602765 -0.330982766991319 0.784933491321742
      vertex 0.13820900294516 -0.247402674148347 0.952093676852438
    endloop
  endfacet
  facet normal -0.5257311122380169 0.7236067975967327 -0.44721359560815965
    outer loop
      vertex -0.0207697809617327 -0.903849245701737 0.347302443928122
      vertex 0.395442078602765 -0.330982766991319 0.784933491321742
      vertex 0.652675154213117 -0.247402674200623 0.617773305692182
    endloop
  endfacet
  facet normal -0.5257311122834023 0.7236067975932516 -0.4472135955604387
    outer loop
      vertex -0.0207697808084963 -0.736689059961501 0.617773305746269
      vertex 0.395442078602765 -0.330982766991319 0.784933491321742
      vertex -0.0207697809617327 -0.903849245701737 0.347302443928122
    endloop
  endfacet
  facet normal -0.5257311124041348 0.723606797502946 -0.4472135955646266
    outer loop
      vertex 0.138209002772778 -0.955504584091393 0.0768315820280207
      vertex 0.652675154213117 -0.247402674200623 0.617773305692182
      vertex 0.811653937931289 -0.299058012365131 0.347302443814096
    endloop
  endfacet
  facet normal -0.5257311118933279 0.7236067974665087 -0.4472135962240731
    outer loop
      vertex 0.395442078602765 -0.330982766991319 0.784933491321742
      vertex -0.0207697808084963 -0.736689059961501 0.617773305746269
      vertex 0.138209002959439 -0.517873536048758 0.784933491321742
    endloop
  endfacet
  facet normal -0.5257311101122789 0.7236067974618704 -0.4472135983253268
    outer loop
      vertex 0.395442078440118 -0.871924491571417 -0.0903286036147338
      vertex 0.811653937931289 -0.299058012365131 0.347302443814096
      vertex 0.811653938212157 -0.466218199044103 0.0768315816880096
    endloop
  endfacet
  facet normal -0.5257311120362231 0.723606797531166 -0.4472135959514719
    outer loop
      vertex 0.652675154213117 -0.247402674200623 0.617773305692182
      vertex 0.138209002772778 -0.955504584091393 0.0768315820280207
      vertex -0.0207697809617327 -0.903849245701737 0.347302443928122
    endloop
  endfacet
  facet normal -0.5257311116085567 0.7236067979480405 -0.44721359577970693
    outer loop
      vertex 0.395442078440118 -0.871924491571417 -0.0903286036147338
      vertex 0.811653938212157 -0.466218199044103 0.0768315816880096
      vertex 0.65267515423345 -0.685033722720437 -0.090328603760104
    endloop
  endfacet
  facet normal -0.5257311118641552 0.723606797327496 -0.4472135964832949
    outer loop
      vertex 0.811653937931289 -0.299058012365131 0.347302443814096
      vertex 0.395442078440118 -0.871924491571417 -0.0903286036147338
      vertex 0.138209002772778 -0.955504584091393 0.0768315820280207
    endloop
  endfacet
  facet normal -0.35682208963105316 0.4911234730114719 -0.7946544724649064
    outer loop
      vertex 0.138209002959439 -0.517873536048758 0.784933491321742
      vertex 0.13820900294516 -0.247402674148347 0.952093676852438
      vertex 0.395442078602765 -0.330982766991319 0.784933491321742
    endloop
  endfacet
  facet normal 2.6162835631844806e-10 0.9822469462379055 -0.1875924748125816
    outer loop
      vertex 0.138209002772778 -0.955504584091393 0.0768315820280207
      vertex -0.179748564826416 -0.955504583983653 0.0768315821487111
      vertex -0.0207697809617327 -0.903849245701737 0.347302443928122
    endloop
  endfacet
  facet normal 8.742525685577568e-10 0.8944271911068666 0.4472135952860564
    outer loop
      vertex 0.138209002868952 -0.517873536852605 -0.798430512972851
      vertex 0.138209002772778 -0.955504584091393 0.0768315820280207
      vertex 0.395442078440118 -0.871924491571417 -0.0903286036147338
    endloop
  endfacet
  facet normal 4.728303972417485e-10 0.8944271911068666 0.4472135952860564
    outer loop
      vertex 0.138209002772778 -0.955504584091393 0.0768315820280207
      vertex 0.138209002868952 -0.517873536852605 -0.798430512972851
      vertex -0.179748564826416 -0.955504583983653 0.0768315821487111
    endloop
  endfacet
  facet normal 5.819283983590764e-10 0.894427191149345 0.4472135952010996
    outer loop
      vertex 0.395442078424713 -0.601453629927792 -0.631270327353851
      vertex 0.395442078440118 -0.871924491571417 -0.0903286036147338
      vertex 0.493696370331744 -0.736689060803939 -0.360799465503475
    endloop
  endfacet
  facet normal 8.742515932243139e-10 0.8944271910485366 0.44721359540271627
    outer loop
      vertex -0.17974856469131 -0.517873536597041 -0.798430512862408
      vertex -0.179748564826416 -0.955504583983653 0.0768315821487111
      vertex 0.138209002868952 -0.517873536852605 -0.798430512972851
    endloop
  endfacet
  facet normal 1.1665852987529942e-9 0.894427191149345 0.4472135952010996
    outer loop
      vertex 0.395442078440118 -0.871924491571417 -0.0903286036147338
      vertex 0.395442078424713 -0.601453629927792 -0.631270327353851
      vertex 0.138209002868952 -0.517873536852605 -0.798430512972851
    endloop
  endfacet
  facet normal -1.1790876863433332e-10 0.8944271910485367 0.44721359540271627
    outer loop
      vertex -0.179748564826416 -0.955504583983653 0.0768315821487111
      vertex -0.17974856469131 -0.517873536597041 -0.798430512862408
      vertex -0.436981640499478 -0.87192449127138 -0.0903286033890888
    endloop
  endfacet
  facet normal 1.3048923125839249e-9 0.8944271908417916 0.44721359581620646
    outer loop
      vertex -0.436981640353175 -0.601453629144161 -0.631270327165366
      vertex -0.436981640499478 -0.87192449127138 -0.0903286033890888
      vertex -0.17974856469131 -0.517873536597041 -0.798430512862408
    endloop
  endfacet
  facet normal 2.6984828779387242e-9 0.8944271908417916 0.44721359581620646
    outer loop
      vertex -0.436981640499478 -0.87192449127138 -0.0903286033890888
      vertex -0.436981640353175 -0.601453629144161 -0.631270327165366
      vertex -0.535235932249916 -0.736689059925591 -0.360799465248721
    endloop
  endfacet
  facet normal -0.5773502684717029 0.7946544728208161 0.18759247405352733
    outer loop
      vertex 0.65267515423345 -0.685033722720437 -0.090328603760104
      vertex 0.493696370331744 -0.736689060803939 -0.360799465503475
      vertex 0.395442078440118 -0.871924491571417 -0.0903286036147338
    endloop
  endfacet
  facet normal -0.6381966011125441 0.7330937577268245 0.23511410147066955
    outer loop
      vertex 0.838810756013388 -0.475041984215678 -0.239841219337666
      vertex 0.493696370331744 -0.736689060803939 -0.360799465503475
      vertex 0.65267515423345 -0.685033722720437 -0.090328603760104
    endloop
  endfacet
  facet normal -0.6381966010557234 0.7330937580581138 0.23511410059193244
    outer loop
      vertex 0.493696370331744 -0.736689060803939 -0.360799465503475
      vertex 0.838810756013388 -0.475041984215678 -0.239841219337666
      vertex 0.679831972396829 -0.52669732240985 -0.510312080861634
    endloop
  endfacet
  facet normal -0.7745966694736861 0.62686666254462 -0.08389390341641333
    outer loop
      vertex 0.811653938212157 -0.466218199044103 0.0768315816880096
      vertex 0.838810756013388 -0.475041984215678 -0.239841219337666
      vertex 0.65267515423345 -0.685033722720437 -0.090328603760104
    endloop
  endfacet
  facet normal -0.9341723584614762 0.3035309993247793 -0.18759247622285938
    outer loop
      vertex 0.811653937931289 -0.299058012365131 0.347302443814096
      vertex 0.909908230193612 -0.163822582669512 0.0768315814765614
      vertex 0.811653938212157 -0.466218199044103 0.0768315816880096
    endloop
  endfacet
  facet normal -0.9472135955122277 0.3077683541813837 -0.08980559359683675
    outer loop
      vertex 0.93706504795536 -0.172646367940021 -0.239841219471685
      vertex 0.811653938212157 -0.466218199044103 0.0768315816880096
      vertex 0.909908230193612 -0.163822582669512 0.0768315814765614
    endloop
  endfacet
  facet normal -0.9472135955122251 0.30776835418139487 -0.08980559359682537
    outer loop
      vertex 0.811653938212157 -0.466218199044103 0.0768315816880096
      vertex 0.93706504795536 -0.172646367940021 -0.239841219471685
      vertex 0.838810756013388 -0.475041984215678 -0.239841219337666
    endloop
  endfacet
  facet normal 0.5773502691112584 0.7946544720276075 0.18759247544526364
    outer loop
      vertex -0.535235932249916 -0.736689059925591 -0.360799465248721
      vertex -0.694214716109913 -0.685033722196379 -0.090328603379105
      vertex -0.436981640499478 -0.87192449127138 -0.0903286033890888
    endloop
  endfacet
  facet normal 0.8506508081125758 0.2763932026829391 0.4472135956878877
    outer loop
      vertex -0.53523593166627 -0.0285871504094473 -0.798430512864682
      vertex -0.853193499491352 0.24188371149902 -0.36079946553577
      vertex -0.951447791353071 0.106648280554912 -0.0903286037063214
    endloop
  endfacet
  facet normal 0.8506508081125759 0.2763932046928629 0.4472135944456864
    outer loop
      vertex -0.853193499491352 0.24188371149902 -0.36079946553577
      vertex -0.53523593166627 -0.0285871504094473 -0.798430512864682
      vertex -0.694214715856968 0.190228373332233 -0.63127032737497
    endloop
  endfacet
  facet normal 0.8506508081929016 0.2763932022145989 0.44721359582454906
    outer loop
      vertex -0.436981639812935 -0.33098276693887 -0.798430512831665
      vertex -0.951447791353071 0.106648280554912 -0.0903286037063214
      vertex -0.951447791429991 -0.163822581303554 0.0768315818922495
    endloop
  endfacet
  facet normal 0.8506508081929015 0.2763932022146036 0.447213595824546
    outer loop
      vertex -0.951447791353071 0.106648280554912 -0.0903286037063214
      vertex -0.436981639812935 -0.33098276693887 -0.798430512831665
      vertex -0.53523593166627 -0.0285871504094473 -0.798430512864682
    endloop
  endfacet
  facet normal 0.8506508084398694 0.27639320152611396 0.44721359578029574
    outer loop
      vertex -0.436981640353175 -0.601453629144161 -0.631270327165366
      vertex -0.951447791429991 -0.163822581303554 0.0768315818922495
      vertex -0.853193499810638 -0.466218198357744 0.0768315821748503
    endloop
  endfacet
  facet normal 0.8506508084398693 0.27639320077466684 0.44721359624471557
    outer loop
      vertex -0.951447791429991 -0.163822581303554 0.0768315818922495
      vertex -0.436981640353175 -0.601453629144161 -0.631270327165366
      vertex -0.436981639812935 -0.33098276693887 -0.798430512831665
    endloop
  endfacet
  facet normal 0.8506508082630179 0.27639320122484606 0.4472135963028808
    outer loop
      vertex -0.535235932249916 -0.736689059925591 -0.360799465248721
      vertex -0.853193499810638 -0.466218198357744 0.0768315821748503
      vertex -0.694214716109913 -0.685033722196379 -0.090328603379105
    endloop
  endfacet
  facet normal 0.8506508082630179 0.27639320255723654 0.44721359547941825
    outer loop
      vertex -0.853193499810638 -0.466218198357744 0.0768315821748503
      vertex -0.535235932249916 -0.736689059925591 -0.360799465248721
      vertex -0.436981640353175 -0.601453629144161 -0.631270327165366
    endloop
  endfacet
  facet normal 0.9341723594384693 0.3035309977973138 -0.18759247382912406
    outer loop
      vertex -0.951447791429991 -0.163822581303554 0.0768315818922495
      vertex -0.853193499721448 -0.299058012591102 0.34730244396043
      vertex -0.853193499810638 -0.466218198357744 0.0768315821748503
    endloop
  endfacet
  facet normal 0.9341723589319694 -0.303530999251844 0.1875924739979108
    outer loop
      vertex -0.853193499491352 0.24188371149902 -0.36079946553577
      vertex -0.853193499445187 0.409043897066612 -0.0903286036935523
      vertex -0.951447791353071 0.106648280554912 -0.0903286037063214
    endloop
  endfacet
  facet normal 0.8355491586221437 -0.542972758479801 -0.0838939036799658
    outer loop
      vertex -0.710998552099323 0.650960390113449 -0.23984121886632
      vertex -0.694214715672524 0.627859420779438 0.0768315819256765
      vertex -0.853193499445187 0.409043897066612 -0.0903286036935523
    endloop
  endfacet
  facet normal 0.8944271904481905 -0.3804226075359155 0.2351141013689549
    outer loop
      vertex -0.853193499445187 0.409043897066612 -0.0903286036935523
      vertex -0.710998552180256 0.483800204542588 -0.510312080581561
      vertex -0.710998552099323 0.650960390113449 -0.23984121886632
    endloop
  endfacet
  facet normal 0.8944271904481902 -0.3804226075359163 0.2351141013689546
    outer loop
      vertex -0.710998552180256 0.483800204542588 -0.510312080581561
      vertex -0.853193499445187 0.409043897066612 -0.0903286036935523
      vertex -0.853193499491352 0.24188371149902 -0.36079946553577
    endloop
  endfacet
  facet normal 0.5773502691609421 -0.7946544723430062 -0.18759247395630216
    outer loop
      vertex -0.436981640168911 0.814750189728982 0.0768315818922495
      vertex -0.535235931942756 0.679514758905819 0.347302443814096
      vertex -0.694214715672524 0.627859420779438 0.0768315819256765
    endloop
  endfacet
  facet normal 0.5854101971822299 -0.8057480104032883 -0.08980559429236624
    outer loop
      vertex -0.453765476970836 0.837851159049818 -0.239841218871455
      vertex -0.694214715672524 0.627859420779438 0.0768315819256765
      vertex -0.710998552099323 0.650960390113449 -0.23984121886632
    endloop
  endfacet
  facet normal 0.5854101966088977 -0.8057480107459896 -0.08980559495494828
    outer loop
      vertex -0.694214715672524 0.627859420779438 0.0768315819256765
      vertex -0.453765476970836 0.837851159049818 -0.239841218871455
      vertex -0.436981640168911 0.814750189728982 0.0768315818922495
    endloop
  endfacet
  facet normal 0.25819888985382183 -0.9624422819529476 -0.08389390435220512
    outer loop
      vertex -0.453765476970836 0.837851159049818 -0.239841218871455
      vertex -0.179748564716347 0.898330282423033 -0.0903286037142067
      vertex -0.436981640168911 0.814750189728982 0.0768315818922495
    endloop
  endfacet
  facet normal 2.0368670358262613e-12 -0.9822469463388954 0.18759247428379228
    outer loop
      vertex -0.0207697811016099 0.846674944237093 -0.360799465561302
      vertex 0.138209003042671 0.898330282427637 -0.0903286036935523
      vertex -0.179748564716347 0.898330282423033 -0.0903286037142067
    endloop
  endfacet
  facet normal 0.08541019682621068 -0.9682078587261805 0.23511410119125625
    outer loop
      vertex -0.294786693383709 0.786195820864185 -0.510312080685597
      vertex -0.179748564716347 0.898330282423033 -0.0903286037142067
      vertex -0.453765476970836 0.837851159049818 -0.239841218871455
    endloop
  endfacet
  facet normal 0.0854101968480208 -0.9682078587257362 0.23511410118516357
    outer loop
      vertex -0.179748564716347 0.898330282423033 -0.0903286037142067
      vertex -0.294786693383709 0.786195820864185 -0.510312080685597
      vertex -0.0207697811016099 0.846674944237093 -0.360799465561302
    endloop
  endfacet
  facet normal -0.5257311123454472 -0.723606797260883 0.4472135960252846
    outer loop
      vertex 0.811653938312927 0.241883709896463 -0.360799466105098
      vertex 0.395442078670106 0.814750189637522 0.0768315819256765
      vertex 0.138209003042671 0.898330282427637 -0.0903286036935523
    endloop
  endfacet
  facet normal -0.5257311110619273 -0.7236067973593329 0.4472135973748574
    outer loop
      vertex 0.811653937896377 0.40904389691909 -0.0903286037063214
      vertex 0.395442078670106 0.814750189637522 0.0768315819256765
      vertex 0.811653938312927 0.241883709896463 -0.360799466105098
    endloop
  endfacet
  facet normal -0.5257311120994572 -0.7236067972941334 0.44721359626066254
    outer loop
      vertex 0.652675154406585 0.190228371785916 -0.631270327840577
      vertex 0.138209003042671 0.898330282427637 -0.0903286036935523
      vertex -0.0207697811016099 0.846674944237093 -0.360799465561302
    endloop
  endfacet
  facet normal -0.5257311119957522 -0.7236067976627509 0.44721359578613923
    outer loop
      vertex 0.395442078670106 0.814750189637522 0.0768315819256765
      vertex 0.811653937896377 0.40904389691909 -0.0903286037063214
      vertex 0.652675154167646 0.627859420679618 0.0768315818922495
    endloop
  endfacet
  facet normal -0.5257311121881234 -0.7236067976521429 0.4472135955771579
    outer loop
      vertex 0.395442078250799 0.273808465827853 -0.798430512864682
      vertex -0.0207697811016099 0.846674944237093 -0.360799465561302
      vertex -0.0207697811720604 0.679514758656731 -0.631270327395628
    endloop
  endfacet
  facet normal -0.5257311123812577 -0.7236067972725184 0.44721359596436006
    outer loop
      vertex 0.138209003042671 0.898330282427637 -0.0903286036935523
      vertex 0.652675154406585 0.190228371785916 -0.631270327840577
      vertex 0.811653938312927 0.241883709896463 -0.360799466105098
    endloop
  endfacet
  facet normal -0.5257311118757346 -0.7236067975506416 0.44721359610862527
    outer loop
      vertex 0.395442078250799 0.273808465827853 -0.798430512864682
      vertex -0.0207697811720604 0.679514758656731 -0.631270327395628
      vertex 0.138209002603864 0.460699234880336 -0.798430512831665
    endloop
  endfacet
  facet normal -0.5257311130077978 -0.723606797589271 0.447213594715301
    outer loop
      vertex -0.0207697811016099 0.846674944237093 -0.360799465561302
      vertex 0.395442078250799 0.273808465827853 -0.798430512864682
      vertex 0.652675154406585 0.190228371785916 -0.631270327840577
    endloop
  endfacet
  facet normal -0.5773502692186773 -0.7946544723010591 -0.18759247395630277
    outer loop
      vertex 0.652675154167646 0.627859420679618 0.0768315818922495
      vertex 0.493696370519043 0.679514758753415 0.347302443814096
      vertex 0.395442078670106 0.814750189637522 0.0768315819256765
    endloop
  endfacet
  facet normal -0.9341723588273398 -0.303530999499344 0.18759247411848098
    outer loop
      vertex 0.811653938312927 0.241883709896463 -0.360799466105098
      vertex 0.909908230232101 0.106648279044918 -0.090328604246827
      vertex 0.811653937896377 0.40904389691909 -0.0903286037063214
    endloop
  endfacet
  facet normal -0.9951248488808138 -0.05184928339484181 -0.08389390294520206
    outer loop
      vertex 0.93706504795536 -0.172646367940021 -0.239841219471685
      vertex 0.909908230193612 -0.163822582669512 0.0768315814765614
      vertex 0.909908230232101 0.106648279044918 -0.090328604246827
    endloop
  endfacet
  facet normal -0.9472135957794855 -0.2179627572109062 0.2351141008946874
    outer loop
      vertex 0.93706504795536 -0.172646367940021 -0.239841219471685
      vertex 0.811653938312927 0.241883709896463 -0.360799466105098
      vertex 0.838810756370827 -0.0374109371334107 -0.510312081148425
    endloop
  endfacet
  facet normal -0.9472135955934718 -0.21796275683400151 0.23511410199349744
    outer loop
      vertex 0.811653938312927 0.241883709896463 -0.360799466105098
      vertex 0.93706504795536 -0.172646367940021 -0.239841219471685
      vertex 0.909908230232101 0.106648279044918 -0.090328604246827
    endloop
  endfacet
  facet normal -0.4177745790604591 0.7428051879407969 0.5231680933114076
    outer loop
      vertex 0.679831972396829 -0.52669732240985 -0.510312080861634
      vertex 0.395442078424713 -0.601453629927792 -0.631270327353851
      vertex 0.493696370331744 -0.736689060803939 -0.360799465503475
    endloop
  endfacet
  facet normal -0.3568220891882693 0.49112347375842624 0.7946544722020856
    outer loop
      vertex 0.395442078478215 -0.330982768200593 -0.798430513056582
      vertex 0.138209002868952 -0.517873536852605 -0.798430512972851
      vertex 0.395442078424713 -0.601453629927792 -0.631270327353851
    endloop
  endfacet
  facet normal -0.44721359515881143 0.47022820235845236 0.7608452129125012
    outer loop
      vertex 0.395442078478215 -0.330982768200593 -0.798430513056582
      vertex 0.679831972396829 -0.52669732240985 -0.510312080861634
      vertex 0.679831972455426 -0.256226460713948 -0.677472266535335
    endloop
  endfacet
  facet normal -0.44721359514448733 0.4702282023758407 0.7608452129101738
    outer loop
      vertex 0.679831972396829 -0.52669732240985 -0.510312080861634
      vertex 0.395442078478215 -0.330982768200593 -0.798430513056582
      vertex 0.395442078424713 -0.601453629927792 -0.631270327353851
    endloop
  endfacet
  facet normal 2.868709617303411e-9 -3.1729947283147165e-10 1
    outer loop
      vertex 0.395442078250799 0.273808465827853 -0.798430512864682
      vertex 0.395442078478215 -0.330982768200593 -0.798430513056582
      vertex 0.493696370471814 -0.028587151829945 -0.798430513242495
    endloop
  endfacet
  facet normal -1.0217702015368564e-10 -3.172994739485961e-10 1
    outer loop
      vertex 0.138209002603864 0.460699234880336 -0.798430512831665
      vertex 0.395442078478215 -0.330982768200593 -0.798430513056582
      vertex 0.395442078250799 0.273808465827853 -0.798430512864682
    endloop
  endfacet
  facet normal 4.3033011671478713e-10 -1.4427741684908823e-10 1
    outer loop
      vertex 0.138209002603864 0.460699234880336 -0.798430512831665
      vertex 0.138209002868952 -0.517873536852605 -0.798430512972851
      vertex 0.395442078478215 -0.330982768200593 -0.798430513056582
    endloop
  endfacet
  facet normal -4.308592873443413e-10 -1.4427741708237795e-10 1
    outer loop
      vertex -0.17974856490079 0.460699235004378 -0.79843051296866
      vertex 0.138209002868952 -0.517873536852605 -0.798430512972851
      vertex 0.138209002603864 0.460699234880336 -0.798430512831665
    endloop
  endfacet
  facet normal 3.4735134302184186e-10 1.0857854453838131e-10 1
    outer loop
      vertex -0.17974856490079 0.460699235004378 -0.79843051296866
      vertex -0.17974856469131 -0.517873536597041 -0.798430512862408
      vertex 0.138209002868952 -0.517873536852605 -0.798430512972851
    endloop
  endfacet
  facet normal -4.822247332002728e-11 1.0857854445370205e-10 1
    outer loop
      vertex -0.436981640396896 0.273808466044503 -0.798430512960772
      vertex -0.17974856469131 -0.517873536597041 -0.798430512862408
      vertex -0.17974856490079 0.460699235004378 -0.79843051296866
    endloop
  endfacet
  facet normal 2.7461180491913123e-10 2.1347376002961047e-10 1
    outer loop
      vertex -0.436981640396896 0.273808466044503 -0.798430512960772
      vertex -0.436981639812935 -0.33098276693887 -0.798430512831665
      vertex -0.17974856469131 -0.517873536597041 -0.798430512862408
    endloop
  endfacet
  facet normal 3.2096812407938386e-10 2.134737600743702e-10 1
    outer loop
      vertex -0.436981639812935 -0.33098276693887 -0.798430512831665
      vertex -0.436981640396896 0.273808466044503 -0.798430512960772
      vertex -0.53523593166627 -0.0285871504094473 -0.798430512864682
    endloop
  endfacet
  facet normal 0.35682209095684 0.4911234721308405 0.794654472413851
    outer loop
      vertex -0.436981639812935 -0.33098276693887 -0.798430512831665
      vertex -0.436981640353175 -0.601453629144161 -0.631270327165366
      vertex -0.17974856469131 -0.517873536597041 -0.798430512862408
    endloop
  endfacet
  facet normal 0.5773502692457468 -0.1875924727606074 0.7946544725636572
    outer loop
      vertex -0.436981640396896 0.273808466044503 -0.798430512960772
      vertex -0.694214715856968 0.190228373332233 -0.63127032737497
      vertex -0.53523593166627 -0.0285871504094473 -0.798430512864682
    endloop
  endfacet
  facet normal 0.8355491587279752 -0.1677878112752949 0.5231680931941652
    outer loop
      vertex -0.710998552180256 0.483800204542588 -0.510312080581561
      vertex -0.853193499491352 0.24188371149902 -0.36079946553577
      vertex -0.694214715856968 0.190228373332233 -0.63127032737497
    endloop
  endfacet
  facet normal 0.5854101975148318 -0.28001689881489294 0.7608452122631356
    outer loop
      vertex -0.710998552180256 0.483800204542588 -0.510312080581561
      vertex -0.436981640396896 0.273808466044503 -0.798430512960772
      vertex -0.453765477098164 0.567380297240143 -0.677472266229596
    endloop
  endfacet
  facet normal 0.5854101968857385 -0.28001689980164485 0.7608452123840148
    outer loop
      vertex -0.436981640396896 0.273808466044503 -0.798430512960772
      vertex -0.710998552180256 0.483800204542588 -0.510312080581561
      vertex -0.694214715856968 0.190228373332233 -0.63127032737497
    endloop
  endfacet
  facet normal 0.25819889012642583 -0.3553802842133695 0.8983530412537748
    outer loop
      vertex -0.17974856490079 0.460699235004378 -0.79843051296866
      vertex -0.453765477098164 0.567380297240143 -0.677472266229596
      vertex -0.436981640396896 0.273808466044503 -0.798430512960772
    endloop
  endfacet
  facet normal -5.792120359883233e-10 -0.6070619980208617 0.7946544724337234
    outer loop
      vertex 0.138209002603864 0.460699234880336 -0.798430512831665
      vertex -0.0207697811720604 0.679514758656731 -0.631270327395628
      vertex -0.17974856490079 0.460699235004378 -0.79843051296866
    endloop
  endfacet
  facet normal 0.08541019698000138 -0.6432881627912548 0.7608452128156484
    outer loop
      vertex -0.294786693383709 0.786195820864185 -0.510312080685597
      vertex -0.17974856490079 0.460699235004378 -0.79843051296866
      vertex -0.0207697811720604 0.679514758656731 -0.631270327395628
    endloop
  endfacet
  facet normal 0.08541019700182975 -0.643288162785602 0.7608452128179776
    outer loop
      vertex -0.17974856490079 0.460699235004378 -0.79843051296866
      vertex -0.294786693383709 0.786195820864185 -0.510312080685597
      vertex -0.453765477098164 0.567380297240143 -0.677472266229596
    endloop
  endfacet
  facet normal -0.098623199642017 -0.8465037569426425 0.5231680934215719
    outer loop
      vertex -0.0207697811016099 0.846674944237093 -0.360799465561302
      vertex -0.294786693383709 0.786195820864185 -0.510312080685597
      vertex -0.0207697811720604 0.679514758656731 -0.631270327395628
    endloop
  endfacet
  facet normal -0.5773502678832152 -0.18759247463335926 0.7946544731114978
    outer loop
      vertex 0.493696370471814 -0.028587151829945 -0.798430513242495
      vertex 0.652675154406585 0.190228371785916 -0.631270327840577
      vertex 0.395442078250799 0.273808465827853 -0.798430512864682
    endloop
  endfacet
  facet normal -0.7745966693636676 -0.3553802827705232 0.5231680938557471
    outer loop
      vertex 0.838810756370827 -0.0374109371334107 -0.510312081148425
      vertex 0.811653938312927 0.241883709896463 -0.360799466105098
      vertex 0.652675154406585 0.190228371785916 -0.631270327840577
    endloop
  endfacet
  facet normal -0.6381966010784148 -0.11755704955207755 0.7608452132152563
    outer loop
      vertex 0.493696370471814 -0.028587151829945 -0.798430513242495
      vertex 0.838810756370827 -0.0374109371334107 -0.510312081148425
      vertex 0.652675154406585 0.190228371785916 -0.631270327840577
    endloop
  endfacet
  facet normal -0.638196601077046 -0.11755704957458053 0.7608452132129278
    outer loop
      vertex 0.838810756370827 -0.0374109371334107 -0.510312081148425
      vertex 0.493696370471814 -0.028587151829945 -0.798430513242495
      vertex 0.679831972455426 -0.256226460713948 -0.677472266535335
    endloop
  endfacet
  facet normal -0.4177745793355531 0.13574319021291972 0.8983530414997328
    outer loop
      vertex 0.395442078478215 -0.330982768200593 -0.798430513056582
      vertex 0.679831972455426 -0.256226460713948 -0.677472266535335
      vertex 0.493696370471814 -0.028587151829945 -0.798430513242495
    endloop
  endfacet
  facet normal -3.142559964828104e-15 1.0210796291845694e-15 -1
    outer loop
      vertex 0.13820900294516 -0.247402674148347 0.952093676852438
      vertex -0.0207697808006984 0.241883711385385 0.952093676852439
      vertex 0.236463294797661 0.0549929423373021 0.952093676852438
    endloop
  endfacet
  facet normal 5.504790870068649e-10 1.788635398778548e-10 -1
    outer loop
      vertex -0.179748564295965 -0.247402674029202 0.952093676677409
      vertex -0.0207697808006984 0.241883711385385 0.952093676852439
      vertex 0.13820900294516 -0.247402674148347 0.952093676852438
    endloop
  endfacet
  facet normal 7.584730039168064e-10 1.1128221967263437e-10 -1
    outer loop
      vertex -0.0207697808006984 0.241883711385385 0.952093676852439
      vertex -0.179748564295965 -0.247402674029202 0.952093676677409
      vertex -0.278002856146367 0.054992942389409 0.952093676636537
    endloop
  endfacet
  facet normal -0.8506508080985189 0.27639320339099005 0.4472135952770262
    outer loop
      vertex 0.679831972455426 -0.256226460713948 -0.677472266535335
      vertex 0.93706504795536 -0.172646367940021 -0.239841219471685
      vertex 0.838810756370827 -0.0374109371334107 -0.510312081148425
    endloop
  endfacet
  facet normal -0.8506508082145069 0.27639320271472756 0.44721359547435685
    outer loop
      vertex 0.679831972396829 -0.52669732240985 -0.510312080861634
      vertex 0.93706504795536 -0.172646367940021 -0.239841219471685
      vertex 0.679831972455426 -0.256226460713948 -0.677472266535335
    endloop
  endfacet
  facet normal -0.8506508082506647 0.276393202864028 0.44721359531330807
    outer loop
      vertex 0.93706504795536 -0.172646367940021 -0.239841219471685
      vertex 0.679831972396829 -0.52669732240985 -0.510312080861634
      vertex 0.838810756013388 -0.475041984215678 -0.239841219337666
    endloop
  endfacet
  facet normal 0.5257311126226804 -0.7236067974785868 0.447213595347125
    outer loop
      vertex -0.710998552180256 0.483800204542588 -0.510312080581561
      vertex -0.453765476970836 0.837851159049818 -0.239841218871455
      vertex -0.710998552099323 0.650960390113449 -0.23984121886632
    endloop
  endfacet
  facet normal 0.5257311124695148 -0.723606797490335 0.4472135955081728
    outer loop
      vertex -0.710998552180256 0.483800204542588 -0.510312080581561
      vertex -0.294786693383709 0.786195820864185 -0.510312080685597
      vertex -0.453765476970836 0.837851159049818 -0.239841218871455
    endloop
  endfacet
  facet normal 0.5257311126571897 -0.7236067977486474 0.4472135948695895
    outer loop
      vertex -0.294786693383709 0.786195820864185 -0.510312080685597
      vertex -0.710998552180256 0.483800204542588 -0.510312080581561
      vertex -0.453765477098164 0.567380297240143 -0.677472266229596
    endloop
  endfacet
endsolid OpenSCAD_Model
