solid OpenSCAD_Model
  facet normal 0.5257311120784864 0.7236067975847222 -0.44721359581513276
    outer loop
      vertex -0.223918979513787 -0.92459410617334 0.308198035226248
      vertex -0.586227499460078 -0.425919209505684 0.68915175734235
      vertex -0.223918979533893 -0.6891517575305 0.68915175734235
    endloop
  endfacet
  facet normal 0.5257311120784876 0.723606797584722 -0.44721359581513137
    outer loop
      vertex -0.223918979513787 -0.92459410617334 0.308198035226248
      vertex -0.810146479123647 -0.498674896561646 0.308198035217418
      vertex -0.586227499460078 -0.425919209505684 0.68915175734235
    endloop
  endfacet
  facet normal 0.5257311120784878 0.7236067975847223 -0.44721359581513087
    outer loop
      vertex -0.810146479123647 -0.498674896561646 0.308198035217418
      vertex -0.223918979513787 -0.92459410617334 0.308198035226248
      vertex -0.58622749949129 -0.806872931925752 0.0727556868643716
    endloop
  endfacet
  facet normal -2.5296292665733508e-17 0.8506508081180604 -0.5257311124977205
    outer loop
      vertex 0.223918979772313 -0.924594106157884 0.308198035251256
      vertex -0.223918979533893 -0.6891517575305 0.68915175734235
      vertex 0.223918979821818 -0.6891517575305 0.68915175734235
    endloop
  endfacet
  facet normal -5.180170696171893e-16 0.8506508081180602 -0.525731112497721
    outer loop
      vertex -0.223918979533893 -0.6891517575305 0.68915175734235
      vertex 0.223918979772313 -0.924594106157884 0.308198035251256
      vertex -0.223918979513787 -0.92459410617334 0.308198035226248
    endloop
  endfacet
  facet normal -1.6108311044690463e-17 0.6070619970377741 -0.7946544731847356
    outer loop
      vertex 1.55570130450987e-10 -0.38095372175487 0.924594105425098
      vertex 0.223918979821818 -0.6891517575305 0.68915175734235
      vertex -0.223918979533893 -0.6891517575305 0.68915175734235
    endloop
  endfacet
  facet normal 0.3090169938441655 0.42532540338120617 -0.8506508089422647
    outer loop
      vertex -0.223918979533893 -0.6891517575305 0.68915175734235
      vertex -0.362308519704244 -0.117721173893407 0.924594105367531
      vertex 1.55570130450987e-10 -0.38095372175487 0.924594105425098
    endloop
  endfacet
  facet normal 0.3090169938441624 0.4253254033812059 -0.850650808942266
    outer loop
      vertex -0.362308519704244 -0.117721173893407 0.924594105367531
      vertex -0.223918979533893 -0.6891517575305 0.68915175734235
      vertex -0.586227499460078 -0.425919209505684 0.68915175734235
    endloop
  endfacet
  facet normal 0.8090169945926232 0.2628655565522701 -0.5257311115378134
    outer loop
      vertex -0.586227499460078 -0.425919209505684 0.68915175734235
      vertex -0.94853601919018 -0.0727556868220727 0.308198035168051
      vertex -0.724617039890013 1.09051077901903e-10 0.68915175734235
    endloop
  endfacet
  facet normal 0.8090169944421836 0.2628655556751388 -0.525731112207882
    outer loop
      vertex -0.94853601919018 -0.0727556868220727 0.308198035168051
      vertex -0.586227499460078 -0.425919209505684 0.68915175734235
      vertex -0.810146479123647 -0.498674896561646 0.308198035217418
    endloop
  endfacet
  facet normal 0.5773502681532774 0.18759247404949073 -0.7946544730531188
    outer loop
      vertex -0.724617039890013 1.09051077901903e-10 0.68915175734235
      vertex -0.362308519704244 -0.117721173893407 0.924594105367531
      vertex -0.586227499460078 -0.425919209505684 0.68915175734235
    endloop
  endfacet
  facet normal 0.850650808704577 -0.2763932033345927 -0.4472135941590902
    outer loop
      vertex -0.586227500069863 0.425919209711357 0.68915175734235
      vertex -0.94853601899937 0.308198035407527 0.0727556867351256
      vertex -0.724617039405663 0.616396070570952 0.308198035202707
    endloop
  endfacet
  facet normal 0.8506508088344056 -0.27639320164063913 -0.44721359495906277
    outer loop
      vertex -0.94853601919018 -0.0727556868220727 0.308198035168051
      vertex -0.586227500069863 0.425919209711357 0.68915175734235
      vertex -0.724617039890013 1.09051077901903e-10 0.68915175734235
    endloop
  endfacet
  facet normal 0.8506508089284852 -0.27639320202910805 -0.4472135945400255
    outer loop
      vertex -0.586227500069863 0.425919209711357 0.68915175734235
      vertex -0.94853601919018 -0.0727556868220727 0.308198035168051
      vertex -0.94853601899937 0.308198035407527 0.0727556867351256
    endloop
  endfacet
  facet normal 0.5000000002070624 -0.1624598468587223 -0.850650808470537
    outer loop
      vertex -0.362308519704244 -0.117721173893407 0.924594105367531
      vertex -0.586227500069863 0.425919209711357 0.68915175734235
      vertex -0.223918980210632 0.308198035404858 0.924594105671624
    endloop
  endfacet
  facet normal 0.49999999927698174 -0.16245984743122097 -0.850650808907887
    outer loop
      vertex -0.586227500069863 0.425919209711357 0.68915175734235
      vertex -0.362308519704244 -0.117721173893407 0.924594105367531
      vertex -0.724617039890013 1.09051077901903e-10 0.68915175734235
    endloop
  endfacet
  facet normal 0.500000000249673 -0.6881909608680487 -0.5257311110537772
    outer loop
      vertex -0.362308519599073 0.879628618385115 0.308198035168051
      vertex -0.586227500069863 0.425919209711357 0.68915175734235
      vertex -0.724617039405663 0.616396070570952 0.308198035202707
    endloop
  endfacet
  facet normal 0.5000000009223255 -0.6881909607703065 -0.5257311105419926
    outer loop
      vertex -0.586227500069863 0.425919209711357 0.68915175734235
      vertex -0.362308519599073 0.879628618385115 0.308198035168051
      vertex -0.223918980520547 0.689151757703639 0.68915175734235
    endloop
  endfacet
  facet normal 0.356822089788465 -0.4911234726852332 -0.7946544725958506
    outer loop
      vertex -0.223918980520547 0.689151757703639 0.68915175734235
      vertex -0.223918980210632 0.308198035404858 0.924594105671624
      vertex -0.586227500069863 0.425919209711357 0.68915175734235
    endloop
  endfacet
  facet normal 3.402044638499536e-10 -0.8944271913314676 -0.44721359483685436
    outer loop
      vertex 2.98665537416288e-10 0.997349792526511 0.0727556867244983
      vertex -0.223918980520547 0.689151757703639 0.68915175734235
      vertex -0.362308519599073 0.879628618385115 0.308198035168051
    endloop
  endfacet
  facet normal 7.982461307957437e-15 -0.8944271912820343 -0.4472135949357213
    outer loop
      vertex -0.223918980520547 0.689151757703639 0.68915175734235
      vertex 2.98665537416288e-10 0.997349792526511 0.0727556867244983
      vertex 0.223918978711401 0.689151757703643 0.68915175734235
    endloop
  endfacet
  facet normal -5.504867392570437e-10 -0.8944271913620258 -0.44721359477573813
    outer loop
      vertex 0.223918978711401 0.689151757703643 0.68915175734235
      vertex 2.98665537416288e-10 0.997349792526511 0.0727556867244983
      vertex 0.362308520102337 0.879628618302717 0.308198035202707
    endloop
  endfacet
  facet normal 1.602223261619188e-11 -0.5257311118222687 -0.8506508085355124
    outer loop
      vertex -0.223918980210632 0.308198035404858 0.924594105671624
      vertex 0.223918978711401 0.689151757703643 0.68915175734235
      vertex 0.223918978962321 0.308198035418508 0.924594105671623
    endloop
  endfacet
  facet normal 4.6919730295617135e-15 -0.5257311118086434 -0.8506508085439334
    outer loop
      vertex 0.223918978711401 0.689151757703643 0.68915175734235
      vertex -0.223918980210632 0.308198035404858 0.924594105671624
      vertex -0.223918980520547 0.689151757703639 0.68915175734235
    endloop
  endfacet
  facet normal -0.49999999978932985 -0.6881909599716033 -0.5257311126650516
    outer loop
      vertex 0.362308520102337 0.879628618302717 0.308198035202707
      vertex 0.586227498661221 0.425919209711357 0.68915175734235
      vertex 0.223918978711401 0.689151757703643 0.68915175734235
    endloop
  endfacet
  facet normal -0.4999999999620403 -0.6881909599465069 -0.5257311125336458
    outer loop
      vertex 0.586227498661221 0.425919209711357 0.68915175734235
      vertex 0.362308520102337 0.879628618302717 0.308198035202707
      vertex 0.724617039838495 0.616396070391615 0.308198035168051
    endloop
  endfacet
  facet normal -0.35682208969333007 -0.49112347309718274 -0.79465447238397
    outer loop
      vertex 0.586227498661221 0.425919209711357 0.68915175734235
      vertex 0.223918978962321 0.308198035418508 0.924594105671623
      vertex 0.223918978711401 0.689151757703643 0.68915175734235
    endloop
  endfacet
  facet normal -0.8506508081317803 -0.276393200970159 -0.4472135967099149
    outer loop
      vertex 0.94853601947789 0.308198035049126 0.0727556867244983
      vertex 0.586227498661221 0.425919209711357 0.68915175734235
      vertex 0.724617039838495 0.616396070391615 0.308198035168051
    endloop
  endfacet
  facet normal -0.8506508078274803 -0.2763932027443643 -0.44721359619220885
    outer loop
      vertex 0.948536019466287 -0.0727556870523331 0.308198035202707
      vertex 0.586227498661221 0.425919209711357 0.68915175734235
      vertex 0.94853601947789 0.308198035049126 0.0727556867244983
    endloop
  endfacet
  facet normal -0.8506508077915623 -0.2763932025960538 -0.44721359635218977
    outer loop
      vertex 0.586227498661221 0.425919209711357 0.68915175734235
      vertex 0.948536019466287 -0.0727556870523331 0.308198035202707
      vertex 0.724617039129402 1.09051077901903e-10 0.68915175734235
    endloop
  endfacet
  facet normal -0.4999999998881964 -0.16245984839056063 -0.8506508083654065
    outer loop
      vertex 0.362308519425247 -0.117721174123479 0.924594105671623
      vertex 0.586227498661221 0.425919209711357 0.68915175734235
      vertex 0.724617039129402 1.09051077901903e-10 0.68915175734235
    endloop
  endfacet
  facet normal -0.49999999987029153 -0.16245984840158167 -0.8506508083738258
    outer loop
      vertex 0.586227498661221 0.425919209711357 0.68915175734235
      vertex 0.362308519425247 -0.117721174123479 0.924594105671623
      vertex 0.223918978962321 0.308198035418508 0.924594105671623
    endloop
  endfacet
  facet normal -0.8090169939300477 0.2628655551060722 -0.5257311132805114
    outer loop
      vertex 0.948536019466287 -0.0727556870523331 0.308198035202707
      vertex 0.586227499347501 -0.425919209505682 0.68915175734235
      vertex 0.724617039129402 1.09051077901903e-10 0.68915175734235
    endloop
  endfacet
  facet normal -0.8090169940977323 0.2628655560837483 -0.5257311125336334
    outer loop
      vertex 0.586227499347501 -0.425919209505682 0.68915175734235
      vertex 0.948536019466287 -0.0727556870523331 0.308198035202707
      vertex 0.810146479295054 -0.498674896438777 0.308198035168051
    endloop
  endfacet
  facet normal -0.577350269143738 0.18759247349287625 -0.7946544724649058
    outer loop
      vertex 0.586227499347501 -0.425919209505682 0.68915175734235
      vertex 0.362308519425247 -0.117721174123479 0.924594105671623
      vertex 0.724617039129402 1.09051077901903e-10 0.68915175734235
    endloop
  endfacet
  facet normal -0.5257311122114098 0.7236067973995586 -0.4472135959584726
    outer loop
      vertex 0.223918979772313 -0.924594106157884 0.308198035251256
      vertex 0.586227499347501 -0.425919209505682 0.68915175734235
      vertex 0.810146479295054 -0.498674896438777 0.308198035168051
    endloop
  endfacet
  facet normal -0.525731112508554 0.7236067973767668 -0.44721359564603685
    outer loop
      vertex 0.586227499347501 -0.425919209505682 0.68915175734235
      vertex 0.223918979772313 -0.924594106157884 0.308198035251256
      vertex 0.223918979821818 -0.6891517575305 0.68915175734235
    endloop
  endfacet
  facet normal -0.5257311124695312 0.7236067977548323 -0.44721359508018815
    outer loop
      vertex 0.223918979772313 -0.924594106157884 0.308198035251256
      vertex 0.810146479295054 -0.498674896438777 0.308198035168051
      vertex 0.586227499640356 -0.806872931682349 0.0727556867279378
    endloop
  endfacet
  facet normal -0.30901699440838243 0.425325403687623 -0.8506508085840925
    outer loop
      vertex 0.223918979821818 -0.6891517575305 0.68915175734235
      vertex 0.362308519425247 -0.117721174123479 0.924594105671623
      vertex 0.586227499347501 -0.425919209505682 0.68915175734235
    endloop
  endfacet
  facet normal -0.30901699353753925 0.4253254036208266 -0.850650808933843
    outer loop
      vertex 0.362308519425247 -0.117721174123479 0.924594105671623
      vertex 0.223918979821818 -0.6891517575305 0.68915175734235
      vertex 1.55570130450987e-10 -0.38095372175487 0.924594105425098
    endloop
  endfacet
  facet normal 0.30901699378331493 0.9510565164873865 9.81920140445553e-10
    outer loop
      vertex 3.27818885084154e-11 -0.997349792441076 -0.0727556870670224
      vertex -0.58622749949129 -0.806872931925752 0.0727556868643716
      vertex -0.223918979513787 -0.92459410617334 0.308198035226248
    endloop
  endfacet
  facet normal 0.3090169934238864 0.951056516604172 -6.189982524838471e-10
    outer loop
      vertex -0.58622749949129 -0.806872931925752 0.0727556868643716
      vertex 3.27818885084154e-11 -0.997349792441076 -0.0727556870670224
      vertex -0.362308519760607 -0.879628618801013 -0.30819803518032
    endloop
  endfacet
  facet normal -2.3424491542288038e-11 0.9822469466688158 -0.18759247255630654
    outer loop
      vertex 0.223918979772313 -0.924594106157884 0.308198035251256
      vertex 3.27818885084154e-11 -0.997349792441076 -0.0727556870670224
      vertex -0.223918979513787 -0.92459410617334 0.308198035226248
    endloop
  endfacet
  facet normal 0.934172359360197 0.3035309988119869 -0.18759247257712783
    outer loop
      vertex -0.948536018796226 -0.308198034915035 -0.0727556871722374
      vertex -0.94853601919018 -0.0727556868220727 0.308198035168051
      vertex -0.810146479123647 -0.498674896561646 0.308198035217418
    endloop
  endfacet
  facet normal 0.809016994982533 0.5877852514562034 1.3036120589949471e-9
    outer loop
      vertex -0.58622749949129 -0.806872931925752 0.0727556868643716
      vertex -0.948536018796226 -0.308198034915035 -0.0727556871722374
      vertex -0.810146479123647 -0.498674896561646 0.308198035217418
    endloop
  endfacet
  facet normal 0.8090169949825331 0.5877852514562032 1.3036108471056726e-9
    outer loop
      vertex -0.948536018796226 -0.308198034915035 -0.0727556871722374
      vertex -0.58622749949129 -0.806872931925752 0.0727556868643716
      vertex -0.724617039204888 -0.616396070222684 -0.308198035353432
    endloop
  endfacet
  facet normal 1 -2.4970833828435995e-10 4.0639551098217515e-10
    outer loop
      vertex -0.94853601919018 -0.0727556868220727 0.308198035168051
      vertex -0.948536018903344 0.0727556869485832 -0.308198035363522
      vertex -0.94853601899937 0.308198035407527 0.0727556867351256
    endloop
  endfacet
  facet normal 1 6.65941794868757e-10 6.225511861043277e-10
    outer loop
      vertex -0.948536018903344 0.0727556869485832 -0.308198035363522
      vertex -0.94853601919018 -0.0727556868220727 0.308198035168051
      vertex -0.948536018796226 -0.308198034915035 -0.0727556871722374
    endloop
  endfacet
  facet normal 0.5773502688915866 -0.7946544721598215 -0.18759247556127648
    outer loop
      vertex -0.586227499736364 0.806872931918475 -0.0727556867368449
      vertex -0.362308519599073 0.879628618385115 0.308198035168051
      vertex -0.724617039405663 0.616396070570952 0.308198035202707
    endloop
  endfacet
  facet normal 0.8090169947662729 -0.5877852517538599 -1.0764947102868002e-9
    outer loop
      vertex -0.94853601899937 0.308198035407527 0.0727556867351256
      vertex -0.586227499736364 0.806872931918475 -0.0727556867368449
      vertex -0.724617039405663 0.616396070570952 0.308198035202707
    endloop
  endfacet
  facet normal 0.8090169950555721 -0.5877852513556737 1.0084351299793328e-9
    outer loop
      vertex -0.586227499736364 0.806872931918475 -0.0727556867368449
      vertex -0.94853601899937 0.308198035407527 0.0727556867351256
      vertex -0.81014647867945 0.498674896496423 -0.308198035340077
    endloop
  endfacet
  facet normal 0.30901699365279395 -0.9510565165297955 -8.797097966829972e-10
    outer loop
      vertex -0.586227499736364 0.806872931918475 -0.0727556867368449
      vertex 2.98665537416288e-10 0.997349792526511 0.0727556867244983
      vertex -0.362308519599073 0.879628618385115 0.308198035168051
    endloop
  endfacet
  facet normal 0.30901699304090285 -0.9510565167286109 1.8456930325181313e-9
    outer loop
      vertex 2.98665537416288e-10 0.997349792526511 0.0727556867244983
      vertex -0.586227499736364 0.806872931918475 -0.0727556867368449
      vertex -0.223918979291685 0.924594105305174 -0.308198035252422
    endloop
  endfacet
  facet normal -0.5773502691276935 -0.7946544719882782 -0.18759247556128353
    outer loop
      vertex 0.586227499894499 0.806872932012776 -0.0727556867368449
      vertex 0.724617039838495 0.616396070391615 0.308198035168051
      vertex 0.362308520102337 0.879628618302717 0.308198035202707
    endloop
  endfacet
  facet normal -0.3090169937783203 -0.9510565164890095 -1.1224562067504033e-9
    outer loop
      vertex 2.98665537416288e-10 0.997349792526511 0.0727556867244983
      vertex 0.586227499894499 0.806872932012776 -0.0727556867368449
      vertex 0.362308520102337 0.879628618302717 0.308198035202707
    endloop
  endfacet
  facet normal -0.3090169937783197 -0.9510565164890097 -1.1224532235864186e-9
    outer loop
      vertex 0.586227499894499 0.806872932012776 -0.0727556867368449
      vertex 2.98665537416288e-10 0.997349792526511 0.0727556867244983
      vertex 0.223918980085823 0.924594106238195 -0.308198035361121
    endloop
  endfacet
  facet normal -0.809016995049837 -0.5877852513635671 9.197228153774369e-10
    outer loop
      vertex 0.94853601947789 0.308198035049126 0.0727556867244983
      vertex 0.586227499894499 0.806872932012776 -0.0727556867368449
      vertex 0.810146479325435 0.498674895961114 -0.308198035413832
    endloop
  endfacet
  facet normal -0.8090169948001523 -0.5877852517072287 -8.797124216462233e-10
    outer loop
      vertex 0.586227499894499 0.806872932012776 -0.0727556867368449
      vertex 0.94853601947789 0.308198035049126 0.0727556867244983
      vertex 0.724617039838495 0.616396070391615 0.308198035168051
    endloop
  endfacet
  facet normal -0.9472135955486208 0.3077683538243305 -0.08980559443662378
    outer loop
      vertex 0.986785947105871 -0.0851838424207178 -0.137830351548113
      vertex 0.810146479295054 -0.498674896438777 0.308198035168051
      vertex 0.948536019466287 -0.0727556870523331 0.308198035202707
    endloop
  endfacet
  facet normal -0.9472135956973791 0.3077683531731621 -0.0898055950992024
    outer loop
      vertex 0.810146479295054 -0.498674896438777 0.308198035168051
      vertex 0.986785947105871 -0.0851838424207178 -0.137830351548113
      vertex 0.848396407351181 -0.511103051481586 -0.137830351542923
    endloop
  endfacet
  facet normal -0.9951248487956136 -0.05184928389109311 -0.08389390364912108
    outer loop
      vertex 0.94853601947789 0.308198035049126 0.0727556867244983
      vertex 0.986785947105871 -0.0851838424207178 -0.137830351548113
      vertex 0.948536019466287 -0.0727556870523331 0.308198035202707
    endloop
  endfacet
  facet normal -0.7745966693101403 0.6268666625811865 -0.08389390465321037
    outer loop
      vertex 0.848396407351181 -0.511103051481586 -0.137830351542923
      vertex 0.586227499640356 -0.806872931682349 0.0727556867279378
      vertex 0.810146479295054 -0.498674896438777 0.308198035168051
    endloop
  endfacet
  facet normal -0.30901699418588846 0.9510565163565826 1.3614664203583795e-9
    outer loop
      vertex 0.586227499640356 -0.806872931682349 0.0727556867279378
      vertex 3.27818885084154e-11 -0.997349792441076 -0.0727556870670224
      vertex 0.223918979772313 -0.924594106157884 0.308198035251256
    endloop
  endfacet
  facet normal -0.3090169937534676 0.9510565164970844 -5.645641563025948e-10
    outer loop
      vertex 3.27818885084154e-11 -0.997349792441076 -0.0727556870670224
      vertex 0.586227499640356 -0.806872931682349 0.0727556867279378
      vertex 0.362308519999361 -0.879628618592454 -0.308198035409586
    endloop
  endfacet
  facet normal 5.000404158010277e-10 0.8944271911824264 0.4472135951349368
    outer loop
      vertex 0.223918979864005 -0.689151757645813 -0.689151757536805
      vertex 3.27818885084154e-11 -0.997349792441076 -0.0727556870670224
      vertex 0.362308519999361 -0.879628618592454 -0.308198035409586
    endloop
  endfacet
  facet normal 2.2877778413259834e-10 0.8944271912218432 0.4472135950561032
    outer loop
      vertex -0.22391897945779 -0.689151757677461 -0.689151757244412
      vertex 3.27818885084154e-11 -0.997349792441076 -0.0727556870670224
      vertex 0.223918979864005 -0.689151757645813 -0.689151757536805
    endloop
  endfacet
  facet normal -9.449598376441085e-10 0.8944271910512891 0.44721359539721134
    outer loop
      vertex 3.27818885084154e-11 -0.997349792441076 -0.0727556870670224
      vertex -0.22391897945779 -0.689151757677461 -0.689151757244412
      vertex -0.362308519760607 -0.879628618801013 -0.30819803518032
    endloop
  endfacet
  facet normal 0.5773502703736876 0.7946544711968855 0.1875924750789012
    outer loop
      vertex -0.362308519760607 -0.879628618801013 -0.30819803518032
      vertex -0.724617039204888 -0.616396070222684 -0.308198035353432
      vertex -0.58622749949129 -0.806872931925752 0.0727556868643716
    endloop
  endfacet
  facet normal 0.934172358876328 -0.30353099916861775 0.18759247440965632
    outer loop
      vertex -0.948536018903344 0.0727556869485832 -0.308198035363522
      vertex -0.81014647867945 0.498674896496423 -0.308198035340077
      vertex -0.94853601899937 0.308198035407527 0.0727556867351256
    endloop
  endfacet
  facet normal 2.0919355220414073e-9 -0.9822469464161635 0.18759247387921105
    outer loop
      vertex -0.223918979291685 0.924594105305174 -0.308198035252422
      vertex 0.223918980085823 0.924594106238195 -0.308198035361121
      vertex 2.98665537416288e-10 0.997349792526511 0.0727556867244983
    endloop
  endfacet
  facet normal -0.9472135955984889 -0.21796275726654155 0.23511410157229773
    outer loop
      vertex 0.986785947105871 -0.0851838424207178 -0.137830351548113
      vertex 0.810146479325435 0.498674895961114 -0.308198035413832
      vertex 0.848396406990327 0.105293018523774 -0.518784073507604
    endloop
  endfacet
  facet normal -0.9472135955984892 -0.21796275726654193 0.23511410157229667
    outer loop
      vertex 0.810146479325435 0.498674895961114 -0.308198035413832
      vertex 0.986785947105871 -0.0851838424207178 -0.137830351548113
      vertex 0.94853601947789 0.308198035049126 0.0727556867244983
    endloop
  endfacet
  facet normal -0.63819660128938 0.7330937577638333 0.23511410087526932
    outer loop
      vertex 0.848396407351181 -0.511103051481586 -0.137830351542923
      vertex 0.362308519999361 -0.879628618592454 -0.308198035409586
      vertex 0.586227499640356 -0.806872931682349 0.0727556867279378
    endloop
  endfacet
  facet normal -0.6381966012907486 0.7330937577558532 0.2351141008964359
    outer loop
      vertex 0.362308519999361 -0.879628618592454 -0.308198035409586
      vertex 0.848396407351181 -0.511103051481586 -0.137830351542923
      vertex 0.624477427741898 -0.583858738369182 -0.518784073634028
    endloop
  endfacet
  facet normal 0.5000000002360644 0.688190959855112 0.5257311123926709
    outer loop
      vertex -0.586227499189157 -0.425919209535754 -0.689151757281573
      vertex -0.362308519760607 -0.879628618801013 -0.30819803518032
      vertex -0.22391897945779 -0.689151757677461 -0.689151757244412
    endloop
  endfacet
  facet normal 0.5000000011661376 0.6881909597199645 0.5257311116850293
    outer loop
      vertex -0.362308519760607 -0.879628618801013 -0.30819803518032
      vertex -0.586227499189157 -0.425919209535754 -0.689151757281573
      vertex -0.724617039204888 -0.616396070222684 -0.308198035353432
    endloop
  endfacet
  facet normal 8.310599312372752e-10 0.5257311122463286 0.8506508082734291
    outer loop
      vertex -0.223918979288122 -0.308198035429877 -0.924594105648236
      vertex 0.223918979864005 -0.689151757645813 -0.689151757536805
      vertex 0.223918979875613 -0.308198035649632 -0.924594105949944
    endloop
  endfacet
  facet normal 5.182366675516209e-10 0.5257311119802253 0.85065080843789
    outer loop
      vertex 0.223918979864005 -0.689151757645813 -0.689151757536805
      vertex -0.223918979288122 -0.308198035429877 -0.924594105648236
      vertex -0.22391897945779 -0.689151757677461 -0.689151757244412
    endloop
  endfacet
  facet normal 0.35682208989952957 0.49112347291827235 0.7946544724019535
    outer loop
      vertex -0.223918979288122 -0.308198035429877 -0.924594105648236
      vertex -0.586227499189157 -0.425919209535754 -0.689151757281573
      vertex -0.22391897945779 -0.689151757677461 -0.689151757244412
    endloop
  endfacet
  facet normal 4.246370504457506e-9 -1.3766488736265709e-9 1
    outer loop
      vertex -1.46081053272036e-9 0.380953723974585 -0.924594104050381
      vertex 0.223918979875613 -0.308198035649632 -0.924594105949944
      vertex 0.362308520029738 0.117721173742365 -0.924594105951256
    endloop
  endfacet
  facet normal 6.736990136543179e-10 -2.5374802140363417e-9 1
    outer loop
      vertex -1.46081053272036e-9 0.380953723974585 -0.924594104050381
      vertex -0.223918979288122 -0.308198035429877 -0.924594105648236
      vertex 0.223918979875613 -0.308198035649632 -0.924594105949944
    endloop
  endfacet
  facet normal -3.746300987680697e-9 -1.1013351722665425e-9 1
    outer loop
      vertex -0.223918979288122 -0.308198035429877 -0.924594105648236
      vertex -1.46081053272036e-9 0.380953723974585 -0.924594104050381
      vertex -0.36230851931641 0.11772117419199 -0.924594105697605
    endloop
  endfacet
  facet normal 0.49999999992997496 0.16245984797887028 0.8506508084194757
    outer loop
      vertex -0.36230851931641 0.11772117419199 -0.924594105697605
      vertex -0.586227499189157 -0.425919209535754 -0.689151757281573
      vertex -0.223918979288122 -0.308198035429877 -0.924594105648236
    endloop
  endfacet
  facet normal 0.4999999999120667 0.16245984798989346 0.8506508084278965
    outer loop
      vertex -0.586227499189157 -0.425919209535754 -0.689151757281573
      vertex -0.36230851931641 0.11772117419199 -0.924594105697605
      vertex -0.72461703919341 3.18930937637861e-11 -0.689151757343147
    endloop
  endfacet
  facet normal 0.30901699512283787 -0.4253254051933423 0.8506508075716916
    outer loop
      vertex -0.223918981423901 0.689151758580618 -0.689151755080544
      vertex -0.36230851931641 0.11772117419199 -0.924594105697605
      vertex -1.46081053272036e-9 0.380953723974585 -0.924594104050381
    endloop
  endfacet
  facet normal 0.3090169928455413 -0.42532540501866656 0.850650808486306
    outer loop
      vertex -0.36230851931641 0.11772117419199 -0.924594105697605
      vertex -0.223918981423901 0.689151758580618 -0.689151755080544
      vertex -0.586227498942234 0.425919209583074 -0.689151757373653
    endloop
  endfacet
  facet normal 0.5773502690353249 -0.18759247406484625 0.7946544724086487
    outer loop
      vertex -0.586227498942234 0.425919209583074 -0.689151757373653
      vertex -0.72461703919341 3.18930937637861e-11 -0.689151757343147
      vertex -0.36230851931641 0.11772117419199 -0.924594105697605
    endloop
  endfacet
  facet normal 0.5257311109666313 -0.723606797245694 0.4472135976707558
    outer loop
      vertex -0.81014647867945 0.498674896496423 -0.308198035340077
      vertex -0.223918979291685 0.924594105305174 -0.308198035252422
      vertex -0.586227499736364 0.806872931918475 -0.0727556867368449
    endloop
  endfacet
  facet normal 0.5257311115863714 -0.7236067980986931 0.44721359556202617
    outer loop
      vertex -0.586227498942234 0.425919209583074 -0.689151757373653
      vertex -0.223918979291685 0.924594105305174 -0.308198035252422
      vertex -0.81014647867945 0.498674896496423 -0.308198035340077
    endloop
  endfacet
  facet normal 0.5257311148748407 -0.7236067978464572 0.44721359210432493
    outer loop
      vertex -0.223918979291685 0.924594105305174 -0.308198035252422
      vertex -0.586227498942234 0.425919209583074 -0.689151757373653
      vertex -0.223918981423901 0.689151758580618 -0.689151755080544
    endloop
  endfacet
  facet normal 0.8090169942148581 -0.26286555610838513 0.5257311123410766
    outer loop
      vertex -0.948536018903344 0.0727556869485832 -0.308198035363522
      vertex -0.586227498942234 0.425919209583074 -0.689151757373653
      vertex -0.81014647867945 0.498674896496423 -0.308198035340077
    endloop
  endfacet
  facet normal 0.8090169942118002 -0.26286555609055645 0.5257311123546965
    outer loop
      vertex -0.586227498942234 0.425919209583074 -0.689151757373653
      vertex -0.948536018903344 0.0727556869485832 -0.308198035363522
      vertex -0.72461703919341 3.18930937637861e-11 -0.689151757343147
    endloop
  endfacet
  facet normal -0.4177745798461093 0.7428051875677828 0.5231680932136419
    outer loop
      vertex 0.624477427741898 -0.583858738369182 -0.518784073634028
      vertex 0.223918979864005 -0.689151757645813 -0.689151757536805
      vertex 0.362308519999361 -0.879628618592454 -0.308198035409586
    endloop
  endfacet
  facet normal -0.4472135958942317 0.4702282018403509 0.7608452128004362
    outer loop
      vertex 0.223918979875613 -0.308198035649632 -0.924594105949944
      vertex 0.624477427741898 -0.583858738369182 -0.518784073634028
      vertex 0.624477427760681 -0.202905016417085 -0.754226422006284
    endloop
  endfacet
  facet normal -0.44721359587991716 0.47022820185772757 0.7608452127981106
    outer loop
      vertex 0.624477427741898 -0.583858738369182 -0.518784073634028
      vertex 0.223918979875613 -0.308198035649632 -0.924594105949944
      vertex 0.223918979864005 -0.689151757645813 -0.689151757536805
    endloop
  endfacet
  facet normal -0.4177745798979025 0.13574318961538376 0.8983530413285041
    outer loop
      vertex 0.624477427760681 -0.202905016417085 -0.754226422006284
      vertex 0.362308520029738 0.117721173742365 -0.924594105951256
      vertex 0.223918979875613 -0.308198035649632 -0.924594105949944
    endloop
  endfacet
  facet normal -0.30901699460848986 -0.4253254040158534 0.8506508083472839
    outer loop
      vertex 0.223918979515677 0.689151757230655 -0.689151757658675
      vertex 0.362308520029738 0.117721173742365 -0.924594105951256
      vertex 0.586227499677907 0.425919209012918 -0.689151757540236
    endloop
  endfacet
  facet normal -0.3090169908922454 -0.4253254037308058 0.8506508098398126
    outer loop
      vertex 0.362308520029738 0.117721173742365 -0.924594105951256
      vertex 0.223918979515677 0.689151757230655 -0.689151757658675
      vertex -1.46081053272036e-9 0.380953723974585 -0.924594104050381
    endloop
  endfacet
  facet normal -0.6381966018424817 -0.11755704961632416 0.7608452125644309
    outer loop
      vertex 0.362308520029738 0.117721173742365 -0.924594105951256
      vertex 0.848396406990327 0.105293018523774 -0.518784073507604
      vertex 0.586227499677907 0.425919209012918 -0.689151757540236
    endloop
  endfacet
  facet normal -0.6381966017714295 -0.11755705078441356 0.7608452124435496
    outer loop
      vertex 0.848396406990327 0.105293018523774 -0.518784073507604
      vertex 0.362308520029738 0.117721173742365 -0.924594105951256
      vertex 0.624477427760681 -0.202905016417085 -0.754226422006284
    endloop
  endfacet
  facet normal -0.5257311126685901 -0.723606796874087 0.447213596271256
    outer loop
      vertex 0.223918980085823 0.924594106238195 -0.308198035361121
      vertex 0.810146479325435 0.498674895961114 -0.308198035413832
      vertex 0.586227499894499 0.806872932012776 -0.0727556867368449
    endloop
  endfacet
  facet normal -0.5257311119109296 -0.7236067970939869 0.4472135968061338
    outer loop
      vertex 0.586227499677907 0.425919209012918 -0.689151757540236
      vertex 0.223918980085823 0.924594106238195 -0.308198035361121
      vertex 0.223918979515677 0.689151757230655 -0.689151757658675
    endloop
  endfacet
  facet normal -0.525731112779929 -0.7236067970273319 0.4472135958924138
    outer loop
      vertex 0.223918980085823 0.924594106238195 -0.308198035361121
      vertex 0.586227499677907 0.425919209012918 -0.689151757540236
      vertex 0.810146479325435 0.498674895961114 -0.308198035413832
    endloop
  endfacet
  facet normal -0.7745966698269295 -0.35538028229996127 0.5231680934894926
    outer loop
      vertex 0.848396406990327 0.105293018523774 -0.518784073507604
      vertex 0.810146479325435 0.498674895961114 -0.308198035413832
      vertex 0.586227499677907 0.425919209012918 -0.689151757540236
    endloop
  endfacet
  facet normal 2.7447697445080416e-9 -0.6070619986776157 0.7946544719320081
    outer loop
      vertex 0.223918979515677 0.689151757230655 -0.689151757658675
      vertex -0.223918981423901 0.689151758580618 -0.689151755080544
      vertex -1.46081053272036e-9 0.380953723974585 -0.924594104050381
    endloop
  endfacet
  facet normal 1.8998422897333434e-9 -0.8506508086215917 0.5257311116829898
    outer loop
      vertex -0.223918981423901 0.689151758580618 -0.689151755080544
      vertex 0.223918980085823 0.924594106238195 -0.308198035361121
      vertex -0.223918979291685 0.924594105305174 -0.308198035252422
    endloop
  endfacet
  facet normal 4.623471426387274e-10 -0.8506508078658558 0.5257311129057962
    outer loop
      vertex 0.223918980085823 0.924594106238195 -0.308198035361121
      vertex -0.223918981423901 0.689151758580618 -0.689151755080544
      vertex 0.223918979515677 0.689151757230655 -0.689151757658675
    endloop
  endfacet
  facet normal 5.504781757384375e-10 1.7886120200409118e-10 -1
    outer loop
      vertex 1.55570130450987e-10 -0.38095372175487 0.924594105425098
      vertex 0.223918978962321 0.308198035418508 0.924594105671623
      vertex 0.362308519425247 -0.117721174123479 0.924594105671623
    endloop
  endfacet
  facet normal -2.2311766669031036e-15 3.5772312796816314e-10 -1
    outer loop
      vertex 1.55570130450987e-10 -0.38095372175487 0.924594105425098
      vertex -0.223918980210632 0.308198035404858 0.924594105671624
      vertex 0.223918978962321 0.308198035418508 0.924594105671623
    endloop
  endfacet
  facet normal 5.482048116579558e-10 5.358463944124338e-10 -1
    outer loop
      vertex -0.223918980210632 0.308198035404858 0.924594105671624
      vertex 1.55570130450987e-10 -0.38095372175487 0.924594105425098
      vertex -0.362308519704244 -0.117721173893407 0.924594105367531
    endloop
  endfacet
  facet normal 0.8506508084155381 0.2763932023170936 0.44721359533772403
    outer loop
      vertex -0.586227499189157 -0.425919209535754 -0.689151757281573
      vertex -0.948536018903344 0.0727556869485832 -0.308198035363522
      vertex -0.948536018796226 -0.308198034915035 -0.0727556871722374
    endloop
  endfacet
  facet normal 0.850650808321507 0.27639320192882494 0.44721359575654546
    outer loop
      vertex -0.948536018903344 0.0727556869485832 -0.308198035363522
      vertex -0.586227499189157 -0.425919209535754 -0.689151757281573
      vertex -0.72461703919341 3.18930937637861e-11 -0.689151757343147
    endloop
  endfacet
  facet normal 0.8506508083800088 0.2763932025242456 0.4472135952772779
    outer loop
      vertex -0.586227499189157 -0.425919209535754 -0.689151757281573
      vertex -0.948536018796226 -0.308198034915035 -0.0727556871722374
      vertex -0.724617039204888 -0.616396070222684 -0.308198035353432
    endloop
  endfacet
  facet normal -0.8506508086736105 0.276393201595773 0.4472135952926419
    outer loop
      vertex 0.624477427760681 -0.202905016417085 -0.754226422006284
      vertex 0.986785947105871 -0.0851838424207178 -0.137830351548113
      vertex 0.848396406990327 0.105293018523774 -0.518784073507604
    endloop
  endfacet
  facet normal -0.8506508085799643 0.27639320214177204 0.4472135951333215
    outer loop
      vertex 0.624477427741898 -0.583858738369182 -0.518784073634028
      vertex 0.986785947105871 -0.0851838424207178 -0.137830351548113
      vertex 0.624477427760681 -0.202905016417085 -0.754226422006284
    endloop
  endfacet
  facet normal -0.8506508084859276 0.27639320175348064 0.44721359555216733
    outer loop
      vertex 0.986785947105871 -0.0851838424207178 -0.137830351548113
      vertex 0.624477427741898 -0.583858738369182 -0.518784073634028
      vertex 0.848396407351181 -0.511103051481586 -0.137830351542923
    endloop
  endfacet
endsolid OpenSCAD_Model
