solid OpenSCAD_Model
  facet normal 0.5257311120784864 0.7236067975847229 -0.4472135958151312
    outer loop
      vertex -0.223918980482685 -0.924594101255569 0.308198033265152
      vertex -0.586227498357589 -0.425919207438933 0.68915175320327
      vertex -0.223918980502791 -0.689151753958798 0.68915175320327
    endloop
  endfacet
  facet normal 0.5257311120784862 0.7236067975847231 -0.44721359581513154
    outer loop
      vertex -0.223918980482685 -0.924594101255569 0.308198033265152
      vertex -0.810146476740971 -0.498674894078937 0.308198033256323
      vertex -0.586227498357589 -0.425919207438933 0.68915175320327
    endloop
  endfacet
  facet normal 0.525731112078486 0.7236067975847228 -0.44721359581513215
    outer loop
      vertex -0.810146476740971 -0.498674894078937 0.308198033256323
      vertex -0.223918980482685 -0.924594101255569 0.308198033265152
      vertex -0.586227498388802 -0.806872927681016 0.0727556862493445
    endloop
  endfacet
  facet normal -4.042042432757277e-18 0.8506508081180603 -0.5257311124977206
    outer loop
      vertex 0.223918976243041 -0.924594101240114 0.30819803329016
      vertex -0.223918980502791 -0.689151753958798 0.68915175320327
      vertex 0.223918976292546 -0.689151753958798 0.68915175320327
    endloop
  endfacet
  facet normal 1.5789371590252767e-15 0.850650808118061 -0.5257311124977192
    outer loop
      vertex -0.223918980502791 -0.689151753958798 0.68915175320327
      vertex 0.223918976243041 -0.924594101240114 0.30819803329016
      vertex -0.223918980482685 -0.924594101255569 0.308198033265152
    endloop
  endfacet
  facet normal 0 0.5257311119137714 -0.8506508084789608
    outer loop
      vertex -0.223918980502791 -0.689151753958798 0.68915175320327
      vertex 0.223918976272434 -0.308198033943282 0.924594100186472
      vertex 0.223918976292546 -0.689151753958798 0.68915175320327
    endloop
  endfacet
  facet normal 6.652680143911547e-10 0.5257311113478607 -0.8506508088287129
    outer loop
      vertex 0.223918976272434 -0.308198033943282 0.924594100186472
      vertex -0.223918980502791 -0.689151753958798 0.68915175320327
      vertex -0.223918980084542 -0.308198033775467 0.924594099939947
    endloop
  endfacet
  facet normal 0.35682208918356934 0.49112347230282705 -0.7946544731038058
    outer loop
      vertex -0.586227498357589 -0.425919207438933 0.68915175320327
      vertex -0.223918980084542 -0.308198033775467 0.924594099939947
      vertex -0.223918980502791 -0.689151753958798 0.68915175320327
    endloop
  endfacet
  facet normal 0.8090169944926384 0.26286555596931616 -0.5257311119831511
    outer loop
      vertex -0.586227498357589 -0.425919207438933 0.68915175320327
      vertex -0.948536016016305 -0.0727556867744242 0.308198033206956
      vertex -0.724617037672315 -3.64540683857599e-10 0.68915175320327
    endloop
  endfacet
  facet normal 0.809016994442183 0.26286555567513886 -0.5257311122078827
    outer loop
      vertex -0.948536016016305 -0.0727556867744242 0.308198033206956
      vertex -0.586227498357589 -0.425919207438933 0.68915175320327
      vertex -0.810146476740971 -0.498674894078937 0.308198033256323
    endloop
  endfacet
  facet normal 0.49999999901508907 0.162459847717021 -0.8506508090072408
    outer loop
      vertex -0.586227498357589 -0.425919207438933 0.68915175320327
      vertex -0.362308519441588 0.117721173127757 0.92459409988238
      vertex -0.223918980084542 -0.308198033775467 0.924594099939947
    endloop
  endfacet
  facet normal 0.49999999901508535 0.16245984771702332 -0.8506508090072425
    outer loop
      vertex -0.362308519441588 0.117721173127757 0.92459409988238
      vertex -0.586227498357589 -0.425919207438933 0.68915175320327
      vertex -0.724617037672315 -3.64540683857599e-10 0.68915175320327
    endloop
  endfacet
  facet normal 0.8506508083864392 -0.27639320237943454 -0.4472135953545445
    outer loop
      vertex -0.58622749824286 0.425919206672572 0.68915175320327
      vertex -0.948536015920481 0.308198033213051 0.0727556861094712
      vertex -0.724617037511975 0.616396066678589 0.308198033241611
    endloop
  endfacet
  facet normal 0.8506508083864419 -0.2763932023794257 -0.44721359535454513
    outer loop
      vertex -0.948536016016305 -0.0727556867744242 0.308198033206956
      vertex -0.58622749824286 0.425919206672572 0.68915175320327
      vertex -0.724617037672315 -3.64540683857599e-10 0.68915175320327
    endloop
  endfacet
  facet normal 0.8506508083864411 -0.2763932023794233 -0.4472135953545478
    outer loop
      vertex -0.58622749824286 0.425919206672572 0.68915175320327
      vertex -0.948536016016305 -0.0727556867744242 0.308198033206956
      vertex -0.948536015920481 0.308198033213051 0.0727556861094712
    endloop
  endfacet
  facet normal 0.5773502680551701 -0.1875924737967154 -0.79465447318407
    outer loop
      vertex -0.58622749824286 0.425919206672572 0.68915175320327
      vertex -0.362308519441588 0.117721173127757 0.92459409988238
      vertex -0.724617037672315 -3.64540683857599e-10 0.68915175320327
    endloop
  endfacet
  facet normal 0.49999999988792043 -0.688190960370135 -0.5257311120496017
    outer loop
      vertex -0.362308519776772 0.879628612987802 0.308198033206956
      vertex -0.58622749824286 0.425919206672572 0.68915175320327
      vertex -0.724617037511975 0.616396066678589 0.308198033241611
    endloop
  endfacet
  facet normal 0.49999999997524225 -0.6881909603574464 -0.5257311119831631
    outer loop
      vertex -0.58622749824286 0.425919206672572 0.68915175320327
      vertex -0.362308519776772 0.879628612987802 0.308198033206956
      vertex -0.223918980440918 0.689151753054625 0.68915175320327
    endloop
  endfacet
  facet normal 0.3090169948894323 -0.42532540356522675 -0.850650808470539
    outer loop
      vertex -0.362308519441588 0.117721173127757 0.92459409988238
      vertex -0.223918980440918 0.689151753054625 0.68915175320327
      vertex -2.08253124512257e-9 0.38095371945577 0.924594100186473
    endloop
  endfacet
  facet normal 0.30901699380047515 -0.4253254034817004 -0.850650808907889
    outer loop
      vertex -0.223918980440918 0.689151753054625 0.68915175320327
      vertex -0.362308519441588 0.117721173127757 0.92459409988238
      vertex -0.58622749824286 0.425919206672572 0.68915175320327
    endloop
  endfacet
  facet normal -8.033102346329092e-11 -0.8944271910726143 -0.44721359535456107
    outer loop
      vertex -1.95041993189696e-9 0.997349786456163 0.0727556861094712
      vertex -0.223918980440918 0.689151753054625 0.68915175320327
      vertex -0.362308519776772 0.879628612987802 0.308198033206956
    endloop
  endfacet
  facet normal -8.031974783390539e-11 -0.8944271910726159 -0.44721359535455785
    outer loop
      vertex -0.223918980440918 0.689151753054625 0.68915175320327
      vertex -1.95041993189696e-9 0.997349786456163 0.0727556861094712
      vertex 0.223918976354414 0.689151753014409 0.68915175320327
    endloop
  endfacet
  facet normal -8.03061749370874e-11 -0.8944271910726139 -0.44721359535456173
    outer loop
      vertex 0.223918976354414 0.689151753014409 0.68915175320327
      vertex -1.95041993189696e-9 0.997349786456163 0.0727556861094712
      vertex 0.362308515781865 0.879628612905404 0.308198033241612
    endloop
  endfacet
  facet normal -5.451429371107477e-11 -0.6070619979800472 -0.794654472464903
    outer loop
      vertex 0.223918976354414 0.689151753014409 0.68915175320327
      vertex -2.08253124512257e-9 0.38095371945577 0.924594100186473
      vertex -0.223918980440918 0.689151753054625 0.68915175320327
    endloop
  endfacet
  facet normal -0.5000000000746792 -0.6881909602344305 -0.5257311120496232
    outer loop
      vertex 0.362308515781865 0.879628612905404 0.308198033241612
      vertex 0.586227494109089 0.425919206567294 0.68915175320327
      vertex 0.223918976354414 0.689151753014409 0.68915175320327
    endloop
  endfacet
  facet normal -0.5000000001620105 -0.6881909602217404 -0.5257311119831775
    outer loop
      vertex 0.586227494109089 0.425919206567294 0.68915175320327
      vertex 0.362308515781865 0.879628612905404 0.308198033241612
      vertex 0.724617033446636 0.616396066499252 0.308198033206956
    endloop
  endfacet
  facet normal -0.3090169942927957 -0.4253254039987074 -0.8506508084705396
    outer loop
      vertex 0.362308515632435 0.117721173054366 0.924594100186472
      vertex 0.223918976354414 0.689151753014409 0.68915175320327
      vertex 0.586227494109089 0.425919206567294 0.68915175320327
    endloop
  endfacet
  facet normal -0.30901699427183654 -0.4253254039970998 -0.8506508084789572
    outer loop
      vertex 0.223918976354414 0.689151753014409 0.68915175320327
      vertex 0.362308515632435 0.117721173054366 0.924594100186472
      vertex -2.08253124512257e-9 0.38095371945577 0.924594100186473
    endloop
  endfacet
  facet normal -0.8506508084360748 -0.276393202226636 -0.44721359535456684
    outer loop
      vertex 0.948536011805844 0.30819803291879 0.0727556861094712
      vertex 0.586227494109089 0.425919206567294 0.68915175320327
      vertex 0.724617033446636 0.616396066499252 0.308198033206956
    endloop
  endfacet
  facet normal -0.8506508084360694 -0.27639320222666697 -0.4472135953545579
    outer loop
      vertex 0.948536011794241 -0.0727556870046846 0.308198033241611
      vertex 0.586227494109089 0.425919206567294 0.68915175320327
      vertex 0.948536011805844 0.30819803291879 0.0727556861094712
    endloop
  endfacet
  facet normal -0.8506508084360668 -0.2763932022266561 -0.4472135953545696
    outer loop
      vertex 0.586227494109089 0.425919206567294 0.68915175320327
      vertex 0.948536011794241 -0.0727556870046846 0.308198033241611
      vertex 0.724617033462055 -4.94673439359701e-10 0.68915175320327
    endloop
  endfacet
  facet normal -0.5773502689841843 -0.18759247398393947 -0.794654472464904
    outer loop
      vertex 0.724617033462055 -4.94673439359701e-10 0.68915175320327
      vertex 0.362308515632435 0.117721173054366 0.924594100186472
      vertex 0.586227494109089 0.425919206567294 0.68915175320327
    endloop
  endfacet
  facet normal -0.809016994406371 0.2628655561018968 -0.5257311120496128
    outer loop
      vertex 0.948536011794241 -0.0727556870046846 0.308198033241611
      vertex 0.586227494070848 -0.425919207544214 0.68915175320327
      vertex 0.724617033462055 -4.94673439359701e-10 0.68915175320327
    endloop
  endfacet
  facet normal -0.8090169944212894 0.2628655561888773 -0.5257311119831656
    outer loop
      vertex 0.586227494070848 -0.425919207544214 0.68915175320327
      vertex 0.948536011794241 -0.0727556870046846 0.308198033241611
      vertex 0.810146472414207 -0.498674893956068 0.308198033206956
    endloop
  endfacet
  facet normal -0.4999999997988562 0.16245984807094868 -0.85065080847896
    outer loop
      vertex 0.586227494070848 -0.425919207544214 0.68915175320327
      vertex 0.362308515632435 0.117721173054366 0.924594100186472
      vertex 0.724617033462055 -4.94673439359701e-10 0.68915175320327
    endloop
  endfacet
  facet normal -0.4999999998167625 0.16245984805992666 -0.8506508084705398
    outer loop
      vertex 0.362308515632435 0.117721173054366 0.924594100186472
      vertex 0.586227494070848 -0.425919207544214 0.68915175320327
      vertex 0.223918976272434 -0.308198033943282 0.924594100186472
    endloop
  endfacet
  facet normal -0.5257311123635576 0.7236067976089717 -0.44721359544077477
    outer loop
      vertex 0.223918976243041 -0.924594101240114 0.30819803329016
      vertex 0.586227494070848 -0.425919207544214 0.68915175320327
      vertex 0.810146472414207 -0.498674893956068 0.308198033206956
    endloop
  endfacet
  facet normal -0.525731112016194 0.7236067976356155 -0.44721359580601444
    outer loop
      vertex 0.586227494070848 -0.425919207544214 0.68915175320327
      vertex 0.223918976243041 -0.924594101240114 0.30819803329016
      vertex 0.223918976292546 -0.689151753958798 0.68915175320327
    endloop
  endfacet
  facet normal -0.5257311124962416 0.7236067977915956 -0.4472135949893037
    outer loop
      vertex 0.223918976243041 -0.924594101240114 0.30819803329016
      vertex 0.810146472414207 -0.498674893956068 0.308198033206956
      vertex 0.586227493955297 -0.806872927464095 0.0727556861094712
    endloop
  endfacet
  facet normal -0.3568220896310541 0.49112347301147047 -0.7946544724649071
    outer loop
      vertex 0.223918976292546 -0.689151753958798 0.68915175320327
      vertex 0.223918976272434 -0.308198033943282 0.924594100186472
      vertex 0.586227494070848 -0.425919207544214 0.68915175320327
    endloop
  endfacet
  facet normal 0.30901699378331354 0.9510565164873872 9.819187446527222e-10
    outer loop
      vertex -2.21630357928472e-9 -0.997349787107347 -0.0727556868501334
      vertex -0.586227498388802 -0.806872927681016 0.0727556862493445
      vertex -0.223918980482685 -0.924594101255569 0.308198033265152
    endloop
  endfacet
  facet normal 0.30901699378331354 0.9510565164873871 9.819188803313227e-10
    outer loop
      vertex -0.586227498388802 -0.806872927681016 0.0727556862493445
      vertex -2.21630357928472e-9 -0.997349787107347 -0.0727556868501334
      vertex -0.362308520108845 -0.879628613537205 -0.308198033681712
    endloop
  endfacet
  facet normal -2.342205661424275e-11 0.982246946668816 -0.18759247255630562
    outer loop
      vertex 0.223918976243041 -0.924594101240114 0.30819803329016
      vertex -2.21630357928472e-9 -0.997349787107347 -0.0727556868501334
      vertex -0.223918980482685 -0.924594101255569 0.308198033265152
    endloop
  endfacet
  facet normal 0.9341723595584024 0.30353099887638796 -0.18759247148590255
    outer loop
      vertex -0.94853601526516 -0.308198033304917 -0.072755687123301
      vertex -0.948536016016305 -0.0727556867744242 0.308198033206956
      vertex -0.810146476740971 -0.498674894078937 0.308198033256323
    endloop
  endfacet
  facet normal 0.8090169952696994 0.5877852510609527 2.0941120946314297e-9
    outer loop
      vertex -0.586227498388802 -0.806872927681016 0.0727556862493445
      vertex -0.94853601526516 -0.308198033304917 -0.072755687123301
      vertex -0.810146476740971 -0.498674894078937 0.308198033256323
    endloop
  endfacet
  facet normal 0.8090169952696992 0.5877852510609529 2.094113322585043e-9
    outer loop
      vertex -0.94853601526516 -0.308198033304917 -0.072755687123301
      vertex -0.586227498388802 -0.806872927681016 0.0727556862493445
      vertex -0.724617036970593 -0.616396066827713 -0.308198033838912
    endloop
  endfacet
  facet normal 1 3.1718192980477612e-9 5.539107098556872e-9
    outer loop
      vertex -0.948536016016305 -0.0727556867744242 0.308198033206956
      vertex -0.948536013063557 0.0727556868402732 -0.308198033566354
      vertex -0.948536015920481 0.308198033213051 0.0727556861094712
    endloop
  endfacet
  facet normal 1 -3.3000665693410278e-9 4.011302082909963e-9
    outer loop
      vertex -0.948536013063557 0.0727556868402732 -0.308198033566354
      vertex -0.948536016016305 -0.0727556867744242 0.308198033206956
      vertex -0.94853601526516 -0.308198033304917 -0.072755687123301
    endloop
  endfacet
  facet normal 0.577350268891588 -0.7946544721598205 -0.18759247556127592
    outer loop
      vertex -0.586227498633875 0.80687292693712 -0.0727556865199559
      vertex -0.362308519776772 0.879628612987802 0.308198033206956
      vertex -0.724617037511975 0.616396066678589 0.308198033241611
    endloop
  endfacet
  facet normal 0.8090169947225683 -0.5877852518140142 -1.1224484529835858e-9
    outer loop
      vertex -0.948536015920481 0.308198033213051 0.0727556861094712
      vertex -0.586227498633875 0.80687292693712 -0.0727556865199559
      vertex -0.724617037511975 0.616396066678589 0.308198033241611
    endloop
  endfacet
  facet normal 0.8090169947225686 -0.5877852518140135 -1.1224453984411492e-9
    outer loop
      vertex -0.586227498633875 0.80687292693712 -0.0727556865199559
      vertex -0.948536015920481 0.308198033213051 0.0727556861094712
      vertex -0.810146477045474 0.498674893467323 -0.308198033798163
    endloop
  endfacet
  facet normal 0.30901699365279284 -0.9510565165297957 -8.797082765336001e-10
    outer loop
      vertex -0.586227498633875 0.80687292693712 -0.0727556865199559
      vertex -1.95041993189696e-9 0.997349786456163 0.0727556861094712
      vertex -0.362308519776772 0.879628612987802 0.308198033206956
    endloop
  endfacet
  facet normal 0.3090169943702443 -0.9510565162966816 -4.075284063504723e-9
    outer loop
      vertex -1.95041993189696e-9 0.997349786456163 0.0727556861094712
      vertex -0.586227498633875 0.80687292693712 -0.0727556865199559
      vertex -0.223918981279637 0.924594101345345 -0.308198033897937
    endloop
  endfacet
  facet normal -0.5773502691276944 -0.7946544719882773 -0.18759247556128436
    outer loop
      vertex 0.58622749429384 0.806872927031421 -0.0727556865199559
      vertex 0.724617033446636 0.616396066499252 0.308198033206956
      vertex 0.362308515781865 0.879628612905404 0.308198033241612
    endloop
  endfacet
  facet normal -0.3090169937783191 -0.9510565164890099 -1.1224556243697363e-9
    outer loop
      vertex -1.95041993189696e-9 0.997349786456163 0.0727556861094712
      vertex 0.58622749429384 0.806872927031421 -0.0727556865199559
      vertex 0.362308515781865 0.879628612905404 0.308198033241612
    endloop
  endfacet
  facet normal -0.30901699377831904 -0.9510565164890098 -1.122455652471168e-9
    outer loop
      vertex 0.58622749429384 0.806872927031421 -0.0727556865199559
      vertex -1.95041993189696e-9 0.997349786456163 0.0727556861094712
      vertex 0.223918976556551 0.924594100583806 -0.308198033798163
    endloop
  endfacet
  facet normal -0.8090169943567374 -0.587785252317537 -4.0753311953422425e-9
    outer loop
      vertex 0.948536011805844 0.30819803291879 0.0727556861094712
      vertex 0.58622749429384 0.806872927031421 -0.0727556865199559
      vertex 0.810146473401032 0.498674894190407 -0.308198033897937
    endloop
  endfacet
  facet normal -0.8090169948001523 -0.5877852517072286 -8.797146853766929e-10
    outer loop
      vertex 0.58622749429384 0.806872927031421 -0.0727556865199559
      vertex 0.948536011805844 0.30819803291879 0.0727556861094712
      vertex 0.724617033446636 0.616396066499252 0.308198033206956
    endloop
  endfacet
  facet normal -0.9341723586658425 0.30353099910468107 -0.1875924755612833
    outer loop
      vertex 0.948536012377998 -0.308198034013122 -0.0727556865199559
      vertex 0.810146472414207 -0.498674893956068 0.308198033206956
      vertex 0.948536011794241 -0.0727556870046846 0.308198033241611
    endloop
  endfacet
  facet normal -1 -6.632511404746212e-10 -1.122444811984627e-9
    outer loop
      vertex 0.948536012389601 0.0727556859156177 -0.308198033798163
      vertex 0.948536011794241 -0.0727556870046846 0.308198033241611
      vertex 0.948536011805844 0.30819803291879 0.0727556861094712
    endloop
  endfacet
  facet normal -1 -6.632514821829164e-10 -1.1224448926510131e-9
    outer loop
      vertex 0.948536011794241 -0.0727556870046846 0.308198033241611
      vertex 0.948536012389601 0.0727556859156177 -0.308198033798163
      vertex 0.948536012377998 -0.308198034013122 -0.0727556865199559
    endloop
  endfacet
  facet normal -0.8090169944142647 0.5877852522383576 -4.07529952928078e-9
    outer loop
      vertex 0.586227493955297 -0.806872927464095 0.0727556861094712
      vertex 0.948536012377998 -0.308198034013122 -0.0727556865199559
      vertex 0.724617034853475 -0.616396068004015 -0.308198033897937
    endloop
  endfacet
  facet normal -0.8090169939708546 0.587785252848659 -8.797197385870534e-10
    outer loop
      vertex 0.948536012377998 -0.308198034013122 -0.0727556865199559
      vertex 0.586227493955297 -0.806872927464095 0.0727556861094712
      vertex 0.810146472414207 -0.498674893956068 0.308198033206956
    endloop
  endfacet
  facet normal -0.3090169941875049 0.9510565163560573 1.3625199980855409e-9
    outer loop
      vertex 0.586227493955297 -0.806872927464095 0.0727556861094712
      vertex -2.21630357928472e-9 -0.997349787107347 -0.0727556868501334
      vertex 0.223918976243041 -0.924594101240114 0.30819803329016
    endloop
  endfacet
  facet normal -0.3090169945107218 0.9510565162510379 2.8021487190470312e-9
    outer loop
      vertex -2.21630357928472e-9 -0.997349787107347 -0.0727556868501334
      vertex 0.586227493955297 -0.806872927464095 0.0727556861094712
      vertex 0.3623085154023 -0.879628612869235 -0.308198033869746
    endloop
  endfacet
  facet normal -7.084545560815981e-10 0.8944271903292849 0.4472135968412199
    outer loop
      vertex 0.2239189757951 -0.689151752441267 -0.689151753516739
      vertex -2.21630357928472e-9 -0.997349787107347 -0.0727556868501334
      vertex 0.3623085154023 -0.879628612869235 -0.308198033869746
    endloop
  endfacet
  facet normal -7.084598520041678e-10 0.8944271903292856 0.4472135968412184
    outer loop
      vertex -0.223918981000237 -0.689151752872079 -0.689151753364564
      vertex -2.21630357928472e-9 -0.997349787107347 -0.0727556868501334
      vertex 0.2239189757951 -0.689151752441267 -0.689151753516739
    endloop
  endfacet
  facet normal -7.084548019944389e-10 0.8944271903292864 0.4472135968412169
    outer loop
      vertex -2.21630357928472e-9 -0.997349787107347 -0.0727556868501334
      vertex -0.223918981000237 -0.689151752872079 -0.689151753364564
      vertex -0.362308520108845 -0.879628613537205 -0.308198033681712
    endloop
  endfacet
  facet normal 0.5773502702837198 0.7946544710391258 0.18759247602407486
    outer loop
      vertex -0.362308520108845 -0.879628613537205 -0.308198033681712
      vertex -0.724617036970593 -0.616396066827713 -0.308198033838912
      vertex -0.586227498388802 -0.806872927681016 0.0727556862493445
    endloop
  endfacet
  facet normal 0.8506508074219752 0.27639319884899766 0.44721359937099414
    outer loop
      vertex -0.586227495414297 -0.42591920679454 -0.68915175294433
      vertex -0.948536013063557 0.0727556868402732 -0.308198033566354
      vertex -0.94853601526516 -0.308198033304917 -0.072755687123301
    endloop
  endfacet
  facet normal 0.8506508053333197 0.27639319022463543 0.44721360867400156
    outer loop
      vertex -0.948536013063557 0.0727556868402732 -0.308198033566354
      vertex -0.586227495414297 -0.42591920679454 -0.68915175294433
      vertex -0.724617029485796 1.00239002604627e-10 -0.689151752416553
    endloop
  endfacet
  facet normal 0.850650807421976 0.27639319884899394 0.44721359937099536
    outer loop
      vertex -0.586227495414297 -0.42591920679454 -0.68915175294433
      vertex -0.94853601526516 -0.308198033304917 -0.072755687123301
      vertex -0.724617036970593 -0.616396066827713 -0.308198033838912
    endloop
  endfacet
  facet normal 0.9341723606152373 -0.30353099247805515 0.187592476575799
    outer loop
      vertex -0.948536013063557 0.0727556868402732 -0.308198033566354
      vertex -0.810146477045474 0.498674893467323 -0.308198033798163
      vertex -0.948536015920481 0.308198033213051 0.0727556861094712
    endloop
  endfacet
  facet normal 0.5257311136304931 -0.7236067978259213 0.4472135936003713
    outer loop
      vertex -0.810146477045474 0.498674893467323 -0.308198033798163
      vertex -0.223918981279637 0.924594101345345 -0.308198033897937
      vertex -0.586227498633875 0.80687292693712 -0.0727556865199559
    endloop
  endfacet
  facet normal 0.5257311081175978 -0.723606790238072 0.44721361235856605
    outer loop
      vertex -0.586227484889614 0.425919207248854 -0.689151751982827
      vertex -0.223918981279637 0.924594101345345 -0.308198033897937
      vertex -0.810146477045474 0.498674893467323 -0.308198033798163
    endloop
  endfacet
  facet normal 0.525731102819255 -0.7236067906444714 0.44721361792957304
    outer loop
      vertex -0.223918981279637 0.924594101345345 -0.308198033897937
      vertex -0.586227484889614 0.425919207248854 -0.689151751982827
      vertex -0.223918963970945 0.689151753990929 -0.689151751808819
    endloop
  endfacet
  facet normal -1.7120841196293248e-9 -0.9822469468281642 0.18759247172194746
    outer loop
      vertex -0.223918981279637 0.924594101345345 -0.308198033897937
      vertex 0.223918976556551 0.924594100583806 -0.308198033798163
      vertex -1.95041993189696e-9 0.997349786456163 0.0727556861094712
    endloop
  endfacet
  facet normal -0.5257311116983268 -0.7236067992297357 0.4472135936003492
    outer loop
      vertex 0.223918976556551 0.924594100583806 -0.308198033798163
      vertex 0.810146473401032 0.498674894190407 -0.308198033897937
      vertex 0.58622749429384 0.806872927031421 -0.0727556865199559
    endloop
  endfacet
  facet normal -0.5257311198532642 -0.7236068034804208 0.4472135771358921
    outer loop
      vertex 0.586227507138325 0.425919208376739 -0.689151752381228
      vertex 0.223918976556551 0.924594100583806 -0.308198033798163
      vertex 0.22391899270063 0.68915175442174 -0.689151751960995
    endloop
  endfacet
  facet normal -0.5257311150540797 -0.7236068038485334 0.4472135821820534
    outer loop
      vertex 0.223918976556551 0.924594100583806 -0.308198033798163
      vertex 0.586227507138325 0.425919208376739 -0.689151752381228
      vertex 0.810146473401032 0.498674894190407 -0.308198033897937
    endloop
  endfacet
  facet normal -0.9341723599101206 -0.3035309976480357 0.18759247172193366
    outer loop
      vertex 0.810146473401032 0.498674894190407 -0.308198033897937
      vertex 0.948536012389601 0.0727556859156177 -0.308198033798163
      vertex 0.948536011805844 0.30819803291879 0.0727556861094712
    endloop
  endfacet
  facet normal -0.8506508119833833 0.2763932132549838 0.4472135817912907
    outer loop
      vertex 0.586227496690131 -0.425919205666662 -0.689151753342732
      vertex 0.948536012389601 0.0727556859156177 -0.308198033798163
      vertex 0.724617041248072 1.49437649710687e-9 -0.689151752909005
    endloop
  endfacet
  facet normal -0.8506508091947091 0.2763932017401403 0.4472135942122297
    outer loop
      vertex 0.948536012389601 0.0727556859156177 -0.308198033798163
      vertex 0.586227496690131 -0.425919205666662 -0.689151753342732
      vertex 0.948536012377998 -0.308198034013122 -0.0727556865199559
    endloop
  endfacet
  facet normal -0.8506508094169795 0.2763932004442036 0.4472135945903789
    outer loop
      vertex 0.948536012377998 -0.308198034013122 -0.0727556865199559
      vertex 0.586227496690131 -0.425919205666662 -0.689151753342732
      vertex 0.724617034853475 -0.616396068004015 -0.308198033897937
    endloop
  endfacet
  facet normal -0.5773502652524507 0.7946544752691979 0.18759247358985495
    outer loop
      vertex 0.724617034853475 -0.616396068004015 -0.308198033897937
      vertex 0.3623085154023 -0.879628612869235 -0.308198033869746
      vertex 0.586227493955297 -0.806872927464095 0.0727556861094712
    endloop
  endfacet
  facet normal -0.49999999563585185 0.6881909615393291 0.5257311145630641
    outer loop
      vertex 0.586227496690131 -0.425919205666662 -0.689151753342732
      vertex 0.3623085154023 -0.879628612869235 -0.308198033869746
      vertex 0.724617034853475 -0.616396068004015 -0.308198033897937
    endloop
  endfacet
  facet normal -0.49999999737940587 0.688190961285976 0.5257311132364895
    outer loop
      vertex 0.3623085154023 -0.879628612869235 -0.308198033869746
      vertex 0.586227496690131 -0.425919205666662 -0.689151753342732
      vertex 0.2239189757951 -0.689151752441267 -0.689151753516739
    endloop
  endfacet
  facet normal 0.5000000026729835 0.6881909575922381 0.5257311130371635
    outer loop
      vertex -0.586227495414297 -0.42591920679454 -0.68915175294433
      vertex -0.362308520108845 -0.879628613537205 -0.308198033681712
      vertex -0.223918981000237 -0.689151752872079 -0.689151753364564
    endloop
  endfacet
  facet normal 0.49999999994550465 0.6881909579885642 0.5257311151123527
    outer loop
      vertex -0.362308520108845 -0.879628613537205 -0.308198033681712
      vertex -0.586227495414297 -0.42591920679454 -0.68915175294433
      vertex -0.724617036970593 -0.616396066827713 -0.308198033838912
    endloop
  endfacet
  facet normal 0.8090169828531641 -0.26286554591553146 0.5257311349213519
    outer loop
      vertex -0.948536013063557 0.0727556868402732 -0.308198033566354
      vertex -0.586227484889614 0.425919207248854 -0.689151751982827
      vertex -0.810146477045474 0.498674893467323 -0.308198033798163
    endloop
  endfacet
  facet normal 0.8090169859034387 -0.2628655636999958 0.5257311213352303
    outer loop
      vertex -0.586227484889614 0.425919207248854 -0.689151751982827
      vertex -0.948536013063557 0.0727556868402732 -0.308198033566354
      vertex -0.724617029485796 1.00239002604627e-10 -0.689151752416553
    endloop
  endfacet
  facet normal -1.5636416765785699e-9 -0.8506508068093424 0.5257311146152706
    outer loop
      vertex -0.223918963970945 0.689151753990929 -0.689151751808819
      vertex 0.223918976556551 0.924594100583806 -0.308198033798163
      vertex -0.223918981279637 0.924594101345345 -0.308198033897937
    endloop
  endfacet
  facet normal 9.969530032269367e-10 -0.8506508081555267 0.5257311124370989
    outer loop
      vertex 0.223918976556551 0.924594100583806 -0.308198033798163
      vertex -0.223918963970945 0.689151753990929 -0.689151751808819
      vertex 0.22391899270063 0.68915175442174 -0.689151751960995
    endloop
  endfacet
  facet normal -0.8090170051279115 -0.2628655579413961 0.5257310946311085
    outer loop
      vertex 0.586227507138325 0.425919208376739 -0.689151752381228
      vertex 0.948536012389601 0.0727556859156177 -0.308198033798163
      vertex 0.810146473401032 0.498674894190407 -0.308198033897937
    endloop
  endfacet
  facet normal -0.8090170037414591 -0.2628655498577587 0.525731100806458
    outer loop
      vertex 0.948536012389601 0.0727556859156177 -0.308198033798163
      vertex 0.586227507138325 0.425919208376739 -0.689151752381228
      vertex 0.724617041248072 1.49437649710687e-9 -0.689151752909005
    endloop
  endfacet
  facet normal 0.30901699382599745 0.4253253998055294 0.8506508107367029
    outer loop
      vertex -0.362308513292668 -0.117721172803022 -0.924594099571856
      vertex -0.223918981000237 -0.689151752872079 -0.689151753364564
      vertex 8.65388999313108e-10 -0.380953718487133 -0.924594099745564
    endloop
  endfacet
  facet normal 0.3090169946968475 0.42532539987232626 0.8506508103869496
    outer loop
      vertex -0.223918981000237 -0.689151752872079 -0.689151753364564
      vertex -0.362308513292668 -0.117721172803022 -0.924594099571856
      vertex -0.586227495414297 -0.42591920679454 -0.68915175294433
    endloop
  endfacet
  facet normal -3.139596785025737e-10 0.6070619961408171 0.7946544738699498
    outer loop
      vertex 0.2239189757951 -0.689151752441267 -0.689151753516739
      vertex 8.65388999313108e-10 -0.380953718487133 -0.924594099745564
      vertex -0.223918981000237 -0.689151752872079 -0.689151753364564
    endloop
  endfacet
  facet normal 0.5773502698785205 0.18759246620423253 0.7946544736516704
    outer loop
      vertex -0.362308513292668 -0.117721172803022 -0.924594099571856
      vertex -0.724617029485796 1.00239002604627e-10 -0.689151752416553
      vertex -0.586227495414297 -0.42591920679454 -0.68915175294433
    endloop
  endfacet
  facet normal 0.4999999996738499 -0.1624598549859139 0.8506508072317959
    outer loop
      vertex -0.586227484889614 0.425919207248854 -0.689151751982827
      vertex -0.362308513292668 -0.117721172803022 -0.924594099571856
      vertex -0.223918968701737 0.308198034285269 -0.92459409913813
    endloop
  endfacet
  facet normal 0.4999999996917617 -0.1624598549748885 0.8506508072233733
    outer loop
      vertex -0.362308513292668 -0.117721172803022 -0.924594099571856
      vertex -0.586227484889614 0.425919207248854 -0.689151751982827
      vertex -0.724617029485796 1.00239002604627e-10 -0.689151752416553
    endloop
  endfacet
  facet normal 0.35682208954249006 -0.4911234770607513 0.7946544700020813
    outer loop
      vertex -0.223918968701737 0.308198034285269 -0.92459409913813
      vertex -0.223918963970945 0.689151753990929 -0.689151751808819
      vertex -0.586227484889614 0.425919207248854 -0.689151751982827
    endloop
  endfacet
  facet normal 7.947949795146226e-10 -0.5257311127688032 0.8506508079505221
    outer loop
      vertex -0.223918963970945 0.689151753990929 -0.689151751808819
      vertex 0.223918987910841 0.308198034702435 -0.924594099290305
      vertex 0.22391899270063 0.68915175442174 -0.689151751960995
    endloop
  endfacet
  facet normal 7.787749616891645e-10 -0.5257311127824307 0.8506508079420998
    outer loop
      vertex 0.223918987910841 0.308198034702435 -0.924594099290305
      vertex -0.223918963970945 0.689151753990929 -0.689151751808819
      vertex -0.223918968701737 0.308198034285269 -0.92459409913813
    endloop
  endfacet
  facet normal -0.3568220897173913 -0.49112347056013744 0.7946544739411462
    outer loop
      vertex 0.223918987910841 0.308198034702435 -0.924594099290305
      vertex 0.586227507138325 0.425919208376739 -0.689151752381228
      vertex 0.22391899270063 0.68915175442174 -0.689151751960995
    endloop
  endfacet
  facet normal -0.49999999920618415 -0.16245984279615483 0.8506508098347197
    outer loop
      vertex 0.586227507138325 0.425919208376739 -0.689151752381228
      vertex 0.362308521694052 -0.117721171875881 -0.924594099513987
      vertex 0.724617041248072 1.49437649710687e-9 -0.689151752909005
    endloop
  endfacet
  facet normal -0.5000000001362639 -0.1624598422236566 0.85065080939737
    outer loop
      vertex 0.362308521694052 -0.117721171875881 -0.924594099513987
      vertex 0.586227507138325 0.425919208376739 -0.689151752381228
      vertex 0.223918987910841 0.308198034702435 -0.924594099290305
    endloop
  endfacet
  facet normal -0.5773502671442037 0.18759247958878544 0.7946544724786035
    outer loop
      vertex 0.362308521694052 -0.117721171875881 -0.924594099513987
      vertex 0.586227496690131 -0.425919205666662 -0.689151753342732
      vertex 0.724617041248072 1.49437649710687e-9 -0.689151752909005
    endloop
  endfacet
  facet normal -0.30901699335651184 0.4253254053051218 0.8506508081574574
    outer loop
      vertex 0.362308521694052 -0.117721171875881 -0.924594099513987
      vertex 0.2239189757951 -0.689151752441267 -0.689151753516739
      vertex 0.586227496690131 -0.425919205666662 -0.689151753342732
    endloop
  endfacet
  facet normal -0.3090169933565197 0.4253254053051224 0.8506508081574542
    outer loop
      vertex 0.2239189757951 -0.689151752441267 -0.689151753516739
      vertex 0.362308521694052 -0.117721171875881 -0.924594099513987
      vertex 8.65388999313108e-10 -0.380953718487133 -0.924594099745564
    endloop
  endfacet
  facet normal -2.231165775795985e-15 7.249497061303242e-16 -1
    outer loop
      vertex 0.223918976272434 -0.308198033943282 0.924594100186472
      vertex -2.08253124512257e-9 0.38095371945577 0.924594100186473
      vertex 0.362308515632435 0.117721173054366 0.924594100186472
    endloop
  endfacet
  facet normal 5.504781788784431e-10 1.7886265254919762e-10 -1
    outer loop
      vertex -0.223918980084542 -0.308198033775467 0.924594099939947
      vertex -2.08253124512257e-9 0.38095371945577 0.924594100186473
      vertex 0.223918976272434 -0.308198033943282 0.924594100186472
    endloop
  endfacet
  facet normal 7.58469621222778e-10 1.112821363790813e-10 -1
    outer loop
      vertex -2.08253124512257e-9 0.38095371945577 0.924594100186473
      vertex -0.223918980084542 -0.308198033775467 0.924594099939947
      vertex -0.362308519441588 0.117721173127757 0.92459409988238
    endloop
  endfacet
  facet normal -2.0841003560821335e-10 -5.928911530757152e-10 1
    outer loop
      vertex 0.223918987910841 0.308198034702435 -0.924594099290305
      vertex 8.65388999313108e-10 -0.380953718487133 -0.924594099745564
      vertex 0.362308521694052 -0.117721171875881 -0.924594099513987
    endloop
  endfacet
  facet normal 3.3979935915053736e-10 -7.710151900458615e-10 1
    outer loop
      vertex -0.223918968701737 0.308198034285269 -0.92459409913813
      vertex 8.65388999313108e-10 -0.380953718487133 -0.924594099745564
      vertex 0.223918987910841 0.308198034702435 -0.924594099290305
    endloop
  endfacet
  facet normal -2.106777794247999e-10 -9.498760478238115e-10 1
    outer loop
      vertex 8.65388999313108e-10 -0.380953718487133 -0.924594099745564
      vertex -0.223918968701737 0.308198034285269 -0.92459409913813
      vertex -0.362308513292668 -0.117721172803022 -0.924594099571856
    endloop
  endfacet
endsolid OpenSCAD_Model
