solid OpenSCAD_Model
  facet normal 0.5257311120784858 0.7236067975847221 -0.44721359581513376
    outer loop
      vertex -0.223918979462923 -0.924594106352472 0.308198035199304
      vertex -0.586227499430719 -0.425919209655217 0.689151757338017
      vertex -0.223918979483029 -0.689151757695657 0.689151757338017
    endloop
  endfacet
  facet normal 0.5257311120784866 0.723606797584722 -0.44721359581513287
    outer loop
      vertex -0.223918979462923 -0.924594106352472 0.308198035199304
      vertex -0.810146479107579 -0.498674896715498 0.308198035190474
      vertex -0.586227499430719 -0.425919209655217 0.689151757338017
    endloop
  endfacet
  facet normal 0.5257311120784867 0.7236067975847222 -0.4472135958151322
    outer loop
      vertex -0.810146479107579 -0.498674896715498 0.308198035190474
      vertex -0.223918979462923 -0.924594106352472 0.308198035199304
      vertex -0.586227499461932 -0.806872932097897 0.0727556868234526
    endloop
  endfacet
  facet normal 2.4707728572882066e-17 0.8506508081180597 -0.5257311124977216
    outer loop
      vertex 0.223918979849759 -0.924594106337016 0.308198035224312
      vertex -0.223918979483029 -0.689151757695657 0.689151757338017
      vertex 0.223918979899264 -0.689151757695657 0.689151757338017
    endloop
  endfacet
  facet normal -3.296201188526994e-16 0.8506508081180596 -0.5257311124977219
    outer loop
      vertex -0.223918979483029 -0.689151757695657 0.689151757338017
      vertex 0.223918979849759 -0.924594106337016 0.308198035224312
      vertex -0.223918979462923 -0.924594106352472 0.308198035199304
    endloop
  endfacet
  facet normal 1.7936819214153124e-18 0.6070619970377745 -0.7946544731847353
    outer loop
      vertex 2.19724693481809e-10 -0.380953721901734 0.92459410543474
      vertex 0.223918979899264 -0.689151757695657 0.689151757338017
      vertex -0.223918979483029 -0.689151757695657 0.689151757338017
    endloop
  endfacet
  facet normal 0.3090169938441656 0.42532540338120667 -0.8506508089422643
    outer loop
      vertex -0.223918979483029 -0.689151757695657 0.689151757338017
      vertex -0.362308519661594 -0.117721174024647 0.924594105377173
      vertex 2.19724693481809e-10 -0.380953721901734 0.92459410543474
    endloop
  endfacet
  facet normal 0.30901699384416254 0.4253254033812065 -0.8506508089422656
    outer loop
      vertex -0.362308519661594 -0.117721174024647 0.924594105377173
      vertex -0.223918979483029 -0.689151757695657 0.689151757338017
      vertex -0.586227499430719 -0.425919209655217 0.689151757338017
    endloop
  endfacet
  facet normal 0.8090169945926229 0.26286555655226984 -0.5257311115378142
    outer loop
      vertex -0.586227499430719 -0.425919209655217 0.689151757338017
      vertex -0.948536019182326 -0.0727556869506436 0.308198035141107
      vertex -0.724617039868868 -1.52012937821437e-11 0.689151757338017
    endloop
  endfacet
  facet normal 0.8090169944421829 0.262865555675138 -0.5257311122078834
    outer loop
      vertex -0.948536019182326 -0.0727556869506436 0.308198035141107
      vertex -0.586227499430719 -0.425919209655217 0.689151757338017
      vertex -0.810146479107579 -0.498674896715498 0.308198035190474
    endloop
  endfacet
  facet normal 0.5773502681532778 0.18759247404949078 -0.7946544730531184
    outer loop
      vertex -0.724617039868868 -1.52012937821437e-11 0.689151757338017
      vertex -0.362308519661594 -0.117721174024647 0.924594105377173
      vertex -0.586227499430719 -0.425919209655217 0.689151757338017
    endloop
  endfacet
  facet normal 0.8506508084583931 -0.2763932038334161 -0.44721359431907026
    outer loop
      vertex -0.586227500040504 0.425919209612386 0.689151757338017
      vertex -0.948536019136423 0.30819803559517 0.0727556867883735
      vertex -0.724617039384518 0.616396070483286 0.308198035175763
    endloop
  endfacet
  facet normal 0.8506508088344052 -0.27639320164063835 -0.4472135949590637
    outer loop
      vertex -0.948536019182326 -0.0727556869506436 0.308198035141107
      vertex -0.586227500040504 0.425919209612386 0.689151757338017
      vertex -0.724617039868868 -1.52012937821437e-11 0.689151757338017
    endloop
  endfacet
  facet normal 0.8506508088344513 -0.2763932016408284 -0.44721359495885876
    outer loop
      vertex -0.586227500040504 0.425919209612386 0.689151757338017
      vertex -0.948536019182326 -0.0727556869506436 0.308198035141107
      vertex -0.948536019136423 0.30819803559517 0.0727556867883735
    endloop
  endfacet
  facet normal 0.500000000207062 -0.16245984685872247 -0.8506508084705371
    outer loop
      vertex -0.362308519661594 -0.117721174024647 0.924594105377173
      vertex -0.586227500040504 0.425919209612386 0.689151757338017
      vertex -0.223918980159768 0.308198035298898 0.924594105681266
    endloop
  endfacet
  facet normal 0.49999999927698224 -0.16245984743122077 -0.8506508089078869
    outer loop
      vertex -0.586227500040504 0.425919209612386 0.689151757338017
      vertex -0.362308519661594 -0.117721174024647 0.924594105377173
      vertex -0.724617039868868 -1.52012937821437e-11 0.689151757338017
    endloop
  endfacet
  facet normal 0.5000000002496736 -0.6881909608680485 -0.5257311110537767
    outer loop
      vertex -0.362308519556424 0.879628618313073 0.308198035141107
      vertex -0.586227500040504 0.425919209612386 0.689151757338017
      vertex -0.724617039384518 0.616396070483286 0.308198035175763
    endloop
  endfacet
  facet normal 0.500000000922325 -0.6881909607703065 -0.5257311105419931
    outer loop
      vertex -0.586227500040504 0.425919209612386 0.689151757338017
      vertex -0.362308519556424 0.879628618313073 0.308198035141107
      vertex -0.223918980469683 0.689151757620292 0.689151757338017
    endloop
  endfacet
  facet normal 0.356822089788464 -0.4911234726852324 -0.7946544725958516
    outer loop
      vertex -0.223918980469683 0.689151757620292 0.689151757338017
      vertex -0.223918980159768 0.308198035298898 0.924594105681266
      vertex -0.586227500040504 0.425919209612386 0.689151757338017
    endloop
  endfacet
  facet normal 3.402039178070231e-10 -0.8944271913314681 -0.4472135948368535
    outer loop
      vertex 3.62820100455604e-10 0.997349792461456 0.0727556866835793
      vertex -0.223918980469683 0.689151757620292 0.689151757338017
      vertex -0.362308519556424 0.879628618313073 0.308198035141107
    endloop
  endfacet
  facet normal 7.982461307483633e-15 -0.8944271912820349 -0.4472135949357202
    outer loop
      vertex -0.223918980469683 0.689151757620292 0.689151757338017
      vertex 3.62820100455604e-10 0.997349792461456 0.0727556866835793
      vertex 0.223918978788847 0.689151757620296 0.689151757338017
    endloop
  endfacet
  facet normal -5.504834147594554e-10 -0.8944271913620259 -0.447213594775738
    outer loop
      vertex 0.223918978788847 0.689151757620296 0.689151757338017
      vertex 3.62820100455604e-10 0.997349792461456 0.0727556866835793
      vertex 0.362308520187997 0.879628618230676 0.308198035175763
    endloop
  endfacet
  facet normal 1.6023470774790485e-11 -0.5257311118222687 -0.8506508085355126
    outer loop
      vertex -0.223918980159768 0.308198035298898 0.924594105681266
      vertex 0.223918978788847 0.689151757620296 0.689151757338017
      vertex 0.223918979039766 0.308198035312549 0.924594105681265
    endloop
  endfacet
  facet normal 4.691973029283206e-15 -0.5257311118086423 -0.850650808543934
    outer loop
      vertex 0.223918978788847 0.689151757620296 0.689151757338017
      vertex -0.223918980159768 0.308198035298898 0.924594105681266
      vertex -0.223918980469683 0.689151757620292 0.689151757338017
    endloop
  endfacet
  facet normal -0.4999999997893303 -0.6881909599716025 -0.5257311126650523
    outer loop
      vertex 0.362308520187997 0.879628618230676 0.308198035175763
      vertex 0.586227498760171 0.425919209612386 0.689151757338017
      vertex 0.223918978788847 0.689151757620296 0.689151757338017
    endloop
  endfacet
  facet normal -0.49999999996204103 -0.6881909599465063 -0.5257311125336461
    outer loop
      vertex 0.586227498760171 0.425919209612386 0.689151757338017
      vertex 0.362308520187997 0.879628618230676 0.308198035175763
      vertex 0.72461703994566 0.616396070303949 0.308198035141107
    endloop
  endfacet
  facet normal -0.3568220896933302 -0.4911234730971821 -0.7946544723839705
    outer loop
      vertex 0.586227498760171 0.425919209612386 0.689151757338017
      vertex 0.223918979039766 0.308198035312549 0.924594105681265
      vertex 0.223918978788847 0.689151757620296 0.689151757338017
    endloop
  endfacet
  facet normal -0.8506508081317798 -0.2763932009701581 -0.4472135967099164
    outer loop
      vertex 0.948536019598346 0.308198034943167 0.0727556866835793
      vertex 0.586227498760171 0.425919209612386 0.689151757338017
      vertex 0.72461703994566 0.616396070303949 0.308198035141107
    endloop
  endfacet
  facet normal -0.8506508078274798 -0.27639320274436335 -0.4472135961922103
    outer loop
      vertex 0.948536019586742 -0.0727556871809039 0.308198035175763
      vertex 0.586227498760171 0.425919209612386 0.689151757338017
      vertex 0.948536019598346 0.308198034943167 0.0727556866835793
    endloop
  endfacet
  facet normal -0.8506508077915623 -0.276393202596055 -0.4472135963521888
    outer loop
      vertex 0.586227498760171 0.425919209612386 0.689151757338017
      vertex 0.948536019586742 -0.0727556871809039 0.308198035175763
      vertex 0.724617039236567 -1.52012937821437e-11 0.689151757338017
    endloop
  endfacet
  facet normal -0.4999999998881955 -0.162459848390561 -0.850650808365407
    outer loop
      vertex 0.362308519510906 -0.117721174254719 0.924594105681265
      vertex 0.586227498760171 0.425919209612386 0.689151757338017
      vertex 0.724617039236567 -1.52012937821437e-11 0.689151757338017
    endloop
  endfacet
  facet normal -0.49999999987029176 -0.1624598484015814 -0.8506508083738258
    outer loop
      vertex 0.586227498760171 0.425919209612386 0.689151757338017
      vertex 0.362308519510906 -0.117721174254719 0.924594105681265
      vertex 0.223918979039766 0.308198035312549 0.924594105681265
    endloop
  endfacet
  facet normal -0.8090169939300473 0.26286555510607346 -0.5257311132805109
    outer loop
      vertex 0.948536019586742 -0.0727556871809039 0.308198035175763
      vertex 0.586227499446451 -0.425919209655215 0.689151757338017
      vertex 0.724617039236567 -1.52012937821437e-11 0.689151757338017
    endloop
  endfacet
  facet normal -0.8090169940977318 0.2628655560837477 -0.5257311125336344
    outer loop
      vertex 0.586227499446451 -0.425919209655215 0.689151757338017
      vertex 0.948536019586742 -0.0727556871809039 0.308198035175763
      vertex 0.810146479407295 -0.498674896592629 0.308198035141107
    endloop
  endfacet
  facet normal -0.5773502691437374 0.18759247349287697 -0.7946544724649062
    outer loop
      vertex 0.586227499446451 -0.425919209655215 0.689151757338017
      vertex 0.362308519510906 -0.117721174254719 0.924594105681265
      vertex 0.724617039236567 -1.52012937821437e-11 0.689151757338017
    endloop
  endfacet
  facet normal -0.5257311122114093 0.723606797399558 -0.4472135959584742
    outer loop
      vertex 0.223918979849759 -0.924594106337016 0.308198035224312
      vertex 0.586227499446451 -0.425919209655215 0.689151757338017
      vertex 0.810146479407295 -0.498674896592629 0.308198035141107
    endloop
  endfacet
  facet normal -0.5257311125085543 0.7236067973767661 -0.4472135956460377
    outer loop
      vertex 0.586227499446451 -0.425919209655215 0.689151757338017
      vertex 0.223918979849759 -0.924594106337016 0.308198035224312
      vertex 0.223918979899264 -0.689151757695657 0.689151757338017
    endloop
  endfacet
  facet normal -0.5257311124695315 0.7236067977548327 -0.447213595080187
    outer loop
      vertex 0.223918979849759 -0.924594106337016 0.308198035224312
      vertex 0.810146479407295 -0.498674896592629 0.308198035141107
      vertex 0.586227499739306 -0.806872931854494 0.0727556866870188
    endloop
  endfacet
  facet normal -0.3090169944083829 0.42532540368762295 -0.8506508085840923
    outer loop
      vertex 0.223918979899264 -0.689151757695657 0.689151757338017
      vertex 0.362308519510906 -0.117721174254719 0.924594105681265
      vertex 0.586227499446451 -0.425919209655215 0.689151757338017
    endloop
  endfacet
  facet normal -0.3090169935375392 0.42532540362082644 -0.850650808933843
    outer loop
      vertex 0.362308519510906 -0.117721174254719 0.924594105681265
      vertex 0.223918979899264 -0.689151757695657 0.689151757338017
      vertex 2.19724693481809e-10 -0.380953721901734 0.92459410543474
    endloop
  endfacet
  facet normal 0.3090169937833134 0.9510565164873871 9.819197961212142e-10
    outer loop
      vertex 9.69364515319493e-11 -0.997349792624526 -0.0727556871165783
      vertex -0.586227499461932 -0.806872932097897 0.0727556868234526
      vertex -0.223918979462923 -0.924594106352472 0.308198035199304
    endloop
  endfacet
  facet normal 0.30901699358566453 0.9510565165516072 1.0157877900063087e-10
    outer loop
      vertex -0.586227499461932 -0.806872932097897 0.0727556868234526
      vertex 9.69364515319493e-11 -0.997349792624526 -0.0727556871165783
      vertex -0.362308519862861 -0.879628618683872 -0.308198035149688
    endloop
  endfacet
  facet normal -2.3424248034702367e-11 0.9822469466688161 -0.18759247255630543
    outer loop
      vertex 0.223918979849759 -0.924594106337016 0.308198035224312
      vertex 9.69364515319493e-11 -0.997349792624526 -0.0727556871165783
      vertex -0.223918979462923 -0.924594106352472 0.308198035199304
    endloop
  endfacet
  facet normal 0.9472135956493403 0.30776835335132346 -0.08980559499531653
    outer loop
      vertex -0.810146479107579 -0.498674896715498 0.308198035190474
      vertex -0.986785947300658 -0.0851838416474538 -0.137830351560366
      vertex -0.948536019182326 -0.0727556869506436 0.308198035141107
    endloop
  endfacet
  facet normal 0.9472135955005828 0.30776835400248925 -0.08980559433274056
    outer loop
      vertex -0.986785947300658 -0.0851838416474538 -0.137830351560366
      vertex -0.810146479107579 -0.498674896715498 0.308198035190474
      vertex -0.848396407080292 -0.511103050904071 -0.13783035155085
    endloop
  endfacet
  facet normal 0.7745966700738013 0.6268666618124852 -0.08389390334613216
    outer loop
      vertex -0.586227499461932 -0.806872932097897 0.0727556868234526
      vertex -0.848396407080292 -0.511103050904071 -0.13783035155085
      vertex -0.810146479107579 -0.498674896715498 0.308198035190474
    endloop
  endfacet
  facet normal 0.9951248486615514 -0.05184928464719594 -0.08389390477203125
    outer loop
      vertex -0.986785947300658 -0.0851838416474538 -0.137830351560366
      vertex -0.948536019136423 0.30819803559517 0.0727556867883735
      vertex -0.948536019182326 -0.0727556869506436 0.308198035141107
    endloop
  endfacet
  facet normal 0.5773502688915871 -0.7946544721598211 -0.18759247556127642
    outer loop
      vertex -0.586227499707005 0.806872931842115 -0.0727556867864008
      vertex -0.362308519556424 0.879628618313073 0.308198035141107
      vertex -0.724617039384518 0.616396070483286 0.308198035175763
    endloop
  endfacet
  facet normal 0.8090169944427101 -0.5877852521992059 -1.4167092399297774e-9
    outer loop
      vertex -0.948536019136423 0.30819803559517 0.0727556867883735
      vertex -0.586227499707005 0.806872931842115 -0.0727556867864008
      vertex -0.724617039384518 0.616396070483286 0.308198035175763
    endloop
  endfacet
  facet normal 0.8090169945792455 -0.587785252011281 -4.3272238226349303e-10
    outer loop
      vertex -0.586227499707005 0.806872931842115 -0.0727556867864008
      vertex -0.948536019136423 0.30819803559517 0.0727556867883735
      vertex -0.810146478987397 0.498674897058287 -0.308198035193043
    endloop
  endfacet
  facet normal 0.3090169936527928 -0.951056516529796 -8.797092555581977e-10
    outer loop
      vertex -0.586227499707005 0.806872931842115 -0.0727556867864008
      vertex 3.62820100455604e-10 0.997349792461456 0.0727556866835793
      vertex -0.362308519556424 0.879628618313073 0.308198035141107
    endloop
  endfacet
  facet normal 0.30901699304090247 -0.951056516728611 1.8456901338494763e-9
    outer loop
      vertex 3.62820100455604e-10 0.997349792461456 0.0727556866835793
      vertex -0.586227499707005 0.806872931842115 -0.0727556867864008
      vertex -0.223918979240821 0.924594105235802 -0.308198035315953
    endloop
  endfacet
  facet normal -0.5773502691276945 -0.7946544719882775 -0.1875924755612834
    outer loop
      vertex 0.58622749999345 0.806872931936416 -0.0727556867864008
      vertex 0.72461703994566 0.616396070303949 0.308198035141107
      vertex 0.362308520187997 0.879628618230676 0.308198035175763
    endloop
  endfacet
  facet normal -0.3090169937783183 -0.9510565164890101 -1.122453808640156e-9
    outer loop
      vertex 3.62820100455604e-10 0.997349792461456 0.0727556866835793
      vertex 0.58622749999345 0.806872931936416 -0.0727556867864008
      vertex 0.362308520187997 0.879628618230676 0.308198035175763
    endloop
  endfacet
  facet normal -0.3090169937783189 -0.9510565164890099 -1.1224566190117513e-9
    outer loop
      vertex 0.58622749999345 0.806872931936416 -0.0727556867864008
      vertex 3.62820100455604e-10 0.997349792461456 0.0727556866835793
      vertex 0.223918980163269 0.924594106168823 -0.308198035424652
    endloop
  endfacet
  facet normal -0.8090169950498374 -0.5877852513635669 9.197244190093915e-10
    outer loop
      vertex 0.948536019598346 0.308198034943167 0.0727556866835793
      vertex 0.58622749999345 0.806872931936416 -0.0727556867864008
      vertex 0.810146479437676 0.498674895866461 -0.308198035477362
    endloop
  endfacet
  facet normal -0.8090169948001522 -0.5877852517072288 -8.797133851392112e-10
    outer loop
      vertex 0.58622749999345 0.806872931936416 -0.0727556867864008
      vertex 0.948536019598346 0.308198034943167 0.0727556866835793
      vertex 0.72461703994566 0.616396070303949 0.308198035141107
    endloop
  endfacet
  facet normal -0.947213595548621 0.30776835382432993 -0.08980559443662495
    outer loop
      vertex 0.986785947228597 -0.0851838425500263 -0.137830351601532
      vertex 0.810146479407295 -0.498674896592629 0.308198035141107
      vertex 0.948536019586742 -0.0727556871809039 0.308198035175763
    endloop
  endfacet
  facet normal -0.9472135956973792 0.3077683531731618 -0.08980559509920331
    outer loop
      vertex 0.810146479407295 -0.498674896592629 0.308198035141107
      vertex 0.986785947228597 -0.0851838425500263 -0.137830351601532
      vertex 0.848396407465693 -0.511103051636175 -0.137830351596341
    endloop
  endfacet
  facet normal -0.9951248487956135 -0.05184928389109161 -0.08389390364912234
    outer loop
      vertex 0.948536019598346 0.308198034943167 0.0727556866835793
      vertex 0.986785947228597 -0.0851838425500263 -0.137830351601532
      vertex 0.948536019586742 -0.0727556871809039 0.308198035175763
    endloop
  endfacet
  facet normal -0.7745966693101397 0.6268666625811873 -0.08389390465321053
    outer loop
      vertex 0.848396407465693 -0.511103051636175 -0.137830351596341
      vertex 0.586227499739306 -0.806872931854494 0.0727556866870188
      vertex 0.810146479407295 -0.498674896592629 0.308198035141107
    endloop
  endfacet
  facet normal -0.3090169941858875 0.9510565163565827 1.3614674890230038e-9
    outer loop
      vertex 0.586227499739306 -0.806872931854494 0.0727556866870188
      vertex 9.69364515319493e-11 -0.997349792624526 -0.0727556871165783
      vertex 0.223918979849759 -0.924594106337016 0.308198035224312
    endloop
  endfacet
  facet normal -0.30901699375346586 0.9510565164970851 -5.645671367445804e-10
    outer loop
      vertex 9.69364515319493e-11 -0.997349792624526 -0.0727556871165783
      vertex 0.586227499739306 -0.806872931854494 0.0727556866870188
      vertex 0.362308520085021 -0.879628618768918 -0.308198035473117
    endloop
  endfacet
  facet normal 5.000433067336591e-10 0.8944271911824269 0.4472135951349359
    outer loop
      vertex 0.22391897994145 -0.689151757810971 -0.689151757622948
      vertex 9.69364515319493e-11 -0.997349792624526 -0.0727556871165783
      vertex 0.362308520085021 -0.879628618768918 -0.308198035473117
    endloop
  endfacet
  facet normal 1.750260517975372e-9 0.8944271910007598 0.4472135954982703
    outer loop
      vertex -0.223918979730942 -0.689151757186098 -0.68915175711999
      vertex 9.69364515319493e-11 -0.997349792624526 -0.0727556871165783
      vertex 0.22391897994145 -0.689151757810971 -0.689151757622948
    endloop
  endfacet
  facet normal -7.843433806477374e-10 0.8944271906324602 0.4472135962348693
    outer loop
      vertex 9.69364515319493e-11 -0.997349792624526 -0.0727556871165783
      vertex -0.223918979730942 -0.689151757186098 -0.68915175711999
      vertex -0.362308519862861 -0.879628618683872 -0.308198035149688
    endloop
  endfacet
  facet normal 0.6381966020078008 0.7330937567295736 0.2351141021500358
    outer loop
      vertex -0.362308519862861 -0.879628618683872 -0.308198035149688
      vertex -0.848396407080292 -0.511103050904071 -0.13783035155085
      vertex -0.586227499461932 -0.806872932097897 0.0727556868234526
    endloop
  endfacet
  facet normal 0.638196602007801 0.7330937567295721 0.23511410215003975
    outer loop
      vertex -0.848396407080292 -0.511103050904071 -0.13783035155085
      vertex -0.362308519862861 -0.879628618683872 -0.308198035149688
      vertex -0.624477427491974 -0.583858737538041 -0.518784073345147
    endloop
  endfacet
  facet normal 0.9472135955484298 -0.2179627583129585 0.2351141008038917
    outer loop
      vertex -0.986785947300658 -0.0851838416474538 -0.137830351560366
      vertex -0.810146478987397 0.498674897058287 -0.308198035193043
      vertex -0.948536019136423 0.30819803559517 0.0727556867883735
    endloop
  endfacet
  facet normal 0.9472135955448516 -0.21796275830570852 0.23511410082502798
    outer loop
      vertex -0.810146478987397 0.498674897058287 -0.308198035193043
      vertex -0.986785947300658 -0.0851838416474538 -0.137830351560366
      vertex -0.848396407164065 0.105293019778815 -0.518784073495374
    endloop
  endfacet
  facet normal 2.0919355219172384e-9 -0.9822469464161642 0.18759247387920752
    outer loop
      vertex -0.223918979240821 0.924594105235802 -0.308198035315953
      vertex 0.223918980163269 0.924594106168823 -0.308198035424652
      vertex 3.62820100455604e-10 0.997349792461456 0.0727556866835793
    endloop
  endfacet
  facet normal -0.9472135955984883 -0.2179627572665419 0.23511410157230025
    outer loop
      vertex 0.986785947228597 -0.0851838425500263 -0.137830351601532
      vertex 0.810146479437676 0.498674895866461 -0.308198035477362
      vertex 0.848396407104838 0.105293018405771 -0.518784073583634
    endloop
  endfacet
  facet normal -0.9472135955984886 -0.21796275726654255 0.2351141015722984
    outer loop
      vertex 0.810146479437676 0.498674895866461 -0.308198035477362
      vertex 0.986785947228597 -0.0851838425500263 -0.137830351601532
      vertex 0.948536019598346 0.308198034943167 0.0727556866835793
    endloop
  endfacet
  facet normal -0.6381966012893809 0.733093757763833 0.23511410087526738
    outer loop
      vertex 0.848396407465693 -0.511103051636175 -0.137830351596341
      vertex 0.362308520085021 -0.879628618768918 -0.308198035473117
      vertex 0.586227499739306 -0.806872931854494 0.0727556866870188
    endloop
  endfacet
  facet normal -0.6381966012907497 0.7330937577558526 0.235114100896435
    outer loop
      vertex 0.362308520085021 -0.879628618768918 -0.308198035473117
      vertex 0.848396407465693 -0.511103051636175 -0.137830351596341
      vertex 0.624477427843119 -0.58385873852809 -0.518784073710059
    endloop
  endfacet
  facet normal 0.4177745806156263 0.742805186432054 0.5231680942116781
    outer loop
      vertex -0.223918979730942 -0.689151757186098 -0.68915175711999
      vertex -0.624477427491974 -0.583858737538041 -0.518784073345147
      vertex -0.362308519862861 -0.879628618683872 -0.308198035149688
    endloop
  endfacet
  facet normal 2.525260002025393e-9 0.5257311122463272 0.85065080827343
    outer loop
      vertex -0.223918979706177 -0.308198034622297 -0.924594105443626
      vertex 0.22391897994145 -0.689151757810971 -0.689151757622948
      vertex 0.223918979953058 -0.308198035792178 -0.924594106050061
    endloop
  endfacet
  facet normal 1.6889073814542677e-9 0.525731111534883 0.8506508087131266
    outer loop
      vertex 0.22391897994145 -0.689151757810971 -0.689151757622948
      vertex -0.223918979706177 -0.308198034622297 -0.924594105443626
      vertex -0.223918979730942 -0.689151757186098 -0.68915175711999
    endloop
  endfacet
  facet normal 0.44721359539464944 0.4702282020257011 0.7608452129795306
    outer loop
      vertex -0.624477427491974 -0.583858737538041 -0.518784073345147
      vertex -0.223918979706177 -0.308198034622297 -0.924594105443626
      vertex -0.624477427612012 -0.202905015486967 -0.754226421756442
    endloop
  endfacet
  facet normal 0.44721359613871353 0.47022820112246516 0.7608452131004112
    outer loop
      vertex -0.223918979706177 -0.308198034622297 -0.924594105443626
      vertex -0.624477427491974 -0.583858737538041 -0.518784073345147
      vertex -0.223918979730942 -0.689151757186098 -0.68915175711999
    endloop
  endfacet
  facet normal 4.246370504205454e-9 -1.3766488735448636e-9 1
    outer loop
      vertex -1.39665596978548e-9 0.380953723872944 -0.924594104150498
      vertex 0.223918979953058 -0.308198035792178 -0.924594106050061
      vertex 0.362308520115398 0.1177211736251 -0.924594106051373
    endloop
  endfacet
  facet normal 1.3541393656509004e-9 -2.316391740468339e-9 1
    outer loop
      vertex -1.39665596978548e-9 0.380953723872944 -0.924594104150498
      vertex -0.223918979706177 -0.308198034622297 -0.924594105443626
      vertex 0.223918979953058 -0.308198035792178 -0.924594106050061
    endloop
  endfacet
  facet normal -2.9359013640771956e-9 -9.224730204400261e-10 1
    outer loop
      vertex -0.223918979706177 -0.308198034622297 -0.924594105443626
      vertex -1.39665596978548e-9 0.380953723872944 -0.924594104150498
      vertex -0.362308519798028 0.117721175136997 -0.924594105457025
    endloop
  endfacet
  facet normal 0.41777457931539863 0.13574318927346765 0.8983530416510589
    outer loop
      vertex -0.362308519798028 0.117721175136997 -0.924594105457025
      vertex -0.624477427612012 -0.202905015486967 -0.754226421756442
      vertex -0.223918979706177 -0.308198034622297 -0.924594105443626
    endloop
  endfacet
  facet normal 0.3090169945375254 -0.42532540561859766 0.8506508075716912
    outer loop
      vertex -0.223918981373037 0.68915175849727 -0.689151755166686
      vertex -0.362308519798028 0.117721175136997 -0.924594105457025
      vertex -1.39665596978548e-9 0.380953723872944 -0.924594104150498
    endloop
  endfacet
  facet normal 0.30901699236020624 -0.4253254054515904 0.8506508084461523
    outer loop
      vertex -0.362308519798028 0.117721175136997 -0.924594105457025
      vertex -0.223918981373037 0.68915175849727 -0.689151755166686
      vertex -0.586227499381793 0.425919210434227 -0.689151757155069
    endloop
  endfacet
  facet normal 0.6381966010548904 -0.11755705044889184 0.7608452130964234
    outer loop
      vertex -0.848396407164065 0.105293019778815 -0.518784073495374
      vertex -0.362308519798028 0.117721175136997 -0.924594105457025
      vertex -0.586227499381793 0.425919210434227 -0.689151757155069
    endloop
  endfacet
  facet normal 0.6381966010562585 -0.11755705042639857 0.760845213098751
    outer loop
      vertex -0.362308519798028 0.117721175136997 -0.924594105457025
      vertex -0.848396407164065 0.105293019778815 -0.518784073495374
      vertex -0.624477427612012 -0.202905015486967 -0.754226421756442
    endloop
  endfacet
  facet normal 0.5257311106264234 -0.7236067980716677 0.44721359673424066
    outer loop
      vertex -0.810146478987397 0.498674897058287 -0.308198035193043
      vertex -0.223918979240821 0.924594105235802 -0.308198035315953
      vertex -0.586227499707005 0.806872931842115 -0.0727556867864008
    endloop
  endfacet
  facet normal 0.5257311111880515 -0.7236067988446826 0.4472135948232428
    outer loop
      vertex -0.586227499381793 0.425919210434227 -0.689151757155069
      vertex -0.223918979240821 0.924594105235802 -0.308198035315953
      vertex -0.810146478987397 0.498674897058287 -0.308198035193043
    endloop
  endfacet
  facet normal 0.5257311132815359 -0.7236067986841058 0.4472135926220233
    outer loop
      vertex -0.223918979240821 0.924594105235802 -0.308198035315953
      vertex -0.586227499381793 0.425919210434227 -0.689151757155069
      vertex -0.223918981373037 0.68915175849727 -0.689151755166686
    endloop
  endfacet
  facet normal 0.7745966693657206 -0.35538028358213136 0.5231680933013945
    outer loop
      vertex -0.810146478987397 0.498674897058287 -0.308198035193043
      vertex -0.848396407164065 0.105293019778815 -0.518784073495374
      vertex -0.586227499381793 0.425919210434227 -0.689151757155069
    endloop
  endfacet
  facet normal -0.41777457984610894 0.7428051875677826 0.5231680932136424
    outer loop
      vertex 0.624477427843119 -0.58385873852809 -0.518784073710059
      vertex 0.22391897994145 -0.689151757810971 -0.689151757622948
      vertex 0.362308520085021 -0.879628618768918 -0.308198035473117
    endloop
  endfacet
  facet normal -0.44721359589423193 0.47022820184034847 0.7608452128004375
    outer loop
      vertex 0.223918979953058 -0.308198035792178 -0.924594106050061
      vertex 0.624477427843119 -0.58385873852809 -0.518784073710059
      vertex 0.624477427861901 -0.202905016553381 -0.754226422096289
    endloop
  endfacet
  facet normal -0.44721359587991644 0.47022820185772646 0.7608452127981117
    outer loop
      vertex 0.624477427843119 -0.58385873852809 -0.518784073710059
      vertex 0.223918979953058 -0.308198035792178 -0.924594106050061
      vertex 0.22391897994145 -0.689151757810971 -0.689151757622948
    endloop
  endfacet
  facet normal -0.4177745798979026 0.13574318961538445 0.8983530413285041
    outer loop
      vertex 0.624477427861901 -0.202905016553381 -0.754226422096289
      vertex 0.362308520115398 0.1177211736251 -0.924594106051373
      vertex 0.223918979953058 -0.308198035792178 -0.924594106050061
    endloop
  endfacet
  facet normal -0.30901699460849064 -0.4253254040158533 0.8506508083472837
    outer loop
      vertex 0.223918979593122 0.689151757147307 -0.689151757744818
      vertex 0.362308520115398 0.1177211736251 -0.924594106051373
      vertex 0.586227499776857 0.425919208913947 -0.689151757626378
    endloop
  endfacet
  facet normal -0.30901699089224455 -0.4253254037308056 0.850650809839813
    outer loop
      vertex 0.362308520115398 0.1177211736251 -0.924594106051373
      vertex 0.223918979593122 0.689151757147307 -0.689151757744818
      vertex -1.39665596978548e-9 0.380953723872944 -0.924594104150498
    endloop
  endfacet
  facet normal -0.6381966018424824 -0.11755704961632504 0.7608452125644302
    outer loop
      vertex 0.362308520115398 0.1177211736251 -0.924594106051373
      vertex 0.848396407104838 0.105293018405771 -0.518784073583634
      vertex 0.586227499776857 0.425919208913947 -0.689151757626378
    endloop
  endfacet
  facet normal -0.6381966017714303 -0.1175570507844127 0.760845212443549
    outer loop
      vertex 0.848396407104838 0.105293018405771 -0.518784073583634
      vertex 0.362308520115398 0.1177211736251 -0.924594106051373
      vertex 0.624477427861901 -0.202905016553381 -0.754226422096289
    endloop
  endfacet
  facet normal -0.5257311126685913 -0.7236067968740861 0.4472135962712561
    outer loop
      vertex 0.223918980163269 0.924594106168823 -0.308198035424652
      vertex 0.810146479437676 0.498674895866461 -0.308198035477362
      vertex 0.58622749999345 0.806872931936416 -0.0727556867864008
    endloop
  endfacet
  facet normal -0.525731111910928 -0.7236067970939865 0.4472135968061366
    outer loop
      vertex 0.586227499776857 0.425919208913947 -0.689151757626378
      vertex 0.223918980163269 0.924594106168823 -0.308198035424652
      vertex 0.223918979593122 0.689151757147307 -0.689151757744818
    endloop
  endfacet
  facet normal -0.5257311127799302 -0.7236067970273311 0.4472135958924135
    outer loop
      vertex 0.223918980163269 0.924594106168823 -0.308198035424652
      vertex 0.586227499776857 0.425919208913947 -0.689151757626378
      vertex 0.810146479437676 0.498674895866461 -0.308198035477362
    endloop
  endfacet
  facet normal -0.77459666982693 -0.35538028229996055 0.5231680934894924
    outer loop
      vertex 0.848396407104838 0.105293018405771 -0.518784073583634
      vertex 0.810146479437676 0.498674895866461 -0.308198035477362
      vertex 0.586227499776857 0.425919208913947 -0.689151757626378
    endloop
  endfacet
  facet normal 2.744771517350973e-9 -0.6070619986776156 0.7946544719320082
    outer loop
      vertex 0.223918979593122 0.689151757147307 -0.689151757744818
      vertex -0.223918981373037 0.68915175849727 -0.689151755166686
      vertex -1.39665596978548e-9 0.380953723872944 -0.924594104150498
    endloop
  endfacet
  facet normal 1.8998423004446735e-9 -0.8506508086215901 0.5257311116829924
    outer loop
      vertex -0.223918981373037 0.68915175849727 -0.689151755166686
      vertex 0.223918980163269 0.924594106168823 -0.308198035424652
      vertex -0.223918979240821 0.924594105235802 -0.308198035315953
    endloop
  endfacet
  facet normal 4.6234832668603583e-10 -0.8506508078658548 0.5257311129057978
    outer loop
      vertex 0.223918980163269 0.924594106168823 -0.308198035424652
      vertex -0.223918981373037 0.68915175849727 -0.689151755166686
      vertex 0.223918979593122 0.689151757147307 -0.689151757744818
    endloop
  endfacet
  facet normal 5.504781757057646e-10 1.7886120199347473e-10 -1
    outer loop
      vertex 2.19724693481809e-10 -0.380953721901734 0.92459410543474
      vertex 0.223918979039766 0.308198035312549 0.924594105681265
      vertex 0.362308519510906 -0.117721174254719 0.924594105681265
    endloop
  endfacet
  facet normal -2.231176667566753e-15 3.5772312794693055e-10 -1
    outer loop
      vertex 2.19724693481809e-10 -0.380953721901734 0.92459410543474
      vertex -0.223918980159768 0.308198035298898 0.924594105681266
      vertex 0.223918979039766 0.308198035312549 0.924594105681265
    endloop
  endfacet
  facet normal 5.482044105029684e-10 5.358462640480445e-10 -1
    outer loop
      vertex -0.223918980159768 0.308198035298898 0.924594105681266
      vertex 2.19724693481809e-10 -0.380953721901734 0.92459410543474
      vertex -0.362308519661594 -0.117721174024647 0.924594105377173
    endloop
  endfacet
  facet normal 0.8506508083215055 0.2763932019288278 0.4472135957565463
    outer loop
      vertex -0.986785947300658 -0.0851838416474538 -0.137830351560366
      vertex -0.624477427612012 -0.202905015486967 -0.754226421756442
      vertex -0.848396407164065 0.105293019778815 -0.518784073495374
    endloop
  endfacet
  facet normal 0.850650808169985 0.27639320245839266 0.4472135957174662
    outer loop
      vertex -0.624477427491974 -0.583858737538041 -0.518784073345147
      vertex -0.986785947300658 -0.0851838416474538 -0.137830351560366
      vertex -0.848396407080292 -0.511103050904071 -0.13783035155085
    endloop
  endfacet
  facet normal 0.8506508082055153 0.2763932026051025 0.44721359555921203
    outer loop
      vertex -0.986785947300658 -0.0851838416474538 -0.137830351560366
      vertex -0.624477427491974 -0.583858737538041 -0.518784073345147
      vertex -0.624477427612012 -0.202905015486967 -0.754226421756442
    endloop
  endfacet
  facet normal -0.85065080867361 0.2763932015957717 0.4472135952926437
    outer loop
      vertex 0.624477427861901 -0.202905016553381 -0.754226422096289
      vertex 0.986785947228597 -0.0851838425500263 -0.137830351601532
      vertex 0.848396407104838 0.105293018405771 -0.518784073583634
    endloop
  endfacet
  facet normal -0.850650808579964 0.27639320214176977 0.4472135951333236
    outer loop
      vertex 0.624477427843119 -0.58385873852809 -0.518784073710059
      vertex 0.986785947228597 -0.0851838425500263 -0.137830351601532
      vertex 0.624477427861901 -0.202905016553381 -0.754226422096289
    endloop
  endfacet
  facet normal -0.8506508084859281 0.2763932017534818 0.4472135955521657
    outer loop
      vertex 0.986785947228597 -0.0851838425500263 -0.137830351601532
      vertex 0.624477427843119 -0.58385873852809 -0.518784073710059
      vertex 0.848396407465693 -0.511103051636175 -0.137830351596341
    endloop
  endfacet
endsolid OpenSCAD_Model
