solid OpenSCAD_Model
  facet normal 0.5257311120784859 0.723606797584723 -0.44721359581513176
    outer loop
      vertex -0.223918979609895 -0.92459410633896 0.308198035211659
      vertex -0.586227499592216 -0.425919209621715 0.689151757365644
      vertex -0.223918979630002 -0.689151757672707 0.689151757365644
    endloop
  endfacet
  facet normal 0.5257311120784868 0.7236067975847231 -0.447213595815131
    outer loop
      vertex -0.223918979609895 -0.92459410633896 0.308198035211659
      vertex -0.810146479278052 -0.498674896684912 0.308198035202829
      vertex -0.586227499592216 -0.425919209621715 0.689151757365644
    endloop
  endfacet
  facet normal 0.5257311120784863 0.7236067975847225 -0.4472135958151322
    outer loop
      vertex -0.810146479278052 -0.498674896684912 0.308198035202829
      vertex -0.223918979609895 -0.92459410633896 0.308198035211659
      vertex -0.586227499623428 -0.806872932079666 0.0727556868263694
    endloop
  endfacet
  facet normal 1.3366621959761482e-17 0.8506508081180604 -0.5257311124977206
    outer loop
      vertex 0.223918979720739 -0.924594106323504 0.308198035236667
      vertex -0.223918979630002 -0.689151757672707 0.689151757365644
      vertex 0.223918979770244 -0.689151757672707 0.689151757365644
    endloop
  endfacet
  facet normal -3.4096004859868594e-16 0.85065080811806 -0.5257311124977209
    outer loop
      vertex -0.223918979630002 -0.689151757672707 0.689151757365644
      vertex 0.223918979720739 -0.924594106323504 0.308198035236667
      vertex -0.223918979609895 -0.92459410633896 0.308198035211659
    endloop
  endfacet
  facet normal 0 0.5257311119137709 -0.8506508084789611
    outer loop
      vertex -0.223918979630002 -0.689151757672707 0.689151757365644
      vertex 0.223918979750132 -0.308198035441322 0.924594105718328
      vertex 0.223918979770244 -0.689151757672707 0.689151757365644
    endloop
  endfacet
  facet normal 6.652669026945712e-10 0.525731111347861 -0.8506508088287126
    outer loop
      vertex 0.223918979750132 -0.308198035441322 0.924594105718328
      vertex -0.223918979630002 -0.689151757672707 0.689151757365644
      vertex -0.223918979211752 -0.308198035273508 0.924594105471803
    endloop
  endfacet
  facet normal 0.3568220891835688 0.49112347230282694 -0.7946544731038062
    outer loop
      vertex -0.586227499592216 -0.425919209621715 0.689151757365644
      vertex -0.223918979211752 -0.308198035273508 0.924594105471803
      vertex -0.223918979630002 -0.689151757672707 0.689151757365644
    endloop
  endfacet
  facet normal 0.8090169944926385 0.2628655559693137 -0.525731111983152
    outer loop
      vertex -0.586227499592216 -0.425919209621715 0.689151757365644
      vertex -0.948536019358347 -0.0727556869029832 0.308198035153462
      vertex -0.724617039711902 -6.99065208241238e-11 0.689151757365644
    endloop
  endfacet
  facet normal 0.8090169944421836 0.26286555567513853 -0.5257311122078818
    outer loop
      vertex -0.948536019358347 -0.0727556869029832 0.308198035153462
      vertex -0.586227499592216 -0.425919209621715 0.689151757365644
      vertex -0.810146479278052 -0.498674896684912 0.308198035202829
    endloop
  endfacet
  facet normal 0.49999999901508796 0.16245984771702188 -0.8506508090072414
    outer loop
      vertex -0.586227499592216 -0.425919209621715 0.689151757365644
      vertex -0.36230851937376 0.117721174107132 0.924594105414236
      vertex -0.223918979211752 -0.308198035273508 0.924594105471803
    endloop
  endfacet
  facet normal 0.49999999901508707 0.16245984771702238 -0.8506508090072417
    outer loop
      vertex -0.36230851937376 0.117721174107132 0.924594105414236
      vertex -0.586227499592216 -0.425919209621715 0.689151757365644
      vertex -0.724617039711902 -6.99065208241238e-11 0.689151757365644
    endloop
  endfacet
  facet normal 0.8506508081984931 -0.2763932027602545 -0.4472135954766798
    outer loop
      vertex -0.586227499477486 0.425919209444622 0.689151757365644
      vertex -0.948536019312444 0.308198035658102 0.0727556867912902
      vertex -0.724617039551562 0.616396070558573 0.308198035188118
    endloop
  endfacet
  facet normal 0.8506508083864415 -0.2763932023794252 -0.44721359535454613
    outer loop
      vertex -0.948536019358347 -0.0727556869029832 0.308198035153462
      vertex -0.586227499477486 0.425919209444622 0.689151757365644
      vertex -0.724617039711902 -6.99065208241238e-11 0.689151757365644
    endloop
  endfacet
  facet normal 0.850650808314652 -0.27639320208299606 -0.44721359567430113
    outer loop
      vertex -0.586227499477486 0.425919209444622 0.689151757365644
      vertex -0.948536019358347 -0.0727556869029832 0.308198035153462
      vertex -0.948536019312444 0.308198035658102 0.0727556867912902
    endloop
  endfacet
  facet normal 0.5773502680551715 -0.18759247379671554 -0.794654473184069
    outer loop
      vertex -0.586227499477486 0.425919209444622 0.689151757365644
      vertex -0.36230851937376 0.117721174107132 0.924594105414236
      vertex -0.724617039711902 -6.99065208241238e-11 0.689151757365644
    endloop
  endfacet
  facet normal 0.49999999988791977 -0.688190960370135 -0.5257311120496023
    outer loop
      vertex -0.362308519708944 0.879628618398913 0.308198035153462
      vertex -0.586227499477486 0.425919209444622 0.689151757365644
      vertex -0.724617039551562 0.616396070558573 0.308198035188118
    endloop
  endfacet
  facet normal 0.4999999999752416 -0.6881909603574463 -0.5257311119831639
    outer loop
      vertex -0.586227499477486 0.425919209444622 0.689151757365644
      vertex -0.362308519708944 0.879628618398913 0.308198035153462
      vertex -0.223918979568128 0.689151757357802 0.689151757365644
    endloop
  endfacet
  facet normal 0.3090169948894319 -0.42532540356522747 -0.8506508084705386
    outer loop
      vertex -0.36230851937376 0.117721174107132 0.924594105414236
      vertex -0.223918979568128 0.689151757357802 0.689151757365644
      vertex 9.27129114383772e-11 0.380953721966272 0.924594105718329
    endloop
  endfacet
  facet normal 0.3090169938004754 -0.42532540348170117 -0.8506508089078886
    outer loop
      vertex -0.223918979568128 0.689151757357802 0.689151757365644
      vertex -0.36230851937376 0.117721174107132 0.924594105414236
      vertex -0.586227499477486 0.425919209444622 0.689151757365644
    endloop
  endfacet
  facet normal -8.033034463265092e-11 -0.8944271910726141 -0.44721359535456134
    outer loop
      vertex 2.24824225432437e-10 0.997349792552015 0.0727556866864961
      vertex -0.223918979568128 0.689151757357802 0.689151757365644
      vertex -0.362308519708944 0.879628618398913 0.308198035153462
    endloop
  endfacet
  facet normal -8.031974736671486e-11 -0.8944271910726156 -0.44721359535455824
    outer loop
      vertex -0.223918979568128 0.689151757357802 0.689151757365644
      vertex 2.24824225432437e-10 0.997349792552015 0.0727556866864961
      vertex 0.223918979832113 0.689151757317586 0.689151757365644
    endloop
  endfacet
  facet normal -8.030703355061724e-11 -0.8944271910726139 -0.44721359535456195
    outer loop
      vertex 0.223918979832113 0.689151757317586 0.689151757365644
      vertex 2.24824225432437e-10 0.997349792552015 0.0727556866864961
      vertex 0.362308520064525 0.879628618316515 0.308198035188118
    endloop
  endfacet
  facet normal -5.451429339398514e-11 -0.6070619979800473 -0.7946544724649028
    outer loop
      vertex 0.223918979832113 0.689151757317586 0.689151757365644
      vertex 9.27129114383772e-11 0.380953721966272 0.924594105718329
      vertex -0.223918979568128 0.689151757357802 0.689151757365644
    endloop
  endfacet
  facet normal -0.5000000000746797 -0.6881909602344303 -0.525731112049623
    outer loop
      vertex 0.362308520064525 0.879628618316515 0.308198035188118
      vertex 0.586227499694203 0.425919209339344 0.689151757365644
      vertex 0.223918979832113 0.689151757317586 0.689151757365644
    endloop
  endfacet
  facet normal -0.5000000001620097 -0.6881909602217404 -0.5257311119831783
    outer loop
      vertex 0.586227499694203 0.425919209339344 0.689151757365644
      vertex 0.362308520064525 0.879628618316515 0.308198035188118
      vertex 0.724617039836712 0.616396070379236 0.308198035153462
    endloop
  endfacet
  facet normal -0.3090169942927965 -0.42532540399870755 -0.8506508084705392
    outer loop
      vertex 0.362308519915095 0.117721174033741 0.924594105718328
      vertex 0.223918979832113 0.689151757317586 0.689151757365644
      vertex 0.586227499694203 0.425919209339344 0.689151757365644
    endloop
  endfacet
  facet normal -0.3090169942718364 -0.42532540399709984 -0.8506508084789574
    outer loop
      vertex 0.223918979832113 0.689151757317586 0.689151757365644
      vertex 0.362308519915095 0.117721174033741 0.924594105718328
      vertex 9.27129114383772e-11 0.380953721966272 0.924594105718329
    endloop
  endfacet
  facet normal -0.8506508084360739 -0.2763932022266359 -0.44721359535456867
    outer loop
      vertex 0.948536019498375 0.308198035006099 0.0727556866864961
      vertex 0.586227499694203 0.425919209339344 0.689151757365644
      vertex 0.724617039836712 0.616396070379236 0.308198035153462
    endloop
  endfacet
  facet normal -0.8506508084360686 -0.2763932022266665 -0.4472135953545596
    outer loop
      vertex 0.948536019486771 -0.0727556871332436 0.308198035188118
      vertex 0.586227499694203 0.425919209339344 0.689151757365644
      vertex 0.948536019498375 0.308198035006099 0.0727556866864961
    endloop
  endfacet
  facet normal -0.8506508084360666 -0.2763932022266578 -0.4472135953545693
    outer loop
      vertex 0.586227499694203 0.425919209339344 0.689151757365644
      vertex 0.948536019486771 -0.0727556871332436 0.308198035188118
      vertex 0.724617039852131 -2.00039277083159e-10 0.689151757365644
    endloop
  endfacet
  facet normal -0.5773502689841845 -0.18759247398394072 -0.7946544724649036
    outer loop
      vertex 0.724617039852131 -2.00039277083159e-10 0.689151757365644
      vertex 0.362308519915095 0.117721174033741 0.924594105718328
      vertex 0.586227499694203 0.425919209339344 0.689151757365644
    endloop
  endfacet
  facet normal -0.8090169944063704 0.2628655561018979 -0.5257311120496131
    outer loop
      vertex 0.948536019486771 -0.0727556871332436 0.308198035188118
      vertex 0.586227499655962 -0.425919209726996 0.689151757365644
      vertex 0.724617039852131 -2.00039277083159e-10 0.689151757365644
    endloop
  endfacet
  facet normal -0.8090169944212888 0.26286555618887875 -0.5257311119831656
    outer loop
      vertex 0.586227499655962 -0.425919209726996 0.689151757365644
      vertex 0.948536019486771 -0.0727556871332436 0.308198035188118
      vertex 0.810146479301776 -0.498674896562042 0.308198035153462
    endloop
  endfacet
  facet normal -0.49999999979885595 0.16245984807094946 -0.8506508084789599
    outer loop
      vertex 0.586227499655962 -0.425919209726996 0.689151757365644
      vertex 0.362308519915095 0.117721174033741 0.924594105718328
      vertex 0.724617039852131 -2.00039277083159e-10 0.689151757365644
    endloop
  endfacet
  facet normal -0.49999999981676185 0.1624598480599277 -0.85065080847054
    outer loop
      vertex 0.362308519915095 0.117721174033741 0.924594105718328
      vertex 0.586227499655962 -0.425919209726996 0.689151757365644
      vertex 0.223918979750132 -0.308198035441322 0.924594105718328
    endloop
  endfacet
  facet normal -0.5257311123635582 0.7236067976089721 -0.44721359544077366
    outer loop
      vertex 0.223918979720739 -0.924594106323504 0.308198035236667
      vertex 0.586227499655962 -0.425919209726996 0.689151757365644
      vertex 0.810146479301776 -0.498674896562042 0.308198035153462
    endloop
  endfacet
  facet normal -0.5257311120161935 0.7236067976356159 -0.44721359580601455
    outer loop
      vertex 0.586227499655962 -0.425919209726996 0.689151757365644
      vertex 0.223918979720739 -0.924594106323504 0.308198035236667
      vertex 0.223918979770244 -0.689151757672707 0.689151757365644
    endloop
  endfacet
  facet normal -0.5257311124695313 0.7236067977548314 -0.44721359508018954
    outer loop
      vertex 0.223918979720739 -0.924594106323504 0.308198035236667
      vertex 0.810146479301776 -0.498674896562042 0.308198035153462
      vertex 0.586227499624811 -0.806872931836263 0.0727556866899355
    endloop
  endfacet
  facet normal -0.3568220896310532 0.4911234730114701 -0.7946544724649075
    outer loop
      vertex 0.223918979770244 -0.689151757672707 0.689151757365644
      vertex 0.223918979750132 -0.308198035441322 0.924594105718328
      vertex 0.586227499655962 -0.425919209726996 0.689151757365644
    endloop
  endfacet
  facet normal 0.30901699378331354 0.9510565164873872 9.819189455093973e-10
    outer loop
      vertex -4.10594235018763e-11 -0.997349792613931 -0.0727556871194948
      vertex -0.586227499623428 -0.806872932079666 0.0727556868263694
      vertex -0.223918979609895 -0.92459410633896 0.308198035211659
    endloop
  endfacet
  facet normal 0.3090169935856652 0.9510565165516068 1.0158045534604215e-10
    outer loop
      vertex -0.586227499623428 -0.806872932079666 0.0727556868263694
      vertex -4.10594235018763e-11 -0.997349792613931 -0.0727556871194948
      vertex -0.362308520015381 -0.879628618668557 -0.308198035162043
    endloop
  endfacet
  facet normal -2.3424248033763343e-11 0.9822469466688158 -0.18759247255630615
    outer loop
      vertex 0.223918979720739 -0.924594106323504 0.308198035236667
      vertex -4.10594235018763e-11 -0.997349792613931 -0.0727556871194948
      vertex -0.223918979609895 -0.92459410633896 0.308198035211659
    endloop
  endfacet
  facet normal 0.9472135956493404 0.3077683533513239 -0.0898055949953156
    outer loop
      vertex -0.810146479278052 -0.498674896684912 0.308198035202829
      vertex -0.986785947478212 -0.0851838416002916 -0.137830351565892
      vertex -0.948536019358347 -0.0727556869029832 0.308198035153462
    endloop
  endfacet
  facet normal 0.9472135955005828 0.3077683540024894 -0.08980559433273994
    outer loop
      vertex -0.986785947478212 -0.0851838416002916 -0.137830351565892
      vertex -0.810146479278052 -0.498674896684912 0.308198035202829
      vertex -0.848396407252298 -0.511103050873983 -0.137830351556375
    endloop
  endfacet
  facet normal 0.7745966700738008 0.6268666618124855 -0.0838939033461313
    outer loop
      vertex -0.586227499623428 -0.806872932079666 0.0727556868263694
      vertex -0.848396407252298 -0.511103050873983 -0.137830351556375
      vertex -0.810146479278052 -0.498674896684912 0.308198035202829
    endloop
  endfacet
  facet normal 0.9951248486615514 -0.051849284647195355 -0.08389390477203033
    outer loop
      vertex -0.986785947478212 -0.0851838416002916 -0.137830351565892
      vertex -0.948536019312444 0.308198035658102 0.0727556867912902
      vertex -0.948536019358347 -0.0727556869029832 0.308198035153462
    endloop
  endfacet
  facet normal 0.5773502688915882 -0.7946544721598201 -0.18759247556127717
    outer loop
      vertex -0.586227499868502 0.806872931925038 -0.0727556867893173
      vertex -0.362308519708944 0.879628618398913 0.308198035153462
      vertex -0.724617039551562 0.616396070558573 0.308198035188118
    endloop
  endfacet
  facet normal 0.8090169944427101 -0.5877852521992059 -1.4167111543752857e-9
    outer loop
      vertex -0.948536019312444 0.308198035658102 0.0727556867912902
      vertex -0.586227499868502 0.806872931925038 -0.0727556867893173
      vertex -0.724617039551562 0.616396070558573 0.308198035188118
    endloop
  endfacet
  facet normal 0.8090169945792457 -0.5877852520112805 -4.327218057540791e-10
    outer loop
      vertex -0.586227499868502 0.806872931925038 -0.0727556867893173
      vertex -0.948536019312444 0.308198035658102 0.0727556867912902
      vertex -0.81014647915787 0.498674897128855 -0.308198035205398
    endloop
  endfacet
  facet normal 0.3090169936527924 -0.951056516529796 -8.797085539584172e-10
    outer loop
      vertex -0.586227499868502 0.806872931925038 -0.0727556867893173
      vertex 2.24824225432437e-10 0.997349792552015 0.0727556866864961
      vertex -0.362308519708944 0.879628618398913 0.308198035153462
    endloop
  endfacet
  facet normal 0.309016993040902 -0.9510565167286111 1.8456912719558259e-9
    outer loop
      vertex 2.24824225432437e-10 0.997349792552015 0.0727556866864961
      vertex -0.586227499868502 0.806872931925038 -0.0727556867893173
      vertex -0.223918979387793 0.924594105323444 -0.308198035328308
    endloop
  endfacet
  facet normal -0.5773502691276938 -0.7946544719882775 -0.18759247556128505
    outer loop
      vertex 0.586227499878955 0.806872932019339 -0.0727556867893173
      vertex 0.724617039836712 0.616396070379236 0.308198035153462
      vertex 0.362308520064525 0.879628618316515 0.308198035188118
    endloop
  endfacet
  facet normal -0.30901699377831887 -0.9510565164890099 -1.1224559740784456e-9
    outer loop
      vertex 2.24824225432437e-10 0.997349792552015 0.0727556866864961
      vertex 0.586227499878955 0.806872932019339 -0.0727556867893173
      vertex 0.362308520064525 0.879628618316515 0.308198035188118
    endloop
  endfacet
  facet normal -0.3090169937783187 -0.9510565164890099 -1.1224553579840844e-9
    outer loop
      vertex 0.586227499878955 0.806872932019339 -0.0727556867893173
      vertex 2.24824225432437e-10 0.997349792552015 0.0727556866864961
      vertex 0.223918980034249 0.924594106256465 -0.308198035437007
    endloop
  endfacet
  facet normal -0.8090169950498375 -0.5877852513635666 9.197243052793566e-10
    outer loop
      vertex 0.948536019498375 0.308198035006099 0.0727556866864961
      vertex 0.586227499878955 0.806872932019339 -0.0727556867893173
      vertex 0.810146479332158 0.498674895937028 -0.308198035489717
    endloop
  endfacet
  facet normal -0.8090169948001522 -0.587785251707229 -8.797150270449746e-10
    outer loop
      vertex 0.586227499878955 0.806872932019339 -0.0727556867893173
      vertex 0.948536019498375 0.308198035006099 0.0727556866864961
      vertex 0.724617039836712 0.616396070379236 0.308198035153462
    endloop
  endfacet
  facet normal -0.9472135955486207 0.3077683538243311 -0.08980559443662424
    outer loop
      vertex 0.986785947130159 -0.0851838425028642 -0.137830351607057
      vertex 0.810146479301776 -0.498674896562042 0.308198035153462
      vertex 0.948536019486771 -0.0727556871332436 0.308198035188118
    endloop
  endfacet
  facet normal -0.947213595697379 0.30776835317316237 -0.08980559509920318
    outer loop
      vertex 0.810146479301776 -0.498674896562042 0.308198035153462
      vertex 0.986785947130159 -0.0851838425028642 -0.137830351607057
      vertex 0.848396407361707 -0.511103051606087 -0.137830351601866
    endloop
  endfacet
  facet normal -0.9951248487956136 -0.05184928389109113 -0.08389390364912165
    outer loop
      vertex 0.948536019498375 0.308198035006099 0.0727556866864961
      vertex 0.986785947130159 -0.0851838425028642 -0.137830351607057
      vertex 0.948536019486771 -0.0727556871332436 0.308198035188118
    endloop
  endfacet
  facet normal -0.7745966693101409 0.6268666625811856 -0.0838939046532112
    outer loop
      vertex 0.848396407361707 -0.511103051606087 -0.137830351601866
      vertex 0.586227499624811 -0.806872931836263 0.0727556866899355
      vertex 0.810146479301776 -0.498674896562042 0.308198035153462
    endloop
  endfacet
  facet normal -0.3090169941858874 0.951056516356583 1.3614662717089617e-9
    outer loop
      vertex 0.586227499624811 -0.806872931836263 0.0727556866899355
      vertex -4.10594235018763e-11 -0.997349792613931 -0.0727556871194948
      vertex 0.223918979720739 -0.924594106323504 0.308198035236667
    endloop
  endfacet
  facet normal -0.3090169937534665 0.951056516497085 -5.645649752440201e-10
    outer loop
      vertex -4.10594235018763e-11 -0.997349792613931 -0.0727556871194948
      vertex 0.586227499624811 -0.806872931836263 0.0727556866899355
      vertex 0.362308519961549 -0.879628618753603 -0.308198035485472
    endloop
  endfacet
  facet normal 5.000427431559399e-10 0.8944271911824263 0.44721359513493714
    outer loop
      vertex 0.223918979812431 -0.68915175778802 -0.689151757650574
      vertex -4.10594235018763e-11 -0.997349792613931 -0.0727556871194948
      vertex 0.362308519961549 -0.879628618753603 -0.308198035485472
    endloop
  endfacet
  facet normal 1.7502602961701716e-9 0.8944271910007592 0.44721359549827167
    outer loop
      vertex -0.223918979877914 -0.689151757163147 -0.689151757147616
      vertex -4.10594235018763e-11 -0.997349792613931 -0.0727556871194948
      vertex 0.223918979812431 -0.68915175778802 -0.689151757650574
    endloop
  endfacet
  facet normal -7.843427413062782e-10 0.8944271906324596 0.4472135962348704
    outer loop
      vertex -4.10594235018763e-11 -0.997349792613931 -0.0727556871194948
      vertex -0.223918979877914 -0.689151757163147 -0.689151757147616
      vertex -0.362308520015381 -0.879628618668557 -0.308198035162043
    endloop
  endfacet
  facet normal 0.6381966020078007 0.7330937567295734 0.2351141021500362
    outer loop
      vertex -0.362308520015381 -0.879628618668557 -0.308198035162043
      vertex -0.848396407252298 -0.511103050873983 -0.137830351556375
      vertex -0.586227499623428 -0.806872932079666 0.0727556868263694
    endloop
  endfacet
  facet normal 0.6381966020078009 0.7330937567295721 0.2351141021500395
    outer loop
      vertex -0.848396407252298 -0.511103050873983 -0.137830351556375
      vertex -0.362308520015381 -0.879628618668557 -0.308198035162043
      vertex -0.624477427655003 -0.58385873751087 -0.518784073365944
    endloop
  endfacet
  facet normal 0.9472135955484297 -0.21796275831295836 0.23511410080389214
    outer loop
      vertex -0.986785947478212 -0.0851838416002916 -0.137830351565892
      vertex -0.81014647915787 0.498674897128855 -0.308198035205398
      vertex -0.948536019312444 0.308198035658102 0.0727556867912902
    endloop
  endfacet
  facet normal 0.9472135955448515 -0.21796275830570827 0.23511410082502887
    outer loop
      vertex -0.81014647915787 0.498674897128855 -0.308198035205398
      vertex -0.986785947478212 -0.0851838416002916 -0.137830351565892
      vertex -0.848396407336071 0.105293019833613 -0.518784073516171
    endloop
  endfacet
  facet normal 2.0919355450861538e-9 -0.9822469464161641 0.18759247387920813
    outer loop
      vertex -0.223918979387793 0.924594105323444 -0.308198035328308
      vertex 0.223918980034249 0.924594106256465 -0.308198035437007
      vertex 2.24824225432437e-10 0.997349792552015 0.0727556866864961
    endloop
  endfacet
  facet normal -0.9472135955984889 -0.21796275726654082 0.2351141015722989
    outer loop
      vertex 0.986785947130159 -0.0851838425028642 -0.137830351607057
      vertex 0.810146479332158 0.498674895937028 -0.308198035489717
      vertex 0.848396407000853 0.105293018460569 -0.518784073604431
    endloop
  endfacet
  facet normal -0.9472135955984889 -0.21796275726654116 0.23511410157229778
    outer loop
      vertex 0.810146479332158 0.498674895937028 -0.308198035489717
      vertex 0.986785947130159 -0.0851838425028642 -0.137830351607057
      vertex 0.948536019498375 0.308198035006099 0.0727556866864961
    endloop
  endfacet
  facet normal -0.638196601289381 0.7330937577638323 0.23511410087526957
    outer loop
      vertex 0.848396407361707 -0.511103051606087 -0.137830351601866
      vertex 0.362308519961549 -0.879628618753603 -0.308198035485472
      vertex 0.586227499624811 -0.806872931836263 0.0727556866899355
    endloop
  endfacet
  facet normal -0.6381966012907496 0.7330937577558525 0.23511410089643595
    outer loop
      vertex 0.362308519961549 -0.879628618753603 -0.308198035485472
      vertex 0.848396407361707 -0.511103051606087 -0.137830351601866
      vertex 0.624477427730157 -0.583858738500918 -0.518784073730855
    endloop
  endfacet
  facet normal 0.4177745806156244 0.7428051864320542 0.523168094211679
    outer loop
      vertex -0.223918979877914 -0.689151757163147 -0.689151757147616
      vertex -0.624477427655003 -0.58385873751087 -0.518784073365944
      vertex -0.362308520015381 -0.879628618668557 -0.308198035162043
    endloop
  endfacet
  facet normal 2.5252599367578716e-9 0.5257311122463288 0.850650808273429
    outer loop
      vertex -0.223918979853149 -0.308198034584075 -0.924594105480691
      vertex 0.223918979812431 -0.68915175778802 -0.689151757650574
      vertex 0.223918979824039 -0.308198035753956 -0.924594106087126
    endloop
  endfacet
  facet normal 1.6889072510539802e-9 0.5257311115348848 0.8506508087131256
    outer loop
      vertex 0.223918979812431 -0.68915175778802 -0.689151757650574
      vertex -0.223918979853149 -0.308198034584075 -0.924594105480691
      vertex -0.223918979877914 -0.689151757163147 -0.689151757147616
    endloop
  endfacet
  facet normal 0.44721359539464783 0.4702282020257028 0.7608452129795304
    outer loop
      vertex -0.624477427655003 -0.58385873751087 -0.518784073365944
      vertex -0.223918979853149 -0.308198034584075 -0.924594105480691
      vertex -0.624477427775042 -0.202905015444524 -0.754226421786678
    endloop
  endfacet
  facet normal 0.4472135961387119 0.470228201122467 0.7608452131004109
    outer loop
      vertex -0.223918979853149 -0.308198034584075 -0.924594105480691
      vertex -0.624477427655003 -0.58385873751087 -0.518784073365944
      vertex -0.223918979877914 -0.689151757163147 -0.689151757147616
    endloop
  endfacet
  facet normal 4.2463701029127884e-9 -1.3766490038222547e-9 1
    outer loop
      vertex -1.53465184487918e-9 0.380953723938793 -0.924594104187563
      vertex 0.223918979824039 -0.308198035753956 -0.924594106087126
      vertex 0.362308519991926 0.117721173680397 -0.924594106088438
    endloop
  endfacet
  facet normal 1.354139365596615e-9 -2.316391740375477e-9 1
    outer loop
      vertex -1.53465184487918e-9 0.380953723938793 -0.924594104187563
      vertex -0.223918979853149 -0.308198034584075 -0.924594105480691
      vertex 0.223918979824039 -0.308198035753956 -0.924594106087126
    endloop
  endfacet
  facet normal -2.9359013639594986e-9 -9.224730204030477e-10 1
    outer loop
      vertex -0.223918979853149 -0.308198034584075 -0.924594105480691
      vertex -1.53465184487918e-9 0.380953723938793 -0.924594104187563
      vertex -0.362308519950548 0.117721175192293 -0.92459410549409
    endloop
  endfacet
  facet normal 0.4177745793153968 0.13574318927346743 0.8983530416510598
    outer loop
      vertex -0.362308519950548 0.117721175192293 -0.92459410549409
      vertex -0.624477427775042 -0.202905015444524 -0.754226421786678
      vertex -0.223918979853149 -0.308198034584075 -0.924594105480691
    endloop
  endfacet
  facet normal 0.3090169945375256 -0.425325405618597 0.8506508075716915
    outer loop
      vertex -0.223918981520009 0.689151758575474 -0.689151755194313
      vertex -0.362308519950548 0.117721175192293 -0.92459410549409
      vertex -1.53465184487918e-9 0.380953723938793 -0.924594104187563
    endloop
  endfacet
  facet normal 0.30901699236020597 -0.42532540545158976 0.8506508084461528
    outer loop
      vertex -0.362308519950548 0.117721175192293 -0.92459410549409
      vertex -0.223918981520009 0.689151758575474 -0.689151755194313
      vertex -0.58622749954329 0.425919210501878 -0.689151757182696
    endloop
  endfacet
  facet normal 0.6381966010548906 -0.1175570504488899 0.7608452130964234
    outer loop
      vertex -0.848396407336071 0.105293019833613 -0.518784073516171
      vertex -0.362308519950548 0.117721175192293 -0.92459410549409
      vertex -0.58622749954329 0.425919210501878 -0.689151757182696
    endloop
  endfacet
  facet normal 0.6381966010562586 -0.11755705042640092 0.7608452130987508
    outer loop
      vertex -0.362308519950548 0.117721175192293 -0.92459410549409
      vertex -0.848396407336071 0.105293019833613 -0.518784073516171
      vertex -0.624477427775042 -0.202905015444524 -0.754226421786678
    endloop
  endfacet
  facet normal 0.5257311106264226 -0.7236067980716675 0.4472135967342417
    outer loop
      vertex -0.81014647915787 0.498674897128855 -0.308198035205398
      vertex -0.223918979387793 0.924594105323444 -0.308198035328308
      vertex -0.586227499868502 0.806872931925038 -0.0727556867893173
    endloop
  endfacet
  facet normal 0.5257311111880513 -0.7236067988446829 0.44721359482324247
    outer loop
      vertex -0.58622749954329 0.425919210501878 -0.689151757182696
      vertex -0.223918979387793 0.924594105323444 -0.308198035328308
      vertex -0.81014647915787 0.498674897128855 -0.308198035205398
    endloop
  endfacet
  facet normal 0.5257311132815361 -0.7236067986841063 0.44721359262202237
    outer loop
      vertex -0.223918979387793 0.924594105323444 -0.308198035328308
      vertex -0.58622749954329 0.425919210501878 -0.689151757182696
      vertex -0.223918981520009 0.689151758575474 -0.689151755194313
    endloop
  endfacet
  facet normal 0.7745966693657215 -0.3553802835821305 0.5231680933013938
    outer loop
      vertex -0.81014647915787 0.498674897128855 -0.308198035205398
      vertex -0.848396407336071 0.105293019833613 -0.518784073516171
      vertex -0.58622749954329 0.425919210501878 -0.689151757182696
    endloop
  endfacet
  facet normal -0.4177745798461099 0.7428051875677818 0.5231680932136429
    outer loop
      vertex 0.624477427730157 -0.583858738500918 -0.518784073730855
      vertex 0.223918979812431 -0.68915175778802 -0.689151757650574
      vertex 0.362308519961549 -0.879628618753603 -0.308198035485472
    endloop
  endfacet
  facet normal -0.4472135958942329 0.47022820184034975 0.7608452128004362
    outer loop
      vertex 0.223918979824039 -0.308198035753956 -0.924594106087126
      vertex 0.624477427730157 -0.583858738500918 -0.518784073730855
      vertex 0.624477427748939 -0.202905016510938 -0.754226422126524
    endloop
  endfacet
  facet normal -0.44721359587991744 0.4702282018577276 0.7608452127981105
    outer loop
      vertex 0.624477427730157 -0.583858738500918 -0.518784073730855
      vertex 0.223918979824039 -0.308198035753956 -0.924594106087126
      vertex 0.223918979812431 -0.68915175778802 -0.689151757650574
    endloop
  endfacet
  facet normal -0.41777457989790345 0.13574318961538354 0.8983530413285037
    outer loop
      vertex 0.624477427748939 -0.202905016510938 -0.754226422126524
      vertex 0.362308519991926 0.117721173680397 -0.924594106088438
      vertex 0.223918979824039 -0.308198035753956 -0.924594106087126
    endloop
  endfacet
  facet normal -0.3090169946084894 -0.4253254040158537 0.8506508083472839
    outer loop
      vertex 0.223918979464103 0.689151757225511 -0.689151757772444
      vertex 0.362308519991926 0.117721173680397 -0.924594106088438
      vertex 0.586227499662362 0.425919208981598 -0.689151757654005
    endloop
  endfacet
  facet normal -0.3090169908922449 -0.42532540373080613 0.8506508098398127
    outer loop
      vertex 0.362308519991926 0.117721173680397 -0.924594106088438
      vertex 0.223918979464103 0.689151757225511 -0.689151757772444
      vertex -1.53465184487918e-9 0.380953723938793 -0.924594104187563
    endloop
  endfacet
  facet normal -0.6381966018424818 -0.11755704961632382 0.7608452125644307
    outer loop
      vertex 0.362308519991926 0.117721173680397 -0.924594106088438
      vertex 0.848396407000853 0.105293018460569 -0.518784073604431
      vertex 0.586227499662362 0.425919208981598 -0.689151757654005
    endloop
  endfacet
  facet normal -0.6381966017714298 -0.11755705078441164 0.7608452124435496
    outer loop
      vertex 0.848396407000853 0.105293018460569 -0.518784073604431
      vertex 0.362308519991926 0.117721173680397 -0.924594106088438
      vertex 0.624477427748939 -0.202905016510938 -0.754226422126524
    endloop
  endfacet
  facet normal -0.5257311126685907 -0.7236067968740858 0.4472135962712574
    outer loop
      vertex 0.223918980034249 0.924594106256465 -0.308198035437007
      vertex 0.810146479332158 0.498674895937028 -0.308198035489717
      vertex 0.586227499878955 0.806872932019339 -0.0727556867893173
    endloop
  endfacet
  facet normal -0.5257311119109284 -0.7236067970939868 0.44721359680613554
    outer loop
      vertex 0.586227499662362 0.425919208981598 -0.689151757654005
      vertex 0.223918980034249 0.924594106256465 -0.308198035437007
      vertex 0.223918979464103 0.689151757225511 -0.689151757772444
    endloop
  endfacet
  facet normal -0.5257311127799303 -0.7236067970273317 0.4472135958924127
    outer loop
      vertex 0.223918980034249 0.924594106256465 -0.308198035437007
      vertex 0.586227499662362 0.425919208981598 -0.689151757654005
      vertex 0.810146479332158 0.498674895937028 -0.308198035489717
    endloop
  endfacet
  facet normal -0.77459666982693 -0.3553802822999606 0.5231680934894923
    outer loop
      vertex 0.848396407000853 0.105293018460569 -0.518784073604431
      vertex 0.810146479332158 0.498674895937028 -0.308198035489717
      vertex 0.586227499662362 0.425919208981598 -0.689151757654005
    endloop
  endfacet
  facet normal 2.7447697442350943e-9 -0.6070619986776157 0.794654471932008
    outer loop
      vertex 0.223918979464103 0.689151757225511 -0.689151757772444
      vertex -0.223918981520009 0.689151758575474 -0.689151755194313
      vertex -1.53465184487918e-9 0.380953723938793 -0.924594104187563
    endloop
  endfacet
  facet normal 1.8998423539372e-9 -0.8506508086215908 0.5257311116829912
    outer loop
      vertex -0.223918981520009 0.689151758575474 -0.689151755194313
      vertex 0.223918980034249 0.924594106256465 -0.308198035437007
      vertex -0.223918979387793 0.924594105323444 -0.308198035328308
    endloop
  endfacet
  facet normal 4.623471422504799e-10 -0.8506508078658548 0.5257311129057978
    outer loop
      vertex 0.223918980034249 0.924594106256465 -0.308198035437007
      vertex -0.223918981520009 0.689151758575474 -0.689151755194313
      vertex 0.223918979464103 0.689151757225511 -0.689151757772444
    endloop
  endfacet
  facet normal -2.231165762818109e-15 7.249497019135622e-16 -1
    outer loop
      vertex 0.223918979750132 -0.308198035441322 0.924594105718328
      vertex 9.27129114383772e-11 0.380953721966272 0.924594105718329
      vertex 0.362308519915095 0.117721174033741 0.924594105718328
    endloop
  endfacet
  facet normal 5.504781756765145e-10 1.788626515088192e-10 -1
    outer loop
      vertex -0.223918979211752 -0.308198035273508 0.924594105471803
      vertex 9.27129114383772e-11 0.380953721966272 0.924594105718329
      vertex 0.223918979750132 -0.308198035441322 0.924594105718328
    endloop
  endfacet
  facet normal 7.58469215688588e-10 1.11282266064379e-10 -1
    outer loop
      vertex 9.27129114383772e-11 0.380953721966272 0.924594105718329
      vertex -0.223918979211752 -0.308198035273508 0.924594105471803
      vertex -0.36230851937376 0.117721174107132 0.924594105414236
    endloop
  endfacet
  facet normal 0.850650808321506 0.27639320192882594 0.44721359575654657
    outer loop
      vertex -0.986785947478212 -0.0851838416002916 -0.137830351565892
      vertex -0.624477427775042 -0.202905015444524 -0.754226421786678
      vertex -0.848396407336071 0.105293019833613 -0.518784073516171
    endloop
  endfacet
  facet normal 0.8506508081699845 0.2763932024583938 0.4472135957174663
    outer loop
      vertex -0.624477427655003 -0.58385873751087 -0.518784073365944
      vertex -0.986785947478212 -0.0851838416002916 -0.137830351565892
      vertex -0.848396407252298 -0.511103050873983 -0.137830351556375
    endloop
  endfacet
  facet normal 0.8506508082055151 0.2763932026051045 0.4472135955592112
    outer loop
      vertex -0.986785947478212 -0.0851838416002916 -0.137830351565892
      vertex -0.624477427655003 -0.58385873751087 -0.518784073365944
      vertex -0.624477427775042 -0.202905015444524 -0.754226421786678
    endloop
  endfacet
  facet normal -0.8506508086736095 0.2763932015957741 0.4472135952926428
    outer loop
      vertex 0.624477427748939 -0.202905016510938 -0.754226422126524
      vertex 0.986785947130159 -0.0851838425028642 -0.137830351607057
      vertex 0.848396407000853 0.105293018460569 -0.518784073604431
    endloop
  endfacet
  facet normal -0.8506508085799639 0.27639320214177066 0.44721359513332315
    outer loop
      vertex 0.624477427730157 -0.583858738500918 -0.518784073730855
      vertex 0.986785947130159 -0.0851838425028642 -0.137830351607057
      vertex 0.624477427748939 -0.202905016510938 -0.754226422126524
    endloop
  endfacet
  facet normal -0.8506508084859279 0.2763932017534823 0.4472135955521657
    outer loop
      vertex 0.986785947130159 -0.0851838425028642 -0.137830351607057
      vertex 0.624477427730157 -0.583858738500918 -0.518784073730855
      vertex 0.848396407361707 -0.511103051606087 -0.137830351601866
    endloop
  endfacet
endsolid OpenSCAD_Model
