solid OpenSCAD_Model
  facet normal 0.5257311120784861 0.7236067975847227 -0.44721359581513204
    outer loop
      vertex -0.143834635481966 -0.894447420306138 0.255368134179356
      vertex -0.485739056159393 -0.423856356985835 0.614867716701797
      vertex -0.14383463550094 -0.672264459144761 0.614867716701797
    endloop
  endfacet
  facet normal 0.5257311120784867 0.7236067975847227 -0.4472135958151315
    outer loop
      vertex -0.143834635481966 -0.894447420306138 0.255368134179356
      vertex -0.697047608969308 -0.492514667967714 0.255368134171024
      vertex -0.485739056159393 -0.423856356985835 0.614867716701797
    endloop
  endfacet
  facet normal 0.5257311120784862 0.7236067975847219 -0.4472135958151334
    outer loop
      vertex -0.697047608969308 -0.492514667967714 0.255368134171024
      vertex -0.143834635481966 -0.894447420306138 0.255368134179356
      vertex -0.485739056188848 -0.783355939795124 0.0331851732831192
    endloop
  endfacet
  facet normal -1.1780074016047575e-17 0.8506508081180597 -0.5257311124977216
    outer loop
      vertex 0.278782470099137 -0.894447420291553 0.255368134202956
      vertex -0.14383463550094 -0.672264459144761 0.614867716701797
      vertex 0.278782470145854 -0.672264459144761 0.614867716701797
    endloop
  endfacet
  facet normal 1.189196862534235e-15 0.8506508081180603 -0.5257311124977206
    outer loop
      vertex -0.14383463550094 -0.672264459144761 0.614867716701797
      vertex 0.278782470099137 -0.894447420291553 0.255368134202956
      vertex -0.143834635481966 -0.894447420306138 0.255368134179356
    endloop
  endfacet
  facet normal 3.5041181639631104e-17 0.6070619970377739 -0.7946544731847357
    outer loop
      vertex 0.0674739173334108 -0.381423186929003 0.837050677334625
      vertex 0.278782470145854 -0.672264459144761 0.614867716701797
      vertex -0.14383463550094 -0.672264459144761 0.614867716701797
    endloop
  endfacet
  facet normal 0.30901699384416564 0.425325403381206 -0.8506508089422646
    outer loop
      vertex -0.14383463550094 -0.672264459144761 0.614867716701797
      vertex -0.274430503262409 -0.13301508492423 0.8370506772803
      vertex 0.0674739173334108 -0.381423186929003 0.837050677334625
    endloop
  endfacet
  facet normal 0.309016993844162 0.4253254033812057 -0.8506508089422662
    outer loop
      vertex -0.274430503262409 -0.13301508492423 0.8370506772803
      vertex -0.14383463550094 -0.672264459144761 0.614867716701797
      vertex -0.485739056159393 -0.423856356985835 0.614867716701797
    endloop
  endfacet
  facet normal 0.8090169945926226 0.26286555655227 -0.5257311115378145
    outer loop
      vertex -0.485739056159393 -0.423856356985835 0.614867716701797
      vertex -0.827643476632806 -0.090581915508612 0.255368134124437
      vertex -0.616334924165827 -0.0219236046445405 0.614867716701797
    endloop
  endfacet
  facet normal 0.8090169944421828 0.2628655556751392 -0.5257311122078827
    outer loop
      vertex -0.827643476632806 -0.090581915508612 0.255368134124437
      vertex -0.485739056159393 -0.423856356985835 0.614867716701797
      vertex -0.697047608969308 -0.492514667967714 0.255368134171024
    endloop
  endfacet
  facet normal 0.5773502681532773 0.18759247404949078 -0.7946544730531189
    outer loop
      vertex -0.616334924165827 -0.0219236046445405 0.614867716701797
      vertex -0.274430503262409 -0.13301508492423 0.8370506772803
      vertex -0.485739056159393 -0.423856356985835 0.614867716701797
    endloop
  endfacet
  facet normal 0.8506508087045769 -0.27639320333459305 -0.4472135941590904
    outer loop
      vertex -0.485739056734837 0.380009147685025 0.614867716701797
      vertex -0.827643476452742 0.268917667120935 0.0331851731611519
      vertex -0.616334923708754 0.559758938758966 0.255368134157141
    endloop
  endfacet
  facet normal 0.8506508088344051 -0.27639320164063846 -0.44721359495906404
    outer loop
      vertex -0.827643476632806 -0.090581915508612 0.255368134124437
      vertex -0.485739056734837 0.380009147685025 0.614867716701797
      vertex -0.616334924165827 -0.0219236046445405 0.614867716701797
    endloop
  endfacet
  facet normal 0.8506508089284851 -0.2763932020291084 -0.4472135945400258
    outer loop
      vertex -0.485739056734837 0.380009147685025 0.614867716701797
      vertex -0.827643476632806 -0.090581915508612 0.255368134124437
      vertex -0.827643476452742 0.268917667120935 0.0331851731611519
    endloop
  endfacet
  facet normal 0.5000000002070626 -0.16245984685872195 -0.8506508084705368
    outer loop
      vertex -0.274430503262409 -0.13301508492423 0.8370506772803
      vertex -0.485739056734837 0.380009147685025 0.614867716701797
      vertex -0.143834636139567 0.268917667118416 0.837050677567268
    endloop
  endfacet
  facet normal 0.499999999276982 -0.16245984743122074 -0.850650808907887
    outer loop
      vertex -0.485739056734837 0.380009147685025 0.614867716701797
      vertex -0.274430503262409 -0.13301508492423 0.8370506772803
      vertex -0.616334924165827 -0.0219236046445405 0.614867716701797
    endloop
  endfacet
  facet normal 0.5000000002496725 -0.6881909608680487 -0.5257311110537773
    outer loop
      vertex -0.274430503163161 0.808167040719102 0.255368134124437
      vertex -0.485739056734837 0.380009147685025 0.614867716701797
      vertex -0.616334923708754 0.559758938758966 0.255368134157141
    endloop
  endfacet
  facet normal 0.5000000009223234 -0.6881909607703067 -0.5257311105419941
    outer loop
      vertex -0.485739056734837 0.380009147685025 0.614867716701797
      vertex -0.274430503163161 0.808167040719102 0.255368134124437
      vertex -0.143834636432028 0.628417249813249 0.614867716701797
    endloop
  endfacet
  facet normal 0.35682208978846414 -0.4911234726852342 -0.7946544725958506
    outer loop
      vertex -0.143834636432028 0.628417249813249 0.614867716701797
      vertex -0.143834636139567 0.268917667118416 0.837050677567268
      vertex -0.485739056734837 0.380009147685025 0.614867716701797
    endloop
  endfacet
  facet normal 3.4020349954339186e-10 -0.8944271913314675 -0.4472135948368546
    outer loop
      vertex 0.0674739174684475 0.919258521129905 0.0331851731511231
      vertex -0.143834636432028 0.628417249813249 0.614867716701797
      vertex -0.274430503163161 0.808167040719102 0.255368134124437
    endloop
  endfacet
  facet normal 8.458836935434626e-15 -0.8944271912820344 -0.4472135949357211
    outer loop
      vertex -0.143834636432028 0.628417249813249 0.614867716701797
      vertex 0.0674739174684475 0.919258521129905 0.0331851731511231
      vertex 0.278782469097973 0.628417249813253 0.614867716701797
    endloop
  endfacet
  facet normal -5.504842112783319e-10 -0.8944271913620255 -0.4472135947757385
    outer loop
      vertex 0.278782469097973 0.628417249813253 0.614867716701797
      vertex 0.0674739174684475 0.919258521129905 0.0331851731511231
      vertex 0.409378338011287 0.808167040641345 0.255368134157141
    endloop
  endfacet
  facet normal 1.6021781319347788e-11 -0.5257311118222685 -0.8506508085355126
    outer loop
      vertex -0.143834636139567 0.268917667118416 0.837050677567268
      vertex 0.278782469097973 0.628417249813253 0.614867716701797
      vertex 0.278782469334761 0.268917667131297 0.837050677567267
    endloop
  endfacet
  facet normal 4.971979597690695e-15 -0.5257311118086438 -0.8506508085439332
    outer loop
      vertex 0.278782469097973 0.628417249813253 0.614867716701797
      vertex -0.143834636139567 0.268917667118416 0.837050677567268
      vertex -0.143834636432028 0.628417249813249 0.614867716701797
    endloop
  endfacet
  facet normal -0.4999999997893303 -0.6881909599716024 -0.5257311126650523
    outer loop
      vertex 0.409378338011287 0.808167040641345 0.255368134157141
      vertex 0.620686889778729 0.380009147685025 0.614867716701797
      vertex 0.278782469097973 0.628417249813253 0.614867716701797
    endloop
  endfacet
  facet normal -0.49999999996204 -0.6881909599465063 -0.525731112533647
    outer loop
      vertex 0.620686889778729 0.380009147685025 0.614867716701797
      vertex 0.409378338011287 0.808167040641345 0.255368134157141
      vertex 0.751282758490414 0.559758938589729 0.255368134124437
    endloop
  endfacet
  facet normal -0.3568220896933301 -0.4911234730971818 -0.7946544723839707
    outer loop
      vertex 0.620686889778729 0.380009147685025 0.614867716701797
      vertex 0.278782469334761 0.268917667131297 0.837050677567267
      vertex 0.278782469097973 0.628417249813253 0.614867716701797
    endloop
  endfacet
  facet normal -0.8506508081317798 -0.27639320097015846 -0.4472135967099159
    outer loop
      vertex 0.962591311277517 0.268917666782719 0.0331851731511231
      vertex 0.620686889778729 0.380009147685025 0.614867716701797
      vertex 0.751282758490414 0.559758938589729 0.255368134124437
    endloop
  endfacet
  facet normal -0.8506508078274799 -0.27639320274436385 -0.44721359619220974
    outer loop
      vertex 0.962591311266567 -0.0905819157259048 0.255368134157141
      vertex 0.620686889778729 0.380009147685025 0.614867716701797
      vertex 0.962591311277517 0.268917666782719 0.0331851731511231
    endloop
  endfacet
  facet normal -0.850650807791562 -0.27639320259605343 -0.4472135963521906
    outer loop
      vertex 0.620686889778729 0.380009147685025 0.614867716701797
      vertex 0.962591311266567 -0.0905819157259048 0.255368134157141
      vertex 0.751282757821255 -0.0219236046445405 0.614867716701797
    endloop
  endfacet
  facet normal -0.49999999988819704 -0.16245984839056068 -0.8506508083654061
    outer loop
      vertex 0.409378337372328 -0.133015085141346 0.837050677567267
      vertex 0.620686889778729 0.380009147685025 0.614867716701797
      vertex 0.751282757821255 -0.0219236046445405 0.614867716701797
    endloop
  endfacet
  facet normal -0.4999999998702919 -0.16245984840158195 -0.8506508083738258
    outer loop
      vertex 0.620686889778729 0.380009147685025 0.614867716701797
      vertex 0.409378337372328 -0.133015085141346 0.837050677567267
      vertex 0.278782469334761 0.268917667131297 0.837050677567267
    endloop
  endfacet
  facet normal -0.8090169939300474 0.26286555510607146 -0.525731113280512
    outer loop
      vertex 0.962591311266567 -0.0905819157259048 0.255368134157141
      vertex 0.62068689042636 -0.423856356985833 0.614867716701797
      vertex 0.751282757821255 -0.0219236046445405 0.614867716701797
    endloop
  endfacet
  facet normal -0.809016994097732 0.2628655560837473 -0.5257311125336341
    outer loop
      vertex 0.62068689042636 -0.423856356985833 0.614867716701797
      vertex 0.962591311266567 -0.0905819157259048 0.255368134157141
      vertex 0.831995443504266 -0.492514667851765 0.255368134124437
    endloop
  endfacet
  facet normal -0.5773502691437391 0.18759247349287608 -0.7946544724649051
    outer loop
      vertex 0.62068689042636 -0.423856356985833 0.614867716701797
      vertex 0.409378337372328 -0.133015085141346 0.837050677567267
      vertex 0.751282757821255 -0.0219236046445405 0.614867716701797
    endloop
  endfacet
  facet normal -0.5257311122114093 0.7236067973995584 -0.44721359595847365
    outer loop
      vertex 0.278782470099137 -0.894447420291553 0.255368134202956
      vertex 0.62068689042636 -0.423856356985833 0.614867716701797
      vertex 0.831995443504266 -0.492514667851765 0.255368134124437
    endloop
  endfacet
  facet normal -0.5257311125085534 0.7236067973767665 -0.44721359564603796
    outer loop
      vertex 0.62068689042636 -0.423856356985833 0.614867716701797
      vertex 0.278782470099137 -0.894447420291553 0.255368134202956
      vertex 0.278782470145854 -0.672264459144761 0.614867716701797
    endloop
  endfacet
  facet normal -0.5257311124962412 0.7236067977915958 -0.4472135949893042
    outer loop
      vertex 0.278782470099137 -0.894447420291553 0.255368134202956
      vertex 0.831995443504266 -0.492514667851765 0.255368134124437
      vertex 0.620686890623076 -0.783355939590419 0.0331851731511231
    endloop
  endfacet
  facet normal -0.3090169944083829 0.4253254036876239 -0.8506508085840918
    outer loop
      vertex 0.278782470145854 -0.672264459144761 0.614867716701797
      vertex 0.409378337372328 -0.133015085141346 0.837050677567267
      vertex 0.62068689042636 -0.423856356985833 0.614867716701797
    endloop
  endfacet
  facet normal -0.3090169935375378 0.4253254036208274 -0.8506508089338431
    outer loop
      vertex 0.409378337372328 -0.133015085141346 0.837050677567267
      vertex 0.278782470145854 -0.672264459144761 0.614867716701797
      vertex 0.0674739173334108 -0.381423186929003 0.837050677334625
    endloop
  endfacet
  facet normal 0.30901699378331376 0.9510565164873871 9.819178964917376e-10
    outer loop
      vertex 0.0674739172175376 -0.963105730544182 -0.104131448510276
      vertex -0.485739056188848 -0.783355939795124 0.0331851732831192
      vertex -0.143834635481966 -0.894447420306138 0.255368134179356
    endloop
  endfacet
  facet normal 0.3090169934238861 0.9510565166041721 -6.189962830233853e-10
    outer loop
      vertex -0.485739056188848 -0.783355939795124 0.0331851732831192
      vertex 0.0674739172175376 -0.963105730544182 -0.104131448510276
      vertex -0.274430503315598 -0.852014250606478 -0.326314409171933
    endloop
  endfacet
  facet normal -2.342282666360813e-11 0.9822469466688157 -0.18759247255630665
    outer loop
      vertex 0.278782470099137 -0.894447420291553 0.255368134202956
      vertex 0.0674739172175376 -0.963105730544182 -0.104131448510276
      vertex -0.143834635481966 -0.894447420306138 0.255368134179356
    endloop
  endfacet
  facet normal 0.9341723593601968 0.3035309988119877 -0.18759247257712805
    outer loop
      vertex -0.827643476261038 -0.31276487615108 -0.104131448609566
      vertex -0.827643476632806 -0.090581915508612 0.255368134124437
      vertex -0.697047608969308 -0.492514667967714 0.255368134171024
    endloop
  endfacet
  facet normal 0.8090169949825334 0.5877852514562025 1.303609648315895e-9
    outer loop
      vertex -0.485739056188848 -0.783355939795124 0.0331851732831192
      vertex -0.827643476261038 -0.31276487615108 -0.104131448609566
      vertex -0.697047608969308 -0.492514667967714 0.255368134171024
    endloop
  endfacet
  facet normal 0.809016994982533 0.5877852514562034 1.3036135942069966e-9
    outer loop
      vertex -0.827643476261038 -0.31276487615108 -0.104131448609566
      vertex -0.485739056188848 -0.783355939795124 0.0331851732831192
      vertex -0.616334923519286 -0.603606147925211 -0.326314409335296
    endloop
  endfacet
  facet normal 1 -2.497078723973508e-10 4.0639519539145104e-10
    outer loop
      vertex -0.827643476632806 -0.090581915508612 0.255368134124437
      vertex -0.827643476362124 0.0467347061330975 -0.326314409344818
      vertex -0.827643476452742 0.268917667120935 0.0331851731611519
    endloop
  endfacet
  facet normal 1 6.659431058600132e-10 6.225510700156537e-10
    outer loop
      vertex -0.827643476362124 0.0467347061330975 -0.326314409344818
      vertex -0.827643476632806 -0.090581915508612 0.255368134124437
      vertex -0.827643476261038 -0.31276487615108 -0.104131448609566
    endloop
  endfacet
  facet normal 0.5773502688915862 -0.7946544721598222 -0.18759247556127517
    outer loop
      vertex -0.485739056420119 0.739508730293356 -0.104131448198693
      vertex -0.274430503163161 0.808167040719102 0.255368134124437
      vertex -0.616334923708754 0.559758938758966 0.255368134157141
    endloop
  endfacet
  facet normal 0.8090169947662722 -0.5877852517538608 -1.0764936312687626e-9
    outer loop
      vertex -0.827643476452742 0.268917667120935 0.0331851731611519
      vertex -0.485739056420119 0.739508730293356 -0.104131448198693
      vertex -0.616334923708754 0.559758938758966 0.255368134157141
    endloop
  endfacet
  facet normal 0.8090169950555712 -0.5877852513556748 1.0084345297408022e-9
    outer loop
      vertex -0.485739056420119 0.739508730293356 -0.104131448198693
      vertex -0.827643476452742 0.268917667120935 0.0331851731611519
      vertex -0.697047608550127 0.448667458411264 -0.326314409322694
    endloop
  endfacet
  facet normal 0.30901699365279395 -0.9510565165297954 -8.797093468449538e-10
    outer loop
      vertex -0.485739056420119 0.739508730293356 -0.104131448198693
      vertex 0.0674739174684475 0.919258521129905 0.0331851731511231
      vertex -0.274430503163161 0.808167040719102 0.255368134124437
    endloop
  endfacet
  facet normal 0.3090169930409033 -0.9510565167286107 1.8456913900519865e-9
    outer loop
      vertex 0.0674739174684475 0.919258521129905 0.0331851731511231
      vertex -0.485739056420119 0.739508730293356 -0.104131448198693
      vertex -0.143834635272372 0.850600209991965 -0.326314409239975
    endloop
  endfacet
  facet normal -0.5773502691276938 -0.7946544719882779 -0.18759247556128383
    outer loop
      vertex 0.620686890942553 0.739508730382347 -0.104131448198693
      vertex 0.751282758490414 0.559758938589729 0.255368134124437
      vertex 0.409378338011287 0.808167040641345 0.255368134157141
    endloop
  endfacet
  facet normal -0.3090169937783186 -0.9510565164890101 -1.1224553145837536e-9
    outer loop
      vertex 0.0674739174684475 0.919258521129905 0.0331851731511231
      vertex 0.620686890942553 0.739508730382347 -0.104131448198693
      vertex 0.409378338011287 0.808167040641345 0.255368134157141
    endloop
  endfacet
  facet normal -0.3090169937783182 -0.95105651648901 -1.1224539115147956e-9
    outer loop
      vertex 0.620686890942553 0.739508730382347 -0.104131448198693
      vertex 0.0674739174684475 0.919258521129905 0.0331851731511231
      vertex 0.278782470394991 0.850600210872441 -0.326314409342552
    endloop
  endfacet
  facet normal -0.8090169950602744 -0.5877852513492015 9.949423481557344e-10
    outer loop
      vertex 0.962591311277517 0.268917666782719 0.0331851731511231
      vertex 0.620686890942553 0.739508730382347 -0.104131448198693
      vertex 0.83199544343666 0.448667457999322 -0.326314409390997
    endloop
  endfacet
  facet normal -0.8090169948001522 -0.587785251707229 -8.797136484028791e-10
    outer loop
      vertex 0.620686890942553 0.739508730382347 -0.104131448198693
      vertex 0.962591311277517 0.268917666782719 0.0331851731511231
      vertex 0.751282758490414 0.559758938589729 0.255368134124437
    endloop
  endfacet
  facet normal -0.8506508081628031 0.2763932024966238 0.44721359570749886
    outer loop
      vertex 0.409378337498196 0.0891678753720491 -0.907996952740083
      vertex 0.83199544343666 0.448667457999322 -0.326314409390997
      vertex 0.620686890436693 0.380009147154556 -0.685813991943704
    endloop
  endfacet
  facet normal -0.850650808162803 0.27639320249662946 0.4472135957074953
    outer loop
      vertex 0.83199544343666 0.448667457999322 -0.326314409390997
      vertex 0.409378337498196 0.0891678753720491 -0.907996952740083
      vertex 0.962591311277517 0.268917666782719 0.0331851731511231
    endloop
  endfacet
  facet normal -0.8506508081628057 0.2763932024966149 0.4472135957074995
    outer loop
      vertex 0.278782469682665 -0.312764876830352 -0.907996952584686
      vertex 0.962591311277517 0.268917666782719 0.0331851731511231
      vertex 0.409378337498196 0.0891678753720491 -0.907996952740083
    endloop
  endfacet
  facet normal -0.8506508081628056 0.27639320249661575 0.4472135957074991
    outer loop
      vertex 0.962591311277517 0.268917666782719 0.0331851731511231
      vertex 0.278782469682665 -0.312764876830352 -0.907996952584686
      vertex 0.962591311266567 -0.0905819157259048 0.255368134157141
    endloop
  endfacet
  facet normal -0.8506508079970474 0.27639320346306007 0.4472135954254943
    outer loop
      vertex 0.278782469676423 -0.672264457712692 -0.685813991657816
      vertex 0.962591311266567 -0.0905819157259048 0.255368134157141
      vertex 0.278782469682665 -0.312764876830352 -0.907996952584686
    endloop
  endfacet
  facet normal -0.8506508079970474 0.27639320217344304 0.4472135962225215
    outer loop
      vertex 0.962591311266567 -0.0905819157259048 0.255368134157141
      vertex 0.278782469676423 -0.672264457712692 -0.685813991657816
      vertex 0.831995443504266 -0.492514667851765 0.255368134124437
    endloop
  endfacet
  facet normal -0.8506508080718219 0.27639320173747417 0.44721359634973556
    outer loop
      vertex 0.409378337653098 -0.852014249406978 -0.326314409410103
      vertex 0.831995443504266 -0.492514667851765 0.255368134124437
      vertex 0.278782469676423 -0.672264457712692 -0.685813991657816
    endloop
  endfacet
  facet normal -0.850650808071822 0.27639320136696427 0.4472135965787234
    outer loop
      vertex 0.831995443504266 -0.492514667851765 0.255368134124437
      vertex 0.409378337653098 -0.852014249406978 -0.326314409410103
      vertex 0.620686890623076 -0.783355939590419 0.0331851731511231
    endloop
  endfacet
  facet normal -0.30901699418750517 0.9510565163560574 1.3625178146082295e-9
    outer loop
      vertex 0.620686890623076 -0.783355939590419 0.0331851731511231
      vertex 0.0674739172175376 -0.963105730544182 -0.104131448510276
      vertex 0.278782470099137 -0.894447420291553 0.255368134202956
    endloop
  endfacet
  facet normal -0.3090169945107225 0.9510565162510376 2.8021491141371954e-9
    outer loop
      vertex 0.0674739172175376 -0.963105730544182 -0.104131448510276
      vertex 0.620686890623076 -0.783355939590419 0.0331851731511231
      vertex 0.409378337653098 -0.852014249406978 -0.326314409410103
    endloop
  endfacet
  facet normal -7.084561695996287e-10 0.8944271903292847 0.44721359684122025
    outer loop
      vertex 0.278782469676423 -0.672264457712692 -0.685813991657816
      vertex 0.0674739172175376 -0.963105730544182 -0.104131448510276
      vertex 0.409378337653098 -0.852014249406978 -0.326314409410103
    endloop
  endfacet
  facet normal -3.3110921209971653e-9 0.8944271907074699 0.44721359608485
    outer loop
      vertex -0.143834635429123 -0.672264459283445 -0.685813991645294
      vertex 0.0674739172175376 -0.963105730544182 -0.104131448510276
      vertex 0.278782469676423 -0.672264457712692 -0.685813991657816
    endloop
  endfacet
  facet normal -9.449585084391627e-10 0.8944271910512892 0.4472135953972113
    outer loop
      vertex 0.0674739172175376 -0.963105730544182 -0.104131448510276
      vertex -0.143834635429123 -0.672264459283445 -0.685813991645294
      vertex -0.274430503315598 -0.852014250606478 -0.326314409171933
    endloop
  endfacet
  facet normal 0.5773502703736872 0.7946544711968849 0.1875924750789036
    outer loop
      vertex -0.274430503315598 -0.852014250606478 -0.326314409171933
      vertex -0.616334923519286 -0.603606147925211 -0.326314409335296
      vertex -0.485739056188848 -0.783355939795124 0.0331851732831192
    endloop
  endfacet
  facet normal 0.9341723588763279 -0.3035309991686182 0.18759247440965648
    outer loop
      vertex -0.827643476362124 0.0467347061330975 -0.326314409344818
      vertex -0.697047608550127 0.448667458411264 -0.326314409322694
      vertex -0.827643476452742 0.268917667120935 0.0331851731611519
    endloop
  endfacet
  facet normal 2.0919351090149735e-9 -0.982246946416164 0.18759247387920935
    outer loop
      vertex -0.143834635272372 0.850600209991965 -0.326314409239975
      vertex 0.278782470394991 0.850600210872441 -0.326314409342552
      vertex 0.0674739174684475 0.919258521129905 0.0331851731511231
    endloop
  endfacet
  facet normal 0.5000000002360641 0.6881909598551127 0.5257311123926706
    outer loop
      vertex -0.48573905590373 -0.423856357014211 -0.685813991680362
      vertex -0.274430503315598 -0.852014250606478 -0.326314409171933
      vertex -0.143834635429123 -0.672264459283445 -0.685813991645294
    endloop
  endfacet
  facet normal 0.500000001166138 0.6881909597199649 0.5257311116850282
    outer loop
      vertex -0.274430503315598 -0.852014250606478 -0.326314409171933
      vertex -0.48573905590373 -0.423856357014211 -0.685813991680362
      vertex -0.616334923519286 -0.603606147925211 -0.326314409335296
    endloop
  endfacet
  facet normal 2.478076855161021e-10 0.5257311138317522 0.8506508072935834
    outer loop
      vertex -0.143834635269011 -0.312764876636926 -0.907996952581115
      vertex 0.278782469676423 -0.672264457712692 -0.685813991657816
      vertex 0.278782469682665 -0.312764876830352 -0.907996952584686
    endloop
  endfacet
  facet normal -1.928795265251481e-9 0.5257311119802232 0.8506508084378914
    outer loop
      vertex 0.278782469676423 -0.672264457712692 -0.685813991657816
      vertex -0.143834635269011 -0.312764876636926 -0.907996952581115
      vertex -0.143834635429123 -0.672264459283445 -0.685813991645294
    endloop
  endfacet
  facet normal 0.3568220898995284 0.4911234729182712 0.7946544724019547
    outer loop
      vertex -0.143834635269011 -0.312764876636926 -0.907996952581115
      vertex -0.48573905590373 -0.423856357014211 -0.685813991680362
      vertex -0.143834635429123 -0.672264459283445 -0.685813991645294
    endloop
  endfacet
  facet normal 4.171332747751211e-9 -9.687239978586798e-10 1
    outer loop
      vertex 0.0674739158080597 0.33757597952881 -0.907996951073247
      vertex 0.278782469682665 -0.312764876830352 -0.907996952584686
      vertex 0.409378337498196 0.0891678753720491 -0.907996952740083
    endloop
  endfacet
  facet normal 8.449804486996402e-12 -2.3213266616602883e-9 1
    outer loop
      vertex 0.0674739158080597 0.33757597952881 -0.907996951073247
      vertex -0.143834635269011 -0.312764876636926 -0.907996952581115
      vertex 0.278782469682665 -0.312764876830352 -0.907996952584686
    endloop
  endfacet
  facet normal -3.746304080630215e-9 -1.1013331834819424e-9 1
    outer loop
      vertex -0.143834635269011 -0.312764876636926 -0.907996952581115
      vertex 0.0674739158080597 0.33757597952881 -0.907996951073247
      vertex -0.274430502896416 0.0891678757110979 -0.907996952627705
    endloop
  endfacet
  facet normal 0.49999999992997346 0.16245984797887084 0.8506508084194765
    outer loop
      vertex -0.274430502896416 0.0891678757110979 -0.907996952627705
      vertex -0.48573905590373 -0.423856357014211 -0.685813991680362
      vertex -0.143834635269011 -0.312764876636926 -0.907996952581115
    endloop
  endfacet
  facet normal 0.49999999991206706 0.16245984798989288 0.8506508084278965
    outer loop
      vertex -0.48573905590373 -0.423856357014211 -0.685813991680362
      vertex -0.274430502896416 0.0891678757110979 -0.907996952627705
      vertex -0.616334923508455 -0.0219236047173532 -0.685813991738468
    endloop
  endfacet
  facet normal 0.3090169951228375 -0.4253254051933434 0.8506508075716913
    outer loop
      vertex -0.143834637284508 0.628417250640839 -0.685813989603288
      vertex -0.274430502896416 0.0891678757110979 -0.907996952627705
      vertex 0.0674739158080597 0.33757597952881 -0.907996951073247
    endloop
  endfacet
  facet normal 0.3090169928455386 -0.42532540501866745 0.8506508084863066
    outer loop
      vertex -0.274430502896416 0.0891678757110979 -0.907996952627705
      vertex -0.143834637284508 0.628417250640839 -0.685813989603288
      vertex -0.485739055670713 0.380009147563966 -0.685813991767257
    endloop
  endfacet
  facet normal 0.5773502690353247 -0.18759247406484406 0.7946544724086495
    outer loop
      vertex -0.485739055670713 0.380009147563966 -0.685813991767257
      vertex -0.616334923508455 -0.0219236047173532 -0.685813991738468
      vertex -0.274430502896416 0.0891678757110979 -0.907996952627705
    endloop
  endfacet
  facet normal 0.5257311109666316 -0.7236067972456955 0.4472135976707531
    outer loop
      vertex -0.697047608550127 0.448667458411264 -0.326314409322694
      vertex -0.143834635272372 0.850600209991965 -0.326314409239975
      vertex -0.485739056420119 0.739508730293356 -0.104131448198693
    endloop
  endfacet
  facet normal 0.5257311115863711 -0.7236067980986935 0.4472135955620258
    outer loop
      vertex -0.485739055670713 0.380009147563966 -0.685813991767257
      vertex -0.143834635272372 0.850600209991965 -0.326314409239975
      vertex -0.697047608550127 0.448667458411264 -0.326314409322694
    endloop
  endfacet
  facet normal 0.5257311148748377 -0.7236067978464578 0.44721359210432726
    outer loop
      vertex -0.143834635272372 0.850600209991965 -0.326314409239975
      vertex -0.485739055670713 0.380009147563966 -0.685813991767257
      vertex -0.143834637284508 0.628417250640839 -0.685813989603288
    endloop
  endfacet
  facet normal 0.8090169942148586 -0.26286555610838513 0.525731112341076
    outer loop
      vertex -0.827643476362124 0.0467347061330975 -0.326314409344818
      vertex -0.485739055670713 0.380009147563966 -0.685813991767257
      vertex -0.697047608550127 0.448667458411264 -0.326314409322694
    endloop
  endfacet
  facet normal 0.8090169942118005 -0.2628655560905551 0.5257311123546968
    outer loop
      vertex -0.485739055670713 0.380009147563966 -0.685813991767257
      vertex -0.827643476362124 0.0467347061330975 -0.326314409344818
      vertex -0.616334923508455 -0.0219236047173532 -0.685813991738468
    endloop
  endfacet
  facet normal -0.30901699442942315 -0.42532540368052674 0.8506508085799971
    outer loop
      vertex 0.278782469856954 0.628417249366902 -0.685813992036227
      vertex 0.409378337498196 0.0891678753720491 -0.907996952740083
      vertex 0.620686890436693 0.380009147154556 -0.685813991943704
    endloop
  endfacet
  facet normal -0.30901699129260923 -0.4253254034399234 0.8506508098398132
    outer loop
      vertex 0.409378337498196 0.0891678753720491 -0.907996952740083
      vertex 0.278782469856954 0.628417249366902 -0.685813992036227
      vertex 0.0674739158080597 0.33757597952881 -0.907996951073247
    endloop
  endfacet
  facet normal -0.5257311126579562 -0.7236067968999029 0.44721359624198587
    outer loop
      vertex 0.278782470394991 0.850600210872441 -0.326314409342552
      vertex 0.83199544343666 0.448667457999322 -0.326314409390997
      vertex 0.620686890942553 0.739508730382347 -0.104131448198693
    endloop
  endfacet
  facet normal -0.5257311120311425 -0.7236067970307872 0.447213596767074
    outer loop
      vertex 0.620686890436693 0.380009147154556 -0.685813991943704
      vertex 0.278782470394991 0.850600210872441 -0.326314409342552
      vertex 0.278782469856954 0.628417249366902 -0.685813992036227
    endloop
  endfacet
  facet normal -0.5257311127149426 -0.7236067969783379 0.44721359604808436
    outer loop
      vertex 0.278782470394991 0.850600210872441 -0.326314409342552
      vertex 0.620686890436693 0.380009147154556 -0.685813991943704
      vertex 0.83199544343666 0.448667457999322 -0.326314409390997
    endloop
  endfacet
  facet normal 2.744770837155387e-9 -0.6070619986776152 0.7946544719320084
    outer loop
      vertex 0.278782469856954 0.628417249366902 -0.685813992036227
      vertex -0.143834637284508 0.628417250640839 -0.685813989603288
      vertex 0.0674739158080597 0.33757597952881 -0.907996951073247
    endloop
  endfacet
  facet normal 1.899841597274619e-9 -0.8506508086215908 0.525731111682991
    outer loop
      vertex -0.143834637284508 0.628417250640839 -0.685813989603288
      vertex 0.278782470394991 0.850600210872441 -0.326314409342552
      vertex -0.143834635272372 0.850600209991965 -0.326314409239975
    endloop
  endfacet
  facet normal 4.6234811371538224e-10 -0.8506508078658557 0.5257311129057962
    outer loop
      vertex 0.278782470394991 0.850600210872441 -0.326314409342552
      vertex -0.143834637284508 0.628417250640839 -0.685813989603288
      vertex 0.278782469856954 0.628417249366902 -0.685813992036227
    endloop
  endfacet
  facet normal 5.504794148476755e-10 1.7886160461508942e-10 -1
    outer loop
      vertex 0.0674739173334108 -0.381423186929003 0.837050677334625
      vertex 0.278782469334761 0.268917667131297 0.837050677567267
      vertex 0.409378337372328 -0.133015085141346 0.837050677567267
    endloop
  endfacet
  facet normal -2.364327702432174e-15 3.5772397645355114e-10 -1
    outer loop
      vertex 0.0674739173334108 -0.381423186929003 0.837050677334625
      vertex -0.143834636139567 0.268917667118416 0.837050677567268
      vertex 0.278782469334761 0.268917667131297 0.837050677567267
    endloop
  endfacet
  facet normal 5.482053774251321e-10 5.358474699901156e-10 -1
    outer loop
      vertex -0.143834636139567 0.268917667118416 0.837050677567268
      vertex 0.0674739173334108 -0.381423186929003 0.837050677334625
      vertex -0.274430503262409 -0.13301508492423 0.8370506772803
    endloop
  endfacet
  facet normal 0.8506508084155383 0.27639320231709363 0.447213595337724
    outer loop
      vertex -0.48573905590373 -0.423856357014211 -0.685813991680362
      vertex -0.827643476362124 0.0467347061330975 -0.326314409344818
      vertex -0.827643476261038 -0.31276487615108 -0.104131448609566
    endloop
  endfacet
  facet normal 0.8506508083215069 0.2763932019288245 0.44721359575654573
    outer loop
      vertex -0.827643476362124 0.0467347061330975 -0.326314409344818
      vertex -0.48573905590373 -0.423856357014211 -0.685813991680362
      vertex -0.616334923508455 -0.0219236047173532 -0.685813991738468
    endloop
  endfacet
  facet normal 0.8506508083800084 0.276393202524248 0.4472135952772771
    outer loop
      vertex -0.48573905590373 -0.423856357014211 -0.685813991680362
      vertex -0.827643476261038 -0.31276487615108 -0.104131448609566
      vertex -0.616334923519286 -0.603606147925211 -0.326314409335296
    endloop
  endfacet
endsolid OpenSCAD_Model
