solid OpenSCAD_Model
  facet normal 0.5257311120784873 0.7236067975847226 -0.447213595815131
    outer loop
      vertex -0.211308552799907 -0.872523814487377 0.21152092465257
      vertex -0.553212972984412 -0.401932751845523 0.571020506656722
      vertex -0.211308552818882 -0.65034085364632 0.571020506656722
    endloop
  endfacet
  facet normal 0.5257311120784863 0.7236067975847227 -0.44721359581513204
    outer loop
      vertex -0.211308552799907 -0.872523814487377 0.21152092465257
      vertex -0.764521525489685 -0.470591062728418 0.211520924644237
      vertex -0.553212972984412 -0.401932751845523 0.571020506656722
    endloop
  endfacet
  facet normal 0.5257311120784862 0.7236067975847223 -0.4472135958151324
    outer loop
      vertex -0.764521525489685 -0.470591062728418 0.211520924644237
      vertex -0.211308552799907 -0.872523814487377 0.21152092465257
      vertex -0.553212973013867 -0.761432334136523 -0.0106620359233469
    endloop
  endfacet
  facet normal 4.280979151452551e-18 0.8506508081180613 -0.5257311124977192
    outer loop
      vertex 0.211308552171911 -0.872523814472791 0.211520924676169
      vertex -0.211308552818882 -0.65034085364632 0.571020506656722
      vertex 0.211308552218628 -0.65034085364632 0.571020506656722
    endloop
  endfacet
  facet normal -2.058002951423047e-15 0.8506508081180602 -0.525731112497721
    outer loop
      vertex -0.211308552818882 -0.65034085364632 0.571020506656722
      vertex 0.211308552171911 -0.872523814472791 0.211520924676169
      vertex -0.211308552799907 -0.872523814487377 0.21152092465257
    endloop
  endfacet
  facet normal 0 0.5257311119137722 -0.8506508084789604
    outer loop
      vertex -0.211308552818882 -0.65034085364632 0.571020506656722
      vertex 0.211308552199649 -0.290841271569127 0.79320346720187
      vertex 0.211308552218628 -0.65034085364632 0.571020506656722
    endloop
  endfacet
  facet normal 6.652673841557564e-10 0.5257311113478619 -0.850650808828712
    outer loop
      vertex 0.211308552199649 -0.290841271569127 0.79320346720187
      vertex -0.211308552818882 -0.65034085364632 0.571020506656722
      vertex -0.211308552424187 -0.290841271410764 0.793203466969228
    endloop
  endfacet
  facet normal 0.3568220891835705 0.4911234723028276 -0.7946544731038048
    outer loop
      vertex -0.553212972984412 -0.401932751845523 0.571020506656722
      vertex -0.211308552424187 -0.290841271410764 0.793203466969228
      vertex -0.211308552818882 -0.65034085364632 0.571020506656722
    endloop
  endfacet
  facet normal 0.8090169944926376 0.26286555596931416 -0.5257311119831533
    outer loop
      vertex -0.553212972984412 -0.401932751845523 0.571020506656722
      vertex -0.895117392964903 -0.0686583108487801 0.211520924597651
      vertex -0.683808840496803 -1.83045978384782e-10 0.571020506656722
    endloop
  endfacet
  facet normal 0.8090169944421827 0.262865555675139 -0.5257311122078829
    outer loop
      vertex -0.895117392964903 -0.0686583108487801 0.211520924597651
      vertex -0.553212972984412 -0.401932751845523 0.571020506656722
      vertex -0.764521525489685 -0.470591062728418 0.211520924644237
    endloop
  endfacet
  facet normal 0.4999999990150904 0.16245984771702043 -0.8506508090072402
    outer loop
      vertex -0.553212972984412 -0.401932751845523 0.571020506656722
      vertex -0.341904419976515 0.111091480090185 0.793203466914903
      vertex -0.211308552424187 -0.290841271410764 0.793203466969228
    endloop
  endfacet
  facet normal 0.49999999901508674 0.16245984771702268 -0.850650809007242
    outer loop
      vertex -0.341904419976515 0.111091480090185 0.793203466914903
      vertex -0.553212972984412 -0.401932751845523 0.571020506656722
      vertex -0.683808840496803 -1.83045978384782e-10 0.571020506656722
    endloop
  endfacet
  facet normal 0.8506508083864388 -0.2763932023794344 -0.4472135953545456
    outer loop
      vertex -0.553212972876144 0.401932751444251 0.571020506656722
      vertex -0.895117392874476 0.290841271201951 -0.010662036055343
      vertex -0.683808840345494 0.581682542481204 0.211520924630354
    endloop
  endfacet
  facet normal 0.850650808386441 -0.27639320237942394 -0.4472135953545475
    outer loop
      vertex -0.895117392964903 -0.0686583108487801 0.211520924597651
      vertex -0.553212972876144 0.401932751444251 0.571020506656722
      vertex -0.683808840496803 -1.83045978384782e-10 0.571020506656722
    endloop
  endfacet
  facet normal 0.8506508083864409 -0.2763932023794226 -0.44721359535454913
    outer loop
      vertex -0.553212972876144 0.401932751444251 0.571020506656722
      vertex -0.895117392964903 -0.0686583108487801 0.211520924597651
      vertex -0.895117392874476 0.290841271201951 -0.010662036055343
    endloop
  endfacet
  facet normal 0.5773502680551709 -0.18759247379671457 -0.7946544731840696
    outer loop
      vertex -0.553212972876144 0.401932751444251 0.571020506656722
      vertex -0.341904419976515 0.111091480090185 0.793203466914903
      vertex -0.683808840496803 -1.83045978384782e-10 0.571020506656722
    endloop
  endfacet
  facet normal 0.4999999998879201 -0.6881909603701348 -0.5257311120496021
    outer loop
      vertex -0.341904420292823 0.830090644083212 0.211520924597651
      vertex -0.553212972876144 0.401932751444251 0.571020506656722
      vertex -0.683808840345494 0.581682542481204 0.211520924630354
    endloop
  endfacet
  facet normal 0.4999999999752425 -0.6881909603574462 -0.5257311119831632
    outer loop
      vertex -0.553212972876144 0.401932751444251 0.571020506656722
      vertex -0.341904420292823 0.830090644083212 0.211520924597651
      vertex -0.211308552760493 0.650340853114997 0.571020506656722
    endloop
  endfacet
  facet normal 0.30901699488943346 -0.4253254035652269 -0.8506508084705385
    outer loop
      vertex -0.341904419976515 0.111091480090185 0.793203466914903
      vertex -0.211308552760493 0.650340853114997 0.571020506656722
      vertex -2.78807431997327e-10 0.359499581709934 0.793203467201871
    endloop
  endfacet
  facet normal 0.3090169938004755 -0.42532540348170045 -0.8506508089078888
    outer loop
      vertex -0.211308552760493 0.650340853114997 0.571020506656722
      vertex -0.341904419976515 0.111091480090185 0.793203466914903
      vertex -0.553212972876144 0.401932751444251 0.571020506656722
    endloop
  endfacet
  facet normal -8.033191745670386e-11 -0.8944271910726144 -0.4472135953545609
    outer loop
      vertex -1.54136220254483e-10 0.941182124333854 -0.010662036055343
      vertex -0.211308552760493 0.650340853114997 0.571020506656722
      vertex -0.341904420292823 0.830090644083212 0.211520924597651
    endloop
  endfacet
  facet normal -8.031947638905779e-11 -0.8944271910726163 -0.44721359535455724
    outer loop
      vertex -0.211308552760493 0.650340853114997 0.571020506656722
      vertex -1.54136220254483e-10 0.941182124333854 -0.010662036055343
      vertex 0.211308552277013 0.650340853077046 0.571020506656722
    endloop
  endfacet
  facet normal -8.030721577643468e-11 -0.8944271910726145 -0.44721359535456073
    outer loop
      vertex 0.211308552277013 0.650340853077046 0.571020506656722
      vertex -1.54136220254483e-10 0.941182124333854 -0.010662036055343
      vertex 0.341904419895781 0.830090644005454 0.211520924630355
    endloop
  endfacet
  facet normal -5.451410947712801e-11 -0.6070619979800478 -0.7946544724649025
    outer loop
      vertex 0.211308552277013 0.650340853077046 0.571020506656722
      vertex -2.78807431997327e-10 0.359499581709934 0.793203467201871
      vertex -0.211308552760493 0.650340853114997 0.571020506656722
    endloop
  endfacet
  facet normal -0.500000000074681 -0.6881909602344302 -0.5257311120496218
    outer loop
      vertex 0.341904419895781 0.830090644005454 0.211520924630355
      vertex 0.553212972348058 0.401932751344902 0.571020506656722
      vertex 0.211308552277013 0.650340853077046 0.571020506656722
    endloop
  endfacet
  facet normal -0.5000000001620089 -0.6881909602217408 -0.5257311119831788
    outer loop
      vertex 0.553212972348058 0.401932751344902 0.571020506656722
      vertex 0.341904419895781 0.830090644005454 0.211520924630355
      vertex 0.683808839881986 0.581682542311967 0.211520924597651
    endloop
  endfacet
  facet normal -0.30901699429279716 -0.4253254039987077 -0.8506508084705389
    outer loop
      vertex 0.341904419754766 0.111091480020927 0.79320346720187
      vertex 0.211308552277013 0.650340853077046 0.571020506656722
      vertex 0.553212972348058 0.401932751344902 0.571020506656722
    endloop
  endfacet
  facet normal -0.30901699427183676 -0.42532540399709995 -0.850650808478957
    outer loop
      vertex 0.211308552277013 0.650340853077046 0.571020506656722
      vertex 0.341904419754766 0.111091480020927 0.79320346720187
      vertex -2.78807431997327e-10 0.359499581709934 0.793203467201871
    endloop
  endfacet
  facet normal -0.850650808436074 -0.27639320222663605 -0.44721359535456856
    outer loop
      vertex 0.895117392364447 0.290841270924262 -0.010662036055343
      vertex 0.553212972348058 0.401932751344902 0.571020506656722
      vertex 0.683808839881986 0.581682542311967 0.211520924597651
    endloop
  endfacet
  facet normal -0.8506508084360688 -0.2763932022266664 -0.4472135953545597
    outer loop
      vertex 0.895117392353497 -0.0686583110660729 0.211520924630354
      vertex 0.553212972348058 0.401932751344902 0.571020506656722
      vertex 0.895117392364447 0.290841270924262 -0.010662036055343
    endloop
  endfacet
  facet normal -0.8506508084360664 -0.27639320222665714 -0.44721359535456956
    outer loop
      vertex 0.553212972348058 0.401932751344902 0.571020506656722
      vertex 0.895117392353497 -0.0686583110660729 0.211520924630354
      vertex 0.683808839896537 -3.0585005866953e-10 0.571020506656722
    endloop
  endfacet
  facet normal -0.5773502689841852 -0.18759247398394055 -0.7946544724649032
    outer loop
      vertex 0.683808839896537 -3.0585005866953e-10 0.571020506656722
      vertex 0.341904419754766 0.111091480020927 0.79320346720187
      vertex 0.553212972348058 0.401932751344902 0.571020506656722
    endloop
  endfacet
  facet normal -0.8090169944063706 0.26286555610189705 -0.5257311120496131
    outer loop
      vertex 0.895117392353497 -0.0686583110660729 0.211520924630354
      vertex 0.553212972311971 -0.401932751944875 0.571020506656722
      vertex 0.683808839896537 -3.0585005866953e-10 0.571020506656722
    endloop
  endfacet
  facet normal -0.809016994421289 0.262865556188877 -0.5257311119831662
    outer loop
      vertex 0.553212972311971 -0.401932751944875 0.571020506656722
      vertex 0.895117392353497 -0.0686583110660729 0.211520924630354
      vertex 0.764521524779475 -0.470591062612468 0.211520924597651
    endloop
  endfacet
  facet normal -0.49999999979885695 0.1624598480709492 -0.8506508084789594
    outer loop
      vertex 0.553212972311971 -0.401932751944875 0.571020506656722
      vertex 0.341904419754766 0.111091480020927 0.79320346720187
      vertex 0.683808839896537 -3.0585005866953e-10 0.571020506656722
    endloop
  endfacet
  facet normal -0.4999999998167635 0.16245984805992705 -0.8506508084705391
    outer loop
      vertex 0.341904419754766 0.111091480020927 0.79320346720187
      vertex 0.553212972311971 -0.401932751944875 0.571020506656722
      vertex 0.211308552199649 -0.290841271569127 0.79320346720187
    endloop
  endfacet
  facet normal -0.5257311123635567 0.7236067976089727 -0.4472135954407744
    outer loop
      vertex 0.211308552171911 -0.872523814472791 0.211520924676169
      vertex 0.553212972311971 -0.401932751944875 0.571020506656722
      vertex 0.764521524779475 -0.470591062612468 0.211520924597651
    endloop
  endfacet
  facet normal -0.5257311120161939 0.7236067976356164 -0.4472135958060133
    outer loop
      vertex 0.553212972311971 -0.401932751944875 0.571020506656722
      vertex 0.211308552171911 -0.872523814472791 0.211520924676169
      vertex 0.211308552218628 -0.65034085364632 0.571020506656722
    endloop
  endfacet
  facet normal -0.5257311124962405 0.723606797791596 -0.4472135949893047
    outer loop
      vertex 0.211308552171911 -0.872523814472791 0.211520924676169
      vertex 0.764521524779475 -0.470591062612468 0.211520924597651
      vertex 0.553212972202927 -0.761432333931818 -0.010662036055343
    endloop
  endfacet
  facet normal -0.3568220896310543 0.49112347301147136 -0.7946544724649063
    outer loop
      vertex 0.211308552218628 -0.65034085364632 0.571020506656722
      vertex 0.211308552199649 -0.290841271569127 0.79320346720187
      vertex 0.553212972311971 -0.401932751944875 0.571020506656722
    endloop
  endfacet
  facet normal 0.3090169937833131 0.9510565164873872 9.819191705596767e-10
    outer loop
      vertex -4.05046121103249e-10 -0.941182124626436 -0.147978657518774
      vertex -0.553212973013867 -0.761432334136523 -0.0106620359233469
      vertex -0.211308552799907 -0.872523814487377 0.21152092465257
    endloop
  endfacet
  facet normal 0.3090169937833128 0.9510565164873873 9.819178024498418e-10
    outer loop
      vertex -0.553212973013867 -0.761432334136523 -0.0106620359233469
      vertex -4.05046121103249e-10 -0.941182124626436 -0.147978657518774
      vertex -0.341904420606195 -0.830090644279745 -0.370161617920836
    endloop
  endfacet
  facet normal -2.342559256837144e-11 0.982246946668816 -0.18759247255630598
    outer loop
      vertex 0.211308552171911 -0.872523814472791 0.211520924676169
      vertex -4.05046121103249e-10 -0.941182124626436 -0.147978657518774
      vertex -0.211308552799907 -0.872523814487377 0.21152092465257
    endloop
  endfacet
  facet normal 0.9341723595584027 0.30353099887638746 -0.18759247148590175
    outer loop
      vertex -0.89511739225606 -0.290841270966713 -0.147978657776557
      vertex -0.895117392964903 -0.0686583108487801 0.211520924597651
      vertex -0.764521525489685 -0.470591062728418 0.211520924644237
    endloop
  endfacet
  facet normal 0.8090169952696996 0.5877852510609525 2.0941135802337858e-9
    outer loop
      vertex -0.553212973013867 -0.761432334136523 -0.0106620359233469
      vertex -0.89511739225606 -0.290841270966713 -0.147978657776557
      vertex -0.764521525489685 -0.470591062728418 0.211520924644237
    endloop
  endfacet
  facet normal 0.8090169952696995 0.5877852510609527 2.094114755931593e-9
    outer loop
      vertex -0.89511739225606 -0.290841270966713 -0.147978657776557
      vertex -0.553212973013867 -0.761432334136523 -0.0106620359233469
      vertex -0.6838088398346 -0.5816825423 -0.370161618069184
    endloop
  endfacet
  facet normal 1 3.1718203965746542e-9 5.5391066106666024e-9
    outer loop
      vertex -0.895117392964903 -0.0686583108487801 0.211520924597651
      vertex -0.895117390178445 0.0686583112328505 -0.370161617811975
      vertex -0.895117392874476 0.290841271201951 -0.010662036055343
    endloop
  endfacet
  facet normal 1 -3.300065304680263e-9 4.01130163423858e-9
    outer loop
      vertex -0.895117390178445 0.0686583112328505 -0.370161617811975
      vertex -0.895117392964903 -0.0686583108487801 0.211520924597651
      vertex -0.89511739225606 -0.290841270966713 -0.147978657776557
    endloop
  endfacet
  facet normal 0.5773502688915877 -0.7946544721598209 -0.18759247556127592
    outer loop
      vertex -0.553212973245139 0.76143233375645 -0.147978657207191
      vertex -0.341904420292823 0.830090644083212 0.211520924597651
      vertex -0.683808840345494 0.581682542481204 0.211520924630354
    endloop
  endfacet
  facet normal 0.8090169947225679 -0.5877852518140145 -1.122448869886851e-9
    outer loop
      vertex -0.895117392874476 0.290841271201951 -0.010662036055343
      vertex -0.553212973245139 0.76143233375645 -0.147978657207191
      vertex -0.683808840345494 0.581682542481204 0.211520924630354
    endloop
  endfacet
  facet normal 0.8090169947225686 -0.5877852518140136 -1.1224438275576266e-9
    outer loop
      vertex -0.553212973245139 0.76143233375645 -0.147978657207191
      vertex -0.895117392874476 0.290841271201951 -0.010662036055343
      vertex -0.764521525777039 0.470591062473178 -0.37016161803073
    endloop
  endfacet
  facet normal 0.3090169936527921 -0.9510565165297962 -8.797077681215044e-10
    outer loop
      vertex -0.553212973245139 0.76143233375645 -0.147978657207191
      vertex -1.54136220254483e-10 0.941182124333854 -0.010662036055343
      vertex -0.341904420292823 0.830090644083212 0.211520924597651
    endloop
  endfacet
  facet normal 0.3090169943702441 -0.9510565162966819 -4.075285820597775e-9
    outer loop
      vertex -1.54136220254483e-10 0.941182124333854 -0.010662036055343
      vertex -0.553212973245139 0.76143233375645 -0.147978657207191
      vertex -0.211308553551977 0.872523814894027 -0.370161618124884
    endloop
  endfacet
  facet normal -0.5773502691276933 -0.7946544719882779 -0.18759247556128528
    outer loop
      vertex 0.553212972522405 0.761432333845441 -0.147978657207191
      vertex 0.683808839881986 0.581682542311967 0.211520924597651
      vertex 0.341904419895781 0.830090644005454 0.211520924630355
    endloop
  endfacet
  facet normal -0.309016993778318 -0.9510565164890102 -1.122457083279885e-9
    outer loop
      vertex -1.54136220254483e-10 0.941182124333854 -0.010662036055343
      vertex 0.553212972522405 0.761432333845441 -0.147978657207191
      vertex 0.341904419895781 0.830090644005454 0.211520924630355
    endloop
  endfacet
  facet normal -0.30901699377831754 -0.9510565164890104 -1.1224554859517992e-9
    outer loop
      vertex 0.553212972522405 0.761432333845441 -0.147978657207191
      vertex -1.54136220254483e-10 0.941182124333854 -0.010662036055343
      vertex 0.211308552467765 0.872523814175375 -0.37016161803073
    endloop
  endfacet
  facet normal -0.8090169943567376 -0.5877852523175369 -4.075326806735019e-9
    outer loop
      vertex 0.895117392364447 0.290841270924262 -0.010662036055343
      vertex 0.553212972522405 0.761432333845441 -0.147978657207191
      vertex 0.764521525710724 0.47059106315554 -0.370161618124884
    endloop
  endfacet
  facet normal -0.8090169948001519 -0.5877852517072295 -8.797158585660917e-10
    outer loop
      vertex 0.553212972522405 0.761432333845441 -0.147978657207191
      vertex 0.895117392364447 0.290841270924262 -0.010662036055343
      vertex 0.683808839881986 0.581682542311967 0.211520924597651
    endloop
  endfacet
  facet normal -0.9341723586658426 0.3035309991046814 -0.1875924755612824
    outer loop
      vertex 0.895117392904378 -0.290841271635035 -0.147978657207191
      vertex 0.764521524779475 -0.470591062612468 0.211520924597651
      vertex 0.895117392353497 -0.0686583110660729 0.211520924630354
    endloop
  endfacet
  facet normal -1 -6.632496395783296e-10 -1.1224442508262947e-9
    outer loop
      vertex 0.895117392915328 0.0686583103602687 -0.37016161803073
      vertex 0.895117392353497 -0.0686583110660729 0.211520924630354
      vertex 0.895117392364447 0.290841270924262 -0.010662036055343
    endloop
  endfacet
  facet normal -1 -6.632496400714896e-10 -1.122444250942714e-9
    outer loop
      vertex 0.895117392353497 -0.0686583110660729 0.211520924630354
      vertex 0.895117392915328 0.0686583103602687 -0.37016161803073
      vertex 0.895117392904378 -0.290841271635035 -0.147978657207191
    endloop
  endfacet
  facet normal -0.8090169944142643 0.5877852522383581 -4.075300966457432e-9
    outer loop
      vertex 0.553212972202927 -0.761432333931818 -0.010662036055343
      vertex 0.895117392904378 -0.290841271635035 -0.147978657207191
      vertex 0.683808841209596 -0.581682543410057 -0.370161618124884
    endloop
  endfacet
  facet normal -0.8090169939708541 0.5877852528486598 -8.797196942520731e-10
    outer loop
      vertex 0.895117392904378 -0.290841271635035 -0.147978657207191
      vertex 0.553212972202927 -0.761432333931818 -0.010662036055343
      vertex 0.764521524779475 -0.470591062612468 0.211520924597651
    endloop
  endfacet
  facet normal -0.30901699418750456 0.9510565163560575 1.362516832168952e-9
    outer loop
      vertex 0.553212972202927 -0.761432333931818 -0.010662036055343
      vertex -4.05046121103249e-10 -0.941182124626436 -0.147978657518774
      vertex 0.211308552171911 -0.872523814472791 0.211520924676169
    endloop
  endfacet
  facet normal -0.3090169945107224 0.9510565162510376 2.8021501079422234e-9
    outer loop
      vertex -4.05046121103249e-10 -0.941182124626436 -0.147978657518774
      vertex 0.553212972202927 -0.761432333931818 -0.010662036055343
      vertex 0.341904419537592 -0.830090643649392 -0.370161618098281
    endloop
  endfacet
  facet normal -7.084561178889118e-10 0.8944271903292846 0.4472135968412204
    outer loop
      vertex 0.211308551749197 -0.650340852214251 -0.729661199827704
      vertex -4.05046121103249e-10 -0.941182124626436 -0.147978657518774
      vertex 0.341904419537592 -0.830090643649392 -0.370161618098281
    endloop
  endfacet
  facet normal -7.084599009016279e-10 0.8944271903292852 0.4472135968412192
    outer loop
      vertex -0.211308553288313 -0.650340852620801 -0.729661199684099
      vertex -4.05046121103249e-10 -0.941182124626436 -0.147978657518774
      vertex 0.211308551749197 -0.650340852214251 -0.729661199827704
    endloop
  endfacet
  facet normal -7.084556614285739e-10 0.8944271903292859 0.44721359684121803
    outer loop
      vertex -4.05046121103249e-10 -0.941182124626436 -0.147978657518774
      vertex -0.211308553288313 -0.650340852620801 -0.729661199684099
      vertex -0.341904420606195 -0.830090644279745 -0.370161617920836
    endloop
  endfacet
  facet normal 0.577350270283721 0.7946544710391248 0.187592476024075
    outer loop
      vertex -0.341904420606195 -0.830090644279745 -0.370161617920836
      vertex -0.6838088398346 -0.5816825423 -0.370161618069184
      vertex -0.553212973013867 -0.761432334136523 -0.0106620359233469
    endloop
  endfacet
  facet normal 0.8506508074219754 0.27639319884899877 0.4472135993709931
    outer loop
      vertex -0.553212970206877 -0.40193275123742 -0.729661199287532
      vertex -0.895117390178445 0.0686583112328505 -0.370161617811975
      vertex -0.89511739225606 -0.290841270966713 -0.147978657776557
    endloop
  endfacet
  facet normal 0.8506508074219743 0.2763931988489941 0.4472135993709982
    outer loop
      vertex -0.895117390178445 0.0686583112328505 -0.370161617811975
      vertex -0.553212970206877 -0.40193275123742 -0.729661199287532
      vertex -0.683808836544361 8.06807800602282e-10 -0.729661199094628
    endloop
  endfacet
  facet normal 0.8506508074219762 0.27639319884899444 0.4472135993709944
    outer loop
      vertex -0.553212970206877 -0.40193275123742 -0.729661199287532
      vertex -0.89511739225606 -0.290841270966713 -0.147978657776557
      vertex -0.6838088398346 -0.5816825423 -0.370161618069184
    endloop
  endfacet
  facet normal 0.9341723606152371 -0.30353099247805565 0.18759247657579978
    outer loop
      vertex -0.895117390178445 0.0686583112328505 -0.370161617811975
      vertex -0.764521525777039 0.470591062473178 -0.37016161803073
      vertex -0.895117392874476 0.290841271201951 -0.010662036055343
    endloop
  endfacet
  facet normal 0.5257311136304922 -0.7236067978259215 0.4472135936003716
    outer loop
      vertex -0.764521525777039 0.470591062473178 -0.37016161803073
      vertex -0.211308553551977 0.872523814894027 -0.370161618124884
      vertex -0.553212973245139 0.76143233375645 -0.147978657207191
    endloop
  endfacet
  facet normal 0.525731113630491 -0.72360679782592 0.4472135936003758
    outer loop
      vertex -0.553212973596086 0.401932752657411 -0.729661200486023
      vertex -0.211308553551977 0.872523814894027 -0.370161618124884
      vertex -0.764521525777039 0.470591062473178 -0.37016161803073
    endloop
  endfacet
  facet normal 0.5257311136305003 -0.7236067978259192 0.4472135936003661
    outer loop
      vertex -0.211308553551977 0.872523814894027 -0.370161618124884
      vertex -0.553212973596086 0.401932752657411 -0.729661200486023
      vertex -0.211308553827259 0.650340854805525 -0.729661200510273
    endloop
  endfacet
  facet normal -1.7120848488387735e-9 -0.9822469468281646 0.18759247172194543
    outer loop
      vertex -0.211308553551977 0.872523814894027 -0.370161618124884
      vertex 0.211308552467765 0.872523814175375 -0.37016161803073
      vertex -1.54136220254483e-10 0.941182124333854 -0.010662036055343
    endloop
  endfacet
  facet normal -0.5257311116983268 -0.7236067992297343 0.4472135936003518
    outer loop
      vertex 0.211308552467765 0.872523814175375 -0.37016161803073
      vertex 0.764521525710724 0.47059106315554 -0.370161618124884
      vertex 0.553212972522405 0.761432333845441 -0.147978657207191
    endloop
  endfacet
  facet normal -0.5257311116983276 -0.7236067992297336 0.44721359360035184
    outer loop
      vertex 0.553212973626209 0.401932752881884 -0.729661200510277
      vertex 0.211308552467765 0.872523814175375 -0.37016161803073
      vertex 0.211308553208338 0.650340854136661 -0.729661200486027
    endloop
  endfacet
  facet normal -0.5257311116983263 -0.7236067992297336 0.4472135936003531
    outer loop
      vertex 0.211308552467765 0.872523814175375 -0.37016161803073
      vertex 0.553212973626209 0.401932752881884 -0.729661200510277
      vertex 0.764521525710724 0.47059106315554 -0.370161618124884
    endloop
  endfacet
  facet normal -0.9341723599101193 -0.303530997648038 0.1875924717219364
    outer loop
      vertex 0.764521525710724 0.47059106315554 -0.370161618124884
      vertex 0.895117392915328 0.0686583103602687 -0.37016161803073
      vertex 0.895117392364447 0.290841270924262 -0.010662036055343
    endloop
  endfacet
  facet normal -0.8506508096392537 0.27639320136199336 0.4472135936003635
    outer loop
      vertex 0.553212974168684 -0.401932752685503 -0.729661200510273
      vertex 0.895117392915328 0.0686583103602687 -0.37016161803073
      vertex 0.683808841192074 -8.6413991269173e-10 -0.729661200486023
    endloop
  endfacet
  facet normal -0.8506508096392525 0.27639320136198975 0.44721359360036717
    outer loop
      vertex 0.895117392915328 0.0686583103602687 -0.37016161803073
      vertex 0.553212974168684 -0.401932752685503 -0.729661200510273
      vertex 0.895117392904378 -0.290841271635035 -0.147978657207191
    endloop
  endfacet
  facet normal -0.8506508096392515 0.276393201361997 0.4472135936003651
    outer loop
      vertex 0.895117392904378 -0.290841271635035 -0.147978657207191
      vertex 0.553212974168684 -0.401932752685503 -0.729661200510273
      vertex 0.683808841209596 -0.581682543410057 -0.370161618124884
    endloop
  endfacet
  facet normal -0.5773502652524496 0.7946544752691991 0.18759247358985404
    outer loop
      vertex 0.683808841209596 -0.581682543410057 -0.370161618124884
      vertex 0.341904419537592 -0.830090643649392 -0.370161618098281
      vertex 0.553212972202927 -0.761432333931818 -0.010662036055343
    endloop
  endfacet
  facet normal -0.49999999700076925 0.6881909634179786 0.5257311108057664
    outer loop
      vertex 0.553212974168684 -0.401932752685503 -0.729661200510273
      vertex 0.341904419537592 -0.830090643649392 -0.370161618098281
      vertex 0.683808841209596 -0.581682543410057 -0.370161618124884
    endloop
  endfacet
  facet normal -0.499999993806002 0.6881909638822055 0.5257311132364899
    outer loop
      vertex 0.341904419537592 -0.830090643649392 -0.370161618098281
      vertex 0.553212974168684 -0.401932752685503 -0.729661200510273
      vertex 0.211308551749197 -0.650340852214251 -0.729661199827704
    endloop
  endfacet
  facet normal 0.5000000026729821 0.6881909575922383 0.5257311130371646
    outer loop
      vertex -0.553212970206877 -0.40193275123742 -0.729661199287532
      vertex -0.341904420606195 -0.830090644279745 -0.370161617920836
      vertex -0.211308553288313 -0.650340852620801 -0.729661199684099
    endloop
  endfacet
  facet normal 0.49999999994550504 0.688190957988564 0.5257311151123525
    outer loop
      vertex -0.341904420606195 -0.830090644279745 -0.370161617920836
      vertex -0.553212970206877 -0.40193275123742 -0.729661199287532
      vertex -0.6838088398346 -0.5816825423 -0.370161618069184
    endloop
  endfacet
  facet normal 0.8090169971215281 -0.2628655505516037 0.5257311106465621
    outer loop
      vertex -0.895117390178445 0.0686583112328505 -0.370161617811975
      vertex -0.553212973596086 0.401932752657411 -0.729661200486023
      vertex -0.764521525777039 0.470591062473178 -0.37016161803073
    endloop
  endfacet
  facet normal 0.8090169962391728 -0.26286554540707774 0.5257311145766302
    outer loop
      vertex -0.553212973596086 0.401932752657411 -0.729661200486023
      vertex -0.895117390178445 0.0686583112328505 -0.370161617811975
      vertex -0.683808836544361 8.06807800602282e-10 -0.729661199094628
    endloop
  endfacet
  facet normal -1.5636414837305208e-9 -0.8506508091637446 0.5257311108057678
    outer loop
      vertex -0.211308553827259 0.650340854805525 -0.729661200510273
      vertex 0.211308552467765 0.872523814175375 -0.37016161803073
      vertex -0.211308553551977 0.872523814894027 -0.370161618124884
    endloop
  endfacet
  facet normal -1.3764623043585657e-9 -0.8506508092621505 0.5257311106465439
    outer loop
      vertex 0.211308552467765 0.872523814175375 -0.37016161803073
      vertex -0.211308553827259 0.650340854805525 -0.729661200510273
      vertex 0.211308553208338 0.650340854136661 -0.729661200486027
    endloop
  endfacet
  facet normal -0.8090169956206894 -0.2628655548523156 0.5257311108057594
    outer loop
      vertex 0.553212973626209 0.401932752881884 -0.729661200510277
      vertex 0.895117392915328 0.0686583103602687 -0.37016161803073
      vertex 0.764521525710724 0.47059106315554 -0.370161618124884
    endloop
  endfacet
  facet normal -0.8090169956564328 -0.26286555506071513 0.5257311106465562
    outer loop
      vertex 0.895117392915328 0.0686583103602687 -0.37016161803073
      vertex 0.553212973626209 0.401932752881884 -0.729661200510277
      vertex 0.683808841192074 -8.6413991269173e-10 -0.729661200486023
    endloop
  endfacet
  facet normal -1.8570257855824852e-10 5.109964818326193e-15 1
    outer loop
      vertex 0.553212973626209 0.401932752881884 -0.729661200510277
      vertex 0.553212974168684 -0.401932752685503 -0.729661200510273
      vertex 0.683808841192074 -8.6413991269173e-10 -0.729661200486023
    endloop
  endfacet
  facet normal 7.093010317156386e-11 5.110138002525675e-15 1
    outer loop
      vertex 0.211308553208338 0.650340854136661 -0.729661200486027
      vertex 0.553212974168684 -0.401932752685503 -0.729661200510273
      vertex 0.553212973626209 0.401932752881884 -0.729661200510277
    endloop
  endfacet
  facet normal 1.628643443366179e-9 5.061368558631947e-10 1
    outer loop
      vertex 0.211308553208338 0.650340854136661 -0.729661200486027
      vertex 0.211308551749197 -0.650340852214251 -0.729661199827704
      vertex 0.553212974168684 -0.401932752685503 -0.729661200510273
    endloop
  endfacet
  facet normal -5.737093422866323e-11 5.061368577546126e-10 1
    outer loop
      vertex -0.211308553827259 0.650340854805525 -0.729661200510273
      vertex 0.211308551749197 -0.650340852214251 -0.729661199827704
      vertex 0.211308553208338 0.650340854136661 -0.729661200486027
    endloop
  endfacet
  facet normal 3.3979934743988154e-10 6.351853051601962e-10 1
    outer loop
      vertex -0.211308553827259 0.650340854805525 -0.729661200510273
      vertex -0.211308553288313 -0.650340852620801 -0.729661199684099
      vertex 0.211308551749197 -0.650340852214251 -0.729661199827704
    endloop
  endfacet
  facet normal 1.6213659427652812e-9 6.351853056912217e-10 1
    outer loop
      vertex -0.211308553827259 0.650340854805525 -0.729661200510273
      vertex -0.553212970206877 -0.40193275123742 -0.729661199287532
      vertex -0.211308553288313 -0.650340852620801 -0.729661199684099
    endloop
  endfacet
  facet normal -1.0122833230999756e-9 1.490909815004364e-9 1
    outer loop
      vertex -0.553212973596086 0.401932752657411 -0.729661200486023
      vertex -0.553212970206877 -0.40193275123742 -0.729661199287532
      vertex -0.211308553827259 0.650340854805525 -0.729661200510273
    endloop
  endfacet
  facet normal 6.065655409244597e-9 1.4909098448459407e-9 1
    outer loop
      vertex -0.553212970206877 -0.40193275123742 -0.729661199287532
      vertex -0.553212973596086 0.401932752657411 -0.729661200486023
      vertex -0.683808836544361 8.06807800602282e-10 -0.729661199094628
    endloop
  endfacet
  facet normal -2.3643168021215632e-15 7.682130971579329e-16 -1
    outer loop
      vertex 0.211308552199649 -0.290841271569127 0.79320346720187
      vertex -2.78807431997327e-10 0.359499581709934 0.793203467201871
      vertex 0.341904419754766 0.111091480020927 0.79320346720187
    endloop
  endfacet
  facet normal 5.504791529322484e-10 1.7886305556524638e-10 -1
    outer loop
      vertex -0.211308552424187 -0.290841271410764 0.793203466969228
      vertex -2.78807431997327e-10 0.359499581709934 0.793203467201871
      vertex 0.211308552199649 -0.290841271569127 0.79320346720187
    endloop
  endfacet
  facet normal 7.584708702625897e-10 1.1128245004676046e-10 -1
    outer loop
      vertex -2.78807431997327e-10 0.359499581709934 0.793203467201871
      vertex -0.211308552424187 -0.290841271410764 0.793203466969228
      vertex -0.341904419976515 0.111091480090185 0.793203466914903
    endloop
  endfacet
endsolid OpenSCAD_Model
