solid OpenSCAD_Model
  facet normal 0.5257311120784852 0.7236067975847233 -0.4472135958151321
    outer loop
      vertex -0.143834635395834 -0.894447420309142 0.255368134097123
      vertex -0.485739056025514 -0.423856357054558 0.61486771656936
      vertex -0.143834635414808 -0.672264459178793 0.61486771656936
    endloop
  endfacet
  facet normal 0.5257311120784856 0.7236067975847235 -0.4472135958151318
    outer loop
      vertex -0.143834635395834 -0.894447420309142 0.255368134097123
      vertex -0.69704760880592 -0.492514668026849 0.255368134088791
      vertex -0.485739056025514 -0.423856357054558 0.61486771656936
    endloop
  endfacet
  facet normal 0.5257311120784856 0.7236067975847233 -0.44721359581513215
    outer loop
      vertex -0.69704760880592 -0.492514668026849 0.255368134088791
      vertex -0.143834635395834 -0.894447420309142 0.255368134097123
      vertex -0.485739056054969 -0.783355939813642 0.0331851732319141
    endloop
  endfacet
  facet normal -5.120502368466547e-18 0.8506508081180599 -0.5257311124977213
    outer loop
      vertex 0.278782470126251 -0.894447420294557 0.255368134120723
      vertex -0.143834635414808 -0.672264459178793 0.61486771656936
      vertex 0.278782470172968 -0.672264459178793 0.61486771656936
    endloop
  endfacet
  facet normal 1.1958523346368176e-15 0.8506508081180606 -0.5257311124977202
    outer loop
      vertex -0.143834635414808 -0.672264459178793 0.61486771656936
      vertex 0.278782470126251 -0.894447420294557 0.255368134120723
      vertex -0.143834635395834 -0.894447420309142 0.255368134097123
    endloop
  endfacet
  facet normal 4.8517852391916455e-18 0.6070619970377735 -0.7946544731847359
    outer loop
      vertex 0.0674739173900333 -0.381423187003651 0.83705067717116
      vertex 0.278782470172968 -0.672264459178793 0.61486771656936
      vertex -0.143834635414808 -0.672264459178793 0.61486771656936
    endloop
  endfacet
  facet normal 0.30901699384416514 0.4253254033812061 -0.8506508089422649
    outer loop
      vertex -0.143834635414808 -0.672264459178793 0.61486771656936
      vertex -0.274430503158039 -0.133015085033569 0.837050677116835
      vertex 0.0674739173900333 -0.381423187003651 0.83705067717116
    endloop
  endfacet
  facet normal 0.3090169938441612 0.4253254033812057 -0.8506508089422664
    outer loop
      vertex -0.274430503158039 -0.133015085033569 0.837050677116835
      vertex -0.143834635414808 -0.672264459178793 0.61486771656936
      vertex -0.485739056025514 -0.423856357054558 0.61486771656936
    endloop
  endfacet
  facet normal 0.8090169945926227 0.26286555655226945 -0.5257311115378145
    outer loop
      vertex -0.485739056025514 -0.423856357054558 0.61486771656936
      vertex -0.82764347645118 -0.0905819156238766 0.255368134042204
      vertex -0.61633492401371 -0.0219236047693933 0.61486771656936
    endloop
  endfacet
  facet normal 0.809016994442183 0.2628655556751383 -0.5257311122078832
    outer loop
      vertex -0.82764347645118 -0.0905819156238766 0.255368134042204
      vertex -0.485739056025514 -0.423856357054558 0.61486771656936
      vertex -0.69704760880592 -0.492514668026849 0.255368134088791
    endloop
  endfacet
  facet normal 0.577350268153277 0.18759247404949025 -0.7946544730531191
    outer loop
      vertex -0.61633492401371 -0.0219236047693933 0.61486771656936
      vertex -0.274430503158039 -0.133015085033569 0.837050677116835
      vertex -0.485739056025514 -0.423856357054558 0.61486771656936
    endloop
  endfacet
  facet normal 0.8506508084583929 -0.27639320383341687 -0.4472135943190699
    outer loop
      vertex -0.485739056600958 0.380009147504042 0.61486771656936
      vertex -0.827643476407862 0.268917667232534 0.0331851731988105
      vertex -0.616334923556637 0.559758938552881 0.255368134074908
    endloop
  endfacet
  facet normal 0.850650808834405 -0.27639320164063796 -0.4472135949590643
    outer loop
      vertex -0.82764347645118 -0.0905819156238766 0.255368134042204
      vertex -0.485739056600958 0.380009147504042 0.61486771656936
      vertex -0.61633492401371 -0.0219236047693933 0.61486771656936
    endloop
  endfacet
  facet normal 0.8506508088344512 -0.27639320164082887 -0.44721359495885843
    outer loop
      vertex -0.485739056600958 0.380009147504042 0.61486771656936
      vertex -0.82764347645118 -0.0905819156238766 0.255368134042204
      vertex -0.827643476407862 0.268917667232534 0.0331851731988105
    endloop
  endfacet
  facet normal 0.5000000002070601 -0.162459846858723 -0.8506508084705382
    outer loop
      vertex -0.274430503158039 -0.133015085033569 0.837050677116835
      vertex -0.485739056600958 0.380009147504042 0.61486771656936
      vertex -0.143834636053435 0.268917666952947 0.837050677403802
    endloop
  endfacet
  facet normal 0.4999999992769817 -0.16245984743122044 -0.8506508089078871
    outer loop
      vertex -0.485739056600958 0.380009147504042 0.61486771656936
      vertex -0.274430503158039 -0.133015085033569 0.837050677116835
      vertex -0.61633492401371 -0.0219236047693933 0.61486771656936
    endloop
  endfacet
  facet normal 0.5000000002496743 -0.688190960868048 -0.525731111053777
    outer loop
      vertex -0.274430503058792 0.808167040478327 0.255368134042204
      vertex -0.485739056600958 0.380009147504042 0.61486771656936
      vertex -0.616334923556637 0.559758938552881 0.255368134074908
    endloop
  endfacet
  facet normal 0.5000000009223249 -0.6881909607703061 -0.5257311105419938
    outer loop
      vertex -0.485739056600958 0.380009147504042 0.61486771656936
      vertex -0.274430503058792 0.808167040478327 0.255368134042204
      vertex -0.143834636345897 0.628417249597576 0.61486771656936
    endloop
  endfacet
  facet normal 0.3568220897884635 -0.4911234726852315 -0.7946544725958526
    outer loop
      vertex -0.143834636345897 0.628417249597576 0.61486771656936
      vertex -0.143834636053435 0.268917666952947 0.837050677403802
      vertex -0.485739056600958 0.380009147504042 0.61486771656936
    endloop
  endfacet
  facet normal 3.4020127179534733e-10 -0.894427191331468 -0.44721359483685386
    outer loop
      vertex 0.0674739175250701 0.919258520873615 0.033185173099918
      vertex -0.143834636345897 0.628417249597576 0.61486771656936
      vertex -0.274430503058792 0.808167040478327 0.255368134042204
    endloop
  endfacet
  facet normal 8.458836936615898e-15 -0.894427191282035 -0.4472135949357196
    outer loop
      vertex -0.143834636345897 0.628417249597576 0.61486771656936
      vertex 0.0674739175250701 0.919258520873615 0.033185173099918
      vertex 0.278782469125086 0.62841724959758 0.61486771656936
    endloop
  endfacet
  facet normal -5.504857410945553e-10 -0.8944271913620265 -0.44721359477573663
    outer loop
      vertex 0.278782469125086 0.62841724959758 0.61486771656936
      vertex 0.0674739175250701 0.919258520873615 0.033185173099918
      vertex 0.409378338020162 0.808167040400569 0.255368134074908
    endloop
  endfacet
  facet normal 1.6023093371757216e-11 -0.5257311118222673 -0.8506508085355133
    outer loop
      vertex -0.143834636053435 0.268917666952947 0.837050677403802
      vertex 0.278782469125086 0.62841724959758 0.61486771656936
      vertex 0.278782469361874 0.268917666965829 0.837050677403801
    endloop
  endfacet
  facet normal 4.971979598385004e-15 -0.5257311118086415 -0.8506508085439346
    outer loop
      vertex 0.278782469125086 0.62841724959758 0.61486771656936
      vertex -0.143834636053435 0.268917666952947 0.837050677403802
      vertex -0.143834636345897 0.628417249597576 0.61486771656936
    endloop
  endfacet
  facet normal -0.49999999978933124 -0.6881909599716033 -0.5257311126650505
    outer loop
      vertex 0.409378338020162 0.808167040400569 0.255368134074908
      vertex 0.620686889758095 0.380009147504042 0.61486771656936
      vertex 0.278782469125086 0.62841724959758 0.61486771656936
    endloop
  endfacet
  facet normal -0.49999999996203914 -0.6881909599465073 -0.5257311125336465
    outer loop
      vertex 0.620686889758095 0.380009147504042 0.61486771656936
      vertex 0.409378338020162 0.808167040400569 0.255368134074908
      vertex 0.751282758451542 0.559758938383644 0.255368134042204
    endloop
  endfacet
  facet normal -0.3568220896933296 -0.49112347309718074 -0.7946544723839714
    outer loop
      vertex 0.620686889758095 0.380009147504042 0.61486771656936
      vertex 0.278782469361874 0.268917666965829 0.837050677403801
      vertex 0.278782469125086 0.62841724959758 0.61486771656936
    endloop
  endfacet
  facet normal -0.8506508081317798 -0.27639320097015974 -0.44721359670991534
    outer loop
      vertex 0.962591311209136 0.26891766661725 0.033185173099918
      vertex 0.620686889758095 0.380009147504042 0.61486771656936
      vertex 0.751282758451542 0.559758938383644 0.255368134042204
    endloop
  endfacet
  facet normal -0.85065080782748 -0.27639320274436363 -0.4472135961922097
    outer loop
      vertex 0.962591311198186 -0.0905819158411695 0.255368134074908
      vertex 0.620686889758095 0.380009147504042 0.61486771656936
      vertex 0.962591311209136 0.26891766661725 0.033185173099918
    endloop
  endfacet
  facet normal -0.8506508077915621 -0.2763932025960529 -0.44721359635219093
    outer loop
      vertex 0.620686889758095 0.380009147504042 0.61486771656936
      vertex 0.962591311198186 -0.0905819158411695 0.255368134074908
      vertex 0.751282757782383 -0.0219236047693933 0.61486771656936
    endloop
  endfacet
  facet normal -0.4999999998881955 -0.1624598483905598 -0.8506508083654072
    outer loop
      vertex 0.409378337381203 -0.133015085250684 0.837050677403801
      vertex 0.620686889758095 0.380009147504042 0.61486771656936
      vertex 0.751282757782383 -0.0219236047693933 0.61486771656936
    endloop
  endfacet
  facet normal -0.49999999987029037 -0.16245984840158104 -0.8506508083738267
    outer loop
      vertex 0.620686889758095 0.380009147504042 0.61486771656936
      vertex 0.409378337381203 -0.133015085250684 0.837050677403801
      vertex 0.278782469361874 0.268917666965829 0.837050677403801
    endloop
  endfacet
  facet normal -0.8090169939300474 0.26286555510607085 -0.5257311132805121
    outer loop
      vertex 0.962591311198186 -0.0905819158411695 0.255368134074908
      vertex 0.620686890405726 -0.423856357054556 0.61486771656936
      vertex 0.751282757782383 -0.0219236047693933 0.61486771656936
    endloop
  endfacet
  facet normal -0.8090169940977321 0.2628655560837471 -0.525731112533634
    outer loop
      vertex 0.620686890405726 -0.423856357054556 0.61486771656936
      vertex 0.962591311198186 -0.0905819158411695 0.255368134074908
      vertex 0.831995443454123 -0.492514667910899 0.255368134042204
    endloop
  endfacet
  facet normal -0.5773502691437368 0.18759247349287497 -0.7946544724649071
    outer loop
      vertex 0.620686890405726 -0.423856357054556 0.61486771656936
      vertex 0.409378337381203 -0.133015085250684 0.837050677403801
      vertex 0.751282757782383 -0.0219236047693933 0.61486771656936
    endloop
  endfacet
  facet normal -0.5257311122114102 0.7236067973995585 -0.44721359595847276
    outer loop
      vertex 0.278782470126251 -0.894447420294557 0.255368134120723
      vertex 0.620686890405726 -0.423856357054556 0.61486771656936
      vertex 0.831995443454123 -0.492514667910899 0.255368134042204
    endloop
  endfacet
  facet normal -0.5257311125085536 0.7236067973767666 -0.44721359564603774
    outer loop
      vertex 0.620686890405726 -0.423856357054556 0.61486771656936
      vertex 0.278782470126251 -0.894447420294557 0.255368134120723
      vertex 0.278782470172968 -0.672264459178793 0.61486771656936
    endloop
  endfacet
  facet normal -0.525731112496242 0.723606797791596 -0.44721359498930285
    outer loop
      vertex 0.278782470126251 -0.894447420294557 0.255368134120723
      vertex 0.831995443454123 -0.492514667910899 0.255368134042204
      vertex 0.620686890602442 -0.783355939608937 0.033185173099918
    endloop
  endfacet
  facet normal -0.3090169944083812 0.4253254036876215 -0.8506508085840937
    outer loop
      vertex 0.278782470172968 -0.672264459178793 0.61486771656936
      vertex 0.409378337381203 -0.133015085250684 0.837050677403801
      vertex 0.620686890405726 -0.423856357054556 0.61486771656936
    endloop
  endfacet
  facet normal -0.30901699353753936 0.4253254036208252 -0.8506508089338436
    outer loop
      vertex 0.409378337381203 -0.133015085250684 0.837050677403801
      vertex 0.278782470172968 -0.672264459178793 0.61486771656936
      vertex 0.0674739173900333 -0.381423187003651 0.83705067717116
    endloop
  endfacet
  facet normal 0.3090169937833136 0.9510565164873871 9.819176133378272e-10
    outer loop
      vertex 0.0674739172741602 -0.963105730537598 -0.104131448542305
      vertex -0.485739056054969 -0.783355939813642 0.0331851732319141
      vertex -0.143834635395834 -0.894447420309142 0.255368134097123
    endloop
  endfacet
  facet normal 0.3090169935856654 0.9510565165516068 1.0157961828965127e-10
    outer loop
      vertex -0.485739056054969 -0.783355939813642 0.0331851732319141
      vertex 0.0674739172741602 -0.963105730537598 -0.104131448542305
      vertex -0.274430503347971 -0.852014250338339 -0.326314409084075
    endloop
  endfacet
  facet normal -2.34228266668791e-11 0.9822469466688158 -0.18759247255630668
    outer loop
      vertex 0.278782470126251 -0.894447420294557 0.255368134120723
      vertex 0.0674739172741602 -0.963105730537598 -0.104131448542305
      vertex -0.143834635395834 -0.894447420309142 0.255368134097123
    endloop
  endfacet
  facet normal 0.9472135956493404 0.3077683533513241 -0.08980559499531483
    outer loop
      vertex -0.69704760880592 -0.492514668026849 0.255368134088791
      vertex -0.863739286490611 -0.102310154947331 -0.165541308421675
      vertex -0.82764347645118 -0.0905819156238766 0.255368134042204
    endloop
  endfacet
  facet normal 0.9472135955005829 0.3077683540024891 -0.08980559433273963
    outer loop
      vertex -0.863739286490611 -0.102310154947331 -0.165541308421675
      vertex -0.69704760880592 -0.492514668026849 0.255368134088791
      vertex -0.733143418707933 -0.504242906870689 -0.165541308412694
    endloop
  endfacet
  facet normal 0.7745966700738007 0.6268666618124857 -0.0838939033461315
    outer loop
      vertex -0.485739056054969 -0.783355939813642 0.0331851732319141
      vertex -0.733143418707933 -0.504242906870689 -0.165541308412694
      vertex -0.69704760880592 -0.492514668026849 0.255368134088791
    endloop
  endfacet
  facet normal 0.9951248486615515 -0.05184928464719547 -0.08389390477202961
    outer loop
      vertex -0.863739286490611 -0.102310154947331 -0.165541308421675
      vertex -0.827643476407862 0.268917667232534 0.0331851731988105
      vertex -0.82764347645118 -0.0905819156238766 0.255368134042204
    endloop
  endfacet
  facet normal 0.5773502688915878 -0.794654472159821 -0.18759247556127465
    outer loop
      vertex -0.48573905628624 0.739508730062169 -0.104131448230722
      vertex -0.274430503058792 0.808167040478327 0.255368134042204
      vertex -0.616334923556637 0.559758938552881 0.255368134074908
    endloop
  endfacet
  facet normal 0.8090169944427096 -0.5877852521992066 -1.4167084156750255e-9
    outer loop
      vertex -0.827643476407862 0.268917667232534 0.0331851731988105
      vertex -0.48573905628624 0.739508730062169 -0.104131448230722
      vertex -0.616334923556637 0.559758938552881 0.255368134074908
    endloop
  endfacet
  facet normal 0.8090169945792448 -0.587785252011282 -4.327215251487959e-10
    outer loop
      vertex -0.48573905628624 0.739508730062169 -0.104131448230722
      vertex -0.827643476407862 0.268917667232534 0.0331851731988105
      vertex -0.697047608692506 0.448667458840237 -0.326314409124988
    endloop
  endfacet
  facet normal 0.3090169936527921 -0.9510565165297962 -8.797070531468694e-10
    outer loop
      vertex -0.48573905628624 0.739508730062169 -0.104131448230722
      vertex 0.0674739175250701 0.919258520873615 0.033185173099918
      vertex -0.274430503058792 0.808167040478327 0.255368134042204
    endloop
  endfacet
  facet normal 0.3090169930409023 -0.951056516728611 1.8456899288146164e-9
    outer loop
      vertex 0.0674739175250701 0.919258520873615 0.033185173099918
      vertex -0.48573905628624 0.739508730062169 -0.104131448230722
      vertex -0.14383463518624 0.850600209745264 -0.326314409240976
    endloop
  endfacet
  facet normal -0.5773502691276925 -0.7946544719882785 -0.1875924755612853
    outer loop
      vertex 0.620686890921919 0.73950873015116 -0.104131448230722
      vertex 0.751282758451542 0.559758938383644 0.255368134042204
      vertex 0.409378338020162 0.808167040400569 0.255368134074908
    endloop
  endfacet
  facet normal -0.3090169937783178 -0.9510565164890102 -1.1224574724857288e-9
    outer loop
      vertex 0.0674739175250701 0.919258520873615 0.033185173099918
      vertex 0.620686890921919 0.73950873015116 -0.104131448230722
      vertex 0.409378338020162 0.808167040400569 0.255368134074908
    endloop
  endfacet
  facet normal -0.3090169937783176 -0.9510565164890105 -1.1224562305908088e-9
    outer loop
      vertex 0.620686890921919 0.73950873015116 -0.104131448230722
      vertex 0.0674739175250701 0.919258520873615 0.033185173099918
      vertex 0.278782470422105 0.85060021062574 -0.326314409343553
    endloop
  endfacet
  facet normal -0.8090169950602742 -0.5877852513492016 9.949415560581934e-10
    outer loop
      vertex 0.962591311209136 0.26891766661725 0.033185173099918
      vertex 0.620686890921919 0.73950873015116 -0.104131448230722
      vertex 0.831995443386517 0.448667457808751 -0.326314409391998
    endloop
  endfacet
  facet normal -0.8090169948001522 -0.587785251707229 -8.797145471351611e-10
    outer loop
      vertex 0.620686890921919 0.73950873015116 -0.104131448230722
      vertex 0.962591311209136 0.26891766661725 0.033185173099918
      vertex 0.751282758451542 0.559758938383644 0.255368134042204
    endloop
  endfacet
  facet normal -0.8506508081628025 0.2763932024966234 0.44721359570750024
    outer loop
      vertex 0.409378337507071 0.0891678752316824 -0.907996952659851
      vertex 0.831995443386517 0.448667457808751 -0.326314409391998
      vertex 0.620686890416059 0.380009146973573 -0.6858139918945
    endloop
  endfacet
  facet normal -0.8506508081628024 0.2763932024966313 0.4472135957074953
    outer loop
      vertex 0.831995443386517 0.448667457808751 -0.326314409391998
      vertex 0.409378337507071 0.0891678752316824 -0.907996952659851
      vertex 0.962591311209136 0.26891766661725 0.033185173099918
    endloop
  endfacet
  facet normal -0.8506508081628055 0.2763932024966138 0.4472135957075004
    outer loop
      vertex 0.278782469709778 -0.312764876914588 -0.907996952504455
      vertex 0.962591311209136 0.26891766661725 0.033185173099918
      vertex 0.409378337507071 0.0891678752316824 -0.907996952659851
    endloop
  endfacet
  facet normal -0.8506508081628055 0.2763932024966161 0.447213595707499
    outer loop
      vertex 0.962591311209136 0.26891766661725 0.033185173099918
      vertex 0.278782469709778 -0.312764876914588 -0.907996952504455
      vertex 0.962591311198186 -0.0905819158411695 0.255368134074908
    endloop
  endfacet
  facet normal -0.8506508079970473 0.27639320346306084 0.4472135954254942
    outer loop
      vertex 0.278782469703536 -0.672264457746724 -0.685813991608612
      vertex 0.962591311198186 -0.0905819158411695 0.255368134074908
      vertex 0.278782469709778 -0.312764876914588 -0.907996952504455
    endloop
  endfacet
  facet normal -0.8506508079970474 0.27639320217344276 0.4472135962225221
    outer loop
      vertex 0.962591311198186 -0.0905819158411695 0.255368134074908
      vertex 0.278782469703536 -0.672264457746724 -0.685813991608612
      vertex 0.831995443454123 -0.492514667910899 0.255368134042204
    endloop
  endfacet
  facet normal -0.8506508080718216 0.27639320173747417 0.447213596349736
    outer loop
      vertex 0.409378337661973 -0.852014249415908 -0.326314409411104
      vertex 0.831995443454123 -0.492514667910899 0.255368134042204
      vertex 0.278782469703536 -0.672264457746724 -0.685813991608612
    endloop
  endfacet
  facet normal -0.8506508080718218 0.27639320136696494 0.44721359657872334
    outer loop
      vertex 0.831995443454123 -0.492514667910899 0.255368134042204
      vertex 0.409378337661973 -0.852014249415908 -0.326314409411104
      vertex 0.620686890602442 -0.783355939608937 0.033185173099918
    endloop
  endfacet
  facet normal -0.30901699418750556 0.9510565163560571 1.3625186040797124e-9
    outer loop
      vertex 0.620686890602442 -0.783355939608937 0.033185173099918
      vertex 0.0674739172741602 -0.963105730537598 -0.104131448542305
      vertex 0.278782470126251 -0.894447420294557 0.255368134120723
    endloop
  endfacet
  facet normal -0.3090169945107228 0.9510565162510376 2.8021490548850276e-9
    outer loop
      vertex 0.0674739172741602 -0.963105730537598 -0.104131448542305
      vertex 0.620686890602442 -0.783355939608937 0.033185173099918
      vertex 0.409378337661973 -0.852014249415908 -0.326314409411104
    endloop
  endfacet
  facet normal -7.084553935240886e-10 0.8944271903292844 0.447213596841221
    outer loop
      vertex 0.278782469703536 -0.672264457746724 -0.685813991608612
      vertex 0.0674739172741602 -0.963105730537598 -0.104131448542305
      vertex 0.409378337661973 -0.852014249415908 -0.326314409411104
    endloop
  endfacet
  facet normal -1.7896136895341285e-9 0.8944271904863859 0.44721359652701814
    outer loop
      vertex -0.143834635648759 -0.672264458697931 -0.685813991397384
      vertex 0.0674739172741602 -0.963105730537598 -0.104131448542305
      vertex 0.278782469703536 -0.672264457746724 -0.685813991608612
    endloop
  endfacet
  facet normal -7.843426982449877e-10 0.8944271906324602 0.4472135962348692
    outer loop
      vertex 0.0674739172741602 -0.963105730537598 -0.104131448542305
      vertex -0.143834635648759 -0.672264458697931 -0.685813991397384
      vertex -0.274430503347971 -0.852014250338339 -0.326314409084075
    endloop
  endfacet
  facet normal 0.6381966020078005 0.7330937567295739 0.2351141021500356
    outer loop
      vertex -0.274430503347971 -0.852014250338339 -0.326314409084075
      vertex -0.733143418707933 -0.504242906870689 -0.165541308412694
      vertex -0.485739056054969 -0.783355939813642 0.0331851732319141
    endloop
  endfacet
  facet normal 0.6381966020078008 0.733093756729572 0.23511410215004053
    outer loop
      vertex -0.733143418707933 -0.504242906870689 -0.165541308412694
      vertex -0.274430503347971 -0.852014250338339 -0.326314409084075
      vertex -0.521834866011082 -0.572901217440678 -0.525040890559911
    endloop
  endfacet
  facet normal 0.9472135955484294 -0.21796275831295833 0.23511410080389283
    outer loop
      vertex -0.863739286490611 -0.102310154947331 -0.165541308421675
      vertex -0.697047608692506 0.448667458840237 -0.326314409124988
      vertex -0.827643476407862 0.268917667232534 0.0331851731988105
    endloop
  endfacet
  facet normal 0.9472135955448514 -0.2179627583057084 0.23511410082502912
    outer loop
      vertex -0.697047608692506 0.448667458840237 -0.326314409124988
      vertex -0.863739286490611 -0.102310154947331 -0.165541308421675
      vertex -0.733143418786988 0.0774396366255993 -0.525040890701678
    endloop
  endfacet
  facet normal 2.09193510930711e-9 -0.9822469464161642 0.18759247387920708
    outer loop
      vertex -0.14383463518624 0.850600209745264 -0.326314409240976
      vertex 0.278782470422105 0.85060021062574 -0.326314409343553
      vertex 0.0674739175250701 0.919258520873615 0.033185173099918
    endloop
  endfacet
  facet normal 0.4177745806156265 0.7428051864320537 0.5231680942116781
    outer loop
      vertex -0.143834635648759 -0.672264458697931 -0.685813991397384
      vertex -0.521834866011082 -0.572901217440678 -0.525040890559911
      vertex -0.274430503347971 -0.852014250338339 -0.326314409084075
    endloop
  endfacet
  facet normal 1.9420059244511276e-9 0.5257311138317534 0.8506508072935828
    outer loop
      vertex -0.143834635625389 -0.312764875824546 -0.907996952213318
      vertex 0.278782469703536 -0.672264457746724 -0.685813991608612
      vertex 0.278782469709778 -0.312764876914588 -0.907996952504455
    endloop
  endfacet
  facet normal -7.58127893032122e-10 0.5257311115348824 0.850650808713127
    outer loop
      vertex 0.278782469703536 -0.672264457746724 -0.685813991608612
      vertex -0.143834635625389 -0.312764875824546 -0.907996952213318
      vertex -0.143834635648759 -0.672264458697931 -0.685813991397384
    endloop
  endfacet
  facet normal 0.4472135953946472 0.47022820202570315 0.7608452129795304
    outer loop
      vertex -0.521834866011082 -0.572901217440678 -0.525040890559911
      vertex -0.143834635625389 -0.312764875824546 -0.907996952213318
      vertex -0.521834866124361 -0.213401635051145 -0.747223851458568
    endloop
  endfacet
  facet normal 0.4472135961387136 0.4702282011224647 0.7608452131004114
    outer loop
      vertex -0.143834635625389 -0.312764875824546 -0.907996952213318
      vertex -0.521834866011082 -0.572901217440678 -0.525040890559911
      vertex -0.143834635648759 -0.672264458697931 -0.685813991397384
    endloop
  endfacet
  facet normal 4.171329085147494e-9 -9.687250175213086e-10 1
    outer loop
      vertex 0.0674739158646823 0.337575979353753 -0.907996950993016
      vertex 0.278782469709778 -0.312764876914588 -0.907996952504455
      vertex 0.409378337507071 0.0891678752316824 -0.907996952659851
    endloop
  endfacet
  facet normal 6.888907179324539e-10 -2.1002378359736294e-9 1
    outer loop
      vertex 0.0674739158646823 0.337575979353753 -0.907996950993016
      vertex -0.143834635625389 -0.312764875824546 -0.907996952213318
      vertex 0.278782469709778 -0.312764876914588 -0.907996952504455
    endloop
  endfacet
  facet normal -2.935901058895152e-9 -9.224716019815045e-10 1
    outer loop
      vertex -0.143834635625389 -0.312764875824546 -0.907996952213318
      vertex 0.0674739158646823 0.337575979353753 -0.907996950993016
      vertex -0.274430503286789 0.0891678765731789 -0.907996952225963
    endloop
  endfacet
  facet normal 0.4177745793153964 0.1357431892734678 0.8983530416510599
    outer loop
      vertex -0.274430503286789 0.0891678765731789 -0.907996952225963
      vertex -0.521834866124361 -0.213401635051145 -0.747223851458568
      vertex -0.143834635625389 -0.312764875824546 -0.907996952213318
    endloop
  endfacet
  facet normal 0.3090169945375261 -0.42532540561859605 0.8506508075716919
    outer loop
      vertex -0.143834637198377 0.628417250425166 -0.685813989554085
      vertex -0.274430503286789 0.0891678765731789 -0.907996952225963
      vertex 0.0674739158646823 0.337575979353753 -0.907996950993016
    endloop
  endfacet
  facet normal 0.3090169923602084 -0.425325405451589 0.8506508084461523
    outer loop
      vertex -0.274430503286789 0.0891678765731789 -0.907996952225963
      vertex -0.143834637198377 0.628417250425166 -0.685813989554085
      vertex -0.485739055979343 0.380009148279599 -0.685813991430488
    endloop
  endfacet
  facet normal 0.63819660105489 -0.11755705044889127 0.7608452130964236
    outer loop
      vertex -0.733143418786988 0.0774396366255993 -0.525040890701678
      vertex -0.274430503286789 0.0891678765731789 -0.907996952225963
      vertex -0.485739055979343 0.380009148279599 -0.685813991430488
    endloop
  endfacet
  facet normal 0.6381966010562582 -0.11755705042640063 0.7608452130987511
    outer loop
      vertex -0.274430503286789 0.0891678765731789 -0.907996952225963
      vertex -0.733143418786988 0.0774396366255993 -0.525040890701678
      vertex -0.521834866124361 -0.213401635051145 -0.747223851458568
    endloop
  endfacet
  facet normal 0.5257311106264232 -0.7236067980716681 0.4472135967342404
    outer loop
      vertex -0.697047608692506 0.448667458840237 -0.326314409124988
      vertex -0.14383463518624 0.850600209745264 -0.326314409240976
      vertex -0.48573905628624 0.739508730062169 -0.104131448230722
    endloop
  endfacet
  facet normal 0.5257311111880509 -0.7236067988446823 0.447213594823244
    outer loop
      vertex -0.485739055979343 0.380009148279599 -0.685813991430488
      vertex -0.14383463518624 0.850600209745264 -0.326314409240976
      vertex -0.697047608692506 0.448667458840237 -0.326314409124988
    endloop
  endfacet
  facet normal 0.5257311132815398 -0.723606798684105 0.4472135926220197
    outer loop
      vertex -0.14383463518624 0.850600209745264 -0.326314409240976
      vertex -0.485739055979343 0.380009148279599 -0.685813991430488
      vertex -0.143834637198377 0.628417250425166 -0.685813989554085
    endloop
  endfacet
  facet normal 0.7745966693657201 -0.3553802835821313 0.5231680933013949
    outer loop
      vertex -0.697047608692506 0.448667458840237 -0.326314409124988
      vertex -0.733143418786988 0.0774396366255993 -0.525040890701678
      vertex -0.485739055979343 0.380009148279599 -0.685813991430488
    endloop
  endfacet
  facet normal -0.30901699442942504 -0.42532540368052546 0.850650808579997
    outer loop
      vertex 0.278782469884067 0.628417249151229 -0.685813991987024
      vertex 0.409378337507071 0.0891678752316824 -0.907996952659851
      vertex 0.620686890416059 0.380009146973573 -0.6858139918945
    endloop
  endfacet
  facet normal -0.30901699129261123 -0.42532540343992203 0.8506508098398132
    outer loop
      vertex 0.409378337507071 0.0891678752316824 -0.907996952659851
      vertex 0.278782469884067 0.628417249151229 -0.685813991987024
      vertex 0.0674739158646823 0.337575979353753 -0.907996950993016
    endloop
  endfacet
  facet normal -0.5257311126579569 -0.7236067968999029 0.4472135962419851
    outer loop
      vertex 0.278782470422105 0.85060021062574 -0.326314409343553
      vertex 0.831995443386517 0.448667457808751 -0.326314409391998
      vertex 0.620686890921919 0.73950873015116 -0.104131448230722
    endloop
  endfacet
  facet normal -0.5257311120311436 -0.7236067970307863 0.4472135967670745
    outer loop
      vertex 0.620686890416059 0.380009146973573 -0.6858139918945
      vertex 0.278782470422105 0.85060021062574 -0.326314409343553
      vertex 0.278782469884067 0.628417249151229 -0.685813991987024
    endloop
  endfacet
  facet normal -0.5257311127149426 -0.7236067969783367 0.4472135960480858
    outer loop
      vertex 0.278782470422105 0.85060021062574 -0.326314409343553
      vertex 0.620686890416059 0.380009146973573 -0.6858139918945
      vertex 0.831995443386517 0.448667457808751 -0.326314409391998
    endloop
  endfacet
  facet normal 2.7447706780623716e-9 -0.607061998677615 0.7946544719320084
    outer loop
      vertex 0.278782469884067 0.628417249151229 -0.685813991987024
      vertex -0.143834637198377 0.628417250425166 -0.685813989554085
      vertex 0.0674739158646823 0.337575979353753 -0.907996950993016
    endloop
  endfacet
  facet normal 1.89984161472823e-9 -0.8506508086215911 0.5257311116829906
    outer loop
      vertex -0.143834637198377 0.628417250425166 -0.685813989554085
      vertex 0.278782470422105 0.85060021062574 -0.326314409343553
      vertex -0.14383463518624 0.850600209745264 -0.326314409240976
    endloop
  endfacet
  facet normal 4.623478195590267e-10 -0.8506508078658559 0.5257311129057959
    outer loop
      vertex 0.278782470422105 0.85060021062574 -0.326314409343553
      vertex -0.143834637198377 0.628417250425166 -0.685813989554085
      vertex 0.278782469884067 0.628417249151229 -0.685813991987024
    endloop
  endfacet
  facet normal 5.504770506077495e-10 1.7886083642696885e-10 -1
    outer loop
      vertex 0.0674739173900333 -0.381423187003651 0.83705067717116
      vertex 0.278782469361874 0.268917666965829 0.837050677403801
      vertex 0.409378337381203 -0.133015085250684 0.837050677403801
    endloop
  endfacet
  facet normal -2.364327703584624e-15 3.577224400773148e-10 -1
    outer loop
      vertex 0.0674739173900333 -0.381423187003651 0.83705067717116
      vertex -0.143834636053435 0.268917666952947 0.837050677403802
      vertex 0.278782469361874 0.268917666965829 0.837050677403801
    endloop
  endfacet
  facet normal 5.482039162735454e-10 5.358454588569484e-10 -1
    outer loop
      vertex -0.143834636053435 0.268917666952947 0.837050677403802
      vertex 0.0674739173900333 -0.381423187003651 0.83705067717116
      vertex -0.274430503158039 -0.133015085033569 0.837050677116835
    endloop
  endfacet
  facet normal 0.8506508083215062 0.27639320192882527 0.4472135957565466
    outer loop
      vertex -0.863739286490611 -0.102310154947331 -0.165541308421675
      vertex -0.521834866124361 -0.213401635051145 -0.747223851458568
      vertex -0.733143418786988 0.0774396366255993 -0.525040890701678
    endloop
  endfacet
  facet normal 0.8506508081699844 0.2763932024583936 0.4472135957174669
    outer loop
      vertex -0.521834866011082 -0.572901217440678 -0.525040890559911
      vertex -0.863739286490611 -0.102310154947331 -0.165541308421675
      vertex -0.733143418707933 -0.504242906870689 -0.165541308412694
    endloop
  endfacet
  facet normal 0.850650808205515 0.276393202605105 0.44721359555921086
    outer loop
      vertex -0.863739286490611 -0.102310154947331 -0.165541308421675
      vertex -0.521834866011082 -0.572901217440678 -0.525040890559911
      vertex -0.521834866124361 -0.213401635051145 -0.747223851458568
    endloop
  endfacet
endsolid OpenSCAD_Model
