solid OpenSCAD_Model
  facet normal 0.525731112078486 0.723606797584723 -0.4472135958151317
    outer loop
      vertex -0.143834635556447 -0.894447420372426 0.255368134130056
      vertex -0.48573905623022 -0.423856357057152 0.614867716648656
      vertex -0.143834635575421 -0.672264459213423 0.614867716648656
    endloop
  endfacet
  facet normal 0.5257311120784859 0.723606797584723 -0.44721359581513187
    outer loop
      vertex -0.143834635556447 -0.894447420372426 0.255368134130056
      vertex -0.697047609037877 -0.492514668038298 0.255368134121724
      vertex -0.48573905623022 -0.423856357057152 0.614867716648656
    endloop
  endfacet
  facet normal 0.5257311120784851 0.7236067975847218 -0.44721359581513487
    outer loop
      vertex -0.697047609037877 -0.492514668038298 0.255368134121724
      vertex -0.143834635556447 -0.894447420372426 0.255368134130056
      vertex -0.485739056259675 -0.7833559398626 0.033185173236194
    endloop
  endfacet
  facet normal 3.123769318593456e-17 0.8506508081180599 -0.5257311124977211
    outer loop
      vertex 0.278782470020141 -0.894447420357841 0.255368134153656
      vertex -0.143834635575421 -0.672264459213423 0.614867716648656
      vertex 0.278782470066857 -0.672264459213423 0.614867716648656
    endloop
  endfacet
  facet normal 1.2322143160637799e-15 0.8506508081180606 -0.52573111249772
    outer loop
      vertex -0.143834635575421 -0.672264459213423 0.614867716648656
      vertex 0.278782470020141 -0.894447420357841 0.255368134153656
      vertex -0.143834635556447 -0.894447420372426 0.255368134130056
    endloop
  endfacet
  facet normal 0 0.5257311119137719 -0.8506508084789605
    outer loop
      vertex -0.143834635575421 -0.672264459213423 0.614867716648656
      vertex 0.278782470047878 -0.312764876621784 0.837050677511749
      vertex 0.278782470066857 -0.672264459213423 0.614867716648656
    endloop
  endfacet
  facet normal 6.652668384582101e-10 0.5257311113478621 -0.8506508088287119
    outer loop
      vertex 0.278782470047878 -0.312764876621784 0.837050677511749
      vertex -0.143834635575421 -0.672264459213423 0.614867716648656
      vertex -0.143834635180726 -0.31276487646342 0.837050677279108
    endloop
  endfacet
  facet normal 0.3568220891835697 0.491123472302828 -0.7946544731038049
    outer loop
      vertex -0.48573905623022 -0.423856357057152 0.614867716648656
      vertex -0.143834635180726 -0.31276487646342 0.837050677279108
      vertex -0.143834635575421 -0.672264459213423 0.614867716648656
    endloop
  endfacet
  facet normal 0.8090169944926386 0.2628655559693148 -0.5257311119831514
    outer loop
      vertex -0.48573905623022 -0.423856357057152 0.614867716648656
      vertex -0.827643476699979 -0.0905819155834908 0.255368134075137
      vertex -0.616334923929495 -0.021923604819506 0.614867716648656
    endloop
  endfacet
  facet normal 0.8090169944421834 0.2628655556751381 -0.5257311122078824
    outer loop
      vertex -0.827643476699979 -0.0905819155834908 0.255368134075137
      vertex -0.48573905623022 -0.423856357057152 0.614867716648656
      vertex -0.697047609037877 -0.492514668038298 0.255368134121724
    endloop
  endfacet
  facet normal 0.49999999901508924 0.16245984771702177 -0.8506508090072407
    outer loop
      vertex -0.48573905623022 -0.423856357057152 0.614867716648656
      vertex -0.274430502919939 0.0891678756126983 0.837050677224783
      vertex -0.143834635180726 -0.31276487646342 0.837050677279108
    endloop
  endfacet
  facet normal 0.4999999990150871 0.16245984771702304 -0.8506508090072415
    outer loop
      vertex -0.274430502919939 0.0891678756126983 0.837050677224783
      vertex -0.48573905623022 -0.423856357057152 0.614867716648656
      vertex -0.616334923929495 -0.021923604819506 0.614867716648656
    endloop
  endfacet
  facet normal 0.8506508081984934 -0.27639320276025464 -0.447213595476679
    outer loop
      vertex -0.485739056121952 0.38000914738296 0.614867716648656
      vertex -0.827643476656661 0.268917667319282 0.0331851732030904
      vertex -0.616334923778185 0.559758938677137 0.255368134107841
    endloop
  endfacet
  facet normal 0.8506508083864419 -0.2763932023794246 -0.4472135953545457
    outer loop
      vertex -0.827643476699979 -0.0905819155834908 0.255368134075137
      vertex -0.485739056121952 0.38000914738296 0.614867716648656
      vertex -0.616334923929495 -0.021923604819506 0.614867716648656
    endloop
  endfacet
  facet normal 0.8506508083146525 -0.2763932020829957 -0.4472135956743006
    outer loop
      vertex -0.485739056121952 0.38000914738296 0.614867716648656
      vertex -0.827643476699979 -0.0905819155834908 0.255368134075137
      vertex -0.827643476656661 0.268917667319282 0.0331851732030904
    endloop
  endfacet
  facet normal 0.5773502680551719 -0.18759247379671518 -0.7946544731840688
    outer loop
      vertex -0.485739056121952 0.38000914738296 0.614867716648656
      vertex -0.274430502919939 0.0891678756126983 0.837050677224783
      vertex -0.616334923929495 -0.021923604819506 0.614867716648656
    endloop
  endfacet
  facet normal 0.4999999998879193 -0.6881909603701357 -0.5257311120496019
    outer loop
      vertex -0.274430503236246 0.808167040634619 0.255368134075137
      vertex -0.485739056121952 0.38000914738296 0.614867716648656
      vertex -0.616334923778185 0.559758938677137 0.255368134107841
    endloop
  endfacet
  facet normal 0.49999999997524347 -0.6881909603574468 -0.5257311119831616
    outer loop
      vertex -0.485739056121952 0.38000914738296 0.614867716648656
      vertex -0.274430503236246 0.808167040634619 0.255368134075137
      vertex -0.143834635517032 0.628417249409181 0.614867716648656
    endloop
  endfacet
  facet normal 0.3090169948894316 -0.4253254035652276 -0.8506508084705389
    outer loop
      vertex -0.274430502919939 0.0891678756126983 0.837050677224783
      vertex -0.143834635517032 0.628417249409181 0.614867716648656
      vertex 0.0674739172670375 0.337575977587922 0.83705067751175
    endloop
  endfacet
  facet normal 0.30901699380047654 -0.42532540348170134 -0.850650808907888
    outer loop
      vertex -0.143834635517032 0.628417249409181 0.614867716648656
      vertex -0.274430502919939 0.0891678756126983 0.837050677224783
      vertex -0.485739056121952 0.38000914738296 0.614867716648656
    endloop
  endfacet
  facet normal -8.032956398651953e-11 -0.894427191072615 -0.44721359535455946
    outer loop
      vertex 0.0674739173917088 0.919258521044234 0.0331851731041979
      vertex -0.143834635517032 0.628417249409181 0.614867716648656
      vertex -0.274430503236246 0.808167040634619 0.255368134075137
    endloop
  endfacet
  facet normal -8.03215909833529e-11 -0.8944271910726163 -0.44721359535455724
    outer loop
      vertex -0.143834635517032 0.628417249409181 0.614867716648656
      vertex 0.0674739173917088 0.919258521044234 0.0331851731041979
      vertex 0.278782470125242 0.628417249371229 0.614867716648656
    endloop
  endfacet
  facet normal -8.030316414888388e-11 -0.8944271910726137 -0.44721359535456257
    outer loop
      vertex 0.278782470125242 0.628417249371229 0.614867716648656
      vertex 0.0674739173917088 0.919258521044234 0.0331851731041979
      vertex 0.409378337930894 0.808167040556862 0.255368134107842
    endloop
  endfacet
  facet normal -5.451554468599745e-11 -0.6070619979800478 -0.7946544724649025
    outer loop
      vertex 0.278782470125242 0.628417249371229 0.614867716648656
      vertex 0.0674739172670375 0.337575977587922 0.83705067751175
      vertex -0.143834635517032 0.628417249409181 0.614867716648656
    endloop
  endfacet
  facet normal -0.5000000000746789 -0.6881909602344298 -0.525731112049624
    outer loop
      vertex 0.409378337930894 0.808167040556862 0.255368134107842
      vertex 0.620686890685556 0.380009147283611 0.614867716648656
      vertex 0.278782470125242 0.628417249371229 0.614867716648656
    endloop
  endfacet
  facet normal -0.5000000001620104 -0.6881909602217399 -0.5257311119831783
    outer loop
      vertex 0.620686890685556 0.380009147283611 0.614867716648656
      vertex 0.409378337930894 0.808167040556862 0.255368134107842
      vertex 0.751282758406368 0.5597589385079 0.255368134075137
    endloop
  endfacet
  facet normal -0.30901699429279605 -0.4253254039987074 -0.8506508084705395
    outer loop
      vertex 0.40937833778988 0.0891678755434398 0.837050677511749
      vertex 0.278782470125242 0.628417249371229 0.614867716648656
      vertex 0.620686890685556 0.380009147283611 0.614867716648656
    endloop
  endfacet
  facet normal -0.30901699427183726 -0.42532540399709984 -0.850650808478957
    outer loop
      vertex 0.278782470125242 0.628417249371229 0.614867716648656
      vertex 0.40937833778988 0.0891678755434398 0.837050677511749
      vertex 0.0674739172670375 0.337575977587922 0.83705067751175
    endloop
  endfacet
  facet normal -0.8506508084360742 -0.276393202226636 -0.44721359535456795
    outer loop
      vertex 0.962591311191213 0.268917666703998 0.0331851731041979
      vertex 0.620686890685556 0.380009147283611 0.614867716648656
      vertex 0.751282758406368 0.5597589385079 0.255368134075137
    endloop
  endfacet
  facet normal -0.8506508084360689 -0.27639320222666663 -0.44721359535455907
    outer loop
      vertex 0.962591311180263 -0.0905819158007837 0.255368134107841
      vertex 0.620686890685556 0.380009147283611 0.614867716648656
      vertex 0.962591311191213 0.268917666703998 0.0331851731041979
    endloop
  endfacet
  facet normal -0.8506508084360669 -0.27639320222665775 -0.4472135953545688
    outer loop
      vertex 0.620686890685556 0.380009147283611 0.614867716648656
      vertex 0.962591311180263 -0.0905819158007837 0.255368134107841
      vertex 0.751282758420919 -0.0219236049423101 0.614867716648656
    endloop
  endfacet
  facet normal -0.5773502689841842 -0.18759247398394052 -0.794654472464904
    outer loop
      vertex 0.751282758420919 -0.0219236049423101 0.614867716648656
      vertex 0.40937833778988 0.0891678755434398 0.837050677511749
      vertex 0.620686890685556 0.380009147283611 0.614867716648656
    endloop
  endfacet
  facet normal -0.8090169944063711 0.26286555610189694 -0.5257311120496125
    outer loop
      vertex 0.962591311180263 -0.0905819158007837 0.255368134107841
      vertex 0.620686890649469 -0.423856357156505 0.614867716648656
      vertex 0.751282758420919 -0.0219236049423101 0.614867716648656
    endloop
  endfacet
  facet normal -0.8090169944212896 0.26286555618887897 -0.5257311119831641
    outer loop
      vertex 0.620686890649469 -0.423856357156505 0.614867716648656
      vertex 0.962591311180263 -0.0905819158007837 0.255368134107841
      vertex 0.831995443419357 -0.492514667922348 0.255368134075137
    endloop
  endfacet
  facet normal -0.49999999979885595 0.16245984807094876 -0.85065080847896
    outer loop
      vertex 0.620686890649469 -0.423856357156505 0.614867716648656
      vertex 0.40937833778988 0.0891678755434398 0.837050677511749
      vertex 0.751282758420919 -0.0219236049423101 0.614867716648656
    endloop
  endfacet
  facet normal -0.49999999981676113 0.1624598480599275 -0.8506508084705404
    outer loop
      vertex 0.40937833778988 0.0891678755434398 0.837050677511749
      vertex 0.620686890649469 -0.423856357156505 0.614867716648656
      vertex 0.278782470047878 -0.312764876621784 0.837050677511749
    endloop
  endfacet
  facet normal -0.5257311123635589 0.7236067976089724 -0.4472135954407724
    outer loop
      vertex 0.278782470020141 -0.894447420357841 0.255368134153656
      vertex 0.620686890649469 -0.423856357156505 0.614867716648656
      vertex 0.831995443419357 -0.492514667922348 0.255368134075137
    endloop
  endfacet
  facet normal -0.5257311120161905 0.7236067976356165 -0.4472135958060171
    outer loop
      vertex 0.620686890649469 -0.423856357156505 0.614867716648656
      vertex 0.278782470020141 -0.894447420357841 0.255368134153656
      vertex 0.278782470066857 -0.672264459213423 0.614867716648656
    endloop
  endfacet
  facet normal -0.5257311124962423 0.7236067977915955 -0.4472135949893032
    outer loop
      vertex 0.278782470020141 -0.894447420357841 0.255368134153656
      vertex 0.831995443419357 -0.492514667922348 0.255368134075137
      vertex 0.620686890540425 -0.783355939657894 0.0331851731041979
    endloop
  endfacet
  facet normal -0.35682208963105194 0.4911234730114715 -0.7946544724649072
    outer loop
      vertex 0.278782470066857 -0.672264459213423 0.614867716648656
      vertex 0.278782470047878 -0.312764876621784 0.837050677511749
      vertex 0.620686890649469 -0.423856357156505 0.614867716648656
    endloop
  endfacet
  facet normal 0.309016993783313 0.9510565164873873 9.819157433245798e-10
    outer loop
      vertex 0.0674739171407989 -0.963105730609737 -0.104131448555734
      vertex -0.485739056259675 -0.7833559398626 0.033185173236194
      vertex -0.143834635556447 -0.894447420372426 0.255368134130056
    endloop
  endfacet
  facet normal 0.30901699358566553 0.9510565165516067 1.0158157570175523e-10
    outer loop
      vertex -0.485739056259675 -0.7833559398626 0.033185173236194
      vertex 0.0674739171407989 -0.963105730609737 -0.104131448555734
      vertex -0.274430503525425 -0.852014250396151 -0.326314409126157
    endloop
  endfacet
  facet normal -2.342282666385823e-11 0.9822469466688153 -0.18759247255630873
    outer loop
      vertex 0.278782470020141 -0.894447420357841 0.255368134153656
      vertex 0.0674739171407989 -0.963105730609737 -0.104131448555734
      vertex -0.143834635556447 -0.894447420372426 0.255368134130056
    endloop
  endfacet
  facet normal 0.9472135956493403 0.3077683533513237 -0.08980559499531722
    outer loop
      vertex -0.697047609037877 -0.492514668038298 0.255368134121724
      vertex -0.863739286744066 -0.102310154908458 -0.165541308443023
      vertex -0.827643476699979 -0.0905819155834908 0.255368134075137
    endloop
  endfacet
  facet normal 0.9472135955005824 0.30776835400249064 -0.08980559433274003
    outer loop
      vertex -0.863739286744066 -0.102310154908458 -0.165541308443023
      vertex -0.697047609037877 -0.492514668038298 0.255368134121724
      vertex -0.733143418944545 -0.504242906883651 -0.165541308434043
    endloop
  endfacet
  facet normal 0.7745966700738016 0.6268666618124845 -0.08389390334613234
    outer loop
      vertex -0.485739056259675 -0.7833559398626 0.033185173236194
      vertex -0.733143418944545 -0.504242906883651 -0.165541308434043
      vertex -0.697047609037877 -0.492514668038298 0.255368134121724
    endloop
  endfacet
  facet normal 0.9951248486615512 -0.05184928464719648 -0.08389390477203183
    outer loop
      vertex -0.863739286744066 -0.102310154908458 -0.165541308443023
      vertex -0.827643476656661 0.268917667319282 0.0331851732030904
      vertex -0.827643476699979 -0.0905819155834908 0.255368134075137
    endloop
  endfacet
  facet normal 0.5773502688915872 -0.7946544721598209 -0.18759247556127684
    outer loop
      vertex -0.485739056490946 0.739508730209607 -0.104131448244151
      vertex -0.274430503236246 0.808167040634619 0.255368134075137
      vertex -0.616334923778185 0.559758938677137 0.255368134107841
    endloop
  endfacet
  facet normal 0.8090169944427101 -0.587785252199206 -1.4167093264733282e-9
    outer loop
      vertex -0.827643476656661 0.268917667319282 0.0331851732030904
      vertex -0.485739056490946 0.739508730209607 -0.104131448244151
      vertex -0.616334923778185 0.559758938677137 0.255368134107841
    endloop
  endfacet
  facet normal 0.809016994579245 -0.5877852520112817 -4.3272505748364987e-10
    outer loop
      vertex -0.485739056490946 0.739508730209607 -0.104131448244151
      vertex -0.827643476656661 0.268917667319282 0.0331851732030904
      vertex -0.697047608924464 0.448667458950167 -0.326314409167071
    endloop
  endfacet
  facet normal 0.309016993652792 -0.9510565165297961 -8.797088549759069e-10
    outer loop
      vertex -0.485739056490946 0.739508730209607 -0.104131448244151
      vertex 0.0674739173917088 0.919258521044234 0.0331851731041979
      vertex -0.274430503236246 0.808167040634619 0.255368134075137
    endloop
  endfacet
  facet normal 0.30901699304090163 -0.9510565167286114 1.845691227270872e-9
    outer loop
      vertex 0.0674739173917088 0.919258521044234 0.0331851731041979
      vertex -0.485739056490946 0.739508730209607 -0.104131448244151
      vertex -0.143834635346853 0.850600209907028 -0.326314409283058
    endloop
  endfacet
  facet normal -0.5773502691276943 -0.7946544719882778 -0.18759247556128247
    outer loop
      vertex 0.620686890859902 0.739508730298597 -0.104131448244151
      vertex 0.751282758406368 0.5597589385079 0.255368134075137
      vertex 0.409378337930894 0.808167040556862 0.255368134107842
    endloop
  endfacet
  facet normal -0.3090169937783182 -0.9510565164890101 -1.1224534065729989e-9
    outer loop
      vertex 0.0674739173917088 0.919258521044234 0.0331851731041979
      vertex 0.620686890859902 0.739508730298597 -0.104131448244151
      vertex 0.409378337930894 0.808167040556862 0.255368134107842
    endloop
  endfacet
  facet normal -0.30901699377831854 -0.95105651648901 -1.1224548653321342e-9
    outer loop
      vertex 0.620686890859902 0.739508730298597 -0.104131448244151
      vertex 0.0674739173917088 0.919258521044234 0.0331851731041979
      vertex 0.278782470315994 0.850600210787504 -0.326314409385636
    endloop
  endfacet
  facet normal -0.8090169950602737 -0.5877852513492026 9.9494142504396e-10
    outer loop
      vertex 0.962591311191213 0.268917666703998 0.0331851731041979
      vertex 0.620686890859902 0.739508730298597 -0.104131448244151
      vertex 0.831995443351751 0.448667457918681 -0.32631440943408
    endloop
  endfacet
  facet normal -0.8090169948001518 -0.5877852517072296 -8.797126199200191e-10
    outer loop
      vertex 0.620686890859902 0.739508730298597 -0.104131448244151
      vertex 0.962591311191213 0.268917666703998 0.0331851731041979
      vertex 0.751282758406368 0.5597589385079 0.255368134075137
    endloop
  endfacet
  facet normal -0.850650808162803 0.27639320249662397 0.44721359570749886
    outer loop
      vertex 0.409378337417803 0.0891678752952494 -0.90799695277695
      vertex 0.831995443351751 0.448667457918681 -0.32631440943408
      vertex 0.620686890354042 0.380009147074648 -0.685813991982945
    endloop
  endfacet
  facet normal -0.850650808162803 0.2763932024966272 0.4472135957074968
    outer loop
      vertex 0.831995443351751 0.448667457918681 -0.32631440943408
      vertex 0.409378337417803 0.0891678752952494 -0.90799695277695
      vertex 0.962591311191213 0.268917666703998 0.0331851731041979
    endloop
  endfacet
  facet normal -0.8506508081628056 0.2763932024966134 0.4472135957075008
    outer loop
      vertex 0.278782469603668 -0.312764876902856 -0.907996952621554
      vertex 0.962591311191213 0.268917666703998 0.0331851731041979
      vertex 0.409378337417803 0.0891678752952494 -0.90799695277695
    endloop
  endfacet
  facet normal -0.8506508081628055 0.27639320249661575 0.44721359570749936
    outer loop
      vertex 0.962591311191213 0.268917666703998 0.0331851731041979
      vertex 0.278782469603668 -0.312764876902856 -0.907996952621554
      vertex 0.962591311180263 -0.0905819158007837 0.255368134107841
    endloop
  endfacet
  facet normal -0.8506508079970473 0.27639320346306 0.4472135954254946
    outer loop
      vertex 0.278782469597426 -0.672264457781355 -0.685813991697058
      vertex 0.962591311180263 -0.0905819158007837 0.255368134107841
      vertex 0.278782469603668 -0.312764876902856 -0.907996952621554
    endloop
  endfacet
  facet normal -0.8506508079970474 0.27639320217344454 0.4472135962225209
    outer loop
      vertex 0.962591311180263 -0.0905819158007837 0.255368134107841
      vertex 0.278782469597426 -0.672264457781355 -0.685813991697058
      vertex 0.831995443419357 -0.492514667922348 0.255368134075137
    endloop
  endfacet
  facet normal -0.8506508080718219 0.27639320173747484 0.4472135963497352
    outer loop
      vertex 0.409378337572705 -0.85201424947372 -0.326314409453187
      vertex 0.831995443419357 -0.492514667922348 0.255368134075137
      vertex 0.278782469597426 -0.672264457781355 -0.685813991697058
    endloop
  endfacet
  facet normal -0.8506508080718219 0.2763932013669664 0.44721359657872206
    outer loop
      vertex 0.831995443419357 -0.492514667922348 0.255368134075137
      vertex 0.409378337572705 -0.85201424947372 -0.326314409453187
      vertex 0.620686890540425 -0.783355939657894 0.0331851731041979
    endloop
  endfacet
  facet normal -0.30901699418750683 0.9510565163560567 1.362517710816262e-9
    outer loop
      vertex 0.620686890540425 -0.783355939657894 0.0331851731041979
      vertex 0.0674739171407989 -0.963105730609737 -0.104131448555734
      vertex 0.278782470020141 -0.894447420357841 0.255368134153656
    endloop
  endfacet
  facet normal -0.309016994510724 0.951056516251037 2.802148311053374e-9
    outer loop
      vertex 0.0674739171407989 -0.963105730609737 -0.104131448555734
      vertex 0.620686890540425 -0.783355939657894 0.0331851731041979
      vertex 0.409378337572705 -0.85201424947372 -0.326314409453187
    endloop
  endfacet
  facet normal -7.084562258421779e-10 0.8944271903292849 0.4472135968412202
    outer loop
      vertex 0.278782469597426 -0.672264457781355 -0.685813991697058
      vertex 0.0674739171407989 -0.963105730609737 -0.104131448555734
      vertex 0.409378337572705 -0.85201424947372 -0.326314409453187
    endloop
  endfacet
  facet normal -1.7896105172394818e-9 0.8944271904863856 0.4472135965270185
    outer loop
      vertex -0.143834635809371 -0.672264458732561 -0.685813991485829
      vertex 0.0674739171407989 -0.963105730609737 -0.104131448555734
      vertex 0.278782469597426 -0.672264457781355 -0.685813991697058
    endloop
  endfacet
  facet normal -7.843420237043314e-10 0.8944271906324597 0.4472135962348704
    outer loop
      vertex 0.0674739171407989 -0.963105730609737 -0.104131448555734
      vertex -0.143834635809371 -0.672264458732561 -0.685813991485829
      vertex -0.274430503525425 -0.852014250396151 -0.326314409126157
    endloop
  endfacet
  facet normal 0.6381966020077998 0.7330937567295738 0.23511410215003795
    outer loop
      vertex -0.274430503525425 -0.852014250396151 -0.326314409126157
      vertex -0.733143418944545 -0.504242906883651 -0.165541308434043
      vertex -0.485739056259675 -0.7833559398626 0.033185173236194
    endloop
  endfacet
  facet normal 0.6381966020077999 0.7330937567295733 0.23511410215003922
    outer loop
      vertex -0.733143418944545 -0.504242906883651 -0.165541308434043
      vertex -0.274430503525425 -0.852014250396151 -0.326314409126157
      vertex -0.521834866220444 -0.572901217462494 -0.525040890627622
    endloop
  endfacet
  facet normal 0.9472135955484302 -0.21796275831295825 0.23511410080388964
    outer loop
      vertex -0.863739286744066 -0.102310154908458 -0.165541308443023
      vertex -0.697047608924464 0.448667458950167 -0.326314409167071
      vertex -0.827643476656661 0.268917667319282 0.0331851732030904
    endloop
  endfacet
  facet normal 0.9472135955448512 -0.21796275830570638 0.23511410082503145
    outer loop
      vertex -0.697047608924464 0.448667458950167 -0.326314409167071
      vertex -0.863739286744066 -0.102310154908458 -0.165541308443023
      vertex -0.7331434190236 0.0774396366876538 -0.525040890769389
    endloop
  endfacet
  facet normal 2.091935552565365e-9 -0.9822469464161641 0.18759247387920838
    outer loop
      vertex -0.143834635346853 0.850600209907028 -0.326314409283058
      vertex 0.278782470315994 0.850600210787504 -0.326314409385636
      vertex 0.0674739173917088 0.919258521044234 0.0331851731041979
    endloop
  endfacet
  facet normal 0.41777458061562456 0.7428051864320546 0.5231680942116784
    outer loop
      vertex -0.143834635809371 -0.672264458732561 -0.685813991485829
      vertex -0.521834866220444 -0.572901217462494 -0.525040890627622
      vertex -0.274430503525425 -0.852014250396151 -0.326314409126157
    endloop
  endfacet
  facet normal 1.9420059242006726e-9 0.5257311138317519 0.8506508072935837
    outer loop
      vertex -0.143834635786002 -0.312764875812814 -0.907996952330417
      vertex 0.278782469597426 -0.672264457781355 -0.685813991697058
      vertex 0.278782469603668 -0.312764876902856 -0.907996952621554
    endloop
  endfacet
  facet normal -7.581246387314579e-10 0.5257311115348835 0.8506508087131263
    outer loop
      vertex 0.278782469597426 -0.672264457781355 -0.685813991697058
      vertex -0.143834635786002 -0.312764875812814 -0.907996952330417
      vertex -0.143834635809371 -0.672264458732561 -0.685813991485829
    endloop
  endfacet
  facet normal 0.4472135953946484 0.4702282020257022 0.7608452129795304
    outer loop
      vertex -0.521834866220444 -0.572901217462494 -0.525040890627622
      vertex -0.143834635786002 -0.312764875812814 -0.907996952330417
      vertex -0.521834866333722 -0.213401635026598 -0.747223851554933
    endloop
  endfacet
  facet normal 0.4472135961387118 0.47022820112246716 0.760845213100411
    outer loop
      vertex -0.143834635786002 -0.312764875812814 -0.907996952330417
      vertex -0.521834866220444 -0.572901217462494 -0.525040890627622
      vertex -0.143834635809371 -0.672264458732561 -0.685813991485829
    endloop
  endfacet
  facet normal 4.171329084609542e-9 -9.687250173963768e-10 1
    outer loop
      vertex 0.067473915731321 0.337575979449356 -0.907996951110115
      vertex 0.278782469603668 -0.312764876902856 -0.907996952621554
      vertex 0.409378337417803 0.0891678752952494 -0.90799695277695
    endloop
  endfacet
  facet normal 6.888907178436114e-10 -2.1002378357027736e-9 1
    outer loop
      vertex 0.067473915731321 0.337575979449356 -0.907996951110115
      vertex -0.143834635786002 -0.312764875812814 -0.907996952330417
      vertex 0.278782469603668 -0.312764876902856 -0.907996952621554
    endloop
  endfacet
  facet normal -2.9359010585165235e-9 -9.224716018625367e-10 1
    outer loop
      vertex -0.143834635786002 -0.312764875812814 -0.907996952330417
      vertex 0.067473915731321 0.337575979449356 -0.907996951110115
      vertex -0.274430503464244 0.089167876636746 -0.907996952343062
    endloop
  endfacet
  facet normal 0.4177745793153971 0.13574318927346782 0.8983530416510597
    outer loop
      vertex -0.274430503464244 0.089167876636746 -0.907996952343062
      vertex -0.521834866333722 -0.213401635026598 -0.747223851554933
      vertex -0.143834635786002 -0.312764875812814 -0.907996952330417
    endloop
  endfacet
  facet normal 0.3090169945375267 -0.4253254056185969 0.8506508075716911
    outer loop
      vertex -0.143834637358989 0.628417250558277 -0.68581398964253
      vertex -0.274430503464244 0.089167876636746 -0.907996952343062
      vertex 0.067473915731321 0.337575979449356 -0.907996951110115
    endloop
  endfacet
  facet normal 0.3090169923602077 -0.42532540545158964 0.850650808446152
    outer loop
      vertex -0.274430503464244 0.089167876636746 -0.907996952343062
      vertex -0.143834637358989 0.628417250558277 -0.68581398964253
      vertex -0.485739056184049 0.380009148380675 -0.685813991518933
    endloop
  endfacet
  facet normal 0.6381966010548908 -0.11755705044889157 0.7608452130964228
    outer loop
      vertex -0.7331434190236 0.0774396366876538 -0.525040890769389
      vertex -0.274430503464244 0.089167876636746 -0.907996952343062
      vertex -0.485739056184049 0.380009148380675 -0.685813991518933
    endloop
  endfacet
  facet normal 0.638196601056259 -0.11755705042640112 0.7608452130987504
    outer loop
      vertex -0.274430503464244 0.089167876636746 -0.907996952343062
      vertex -0.7331434190236 0.0774396366876538 -0.525040890769389
      vertex -0.521834866333722 -0.213401635026598 -0.747223851554933
    endloop
  endfacet
  facet normal 0.5257311106264219 -0.7236067980716693 0.44721359673424016
    outer loop
      vertex -0.697047608924464 0.448667458950167 -0.326314409167071
      vertex -0.143834635346853 0.850600209907028 -0.326314409283058
      vertex -0.485739056490946 0.739508730209607 -0.104131448244151
    endloop
  endfacet
  facet normal 0.5257311111880494 -0.7236067988446833 0.4472135948232443
    outer loop
      vertex -0.485739056184049 0.380009148380675 -0.685813991518933
      vertex -0.143834635346853 0.850600209907028 -0.326314409283058
      vertex -0.697047608924464 0.448667458950167 -0.326314409167071
    endloop
  endfacet
  facet normal 0.525731113281538 -0.7236067986841062 0.44721359262202004
    outer loop
      vertex -0.143834635346853 0.850600209907028 -0.326314409283058
      vertex -0.485739056184049 0.380009148380675 -0.685813991518933
      vertex -0.143834637358989 0.628417250558277 -0.68581398964253
    endloop
  endfacet
  facet normal 0.7745966693657202 -0.3553802835821288 0.5231680933013967
    outer loop
      vertex -0.697047608924464 0.448667458950167 -0.326314409167071
      vertex -0.7331434190236 0.0774396366876538 -0.525040890769389
      vertex -0.485739056184049 0.380009148380675 -0.685813991518933
    endloop
  endfacet
  facet normal -0.30901699442942504 -0.4253254036805263 0.8506508085799965
    outer loop
      vertex 0.278782469777957 0.628417249284339 -0.685813992075469
      vertex 0.409378337417803 0.0891678752952494 -0.90799695277695
      vertex 0.620686890354042 0.380009147074648 -0.685813991982945
    endloop
  endfacet
  facet normal -0.30901699129261234 -0.425325403439923 0.8506508098398122
    outer loop
      vertex 0.409378337417803 0.0891678752952494 -0.90799695277695
      vertex 0.278782469777957 0.628417249284339 -0.685813992075469
      vertex 0.067473915731321 0.337575979449356 -0.907996951110115
    endloop
  endfacet
  facet normal -0.5257311126579567 -0.7236067968999036 0.4472135962419843
    outer loop
      vertex 0.278782470315994 0.850600210787504 -0.326314409385636
      vertex 0.831995443351751 0.448667457918681 -0.32631440943408
      vertex 0.620686890859902 0.739508730298597 -0.104131448244151
    endloop
  endfacet
  facet normal -0.5257311120311429 -0.7236067970307867 0.4472135967670749
    outer loop
      vertex 0.620686890354042 0.380009147074648 -0.685813991982945
      vertex 0.278782470315994 0.850600210787504 -0.326314409385636
      vertex 0.278782469777957 0.628417249284339 -0.685813992075469
    endloop
  endfacet
  facet normal -0.5257311127149419 -0.7236067969783371 0.44721359604808586
    outer loop
      vertex 0.278782470315994 0.850600210787504 -0.326314409385636
      vertex 0.620686890354042 0.380009147074648 -0.685813991982945
      vertex 0.831995443351751 0.448667457918681 -0.32631440943408
    endloop
  endfacet
  facet normal 2.7447692424215114e-9 -0.6070619986776165 0.7946544719320074
    outer loop
      vertex 0.278782469777957 0.628417249284339 -0.685813992075469
      vertex -0.143834637358989 0.628417250558277 -0.68581398964253
      vertex 0.067473915731321 0.337575979449356 -0.907996951110115
    endloop
  endfacet
  facet normal 1.8998428829760895e-9 -0.850650808621592 0.525731111682989
    outer loop
      vertex -0.143834637358989 0.628417250558277 -0.68581398964253
      vertex 0.278782470315994 0.850600210787504 -0.326314409385636
      vertex -0.143834635346853 0.850600209907028 -0.326314409283058
    endloop
  endfacet
  facet normal 4.6234582533297734e-10 -0.8506508078658552 0.5257311129057972
    outer loop
      vertex 0.278782470315994 0.850600210787504 -0.326314409385636
      vertex -0.143834637358989 0.628417250558277 -0.68581398964253
      vertex 0.278782469777957 0.628417249284339 -0.685813992075469
    endloop
  endfacet
  facet normal -2.3643167987381952e-15 7.682130960586158e-16 -1
    outer loop
      vertex 0.278782470047878 -0.312764876621784 0.837050677511749
      vertex 0.0674739172670375 0.337575977587922 0.83705067751175
      vertex 0.40937833778988 0.0891678755434398 0.837050677511749
    endloop
  endfacet
  facet normal 5.504770505295752e-10 1.7886237245320555e-10 -1
    outer loop
      vertex -0.143834635180726 -0.31276487646342 0.837050677279108
      vertex 0.0674739172670375 0.337575977587922 0.83705067751175
      vertex 0.278782470047878 -0.312764876621784 0.837050677511749
    endloop
  endfacet
  facet normal 7.584683425017254e-10 1.1128190514197393e-10 -1
    outer loop
      vertex 0.0674739172670375 0.337575977587922 0.83705067751175
      vertex -0.143834635180726 -0.31276487646342 0.837050677279108
      vertex -0.274430502919939 0.0891678756126983 0.837050677224783
    endloop
  endfacet
  facet normal 0.8506508083215062 0.2763932019288243 0.44721359575654734
    outer loop
      vertex -0.863739286744066 -0.102310154908458 -0.165541308443023
      vertex -0.521834866333722 -0.213401635026598 -0.747223851554933
      vertex -0.7331434190236 0.0774396366876538 -0.525040890769389
    endloop
  endfacet
  facet normal 0.850650808169985 0.27639320245839394 0.44721359571746555
    outer loop
      vertex -0.521834866220444 -0.572901217462494 -0.525040890627622
      vertex -0.863739286744066 -0.102310154908458 -0.165541308443023
      vertex -0.733143418944545 -0.504242906883651 -0.165541308434043
    endloop
  endfacet
  facet normal 0.8506508082055152 0.2763932026051033 0.44721359555921175
    outer loop
      vertex -0.863739286744066 -0.102310154908458 -0.165541308443023
      vertex -0.521834866220444 -0.572901217462494 -0.525040890627622
      vertex -0.521834866333722 -0.213401635026598 -0.747223851554933
    endloop
  endfacet
endsolid OpenSCAD_Model
