solid OpenSCAD_Model
  facet normal 0.5257311120784856 0.7236067975847221 -0.4472135958151338
    outer loop
      vertex -0.223918979711609 -0.92459410524135 0.308198034930872
      vertex -0.586227499205583 -0.425919209196254 0.689151756571381
      vertex -0.223918979731715 -0.689151756892442 0.689151756571381
    endloop
  endfacet
  facet normal 0.5257311120784862 0.7236067975847221 -0.447213595815133
    outer loop
      vertex -0.223918979711609 -0.92459410524135 0.308198034930872
      vertex -0.810146478589606 -0.498674896161386 0.308198034922043
      vertex -0.586227499205583 -0.425919209196254 0.689151756571381
    endloop
  endfacet
  facet normal 0.5257311120784866 0.7236067975847226 -0.44721359581513204
    outer loop
      vertex -0.810146478589606 -0.498674896161386 0.308198034922043
      vertex -0.223918979711609 -0.92459410524135 0.308198034930872
      vertex -0.586227499236796 -0.806872931140729 0.0727556868629291
    endloop
  endfacet
  facet normal -1.9369067741577287e-17 0.850650808118059 -0.5257311124977226
    outer loop
      vertex 0.223918979015398 -0.924594105225894 0.308198034955881
      vertex -0.223918979731715 -0.689151756892442 0.689151756571381
      vertex 0.223918979064903 -0.689151756892442 0.689151756571381
    endloop
  endfacet
  facet normal 8.684535442925455e-16 0.8506508081180596 -0.5257311124977219
    outer loop
      vertex -0.223918979731715 -0.689151756892442 0.689151756571381
      vertex 0.223918979015398 -0.924594105225894 0.308198034955881
      vertex -0.223918979711609 -0.92459410524135 0.308198034930872
    endloop
  endfacet
  facet normal 0 0 -1
    outer loop
      vertex 0.58622749846228 -0.425919209301533 0.689151756571381
      vertex 0.586227498500526 0.42591920861664 0.689151756571381
      vertex 0.724617038471922 -3.48658824346372e-10 0.689151756571381
    endloop
  endfacet
  facet normal 0 0 -1
    outer loop
      vertex 0.223918979064903 -0.689151756892442 0.689151756571381
      vertex 0.586227498500526 0.42591920861664 0.689151756571381
      vertex 0.58622749846228 -0.425919209301533 0.689151756571381
    endloop
  endfacet
  facet normal 0 0 -1
    outer loop
      vertex 0.223918979064903 -0.689151756892442 0.689151756571381
      vertex 0.223918979126785 0.689151756240083 0.689151756571381
      vertex 0.586227498500526 0.42591920861664 0.689151756571381
    endloop
  endfacet
  facet normal 0 0 -1
    outer loop
      vertex -0.223918979731715 -0.689151756892442 0.689151756571381
      vertex 0.223918979126785 0.689151756240083 0.689151756571381
      vertex 0.223918979064903 -0.689151756892442 0.689151756571381
    endloop
  endfacet
  facet normal 0 0 -1
    outer loop
      vertex -0.223918979731715 -0.689151756892442 0.689151756571381
      vertex -0.223918979669834 0.689151756280295 0.689151756571381
      vertex 0.223918979126785 0.689151756240083 0.689151756571381
    endloop
  endfacet
  facet normal 0 0 -1
    outer loop
      vertex -0.586227499205583 -0.425919209196254 0.689151756571381
      vertex -0.223918979669834 0.689151756280295 0.689151756571381
      vertex -0.223918979731715 -0.689151756892442 0.689151756571381
    endloop
  endfacet
  facet normal 0 0 -1
    outer loop
      vertex -0.586227499205583 -0.425919209196254 0.689151756571381
      vertex -0.586227499090849 0.425919208721918 0.689151756571381
      vertex -0.223918979669834 0.689151756280295 0.689151756571381
    endloop
  endfacet
  facet normal 0 0 -1
    outer loop
      vertex -0.586227499090849 0.425919208721918 0.689151756571381
      vertex -0.586227499205583 -0.425919209196254 0.689151756571381
      vertex -0.724617039138734 -2.18526068262738e-10 0.689151756571381
    endloop
  endfacet
  facet normal 0.8090169944926362 0.26286555596930355 -0.5257311119831607
    outer loop
      vertex -0.586227499205583 -0.425919209196254 0.689151756571381
      vertex -0.948536018483369 -0.0727556869535419 0.308198034872676
      vertex -0.724617039138734 -2.18526068262738e-10 0.689151756571381
    endloop
  endfacet
  facet normal 0.8090169944421827 0.26286555567513714 -0.5257311122078839
    outer loop
      vertex -0.948536018483369 -0.0727556869535419 0.308198034872676
      vertex -0.586227499205583 -0.425919209196254 0.689151756571381
      vertex -0.810146478589606 -0.498674896161386 0.308198034922043
    endloop
  endfacet
  facet normal 0.8506508083864374 -0.27639320237943105 -0.4472135953545505
    outer loop
      vertex -0.586227499090849 0.425919208721918 0.689151756571381
      vertex -0.948536018387546 0.308198034736325 0.0727556867230558
      vertex -0.724617038978399 0.616396069579126 0.308198034907331
    endloop
  endfacet
  facet normal 0.850650808386439 -0.2763932023794251 -0.4472135953545509
    outer loop
      vertex -0.948536018483369 -0.0727556869535419 0.308198034872676
      vertex -0.586227499090849 0.425919208721918 0.689151756571381
      vertex -0.724617039138734 -2.18526068262738e-10 0.689151756571381
    endloop
  endfacet
  facet normal 0.8506508083864386 -0.2763932023794234 -0.44721359535455274
    outer loop
      vertex -0.586227499090849 0.425919208721918 0.689151756571381
      vertex -0.948536018483369 -0.0727556869535419 0.308198034872676
      vertex -0.948536018387546 0.308198034736325 0.0727556867230558
    endloop
  endfacet
  facet normal 0.49999999988792065 -0.6881909603701358 -0.5257311120496005
    outer loop
      vertex -0.362308519624126 0.879628617064662 0.308198034872676
      vertex -0.586227499090849 0.425919208721918 0.689151756571381
      vertex -0.724617038978399 0.616396069579126 0.308198034907331
    endloop
  endfacet
  facet normal 0.4999999999752404 -0.6881909603574474 -0.5257311119831638
    outer loop
      vertex -0.586227499090849 0.425919208721918 0.689151756571381
      vertex -0.362308519624126 0.879628617064662 0.308198034872676
      vertex -0.223918979669834 0.689151756280295 0.689151756571381
    endloop
  endfacet
  facet normal -8.032348297533739e-11 -0.8944271910726184 -0.4472135953545529
    outer loop
      vertex -1.78703131528925e-10 0.997349791059091 0.0727556867230558
      vertex -0.223918979669834 0.689151756280295 0.689151756571381
      vertex -0.362308519624126 0.879628617064662 0.308198034872676
    endloop
  endfacet
  facet normal -8.031198674869752e-11 -0.8944271910726201 -0.4472135953545497
    outer loop
      vertex -0.223918979669834 0.689151756280295 0.689151756571381
      vertex -1.78703131528925e-10 0.997349791059091 0.0727556867230558
      vertex 0.223918979126785 0.689151756240083 0.689151756571381
    endloop
  endfacet
  facet normal -8.03182442023679e-11 -0.894427191072621 -0.44721359535454774
    outer loop
      vertex 0.223918979126785 0.689151756240083 0.689151756571381
      vertex -1.78703131528925e-10 0.997349791059091 0.0727556867230558
      vertex 0.362308519172652 0.879628616982264 0.308198034907332
    endloop
  endfacet
  facet normal -0.5000000000746978 -0.6881909602344362 -0.525731112049598
    outer loop
      vertex 0.362308519172652 0.879628616982264 0.308198034907332
      vertex 0.586227498500526 0.42591920861664 0.689151756571381
      vertex 0.223918979126785 0.689151756240083 0.689151756571381
    endloop
  endfacet
  facet normal -0.5000000001620131 -0.6881909602217485 -0.5257311119831646
    outer loop
      vertex 0.586227498500526 0.42591920861664 0.689151756571381
      vertex 0.362308519172652 0.879628616982264 0.308198034907332
      vertex 0.724617038456494 0.61639606939979 0.308198034872676
    endloop
  endfacet
  facet normal -0.8506508084360784 -0.2763932022266485 -0.44721359535455246
    outer loop
      vertex 0.948536017816342 0.308198034442064 0.0727556867230558
      vertex 0.586227498500526 0.42591920861664 0.689151756571381
      vertex 0.724617038456494 0.61639606939979 0.308198034872676
    endloop
  endfacet
  facet normal -0.8506508084360763 -0.27639320222666075 -0.4472135953545488
    outer loop
      vertex 0.948536017804739 -0.0727556871838023 0.308198034907331
      vertex 0.586227498500526 0.42591920861664 0.689151756571381
      vertex 0.948536017816342 0.308198034442064 0.0727556867230558
    endloop
  endfacet
  facet normal -0.850650808436076 -0.2763932022266595 -0.44721359535455013
    outer loop
      vertex 0.586227498500526 0.42591920861664 0.689151756571381
      vertex 0.948536017804739 -0.0727556871838023 0.308198034907331
      vertex 0.724617038471922 -3.48658824346372e-10 0.689151756571381
    endloop
  endfacet
  facet normal -0.8090169944063756 0.26286555610190687 -0.5257311120496007
    outer loop
      vertex 0.948536017804739 -0.0727556871838023 0.308198034907331
      vertex 0.58622749846228 -0.425919209301533 0.689151756571381
      vertex 0.724617038471922 -3.48658824346372e-10 0.689151756571381
    endloop
  endfacet
  facet normal -0.8090169944212925 0.2628655561888786 -0.5257311119831601
    outer loop
      vertex 0.58622749846228 -0.425919209301533 0.689151756571381
      vertex 0.948536017804739 -0.0727556871838023 0.308198034907331
      vertex 0.810146477806275 -0.498674896038517 0.308198034872676
    endloop
  endfacet
  facet normal -0.5257311123635581 0.723606797608972 -0.44721359544077355
    outer loop
      vertex 0.223918979015398 -0.924594105225894 0.308198034955881
      vertex 0.58622749846228 -0.425919209301533 0.689151756571381
      vertex 0.810146477806275 -0.498674896038517 0.308198034872676
    endloop
  endfacet
  facet normal -0.5257311120161908 0.7236067976356163 -0.4472135958060171
    outer loop
      vertex 0.58622749846228 -0.425919209301533 0.689151756571381
      vertex 0.223918979015398 -0.924594105225894 0.308198034955881
      vertex 0.223918979064903 -0.689151756892442 0.689151756571381
    endloop
  endfacet
  facet normal -0.5257311124962425 0.7236067977915963 -0.44721359498930163
    outer loop
      vertex 0.223918979015398 -0.924594105225894 0.308198034955881
      vertex 0.810146477806275 -0.498674896038517 0.308198034872676
      vertex 0.586227498346724 -0.806872930923807 0.0727556867230558
    endloop
  endfacet
  facet normal 0.3090169937833131 0.9510565164873872 9.819209150313105e-10
    outer loop
      vertex -4.44586780104862e-10 -0.997349791418255 -0.0727556868868044
      vertex -0.586227499236796 -0.806872931140729 0.0727556868629291
      vertex -0.223918979711609 -0.92459410524135 0.308198034930872
    endloop
  endfacet
  facet normal 0.30901699378331293 0.9510565164873872 9.819199649858844e-10
    outer loop
      vertex -0.586227499236796 -0.806872931140729 0.0727556868629291
      vertex -4.44586780104862e-10 -0.997349791418255 -0.0727556868868044
      vertex -0.362308519956199 -0.879628617322045 -0.308198034770519
    endloop
  endfacet
  facet normal -2.342382951543356e-11 0.9822469466688161 -0.18759247255630457
    outer loop
      vertex 0.223918979015398 -0.924594105225894 0.308198034955881
      vertex -4.44586780104862e-10 -0.997349791418255 -0.0727556868868044
      vertex -0.223918979711609 -0.92459410524135 0.308198034930872
    endloop
  endfacet
  facet normal 0.934172359558403 0.3035309988763863 -0.18759247148590213
    outer loop
      vertex -0.948536017732224 -0.308198034536171 -0.0727556871599721
      vertex -0.948536018483369 -0.0727556869535419 0.308198034872676
      vertex -0.810146478589606 -0.498674896161386 0.308198034922043
    endloop
  endfacet
  facet normal 0.8090169952696995 0.5877852510609527 2.0941128108436513e-9
    outer loop
      vertex -0.586227499236796 -0.806872931140729 0.0727556868629291
      vertex -0.948536017732224 -0.308198034536171 -0.0727556871599721
      vertex -0.810146478589606 -0.498674896161386 0.308198034922043
    endloop
  endfacet
  facet normal 0.8090169952696993 0.5877852510609527 2.0941131528857107e-9
    outer loop
      vertex -0.948536017732224 -0.308198034536171 -0.0727556871599721
      vertex -0.586227499236796 -0.806872931140729 0.0727556868629291
      vertex -0.724617038437017 -0.61639606943623 -0.308198034927719
    endloop
  endfacet
  facet normal 1 3.171821181816618e-9 5.539105900810674e-9
    outer loop
      vertex -0.948536018483369 -0.0727556869535419 0.308198034872676
      vertex -0.948536015530622 0.0727556873114111 -0.30819803465516
      vertex -0.948536018387546 0.308198034736325 0.0727556867230558
    endloop
  endfacet
  facet normal 1 -3.3000646566508528e-9 4.01130089199116e-9
    outer loop
      vertex -0.948536015530622 0.0727556873114111 -0.30819803465516
      vertex -0.948536018483369 -0.0727556869535419 0.308198034872676
      vertex -0.948536017732224 -0.308198034536171 -0.0727556871599721
    endloop
  endfacet
  facet normal 0.5773502688915877 -0.7946544721598207 -0.18759247556127692
    outer loop
      vertex -0.586227499481869 0.806872930688853 -0.0727556865566269
      vertex -0.362308519624126 0.879628617064662 0.308198034872676
      vertex -0.724617038978399 0.616396069579126 0.308198034907331
    endloop
  endfacet
  facet normal 0.8090169947225675 -0.5877852518140151 -1.1224496152242286e-9
    outer loop
      vertex -0.948536018387546 0.308198034736325 0.0727556867230558
      vertex -0.586227499481869 0.806872930688853 -0.0727556865566269
      vertex -0.724617038978399 0.616396069579126 0.308198034907331
    endloop
  endfacet
  facet normal 0.8090169947225683 -0.5877852518140142 -1.1224442471677985e-9
    outer loop
      vertex -0.586227499481869 0.806872930688853 -0.0727556865566269
      vertex -0.948536018387546 0.308198034736325 0.0727556867230558
      vertex -0.810146478894109 0.498674895841792 -0.30819803488697
    endloop
  endfacet
  facet normal 0.3090169936527922 -0.951056516529796 -8.7970964864996e-10
    outer loop
      vertex -0.586227499481869 0.806872930688853 -0.0727556865566269
      vertex -1.78703131528925e-10 0.997349791059091 0.0727556867230558
      vertex -0.362308519624126 0.879628617064662 0.308198034872676
    endloop
  endfacet
  facet normal 0.3090169943702436 -0.9510565162966819 -4.07528492183324e-9
    outer loop
      vertex -1.78703131528925e-10 0.997349791059091 0.0727556867230558
      vertex -0.586227499481869 0.806872930688853 -0.0727556865566269
      vertex -0.22391898050856 0.924594105623146 -0.308198034986744
    endloop
  endfacet
  facet normal -0.5773502691276917 -0.794654471988279 -0.18759247556128505
    outer loop
      vertex 0.586227498685268 0.806872930783154 -0.0727556865566269
      vertex 0.724617038456494 0.61639606939979 0.308198034872676
      vertex 0.362308519172652 0.879628616982264 0.308198034907332
    endloop
  endfacet
  facet normal -0.3090169937783183 -0.95105651648901 -1.1224575273022905e-9
    outer loop
      vertex -1.78703131528925e-10 0.997349791059091 0.0727556867230558
      vertex 0.586227498685268 0.806872930783154 -0.0727556865566269
      vertex 0.362308519172652 0.879628616982264 0.308198034907332
    endloop
  endfacet
  facet normal -0.30901699377831815 -0.9510565164890101 -1.1224567942734266e-9
    outer loop
      vertex 0.586227498685268 0.806872930783154 -0.0727556865566269
      vertex -1.78703131528925e-10 0.997349791059091 0.0727556867230558
      vertex 0.223918979328908 0.924594104861607 -0.30819803488697
    endloop
  endfacet
  facet normal -0.8090169943567379 -0.5877852523175365 -4.07532939879749e-9
    outer loop
      vertex 0.948536017816342 0.308198034442064 0.0727556867230558
      vertex 0.586227498685268 0.806872930783154 -0.0727556865566269
      vertex 0.8101464787931 0.498674896564876 -0.308198034986744
    endloop
  endfacet
  facet normal -0.809016994800153 -0.587785251707228 -8.797131119846531e-10
    outer loop
      vertex 0.586227498685268 0.806872930783154 -0.0727556865566269
      vertex 0.948536017816342 0.308198034442064 0.0727556867230558
      vertex 0.724617038456494 0.61639606939979 0.308198034872676
    endloop
  endfacet
  facet normal -0.9341723586658423 0.3035309991046813 -0.1875924755612841
    outer loop
      vertex 0.948536018388496 -0.308198035244376 -0.0727556865566269
      vertex 0.810146477806275 -0.498674896038517 0.308198034872676
      vertex 0.948536017804739 -0.0727556871838023 0.308198034907331
    endloop
  endfacet
  facet normal -1 -6.632512678432924e-10 -1.1224450178512399e-9
    outer loop
      vertex 0.948536018400099 0.0727556863867557 -0.30819803488697
      vertex 0.948536017804739 -0.0727556871838023 0.308198034907331
      vertex 0.948536017816342 0.308198034442064 0.0727556867230558
    endloop
  endfacet
  facet normal -1 -6.63251268336452e-10 -1.1224450179676591e-9
    outer loop
      vertex 0.948536017804739 -0.0727556871838023 0.308198034907331
      vertex 0.948536018400099 0.0727556863867557 -0.30819803488697
      vertex 0.948536018388496 -0.308198035244376 -0.0727556865566269
    endloop
  endfacet
  facet normal -0.8090169944142634 0.5877852522383592 -4.075299830397507e-9
    outer loop
      vertex 0.586227498346724 -0.806872930923807 0.0727556867230558
      vertex 0.948536018388496 -0.308198035244376 -0.0727556865566269
      vertex 0.724617039863332 -0.616396070612532 -0.308198034986744
    endloop
  endfacet
  facet normal -0.8090169939708535 0.5877852528486608 -8.797197875838957e-10
    outer loop
      vertex 0.948536018388496 -0.308198035244376 -0.0727556865566269
      vertex 0.586227498346724 -0.806872930923807 0.0727556867230558
      vertex 0.810146477806275 -0.498674896038517 0.308198034872676
    endloop
  endfacet
  facet normal -0.3090169941875058 0.951056516356057 1.3625200481438768e-9
    outer loop
      vertex 0.586227498346724 -0.806872930923807 0.0727556867230558
      vertex -4.44586780104862e-10 -0.997349791418255 -0.0727556868868044
      vertex 0.223918979015398 -0.924594105225894 0.308198034955881
    endloop
  endfacet
  facet normal -0.3090169945107224 0.9510565162510376 2.802148230172878e-9
    outer loop
      vertex -4.44586780104862e-10 -0.997349791418255 -0.0727556868868044
      vertex 0.586227498346724 -0.806872930923807 0.0727556867230558
      vertex 0.362308518793087 -0.879628616654075 -0.308198034958553
    endloop
  endfacet
  facet normal -7.084538745013783e-10 0.8944271903292846 0.44721359684122064
    outer loop
      vertex 0.223918978567457 -0.689151755374911 -0.689151756307937
      vertex -4.44586780104862e-10 -0.997349791418255 -0.0727556868868044
      vertex 0.362308518793087 -0.879628616654075 -0.308198034958553
    endloop
  endfacet
  facet normal -7.084617335860379e-10 0.8944271903292856 0.44721359684121825
    outer loop
      vertex -0.223918980229161 -0.689151755805724 -0.689151756155762
      vertex -4.44586780104862e-10 -0.997349791418255 -0.0727556868868044
      vertex 0.223918978567457 -0.689151755374911 -0.689151756307937
    endloop
  endfacet
  facet normal -7.084541488762468e-10 0.8944271903292867 0.44721359684121603
    outer loop
      vertex -4.44586780104862e-10 -0.997349791418255 -0.0727556868868044
      vertex -0.223918980229161 -0.689151755805724 -0.689151756155762
      vertex -0.362308519956199 -0.879628617322045 -0.308198034770519
    endloop
  endfacet
  facet normal 0.5773502702837192 0.794654471039126 0.1875924760240753
    outer loop
      vertex -0.362308519956199 -0.879628617322045 -0.308198034770519
      vertex -0.724617038437017 -0.61639606943623 -0.308198034927719
      vertex -0.586227499236796 -0.806872931140729 0.0727556868629291
    endloop
  endfacet
  facet normal 0.8506508074219751 0.2763931988489983 0.447213599370994
    outer loop
      vertex -0.586227496262291 -0.425919208551861 -0.689151755735528
      vertex -0.948536015530622 0.0727556873114111 -0.30819803465516
      vertex -0.948536017732224 -0.308198034536171 -0.0727556871599721
    endloop
  endfacet
  facet normal 0.8506508074219749 0.27639319884899727 0.447213599370995
    outer loop
      vertex -0.948536015530622 0.0727556873114111 -0.30819803465516
      vertex -0.586227496262291 -0.425919208551861 -0.689151755735528
      vertex -0.724617034950424 8.30395519334311e-10 -0.689151755531113
    endloop
  endfacet
  facet normal 0.850650807421976 0.27639319884899266 0.4472135993709956
    outer loop
      vertex -0.586227496262291 -0.425919208551861 -0.689151755735528
      vertex -0.948536017732224 -0.308198034536171 -0.0727556871599721
      vertex -0.724617038437017 -0.61639606943623 -0.308198034927719
    endloop
  endfacet
  facet normal 0.9341723606152371 -0.30353099247805543 0.1875924765757998
    outer loop
      vertex -0.948536015530622 0.0727556873114111 -0.30819803465516
      vertex -0.810146478894109 0.498674895841792 -0.30819803488697
      vertex -0.948536018387546 0.308198034736325 0.0727556867230558
    endloop
  endfacet
  facet normal 0.5257311136304929 -0.7236067978259211 0.4472135936003716
    outer loop
      vertex -0.810146478894109 0.498674895841792 -0.30819803488697
      vertex -0.22391898050856 0.924594105623146 -0.308198034986744
      vertex -0.586227499481869 0.806872930688853 -0.0727556865566269
    endloop
  endfacet
  facet normal 0.5257311136304922 -0.7236067978259202 0.44721359360037366
    outer loop
      vertex -0.586227499853761 0.425919210007473 -0.689151757005543
      vertex -0.22391898050856 0.924594105623146 -0.308198034986744
      vertex -0.810146478894109 0.498674895841792 -0.30819803488697
    endloop
  endfacet
  facet normal 0.5257311136304984 -0.7236067978259197 0.44721359360036717
    outer loop
      vertex -0.22391898050856 0.924594105623146 -0.308198034986744
      vertex -0.586227499853761 0.425919210007473 -0.689151757005543
      vertex -0.22391898080027 0.689151758071705 -0.68915175703124
    endloop
  endfacet
  facet normal -1.7120841119784335e-9 -0.9822469468281645 0.1875924717219454
    outer loop
      vertex -0.22391898050856 0.924594105623146 -0.308198034986744
      vertex 0.223918979328908 0.924594104861607 -0.30819803488697
      vertex -1.78703131528925e-10 0.997349791059091 0.0727556867230558
    endloop
  endfacet
  facet normal -0.5257311116983271 -0.723606799229735 0.4472135936003503
    outer loop
      vertex 0.223918979328908 0.924594104861607 -0.30819803488697
      vertex 0.8101464787931 0.498674896564876 -0.308198034986744
      vertex 0.586227498685268 0.806872930783154 -0.0727556865566269
    endloop
  endfacet
  facet normal -0.5257311116983289 -0.7236067992297337 0.44721359360035035
    outer loop
      vertex 0.586227499854944 0.425919210245342 -0.689151757031245
      vertex 0.223918979328908 0.924594104861607 -0.30819803488697
      vertex 0.223918980113677 0.689151757362925 -0.689151757005548
    endloop
  endfacet
  facet normal -0.5257311116983261 -0.7236067992297338 0.44721359360035295
    outer loop
      vertex 0.223918979328908 0.924594104861607 -0.30819803488697
      vertex 0.586227499854944 0.425919210245342 -0.689151757031245
      vertex 0.8101464787931 0.498674896564876 -0.308198034986744
    endloop
  endfacet
  facet normal -0.9341723599101203 -0.30353099764803637 0.18759247172193388
    outer loop
      vertex 0.8101464787931 0.498674896564876 -0.308198034986744
      vertex 0.948536018400099 0.0727556863867557 -0.30819803488697
      vertex 0.948536017816342 0.308198034442064 0.0727556867230558
    endloop
  endfacet
  facet normal -0.8506508096392541 0.27639320136199447 0.4472135936003616
    outer loop
      vertex 0.586227500429793 -0.425919210086363 -0.68915175703124
      vertex 0.948536018400099 0.0727556863867557 -0.30819803488697
      vertex 0.724617039844765 -9.40270656401878e-10 -0.689151757005543
    endloop
  endfacet
  facet normal -0.8506508096392528 0.27639320136198886 0.4472135936003678
    outer loop
      vertex 0.948536018400099 0.0727556863867557 -0.30819803488697
      vertex 0.586227500429793 -0.425919210086363 -0.68915175703124
      vertex 0.948536018388496 -0.308198035244376 -0.0727556865566269
    endloop
  endfacet
  facet normal -0.8506508096392512 0.27639320136199785 0.44721359360036506
    outer loop
      vertex 0.948536018388496 -0.308198035244376 -0.0727556865566269
      vertex 0.586227500429793 -0.425919210086363 -0.68915175703124
      vertex 0.724617039863332 -0.616396070612532 -0.308198034986744
    endloop
  endfacet
  facet normal -0.5773502652524506 0.7946544752691984 0.1875924735898534
    outer loop
      vertex 0.724617039863332 -0.616396070612532 -0.308198034986744
      vertex 0.362308518793087 -0.879628616654075 -0.308198034958553
      vertex 0.586227498346724 -0.806872930923807 0.0727556867230558
    endloop
  endfacet
  facet normal -0.49999999700077036 0.6881909634179787 0.5257311108057654
    outer loop
      vertex 0.586227500429793 -0.425919210086363 -0.68915175703124
      vertex 0.362308518793087 -0.879628616654075 -0.308198034958553
      vertex 0.724617039863332 -0.616396070612532 -0.308198034986744
    endloop
  endfacet
  facet normal -0.499999993806001 0.6881909638822059 0.5257311132364904
    outer loop
      vertex 0.362308518793087 -0.879628616654075 -0.308198034958553
      vertex 0.586227500429793 -0.425919210086363 -0.68915175703124
      vertex 0.223918978567457 -0.689151755374911 -0.689151756307937
    endloop
  endfacet
  facet normal 0.5000000026729844 0.6881909575922378 0.525731113037163
    outer loop
      vertex -0.586227496262291 -0.425919208551861 -0.689151755735528
      vertex -0.362308519956199 -0.879628617322045 -0.308198034770519
      vertex -0.223918980229161 -0.689151755805724 -0.689151756155762
    endloop
  endfacet
  facet normal 0.4999999999455039 0.6881909579885639 0.5257311151123536
    outer loop
      vertex -0.362308519956199 -0.879628617322045 -0.308198034770519
      vertex -0.586227496262291 -0.425919208551861 -0.689151755735528
      vertex -0.724617038437017 -0.61639606943623 -0.308198034927719
    endloop
  endfacet
  facet normal 0.8090169971215289 -0.26286555055160354 0.5257311106465608
    outer loop
      vertex -0.948536015530622 0.0727556873114111 -0.30819803465516
      vertex -0.586227499853761 0.425919210007473 -0.689151757005543
      vertex -0.810146478894109 0.498674895841792 -0.30819803488697
    endloop
  endfacet
  facet normal 0.809016996239174 -0.26286554540707907 0.5257311145766278
    outer loop
      vertex -0.586227499853761 0.425919210007473 -0.689151757005543
      vertex -0.948536015530622 0.0727556873114111 -0.30819803465516
      vertex -0.724617034950424 8.30395519334311e-10 -0.689151755531113
    endloop
  endfacet
  facet normal -1.563641636003221e-9 -0.8506508091637444 0.5257311108057684
    outer loop
      vertex -0.22391898080027 0.689151758071705 -0.68915175703124
      vertex 0.223918979328908 0.924594104861607 -0.30819803488697
      vertex -0.22391898050856 0.924594105623146 -0.308198034986744
    endloop
  endfacet
  facet normal -1.3764607848251654e-9 -0.8506508092621511 0.5257311106465429
    outer loop
      vertex 0.223918979328908 0.924594104861607 -0.30819803488697
      vertex -0.22391898080027 0.689151758071705 -0.68915175703124
      vertex 0.223918980113677 0.689151757362925 -0.689151757005548
    endloop
  endfacet
  facet normal -0.8090169956206895 -0.2628655548523131 0.5257311108057607
    outer loop
      vertex 0.586227499854944 0.425919210245342 -0.689151757031245
      vertex 0.948536018400099 0.0727556863867557 -0.30819803488697
      vertex 0.8101464787931 0.498674896564876 -0.308198034986744
    endloop
  endfacet
  facet normal -0.8090169956564334 -0.2628655550607161 0.5257311106465549
    outer loop
      vertex 0.948536018400099 0.0727556863867557 -0.30819803488697
      vertex 0.586227499854944 0.425919210245342 -0.689151757031245
      vertex 0.724617039844765 -9.40270656401878e-10 -0.689151757005543
    endloop
  endfacet
  facet normal -1.857040506127454e-10 5.8648409602022914e-15 1
    outer loop
      vertex 0.586227499854944 0.425919210245342 -0.689151757031245
      vertex 0.586227500429793 -0.425919210086363 -0.68915175703124
      vertex 0.724617039844765 -9.40270656401878e-10 -0.689151757005543
    endloop
  endfacet
  facet normal 7.093000176847416e-11 5.8650141454129145e-15 1
    outer loop
      vertex 0.223918980113677 0.689151757362925 -0.689151757005548
      vertex 0.586227500429793 -0.425919210086363 -0.68915175703124
      vertex 0.586227499854944 0.425919210245342 -0.689151757031245
    endloop
  endfacet
  facet normal 1.628642715983473e-9 5.061374073462292e-10 1
    outer loop
      vertex 0.223918980113677 0.689151757362925 -0.689151757005548
      vertex 0.223918978567457 -0.689151755374911 -0.689151756307937
      vertex 0.586227500429793 -0.425919210086363 -0.68915175703124
    endloop
  endfacet
  facet normal -5.7368972627031984e-11 5.06137409237645e-10 1
    outer loop
      vertex -0.22391898080027 0.689151758071705 -0.68915175703124
      vertex 0.223918978567457 -0.689151755374911 -0.689151756307937
      vertex 0.223918980113677 0.689151757362925 -0.689151757005548
    endloop
  endfacet
  facet normal 3.3979935616413887e-10 6.351852221149047e-10 1
    outer loop
      vertex -0.22391898080027 0.689151758071705 -0.68915175703124
      vertex -0.223918980229161 -0.689151755805724 -0.689151756155762
      vertex 0.223918978567457 -0.689151755374911 -0.689151756307937
    endloop
  endfacet
  facet normal -3.9056333733662156e-10 6.351852218122741e-10 1
    outer loop
      vertex -0.586227499853761 0.425919210007473 -0.689151757005543
      vertex -0.223918980229161 -0.689151755805724 -0.689151756155762
      vertex -0.22391898080027 0.689151758071705 -0.68915175703124
    endloop
  endfacet
  facet normal 2.2430887959549797e-9 1.4909106732620627e-9 1
    outer loop
      vertex -0.586227499853761 0.425919210007473 -0.689151757005543
      vertex -0.586227496262291 -0.425919208551861 -0.689151755735528
      vertex -0.223918980229161 -0.689151755805724 -0.689151756155762
    endloop
  endfacet
  facet normal 6.065650268705861e-9 1.4909106893785168e-9 1
    outer loop
      vertex -0.586227496262291 -0.425919208551861 -0.689151755735528
      vertex -0.586227499853761 0.425919210007473 -0.689151757005543
      vertex -0.724617034950424 8.30395519334311e-10 -0.689151755531113
    endloop
  endfacet
endsolid OpenSCAD_Model
