solid OpenSCAD_Model
  facet normal 0.5257311120784856 0.7236067975847233 -0.4472135958151319
    outer loop
      vertex -0.204932371853514 -0.892972180825466 0.20637917328835
      vertex -0.536519915555524 -0.436581080455005 0.555030949402645
      vertex -0.204932371871916 -0.677493532734374 0.555030949402645
    endloop
  endfacet
  facet normal 0.5257311120784866 0.7236067975847231 -0.44721359581513076
    outer loop
      vertex -0.204932371853514 -0.892972180825466 0.20637917328835
      vertex -0.74145228773907 -0.50316764475886 0.206379173280269
      vertex -0.536519915555524 -0.436581080455005 0.555030949402645
    endloop
  endfacet
  facet normal 0.5257311120784867 0.7236067975847233 -0.44721359581513037
    outer loop
      vertex -0.74145228773907 -0.50316764475886 0.206379173280269
      vertex -0.204932371853514 -0.892972180825466 0.20637917328835
      vertex -0.536519915584089 -0.785232856847492 -0.00909947454560291
    endloop
  endfacet
  facet normal 4.8225308605049e-18 0.8506508081180602 -0.5257311124977206
    outer loop
      vertex 0.20493237247602 -0.892972180811321 0.206379173311237
      vertex -0.204932371871916 -0.677493532734374 0.555030949402645
      vertex 0.204932372521327 -0.677493532734374 0.555030949402645
    endloop
  endfacet
  facet normal -8.284863183851304e-17 0.8506508081180602 -0.5257311124977208
    outer loop
      vertex -0.204932371871916 -0.677493532734374 0.555030949402645
      vertex 0.20493237247602 -0.892972180811321 0.206379173311237
      vertex -0.204932371853514 -0.892972180825466 0.20637917328835
    endloop
  endfacet
  facet normal -2.1651099256279654e-17 0.6070619970377739 -0.7946544731847358
    outer loop
      vertex 3.35329131023137e-10 -0.395428320269112 0.770509596981137
      vertex 0.204932372521327 -0.677493532734374 0.555030949402645
      vertex -0.204932371871916 -0.677493532734374 0.555030949402645
    endloop
  endfacet
  facet normal 0.3090169938441654 0.4253254033812055 -0.8506508089422651
    outer loop
      vertex -0.204932371871916 -0.677493532734374 0.555030949402645
      vertex -0.331587543287536 -0.154515868139244 0.770509596928451
      vertex 3.35329131023137e-10 -0.395428320269112 0.770509596981137
    endloop
  endfacet
  facet normal 0.309016993844161 0.4253254033812052 -0.8506508089422669
    outer loop
      vertex -0.331587543287536 -0.154515868139244 0.770509596928451
      vertex -0.204932371871916 -0.677493532734374 0.555030949402645
      vertex -0.536519915555524 -0.436581080455005 0.555030949402645
    endloop
  endfacet
  facet normal 0.8090169945926231 0.26286555655226784 -0.5257311115378149
    outer loop
      vertex -0.536519915555524 -0.436581080455005 0.555030949402645
      vertex -0.868107459059675 -0.113363108575217 0.206379173235088
      vertex -0.663175087208717 -0.0467765443856143 0.555030949402645
    endloop
  endfacet
  facet normal 0.8090169944421833 0.26286555567513764 -0.5257311122078826
    outer loop
      vertex -0.868107459059675 -0.113363108575217 0.206379173235088
      vertex -0.536519915555524 -0.436581080455005 0.555030949402645
      vertex -0.74145228773907 -0.50316764475886 0.206379173280269
    endloop
  endfacet
  facet normal 0.5773502681532773 0.18759247404948912 -0.7946544730531192
    outer loop
      vertex -0.663175087208717 -0.0467765443856143 0.555030949402645
      vertex -0.331587543287536 -0.154515868139244 0.770509596928451
      vertex -0.536519915555524 -0.436581080455005 0.555030949402645
    endloop
  endfacet
  facet normal 0.8506508086463394 -0.27639320345259705 -0.4472135941969345
    outer loop
      vertex -0.536519916113604 0.343027991672401 0.555030949402645
      vertex -0.868107458971976 0.235288667584251 -0.00909947467361603
      vertex -0.663175086765436 0.51735387954792 0.206379173266805
    endloop
  endfacet
  facet normal 0.8506508088344051 -0.27639320164063674 -0.4472135949590652
    outer loop
      vertex -0.868107459059675 -0.113363108575217 0.206379173235088
      vertex -0.536519916113604 0.343027991672401 0.555030949402645
      vertex -0.663175087208717 -0.0467765443856143 0.555030949402645
    endloop
  endfacet
  facet normal 0.8506508089062406 -0.2763932019372561 -0.447213594639105
    outer loop
      vertex -0.536519916113604 0.343027991672401 0.555030949402645
      vertex -0.868107459059675 -0.113363108575217 0.206379173235088
      vertex -0.868107458971976 0.235288667584251 -0.00909947467361603
    endloop
  endfacet
  facet normal 0.5000000002070624 -0.1624598468587215 -0.8506508084705372
    outer loop
      vertex -0.331587543287536 -0.154515868139244 0.770509596928451
      vertex -0.536519916113604 0.343027991672401 0.555030949402645
      vertex -0.204932372491272 0.235288667640509 0.77050959720676
    endloop
  endfacet
  facet normal 0.4999999992769824 -0.16245984743121986 -0.850650808907887
    outer loop
      vertex -0.536519916113604 0.343027991672401 0.555030949402645
      vertex -0.331587543287536 -0.154515868139244 0.770509596928451
      vertex -0.663175087208717 -0.0467765443856143 0.555030949402645
    endloop
  endfacet
  facet normal 0.5000000002496737 -0.6881909608680487 -0.5257311110537763
    outer loop
      vertex -0.331587543191283 0.758266331634498 0.206379173235088
      vertex -0.536519916113604 0.343027991672401 0.555030949402645
      vertex -0.663175086765436 0.51735387954792 0.206379173266805
    endloop
  endfacet
  facet normal 0.500000000922323 -0.6881909607703071 -0.5257311105419944
    outer loop
      vertex -0.536519916113604 0.343027991672401 0.555030949402645
      vertex -0.331587543191283 0.758266331634498 0.206379173235088
      vertex -0.204932372774908 0.583940443921995 0.555030949402645
    endloop
  endfacet
  facet normal 0.3568220897884634 -0.4911234726852338 -0.7946544725958511
    outer loop
      vertex -0.204932372774908 0.583940443921995 0.555030949402645
      vertex -0.204932372491272 0.235288667640509 0.77050959720676
      vertex -0.536519916113604 0.343027991672401 0.555030949402645
    endloop
  endfacet
  facet normal 3.402036845816239e-10 -0.8944271913314678 -0.44721359483685424
    outer loop
      vertex 4.66291147918841e-10 0.866005655515285 -0.00909947467361603
      vertex -0.204932372774908 0.583940443921995 0.555030949402645
      vertex -0.331587543191283 0.758266331634498 0.206379173235088
    endloop
  endfacet
  facet normal 8.722021671036224e-15 -0.8944271912820344 -0.44721359493572066
    outer loop
      vertex -0.204932372774908 0.583940443921995 0.555030949402645
      vertex 4.66291147918841e-10 0.866005655515285 -0.00909947467361603
      vertex 0.204932371505065 0.583940443921999 0.555030949402645
    endloop
  endfacet
  facet normal -5.504862453028356e-10 -0.8944271913620261 -0.4472135947757375
    outer loop
      vertex 0.204932371505065 0.583940443921999 0.555030949402645
      vertex 4.66291147918841e-10 0.866005655515285 -0.00909947467361603
      vertex 0.331587544037774 0.758266331559087 0.206379173266805
    endloop
  endfacet
  facet normal 1.6022597197770684e-11 -0.5257311118222686 -0.8506508085355126
    outer loop
      vertex -0.204932372491272 0.235288667640509 0.77050959720676
      vertex 0.204932371505065 0.583940443921999 0.555030949402645
      vertex 0.204932371734709 0.235288667653002 0.770509597206759
    endloop
  endfacet
  facet normal 5.126675703765648e-15 -0.5257311118086433 -0.8506508085439335
    outer loop
      vertex 0.204932371505065 0.583940443921999 0.555030949402645
      vertex -0.204932372491272 0.235288667640509 0.77050959720676
      vertex -0.204932372774908 0.583940443921995 0.555030949402645
    endloop
  endfacet
  facet normal -0.49999999978932996 -0.6881909599716035 -0.5257311126650513
    outer loop
      vertex 0.331587544037774 0.758266331559087 0.206379173266805
      vertex 0.536519915210304 0.343027991672401 0.555030949402645
      vertex 0.204932371505065 0.583940443921999 0.555030949402645
    endloop
  endfacet
  facet normal -0.49999999996203814 -0.6881909599465076 -0.525731112533647
    outer loop
      vertex 0.536519915210304 0.343027991672401 0.555030949402645
      vertex 0.331587544037774 0.758266331559087 0.206379173266805
      vertex 0.663175087547468 0.51735387938379 0.206379173235088
    endloop
  endfacet
  facet normal -0.3568220896933299 -0.4911234730971827 -0.7946544723839704
    outer loop
      vertex 0.536519915210304 0.343027991672401 0.555030949402645
      vertex 0.204932371734709 0.235288667653002 0.770509597206759
      vertex 0.204932371505065 0.583940443921999 0.555030949402645
    endloop
  endfacet
  facet normal -0.8506508081317803 -0.2763932009701579 -0.44721359670991556
    outer loop
      vertex 0.86810745970889 0.235288667314942 -0.00909947467361603
      vertex 0.536519915210304 0.343027991672401 0.555030949402645
      vertex 0.663175087547468 0.51735387938379 0.206379173235088
    endloop
  endfacet
  facet normal -0.85065080782748 -0.27639320274436474 -0.44721359619220913
    outer loop
      vertex 0.868107459698271 -0.113363108785953 0.206379173266805
      vertex 0.536519915210304 0.343027991672401 0.555030949402645
      vertex 0.86810745970889 0.235288667314942 -0.00909947467361603
    endloop
  endfacet
  facet normal -0.8506508077915619 -0.2763932025960539 -0.44721359635219043
    outer loop
      vertex 0.536519915210304 0.343027991672401 0.555030949402645
      vertex 0.868107459698271 -0.113363108785953 0.206379173266805
      vertex 0.663175086898501 -0.0467765443856143 0.555030949402645
    endloop
  endfacet
  facet normal -0.4999999998881966 -0.16245984839056082 -0.8506508083654063
    outer loop
      vertex 0.331587543418096 -0.154515868349808 0.770509597206759
      vertex 0.536519915210304 0.343027991672401 0.555030949402645
      vertex 0.663175086898501 -0.0467765443856143 0.555030949402645
    endloop
  endfacet
  facet normal -0.4999999998702924 -0.16245984840158156 -0.8506508083738255
    outer loop
      vertex 0.536519915210304 0.343027991672401 0.555030949402645
      vertex 0.331587543418096 -0.154515868349808 0.770509597206759
      vertex 0.204932371734709 0.235288667653002 0.770509597206759
    endloop
  endfacet
  facet normal -0.8090169939300473 0.26286555510607224 -0.5257311132805119
    outer loop
      vertex 0.868107459698271 -0.113363108785953 0.206379173266805
      vertex 0.536519915838393 -0.436581080455002 0.555030949402645
      vertex 0.663175086898501 -0.0467765443856143 0.555030949402645
    endloop
  endfacet
  facet normal -0.809016994097732 0.2628655560837483 -0.5257311125336338
    outer loop
      vertex 0.536519915838393 -0.436581080455002 0.555030949402645
      vertex 0.868107459698271 -0.113363108785953 0.206379173266805
      vertex 0.741452288281843 -0.503167644646409 0.206379173235088
    endloop
  endfacet
  facet normal -0.5773502691437383 0.1875924734928764 -0.7946544724649055
    outer loop
      vertex 0.536519915838393 -0.436581080455002 0.555030949402645
      vertex 0.331587543418096 -0.154515868349808 0.770509597206759
      vertex 0.663175086898501 -0.0467765443856143 0.555030949402645
    endloop
  endfacet
  facet normal -0.5257311122114097 0.7236067973995584 -0.4472135959584733
    outer loop
      vertex 0.20493237247602 -0.892972180811321 0.206379173311237
      vertex 0.536519915838393 -0.436581080455002 0.555030949402645
      vertex 0.741452288281843 -0.503167644646409 0.206379173235088
    endloop
  endfacet
  facet normal -0.525731112508554 0.7236067973767665 -0.4472135956460374
    outer loop
      vertex 0.536519915838393 -0.436581080455002 0.555030949402645
      vertex 0.20493237247602 -0.892972180811321 0.206379173311237
      vertex 0.204932372521327 -0.677493532734374 0.555030949402645
    endloop
  endfacet
  facet normal -0.5257311124962417 0.7236067977915958 -0.4472135949893036
    outer loop
      vertex 0.20493237247602 -0.892972180811321 0.206379173311237
      vertex 0.741452288281843 -0.503167644646409 0.206379173235088
      vertex 0.536519916029172 -0.785232856648964 -0.00909947467361603
    endloop
  endfacet
  facet normal -0.30901699440838304 0.42532540368762367 -0.8506508085840919
    outer loop
      vertex 0.204932372521327 -0.677493532734374 0.555030949402645
      vertex 0.331587543418096 -0.154515868349808 0.770509597206759
      vertex 0.536519915838393 -0.436581080455002 0.555030949402645
    endloop
  endfacet
  facet normal -0.30901699353753803 0.42532540362082705 -0.8506508089338431
    outer loop
      vertex 0.331587543418096 -0.154515868349808 0.770509597206759
      vertex 0.204932372521327 -0.677493532734374 0.555030949402645
      vertex 3.35329131023137e-10 -0.395428320269112 0.770509596981137
    endloop
  endfacet
  facet normal 0.3090169937833146 0.9510565164873866 9.819177765445064e-10
    outer loop
      vertex 2.22952387723639e-10 -0.959558744407932 -0.142272602988092
      vertex -0.536519915584089 -0.785232856847492 -0.00909947454560291
      vertex -0.204932371853514 -0.892972180825466 0.20637917328835
    endloop
  endfacet
  facet normal 0.3090169937833144 0.9510565164873868 9.819167446826279e-10
    outer loop
      vertex -0.536519915584089 -0.785232856847492 -0.00909947454560291
      vertex 2.22952387723639e-10 -0.959558744407932 -0.142272602988092
      vertex -0.331587543495199 -0.851819420433995 -0.357751250653437
    endloop
  endfacet
  facet normal -2.3423514314192724e-11 0.9822469466688156 -0.18759247255630768
    outer loop
      vertex 0.20493237247602 -0.892972180811321 0.206379173311237
      vertex 2.22952387723639e-10 -0.959558744407932 -0.142272602988092
      vertex -0.204932371853514 -0.892972180825466 0.20637917328835
    endloop
  endfacet
  facet normal 0.8506508082382692 0.2763932032489506 0.44721359509899006
    outer loop
      vertex -0.331587544528882 0.0609627806694797 -0.921881673240278
      vertex -0.741452288017753 0.409614555902429 -0.357751250760014
      vertex -0.868107458971976 0.235288667584251 -0.00909947467361603
    endloop
  endfacet
  facet normal 0.8506508082382693 0.2763932025289335 0.447213595543985
    outer loop
      vertex -0.741452288017753 0.409614555902429 -0.357751250760014
      vertex -0.331587544528882 0.0609627806694797 -0.921881673240278
      vertex -0.536519916947709 0.343027992123399 -0.706403024834488
    endloop
  endfacet
  facet normal 0.8506508083802607 0.2763932020750202 0.4472135955544351
    outer loop
      vertex -0.204932372717398 -0.328841755281291 -0.921881673860305
      vertex -0.868107458971976 0.235288667584251 -0.00909947467361603
      vertex -0.868107459059675 -0.113363108575217 0.206379173235088
    endloop
  endfacet
  facet normal 0.8506508083802609 0.27639320242107646 0.4472135953405604
    outer loop
      vertex -0.868107458971976 0.235288667584251 -0.00909947467361603
      vertex -0.204932372717398 -0.328841755281291 -0.921881673860305
      vertex -0.331587544528882 0.0609627806694797 -0.921881673240278
    endloop
  endfacet
  facet normal 0.8506508083538461 0.27639320193933126 0.4472135956885393
    outer loop
      vertex -0.204932372327182 -0.6774935317398 -0.706403026534111
      vertex -0.868107459059675 -0.113363108575217 0.206379173235088
      vertex -0.74145228773907 -0.50316764475886 0.206379173280269
    endloop
  endfacet
  facet normal 0.8506508083538461 0.27639320222903035 0.4472135955094955
    outer loop
      vertex -0.868107459059675 -0.113363108575217 0.206379173235088
      vertex -0.204932372327182 -0.6774935317398 -0.706403026534111
      vertex -0.204932372717398 -0.328841755281291 -0.921881673860305
    endloop
  endfacet
  facet normal 0.850650808325918 0.27639320194705225 0.4472135957368897
    outer loop
      vertex -0.331587543495199 -0.851819420433995 -0.357751250653437
      vertex -0.74145228773907 -0.50316764475886 0.206379173280269
      vertex -0.536519915584089 -0.785232856847492 -0.00909947454560291
    endloop
  endfacet
  facet normal 0.8506508083259179 0.2763932021021642 0.44721359564102536
    outer loop
      vertex -0.74145228773907 -0.50316764475886 0.206379173280269
      vertex -0.331587543495199 -0.851819420433995 -0.357751250653437
      vertex -0.204932372327182 -0.6774935317398 -0.706403026534111
    endloop
  endfacet
  facet normal 0.5773502688915866 -0.7946544721598211 -0.18759247556127776
    outer loop
      vertex -0.536519915808383 0.691679767869995 -0.142272602685911
      vertex -0.331587543191283 0.758266331634498 0.206379173235088
      vertex -0.663175086765436 0.51735387954792 0.206379173266805
    endloop
  endfacet
  facet normal 0.8090169947225692 -0.5877852518140129 -1.122449562417741e-9
    outer loop
      vertex -0.868107458971976 0.235288667584251 -0.00909947467361603
      vertex -0.536519915808383 0.691679767869995 -0.142272602685911
      vertex -0.663175086765436 0.51735387954792 0.206379173266805
    endloop
  endfacet
  facet normal 0.8090169947225697 -0.587785251814012 -1.122445918054321e-9
    outer loop
      vertex -0.536519915808383 0.691679767869995 -0.142272602685911
      vertex -0.868107458971976 0.235288667584251 -0.00909947467361603
      vertex -0.741452288017753 0.409614555902429 -0.357751250760014
    endloop
  endfacet
  facet normal 0.30901699365279295 -0.9510565165297958 -8.797111038531771e-10
    outer loop
      vertex -0.536519915808383 0.691679767869995 -0.142272602685911
      vertex 4.66291147918841e-10 0.866005655515285 -0.00909947467361603
      vertex -0.331587543191283 0.758266331634498 0.206379173235088
    endloop
  endfacet
  facet normal 0.30901699304090163 -0.9510565167286114 1.8456929336701897e-9
    outer loop
      vertex 4.66291147918841e-10 0.866005655515285 -0.00909947467361603
      vertex -0.536519915808383 0.691679767869995 -0.142272602685911
      vertex -0.204932371650245 0.799419091060077 -0.357751250660532
    endloop
  endfacet
  facet normal -0.5773502691276918 -0.7946544719882791 -0.18759247556128447
    outer loop
      vertex 0.53651991633901 0.6916797679563 -0.142272602685911
      vertex 0.663175087547468 0.51735387938379 0.206379173235088
      vertex 0.331587544037774 0.758266331559087 0.206379173266805
    endloop
  endfacet
  facet normal -0.309016993778319 -0.9510565164890098 -1.1224574237219866e-9
    outer loop
      vertex 4.66291147918841e-10 0.866005655515285 -0.00909947467361603
      vertex 0.53651991633901 0.6916797679563 -0.142272602685911
      vertex 0.331587544037774 0.758266331559087 0.206379173266805
    endloop
  endfacet
  facet normal -0.3090169937783181 -0.9510565164890101 -1.1224534487762209e-9
    outer loop
      vertex 0.53651991633901 0.6916797679563 -0.142272602685911
      vertex 4.66291147918841e-10 0.866005655515285 -0.00909947467361603
      vertex 0.204932372762947 0.799419091913985 -0.357751250760014
    endloop
  endfacet
  facet normal -0.8090169950602744 -0.5877852513492015 9.949414541342755e-10
    outer loop
      vertex 0.86810745970889 0.235288667314942 -0.00909947467361603
      vertex 0.53651991633901 0.6916797679563 -0.142272602685911
      vertex 0.741452288216277 0.409614555328819 -0.357751250806997
    endloop
  endfacet
  facet normal -0.8090169948001523 -0.5877852517072286 -8.797133357235814e-10
    outer loop
      vertex 0.53651991633901 0.6916797679563 -0.142272602685911
      vertex 0.86810745970889 0.235288667314942 -0.00909947467361603
      vertex 0.663175087547468 0.51735387938379 0.206379173235088
    endloop
  endfacet
  facet normal -0.8506508081628034 0.27639320249662547 0.44721359570749747
    outer loop
      vertex 0.331587543540166 0.0609627791128544 -0.921881674687753
      vertex 0.741452288216277 0.409614555328819 -0.357751250806997
      vertex 0.536519915848414 0.343027991157938 -0.706403026950645
    endloop
  endfacet
  facet normal -0.8506508081628033 0.2763932024966291 0.44721359570749525
    outer loop
      vertex 0.741452288216277 0.409614555328819 -0.357751250806997
      vertex 0.331587543540166 0.0609627791128544 -0.921881674687753
      vertex 0.86810745970889 0.235288667314942 -0.00909947467361603
    endloop
  endfacet
  facet normal -0.8506508081628058 0.2763932024966147 0.4472135957074994
    outer loop
      vertex 0.204932372072115 -0.328841756821833 -0.921881674537045
      vertex 0.86810745970889 0.235288667314942 -0.00909947467361603
      vertex 0.331587543540166 0.0609627791128544 -0.921881674687753
    endloop
  endfacet
  facet normal -0.8506508081628058 0.276393202496615 0.4472135957074993
    outer loop
      vertex 0.86810745970889 0.235288667314942 -0.00909947467361603
      vertex 0.204932372072115 -0.328841756821833 -0.921881674537045
      vertex 0.868107459698271 -0.113363108785953 0.206379173266805
    endloop
  endfacet
  facet normal -0.8506508079970473 0.2763932034630609 0.44721359542549416
    outer loop
      vertex 0.204932372066061 -0.677493531345518 -0.706403026673383
      vertex 0.868107459698271 -0.113363108785953 0.206379173266805
      vertex 0.204932372072115 -0.328841756821833 -0.921881674537045
    endloop
  endfacet
  facet normal -0.8506508079970473 0.27639320217344465 0.4472135962225209
    outer loop
      vertex 0.868107459698271 -0.113363108785953 0.206379173266805
      vertex 0.204932372066061 -0.677493531345518 -0.706403026673383
      vertex 0.741452288281843 -0.503167644646409 0.206379173235088
    endloop
  endfacet
  facet normal -0.850650808071822 0.2763932017374748 0.4472135963497351
    outer loop
      vertex 0.331587543690393 -0.851819419822663 -0.357751250825527
      vertex 0.741452288281843 -0.503167644646409 0.206379173235088
      vertex 0.204932372066061 -0.677493531345518 -0.706403026673383
    endloop
  endfacet
  facet normal -0.8506508080718219 0.2763932013669668 0.4472135965787216
    outer loop
      vertex 0.741452288281843 -0.503167644646409 0.206379173235088
      vertex 0.331587543690393 -0.851819419822663 -0.357751250825527
      vertex 0.536519916029172 -0.785232856648964 -0.00909947467361603
    endloop
  endfacet
  facet normal -0.30901699418750606 0.951056516356057 1.3625174802298827e-9
    outer loop
      vertex 0.536519916029172 -0.785232856648964 -0.00909947467361603
      vertex 2.22952387723639e-10 -0.959558744407932 -0.142272602988092
      vertex 0.20493237247602 -0.892972180811321 0.206379173311237
    endloop
  endfacet
  facet normal -0.3090169945107235 0.9510565162510373 2.802149179841309e-9
    outer loop
      vertex 2.22952387723639e-10 -0.959558744407932 -0.142272602988092
      vertex 0.536519916029172 -0.785232856648964 -0.00909947467361603
      vertex 0.331587543690393 -0.851819419822663 -0.357751250825527
    endloop
  endfacet
  facet normal -7.084556653835538e-10 0.8944271903292847 0.4472135968412202
    outer loop
      vertex 0.204932372066061 -0.677493531345518 -0.706403026673383
      vertex 2.22952387723639e-10 -0.959558744407932 -0.142272602988092
      vertex 0.331587543690393 -0.851819419822663 -0.357751250825527
    endloop
  endfacet
  facet normal -7.08458564907141e-10 0.8944271903292852 0.44721359684121936
    outer loop
      vertex -0.204932372327182 -0.6774935317398 -0.706403026534111
      vertex 2.22952387723639e-10 -0.959558744407932 -0.142272602988092
      vertex 0.204932372066061 -0.677493531345518 -0.706403026673383
    endloop
  endfacet
  facet normal -7.084570725732062e-10 0.8944271903292853 0.4472135968412189
    outer loop
      vertex 2.22952387723639e-10 -0.959558744407932 -0.142272602988092
      vertex -0.204932372327182 -0.6774935317398 -0.706403026534111
      vertex -0.331587543495199 -0.851819420433995 -0.357751250653437
    endloop
  endfacet
  facet normal 2.09193536004642e-9 -0.9822469464161636 0.18759247387921024
    outer loop
      vertex -0.204932371650245 0.799419091060077 -0.357751250660532
      vertex 0.204932372762947 0.799419091913985 -0.357751250760014
      vertex 4.66291147918841e-10 0.866005655515285 -0.00909947467361603
    endloop
  endfacet
  facet normal 3.380579299464699e-9 0.5257311138317522 0.8506508072935834
    outer loop
      vertex -0.204932372717398 -0.328841755281291 -0.921881673860305
      vertex 0.204932372066061 -0.677493531345518 -0.706403026673383
      vertex 0.204932372072115 -0.328841756821833 -0.921881674537045
    endloop
  endfacet
  facet normal -2.1669222844737996e-10 0.5257311107717303 0.8506508091847811
    outer loop
      vertex 0.204932372066061 -0.677493531345518 -0.706403026673383
      vertex -0.204932372717398 -0.328841755281291 -0.921881673860305
      vertex -0.204932372327182 -0.6774935317398 -0.706403026534111
    endloop
  endfacet
  facet normal 4.171333558471204e-9 -9.687238876256086e-10 1
    outer loop
      vertex -1.14399488230083e-9 0.301875233329775 -0.921881673071213
      vertex 0.204932372072115 -0.328841756821833 -0.921881674537045
      vertex 0.331587543540166 0.0609627791128544 -0.921881674687753
    endloop
  endfacet
  facet normal 1.6511300452729363e-9 -1.7875876490460075e-9 1
    outer loop
      vertex -1.14399488230083e-9 0.301875233329775 -0.921881673071213
      vertex -0.204932372717398 -0.328841755281291 -0.921881673860305
      vertex 0.204932372072115 -0.328841756821833 -0.921881674537045
    endloop
  endfacet
  facet normal 5.224472927973379e-10 -1.420856393355264e-9 1
    outer loop
      vertex -0.204932372717398 -0.328841755281291 -0.921881673860305
      vertex -1.14399488230083e-9 0.301875233329775 -0.921881673071213
      vertex -0.331587544528882 0.0609627806694797 -0.921881673240278
    endloop
  endfacet
  facet normal 0.3090169953657922 -0.4253254050168273 0.850650807571691
    outer loop
      vertex -0.204932373601665 0.583940444724612 -0.70640302468085
      vertex -0.331587544528882 0.0609627806694797 -0.921881673240278
      vertex -1.14399488230083e-9 0.301875233329775 -0.921881673071213
    endloop
  endfacet
  facet normal 0.30901699536578253 -0.4253254050168266 0.8506508075716948
    outer loop
      vertex -0.331587544528882 0.0609627806694797 -0.921881673240278
      vertex -0.204932373601665 0.583940444724612 -0.70640302468085
      vertex -0.536519916947709 0.343027992123399 -0.706403024834488
    endloop
  endfacet
  facet normal 0.5257311106329404 -0.723606798055843 0.44721359675218475
    outer loop
      vertex -0.741452288017753 0.409614555902429 -0.357751250760014
      vertex -0.204932371650245 0.799419091060077 -0.357751250660532
      vertex -0.536519915808383 0.691679767869995 -0.142272602685911
    endloop
  endfacet
  facet normal 0.5257311110651288 -0.7236067986506994 0.4472135952816183
    outer loop
      vertex -0.536519916947709 0.343027992123399 -0.706403024834488
      vertex -0.204932371650245 0.799419091060077 -0.357751250660532
      vertex -0.741452288017753 0.409614555902429 -0.357751250760014
    endloop
  endfacet
  facet normal 0.5257311137345402 -0.7236067984459473 0.4472135924748332
    outer loop
      vertex -0.204932371650245 0.799419091060077 -0.357751250660532
      vertex -0.536519916947709 0.343027992123399 -0.706403024834488
      vertex -0.204932373601665 0.583940444724612 -0.70640302468085
    endloop
  endfacet
  facet normal -0.3090169944294232 -0.42532540368052746 0.8506508085799966
    outer loop
      vertex 0.204932372241144 0.583940443489116 -0.706403027040376
      vertex 0.331587543540166 0.0609627791128544 -0.921881674687753
      vertex 0.536519915848414 0.343027991157938 -0.706403026950645
    endloop
  endfacet
  facet normal -0.3090169912926092 -0.42532540343992403 0.8506508098398127
    outer loop
      vertex 0.331587543540166 0.0609627791128544 -0.921881674687753
      vertex 0.204932372241144 0.583940443489116 -0.706403027040376
      vertex -1.14399488230083e-9 0.301875233329775 -0.921881673071213
    endloop
  endfacet
  facet normal -0.5257311126579561 -0.7236067968999035 0.44721359624198503
    outer loop
      vertex 0.204932372762947 0.799419091913985 -0.357751250760014
      vertex 0.741452288216277 0.409614555328819 -0.357751250806997
      vertex 0.53651991633901 0.6916797679563 -0.142272602685911
    endloop
  endfacet
  facet normal -0.5257311120311419 -0.7236067970307869 0.44721359676707567
    outer loop
      vertex 0.536519915848414 0.343027991157938 -0.706403026950645
      vertex 0.204932372762947 0.799419091913985 -0.357751250760014
      vertex 0.204932372241144 0.583940443489116 -0.706403027040376
    endloop
  endfacet
  facet normal -0.5257311127149416 -0.7236067969783372 0.447213596048086
    outer loop
      vertex 0.204932372762947 0.799419091913985 -0.357751250760014
      vertex 0.536519915848414 0.343027991157938 -0.706403026950645
      vertex 0.741452288216277 0.409614555328819 -0.357751250806997
    endloop
  endfacet
  facet normal 2.744771828710729e-9 -0.6070619986776162 0.7946544719320078
    outer loop
      vertex 0.204932372241144 0.583940443489116 -0.706403027040376
      vertex -0.204932373601665 0.583940444724612 -0.70640302468085
      vertex -1.14399488230083e-9 0.301875233329775 -0.921881673071213
    endloop
  endfacet
  facet normal 1.8998420935606766e-9 -0.8506508086215905 0.5257311116829917
    outer loop
      vertex -0.204932373601665 0.583940444724612 -0.70640302468085
      vertex 0.204932372762947 0.799419091913985 -0.357751250760014
      vertex -0.204932371650245 0.799419091060077 -0.357751250660532
    endloop
  endfacet
  facet normal 4.62348975679689e-10 -0.8506508078658556 0.5257311129057963
    outer loop
      vertex 0.204932372762947 0.799419091913985 -0.357751250760014
      vertex -0.204932373601665 0.583940444724612 -0.70640302468085
      vertex 0.204932372241144 0.583940443489116 -0.706403027040376
    endloop
  endfacet
  facet normal 5.504793469429788e-10 1.7886158255151534e-10 -1
    outer loop
      vertex 3.35329131023137e-10 -0.395428320269112 0.770509596981137
      vertex 0.204932371734709 0.235288667653002 0.770509597206759
      vertex 0.331587543418096 -0.154515868349808 0.770509597206759
    endloop
  endfacet
  facet normal -2.437890072911481e-15 3.577239562282672e-10 -1
    outer loop
      vertex 3.35329131023137e-10 -0.395428320269112 0.770509596981137
      vertex -0.204932372491272 0.235288667640509 0.77050959720676
      vertex 0.204932371734709 0.235288667653002 0.770509597206759
    endloop
  endfacet
  facet normal 5.482062500617765e-10 5.358477572035294e-10 -1
    outer loop
      vertex -0.204932372491272 0.235288667640509 0.77050959720676
      vertex 3.35329131023137e-10 -0.395428320269112 0.770509596981137
      vertex -0.331587543287536 -0.154515868139244 0.770509596928451
    endloop
  endfacet
endsolid OpenSCAD_Model
