solid OpenSCAD_Model
  facet normal 0.5257311120784863 0.7236067975847228 -0.4472135958151317
    outer loop
      vertex -0.204932372015176 -0.892972180813965 0.206379173298529
      vertex -0.536519915733541 -0.436581080420992 0.555030949430022
      vertex -0.204932372033578 -0.677493532712244 0.555030949430022
    endloop
  endfacet
  facet normal 0.525731112078487 0.7236067975847228 -0.44721359581513104
    outer loop
      vertex -0.204932372015176 -0.892972180813965 0.206379173298529
      vertex -0.741452287927195 -0.503167644728132 0.206379173290448
      vertex -0.536519915733541 -0.436581080420992 0.555030949430022
    endloop
  endfacet
  facet normal 0.5257311120784862 0.7236067975847217 -0.44721359581513404
    outer loop
      vertex -0.741452287927195 -0.503167644728132 0.206379173290448
      vertex -0.204932372015176 -0.892972180813965 0.206379173298529
      vertex -0.536519915762107 -0.785232856830677 -0.00909947454605164
    endloop
  endfacet
  facet normal 2.3379050229253956e-18 0.8506508081180595 -0.5257311124977218
    outer loop
      vertex 0.204932372334574 -0.89297218079982 0.206379173321417
      vertex -0.204932372033578 -0.677493532712244 0.555030949430022
      vertex 0.204932372379882 -0.677493532712244 0.555030949430022
    endloop
  endfacet
  facet normal 1.1251332884548708e-15 0.8506508081180602 -0.5257311124977208
    outer loop
      vertex -0.204932372033578 -0.677493532712244 0.555030949430022
      vertex 0.204932372334574 -0.89297218079982 0.206379173321417
      vertex -0.204932372015176 -0.892972180813965 0.206379173298529
    endloop
  endfacet
  facet normal 0 0.5257311119137725 -0.8506508084789601
    outer loop
      vertex -0.204932372033578 -0.677493532712244 0.555030949430022
      vertex 0.204932372361475 -0.328841756509916 0.770509597244762
      vertex 0.204932372379882 -0.677493532712244 0.555030949430022
    endloop
  endfacet
  facet normal 6.652659510431282e-10 0.5257311113478635 -0.850650808828711
    outer loop
      vertex 0.204932372361475 -0.328841756509916 0.770509597244762
      vertex -0.204932372033578 -0.677493532712244 0.555030949430022
      vertex -0.204932371650793 -0.328841756356331 0.770509597019141
    endloop
  endfacet
  facet normal 0.3568220891835709 0.49112347230282927 -0.7946544731038037
    outer loop
      vertex -0.536519915733541 -0.436581080420992 0.555030949430022
      vertex -0.204932371650793 -0.328841756356331 0.770509597019141
      vertex -0.204932372033578 -0.677493532712244 0.555030949430022
    endloop
  endfacet
  facet normal 0.8090169944926383 0.26286555596931505 -0.5257311119831519
    outer loop
      vertex -0.536519915733541 -0.436581080420992 0.555030949430022
      vertex -0.868107459254048 -0.113363108525263 0.206379173245267
      vertex -0.663175087096445 -0.0467765444287305 0.555030949430022
    endloop
  endfacet
  facet normal 0.8090169944421832 0.2628655556751399 -0.5257311122078818
    outer loop
      vertex -0.868107459254048 -0.113363108525263 0.206379173245267
      vertex -0.536519915733541 -0.436581080420992 0.555030949430022
      vertex -0.741452287927195 -0.503167644728132 0.206379173290448
    endloop
  endfacet
  facet normal 0.49999999901509184 0.1624598477170186 -0.8506508090072397
    outer loop
      vertex -0.536519915733541 -0.436581080420992 0.555030949430022
      vertex -0.331587543052429 0.0609627794792774 0.770509596966454
      vertex -0.204932371650793 -0.328841756356331 0.770509597019141
    endloop
  endfacet
  facet normal 0.49999999901508513 0.16245984771702263 -0.8506508090072428
    outer loop
      vertex -0.331587543052429 0.0609627794792774 0.770509596966454
      vertex -0.536519915733541 -0.436581080420992 0.555030949430022
      vertex -0.663175087096445 -0.0467765444287305 0.555030949430022
    endloop
  endfacet
  facet normal 0.8506508083864394 -0.2763932023794346 -0.4472135953545446
    outer loop
      vertex -0.53651991562854 0.343027991529413 0.555030949430022
      vertex -0.868107459166349 0.235288667651403 -0.00909947467406477
      vertex -0.663175086949701 0.517353879628984 0.206379173276984
    endloop
  endfacet
  facet normal 0.8506508083864419 -0.27639320237942455 -0.4472135953545458
    outer loop
      vertex -0.868107459254048 -0.113363108525263 0.206379173245267
      vertex -0.53651991562854 0.343027991529413 0.555030949430022
      vertex -0.663175087096445 -0.0467765444287305 0.555030949430022
    endloop
  endfacet
  facet normal 0.8506508083864414 -0.2763932023794225 -0.4472135953545481
    outer loop
      vertex -0.53651991562854 0.343027991529413 0.555030949430022
      vertex -0.868107459254048 -0.113363108525263 0.206379173245267
      vertex -0.868107459166349 0.235288667651403 -0.00909947467406477
    endloop
  endfacet
  facet normal 0.57735026805517 -0.18759247379671454 -0.7946544731840703
    outer loop
      vertex -0.53651991562854 0.343027991529413 0.555030949430022
      vertex -0.331587543052429 0.0609627794792774 0.770509596966454
      vertex -0.663175087096445 -0.0467765444287305 0.555030949430022
    endloop
  endfacet
  facet normal 0.4999999998879199 -0.6881909603701352 -0.5257311120496019
    outer loop
      vertex -0.331587543359192 0.758266331727446 0.206379173245267
      vertex -0.53651991562854 0.343027991529413 0.555030949430022
      vertex -0.663175086949701 0.517353879628984 0.206379173276984
    endloop
  endfacet
  facet normal 0.4999999999752433 -0.6881909603574464 -0.5257311119831622
    outer loop
      vertex -0.53651991562854 0.343027991529413 0.555030949430022
      vertex -0.331587543359192 0.758266331727446 0.206379173245267
      vertex -0.204932371976951 0.583940443694539 0.555030949430022
    endloop
  endfacet
  facet normal 0.30901699488943324 -0.4253254035652263 -0.850650808470539
    outer loop
      vertex -0.331587543052429 0.0609627794792774 0.770509596966454
      vertex -0.204932371976951 0.583940443694539 0.555030949430022
      vertex 1.9382794864288e-10 0.301875231594945 0.770509597244763
    endloop
  endfacet
  facet normal 0.30901699380047537 -0.4253254034816997 -0.8506508089078892
    outer loop
      vertex -0.204932371976951 0.583940443694539 0.555030949430022
      vertex -0.331587543052429 0.0609627794792774 0.770509596966454
      vertex -0.53651991562854 0.343027991529413 0.555030949430022
    endloop
  endfacet
  facet normal -8.033074468609777e-11 -0.8944271910726146 -0.44721359535456046
    outer loop
      vertex 3.14737239174699e-10 0.866005655613546 -0.00909947467406477
      vertex -0.204932371976951 0.583940443694539 0.555030949430022
      vertex -0.331587543359192 0.758266331727446 0.206379173245267
    endloop
  endfacet
  facet normal -8.031988613170998e-11 -0.8944271910726163 -0.44721359535455724
    outer loop
      vertex -0.204932371976951 0.583940443694539 0.555030949430022
      vertex 3.14737239174699e-10 0.866005655613546 -0.00909947467406477
      vertex 0.204932372436504 0.583940443657733 0.555030949430022
    endloop
  endfacet
  facet normal -8.030740402615245e-11 -0.8944271910726145 -0.4472135953545609
    outer loop
      vertex 0.204932372436504 0.583940443657733 0.555030949430022
      vertex 3.14737239174699e-10 0.866005655613546 -0.00909947467406477
      vertex 0.331587543902576 0.758266331652034 0.206379173276985
    endloop
  endfacet
  facet normal -5.451438757600017e-11 -0.6070619979800473 -0.794654472464903
    outer loop
      vertex 0.204932372436504 0.583940443657733 0.555030949430022
      vertex 1.9382794864288e-10 0.301875231594945 0.770509597244763
      vertex -0.204932371976951 0.583940443694539 0.555030949430022
    endloop
  endfacet
  facet normal -0.5000000000746793 -0.6881909602344306 -0.5257311120496229
    outer loop
      vertex 0.331587543902576 0.758266331652034 0.206379173276985
      vertex 0.536519916044834 0.343027991433062 0.555030949430022
      vertex 0.204932372436504 0.583940443657733 0.555030949430022
    endloop
  endfacet
  facet normal -0.5000000001620094 -0.6881909602217409 -0.5257311119831783
    outer loop
      vertex 0.536519916044834 0.343027991433062 0.555030949430022
      vertex 0.331587543902576 0.758266331652034 0.206379173276985
      vertex 0.663175087428625 0.517353879464854 0.206379173245267
    endloop
  endfacet
  facet normal -0.3090169942927957 -0.4253254039987072 -0.8506508084705396
    outer loop
      vertex 0.331587543765816 0.0609627794121088 0.770509597244762
      vertex 0.204932372436504 0.583940443657733 0.555030949430022
      vertex 0.536519916044834 0.343027991433062 0.555030949430022
    endloop
  endfacet
  facet normal -0.3090169942718372 -0.4253254039970996 -0.8506508084789571
    outer loop
      vertex 0.204932372436504 0.583940443657733 0.555030949430022
      vertex 0.331587543765816 0.0609627794121088 0.770509597244762
      vertex 1.9382794864288e-10 0.301875231594945 0.770509597244763
    endloop
  endfacet
  facet normal -0.8506508084360749 -0.27639320222663494 -0.4472135953545675
    outer loop
      vertex 0.868107459600155 0.235288667382093 -0.00909947467406477
      vertex 0.536519916044834 0.343027991433062 0.555030949430022
      vertex 0.663175087428625 0.517353879464854 0.206379173245267
    endloop
  endfacet
  facet normal -0.8506508084360693 -0.2763932022266672 -0.44721359535455807
    outer loop
      vertex 0.868107459589536 -0.113363108735999 0.206379173276984
      vertex 0.536519916044834 0.343027991433062 0.555030949430022
      vertex 0.868107459600155 0.235288667382093 -0.00909947467406477
    endloop
  endfacet
  facet normal -0.8506508084360664 -0.27639320222665537 -0.4472135953545708
    outer loop
      vertex 0.536519916044834 0.343027991433062 0.555030949430022
      vertex 0.868107459589536 -0.113363108735999 0.206379173276984
      vertex 0.663175087442736 -0.046776544547829 0.555030949430022
    endloop
  endfacet
  facet normal -0.5773502689841846 -0.18759247398393913 -0.7946544724649038
    outer loop
      vertex 0.663175087442736 -0.046776544547829 0.555030949430022
      vertex 0.331587543765816 0.0609627794121088 0.770509597244762
      vertex 0.536519916044834 0.343027991433062 0.555030949430022
    endloop
  endfacet
  facet normal -0.8090169944063702 0.26286555610189677 -0.525731112049614
    outer loop
      vertex 0.868107459589536 -0.113363108735999 0.206379173276984
      vertex 0.536519916009835 -0.436581080517347 0.555030949430022
      vertex 0.663175087442736 -0.046776544547829 0.555030949430022
    endloop
  endfacet
  facet normal -0.8090169944212885 0.26286555618887747 -0.5257311119831667
    outer loop
      vertex 0.536519916009835 -0.436581080517347 0.555030949430022
      vertex 0.868107459589536 -0.113363108735999 0.206379173276984
      vertex 0.741452288166861 -0.503167644615682 0.206379173245267
    endloop
  endfacet
  facet normal -0.4999999997988566 0.162459848070949 -0.8506508084789596
    outer loop
      vertex 0.536519916009835 -0.436581080517347 0.555030949430022
      vertex 0.331587543765816 0.0609627794121088 0.770509597244762
      vertex 0.663175087442736 -0.046776544547829 0.555030949430022
    endloop
  endfacet
  facet normal -0.4999999998167627 0.1624598480599271 -0.8506508084705395
    outer loop
      vertex 0.331587543765816 0.0609627794121088 0.770509597244762
      vertex 0.536519916009835 -0.436581080517347 0.555030949430022
      vertex 0.204932372361475 -0.328841756509916 0.770509597244762
    endloop
  endfacet
  facet normal -0.525731112363557 0.7236067976089724 -0.4472135954407747
    outer loop
      vertex 0.204932372334574 -0.89297218079982 0.206379173321417
      vertex 0.536519916009835 -0.436581080517347 0.555030949430022
      vertex 0.741452288166861 -0.503167644615682 0.206379173245267
    endloop
  endfacet
  facet normal -0.5257311120161925 0.7236067976356163 -0.44721359580601516
    outer loop
      vertex 0.536519916009835 -0.436581080517347 0.555030949430022
      vertex 0.204932372334574 -0.89297218079982 0.206379173321417
      vertex 0.204932372379882 -0.677493532712244 0.555030949430022
    endloop
  endfacet
  facet normal -0.5257311124962409 0.7236067977915962 -0.4472135949893035
    outer loop
      vertex 0.204932372334574 -0.89297218079982 0.206379173321417
      vertex 0.741452288166861 -0.503167644615682 0.206379173245267
      vertex 0.536519915904082 -0.785232856632149 -0.00909947467406477
    endloop
  endfacet
  facet normal -0.35682208963105333 0.49112347301147136 -0.7946544724649066
    outer loop
      vertex 0.204932372379882 -0.677493532712244 0.555030949430022
      vertex 0.204932372361475 -0.328841756509916 0.770509597244762
      vertex 0.536519916009835 -0.436581080517347 0.555030949430022
    endloop
  endfacet
  facet normal 0.30901699378331354 0.9510565164873871 9.819178269979104e-10
    outer loop
      vertex 7.13984789674949e-11 -0.959558744399715 -0.142272602995109
      vertex -0.536519915762107 -0.785232856830677 -0.00909947454605164
      vertex -0.204932372015176 -0.892972180813965 0.206379173298529
    endloop
  endfacet
  facet normal 0.30901699378331354 0.9510565164873871 9.819177451646e-10
    outer loop
      vertex -0.536519915762107 -0.785232856830677 -0.00909947454605164
      vertex 7.13984789674949e-11 -0.959558744399715 -0.142272602995109
      vertex -0.331587543663108 -0.851819420420464 -0.357751250671083
    endloop
  endfacet
  facet normal -2.3423056985256412e-11 0.9822469466688156 -0.18759247255630712
    outer loop
      vertex 0.204932372334574 -0.89297218079982 0.206379173321417
      vertex 7.13984789674949e-11 -0.959558744399715 -0.142272602995109
      vertex -0.204932372015176 -0.892972180813965 0.206379173298529
    endloop
  endfacet
  facet normal 0.8506508082382687 0.276393203248953 0.4472135950989896
    outer loop
      vertex -0.331587544696791 0.0609627807280328 -0.921881673285749
      vertex -0.741452288205879 0.409614555978179 -0.35775125077766
      vertex -0.868107459166349 0.235288667651403 -0.00909947467406477
    endloop
  endfacet
  facet normal 0.8506508082382687 0.27639320252893135 0.4472135955439876
    outer loop
      vertex -0.741452288205879 0.409614555978179 -0.35775125077766
      vertex -0.331587544696791 0.0609627807280328 -0.921881673285749
      vertex -0.536519917125726 0.343027992195865 -0.706403024869331
    endloop
  endfacet
  facet normal 0.8506508083802607 0.2763932020750192 0.4472135955544359
    outer loop
      vertex -0.20493237287906 -0.328841755241965 -0.921881673905776
      vertex -0.868107459166349 0.235288667651403 -0.00909947467406477
      vertex -0.868107459254048 -0.113363108525263 0.206379173245267
    endloop
  endfacet
  facet normal 0.8506508083802607 0.2763932024210759 0.447213595340561
    outer loop
      vertex -0.868107459166349 0.235288667651403 -0.00909947467406477
      vertex -0.20493237287906 -0.328841755241965 -0.921881673905776
      vertex -0.331587544696791 0.0609627807280328 -0.921881673285749
    endloop
  endfacet
  facet normal 0.8506508083538459 0.27639320193933364 0.4472135956885383
    outer loop
      vertex -0.204932372488844 -0.677493531717671 -0.706403026568954
      vertex -0.868107459254048 -0.113363108525263 0.206379173245267
      vertex -0.741452287927195 -0.503167644728132 0.206379173290448
    endloop
  endfacet
  facet normal 0.8506508083538459 0.2763932022290302 0.447213595509496
    outer loop
      vertex -0.868107459254048 -0.113363108525263 0.206379173245267
      vertex -0.204932372488844 -0.677493531717671 -0.706403026568954
      vertex -0.20493237287906 -0.328841755241965 -0.921881673905776
    endloop
  endfacet
  facet normal 0.8506508083259181 0.27639320194704664 0.44721359573689284
    outer loop
      vertex -0.331587543663108 -0.851819420420464 -0.357751250671083
      vertex -0.741452287927195 -0.503167644728132 0.206379173290448
      vertex -0.536519915762107 -0.785232856830677 -0.00909947454605164
    endloop
  endfacet
  facet normal 0.8506508083259181 0.2763932021021645 0.44721359564102486
    outer loop
      vertex -0.741452287927195 -0.503167644728132 0.206379173290448
      vertex -0.331587543663108 -0.851819420420464 -0.357751250671083
      vertex -0.204932372488844 -0.677493531717671 -0.706403026568954
    endloop
  endfacet
  facet normal 0.5773502688915877 -0.7946544721598205 -0.1875924755612776
    outer loop
      vertex -0.5365199159864 0.691679767959658 -0.142272602692928
      vertex -0.331587543359192 0.758266331727446 0.206379173245267
      vertex -0.663175086949701 0.517353879628984 0.206379173276984
    endloop
  endfacet
  facet normal 0.8090169947225686 -0.5877852518140135 -1.1224493199281203e-9
    outer loop
      vertex -0.868107459166349 0.235288667651403 -0.00909947467406477
      vertex -0.5365199159864 0.691679767959658 -0.142272602692928
      vertex -0.663175086949701 0.517353879628984 0.206379173276984
    endloop
  endfacet
  facet normal 0.809016994722569 -0.587785251814013 -1.1224463198779831e-9
    outer loop
      vertex -0.5365199159864 0.691679767959658 -0.142272602692928
      vertex -0.868107459166349 0.235288667651403 -0.00909947467406477
      vertex -0.741452288205879 0.409614555978179 -0.35775125077766
    endloop
  endfacet
  facet normal 0.3090169936527918 -0.9510565165297963 -8.797085870740221e-10
    outer loop
      vertex -0.5365199159864 0.691679767959658 -0.142272602692928
      vertex 3.14737239174699e-10 0.866005655613546 -0.00909947467406477
      vertex -0.331587543359192 0.758266331727446 0.206379173245267
    endloop
  endfacet
  facet normal 0.309016993040901 -0.9510565167286115 1.8456925723390047e-9
    outer loop
      vertex 3.14737239174699e-10 0.866005655613546 -0.00909947467406477
      vertex -0.5365199159864 0.691679767959658 -0.142272602692928
      vertex -0.204932371811907 0.799419091155054 -0.357751250678177
    endloop
  endfacet
  facet normal -0.577350269127693 -0.7946544719882783 -0.18759247556128397
    outer loop
      vertex 0.536519916213919 0.691679768045963 -0.142272602692928
      vertex 0.663175087428625 0.517353879464854 0.206379173245267
      vertex 0.331587543902576 0.758266331652034 0.206379173276985
    endloop
  endfacet
  facet normal -0.3090169937783185 -0.95105651648901 -1.1224566214857863e-9
    outer loop
      vertex 3.14737239174699e-10 0.866005655613546 -0.00909947467406477
      vertex 0.536519916213919 0.691679768045963 -0.142272602692928
      vertex 0.331587543902576 0.758266331652034 0.206379173276985
    endloop
  endfacet
  facet normal -0.30901699377831787 -0.9510565164890102 -1.1224538272331943e-9
    outer loop
      vertex 0.536519916213919 0.691679768045963 -0.142272602692928
      vertex 3.14737239174699e-10 0.866005655613546 -0.00909947467406477
      vertex 0.204932372621501 0.799419092008962 -0.35775125077766
    endloop
  endfacet
  facet normal -0.8090169950602741 -0.5877852513492018 9.949397863781764e-10
    outer loop
      vertex 0.868107459600155 0.235288667382093 -0.00909947467406477
      vertex 0.536519916213919 0.691679768045963 -0.142272602692928
      vertex 0.741452288101295 0.409614555404569 -0.357751250824642
    endloop
  endfacet
  facet normal -0.8090169948001527 -0.5877852517072285 -8.797121676069461e-10
    outer loop
      vertex 0.536519916213919 0.691679768045963 -0.142272602692928
      vertex 0.868107459600155 0.235288667382093 -0.00909947467406477
      vertex 0.663175087428625 0.517353879464854 0.206379173245267
    endloop
  endfacet
  facet normal -0.8506508081628029 0.276393202496621 0.4472135957075007
    outer loop
      vertex 0.331587543404967 0.0609627791714075 -0.921881674733224
      vertex 0.741452288101295 0.409614555404569 -0.357751250824642
      vertex 0.536519915723323 0.343027991230404 -0.706403026985487
    endloop
  endfacet
  facet normal -0.850650808162803 0.27639320249662913 0.4472135957074957
    outer loop
      vertex 0.741452288101295 0.409614555404569 -0.357751250824642
      vertex 0.331587543404967 0.0609627791714075 -0.921881674733224
      vertex 0.868107459600155 0.235288667382093 -0.00909947467406477
    endloop
  endfacet
  facet normal -0.8506508081628056 0.2763932024966141 0.4472135957075
    outer loop
      vertex 0.204932371930669 -0.328841756782507 -0.921881674582516
      vertex 0.868107459600155 0.235288667382093 -0.00909947467406477
      vertex 0.331587543404967 0.0609627791714075 -0.921881674733224
    endloop
  endfacet
  facet normal -0.8506508081628056 0.27639320249661453 0.44721359570749986
    outer loop
      vertex 0.868107459600155 0.235288667382093 -0.00909947467406477
      vertex 0.204932371930669 -0.328841756782507 -0.921881674582516
      vertex 0.868107459589536 -0.113363108735999 0.206379173276984
    endloop
  endfacet
  facet normal -0.8506508079970471 0.2763932034630615 0.4472135954254945
    outer loop
      vertex 0.204932371924615 -0.677493531323388 -0.706403026708226
      vertex 0.868107459589536 -0.113363108735999 0.206379173276984
      vertex 0.204932371930669 -0.328841756782507 -0.921881674582516
    endloop
  endfacet
  facet normal -0.850650807997047 0.27639320217344376 0.447213596222522
    outer loop
      vertex 0.868107459589536 -0.113363108735999 0.206379173276984
      vertex 0.204932371924615 -0.677493531323388 -0.706403026708226
      vertex 0.741452288166861 -0.503167644615682 0.206379173245267
    endloop
  endfacet
  facet normal -0.8506508080718215 0.2763932017374747 0.44721359634973595
    outer loop
      vertex 0.331587543555195 -0.851819419809132 -0.357751250843172
      vertex 0.741452288166861 -0.503167644615682 0.206379173245267
      vertex 0.204932371924615 -0.677493531323388 -0.706403026708226
    endloop
  endfacet
  facet normal -0.8506508080718215 0.2763932013669678 0.4472135965787219
    outer loop
      vertex 0.741452288166861 -0.503167644615682 0.206379173245267
      vertex 0.331587543555195 -0.851819419809132 -0.357751250843172
      vertex 0.536519915904082 -0.785232856632149 -0.00909947467406477
    endloop
  endfacet
  facet normal -0.30901699418750495 0.9510565163560571 1.3625174427516888e-9
    outer loop
      vertex 0.536519915904082 -0.785232856632149 -0.00909947467406477
      vertex 7.13984789674949e-11 -0.959558744399715 -0.142272602995109
      vertex 0.204932372334574 -0.89297218079982 0.206379173321417
    endloop
  endfacet
  facet normal -0.30901699451072245 0.9510565162510376 2.8021492662045795e-9
    outer loop
      vertex 7.13984789674949e-11 -0.959558744399715 -0.142272602995109
      vertex 0.536519915904082 -0.785232856632149 -0.00909947467406477
      vertex 0.331587543555195 -0.851819419809132 -0.357751250843172
    endloop
  endfacet
  facet normal -7.08455447908754e-10 0.8944271903292845 0.44721359684122036
    outer loop
      vertex 0.204932371924615 -0.677493531323388 -0.706403026708226
      vertex 7.13984789674949e-11 -0.959558744399715 -0.142272602995109
      vertex 0.331587543555195 -0.851819419809132 -0.357751250843172
    endloop
  endfacet
  facet normal -7.084609876559916e-10 0.8944271903292854 0.44721359684121886
    outer loop
      vertex -0.204932372488844 -0.677493531717671 -0.706403026568954
      vertex 7.13984789674949e-11 -0.959558744399715 -0.142272602995109
      vertex 0.204932371924615 -0.677493531323388 -0.706403026708226
    endloop
  endfacet
  facet normal -7.084575792115983e-10 0.894427190329286 0.44721359684121775
    outer loop
      vertex 7.13984789674949e-11 -0.959558744399715 -0.142272602995109
      vertex -0.204932372488844 -0.677493531717671 -0.706403026568954
      vertex -0.331587543663108 -0.851819420420464 -0.357751250671083
    endloop
  endfacet
  facet normal 2.0919358172710225e-9 -0.9822469464161637 0.18759247387920952
    outer loop
      vertex -0.204932371811907 0.799419091155054 -0.357751250678177
      vertex 0.204932372621501 0.799419092008962 -0.35775125077766
      vertex 3.14737239174699e-10 0.866005655613546 -0.00909947467406477
    endloop
  endfacet
  facet normal 3.380579299297958e-9 0.5257311138317529 0.850650807293583
    outer loop
      vertex -0.20493237287906 -0.328841755241965 -0.921881673905776
      vertex 0.204932371924615 -0.677493531323388 -0.706403026708226
      vertex 0.204932371930669 -0.328841756782507 -0.921881674582516
    endloop
  endfacet
  facet normal -2.1669365251327246e-10 0.5257311107717297 0.8506508091847813
    outer loop
      vertex 0.204932371924615 -0.677493531323388 -0.706403026708226
      vertex -0.20493237287906 -0.328841755241965 -0.921881673905776
      vertex -0.204932372488844 -0.677493531717671 -0.706403026568954
    endloop
  endfacet
  facet normal 4.171333829140924e-9 -9.687239755905989e-10 1
    outer loop
      vertex -1.2955487911244e-9 0.301875233400211 -0.921881673116684
      vertex 0.204932371930669 -0.328841756782507 -0.921881674582516
      vertex 0.331587543404967 0.0609627791714075 -0.921881674733224
    endloop
  endfacet
  facet normal 1.6511300451914958e-9 -1.7875878249833817e-9 1
    outer loop
      vertex -1.2955487911244e-9 0.301875233400211 -0.921881673116684
      vertex -0.20493237287906 -0.328841755241965 -0.921881673905776
      vertex 0.204932371930669 -0.328841756782507 -0.921881674582516
    endloop
  endfacet
  facet normal 5.224474601818119e-10 -1.420856623705612e-9 1
    outer loop
      vertex -0.20493237287906 -0.328841755241965 -0.921881673905776
      vertex -1.2955487911244e-9 0.301875233400211 -0.921881673116684
      vertex -0.331587544696791 0.0609627807280328 -0.921881673285749
    endloop
  endfacet
  facet normal 0.30901699536579175 -0.4253254050168265 0.8506508075716914
    outer loop
      vertex -0.204932373763327 0.583940444808961 -0.706403024715693
      vertex -0.331587544696791 0.0609627807280328 -0.921881673285749
      vertex -1.2955487911244e-9 0.301875233400211 -0.921881673116684
    endloop
  endfacet
  facet normal 0.30901699536578237 -0.4253254050168257 0.8506508075716952
    outer loop
      vertex -0.331587544696791 0.0609627807280328 -0.921881673285749
      vertex -0.204932373763327 0.583940444808961 -0.706403024715693
      vertex -0.536519917125726 0.343027992195865 -0.706403024869331
    endloop
  endfacet
  facet normal 0.5257311106329398 -0.7236067980558437 0.4472135967521841
    outer loop
      vertex -0.741452288205879 0.409614555978179 -0.35775125077766
      vertex -0.204932371811907 0.799419091155054 -0.357751250678177
      vertex -0.5365199159864 0.691679767959658 -0.142272602692928
    endloop
  endfacet
  facet normal 0.5257311110651283 -0.7236067986507001 0.4472135952816186
    outer loop
      vertex -0.536519917125726 0.343027992195865 -0.706403024869331
      vertex -0.204932371811907 0.799419091155054 -0.357751250678177
      vertex -0.741452288205879 0.409614555978179 -0.35775125077766
    endloop
  endfacet
  facet normal 0.5257311137345411 -0.7236067984459476 0.44721359247483145
    outer loop
      vertex -0.204932371811907 0.799419091155054 -0.357751250678177
      vertex -0.536519917125726 0.343027992195865 -0.706403024869331
      vertex -0.204932373763327 0.583940444808961 -0.706403024715693
    endloop
  endfacet
  facet normal -0.30901699442942593 -0.4253254036805272 0.850650808579996
    outer loop
      vertex 0.204932372099698 0.583940443573465 -0.706403027075219
      vertex 0.331587543404967 0.0609627791714075 -0.921881674733224
      vertex 0.536519915723323 0.343027991230404 -0.706403026985487
    endloop
  endfacet
  facet normal -0.3090169912926089 -0.42532540343992337 0.8506508098398131
    outer loop
      vertex 0.331587543404967 0.0609627791714075 -0.921881674733224
      vertex 0.204932372099698 0.583940443573465 -0.706403027075219
      vertex -1.2955487911244e-9 0.301875233400211 -0.921881673116684
    endloop
  endfacet
  facet normal -0.5257311126579568 -0.7236067968999035 0.4472135962419841
    outer loop
      vertex 0.204932372621501 0.799419092008962 -0.35775125077766
      vertex 0.741452288101295 0.409614555404569 -0.357751250824642
      vertex 0.536519916213919 0.691679768045963 -0.142272602692928
    endloop
  endfacet
  facet normal -0.5257311120311433 -0.7236067970307863 0.44721359676707495
    outer loop
      vertex 0.536519915723323 0.343027991230404 -0.706403026985487
      vertex 0.204932372621501 0.799419092008962 -0.35775125077766
      vertex 0.204932372099698 0.583940443573465 -0.706403027075219
    endloop
  endfacet
  facet normal -0.5257311127149419 -0.7236067969783367 0.4472135960480865
    outer loop
      vertex 0.204932372621501 0.799419092008962 -0.35775125077766
      vertex 0.536519915723323 0.343027991230404 -0.706403026985487
      vertex 0.741452288101295 0.409614555404569 -0.357751250824642
    endloop
  endfacet
  facet normal 2.7447716133229563e-9 -0.6070619986776151 0.7946544719320086
    outer loop
      vertex 0.204932372099698 0.583940443573465 -0.706403027075219
      vertex -0.204932373763327 0.583940444808961 -0.706403024715693
      vertex -1.2955487911244e-9 0.301875233400211 -0.921881673116684
    endloop
  endfacet
  facet normal 1.899843346419397e-9 -0.8506508086215915 0.52573111168299
    outer loop
      vertex -0.204932373763327 0.583940444808961 -0.706403024715693
      vertex 0.204932372621501 0.799419092008962 -0.35775125077766
      vertex -0.204932371811907 0.799419091155054 -0.357751250678177
    endloop
  endfacet
  facet normal 4.623488047466161e-10 -0.8506508078658559 0.525731112905796
    outer loop
      vertex 0.204932372621501 0.799419092008962 -0.35775125077766
      vertex -0.204932373763327 0.583940444808961 -0.706403024715693
      vertex 0.204932372099698 0.583940443573465 -0.706403027075219
    endloop
  endfacet
  facet normal -2.4378791684902585e-15 7.921149588930677e-16 -1
    outer loop
      vertex 0.204932372361475 -0.328841756509916 0.770509597244762
      vertex 1.9382794864288e-10 0.301875231594945 0.770509597244763
      vertex 0.331587543765816 0.0609627794121088 0.770509597244762
    endloop
  endfacet
  facet normal 5.504766381540092e-10 1.788622862679879e-10 -1
    outer loop
      vertex -0.204932371650793 -0.328841756356331 0.770509597019141
      vertex 1.9382794864288e-10 0.301875231594945 0.770509597244763
      vertex 0.204932372361475 -0.328841756509916 0.770509597244762
    endloop
  endfacet
  facet normal 7.584728173874192e-10 1.1128023098931438e-10 -1
    outer loop
      vertex 1.9382794864288e-10 0.301875231594945 0.770509597244763
      vertex -0.204932371650793 -0.328841756356331 0.770509597019141
      vertex -0.331587543052429 0.0609627794792774 0.770509596966454
    endloop
  endfacet
endsolid OpenSCAD_Model
