solid OpenSCAD_Model
  facet normal 0.5257311120784868 0.7236067975847228 -0.44721359581513115
    outer loop
      vertex -0.212053434082056 -0.92937948676416 0.302137568860888
      vertex -0.555163098334814 -0.457129547976405 0.662904419473374
      vertex -0.212053434101097 -0.706413310849498 0.662904419473374
    endloop
  endfacet
  facet normal 0.5257311120784869 0.7236067975847228 -0.4472135958151311
    outer loop
      vertex -0.212053434082056 -0.92937948676416 0.302137568860888
      vertex -0.767216532638751 -0.526029885627726 0.302137568852526
      vertex -0.555163098334814 -0.457129547976405 0.662904419473374
    endloop
  endfacet
  facet normal 0.5257311120784868 0.7236067975847227 -0.44721359581513176
    outer loop
      vertex -0.767216532638751 -0.526029885627726 0.302137568852526
      vertex -0.212053434082056 -0.92937948676416 0.302137568860888
      vertex -0.555163098364373 -0.817896398876749 0.0791713932123004
    endloop
  endfacet
  facet normal 3.4259920981067534e-17 0.8506508081180598 -0.5257311124977213
    outer loop
      vertex 0.212053434486955 -0.929379486749524 0.302137568884571
      vertex -0.212053434101097 -0.706413310849498 0.662904419473374
      vertex 0.212053434533837 -0.706413310849498 0.662904419473374
    endloop
  endfacet
  facet normal 1.6312206822923172e-15 0.8506508081180608 -0.5257311124977199
    outer loop
      vertex -0.212053434101097 -0.706413310849498 0.662904419473374
      vertex 0.212053434486955 -0.929379486749524 0.302137568884571
      vertex -0.212053434082056 -0.92937948676416 0.302137568860888
    endloop
  endfacet
  facet normal 0 0 -1
    outer loop
      vertex 0.555163098695117 -0.457129548076105 0.662904419473374
      vertex 0.555163098731335 0.349569653967821 0.662904419473374
      vertex 0.686219328548943 -0.0537799470600251 0.662904419473374
    endloop
  endfacet
  facet normal 0 0 -1
    outer loop
      vertex 0.212053434533837 -0.706413310849498 0.662904419473374
      vertex 0.555163098731335 0.349569653967821 0.662904419473374
      vertex 0.555163098695117 -0.457129548076105 0.662904419473374
    endloop
  endfacet
  facet normal 0 0 -1
    outer loop
      vertex 0.212053434533837 -0.706413310849498 0.662904419473374
      vertex 0.21205343459244 0.598853416772024 0.662904419473374
      vertex 0.555163098731335 0.349569653967821 0.662904419473374
    endloop
  endfacet
  facet normal 0 0 -1
    outer loop
      vertex -0.212053434101097 -0.706413310849498 0.662904419473374
      vertex 0.21205343459244 0.598853416772024 0.662904419473374
      vertex 0.212053434533837 -0.706413310849498 0.662904419473374
    endloop
  endfacet
  facet normal 0 0 -1
    outer loop
      vertex -0.212053434101097 -0.706413310849498 0.662904419473374
      vertex -0.212053434042494 0.598853416810104 0.662904419473374
      vertex 0.21205343459244 0.598853416772024 0.662904419473374
    endloop
  endfacet
  facet normal 0 0 -1
    outer loop
      vertex -0.555163098334814 -0.457129547976405 0.662904419473374
      vertex -0.212053434042494 0.598853416810104 0.662904419473374
      vertex -0.212053434101097 -0.706413310849498 0.662904419473374
    endloop
  endfacet
  facet normal 0 0 -1
    outer loop
      vertex -0.555163098334814 -0.457129547976405 0.662904419473374
      vertex -0.55516309822616 0.34956965406752 0.662904419473374
      vertex -0.212053434042494 0.598853416810104 0.662904419473374
    endloop
  endfacet
  facet normal 0 0 -1
    outer loop
      vertex -0.55516309822616 0.34956965406752 0.662904419473374
      vertex -0.555163098334814 -0.457129547976405 0.662904419473374
      vertex -0.686219328116203 -0.0537799469367881 0.662904419473374
    endloop
  endfacet
  facet normal 0.8090169944926364 0.26286555596930355 -0.5257311119831604
    outer loop
      vertex -0.555163098334814 -0.457129547976405 0.662904419473374
      vertex -0.89827276238284 -0.122680284370187 0.302137568805775
      vertex -0.686219328116203 -0.0537799469367881 0.662904419473374
    endloop
  endfacet
  facet normal 0.8090169944421832 0.262865555675139 -0.525731112207882
    outer loop
      vertex -0.89827276238284 -0.122680284370187 0.302137568805775
      vertex -0.555163098334814 -0.457129547976405 0.662904419473374
      vertex -0.767216532638751 -0.526029885627726 0.302137568852526
    endloop
  endfacet
  facet normal 0.8506508083864381 -0.2763932023794296 -0.44721359535454996
    outer loop
      vertex -0.55516309822616 0.34956965406752 0.662904419473374
      vertex -0.898272762292094 0.238086566289041 0.0791713930798391
      vertex -0.686219327964364 0.529953079408759 0.302137568838594
    endloop
  endfacet
  facet normal 0.850650808386439 -0.27639320237942516 -0.44721359535455096
    outer loop
      vertex -0.89827276238284 -0.122680284370187 0.302137568805775
      vertex -0.55516309822616 0.34956965406752 0.662904419473374
      vertex -0.686219328116203 -0.0537799469367881 0.662904419473374
    endloop
  endfacet
  facet normal 0.8506508083864389 -0.2763932023794248 -0.44721359535455135
    outer loop
      vertex -0.55516309822616 0.34956965406752 0.662904419473374
      vertex -0.89827276238284 -0.122680284370187 0.302137568805775
      vertex -0.898272762292094 0.238086566289041 0.0791713930798391
    endloop
  endfacet
  facet normal 0.4999999998879192 -0.6881909603701363 -0.5257311120496011
    outer loop
      vertex -0.343109663843904 0.779236842082362 0.302137568805775
      vertex -0.55516309822616 0.34956965406752 0.662904419473374
      vertex -0.686219327964364 0.529953079408759 0.302137568838594
    endloop
  endfacet
  facet normal 0.4999999999752386 -0.6881909603574481 -0.5257311119831646
    outer loop
      vertex -0.55516309822616 0.34956965406752 0.662904419473374
      vertex -0.343109663843904 0.779236842082362 0.302137568805775
      vertex -0.212053434042494 0.598853416810104 0.662904419473374
    endloop
  endfacet
  facet normal -8.032261115398779e-11 -0.8944271910726178 -0.44721359535455407
    outer loop
      vertex 3.6287529236727e-10 0.890719929869209 0.0791713930798391
      vertex -0.212053434042494 0.598853416810104 0.662904419473374
      vertex -0.343109663843904 0.779236842082362 0.302137568805775
    endloop
  endfacet
  facet normal -8.03094108962489e-11 -0.8944271910726197 -0.4472135953545502
    outer loop
      vertex -0.212053434042494 0.598853416810104 0.662904419473374
      vertex 3.6287529236727e-10 0.890719929869209 0.0791713930798391
      vertex 0.21205343459244 0.598853416772024 0.662904419473374
    endloop
  endfacet
  facet normal -8.031785421854102e-11 -0.8944271910726209 -0.4472135953545478
    outer loop
      vertex 0.21205343459244 0.598853416772024 0.662904419473374
      vertex 3.6287529236727e-10 0.890719929869209 0.0791713930798391
      vertex 0.343109664480572 0.779236842004331 0.302137568838595
    endloop
  endfacet
  facet normal -0.5000000000746994 -0.688190960234435 -0.5257311120495981
    outer loop
      vertex 0.343109664480572 0.779236842004331 0.302137568838595
      vertex 0.555163098731335 0.349569653967821 0.662904419473374
      vertex 0.21205343459244 0.598853416772024 0.662904419473374
    endloop
  endfacet
  facet normal -0.5000000001620152 -0.6881909602217472 -0.5257311119831641
    outer loop
      vertex 0.555163098731335 0.349569653967821 0.662904419473374
      vertex 0.343109664480572 0.779236842004331 0.302137568838595
      vertex 0.686219328534333 0.529953079238925 0.302137568805775
    endloop
  endfacet
  facet normal -0.8506508084360777 -0.276393202226648 -0.44721359535455385
    outer loop
      vertex 0.898272762815377 0.238086566010373 0.0791713930798391
      vertex 0.555163098731335 0.349569653967821 0.662904419473374
      vertex 0.686219328534333 0.529953079238925 0.302137568805775
    endloop
  endfacet
  facet normal -0.8506508084360757 -0.27639320222666025 -0.4472135953545502
    outer loop
      vertex 0.898272762804388 -0.122680284588246 0.302137568838594
      vertex 0.555163098731335 0.349569653967821 0.662904419473374
      vertex 0.898272762815377 0.238086566010373 0.0791713930798391
    endloop
  endfacet
  facet normal -0.8506508084360758 -0.27639320222666075 -0.44721359535454974
    outer loop
      vertex 0.555163098731335 0.349569653967821 0.662904419473374
      vertex 0.898272762804388 -0.122680284588246 0.302137568838594
      vertex 0.686219328548943 -0.0537799470600251 0.662904419473374
    endloop
  endfacet
  facet normal -0.8090169944063763 0.26286555610190526 -0.5257311120496004
    outer loop
      vertex 0.898272762804388 -0.122680284588246 0.302137568838594
      vertex 0.555163098695117 -0.457129548076105 0.662904419473374
      vertex 0.686219328548943 -0.0537799470600251 0.662904419473374
    endloop
  endfacet
  facet normal -0.8090169944212933 0.2628655561888779 -0.5257311119831592
    outer loop
      vertex 0.555163098695117 -0.457129548076105 0.662904419473374
      vertex 0.898272762804388 -0.122680284588246 0.302137568838594
      vertex 0.767216532961148 -0.526029885511367 0.302137568805775
    endloop
  endfacet
  facet normal -0.5257311123635591 0.7236067976089727 -0.4472135954407715
    outer loop
      vertex 0.212053434486955 -0.929379486749524 0.302137568884571
      vertex 0.555163098695117 -0.457129548076105 0.662904419473374
      vertex 0.767216532961148 -0.526029885511367 0.302137568805775
    endloop
  endfacet
  facet normal -0.5257311120161913 0.723606797635617 -0.44721359580601566
    outer loop
      vertex 0.555163098695117 -0.457129548076105 0.662904419473374
      vertex 0.212053434486955 -0.929379486749524 0.302137568884571
      vertex 0.212053434533837 -0.706413310849498 0.662904419473374
    endloop
  endfacet
  facet normal -0.5257311124962419 0.7236067977915951 -0.4472135949893042
    outer loop
      vertex 0.212053434486955 -0.929379486749524 0.302137568884571
      vertex 0.767216532961148 -0.526029885511367 0.302137568805775
      vertex 0.555163098585684 -0.817896398671323 0.0791713930798391
    endloop
  endfacet
  facet normal 0.3090169937833139 0.9510565164873869 9.819186220561188e-10
    outer loop
      vertex 1.11080911377824e-10 -0.998279823669024 -0.0586292819193784
      vertex -0.555163098364373 -0.817896398876749 0.0791713932123004
      vertex -0.212053434082056 -0.92937948676416 0.302137568860888
    endloop
  endfacet
  facet normal 0.3090169937833138 0.951056516487387 9.81918259215127e-10
    outer loop
      vertex -0.555163098364373 -0.817896398876749 0.0791713932123004
      vertex 1.11080911377824e-10 -0.998279823669024 -0.0586292819193784
      vertex -0.343109664158381 -0.88679673578579 -0.281595457393499
    endloop
  endfacet
  facet normal -2.342212165748975e-11 0.9822469466688158 -0.18759247255630612
    outer loop
      vertex 0.212053434486955 -0.929379486749524 0.302137568884571
      vertex 1.11080911377824e-10 -0.998279823669024 -0.0586292819193784
      vertex -0.212053434082056 -0.92937948676416 0.302137568860888
    endloop
  endfacet
  facet normal 0.8506508082382687 0.27639320324895306 0.4472135950989898
    outer loop
      vertex -0.343109665227982 0.0577031421648701 -0.865328482245859
      vertex -0.767216532927119 0.418469991865384 -0.28159545750378
      vertex -0.898272762292094 0.238086566289041 0.0791713930798391
    endloop
  endfacet
  facet normal 0.8506508082382687 0.2763932025289347 0.44721359554398576
    outer loop
      vertex -0.767216532927119 0.418469991865384 -0.28159545750378
      vertex -0.343109665227982 0.0577031421648701 -0.865328482245859
      vertex -0.555163099775376 0.349569654757126 -0.642362306005564
    endloop
  endfacet
  facet normal 0.8506508083802607 0.2763932020750201 0.4472135955544353
    outer loop
      vertex -0.212053434975958 -0.345646458851704 -0.865328482887431
      vertex -0.898272762292094 0.238086566289041 0.0791713930798391
      vertex -0.89827276238284 -0.122680284370187 0.302137568805775
    endloop
  endfacet
  facet normal 0.8506508083802607 0.2763932024210758 0.4472135953405612
    outer loop
      vertex -0.898272762292094 0.238086566289041 0.0791713930798391
      vertex -0.212053434975958 -0.345646458851704 -0.865328482887431
      vertex -0.343109665227982 0.0577031421648701 -0.865328482245859
    endloop
  endfacet
  facet normal 0.850650808353846 0.27639320193933276 0.4472135956885384
    outer loop
      vertex -0.212053434572183 -0.706413309820364 -0.642362307764246
      vertex -0.89827276238284 -0.122680284370187 0.302137568805775
      vertex -0.767216532638751 -0.526029885627726 0.302137568852526
    endloop
  endfacet
  facet normal 0.8506508083538461 0.2763932022290295 0.447213595509496
    outer loop
      vertex -0.89827276238284 -0.122680284370187 0.302137568805775
      vertex -0.212053434572183 -0.706413309820364 -0.642362307764246
      vertex -0.212053434975958 -0.345646458851704 -0.865328482887431
    endloop
  endfacet
  facet normal 0.8506508083259182 0.2763932019470471 0.4472135957368927
    outer loop
      vertex -0.343109664158381 -0.88679673578579 -0.281595457393499
      vertex -0.767216532638751 -0.526029885627726 0.302137568852526
      vertex -0.555163098364373 -0.817896398876749 0.0791713932123004
    endloop
  endfacet
  facet normal 0.8506508083259181 0.27639320210216467 0.4472135956410247
    outer loop
      vertex -0.767216532638751 -0.526029885627726 0.302137568852526
      vertex -0.343109664158381 -0.88679673578579 -0.281595457393499
      vertex -0.212053434572183 -0.706413309820364 -0.642362307764246
    endloop
  endfacet
  facet normal 0.5773502688915866 -0.7946544721598212 -0.18759247556127728
    outer loop
      vertex -0.55516309859646 0.710336504989135 -0.0586292816066971
      vertex -0.343109663843904 0.779236842082362 0.302137568805775
      vertex -0.686219327964364 0.529953079408759 0.302137568838594
    endloop
  endfacet
  facet normal 0.8090169947225686 -0.5877852518140136 -1.1224487687073552e-9
    outer loop
      vertex -0.898272762292094 0.238086566289041 0.0791713930798391
      vertex -0.55516309859646 0.710336504989135 -0.0586292816066971
      vertex -0.686219327964364 0.529953079408759 0.302137568838594
    endloop
  endfacet
  facet normal 0.809016994722569 -0.587785251814013 -1.1224459299709896e-9
    outer loop
      vertex -0.55516309859646 0.710336504989135 -0.0586292816066971
      vertex -0.898272762292094 0.238086566289041 0.0791713930798391
      vertex -0.767216532927119 0.418469991865384 -0.28159545750378
    endloop
  endfacet
  facet normal 0.30901699365279334 -0.9510565165297956 -8.797108228515482e-10
    outer loop
      vertex -0.55516309859646 0.710336504989135 -0.0586292816066971
      vertex 3.6287529236727e-10 0.890719929869209 0.0791713930798391
      vertex -0.343109663843904 0.779236842082362 0.302137568805775
    endloop
  endfacet
  facet normal 0.3090169930409018 -0.9510565167286114 1.8456940649927225e-9
    outer loop
      vertex 3.6287529236727e-10 0.890719929869209 0.0791713930798391
      vertex -0.55516309859646 0.710336504989135 -0.0586292816066971
      vertex -0.212053433871723 0.821819592061276 -0.281595457400841
    endloop
  endfacet
  facet normal -0.5773502691276939 -0.7946544719882777 -0.187592475561284
    outer loop
      vertex 0.555163098906288 0.710336505078439 -0.0586292816066971
      vertex 0.686219328534333 0.529953079238925 0.302137568805775
      vertex 0.343109664480572 0.779236842004331 0.302137568838595
    endloop
  endfacet
  facet normal -0.30901699377831915 -0.9510565164890099 -1.122455724366088e-9
    outer loop
      vertex 3.6287529236727e-10 0.890719929869209 0.0791713930798391
      vertex 0.555163098906288 0.710336505078439 -0.0586292816066971
      vertex 0.343109664480572 0.779236842004331 0.302137568838595
    endloop
  endfacet
  facet normal -0.3090169937783184 -0.9510565164890101 -1.122452593305534e-9
    outer loop
      vertex 0.555163098906288 0.710336505078439 -0.0586292816066971
      vertex 3.6287529236727e-10 0.890719929869209 0.0791713930798391
      vertex 0.212053434783852 0.821819592944856 -0.28159545750378
    endloop
  endfacet
  facet normal -0.8090169950602746 -0.5877852513492013 9.949426964448732e-10
    outer loop
      vertex 0.898272762815377 0.238086566010373 0.0791713930798391
      vertex 0.555163098906288 0.710336505078439 -0.0586292816066971
      vertex 0.767216532893303 0.418469991271842 -0.281595457552395
    endloop
  endfacet
  facet normal -0.8090169948001524 -0.5877852517072286 -8.79713176481987e-10
    outer loop
      vertex 0.555163098906288 0.710336505078439 -0.0586292816066971
      vertex 0.898272762815377 0.238086566010373 0.0791713930798391
      vertex 0.686219328534333 0.529953079238925 0.302137568805775
    endloop
  endfacet
  facet normal -0.8506508081628037 0.2763932024966242 0.44721359570749764
    outer loop
      vertex 0.343109663965673 0.0577031405541547 -0.865328483743631
      vertex 0.767216532893303 0.418469991271842 -0.281595457552395
      vertex 0.555163098398645 0.349569653758117 -0.642362308195253
    endloop
  endfacet
  facet normal -0.8506508081628035 0.27639320249662624 0.4472135957074963
    outer loop
      vertex 0.767216532893303 0.418469991271842 -0.281595457552395
      vertex 0.343109663965673 0.0577031405541547 -0.865328483743631
      vertex 0.898272762815377 0.238086566010373 0.0791713930798391
    endloop
  endfacet
  facet normal -0.8506508081628057 0.2763932024966147 0.44721359570749986
    outer loop
      vertex 0.212053434069015 -0.345646460445777 -0.865328483587687
      vertex 0.898272762815377 0.238086566010373 0.0791713930798391
      vertex 0.343109663965673 0.0577031405541547 -0.865328483743631
    endloop
  endfacet
  facet normal -0.8506508081628056 0.27639320249661664 0.4472135957074986
    outer loop
      vertex 0.898272762815377 0.238086566010373 0.0791713930798391
      vertex 0.212053434069015 -0.345646460445777 -0.865328483587687
      vertex 0.898272762804388 -0.122680284588246 0.302137568838594
    endloop
  endfacet
  facet normal -0.8506508079970475 0.27639320346305984 0.4472135954254942
    outer loop
      vertex 0.212053434062751 -0.706413309412381 -0.642362307908358
      vertex 0.898272762804388 -0.122680284588246 0.302137568838594
      vertex 0.212053434069015 -0.345646460445777 -0.865328483587687
    endloop
  endfacet
  facet normal -0.8506508079970476 0.2763932021734431 0.4472135962225213
    outer loop
      vertex 0.898272762804388 -0.122680284588246 0.302137568838594
      vertex 0.212053434062751 -0.706413309412381 -0.642362307908358
      vertex 0.767216532961148 -0.526029885511367 0.302137568805775
    endloop
  endfacet
  facet normal -0.8506508080718216 0.2763932017374765 0.4472135963497345
    outer loop
      vertex 0.34310966412112 -0.886796735153216 -0.281595457571569
      vertex 0.767216532961148 -0.526029885511367 0.302137568805775
      vertex 0.212053434062751 -0.706413309412381 -0.642362307908358
    endloop
  endfacet
  facet normal -0.8506508080718217 0.2763932013669673 0.44721359657872184
    outer loop
      vertex 0.767216532961148 -0.526029885511367 0.302137568805775
      vertex 0.34310966412112 -0.886796735153216 -0.281595457571569
      vertex 0.555163098585684 -0.817896398671323 0.0791713930798391
    endloop
  endfacet
  facet normal -0.30901699418750495 0.9510565163560573 1.3625187347567287e-9
    outer loop
      vertex 0.555163098585684 -0.817896398671323 0.0791713930798391
      vertex 1.11080911377824e-10 -0.998279823669024 -0.0586292819193784
      vertex 0.212053434486955 -0.929379486749524 0.302137568884571
    endloop
  endfacet
  facet normal -0.3090169945107221 0.9510565162510377 2.8021491963728267e-9
    outer loop
      vertex 1.11080911377824e-10 -0.998279823669024 -0.0586292819193784
      vertex 0.555163098585684 -0.817896398671323 0.0791713930798391
      vertex 0.34310966412112 -0.886796735153216 -0.281595457571569
    endloop
  endfacet
  facet normal -7.084547261323098e-10 0.8944271903292846 0.4472135968412202
    outer loop
      vertex 0.212053434062751 -0.706413309412381 -0.642362307908358
      vertex 1.11080911377824e-10 -0.998279823669024 -0.0586292819193784
      vertex 0.34310966412112 -0.886796735153216 -0.281595457571569
    endloop
  endfacet
  facet normal -7.084586990603098e-10 0.8944271903292852 0.4472135968412191
    outer loop
      vertex -0.212053434572183 -0.706413309820364 -0.642362307764246
      vertex 1.11080911377824e-10 -0.998279823669024 -0.0586292819193784
      vertex 0.212053434062751 -0.706413309412381 -0.642362307908358
    endloop
  endfacet
  facet normal -7.084551324589976e-10 0.8944271903292859 0.4472135968412181
    outer loop
      vertex 1.11080911377824e-10 -0.998279823669024 -0.0586292819193784
      vertex -0.212053434572183 -0.706413309820364 -0.642362307764246
      vertex -0.343109664158381 -0.88679673578579 -0.281595457393499
    endloop
  endfacet
  facet normal 2.091935758622153e-9 -0.9822469464161635 0.18759247387921096
    outer loop
      vertex -0.212053433871723 0.821819592061276 -0.281595457400841
      vertex 0.212053434783852 0.821819592944856 -0.28159545750378
      vertex 3.6287529236727e-10 0.890719929869209 0.0791713930798391
    endloop
  endfacet
  facet normal 3.3805797570918994e-9 0.5257311138317521 0.8506508072935836
    outer loop
      vertex -0.212053434975958 -0.345646458851704 -0.865328482887431
      vertex 0.212053434062751 -0.706413309412381 -0.642362307908358
      vertex 0.212053434069015 -0.345646460445777 -0.865328483587687
    endloop
  endfacet
  facet normal -2.166913947983315e-10 0.5257311107717303 0.850650809184781
    outer loop
      vertex 0.212053434062751 -0.706413309412381 -0.642362307908358
      vertex -0.212053434975958 -0.345646458851704 -0.865328482887431
      vertex -0.212053434572183 -0.706413309820364 -0.642362307764246
    endloop
  endfacet
  facet normal 4.171330197688743e-9 -9.687248305983516e-10 1
    outer loop
      vertex -1.30336552298767e-9 0.306986905432126 -0.86532848207092
      vertex 0.212053434069015 -0.345646460445777 -0.865328483587687
      vertex 0.343109663965673 0.0577031405541547 -0.865328483743631
    endloop
  endfacet
  facet normal 1.6511309120099041e-9 -1.7875872184144201e-9 1
    outer loop
      vertex -1.30336552298767e-9 0.306986905432126 -0.86532848207092
      vertex -0.212053434975958 -0.345646458851704 -0.865328482887431
      vertex 0.212053434069015 -0.345646460445777 -0.865328483587687
    endloop
  endfacet
  facet normal 5.224490972124128e-10 -1.4208562673937608e-9 1
    outer loop
      vertex -0.212053434975958 -0.345646458851704 -0.865328482887431
      vertex -1.30336552298767e-9 0.306986905432126 -0.86532848207092
      vertex -0.343109665227982 0.0577031421648701 -0.865328482245859
    endloop
  endfacet
  facet normal 0.3090169953657938 -0.4253254050168267 0.8506508075716905
    outer loop
      vertex -0.212053435890952 0.598853417963247 -0.642362305846587
      vertex -0.343109665227982 0.0577031421648701 -0.865328482245859
      vertex -1.30336552298767e-9 0.306986905432126 -0.86532848207092
    endloop
  endfacet
  facet normal 0.30901699536578187 -0.42532540501682586 0.8506508075716955
    outer loop
      vertex -0.343109665227982 0.0577031421648701 -0.865328482245859
      vertex -0.212053435890952 0.598853417963247 -0.642362305846587
      vertex -0.555163099775376 0.349569654757126 -0.642362306005564
    endloop
  endfacet
  facet normal 0.5257311106329401 -0.7236067980558433 0.44721359675218453
    outer loop
      vertex -0.767216532927119 0.418469991865384 -0.28159545750378
      vertex -0.212053433871723 0.821819592061276 -0.281595457400841
      vertex -0.55516309859646 0.710336504989135 -0.0586292816066971
    endloop
  endfacet
  facet normal 0.5257311110651289 -0.7236067986507001 0.4472135952816176
    outer loop
      vertex -0.555163099775376 0.349569654757126 -0.642362306005564
      vertex -0.212053433871723 0.821819592061276 -0.281595457400841
      vertex -0.767216532927119 0.418469991865384 -0.28159545750378
    endloop
  endfacet
  facet normal 0.5257311137345413 -0.7236067984459478 0.4472135924748313
    outer loop
      vertex -0.212053433871723 0.821819592061276 -0.281595457400841
      vertex -0.555163099775376 0.349569654757126 -0.642362306005564
      vertex -0.212053435890952 0.598853417963247 -0.642362305846587
    endloop
  endfacet
  facet normal -0.30901699442942515 -0.4253254036805267 0.8506508085799963
    outer loop
      vertex 0.212053434243918 0.598853416684819 -0.642362308288103
      vertex 0.343109663965673 0.0577031405541547 -0.865328483743631
      vertex 0.555163098398645 0.349569653758117 -0.642362308195253
    endloop
  endfacet
  facet normal -0.3090169912926107 -0.42532540343992314 0.8506508098398127
    outer loop
      vertex 0.343109663965673 0.0577031405541547 -0.865328483743631
      vertex 0.212053434243918 0.598853416684819 -0.642362308288103
      vertex -1.30336552298767e-9 0.306986905432126 -0.86532848207092
    endloop
  endfacet
  facet normal -0.5257311126579564 -0.7236067968999027 0.44721359624198614
    outer loop
      vertex 0.212053434783852 0.821819592944856 -0.28159545750378
      vertex 0.767216532893303 0.418469991271842 -0.281595457552395
      vertex 0.555163098906288 0.710336505078439 -0.0586292816066971
    endloop
  endfacet
  facet normal -0.5257311120311432 -0.7236067970307871 0.447213596767074
    outer loop
      vertex 0.555163098398645 0.349569653758117 -0.642362308195253
      vertex 0.212053434783852 0.821819592944856 -0.28159545750378
      vertex 0.212053434243918 0.598853416684819 -0.642362308288103
    endloop
  endfacet
  facet normal -0.5257311127149427 -0.7236067969783375 0.4472135960480846
    outer loop
      vertex 0.212053434783852 0.821819592944856 -0.28159545750378
      vertex 0.555163098398645 0.349569653758117 -0.642362308195253
      vertex 0.767216532893303 0.418469991271842 -0.281595457552395
    endloop
  endfacet
  facet normal 2.7447716745659597e-9 -0.6070619986776165 0.7946544719320073
    outer loop
      vertex 0.212053434243918 0.598853416684819 -0.642362308288103
      vertex -0.212053435890952 0.598853417963247 -0.642362305846587
      vertex -1.30336552298767e-9 0.306986905432126 -0.86532848207092
    endloop
  endfacet
  facet normal 1.8998425489843466e-9 -0.8506508086215914 0.52573111168299
    outer loop
      vertex -0.212053435890952 0.598853417963247 -0.642362305846587
      vertex 0.212053434783852 0.821819592944856 -0.28159545750378
      vertex -0.212053433871723 0.821819592061276 -0.281595457400841
    endloop
  endfacet
  facet normal 4.6234824834425766e-10 -0.8506508078658559 0.5257311129057959
    outer loop
      vertex 0.212053434783852 0.821819592944856 -0.28159545750378
      vertex -0.212053435890952 0.598853417963247 -0.642362305846587
      vertex 0.212053434243918 0.598853416684819 -0.642362308288103
    endloop
  endfacet
endsolid OpenSCAD_Model
