solid OpenSCAD_Model
  facet normal 0 0.8504150013094388 -0.5261124647334136
    outer loop
      vertex 0.31898786516112 -0.436765328813038 0.486768662808997
      vertex -0.218756018120249 -0.926786334962429 -0.305307637450005
      vertex -0.756499901290106 -0.436765328813038 0.486768662808997
    endloop
  endfacet
  facet normal 0 0 -1
    outer loop
      vertex -0.218756018008738 0.4946343984253 0.486768662808997
      vertex 0.31898786516112 -0.436765328813038 0.486768662808997
      vertex -0.756499901290106 -0.436765328813038 0.486768662808997
    endloop
  endfacet
  facet normal 0.8609627303825255 -0.49707706418294495 -0.1079702234670808
    outer loop
      vertex -0.574718450487692 0.0792162531820108 -0.439186221088311
      vertex -0.218756018008738 0.4946343984253 0.486768662808997
      vertex -0.756499901290106 -0.436765328813038 0.486768662808997
    endloop
  endfacet
  facet normal 0.8609627304349716 0.35333793702194205 0.36591731178373726
    outer loop
      vertex -0.218756018120249 -0.926786334962429 -0.305307637450005
      vertex -0.574718450487692 0.0792162531820108 -0.439186221088311
      vertex -0.756499901290106 -0.436765328813038 0.486768662808997
    endloop
  endfacet
  facet normal 0.12448173553006987 0.1740438343717748 0.9768382881708679
    outer loop
      vertex 0.474486563287382 -0.137085343717928 -0.534351309171046
      vertex -0.574718450487692 0.0792162531820108 -0.439186221088311
      vertex -0.218756018120249 -0.926786334962429 -0.305307637450005
    endloop
  endfacet
  facet normal -0.7364809948316818 0.6711208986521825 0.08480851162485593
    outer loop
      vertex 0.31898786516112 -0.436765328813038 0.486768662808997
      vertex 0.474486563287382 -0.137085343717928 -0.534351309171046
      vertex -0.218756018120249 -0.926786334962429 -0.305307637450005
    endloop
  endfacet
  facet normal -0.20304297555551032 -0.11722691657783044 -0.9721272550994643
    outer loop
      vertex 0.834249151311147 0.481654064824662 0.268398426549991
      vertex 0.31898786516112 -0.436765328813038 0.486768662808997
      vertex -0.218756018008738 0.4946343984253 0.486768662808997
    endloop
  endfacet
  facet normal -0.09655948255778428 -0.9061638925171891 -0.4117563189876621
    outer loop
      vertex 0.141006808147136 0.88189761987446 -0.449859247267619
      vertex 0.834249151311147 0.481654064824662 0.268398426549991
      vertex -0.218756018008738 0.4946343984253 0.486768662808997
    endloop
  endfacet
  facet normal 0.7464048853514053 -0.665391333184741 0.011581055486816642
    outer loop
      vertex -0.574718450487692 0.0792162531820108 -0.439186221088311
      vertex 0.141006808147136 0.88189761987446 -0.449859247267619
      vertex -0.218756018008738 0.4946343984253 0.486768662808997
    endloop
  endfacet
  facet normal 0.0785615728799205 -0.056816764155848416 0.995288869915409
    outer loop
      vertex 0.474486563287382 -0.137085343717928 -0.534351309171046
      vertex 0.141006808147136 0.88189761987446 -0.449859247267619
      vertex -0.574718450487692 0.0792162531820108 -0.439186221088311
    endloop
  endfacet
  facet normal -0.7644031902687207 -0.29758921772751884 0.5719514141947071
    outer loop
      vertex 0.834249151311147 0.481654064824662 0.268398426549991
      vertex 0.141006808147136 0.88189761987446 -0.449859247267619
      vertex 0.474486563287382 -0.137085343717928 -0.534351309171046
    endloop
  endfacet
  facet normal -0.8708866448508313 0.4913474734465495 0.011580680383911274
    outer loop
      vertex 0.31898786516112 -0.436765328813038 0.486768662808997
      vertex 0.834249151311147 0.481654064824662 0.268398426549991
      vertex 0.474486563287382 -0.137085343717928 -0.534351309171046
    endloop
  endfacet
endsolid OpenSCAD_Model
