solid OpenSCAD_Model
  facet normal 0.56725996573173 -2.5468039419026074e-11 -0.823538785533527
    outer loop
      vertex -0.988498156509498 3.81335717500525e-8 0.151229292580017
      vertex -0.407390948892581 0.407391175698362 0.551500488617618
      vertex -0.407390948929162 -0.40739109956788 0.551500488617618
    endloop
  endfacet
  facet normal 0.7009534747398601 0.5072788604071503 -0.5013306135018476
    outer loop
      vertex -0.69897385242257 -0.698974002873321 -0.151229172794004
      vertex -0.988498156509498 3.81335717500525e-8 0.151229292580017
      vertex -0.407390948929162 -0.40739109956788 0.551500488617618
    endloop
  endfacet
  facet normal 0.5072788605199244 0.7009534746796872 -0.5013306134718689
    outer loop
      vertex 1.886251391626e-7 -0.988498307114327 0.151229292615959
      vertex -0.69897385242257 -0.698974002873321 -0.151229172794004
      vertex -0.407390948929162 -0.40739109956788 0.551500488617618
    endloop
  endfacet
  facet normal 0 0.5672599657317298 -0.8235387855335271
    outer loop
      vertex 0.40739132626392 -0.40739109956788 0.551500488617618
      vertex 1.886251391626e-7 -0.988498307114327 0.151229292615959
      vertex -0.407390948929162 -0.40739109956788 0.551500488617618
    endloop
  endfacet
  facet normal 0 0 -1
    outer loop
      vertex -0.407390948929162 -0.40739109956788 0.551500488617618
      vertex 0.407391326300504 0.407391175625202 0.551500488617618
      vertex 0.40739132626392 -0.40739109956788 0.551500488617618
    endloop
  endfacet
  facet normal 0 0 -1
    outer loop
      vertex 0.407391326300504 0.407391175625202 0.551500488617618
      vertex -0.407390948929162 -0.40739109956788 0.551500488617618
      vertex -0.407390948892581 0.407391175698362 0.551500488617618
    endloop
  endfacet
  facet normal -5.093479277583881e-11 -0.5672599657317264 -0.8235387855335294
    outer loop
      vertex 1.88798379734391e-7 0.988498383208234 0.151229292615959
      vertex 0.407391326300504 0.407391175625202 0.551500488617618
      vertex -0.407390948892581 0.407391175698362 0.551500488617618
    endloop
  endfacet
  facet normal 0.5072788603918744 -0.7009534747626651 -0.5013306134854193
    outer loop
      vertex -0.698973852268963 0.698974079120829 -0.151229172794005
      vertex 1.88798379734391e-7 0.988498383208234 0.151229292615959
      vertex -0.407390948892581 0.407391175698362 0.551500488617618
    endloop
  endfacet
  facet normal 0.7009534746568774 -0.5072788605352073 -0.5013306134882967
    outer loop
      vertex -0.988498156509498 3.81335717500525e-8 0.151229292580017
      vertex -0.698973852268963 0.698974079120829 -0.151229172794005
      vertex -0.407390948892581 0.407391175698362 0.551500488617618
    endloop
  endfacet
  facet normal -0.5672599657317291 2.5470206953583652e-11 -0.8235387855335276
    outer loop
      vertex 0.98849853382866 3.79603310878026e-8 0.151229292615959
      vertex 0.40739132626392 -0.40739109956788 0.551500488617618
      vertex 0.407391326300504 0.407391175625202 0.551500488617618
    endloop
  endfacet
  facet normal -0.7009534747392837 -0.5072788601296763 -0.50133061378342
    outer loop
      vertex 0.698974229916702 0.698974079111288 -0.151229172592068
      vertex 0.98849853382866 3.79603310878026e-8 0.151229292615959
      vertex 0.407391326300504 0.407391175625202 0.551500488617618
    endloop
  endfacet
  facet normal -0.5072788602892029 -0.7009534746335252 -0.5013306137698706
    outer loop
      vertex 1.88798379734391e-7 0.988498383208234 0.151229292615959
      vertex 0.698974229916702 0.698974079111288 -0.151229172592068
      vertex 0.407391326300504 0.407391175625202 0.551500488617618
    endloop
  endfacet
  facet normal -0.5072788601611428 0.7009534747165084 -0.5013306137834246
    outer loop
      vertex 0.698974229763099 -0.698974003170991 -0.151229172592067
      vertex 1.886251391626e-7 -0.988498307114327 0.151229292615959
      vertex 0.40739132626392 -0.40739109956788 0.551500488617618
    endloop
  endfacet
  facet normal -0.7009534746562999 0.5072788602577292 -0.5013306137698748
    outer loop
      vertex 0.98849853382866 3.79603310878026e-8 0.151229292615959
      vertex 0.698974229763099 -0.698974003170991 -0.151229172592067
      vertex 0.40739132626392 -0.40739109956788 0.551500488617618
    endloop
  endfacet
  facet normal 0.8543484692510641 0.13694701380624627 0.5013324331198962
    outer loop
      vertex -0.576136256504436 3.81299101504806e-8 -0.551499545157136
      vertex -0.988498156509498 3.81335717500525e-8 0.151229292580017
      vertex -0.69897385242257 -0.698974002873321 -0.151229172794004
    endloop
  endfacet
  facet normal 0.4011168721896472 0.40111049233982043 0.8235384798415317
    outer loop
      vertex -4.32385661796708e-7 -0.57614028173762 -0.551501818721865
      vertex -0.576136256504436 3.81299101504806e-8 -0.551499545157136
      vertex -0.69897385242257 -0.698974002873321 -0.151229172794004
    endloop
  endfacet
  facet normal 0.13695019726577282 0.854350906653899 0.5013274097518773
    outer loop
      vertex 1.886251391626e-7 -0.988498307114327 0.151229292615959
      vertex -4.32385661796708e-7 -0.57614028173762 -0.551501818721865
      vertex -0.69897385242257 -0.698974002873321 -0.151229172794004
    endloop
  endfacet
  facet normal 0.8543484692281081 -0.13694701399354758 0.5013324331078527
    outer loop
      vertex -0.576136256504436 3.81299101504806e-8 -0.551499545157136
      vertex -0.698973852268963 0.698974079120829 -0.151229172794005
      vertex -0.988498156509498 3.81335717500525e-8 0.151229292580017
    endloop
  endfacet
  facet normal 0.13695019711602785 -0.8543509067056068 0.5013274097046648
    outer loop
      vertex -4.32302444849927e-7 0.576140357879525 -0.551501818724187
      vertex 1.88798379734391e-7 0.988498383208234 0.151229292615959
      vertex -0.698973852268963 0.698974079120829 -0.151229172794005
    endloop
  endfacet
  facet normal 0.40111687214371444 -0.4011104924305987 0.8235384798196898
    outer loop
      vertex -0.576136256504436 3.81299101504806e-8 -0.551499545157136
      vertex -4.32302444849927e-7 0.576140357879525 -0.551501818724187
      vertex -0.698973852268963 0.698974079120829 -0.151229172794005
    endloop
  endfacet
  facet normal -0.13695007784990731 -0.8543508152582993 0.5013275981275954
    outer loop
      vertex -4.32302444849927e-7 0.576140357879525 -0.551501818724187
      vertex 0.698974229916702 0.698974079111288 -0.151229172592068
      vertex 1.88798379734391e-7 0.988498383208234 0.151229292615959
    endloop
  endfacet
  facet normal -0.8543475293480688 -0.13694578615027186 0.5013343702086811
    outer loop
      vertex 0.576134856718913 -5.70835233578617e-7 -0.551499251523032
      vertex 0.98849853382866 3.79603310878026e-8 0.151229292615959
      vertex 0.698974229916702 0.698974079111288 -0.151229172592068
    endloop
  endfacet
  facet normal -0.4011167800469113 -0.4011091840471707 0.8235391619333052
    outer loop
      vertex -4.32302444849927e-7 0.576140357879525 -0.551501818724187
      vertex 0.576134856718913 -5.70835233578617e-7 -0.551499251523032
      vertex 0.698974229916702 0.698974079111288 -0.151229172592068
    endloop
  endfacet
  facet normal -0.854347618943325 0.1369459033789939 0.5013341855026271
    outer loop
      vertex 0.576134856718913 -5.70835233578617e-7 -0.551499251523032
      vertex 0.698974229763099 -0.698974003170991 -0.151229172592067
      vertex 0.98849853382866 3.79603310878026e-8 0.151229292615959
    endloop
  endfacet
  facet normal -0.13695007764095066 0.8543508152646788 0.5013275981738051
    outer loop
      vertex -4.32385661796708e-7 -0.57614028173762 -0.551501818721865
      vertex 1.886251391626e-7 -0.988498307114327 0.151229292615959
      vertex 0.698974229763099 -0.698974003170991 -0.151229172592067
    endloop
  endfacet
  facet normal -0.40111655762816206 0.4011098095347489 0.8235389656182218
    outer loop
      vertex 0.576134856718913 -5.70835233578617e-7 -0.551499251523032
      vertex -4.32385661796708e-7 -0.57614028173762 -0.551501818721865
      vertex 0.698974229763099 -0.698974003170991 -0.151229172592067
    endloop
  endfacet
  facet normal -0.000004455897846707695 2.0154831925025416e-12 0.9999999999900724
    outer loop
      vertex -4.32302444849927e-7 0.576140357879525 -0.551501818724187
      vertex -4.32385661796708e-7 -0.57614028173762 -0.551501818721865
      vertex 0.576134856718913 -5.70835233578617e-7 -0.551499251523032
    endloop
  endfacet
  facet normal 0.000003946232458899326 2.014876396205288e-12 0.9999999999922137
    outer loop
      vertex -4.32385661796708e-7 -0.57614028173762 -0.551501818721865
      vertex -4.32302444849927e-7 0.576140357879525 -0.551501818724187
      vertex -0.576136256504436 3.81299101504806e-8 -0.551499545157136
    endloop
  endfacet
endsolid OpenSCAD_Model
