solid OpenSCAD_Model
  facet normal -0.4761543547276423 0.41118297549127814 0.7773066262036119
    outer loop
      vertex 0.767204762157606 -1.33992842913444e-7 -0.293760750242245
      vertex -0.0868323737207965 0.00000120549250797964 -0.816918585789469
      vertex 0.153891454132858 -0.790639613816991 -0.251221949835945
    endloop
  endfacet
  facet normal -0.7582311387147421 0.6016845845731783 0.2511198936172664
    outer loop
      vertex 0.654659252203019 -0.500767932109872 0.566261732630942
      vertex 0.767204762157606 -1.33992842913444e-7 -0.293760750242245
      vertex 0.153891454132858 -0.790639613816991 -0.251221949835945
    endloop
  endfacet
  facet normal 0 0.9425015463963777 -0.3342017879073013
    outer loop
      vertex -0.346876343989224 -0.500767932109872 0.566261732630942
      vertex 0.654659252203019 -0.500767932109872 0.566261732630942
      vertex 0.153891454132858 -0.790639613816991 -0.251221949835945
    endloop
  endfacet
  facet normal 0.2977255296263021 0.9425015463551758 -0.1518233978240517
    outer loop
      vertex -0.801860556668005 -0.500767931954549 -0.3259618474393
      vertex -0.346876343989224 -0.500767932109872 0.566261732630942
      vertex 0.153891454132858 -0.790639613816991 -0.251221949835945
    endloop
  endfacet
  facet normal 0.12074199349320415 0.6016826738279788 0.7895564140848337
    outer loop
      vertex -0.0868323737207965 0.00000120549250797964 -0.816918585789469
      vertex -0.801860556668005 -0.500767931954549 -0.3259618474393
      vertex 0.153891454132858 -0.790639613816991 -0.251221949835945
    endloop
  endfacet
  facet normal 0.1207425014800635 -0.6016840572634577 0.7895552821502249
    outer loop
      vertex -0.80186055662304 0.500767664237699 -0.3259618474393
      vertex -0.0868323737207965 0.00000120549250797964 -0.816918585789469
      vertex 0.153891454203852 0.790639345999251 -0.251221949777511
    endloop
  endfacet
  facet normal 0.29772552954166887 -0.9425015463513035 -0.1518233980140559
    outer loop
      vertex -0.346876343944258 0.500767664172298 0.566261732630942
      vertex -0.80186055662304 0.500767664237699 -0.3259618474393
      vertex 0.153891454203852 0.790639345999251 -0.251221949777511
    endloop
  endfacet
  facet normal -8.462738682285641e-11 -0.9425015463290055 -0.3342017880973013
    outer loop
      vertex 0.654659252247988 0.50076766408237 0.566261732630942
      vertex -0.346876343944258 0.500767664172298 0.566261732630942
      vertex 0.153891454203852 0.790639345999251 -0.251221949777511
    endloop
  endfacet
  facet normal -0.7582311388162514 -0.6016845844712388 0.2511198935550172
    outer loop
      vertex 0.767204762157606 -1.33992842913444e-7 -0.293760750242245
      vertex 0.654659252247988 0.50076766408237 0.566261732630942
      vertex 0.153891454203852 0.790639345999251 -0.251221949777511
    endloop
  endfacet
  facet normal -0.47615515623306476 -0.41118355427204023 0.7773058290588576
    outer loop
      vertex -0.0868323737207965 0.00000120549250797964 -0.816918585789469
      vertex 0.767204762157606 -1.33992842913444e-7 -0.293760750242245
      vertex 0.153891454203852 0.790639345999251 -0.251221949777511
    endloop
  endfacet
  facet normal 0.5660393077484046 -2.5412951383865355e-11 0.8243782518260091
    outer loop
      vertex -0.80186055662304 0.500767664237699 -0.3259618474393
      vertex -0.801860556668005 -0.500767931954549 -0.3259618474393
      vertex -0.0868323737207965 0.00000120549250797964 -0.816918585789469
    endloop
  endfacet
  facet normal -0.9915458100063869 4.4520486300914155e-11 -0.12975710639027946
    outer loop
      vertex 0.654659252203019 -0.500767932109872 0.566261732630942
      vertex 0.654659252247988 0.50076766408237 0.566261732630942
      vertex 0.767204762157606 -1.33992842913444e-7 -0.293760750242245
    endloop
  endfacet
  facet normal 0 0 -1
    outer loop
      vertex -0.346876343989224 -0.500767932109872 0.566261732630942
      vertex 0.654659252247988 0.50076766408237 0.566261732630942
      vertex 0.654659252203019 -0.500767932109872 0.566261732630942
    endloop
  endfacet
  facet normal 0 0 -1
    outer loop
      vertex 0.654659252247988 0.50076766408237 0.566261732630942
      vertex -0.346876343989224 -0.500767932109872 0.566261732630942
      vertex -0.346876343944258 0.500767664172298 0.566261732630942
    endloop
  endfacet
  facet normal 0.8908555855451246 -3.9996820816613216e-11 -0.4542866118465888
    outer loop
      vertex -0.346876343989224 -0.500767932109872 0.566261732630942
      vertex -0.80186055662304 0.500767664237699 -0.3259618474393
      vertex -0.346876343944258 0.500767664172298 0.566261732630942
    endloop
  endfacet
  facet normal 0.890855585545125 -3.999593204146514e-11 -0.45428661184658803
    outer loop
      vertex -0.80186055662304 0.500767664237699 -0.3259618474393
      vertex -0.346876343989224 -0.500767932109872 0.566261732630942
      vertex -0.801860556668005 -0.500767931954549 -0.3259618474393
    endloop
  endfacet
endsolid OpenSCAD_Model
