solid OpenSCAD_Model
  facet normal -0.4761543547276415 0.4111829754912779 0.7773066262036125
    outer loop
      vertex 0.645422107092045 -1.04388360381911e-7 -0.35099949650713
      vertex -0.0863938001402248 0.00000104340328251888 -0.799288230056033
      vertex 0.119880048000999 -0.677491192203937 -0.314548422538443
    endloop
  endfacet
  facet normal -0.7582311387147425 0.6016845845731785 0.251119893617265
    outer loop
      vertex 0.54898298165797 -0.429103038085493 0.385945194892801
      vertex 0.645422107092045 -1.04388360381911e-7 -0.35099949650713
      vertex 0.119880048000999 -0.677491192203937 -0.314548422538443
    endloop
  endfacet
  facet normal 0 0.9425015463963774 -0.3342017879073018
    outer loop
      vertex -0.309222885700464 -0.429103038085493 0.385945194892801
      vertex 0.54898298165797 -0.429103038085493 0.385945194892801
      vertex 0.119880048000999 -0.677491192203937 -0.314548422538443
    endloop
  endfacet
  facet normal 0.2977255296263026 0.9425015463551757 -0.1518233978240518
    outer loop
      vertex -0.699094321484598 -0.429103037952398 -0.37859229565971
      vertex -0.309222885700464 -0.429103038085493 0.385945194892801
      vertex 0.119880048000999 -0.677491192203937 -0.314548422538443
    endloop
  endfacet
  facet normal 0.12074199349320401 0.6016826738279785 0.7895564140848338
    outer loop
      vertex -0.0863938001402248 0.00000104340328251888 -0.799288230056033
      vertex -0.699094321484598 -0.429103037952398 -0.37859229565971
      vertex 0.119880048000999 -0.677491192203937 -0.314548422538443
    endloop
  endfacet
  facet normal 0.12074250148006407 -0.6016840572634569 0.7895552821502254
    outer loop
      vertex -0.699094321446068 0.42910282940604 -0.37859229565971
      vertex -0.0863938001402248 0.00000104340328251888 -0.799288230056033
      vertex 0.119880048061832 0.677490983571128 -0.314548422488372
    endloop
  endfacet
  facet normal 0.2977255295416703 -0.9425015463513032 -0.15182339801405587
    outer loop
      vertex -0.309222885661934 0.429102829349999 0.385945194892801
      vertex -0.699094321446068 0.42910282940604 -0.37859229565971
      vertex 0.119880048061832 0.677490983571128 -0.314548422488372
    endloop
  endfacet
  facet normal 0 -0.9425015463453342 -0.33420178805125184
    outer loop
      vertex 0.548982981619443 0.429102829349999 0.385945194892801
      vertex -0.309222885661934 0.429102829349999 0.385945194892801
      vertex 0.119880048061832 0.677490983571128 -0.314548422488372
    endloop
  endfacet
  facet normal -0.7582311388198845 -0.6016845844732127 0.2511198935393185
    outer loop
      vertex 0.645422107092045 -1.04388360381911e-7 -0.35099949650713
      vertex 0.548982981619443 0.429102829349999 0.385945194892801
      vertex 0.119880048061832 0.677490983571128 -0.314548422488372
    endloop
  endfacet
  facet normal -0.4761551562330639 -0.41118355427203995 0.7773058290588581
    outer loop
      vertex -0.0863938001402248 0.00000104340328251888 -0.799288230056033
      vertex 0.645422107092045 -1.04388360381911e-7 -0.35099949650713
      vertex 0.119880048061832 0.677490983571128 -0.314548422488372
    endloop
  endfacet
  facet normal 0.5660393077484038 -2.5412938622181717e-11 0.8243782518260095
    outer loop
      vertex -0.699094321446068 0.42910282940604 -0.37859229565971
      vertex -0.699094321484598 -0.429103037952398 -0.37859229565971
      vertex -0.0863938001402248 0.00000104340328251888 -0.799288230056033
    endloop
  endfacet
  facet normal -0.9915458099997168 -4.4512915391490534e-11 -0.1297571064412497
    outer loop
      vertex 0.54898298165797 -0.429103038085493 0.385945194892801
      vertex 0.548982981619443 0.429102829349999 0.385945194892801
      vertex 0.645422107092045 -1.04388360381911e-7 -0.35099949650713
    endloop
  endfacet
  facet normal 0.8908555855451248 -3.99958543299935e-11 -0.4542866118465883
    outer loop
      vertex -0.309222885700464 -0.429103038085493 0.385945194892801
      vertex -0.699094321446068 0.42910282940604 -0.37859229565971
      vertex -0.309222885661934 0.429102829349999 0.385945194892801
    endloop
  endfacet
  facet normal 0.8908555855451249 -3.999591195661068e-11 -0.45428661184658836
    outer loop
      vertex -0.699094321446068 0.42910282940604 -0.37859229565971
      vertex -0.309222885700464 -0.429103038085493 0.385945194892801
      vertex -0.699094321484598 -0.429103037952398 -0.37859229565971
    endloop
  endfacet
  facet normal -4.179119789014625e-17 0.816496580893398 -0.5773502692381729
    outer loop
      vertex 0.119880048000999 -1.04364766578765e-7 0.992788383338195
      vertex 0.54898298165797 -0.429103038085493 0.385945194892801
      vertex -0.309222885700464 -0.429103038085493 0.385945194892801
    endloop
  endfacet
  facet normal 0.8164965809178353 -3.6657432294533584e-11 -0.5773502692036133
    outer loop
      vertex -0.309222885661934 0.429102829349999 0.385945194892801
      vertex 0.119880048000999 -1.04364766578765e-7 0.992788383338195
      vertex -0.309222885700464 -0.429103038085493 0.385945194892801
    endloop
  endfacet
  facet normal 0 -0.8164965808971788 -0.5773502692328261
    outer loop
      vertex 0.548982981619443 0.429102829349999 0.385945194892801
      vertex 0.119880048000999 -1.04364766578765e-7 0.992788383338195
      vertex -0.309222885661934 0.429102829349999 0.385945194892801
    endloop
  endfacet
  facet normal -0.8164965809460542 -3.6654524247519696e-11 -0.5773502691637059
    outer loop
      vertex 0.119880048000999 -1.04364766578765e-7 0.992788383338195
      vertex 0.548982981619443 0.429102829349999 0.385945194892801
      vertex 0.54898298165797 -0.429103038085493 0.385945194892801
    endloop
  endfacet
endsolid OpenSCAD_Model
