solid OpenSCAD_Model
  facet normal -0.793523257851766 0.16088983054670697 0.5868861062207653
    outer loop
      vertex 0.692389018411712 7.28238847540042e-7 -0.0386678794094906
      vertex 0.239719534495132 -6.61660648510888e-8 -0.650717870009832
      vertex 0.380774890341443 -0.650680350556464 -0.281619770892837
    endloop
  endfacet
  facet normal -0.7645685753380652 0.5122303438235682 -0.39122240282467213
    outer loop
      vertex 0.208351098482767 -0.380629430828897 0.408928843928615
      vertex 0.692389018411712 7.28238847540042e-7 -0.0386678794094906
      vertex 0.380774890341443 -0.650680350556464 -0.281619770892837
    endloop
  endfacet
  facet normal -0.6687793760316757 0.620438855139275 -0.4096214999583742
    outer loop
      vertex -0.172278266073653 -0.976772857043845 0.127416579694561
      vertex 0.208351098482767 -0.380629430828897 0.408928843928615
      vertex 0.380774890341443 -0.650680350556464 -0.281619770892837
    endloop
  endfacet
  facet normal 0.1958332777826174 0.6204388550104785 0.7594109259855317
    outer loop
      vertex -0.329994368658777 -0.380629430736371 -0.318961622030636
      vertex -0.172278266073653 -0.976772857043845 0.127416579694561
      vertex 0.380774890341443 -0.650680350556464 -0.281619770892837
    endloop
  endfacet
  facet normal 0.15019225362490884 0.5122321838004811 0.8456124862075188
    outer loop
      vertex 0.239719534495132 -6.61660648510888e-8 -0.650717870009832
      vertex -0.329994368658777 -0.380629430736371 -0.318961622030636
      vertex 0.380774890341443 -0.650680350556464 -0.281619770892837
    endloop
  endfacet
  facet normal 0.5032180302130308 -2.259282165468227e-11 0.8641594841628003
    outer loop
      vertex -0.329994368624599 0.38062929841593 -0.318961622030636
      vertex -0.329994368658777 -0.380629430736371 -0.318961622030636
      vertex 0.239719534495132 -6.61660648510888e-8 -0.650717870009832
    endloop
  endfacet
  facet normal 0.15019225354333474 -0.5122321838871854 0.845612486169486
    outer loop
      vertex 0.380774890399869 0.65068021816519 -0.281619770842116
      vertex -0.329994368624599 0.38062929841593 -0.318961622030636
      vertex 0.239719534495132 -6.61660648510888e-8 -0.650717870009832
    endloop
  endfacet
  facet normal -0.7935230331030725 -0.16089002187968135 0.5868863576489537
    outer loop
      vertex 0.692389018411712 7.28238847540042e-7 -0.0386678794094906
      vertex 0.380774890399869 0.65068021816519 -0.281619770842116
      vertex 0.239719534495132 -6.61660648510888e-8 -0.650717870009832
    endloop
  endfacet
  facet normal -0.7645678303829133 -0.5122313093386562 -0.3912225945376501
    outer loop
      vertex 0.208351098516947 0.380629298323407 0.408928843928615
      vertex 0.380774890399869 0.65068021816519 -0.281619770842116
      vertex 0.692389018411712 7.28238847540042e-7 -0.0386678794094906
    endloop
  endfacet
  facet normal -0.6789288808957223 3.048343873677786e-11 -0.734204041589041
    outer loop
      vertex 0.208351098482767 -0.380629430828897 0.408928843928615
      vertex 0.208351098516947 0.380629298323407 0.408928843928615
      vertex 0.692389018411712 7.28238847540042e-7 -0.0386678794094906
    endloop
  endfacet
  facet normal 0 0.4270064179535807 -0.9042485935993775
    outer loop
      vertex -0.552907630669537 -0.380629430828897 0.408928843928615
      vertex 0.208351098482767 -0.380629430828897 0.408928843928615
      vertex -0.172278266073653 -0.976772857043845 0.127416579694561
    endloop
  endfacet
  facet normal 0.8646126539161809 0.42700641777362713 0.26478383233904734
    outer loop
      vertex -0.329994368658777 -0.380629430736371 -0.318961622030636
      vertex -0.552907630669537 -0.380629430828897 0.408928843928615
      vertex -0.172278266073653 -0.976772857043845 0.127416579694561
    endloop
  endfacet
  facet normal 0 0 -1
    outer loop
      vertex -0.552907630669537 -0.380629430828897 0.408928843928615
      vertex 0.208351098516947 0.380629298323407 0.408928843928615
      vertex 0.208351098482767 -0.380629430828897 0.408928843928615
    endloop
  endfacet
  facet normal 0 0 -1
    outer loop
      vertex 0.208351098516947 0.380629298323407 0.408928843928615
      vertex -0.552907630669537 -0.380629430828897 0.408928843928615
      vertex -0.552907630635359 0.38062929839176 0.408928843928615
    endloop
  endfacet
  facet normal 0.9561669876737318 -4.292872855434551e-11 0.2928219453574844
    outer loop
      vertex -0.552907630669537 -0.380629430828897 0.408928843928615
      vertex -0.329994368624599 0.38062929841593 -0.318961622030636
      vertex -0.552907630635359 0.38062929839176 0.408928843928615
    endloop
  endfacet
  facet normal 0.9561669876737319 -4.2928728558200234e-11 0.29282194535748446
    outer loop
      vertex -0.329994368624599 0.38062929841593 -0.318961622030636
      vertex -0.552907630669537 -0.380629430828897 0.408928843928615
      vertex -0.329994368658777 -0.380629430736371 -0.318961622030636
    endloop
  endfacet
  facet normal -3.834071647493916e-11 -0.4270064177837467 -0.9042485936795768
    outer loop
      vertex -0.172278265985945 0.976772724625403 0.127416579806528
      vertex 0.208351098516947 0.380629298323407 0.408928843928615
      vertex -0.552907630635359 0.38062929839176 0.408928843928615
    endloop
  endfacet
  facet normal 0.8646126538778385 -0.4270064179009958 0.2647838322588471
    outer loop
      vertex -0.329994368624599 0.38062929841593 -0.318961622030636
      vertex -0.172278265985945 0.976772724625403 0.127416579806528
      vertex -0.552907630635359 0.38062929839176 0.408928843928615
    endloop
  endfacet
  facet normal -0.6687793760873847 -0.6204388550022916 -0.409621500074903
    outer loop
      vertex 0.380774890399869 0.65068021816519 -0.281619770842116
      vertex 0.208351098516947 0.380629298323407 0.408928843928615
      vertex -0.172278265985945 0.976772724625403 0.127416579806528
    endloop
  endfacet
  facet normal 0.19583327772690873 -0.6204388551706956 0.7594109258690002
    outer loop
      vertex -0.329994368624599 0.38062929841593 -0.318961622030636
      vertex 0.380774890399869 0.65068021816519 -0.281619770842116
      vertex -0.172278265985945 0.976772724625403 0.127416579806528
    endloop
  endfacet
endsolid OpenSCAD_Model
