solid OpenSCAD_Model
  facet normal 0.7196697239541838 -3.231067070352432e-11 -0.6943165621124913
    outer loop
      vertex -0.97875645746076 4.66432223967286e-11 0.205026332291215
      vertex -0.444365843530809 0.444365843613123 0.758930367687115
      vertex -0.44436584357071 -0.444365843477558 0.758930367687115
    endloop
  endfacet
  facet normal 0.7196697239273688 0.6777959954799093 -0.1505592141773574
    outer loop
      vertex -0.444365843530809 -0.637083044444618 -0.108654839638569
      vertex -0.97875645746076 4.66432223967286e-11 0.205026332291215
      vertex -0.44436584357071 -0.444365843477558 0.758930367687115
    endloop
  endfacet
  facet normal 1.424851964055601e-17 0.976206002321972 -0.21684520061683152
    outer loop
      vertex 0.444365843434063 -0.637083044451945 -0.108654839671556
      vertex -0.44436584357071 -0.444365843477558 0.758930367687115
      vertex 0.444365843440173 -0.444365843477558 0.758930367687115
    endloop
  endfacet
  facet normal -5.318014255406502e-16 0.9762060023219721 -0.21684520061683207
    outer loop
      vertex -0.44436584357071 -0.444365843477558 0.758930367687115
      vertex 0.444365843434063 -0.637083044451945 -0.108654839671556
      vertex -0.444365843530809 -0.637083044444618 -0.108654839638569
    endloop
  endfacet
  facet normal 0 0 -1
    outer loop
      vertex -0.44436584357071 -0.444365843477558 0.758930367687115
      vertex 0.444365843480077 0.444365843533324 0.758930367687115
      vertex 0.444365843440173 -0.444365843477558 0.758930367687115
    endloop
  endfacet
  facet normal 0 0 -1
    outer loop
      vertex 0.444365843480077 0.444365843533324 0.758930367687115
      vertex -0.44436584357071 -0.444365843477558 0.758930367687115
      vertex -0.444365843530809 0.444365843613123 0.758930367687115
    endloop
  endfacet
  facet normal -8.765330209089603e-11 -0.9762060023440812 -0.2168452005172991
    outer loop
      vertex -0.444365843473603 0.63708304450638 -0.108654839724193
      vertex 0.444365843480077 0.444365843533324 0.758930367687115
      vertex -0.444365843530809 0.444365843613123 0.758930367687115
    endloop
  endfacet
  facet normal -8.765234180919591e-11 -0.976206002344081 -0.21684520051730005
    outer loop
      vertex 0.444365843480077 0.444365843533324 0.758930367687115
      vertex -0.444365843473603 0.63708304450638 -0.108654839724193
      vertex 0.444365843537275 0.637083044409277 -0.108654839646289
    endloop
  endfacet
  facet normal 0.71966972389332 -0.6777959955327512 -0.15055921410222325
    outer loop
      vertex -0.97875645746076 4.66432223967286e-11 0.205026332291215
      vertex -0.444365843473603 0.63708304450638 -0.108654839724193
      vertex -0.444365843530809 0.444365843613123 0.758930367687115
    endloop
  endfacet
  facet normal -0.7196697238128378 3.231316223993948e-11 -0.6943165622589985
    outer loop
      vertex 0.97875645745558 -1.91460361723298e-11 0.205026332428308
      vertex 0.444365843440173 -0.444365843477558 0.758930367687115
      vertex 0.444365843480077 0.444365843533324 0.758930367687115
    endloop
  endfacet
  facet normal -0.7196697238736978 -0.6777959955325173 -0.15055921419707113
    outer loop
      vertex 0.444365843537275 0.637083044409277 -0.108654839646289
      vertex 0.97875645745558 -1.91460361723298e-11 0.205026332428308
      vertex 0.444365843480077 0.444365843533324 0.758930367687115
    endloop
  endfacet
  facet normal -0.7196697237981073 0.6777959956047694 -0.15055921423312218
    outer loop
      vertex 0.97875645745558 -1.91460361723298e-11 0.205026332428308
      vertex 0.444365843434063 -0.637083044451945 -0.108654839671556
      vertex 0.444365843440173 -0.444365843477558 0.758930367687115
    endloop
  endfacet
  facet normal 0.7980031979367632 -0.5611095654566256 0.21987940248185123
    outer loop
      vertex -0.742675769160147 8.61528706723238e-12 -0.651775815294615
      vertex -0.444365843473603 0.63708304450638 -0.108654839724193
      vertex -0.97875645746076 4.66432223967286e-11 0.205026332291215
    endloop
  endfacet
  facet normal 0.7980031979658068 0.5611095654317023 0.21987940244004572
    outer loop
      vertex -0.444365843530809 -0.637083044444618 -0.108654839638569
      vertex -0.742675769160147 8.61528706723238e-12 -0.651775815294615
      vertex -0.97875645746076 4.66432223967286e-11 0.205026332291215
    endloop
  endfacet
  facet normal -0.7980031979091716 0.5611095655924377 0.21987940223541008
    outer loop
      vertex 0.742675769355185 -3.62034461448178e-11 -0.651775815220984
      vertex 0.444365843434063 -0.637083044451945 -0.108654839671556
      vertex 0.97875645745558 -1.91460361723298e-11 0.205026332428308
    endloop
  endfacet
  facet normal -0.7980031979624349 -0.5611095655021815 0.21987940227242744
    outer loop
      vertex 0.444365843537275 0.637083044409277 -0.108654839646289
      vertex 0.742675769355185 -3.62034461448178e-11 -0.651775815220984
      vertex 0.97875645745558 -1.91460361723298e-11 0.205026332428308
    endloop
  endfacet
  facet normal 0.5409925126508478 0.6777955358155293 0.4979159697019787
    outer loop
      vertex -7.46517115768899e-11 -0.444367310427826 -0.853801573147888
      vertex -0.742675769160147 8.61528706723238e-12 -0.651775815294615
      vertex -0.444365843530809 -0.637083044444618 -0.108654839638569
    endloop
  endfacet
  facet normal 1.7275304491783225e-11 0.9681452196951282 0.2503893639543656
    outer loop
      vertex 0.444365843434063 -0.637083044451945 -0.108654839671556
      vertex -7.46517115768899e-11 -0.444367310427826 -0.853801573147888
      vertex -0.444365843530809 -0.637083044444618 -0.108654839638569
    endloop
  endfacet
  facet normal -0.5409925124865482 0.6777955359449384 0.4979159697043327
    outer loop
      vertex 0.742675769355185 -3.62034461448178e-11 -0.651775815220984
      vertex -7.46517115768899e-11 -0.444367310427826 -0.853801573147888
      vertex 0.444365843434063 -0.637083044451945 -0.108654839671556
    endloop
  endfacet
  facet normal -1.2772824213916628e-10 -0.9681452196214617 0.25038936423920183
    outer loop
      vertex 9.91353480377039e-11 0.444367310217492 -0.853801573123892
      vertex 0.444365843537275 0.637083044409277 -0.108654839646289
      vertex -0.444365843473603 0.63708304450638 -0.108654839724193
    endloop
  endfacet
  facet normal 0.5409925123849787 -0.6777955358414747 0.49791596995553045
    outer loop
      vertex -0.742675769160147 8.61528706723238e-12 -0.651775815294615
      vertex 9.91353480377039e-11 0.444367310217492 -0.853801573123892
      vertex -0.444365843473603 0.63708304450638 -0.108654839724193
    endloop
  endfacet
  facet normal -0.5409925124672921 -0.6777955359029495 0.4979159697824127
    outer loop
      vertex 9.91353480377039e-11 0.444367310217492 -0.853801573123892
      vertex 0.742675769355185 -3.62034461448178e-11 -0.651775815220984
      vertex 0.444365843537275 0.637083044409277 -0.108654839646289
    endloop
  endfacet
  facet normal 0.26248586772379406 -7.738099223697037e-11 0.9649358368540817
    outer loop
      vertex -7.46517115768899e-11 -0.444367310427826 -0.853801573147888
      vertex 9.91353480377039e-11 0.444367310217492 -0.853801573123892
      vertex -0.742675769160147 8.61528706723238e-12 -0.651775815294615
    endloop
  endfacet
  facet normal -0.262485867756743 2.5274279844027957e-11 0.9649358368451187
    outer loop
      vertex 9.91353480377039e-11 0.444367310217492 -0.853801573123892
      vertex -7.46517115768899e-11 -0.444367310427826 -0.853801573147888
      vertex 0.742675769355185 -3.62034461448178e-11 -0.651775815220984
    endloop
  endfacet
endsolid OpenSCAD_Model
