solid OpenSCAD_Model
  facet normal 0 0 -1
    outer loop
      vertex -0.412423871808081 -0.584392304256392 0.698850616862242
      vertex 0.412423209736297 0.240454777250951 0.698850616862242
      vertex 0.412423209699261 -0.584392304256392 0.698850616862242
    endloop
  endfacet
  facet normal 0 0 -1
    outer loop
      vertex 0.412423209736297 0.240454777250951 0.698850616862242
      vertex -0.412423871808081 -0.584392304256392 0.698850616862242
      vertex -0.412423871771049 0.240454777325014 0.698850616862242
    endloop
  endfacet
  facet normal 0.6904293380792359 -3.099714893059593e-11 -0.7233998404198527
    outer loop
      vertex -0.929176248090725 -0.171968763405179 0.205650340631312
      vertex -0.412423871771049 0.240454777325014 0.698850616862242
      vertex -0.412423871808081 -0.584392304256392 0.698850616862242
    endloop
  endfacet
  facet normal 0.690429338165997 0.7119804243198652 -0.12802813903579133
    outer loop
      vertex -0.412423871845114 -0.730374693138481 -0.112975626866956
      vertex -0.929176248090725 -0.171968763405179 0.205650340631312
      vertex -0.412423871808081 -0.584392304256392 0.698850616862242
    endloop
  endfacet
  facet normal 5.469263556731764e-19 0.984214240348223 -0.17698115463452646
    outer loop
      vertex 0.412423209662228 -0.730374693151589 -0.112975626939852
      vertex -0.412423871808081 -0.584392304256392 0.698850616862242
      vertex 0.412423209699261 -0.584392304256392 0.698850616862242
    endloop
  endfacet
  facet normal -1.887011359023773e-16 0.984214240348223 -0.17698115463452666
    outer loop
      vertex -0.412423871808081 -0.584392304256392 0.698850616862242
      vertex 0.412423209662228 -0.730374693151589 -0.112975626939852
      vertex -0.412423871845114 -0.730374693138481 -0.112975626866956
    endloop
  endfacet
  facet normal -0.6904293380792389 0.7119804244123343 -0.1280281389894285
    outer loop
      vertex 0.929175585981901 -0.17196876350454 0.205650340548224
      vertex 0.412423209662228 -0.730374693151589 -0.112975626939852
      vertex 0.412423209699261 -0.584392304256392 0.698850616862242
    endloop
  endfacet
  facet normal -0.6904293381660005 3.1000571444289735e-11 -0.7233998403370424
    outer loop
      vertex 0.412423209736297 0.240454777250951 0.698850616862242
      vertex 0.929175585981901 -0.17196876350454 0.205650340548224
      vertex 0.412423209699261 -0.584392304256392 0.698850616862242
    endloop
  endfacet
  facet normal -3.877027247149494e-11 -0.43178830697017206 -0.9019749763512469
    outer loop
      vertex -3.30938141454595e-7 0.884770253103004 0.390407593772753
      vertex 0.412423209736297 0.240454777250951 0.698850616862242
      vertex -0.412423871771049 0.240454777325014 0.698850616862242
    endloop
  endfacet
  facet normal 0.6272446410963488 -0.6243618338210754 -0.46554963288944434
    outer loop
      vertex -0.632765019932268 0.561343263803659 -0.0283722275974291
      vertex -3.30938141454595e-7 0.884770253103004 0.390407593772753
      vertex -0.412423871771049 0.240454777325014 0.698850616862242
    endloop
  endfacet
  facet normal 0.7776145963266574 -0.45334814775079396 -0.43565008494278284
    outer loop
      vertex -0.929176248090725 -0.171968763405179 0.205650340631312
      vertex -0.632765019932268 0.561343263803659 -0.0283722275974291
      vertex -0.412423871771049 0.240454777325014 0.698850616862242
    endloop
  endfacet
  facet normal -0.7776145964406226 -0.4533481472156007 -0.43565008529629556
    outer loop
      vertex 0.632764358225426 0.561343263892454 -0.0283722274255259
      vertex 0.929175585981901 -0.17196876350454 0.205650340548224
      vertex 0.412423209736297 0.240454777250951 0.698850616862242
    endloop
  endfacet
  facet normal -0.6272446409216763 -0.6243618336839353 -0.46554963330870697
    outer loop
      vertex -3.30938141454595e-7 0.884770253103004 0.390407593772753
      vertex 0.632764358225426 0.561343263892454 -0.0283722274255259
      vertex 0.412423209736297 0.240454777250951 0.698850616862242
    endloop
  endfacet
  facet normal 0.7776145964097579 0.5090070959950562 0.36908984770265435
    outer loop
      vertex -0.632765019980542 -0.0714228285628204 -0.557503383535488
      vertex -0.929176248090725 -0.171968763405179 0.205650340631312
      vertex -0.412423871845114 -0.730374693138481 -0.112975626866956
    endloop
  endfacet
  facet normal 0.6272446413197392 0.5687008564760428 0.5321122962111354
    outer loop
      vertex -3.31127917334724e-7 -0.540832374477305 -0.801708695881818
      vertex -0.632765019980542 -0.0714228285628204 -0.557503383535488
      vertex -0.412423871845114 -0.730374693138481 -0.112975626866956
    endloop
  endfacet
  facet normal 3.8771187189812895e-11 0.9641550093399 0.26533962758091273
    outer loop
      vertex 0.412423209662228 -0.730374693151589 -0.112975626939852
      vertex -3.31127917334724e-7 -0.540832374477305 -0.801708695881818
      vertex -0.412423871845114 -0.730374693138481 -0.112975626866956
    endloop
  endfacet
  facet normal -0.6272446416247227 0.5687008559732647 0.5321122963889761
    outer loop
      vertex 0.632764357471977 -0.0714228283241435 -0.557503383363903
      vertex -3.31127917334724e-7 -0.540832374477305 -0.801708695881818
      vertex 0.412423209662228 -0.730374693151589 -0.112975626939852
    endloop
  endfacet
  facet normal -0.7776145962907357 0.5090070956912787 0.3690898483723519
    outer loop
      vertex 0.929175585981901 -0.17196876350454 0.205650340548224
      vertex 0.632764357471977 -0.0714228283241435 -0.557503383363903
      vertex 0.412423209662228 -0.730374693151589 -0.112975626939852
    endloop
  endfacet
  facet normal 0.9098464784276029 -0.26618309416590286 0.31831736690472234
    outer loop
      vertex -0.632765019980542 -0.0714228285628204 -0.557503383535488
      vertex -0.632765019932268 0.561343263803659 -0.0283722275974291
      vertex -0.929176248090725 -0.171968763405179 0.205650340631312
    endloop
  endfacet
  facet normal -0.9098464784217557 -0.26618309353292147 0.31831736745074657
    outer loop
      vertex 0.632764358225426 0.561343263892454 -0.0283722274255259
      vertex 0.632764357471977 -0.0714228283241435 -0.557503383363903
      vertex 0.929175585981901 -0.17196876350454 0.205650340548224
    endloop
  endfacet
  facet normal 0.4640539767528037 -0.8856401967453069 -0.017185708272938686
    outer loop
      vertex 0.00000231735504403175 0.900774655018446 -0.434284207409278
      vertex -3.30938141454595e-7 0.884770253103004 0.390407593772753
      vertex -0.632765019932268 0.561343263803659 -0.0283722275974291
    endloop
  endfacet
  facet normal 0.6414881971016118 -0.492108088380407 0.588491735141544
    outer loop
      vertex -0.632765019932268 0.561343263803659 -0.0283722275974291
      vertex 0.00000231736170465966 0.268008562683317 -0.963415363381006
      vertex 0.00000231735504403175 0.900774655018446 -0.434284207409278
    endloop
  endfacet
  facet normal 0.6414881971016134 -0.49210808838040443 0.5884917351415443
    outer loop
      vertex 0.00000231736170465966 0.268008562683317 -0.963415363381006
      vertex -0.632765019932268 0.561343263803659 -0.0283722275974291
      vertex -0.632765019980542 -0.0714228285628204 -0.557503383535488
    endloop
  endfacet
  facet normal -0.6414913570263667 -0.4921063933227567 0.5884897080759688
    outer loop
      vertex 0.00000231736170465966 0.268008562683317 -0.963415363381006
      vertex 0.632764358225426 0.561343263892454 -0.0283722274255259
      vertex 0.00000231735504403175 0.900774655018446 -0.434284207409278
    endloop
  endfacet
  facet normal -0.6414913574438581 -0.4921063926813124 0.5884897081572643
    outer loop
      vertex 0.632764358225426 0.561343263892454 -0.0283722274255259
      vertex 0.00000231736170465966 0.268008562683317 -0.963415363381006
      vertex 0.632764357471977 -0.0714228283241435 -0.557503383363903
    endloop
  endfacet
  facet normal -0.4640555005118736 -0.8856393408141015 -0.01718867205569183
    outer loop
      vertex -3.30938141454595e-7 0.884770253103004 0.390407593772753
      vertex 0.00000231735504403175 0.900774655018446 -0.434284207409278
      vertex 0.632764358225426 0.561343263892454 -0.0283722274255259
    endloop
  endfacet
  facet normal 0.464053976915913 0.17365604332011889 0.8686181469016904
    outer loop
      vertex -3.31127917334724e-7 -0.540832374477305 -0.801708695881818
      vertex 0.00000231736170465966 0.268008562683317 -0.963415363381006
      vertex -0.632765019980542 -0.0714228285628204 -0.557503383535488
    endloop
  endfacet
  facet normal -0.4640555013683572 0.17365880897914684 0.8686167795487874
    outer loop
      vertex 0.00000231736170465966 0.268008562683317 -0.963415363381006
      vertex -3.31127917334724e-7 -0.540832374477305 -0.801708695881818
      vertex 0.632764357471977 -0.0714228283241435 -0.557503383363903
    endloop
  endfacet
endsolid OpenSCAD_Model
