solid OpenSCAD_Model
  facet normal 0 0 -1
    outer loop
      vertex 0.356822089765406 -0.794654472325328 0.491123473139702
      vertex 6.55209426931698e-11 0.303530999045796 0.491123473139702
      vertex 0.577350269194768 -0.115938525095305 0.491123473139702
    endloop
  endfacet
  facet normal 0 0 -1
    outer loop
      vertex -0.356822089743385 -0.794654472325328 0.491123473139702
      vertex 6.55209426931698e-11 0.303530999045796 0.491123473139702
      vertex 0.356822089765406 -0.794654472325328 0.491123473139702
    endloop
  endfacet
  facet normal 0 0 -1
    outer loop
      vertex 6.55209426931698e-11 0.303530999045796 0.491123473139702
      vertex -0.356822089743385 -0.794654472325328 0.491123473139702
      vertex -0.577350269139055 -0.115938524991621 0.491123473139702
    endloop
  endfacet
  facet normal 0.9341723589898304 0.30353099905650976 -0.18759247402583187
    outer loop
      vertex -0.5773502691118 -0.49112347316341 -0.11593852503196
      vertex -0.577350269139055 -0.115938524991621 0.491123473139702
      vertex -0.356822089743385 -0.794654472325328 0.491123473139702
    endloop
  endfacet
  facet normal -1.4585253763641031e-15 0.8944271909550741 0.4472135955896417
    outer loop
      vertex -3.01388555961342e-12 -0.303530999050877 -0.491123473162978
      vertex 0.356822089765406 -0.794654472325328 0.491123473139702
      vertex 0.577350269177276 -0.491123473150874 -0.115938525057031
    endloop
  endfacet
  facet normal 0 0.8944271909550742 0.4472135955896412
    outer loop
      vertex 0.356822089765406 -0.794654472325328 0.491123473139702
      vertex -3.01388555961342e-12 -0.303530999050877 -0.491123473162978
      vertex -0.356822089743385 -0.794654472325328 0.491123473139702
    endloop
  endfacet
  facet normal 4.480207940455618e-16 0.8944271909550742 0.4472135955896413
    outer loop
      vertex -0.356822089743385 -0.794654472325328 0.491123473139702
      vertex -3.01388555961342e-12 -0.303530999050877 -0.491123473162978
      vertex -0.5773502691118 -0.49112347316341 -0.11593852503196
    endloop
  endfacet
  facet normal -0.9341723589623973 0.30353099914033804 -0.18759247402680704
    outer loop
      vertex 0.577350269194768 -0.115938525095305 0.491123473139702
      vertex 0.577350269177276 -0.491123473150874 -0.115938525057031
      vertex 0.356822089765406 -0.794654472325328 0.491123473139702
    endloop
  endfacet
  facet normal -0.35682208978892355 0.4911234730291004 0.7946544723831231
    outer loop
      vertex 0.577350269107525 0.115938525082941 -0.491123473110433
      vertex -3.01388555961342e-12 -0.303530999050877 -0.491123473162978
      vertex 0.577350269177276 -0.491123473150874 -0.115938525057031
    endloop
  endfacet
  facet normal -1 -7.025771926553165e-11 7.223421583025276e-11
    outer loop
      vertex 0.577350269107525 0.115938525082941 -0.491123473110433
      vertex 0.577350269194768 -0.115938525095305 0.491123473139702
      vertex 0.577350269125016 0.491123473178469 0.115938525049176
    endloop
  endfacet
  facet normal -1 -7.025600627578262e-11 7.223462021227861e-11
    outer loop
      vertex 0.577350269194768 -0.115938525095305 0.491123473139702
      vertex 0.577350269107525 0.115938525082941 -0.491123473110433
      vertex 0.577350269177276 -0.491123473150874 -0.115938525057031
    endloop
  endfacet
  facet normal 0.3568220897453643 0.49112347320019173 0.7946544722969423
    outer loop
      vertex -0.577350269168958 0.115938525000337 -0.491123473156463
      vertex -0.5773502691118 -0.49112347316341 -0.11593852503196
      vertex -3.01388555961342e-12 -0.303530999050877 -0.491123473162978
    endloop
  endfacet
  facet normal -3.98654480117147e-11 -7.039533279734094e-11 1
    outer loop
      vertex 0.356822089634758 0.794654472377817 -0.491123473071446
      vertex -3.01388555961342e-12 -0.303530999050877 -0.491123473162978
      vertex 0.577350269107525 0.115938525082941 -0.491123473110433
    endloop
  endfacet
  facet normal -3.986023304515428e-11 -7.039702724269092e-11 1
    outer loop
      vertex -0.356822089874032 0.794654472262684 -0.491123473099892
      vertex -3.01388555961342e-12 -0.303530999050877 -0.491123473162978
      vertex 0.356822089634758 0.794654472377817 -0.491123473071446
    endloop
  endfacet
  facet normal -3.986268280321344e-11 -7.039782321733562e-11 1
    outer loop
      vertex -3.01388555961342e-12 -0.303530999050877 -0.491123473162978
      vertex -0.356822089874032 0.794654472262684 -0.491123473099892
      vertex -0.577350269168958 0.115938525000337 -0.491123473156463
    endloop
  endfacet
  facet normal 1 -2.3230979774187635e-10 -8.528445001804852e-11
    outer loop
      vertex -0.577350269139055 -0.115938524991621 0.491123473139702
      vertex -0.577350269168958 0.115938525000337 -0.491123473156463
      vertex -0.577350269030026 0.491123473154698 0.115938524942516
    endloop
  endfacet
  facet normal 1 8.820969507702722e-11 -9.620061607359805e-12
    outer loop
      vertex -0.577350269168958 0.115938525000337 -0.491123473156463
      vertex -0.577350269139055 -0.115938524991621 0.491123473139702
      vertex -0.5773502691118 -0.49112347316341 -0.11593852503196
    endloop
  endfacet
  facet normal 0.35682208977056906 -0.4911234732962413 -0.7946544722262628
    outer loop
      vertex -0.577350269030026 0.491123473154698 0.115938524942516
      vertex 6.55209426931698e-11 0.303530999045796 0.491123473139702
      vertex -0.577350269139055 -0.115938524991621 0.491123473139702
    endloop
  endfacet
  facet normal -0.3568220897662101 -0.4911234731047677 -0.7946544723465572
    outer loop
      vertex 6.55209426931698e-11 0.303530999045796 0.491123473139702
      vertex 0.577350269125016 0.491123473178469 0.115938525049176
      vertex 0.577350269194768 -0.115938525095305 0.491123473139702
    endloop
  endfacet
  facet normal -0.9341723589311838 -0.3035309991717108 0.18759247413148109
    outer loop
      vertex 0.577350269125016 0.491123473178469 0.115938525049176
      vertex 0.356822089634758 0.794654472377817 -0.491123473071446
      vertex 0.577350269107525 0.115938525082941 -0.491123473110433
    endloop
  endfacet
  facet normal 0.934172359053241 -0.30353099898599994 0.18759247382414732
    outer loop
      vertex -0.356822089874032 0.794654472262684 -0.491123473099892
      vertex -0.577350269030026 0.491123473154698 0.115938524942516
      vertex -0.577350269168958 0.115938525000337 -0.491123473156463
    endloop
  endfacet
  facet normal 5.4300519094741227e-11 -0.8944271909566613 -0.447213595586467
    outer loop
      vertex -0.356822089874032 0.794654472262684 -0.491123473099892
      vertex 6.55209426931698e-11 0.303530999045796 0.491123473139702
      vertex -0.577350269030026 0.491123473154698 0.115938524942516
    endloop
  endfacet
  facet normal 1.6212483881151117e-10 -0.8944271909409937 -0.4472135956178025
    outer loop
      vertex 0.356822089634758 0.794654472377817 -0.491123473071446
      vertex 6.55209426931698e-11 0.303530999045796 0.491123473139702
      vertex -0.356822089874032 0.794654472262684 -0.491123473099892
    endloop
  endfacet
  facet normal 1.8554777584891482e-12 -0.8944271909177051 -0.4472135956643795
    outer loop
      vertex 6.55209426931698e-11 0.303530999045796 0.491123473139702
      vertex 0.356822089634758 0.794654472377817 -0.491123473071446
      vertex 0.577350269125016 0.491123473178469 0.115938525049176
    endloop
  endfacet
endsolid OpenSCAD_Model
