solid OpenSCAD_Model
  facet normal 1.9951109191554786e-10 0.6666666667719651 0.7453559924057482
    outer loop
      vertex 3.81404180287862e-11 -0.998525058758189 -0.0542927898707952
      vertex 0.330304369875139 -0.572103950807944 -0.435695423834653
      vertex -0.330304370044045 -0.572103950815358 -0.435695423651195
    endloop
  endfacet
  facet normal 0.5773502691900407 0.7453559925842028 0.33333333314417474
    outer loop
      vertex -0.53444369713428 -0.689963846327349 0.181427001258101
      vertex 3.81404180287862e-11 -0.998525058758189 -0.0542927898707952
      vertex -0.330304370044045 -0.572103950815358 -0.435695423651195
    endloop
  endfacet
  facet normal 0.8090169944763195 0.4670861794753145 0.35682208955116124
    outer loop
      vertex -0.864748067066264 -0.117859895564036 0.181427001258101
      vertex -0.330304370044045 -0.572103950815358 -0.435695423651195
      vertex -0.660608740001183 -2.53098788126886e-11 -0.435695423629164
    endloop
  endfacet
  facet normal 0.80901699447632 0.46708617947531267 0.35682208955116307
    outer loop
      vertex -0.330304370044045 -0.572103950815358 -0.435695423651195
      vertex -0.864748067066264 -0.117859895564036 0.181427001258101
      vertex -0.53444369713428 -0.689963846327349 0.181427001258101
    endloop
  endfacet
  facet normal 2.7770913666846583e-10 1.2182663254122932e-10 1
    outer loop
      vertex 0.330304369784069 0.572103950731964 -0.435695423974048
      vertex 0.330304369875139 -0.572103950807944 -0.435695423834653
      vertex 0.660608739803655 1.07078296019036e-11 -0.435695423996079
    endloop
  endfacet
  facet normal 2.777195564608918e-10 1.2182663254123012e-10 1
    outer loop
      vertex -0.330304370106764 0.572103950694388 -0.435695423790584
      vertex 0.330304369875139 -0.572103950807944 -0.435695423834653
      vertex 0.330304369784069 0.572103950731964 -0.435695423974048
    endloop
  endfacet
  facet normal 2.7771048118203193e-10 1.2182139292653708e-10 1
    outer loop
      vertex -0.330304370106764 0.572103950694388 -0.435695423790584
      vertex -0.330304370044045 -0.572103950815358 -0.435695423651195
      vertex 0.330304369875139 -0.572103950807944 -0.435695423834653
    endloop
  endfacet
  facet normal 2.776998934068798e-10 1.2182139292653648e-10 1
    outer loop
      vertex -0.330304370044045 -0.572103950815358 -0.435695423651195
      vertex -0.330304370106764 0.572103950694388 -0.435695423790584
      vertex -0.660608740001183 -2.53098788126886e-11 -0.435695423629164
    endloop
  endfacet
  facet normal -0.8090169944226514 0.467086179494924 0.3568220896471734
    outer loop
      vertex 0.330304369875139 -0.572103950807944 -0.435695423834653
      vertex 0.864748067077363 -0.117859895496055 0.181427001132083
      vertex 0.660608739803655 1.07078296019036e-11 -0.435695423996079
    endloop
  endfacet
  facet normal -0.8090169944614647 0.46708617928266394 0.35682208983702446
    outer loop
      vertex 0.864748067077363 -0.117859895496055 0.181427001132083
      vertex 0.330304369875139 -0.572103950807944 -0.435695423834653
      vertex 0.534443697278616 -0.689963846341856 0.181427001247019
    endloop
  endfacet
  facet normal -0.5773502691459025 0.745355992528426 0.33333333334534493
    outer loop
      vertex 3.81404180287862e-11 -0.998525058758189 -0.0542927898707952
      vertex 0.534443697278616 -0.689963846341856 0.181427001247019
      vertex 0.330304369875139 -0.572103950807944 -0.435695423834653
    endloop
  endfacet
  facet normal -0.5773502692880179 -0.3333333334856705 0.7453559923555885
    outer loop
      vertex 0.86474806701047 0.499262529419521 -0.0542927900023157
      vertex 0.330304369784069 0.572103950731964 -0.435695423974048
      vertex 0.660608739803655 1.07078296019036e-11 -0.435695423996079
    endloop
  endfacet
  facet normal -0.9341723590212598 0.12732200362413726 0.33333333321735087
    outer loop
      vertex 0.864748067077363 -0.117859895496055 0.181427001132083
      vertex 0.86474806701047 0.499262529419521 -0.0542927900023157
      vertex 0.660608739803655 1.07078296019036e-11 -0.435695423996079
    endloop
  endfacet
  facet normal 8.368740265130816e-10 -0.9341723589982459 0.3568220896800706
    outer loop
      vertex -0.330304370106764 0.572103950694388 -0.435695423790584
      vertex 0.330304369969765 0.807823742243281 0.181427000940445
      vertex -0.330304369730217 0.807823741794477 0.181427001314822
    endloop
  endfacet
  facet normal 1.522329482783041e-10 -0.9341723587539509 0.35682209031964346
    outer loop
      vertex 0.330304369969765 0.807823742243281 0.181427000940445
      vertex -0.330304370106764 0.572103950694388 -0.435695423790584
      vertex 0.330304369784069 0.572103950731964 -0.435695423974048
    endloop
  endfacet
  facet normal -0.35682209013580174 -0.872677995889729 0.3333333338881725
    outer loop
      vertex 0.86474806701047 0.499262529419521 -0.0542927900023157
      vertex 0.330304369969765 0.807823742243281 0.181427000940445
      vertex 0.330304369784069 0.572103950731964 -0.435695423974048
    endloop
  endfacet
  facet normal 0.5773502695315653 -0.3333333332618696 0.7453559922670241
    outer loop
      vertex -0.86474806695671 0.499262529398435 -0.0542927898612566
      vertex -0.660608740001183 -2.53098788126886e-11 -0.435695423629164
      vertex -0.330304370106764 0.572103950694388 -0.435695423790584
    endloop
  endfacet
  facet normal 0.3568220897998189 -0.8726779963461923 0.3333333330527943
    outer loop
      vertex -0.330304369730217 0.807823741794477 0.181427001314822
      vertex -0.86474806695671 0.499262529398435 -0.0542927898612566
      vertex -0.330304370106764 0.572103950694388 -0.435695423790584
    endloop
  endfacet
  facet normal 0.9341723591060481 0.1273220034730412 0.33333333303744417
    outer loop
      vertex -0.86474806695671 0.499262529398435 -0.0542927898612566
      vertex -0.864748067066264 -0.117859895564036 0.181427001258101
      vertex -0.660608740001183 -2.53098788126886e-11 -0.435695423629164
    endloop
  endfacet
  facet normal 6.868779454389966e-16 0.6070619982904191 -0.7946544722278
    outer loop
      vertex 3.81404180287862e-11 -0.998525058758189 -0.0542927898707952
      vertex 0.330304370013668 -0.190701316968386 0.562829635153173
      vertex 0.534443697278616 -0.689963846341856 0.181427001247019
    endloop
  endfacet
  facet normal 2.1620564141581085e-17 0.6070619982904192 -0.7946544722277998
    outer loop
      vertex 3.81404180287862e-11 -0.998525058758189 -0.0542927898707952
      vertex -0.33030436990167 -0.190701316968386 0.562829635153173
      vertex 0.330304370013668 -0.190701316968386 0.562829635153173
    endloop
  endfacet
  facet normal 1.77792804224755e-16 0.6070619982904192 -0.7946544722277998
    outer loop
      vertex -0.33030436990167 -0.190701316968386 0.562829635153173
      vertex 3.81404180287862e-11 -0.998525058758189 -0.0542927898707952
      vertex -0.53444369713428 -0.689963846327349 0.181427001258101
    endloop
  endfacet
  facet normal 0.5773502693139914 0.3333333333590539 -0.7453559923920943
    outer loop
      vertex -0.864748067066264 -0.117859895564036 0.181427001258101
      vertex -0.33030436990167 -0.190701316968386 0.562829635153173
      vertex -0.53444369713428 -0.689963846327349 0.181427001258101
    endloop
  endfacet
  facet normal -0.5773502695479005 0.333333333161839 -0.7453559922991062
    outer loop
      vertex 0.330304370013668 -0.190701316968386 0.562829635153173
      vertex 0.864748067077363 -0.117859895496055 0.181427001132083
      vertex 0.534443697278616 -0.689963846341856 0.181427001247019
    endloop
  endfacet
  facet normal -0.5257311123776692 -0.30353099913696735 -0.7946544721078795
    outer loop
      vertex 0.330304370013668 -0.190701316968386 0.562829635153173
      vertex 0.86474806701047 0.499262529419521 -0.0542927900023157
      vertex 0.864748067077363 -0.117859895496055 0.181427001132083
    endloop
  endfacet
  facet normal -0.5257311123314974 -0.3035309991839892 -0.7946544721204655
    outer loop
      vertex 9.02465674446467e-11 0.381402633780097 0.562829635153173
      vertex 0.86474806701047 0.499262529419521 -0.0542927900023157
      vertex 0.330304370013668 -0.190701316968386 0.562829635153173
    endloop
  endfacet
  facet normal -0.5257311123003687 -0.30353099929606486 -0.7946544720982507
    outer loop
      vertex 0.86474806701047 0.499262529419521 -0.0542927900023157
      vertex 9.02465674446467e-11 0.381402633780097 0.562829635153173
      vertex 0.330304369969765 0.807823742243281 0.181427000940445
    endloop
  endfacet
  facet normal 3.051500993398994e-11 -0.666666666667108 -0.745355992499535
    outer loop
      vertex 9.02465674446467e-11 0.381402633780097 0.562829635153173
      vertex -0.330304369730217 0.807823741794477 0.181427001314822
      vertex 0.330304369969765 0.807823742243281 0.181427000940445
    endloop
  endfacet
  facet normal 0.525731112199775 -0.30353099917088233 -0.7946544722126174
    outer loop
      vertex -0.86474806695671 0.499262529398435 -0.0542927898612566
      vertex 9.02465674446467e-11 0.381402633780097 0.562829635153173
      vertex -0.33030436990167 -0.190701316968386 0.562829635153173
    endloop
  endfacet
  facet normal 0.5257311121997736 -0.3035309991708836 -0.7946544722126178
    outer loop
      vertex -0.86474806695671 0.499262529398435 -0.0542927898612566
      vertex -0.33030436990167 -0.190701316968386 0.562829635153173
      vertex -0.864748067066264 -0.117859895564036 0.181427001258101
    endloop
  endfacet
  facet normal 0.5257311121997754 -0.3035309991708806 -0.7946544722126176
    outer loop
      vertex 9.02465674446467e-11 0.381402633780097 0.562829635153173
      vertex -0.86474806695671 0.499262529398435 -0.0542927898612566
      vertex -0.330304369730217 0.807823741794477 0.181427001314822
    endloop
  endfacet
  facet normal 0 0 -1
    outer loop
      vertex 9.02465674446467e-11 0.381402633780097 0.562829635153173
      vertex 0.330304370013668 -0.190701316968386 0.562829635153173
      vertex -0.33030436990167 -0.190701316968386 0.562829635153173
    endloop
  endfacet
endsolid OpenSCAD_Model
