solid OpenSCAD_Model
  facet normal 0.8660254037694733 -0.5000000000259206 2.5921138093966477e-11
    outer loop
      vertex -0.654653670727391 -0.377964473028483 0.654653670677445
      vertex 9.4792074308955e-11 0.755928946050755 -0.654653670596035
      vertex 2.3586634702857e-11 0.755928945995301 0.654653670677445
    endloop
  endfacet
  facet normal 0.8660254037694732 -0.5000000000259207 2.5920980853397827e-11
    outer loop
      vertex 9.4792074308955e-11 0.755928946050755 -0.654653670596035
      vertex -0.654653670727391 -0.377964473028483 0.654653670677445
      vertex -0.654653670668608 -0.377964472994545 -0.654653670688757
    endloop
  endfacet
  facet normal -1.0779455578136501e-27 1 2.592059021434281e-11
    outer loop
      vertex 0.654653670638811 -0.377964472994545 -0.654653670747545
      vertex -0.654653670727391 -0.377964473028483 0.654653670677445
      vertex 0.654653670638811 -0.377964473028483 0.654653670677445
    endloop
  endfacet
  facet normal 1.1638371027496395e-21 1 2.5920590215506642e-11
    outer loop
      vertex -0.654653670727391 -0.377964473028483 0.654653670677445
      vertex 0.654653670638811 -0.377964472994545 -0.654653670747545
      vertex -0.654653670668608 -0.377964472994545 -0.654653670688757
    endloop
  endfacet
  facet normal 0 0 -1
    outer loop
      vertex 2.3586634702857e-11 0.755928945995301 0.654653670677445
      vertex 0.654653670638811 -0.377964473028483 0.654653670677445
      vertex -0.654653670727391 -0.377964473028483 0.654653670677445
    endloop
  endfacet
  facet normal -0.8660254038420269 -0.4999999999002544 -6.82748062654595e-11
    outer loop
      vertex 0.654653670638811 -0.377964472994545 -0.654653670747545
      vertex 2.3586634702857e-11 0.755928945995301 0.654653670677445
      vertex 9.4792074308955e-11 0.755928946050755 -0.654653670596035
    endloop
  endfacet
  facet normal -0.8660254038143697 -0.49999999994815814 -1.2960358747327494e-11
    outer loop
      vertex 2.3586634702857e-11 0.755928945995301 0.654653670677445
      vertex 0.654653670638811 -0.377964472994545 -0.654653670747545
      vertex 0.654653670638811 -0.377964473028483 0.654653670677445
    endloop
  endfacet
  facet normal 4.4900057178122736e-11 -1.0769622387470202e-10 1
    outer loop
      vertex 0.654653670638811 -0.377964472994545 -0.654653670747545
      vertex 9.4792074308955e-11 0.755928946050755 -0.654653670596035
      vertex -0.654653670668608 -0.377964472994545 -0.654653670688757
    endloop
  endfacet
endsolid OpenSCAD_Model
