solid OpenSCAD_Model
  facet normal 0.951056516311802 0.30901699432370844 6.17954341499008e-11
    outer loop
      vertex -0.506731853988241 -0.697456562336935 0.506731853939067
      vertex -0.819909362847497 0.266404701272114 -0.506731853852563
      vertex -0.819909362898291 0.266404701225775 0.506731853939067
    endloop
  endfacet
  facet normal 0.9510565163118023 0.309016994323708 6.179488926814996e-11
    outer loop
      vertex -0.819909362847497 0.266404701272114 -0.506731853852563
      vertex -0.506731853988241 -0.697456562336935 0.506731853939067
      vertex -0.50673185394274 -0.697456562274308 -0.506731853960692
    endloop
  endfacet
  facet normal 5.072138404257722e-27 1 6.1795024522647e-11
    outer loop
      vertex 0.506731853911518 -0.697456562274308 -0.506731854006196
      vertex -0.506731853988241 -0.697456562336935 0.506731853939067
      vertex 0.506731853911518 -0.697456562336935 0.506731853939067
    endloop
  endfacet
  facet normal 2.774572679775776e-21 1 6.179502452542158e-11
    outer loop
      vertex -0.506731853988241 -0.697456562336935 0.506731853939067
      vertex 0.506731853911518 -0.697456562274308 -0.506731854006196
      vertex -0.50673185394274 -0.697456562274308 -0.506731853960692
    endloop
  endfacet
  facet normal 0 0 -1
    outer loop
      vertex 0.506731853911518 -0.697456562336935 0.506731853939067
      vertex 3.90496132257779e-11 0.86210372237455 0.506731853939067
      vertex 0.819909362869413 0.266404701078531 0.506731853939067
    endloop
  endfacet
  facet normal 0 0 -1
    outer loop
      vertex -0.506731853988241 -0.697456562336935 0.506731853939067
      vertex 3.90496132257779e-11 0.86210372237455 0.506731853939067
      vertex 0.506731853911518 -0.697456562336935 0.506731853939067
    endloop
  endfacet
  facet normal 0 0 -1
    outer loop
      vertex 3.90496132257779e-11 0.86210372237455 0.506731853939067
      vertex -0.506731853988241 -0.697456562336935 0.506731853939067
      vertex -0.819909362898291 0.266404701225775 0.506731853939067
    endloop
  endfacet
  facet normal 0.5877852522052978 -0.8090169944382841 -7.531748810550023e-12
    outer loop
      vertex -0.819909362847497 0.266404701272114 -0.506731853852563
      vertex 3.90496132257779e-11 0.86210372237455 0.506731853939067
      vertex -0.819909362898291 0.266404701225775 0.506731853939067
    endloop
  endfacet
  facet normal 0.5877852521492134 -0.8090169944790317 6.179240744309071e-11
    outer loop
      vertex 3.90496132257779e-11 0.86210372237455 0.506731853939067
      vertex -0.819909362847497 0.266404701272114 -0.506731853852563
      vertex 3.90496132257779e-11 0.862103722297142 -0.506731853960692
    endloop
  endfacet
  facet normal -0.5877852523505849 -0.8090169943327268 6.179240743191598e-11
    outer loop
      vertex 3.90496132257779e-11 0.862103722297142 -0.506731853960692
      vertex 0.819909362869413 0.266404701078531 0.506731853939067
      vertex 3.90496132257779e-11 0.86210372237455 0.506731853939067
    endloop
  endfacet
  facet normal -0.5877852523505885 -0.8090169943327242 6.179694781552717e-11
    outer loop
      vertex 0.819909362869413 0.266404701078531 0.506731853939067
      vertex 3.90496132257779e-11 0.862103722297142 -0.506731853960692
      vertex 0.819909362906222 0.266404700974374 -0.50673185391519
    endloop
  endfacet
  facet normal -0.9510565162576649 0.309016994490326 -6.630105748280266e-11
    outer loop
      vertex 0.506731853911518 -0.697456562274308 -0.506731854006196
      vertex 0.819909362869413 0.266404701078531 0.506731853939067
      vertex 0.819909362906222 0.266404700974374 -0.50673185391519
    endloop
  endfacet
  facet normal -0.9510565162840539 0.3090169944091089 1.9095707514178458e-11
    outer loop
      vertex 0.819909362869413 0.266404701078531 0.506731853939067
      vertex 0.506731853911518 -0.697456562274308 -0.506731854006196
      vertex 0.506731853911518 -0.697456562336935 0.506731853939067
    endloop
  endfacet
  facet normal -1.0039503527802615e-10 -6.179780818732892e-11 1
    outer loop
      vertex 3.90496132257779e-11 0.862103722297142 -0.506731853960692
      vertex 0.506731853911518 -0.697456562274308 -0.506731854006196
      vertex 0.819909362906222 0.266404700974374 -0.50673185391519
    endloop
  endfacet
  facet normal 4.489953081086577e-11 -1.4588741913849455e-11 1
    outer loop
      vertex 3.90496132257779e-11 0.862103722297142 -0.506731853960692
      vertex -0.50673185394274 -0.697456562274308 -0.506731853960692
      vertex 0.506731853911518 -0.697456562274308 -0.506731854006196
    endloop
  endfacet
  facet normal 1.7263204915268285e-10 -5.609155297760897e-11 1
    outer loop
      vertex -0.50673185394274 -0.697456562274308 -0.506731853960692
      vertex 3.90496132257779e-11 0.862103722297142 -0.506731853960692
      vertex -0.819909362847497 0.266404701272114 -0.506731853852563
    endloop
  endfacet
endsolid OpenSCAD_Model
