solid OpenSCAD_Model
  facet normal 0.8660254038143698 0.49999999994815764 7.776309098995712e-11
    outer loop
      vertex -0.447213595513182 -0.774596669248552 0.447213595469591
      vertex -0.894427190960244 1.47504831077859e-10 -0.447213595378165
      vertex -0.894427191015099 1.03409562943143e-10 0.447213595469591
    endloop
  endfacet
  facet normal 0.8660254038143699 0.49999999994815775 7.776307975262416e-11
    outer loop
      vertex -0.894427190960244 1.47504831077859e-10 -0.447213595378165
      vertex -0.447213595513182 -0.774596669248552 0.447213595469591
      vertex -0.447213595473025 -0.774596669178999 -0.447213595487875
    endloop
  endfacet
  facet normal -1.884021708891607e-27 1 7.776252743639368e-11
    outer loop
      vertex 0.447213595444285 -0.774596669178999 -0.447213595528035
      vertex -0.447213595513182 -0.774596669248552 0.447213595469591
      vertex 0.447213595444285 -0.774596669248552 0.447213595469591
    endloop
  endfacet
  facet normal 3.491563123386306e-21 1 7.776252743988523e-11
    outer loop
      vertex -0.447213595513182 -0.774596669248552 0.447213595469591
      vertex 0.447213595444285 -0.774596669178999 -0.447213595528035
      vertex -0.447213595473025 -0.774596669178999 -0.447213595487875
    endloop
  endfacet
  facet normal 0 0 -1
    outer loop
      vertex 0.447213595444285 -0.774596669248552 0.447213595469591
      vertex 0.447213595513835 0.774596669174273 0.447213595469591
      vertex 0.894427190946201 -5.72170499558631e-11 0.447213595469591
    endloop
  endfacet
  facet normal 0 0 -1
    outer loop
      vertex -0.447213595513182 -0.774596669248552 0.447213595469591
      vertex 0.447213595513835 0.774596669174273 0.447213595469591
      vertex 0.447213595444285 -0.774596669248552 0.447213595469591
    endloop
  endfacet
  facet normal 0 0 -1
    outer loop
      vertex -0.447213595513182 -0.774596669248552 0.447213595469591
      vertex -0.447213595443628 0.774596669254592 0.447213595469591
      vertex 0.447213595513835 0.774596669174273 0.447213595469591
    endloop
  endfacet
  facet normal 0 0 -1
    outer loop
      vertex -0.447213595443628 0.774596669254592 0.447213595469591
      vertex -0.447213595513182 -0.774596669248552 0.447213595469591
      vertex -0.894427191015099 1.03409562943143e-10 0.447213595469591
    endloop
  endfacet
  facet normal 0.8660254036999264 -0.5000000001463795 7.77655469998172e-11
    outer loop
      vertex -0.447213595443628 0.774596669254592 0.447213595469591
      vertex -0.894427190960244 1.47504831077859e-10 -0.447213595378165
      vertex -0.447213595403472 0.774596669185033 -0.447213595487875
    endloop
  endfacet
  facet normal 0.8660254037245776 -0.5000000001036823 2.846313022574748e-11
    outer loop
      vertex -0.894427190960244 1.47504831077859e-10 -0.447213595378165
      vertex -0.447213595443628 0.774596669254592 0.447213595469591
      vertex -0.894427191015099 1.03409562943143e-10 0.447213595469591
    endloop
  endfacet
  facet normal -8.979946666259919e-11 -1 7.776935440477537e-11
    outer loop
      vertex -0.447213595403472 0.774596669185033 -0.447213595487875
      vertex 0.447213595513835 0.774596669174273 0.447213595469591
      vertex -0.447213595443628 0.774596669254592 0.447213595469591
    endloop
  endfacet
  facet normal -8.97904054123986e-11 -1 7.776029315457517e-11
    outer loop
      vertex 0.447213595513835 0.774596669174273 0.447213595469591
      vertex -0.447213595403472 0.774596669185033 -0.447213595487875
      vertex 0.447213595594155 0.774596669104722 -0.447213595447718
    endloop
  endfacet
  facet normal -0.8660254038726929 -0.4999999998471393 -3.888935887243921e-11
    outer loop
      vertex 0.894427190865891 -5.72170499558631e-11 -0.447213595487875
      vertex 0.447213595513835 0.774596669174273 0.447213595469591
      vertex 0.447213595594155 0.774596669104722 -0.447213595447718
    endloop
  endfacet
  facet normal -0.8660254038143682 -0.4999999999481606 7.775990337788259e-11
    outer loop
      vertex 0.447213595513835 0.774596669174273 0.447213595469591
      vertex 0.894427190865891 -5.72170499558631e-11 -0.447213595487875
      vertex 0.894427190946201 -5.72170499558631e-11 0.447213595469591
    endloop
  endfacet
  facet normal -0.8660254037889131 0.4999999999922499 7.775988189254351e-11
    outer loop
      vertex 0.447213595444285 -0.774596669178999 -0.447213595528035
      vertex 0.894427190946201 -5.72170499558631e-11 0.447213595469591
      vertex 0.894427190865891 -5.72170499558631e-11 -0.447213595487875
    endloop
  endfacet
  facet normal -0.8660254037694738 0.5000000000259199 3.8881263729779266e-11
    outer loop
      vertex 0.894427190946201 -5.72170499558631e-11 0.447213595469591
      vertex 0.447213595444285 -0.774596669178999 -0.447213595528035
      vertex 0.447213595444285 -0.774596669248552 0.447213595469591
    endloop
  endfacet
  facet normal -3.4134867895411073e-15 -5.1844420460063657e-11 1
    outer loop
      vertex 0.447213595594155 0.774596669104722 -0.447213595447718
      vertex 0.447213595444285 -0.774596669178999 -0.447213595528035
      vertex 0.894427190865891 -5.72170499558631e-11 -0.447213595487875
    endloop
  endfacet
  facet normal -4.489687841966228e-11 -5.184442045572064e-11 1
    outer loop
      vertex -0.447213595403472 0.774596669185033 -0.447213595487875
      vertex 0.447213595444285 -0.774596669178999 -0.447213595528035
      vertex 0.447213595594155 0.774596669104722 -0.447213595447718
    endloop
  endfacet
  facet normal 4.490029190349979e-11 -2.0158564283303582e-21 1
    outer loop
      vertex -0.447213595403472 0.774596669185033 -0.447213595487875
      vertex -0.447213595473025 -0.774596669178999 -0.447213595487875
      vertex 0.447213595444285 -0.774596669178999 -0.447213595528035
    endloop
  endfacet
  facet normal 2.453189358167926e-10 -1.1013909549191542e-20 1
    outer loop
      vertex -0.447213595473025 -0.774596669178999 -0.447213595487875
      vertex -0.447213595403472 0.774596669185033 -0.447213595487875
      vertex -0.894427190960244 1.47504831077859e-10 -0.447213595378165
    endloop
  endfacet
endsolid OpenSCAD_Model
