solid OpenSCAD_Model
  facet normal 0.7818314825080199 0.6234898018085875 9.322844413702853e-11
    outer loop
      vertex -0.398032496779626 -0.826522996071587 0.398032496738327
      vertex -0.894370901834933 -0.204134321872541 -0.398032496649184
      vertex -0.894370901894663 -0.204134321916675 0.398032496738327
    endloop
  endfacet
  facet normal 0.7818314825080191 0.6234898018085884 9.322973060389628e-11
    outer loop
      vertex -0.894370901834933 -0.204134321872541 -0.398032496649184
      vertex -0.398032496779626 -0.826522996071587 0.398032496738327
      vertex -0.398032496743885 -0.82652299599737 -0.398032496759141
    endloop
  endfacet
  facet normal -1.0192861707911848e-27 1 9.322978212728487e-11
    outer loop
      vertex 0.398032496717842 -0.82652299599737 -0.398032496794884
      vertex -0.398032496779626 -0.826522996071587 0.398032496738327
      vertex 0.398032496717842 -0.826522996071587 0.398032496738327
    endloop
  endfacet
  facet normal 4.1859877351893674e-21 1 9.322978213147086e-11
    outer loop
      vertex -0.398032496779626 -0.826522996071587 0.398032496738327
      vertex 0.398032496717842 -0.82652299599737 -0.398032496794884
      vertex -0.398032496743885 -0.82652299599737 -0.398032496759141
    endloop
  endfacet
  facet normal 0 0 -1
    outer loop
      vertex 0.398032496717842 -0.826522996071587 0.398032496738327
      vertex 0.717229775993057 0.571971660003323 0.398032496738327
      vertex 0.894370901796218 -0.204134322077293 0.398032496738327
    endloop
  endfacet
  facet normal 0 0 -1
    outer loop
      vertex 0.398032496717842 -0.826522996071587 0.398032496738327
      vertex 5.14819141441997e-11 0.9173713160178 0.398032496738327
      vertex 0.717229775993057 0.571971660003323 0.398032496738327
    endloop
  endfacet
  facet normal 0 0 -1
    outer loop
      vertex -0.398032496779626 -0.826522996071587 0.398032496738327
      vertex 5.14819141441997e-11 0.9173713160178 0.398032496738327
      vertex 0.398032496717842 -0.826522996071587 0.398032496738327
    endloop
  endfacet
  facet normal 0 0 -1
    outer loop
      vertex -0.398032496779626 -0.826522996071587 0.398032496738327
      vertex -0.717229775952124 0.571971660132127 0.398032496738327
      vertex 5.14819141441997e-11 0.9173713160178 0.398032496738327
    endloop
  endfacet
  facet normal 0 0 -1
    outer loop
      vertex -0.717229775952124 0.571971660132127 0.398032496738327
      vertex -0.398032496779626 -0.826522996071587 0.398032496738327
      vertex -0.894370901894663 -0.204134321916675 0.398032496738327
    endloop
  endfacet
  facet normal 0.9749279121532798 -0.22252093408137294 9.323037192345063e-11
    outer loop
      vertex -0.894370901894663 -0.204134321916675 0.398032496738327
      vertex -0.717229775887721 0.571971660080765 -0.398032496759141
      vertex -0.717229775952124 0.571971660132127 0.398032496738327
    endloop
  endfacet
  facet normal 0.9749279121460664 -0.2225209341129768 6.081373761984668e-11
    outer loop
      vertex -0.717229775887721 0.571971660080765 -0.398032496759141
      vertex -0.894370901894663 -0.204134321916675 0.398032496738327
      vertex -0.894370901834933 -0.204134321872541 -0.398032496649184
    endloop
  endfacet
  facet normal 0.4338837390250995 -0.9009688679469448 9.32322334218269e-11
    outer loop
      vertex -0.717229775887721 0.571971660080765 -0.398032496759141
      vertex 5.14819141441997e-11 0.9173713160178 0.398032496738327
      vertex -0.717229775952124 0.571971660132127 0.398032496738327
    endloop
  endfacet
  facet normal 0.4338837390250996 -0.9009688679469448 9.323212804087457e-11
    outer loop
      vertex 5.14819141441997e-11 0.9173713160178 0.398032496738327
      vertex -0.717229775887721 0.571971660080765 -0.398032496759141
      vertex 1.48085229273431e-10 0.917371315981945 -0.3980324967234
    endloop
  endfacet
  facet normal -0.4338837391869014 -0.9009688678690252 -1.2072358210770175e-11
    outer loop
      vertex 1.48085229273431e-10 0.917371315981945 -0.3980324967234
      vertex 0.717229775993057 0.571971660003323 0.398032496738327
      vertex 5.14819141441997e-11 0.9173713160178 0.398032496738327
    endloop
  endfacet
  facet normal -0.43388373928177665 -0.9009688678233356 9.323126988734494e-11
    outer loop
      vertex 0.717229775993057 0.571971660003323 0.398032496738327
      vertex 1.48085229273431e-10 0.917371315981945 -0.3980324967234
      vertex 0.717229775928656 0.571971659951961 -0.398032496759141
    endloop
  endfacet
  facet normal -0.9749279121932417 -0.22252093390628847 9.322794987693355e-11
    outer loop
      vertex 0.894370901739769 -0.204134322163496 -0.3980324967234
      vertex 0.717229775993057 0.571971660003323 0.398032496738327
      vertex 0.717229775928656 0.571971659951961 -0.398032496759141
    endloop
  endfacet
  facet normal -0.9749279121932417 -0.2225209339062888 9.322824387107655e-11
    outer loop
      vertex 0.717229775993057 0.571971660003323 0.398032496738327
      vertex 0.894370901739769 -0.204134322163496 -0.3980324967234
      vertex 0.894370901796218 -0.204134322077293 0.398032496738327
    endloop
  endfacet
  facet normal -0.7818314824082638 0.6234898019336776 -1.2075746275077905e-11
    outer loop
      vertex 0.398032496717842 -0.82652299599737 -0.398032496794884
      vertex 0.894370901796218 -0.204134322077293 0.398032496738327
      vertex 0.894370901739769 -0.204134322163496 -0.3980324967234
    endloop
  endfacet
  facet normal -0.781831482452035 0.6234898018787903 5.812784440471399e-11
    outer loop
      vertex 0.894370901796218 -0.204134322077293 0.398032496738327
      vertex 0.398032496717842 -0.82652299599737 -0.398032496794884
      vertex 0.398032496717842 -0.826522996071587 0.398032496738327
    endloop
  endfacet
  facet normal -1.5687166067623266e-10 1.0246723186986086e-11 1
    outer loop
      vertex 0.717229775928656 0.571971659951961 -0.398032496759141
      vertex 0.398032496717842 -0.82652299599737 -0.398032496794884
      vertex 0.894370901739769 -0.204134322163496 -0.3980324967234
    endloop
  endfacet
  facet normal 3.380775330568487e-11 -3.32746087577716e-11 1
    outer loop
      vertex 1.48085229273431e-10 0.917371315981945 -0.3980324967234
      vertex 0.398032496717842 -0.82652299599737 -0.398032496794884
      vertex 0.717229775928656 0.571971659951961 -0.398032496759141
    endloop
  endfacet
  facet normal 4.489962496618916e-11 -3.074296143354188e-11 1
    outer loop
      vertex 1.48085229273431e-10 0.917371315981945 -0.3980324967234
      vertex -0.398032496743885 -0.82652299599737 -0.398032496759141
      vertex 0.398032496717842 -0.82652299599737 -0.398032496794884
    endloop
  endfacet
  facet normal -4.489704488061611e-11 -1.0247457510978622e-11 1
    outer loop
      vertex -0.717229775887721 0.571971660080765 -0.398032496759141
      vertex -0.398032496743885 -0.82652299599737 -0.398032496759141
      vertex 1.48085229273431e-10 0.917371315981945 -0.3980324967234
    endloop
  endfacet
  facet normal 3.103654993299812e-10 7.083889988115411e-11 1
    outer loop
      vertex -0.398032496743885 -0.82652299599737 -0.398032496759141
      vertex -0.717229775887721 0.571971660080765 -0.398032496759141
      vertex -0.894370901834933 -0.204134321872541 -0.398032496649184
    endloop
  endfacet
endsolid OpenSCAD_Model
