solid OpenSCAD_Model
  facet normal 0.7071067812341677 0.7071067811389274 1.0839158127513978e-10
    outer loop
      vertex -0.357406744346791 -0.862856209463085 0.357406744308882
      vertex -0.862856209455892 -0.357406744176332 -0.357406744217018
      vertex -0.862856209520078 -0.357406744221719 0.357406744308882
    endloop
  endfacet
  facet normal 0.7071067812341684 0.7071067811389267 1.0839065181439892e-10
    outer loop
      vertex -0.862856209455892 -0.357406744176332 -0.357406744217018
      vertex -0.357406744346791 -0.862856209463085 0.357406744308882
      vertex -0.357406744314698 -0.862856209385606 -0.35740674432659
    endloop
  endfacet
  facet normal -3.4895178861286666e-27 1 1.0839054442248492e-10
    outer loop
      vertex 0.357406744288681 -0.862856209385606 -0.357406744358685
      vertex -0.357406744346791 -0.862856209463085 0.357406744308882
      vertex 0.357406744288681 -0.862856209463085 0.357406744308882
    endloop
  endfacet
  facet normal 4.866711892690501e-21 1 1.0839054442735162e-10
    outer loop
      vertex -0.357406744346791 -0.862856209463085 0.357406744308882
      vertex 0.357406744288681 -0.862856209385606 -0.357406744358685
      vertex -0.357406744314698 -0.862856209385606 -0.35740674432659
    endloop
  endfacet
  facet normal 0 0 -1
    outer loop
      vertex 0.357406744288681 -0.862856209463085 0.357406744308882
      vertex 0.862856209429878 0.357406744258793 0.357406744308882
      vertex 0.862856209397783 -0.357406744376676 0.357406744308882
    endloop
  endfacet
  facet normal 0 0 -1
    outer loop
      vertex 0.357406744288681 -0.862856209463085 0.357406744308882
      vertex 0.35740674436616 0.86285620939059 0.357406744308882
      vertex 0.862856209429878 0.357406744258793 0.357406744308882
    endloop
  endfacet
  facet normal 0 0 -1
    outer loop
      vertex -0.357406744346791 -0.862856209463085 0.357406744308882
      vertex 0.35740674436616 0.86285620939059 0.357406744308882
      vertex 0.357406744288681 -0.862856209463085 0.357406744308882
    endloop
  endfacet
  facet normal 0 0 -1
    outer loop
      vertex -0.357406744346791 -0.862856209463085 0.357406744308882
      vertex -0.357406744269312 0.86285620945478 0.357406744308882
      vertex 0.35740674436616 0.86285620939059 0.357406744308882
    endloop
  endfacet
  facet normal 0 0 -1
    outer loop
      vertex -0.862856209520078 -0.357406744221719 0.357406744308882
      vertex -0.357406744269312 0.86285620945478 0.357406744308882
      vertex -0.357406744346791 -0.862856209463085 0.357406744308882
    endloop
  endfacet
  facet normal 0 0 -1
    outer loop
      vertex -0.357406744269312 0.86285620945478 0.357406744308882
      vertex -0.862856209520078 -0.357406744221719 0.357406744308882
      vertex -0.8628562094238 0.35740674441375 0.357406744308882
    endloop
  endfacet
  facet normal 1 -1.3468965977092777e-10 1.0839054443339783e-10
    outer loop
      vertex -0.862856209520078 -0.357406744221719 0.357406744308882
      vertex -0.862856209346321 0.357406744381662 -0.35740674432659
      vertex -0.8628562094238 0.35740674441375 0.357406744308882
    endloop
  endfacet
  facet normal 1 -1.5328616578840212e-10 8.979403841675841e-11
    outer loop
      vertex -0.862856209346321 0.357406744381662 -0.35740674432659
      vertex -0.862856209520078 -0.357406744221719 0.357406744308882
      vertex -0.862856209455892 -0.357406744176332 -0.357406744217018
    endloop
  endfacet
  facet normal 0.7071067811071855 -0.7071067812659095 1.0839069181463395e-10
    outer loop
      vertex -0.8628562094238 0.35740674441375 0.357406744308882
      vertex -0.35740674416914 0.86285620944538 -0.357406744294497
      vertex -0.357406744269312 0.86285620945478 0.357406744308882
    endloop
  endfacet
  facet normal 0.7071067811071821 -0.7071067812659129 1.0838572157027329e-10
    outer loop
      vertex -0.35740674416914 0.86285620944538 -0.357406744294497
      vertex -0.8628562094238 0.35740674441375 0.357406744308882
      vertex -0.862856209346321 0.357406744381662 -0.35740674432659
    endloop
  endfacet
  facet normal -8.979962980538004e-11 -1 1.3150334242106844e-11
    outer loop
      vertex -0.35740674416914 0.86285620944538 -0.357406744294497
      vertex 0.35740674436616 0.86285620939059 0.357406744308882
      vertex -0.357406744269312 0.86285620945478 0.357406744308882
    endloop
  endfacet
  facet normal -1.850398400080038e-10 -1 1.083905444356599e-10
    outer loop
      vertex 0.35740674436616 0.86285620939059 0.357406744308882
      vertex -0.35740674416914 0.86285620944538 -0.357406744294497
      vertex 0.357406744334065 0.862856209313111 -0.35740674432659
    endloop
  endfacet
  facet normal -0.7071067812341627 -0.7071067811389322 1.0839277776555706e-10
    outer loop
      vertex 0.862856209420478 0.357406744158626 -0.357406744294497
      vertex 0.35740674436616 0.86285620939059 0.357406744308882
      vertex 0.357406744334065 0.862856209313111 -0.35740674432659
    endloop
  endfacet
  facet normal -0.7071067812341677 -0.7071067811389274 1.083857421639318e-10
    outer loop
      vertex 0.35740674436616 0.86285620939059 0.357406744308882
      vertex 0.862856209420478 0.357406744158626 -0.357406744294497
      vertex 0.862856209429878 0.357406744258793 0.357406744308882
    endloop
  endfacet
  facet normal -1 1.4014002510128085e-10 1.3150178918590685e-11
    outer loop
      vertex 0.862856209320304 -0.357406744344583 -0.35740674432659
      vertex 0.862856209429878 0.357406744258793 0.357406744308882
      vertex 0.862856209420478 0.357406744158626 -0.357406744294497
    endloop
  endfacet
  facet normal -1 4.489981490269019e-11 1.083903891129049e-10
    outer loop
      vertex 0.862856209429878 0.357406744258793 0.357406744308882
      vertex 0.862856209320304 -0.357406744344583 -0.35740674432659
      vertex 0.862856209397783 -0.357406744376676 0.357406744308882
    endloop
  endfacet
  facet normal -0.7071067811931228 0.7071067811799724 1.083905877669803e-10
    outer loop
      vertex 0.357406744288681 -0.862856209385606 -0.357406744358685
      vertex 0.862856209397783 -0.357406744376676 0.357406744308882
      vertex 0.862856209320304 -0.357406744344583 -0.35740674432659
    endloop
  endfacet
  facet normal -0.707106781170674 0.7071067812024208 7.664360260357387e-11
    outer loop
      vertex 0.862856209397783 -0.357406744376676 0.357406744308882
      vertex 0.357406744288681 -0.862856209385606 -0.357406744358685
      vertex 0.357406744288681 -0.862856209463085 0.357406744308882
    endloop
  endfacet
  facet normal -1.083909926787169e-10 -4.4897019199480944e-11 1
    outer loop
      vertex 0.357406744334065 0.862856209313111 -0.35740674432659
      vertex 0.862856209320304 -0.357406744344583 -0.35740674432659
      vertex 0.862856209420478 0.357406744158626 -0.357406744294497
    endloop
  endfacet
  facet normal -4.489989256863879e-11 -1.859814444807307e-11 1
    outer loop
      vertex 0.357406744334065 0.862856209313111 -0.35740674432659
      vertex 0.357406744288681 -0.862856209385606 -0.357406744358685
      vertex 0.862856209320304 -0.357406744344583 -0.35740674432659
    endloop
  endfacet
  facet normal 4.489701921122971e-11 -1.859814445043461e-11 1
    outer loop
      vertex -0.35740674416914 0.86285620944538 -0.357406744294497
      vertex 0.357406744288681 -0.862856209385606 -0.357406744358685
      vertex 0.357406744334065 0.862856209313111 -0.35740674432659
    endloop
  endfacet
  facet normal 4.489989256293717e-11 -1.859695426918821e-11 1
    outer loop
      vertex -0.35740674416914 0.86285620944538 -0.357406744294497
      vertex -0.357406744314698 -0.862856209385606 -0.35740674432659
      vertex 0.357406744288681 -0.862856209385606 -0.357406744358685
    endloop
  endfacet
  facet normal -4.489701920434771e-11 -1.8596954261614143e-11 1
    outer loop
      vertex -0.862856209346321 0.357406744381662 -0.35740674432659
      vertex -0.357406744314698 -0.862856209385606 -0.35740674432659
      vertex -0.35740674416914 0.86285620944538 -0.357406744294497
    endloop
  endfacet
  facet normal 3.7006872754599317e-10 1.532874859353721e-10 1
    outer loop
      vertex -0.357406744314698 -0.862856209385606 -0.35740674432659
      vertex -0.862856209346321 0.357406744381662 -0.35740674432659
      vertex -0.862856209455892 -0.357406744176332 -0.357406744217018
    endloop
  endfacet
endsolid OpenSCAD_Model
