solid OpenSCAD_Model
  facet normal 0.6427876097400389 0.7660444430740866 1.2335242819259908e-10
    outer loop
      vertex -0.32361557709772 -0.889126490637368 -0.323615577110882
      vertex -0.81942340631089 -0.473094324055003 0.323615577092325
      vertex -0.323615577126778 -0.889126490717206 0.323615577092325
    endloop
  endfacet
  facet normal 0.6427876097400389 0.7660444430740865 1.2335246885149476e-10
    outer loop
      vertex -0.81942340631089 -0.473094324055003 0.323615577092325
      vertex -0.32361557709772 -0.889126490637368 -0.323615577110882
      vertex -0.819423406242932 -0.473094324007806 -0.323615577001986
    endloop
  endfacet
  facet normal -7.348466107780622e-27 1 1.233530146618739e-10
    outer loop
      vertex 0.323615577076428 -0.889126490637368 -0.323615577139942
      vertex -0.323615577126778 -0.889126490717206 0.323615577092325
      vertex 0.323615577076428 -0.889126490717206 0.323615577092325
    endloop
  endfacet
  facet normal 5.538430344808841e-21 1 1.2335301466741235e-10
    outer loop
      vertex -0.323615577126778 -0.889126490717206 0.323615577092325
      vertex 0.323615577076428 -0.889126490637368 -0.323615577139942
      vertex -0.32361557709772 -0.889126490637368 -0.323615577110882
    endloop
  endfacet
  facet normal 0 0 -1
    outer loop
      vertex 0.819423406175575 -0.47309432420216 0.323615577092325
      vertex 0.608198339589618 0.724822556123783 0.323615577092325
      vertex 0.931813916657668 0.164303934443711 0.323615577092325
    endloop
  endfacet
  facet normal 0 0 -1
    outer loop
      vertex 0.323615577076428 -0.889126490717206 0.323615577092325
      vertex 0.608198339589618 0.724822556123783 0.323615577092325
      vertex 0.819423406175575 -0.47309432420216 0.323615577092325
    endloop
  endfacet
  facet normal 0 0 -1
    outer loop
      vertex 0.323615577076428 -0.889126490717206 0.323615577092325
      vertex 5.97861792033672e-11 0.946188648297745 0.323615577092325
      vertex 0.608198339589618 0.724822556123783 0.323615577092325
    endloop
  endfacet
  facet normal 0 0 -1
    outer loop
      vertex -0.323615577126778 -0.889126490717206 0.323615577092325
      vertex 5.97861792033672e-11 0.946188648297745 0.323615577092325
      vertex 0.323615577076428 -0.889126490717206 0.323615577092325
    endloop
  endfacet
  facet normal 0 0 -1
    outer loop
      vertex -0.323615577126778 -0.889126490717206 0.323615577092325
      vertex -0.608198339509799 0.72482255623301 0.323615577092325
      vertex 5.97861792033672e-11 0.946188648297745 0.323615577092325
    endloop
  endfacet
  facet normal 0 0 -1
    outer loop
      vertex -0.81942340631089 -0.473094324055003 0.323615577092325
      vertex -0.608198339509799 0.72482255623301 0.323615577092325
      vertex -0.323615577126778 -0.889126490717206 0.323615577092325
    endloop
  endfacet
  facet normal 0 0 -1
    outer loop
      vertex -0.608198339509799 0.72482255623301 0.323615577092325
      vertex -0.81942340631089 -0.473094324055003 0.323615577092325
      vertex -0.931813916678509 0.164303934611052 0.323615577092325
    endloop
  endfacet
  facet normal 0.9848077530364631 0.1736481775293728 1.2335237673122548e-10
    outer loop
      vertex -0.81942340631089 -0.473094324055003 0.323615577092325
      vertex -0.931813916594839 0.164303934596302 -0.323615577110882
      vertex -0.931813916678509 0.164303934611052 0.323615577092325
    endloop
  endfacet
  facet normal 0.9848077530377285 0.17364817752219666 1.160654831113607e-10
    outer loop
      vertex -0.931813916594839 0.164303934596302 -0.323615577110882
      vertex -0.81942340631089 -0.473094324055003 0.323615577092325
      vertex -0.819423406242932 -0.473094324007806 -0.323615577001986
    endloop
  endfacet
  facet normal 0.866025403724578 -0.5000000001036816 1.2335655163179787e-10
    outer loop
      vertex -0.931813916678509 0.164303934611052 0.323615577092325
      vertex -0.608198339411599 0.724822556243417 -0.323615577081823
      vertex -0.608198339509799 0.72482255623301 0.323615577092325
    endloop
  endfacet
  facet normal 0.8660254037245744 -0.5000000001036882 1.233489580752416e-10
    outer loop
      vertex -0.608198339411599 0.724822556243417 -0.323615577081823
      vertex -0.931813916678509 0.164303934611052 0.323615577092325
      vertex -0.931813916594839 0.164303934596302 -0.323615577110882
    endloop
  endfacet
  facet normal 0.34202014323191055 -0.9396926208200337 3.678282480183445e-11
    outer loop
      vertex -0.608198339411599 0.724822556243417 -0.323615577081823
      vertex 5.97861792033672e-11 0.946188648297745 0.323615577092325
      vertex -0.608198339509799 0.72482255623301 0.323615577092325
    endloop
  endfacet
  facet normal 0.34202014315056095 -0.9396926208496424 1.2335329465674177e-10
    outer loop
      vertex 5.97861792033672e-11 0.946188648297745 0.323615577092325
      vertex -0.608198339411599 0.724822556243417 -0.323615577081823
      vertex 5.97861792033672e-11 0.946188648212783 -0.323615577110882
    endloop
  endfacet
  facet normal -0.3420201434006699 -0.9396926207586102 1.2335329464479199e-10
    outer loop
      vertex 5.97861792033672e-11 0.946188648212783 -0.323615577110882
      vertex 0.608198339589618 0.724822556123783 0.323615577092325
      vertex 5.97861792033672e-11 0.946188648297745 0.323615577092325
    endloop
  endfacet
  facet normal -0.34202014340066506 -0.9396926207586119 1.233481618766789e-10
    outer loop
      vertex 0.608198339589618 0.724822556123783 0.323615577092325
      vertex 5.97861792033672e-11 0.946188648212783 -0.323615577110882
      vertex 0.608198339616924 0.724822556028886 -0.323615577081823
    endloop
  endfacet
  facet normal -0.8660254038576601 -0.4999999998731767 3.677321476849137e-11
    outer loop
      vertex 0.931813916573994 0.16430393442896 -0.323615577110882
      vertex 0.608198339589618 0.724822556123783 0.323615577092325
      vertex 0.608198339616924 0.724822556028886 -0.323615577081823
    endloop
  endfacet
  facet normal -0.8660254038143691 -0.49999999994815897 1.233551809997463e-10
    outer loop
      vertex 0.608198339589618 0.724822556123783 0.323615577092325
      vertex 0.931813916573994 0.16430393442896 -0.323615577110882
      vertex 0.931813916657668 0.164303934443711 0.323615577092325
    endloop
  endfacet
  facet normal -0.9848077530052779 0.17364817770623311 1.2335822260929232e-10
    outer loop
      vertex 0.819423406086859 -0.473094324245531 -0.323615577081823
      vertex 0.931813916657668 0.164303934443711 0.323615577092325
      vertex 0.931813916573994 0.16430393442896 -0.323615577110882
    endloop
  endfacet
  facet normal -0.9848077530052768 0.17364817770623983 1.2335137489415127e-10
    outer loop
      vertex 0.931813916657668 0.164303934443711 0.323615577092325
      vertex 0.819423406086859 -0.473094324245531 -0.323615577081823
      vertex 0.819423406175575 -0.47309432420216 0.323615577092325
    endloop
  endfacet
  facet normal -0.6427876096712564 0.7660444431318019 3.677419268753484e-11
    outer loop
      vertex 0.819423406086859 -0.473094324245531 -0.323615577081823
      vertex 0.323615577076428 -0.889126490717206 0.323615577092325
      vertex 0.819423406175575 -0.47309432420216 0.323615577092325
    endloop
  endfacet
  facet normal -0.6427876096270405 0.7660444431689035 9.449389142986077e-11
    outer loop
      vertex 0.323615577076428 -0.889126490717206 0.323615577092325
      vertex 0.819423406086859 -0.473094324245531 -0.323615577081823
      vertex 0.323615577076428 -0.889126490637368 -0.323615577139942
    endloop
  endfacet
  facet normal 1.2927707529187558e-10 2.2795036342846976e-11 1
    outer loop
      vertex 0.608198339616924 0.724822556028886 -0.323615577081823
      vertex 0.819423406086859 -0.473094324245531 -0.323615577081823
      vertex 0.931813916573994 0.16430393442896 -0.323615577110882
    endloop
  endfacet
  facet normal -1.0211266684254325e-10 -1.800521822206695e-11 1
    outer loop
      vertex 0.608198339616924 0.724822556028886 -0.323615577081823
      vertex 0.323615577076428 -0.889126490637368 -0.323615577139942
      vertex 0.819423406086859 -0.473094324245531 -0.323615577081823
    endloop
  endfacet
  facet normal -5.721375170754602e-11 -2.5922108368370954e-11 1
    outer loop
      vertex 5.97861792033672e-11 0.946188648212783 -0.323615577110882
      vertex 0.323615577076428 -0.889126490637368 -0.323615577139942
      vertex 0.608198339616924 0.724822556028886 -0.323615577081823
    endloop
  endfacet
  facet normal 4.4898915109148086e-11 -7.916890140129318e-12 1
    outer loop
      vertex 5.97861792033672e-11 0.946188648212783 -0.323615577110882
      vertex -0.32361557709772 -0.889126490637368 -0.323615577110882
      vertex 0.323615577076428 -0.889126490637368 -0.323615577139942
    endloop
  endfacet
  facet normal 5.1055504400342826e-11 -9.002462941561093e-12 1
    outer loop
      vertex -0.608198339411599 0.724822556243417 -0.323615577081823
      vertex -0.32361557709772 -0.889126490637368 -0.323615577110882
      vertex 5.97861792033672e-11 0.946188648212783 -0.323615577110882
    endloop
  endfacet
  facet normal 2.4004105335774945e-10 2.4320788287246884e-11 1
    outer loop
      vertex -0.608198339411599 0.724822556243417 -0.323615577081823
      vertex -0.819423406242932 -0.473094324007806 -0.323615577001986
      vertex -0.32361557709772 -0.889126490637368 -0.323615577110882
    endloop
  endfacet
  facet normal -2.954681779427122e-10 1.1874551427200313e-10 1
    outer loop
      vertex -0.819423406242932 -0.473094324007806 -0.323615577001986
      vertex -0.608198339411599 0.724822556243417 -0.323615577081823
      vertex -0.931813916594839 0.164303934596302 -0.323615577110882
    endloop
  endfacet
endsolid OpenSCAD_Model
