solid OpenSCAD_Model
  facet normal 0.5877852523505873 0.809016994332725 1.381771509610741e-10
    outer loop
      vertex -0.295241808826003 -0.908660854485435 -0.295241808836409
      vertex -0.772953090543874 -0.561583292257875 0.295241808820297
      vertex -0.295241808852514 -0.908660854567026 0.295241808820297
    endloop
  endfacet
  facet normal 0.5877852523505884 0.8090169943327242 1.381785484053479e-10
    outer loop
      vertex -0.772953090543874 -0.561583292257875 0.295241808820297
      vertex -0.295241808826003 -0.908660854485435 -0.295241808836409
      vertex -0.772953090472801 -0.561583292208659 -0.295241808728307
    endloop
  endfacet
  facet normal -8.283115628819948e-27 1 1.3817668228619975e-10
    outer loop
      vertex 0.295241808804192 -0.908660854485435 -0.295241808862922
      vertex -0.295241808852514 -0.908660854567026 0.295241808820297
      vertex 0.295241808804192 -0.908660854567026 0.295241808820297
    endloop
  endfacet
  facet normal 6.204194854117199e-21 1 1.3817668229240397e-10
    outer loop
      vertex -0.295241808852514 -0.908660854567026 0.295241808820297
      vertex 0.295241808804192 -0.908660854485435 -0.295241808862922
      vertex -0.295241808826003 -0.908660854485435 -0.295241808836409
    endloop
  endfacet
  facet normal 0 0 -1
    outer loop
      vertex 0.772953090394696 -0.561583292396687 0.295241808820297
      vertex 0.772953090445124 0.561583292282481 0.295241808820297
      vertex 0.955422563170789 -6.52940989406422e-11 0.295241808820297
    endloop
  endfacet
  facet normal 0 0 -1
    outer loop
      vertex 0.295241808804192 -0.908660854567026 0.295241808820297
      vertex 0.772953090445124 0.561583292282481 0.295241808820297
      vertex 0.772953090394696 -0.561583292396687 0.295241808820297
    endloop
  endfacet
  facet normal 0 0 -1
    outer loop
      vertex 0.295241808804192 -0.908660854567026 0.295241808820297
      vertex 0.295241808885784 0.908660854495717 0.295241808820297
      vertex 0.772953090445124 0.561583292282481 0.295241808820297
    endloop
  endfacet
  facet normal 0 0 -1
    outer loop
      vertex -0.295241808852514 -0.908660854567026 0.295241808820297
      vertex 0.295241808885784 0.908660854495717 0.295241808820297
      vertex 0.295241808804192 -0.908660854567026 0.295241808820297
    endloop
  endfacet
  facet normal 0 0 -1
    outer loop
      vertex -0.295241808852514 -0.908660854567026 0.295241808820297
      vertex -0.295241808770922 0.908660854548737 0.295241808820297
      vertex 0.295241808885784 0.908660854495717 0.295241808820297
    endloop
  endfacet
  facet normal 0 0 -1
    outer loop
      vertex -0.772953090543874 -0.561583292257875 0.295241808820297
      vertex -0.295241808770922 0.908660854548737 0.295241808820297
      vertex -0.295241808852514 -0.908660854567026 0.295241808820297
    endloop
  endfacet
  facet normal 0 0 -1
    outer loop
      vertex -0.772953090543874 -0.561583292257875 0.295241808820297
      vertex -0.772953090392594 0.561583292421292 0.295241808820297
      vertex -0.295241808770922 0.908660854548737 0.295241808820297
    endloop
  endfacet
  facet normal 0 0 -1
    outer loop
      vertex -0.772953090392594 0.561583292421292 0.295241808820297
      vertex -0.772953090543874 -0.561583292257875 0.295241808820297
      vertex -0.955422563219112 1.06288633336856e-10 0.295241808820297
    endloop
  endfacet
  facet normal 0.9510565163395506 0.30901699423830786 1.3818007036801168e-10
    outer loop
      vertex -0.772953090543874 -0.561583292257875 0.295241808820297
      vertex -0.95542256313332 1.06288633336856e-10 -0.295241808836409
      vertex -0.955422563219112 1.06288633336856e-10 0.295241808820297
    endloop
  endfacet
  facet normal 0.9510565163389173 0.3090169942402565 1.4022902863076e-10
    outer loop
      vertex -0.95542256313332 1.06288633336856e-10 -0.295241808836409
      vertex -0.772953090543874 -0.561583292257875 0.295241808820297
      vertex -0.772953090472801 -0.561583292208659 -0.295241808728307
    endloop
  endfacet
  facet normal 0.951056516256306 -0.30901699449450776 1.3817587169804504e-10
    outer loop
      vertex -0.955422563219112 1.06288633336856e-10 0.295241808820297
      vertex -0.772953090298612 0.561583292446506 -0.295241808809898
      vertex -0.772953090392594 0.561583292421292 0.295241808820297
    endloop
  endfacet
  facet normal 0.9510565162563074 -0.3090169944945038 1.3818008101003365e-10
    outer loop
      vertex -0.772953090298612 0.561583292446506 -0.295241808809898
      vertex -0.955422563219112 1.06288633336856e-10 0.295241808820297
      vertex -0.95542256313332 1.06288633336856e-10 -0.295241808836409
    endloop
  endfacet
  facet normal 0.5877852522053003 -0.8090169944382822 5.90070337993879e-11
    outer loop
      vertex -0.772953090298612 0.561583292446506 -0.295241808809898
      vertex -0.295241808770922 0.908660854548737 0.295241808820297
      vertex -0.772953090392594 0.561583292421292 0.295241808820297
    endloop
  endfacet
  facet normal 0.587785252141249 -0.8090169944848181 1.381788390748095e-10
    outer loop
      vertex -0.295241808770922 0.908660854548737 0.295241808820297
      vertex -0.772953090298612 0.561583292446506 -0.295241808809898
      vertex -0.295241808744412 0.908660854467144 -0.295241808836409
    endloop
  endfacet
  facet normal -8.97908616313697e-11 -1 1.3818006663534627e-10
    outer loop
      vertex -0.295241808744412 0.908660854467144 -0.295241808836409
      vertex 0.295241808885784 0.908660854495717 0.295241808820297
      vertex -0.295241808770922 0.908660854548737 0.295241808820297
    endloop
  endfacet
  facet normal -8.97906736142661e-11 -1 1.3817987861824265e-10
    outer loop
      vertex 0.295241808885784 0.908660854495717 0.295241808820297
      vertex -0.295241808744412 0.908660854467144 -0.295241808836409
      vertex 0.295241808938804 0.908660854414124 -0.295241808809898
    endloop
  endfacet
  facet normal -0.5877852523505906 -0.8090169943327226 5.901218107585144e-11
    outer loop
      vertex 0.295241808938804 0.908660854414124 -0.295241808809898
      vertex 0.772953090445124 0.561583292282481 0.295241808820297
      vertex 0.295241808885784 0.908660854495717 0.295241808820297
    endloop
  endfacet
  facet normal -0.5877852524146374 -0.8090169942861899 1.3817839078775403e-10
    outer loop
      vertex 0.772953090445124 0.561583292282481 0.295241808820297
      vertex 0.295241808938804 0.908660854414124 -0.295241808809898
      vertex 0.772953090375718 0.561583292232054 -0.295241808836409
    endloop
  endfacet
  facet normal -0.9510565163118019 -0.3090169943237092 1.3817784937800244e-10
    outer loop
      vertex 0.772953090375718 0.561583292232054 -0.295241808836409
      vertex 0.955422563170789 -6.52940989406422e-11 0.295241808820297
      vertex 0.772953090445124 0.561583292282481 0.295241808820297
    endloop
  endfacet
  facet normal -0.9510565163118027 -0.3090169943237067 1.381804482677813e-10
    outer loop
      vertex 0.955422563170789 -6.52940989406422e-11 0.295241808820297
      vertex 0.772953090375718 0.561583292232054 -0.295241808836409
      vertex 0.955422563109574 -1.40935035642834e-10 -0.295241808809898
    endloop
  endfacet
  facet normal -0.9510565162595902 0.30901699448440023 5.90103113321453e-11
    outer loop
      vertex 0.772953090325291 -0.56158329234626 -0.295241808836409
      vertex 0.955422563170789 -6.52940989406422e-11 0.295241808820297
      vertex 0.955422563109574 -1.40935035642834e-10 -0.295241808809898
    endloop
  endfacet
  facet normal -0.9510565162840537 0.30901699440910896 1.381762419041392e-10
    outer loop
      vertex 0.955422563170789 -6.52940989406422e-11 0.295241808820297
      vertex 0.772953090325291 -0.56158329234626 -0.295241808836409
      vertex 0.772953090394696 -0.561583292396687 0.295241808820297
    endloop
  endfacet
  facet normal -0.5877852522779454 0.8090169943855023 1.3817739614554856e-10
    outer loop
      vertex 0.772953090325291 -0.56158329234626 -0.295241808836409
      vertex 0.295241808804192 -0.908660854567026 0.295241808820297
      vertex 0.772953090394696 -0.561583292396687 0.295241808820297
    endloop
  endfacet
  facet normal -0.5877852522992956 0.8090169943699907 1.1178728419519846e-10
    outer loop
      vertex 0.295241808804192 -0.908660854567026 0.295241808820297
      vertex 0.772953090325291 -0.56158329234626 -0.295241808836409
      vertex 0.295241808804192 -0.908660854485435 -0.295241808862922
    endloop
  endfacet
  facet normal -1.452901419846209e-10 6.5231155347317674e-21 1
    outer loop
      vertex 0.772953090375718 0.561583292232054 -0.295241808836409
      vertex 0.772953090325291 -0.56158329234626 -0.295241808836409
      vertex 0.955422563109574 -1.40935035642834e-10 -0.295241808809898
    endloop
  endfacet
  facet normal 5.549589602409325e-11 -2.491609817330741e-21 1
    outer loop
      vertex 0.295241808938804 0.908660854414124 -0.295241808809898
      vertex 0.772953090325291 -0.56158329234626 -0.295241808836409
      vertex 0.772953090375718 0.561583292232054 -0.295241808836409
    endloop
  endfacet
  facet normal -3.430173432377665e-11 -2.9177018767350064e-11 1
    outer loop
      vertex 0.295241808938804 0.908660854414124 -0.295241808809898
      vertex 0.295241808804192 -0.908660854485435 -0.295241808862922
      vertex 0.772953090325291 -0.56158329234626 -0.295241808836409
    endloop
  endfacet
  facet normal -4.489712298977576e-11 -2.9177018766565244e-11 1
    outer loop
      vertex -0.295241808744412 0.908660854467144 -0.295241808836409
      vertex 0.295241808804192 -0.908660854485435 -0.295241808862922
      vertex 0.295241808938804 0.908660854414124 -0.295241808809898
    endloop
  endfacet
  facet normal 4.4900507338161034e-11 -2.0158650557825992e-21 1
    outer loop
      vertex -0.295241808744412 0.908660854467144 -0.295241808836409
      vertex -0.295241808826003 -0.908660854485435 -0.295241808836409
      vertex 0.295241808804192 -0.908660854485435 -0.295241808862922
    endloop
  endfacet
  facet normal 5.549589601408858e-11 -2.4915592668209355e-21 1
    outer loop
      vertex -0.772953090298612 0.561583292446506 -0.295241808809898
      vertex -0.295241808826003 -0.908660854485435 -0.295241808836409
      vertex -0.295241808744412 0.908660854467144 -0.295241808836409
    endloop
  endfacet
  facet normal 2.790701601368947e-10 7.264368196099482e-11 1
    outer loop
      vertex -0.772953090298612 0.561583292446506 -0.295241808809898
      vertex -0.772953090472801 -0.561583292208659 -0.295241808728307
      vertex -0.295241808826003 -0.908660854485435 -0.295241808836409
    endloop
  endfacet
  facet normal -3.688644061891775e-10 7.264368206148131e-11 1
    outer loop
      vertex -0.772953090472801 -0.561583292208659 -0.295241808728307
      vertex -0.772953090298612 0.561583292446506 -0.295241808809898
      vertex -0.95542256313332 1.06288633336856e-10 -0.295241808836409
    endloop
  endfacet
endsolid OpenSCAD_Model
