solid OpenSCAD_Model
  facet normal 0 0 -1
    outer loop
      vertex 5.29109263417412e-11 0.942809041581838 0.333333333316693
      vertex 0.816496580869328 -0.471404520793973 0.333333333316693
      vertex -0.816496580932821 -0.471404520793973 0.333333333316693
    endloop
  endfacet
  facet normal 0.8164965809120488 -0.4714045208145648 0.3333333333384536
    outer loop
      vertex 1.05822215280804e-11 6.10903967191825e-12 -0.999999999950079
      vertex 5.29109263417412e-11 0.942809041581838 0.333333333316693
      vertex -0.816496580932821 -0.471404520793973 0.333333333316693
    endloop
  endfacet
  facet normal 0 0.9428090415748227 0.3333333333538133
    outer loop
      vertex 0.816496580869328 -0.471404520793973 0.333333333316693
      vertex 1.05822215280804e-11 6.10903967191825e-12 -0.999999999950079
      vertex -0.816496580932821 -0.471404520793973 0.333333333316693
    endloop
  endfacet
  facet normal -0.8164965809543775 -0.4714045207412494 0.3333333333384536
    outer loop
      vertex 5.29109263417412e-11 0.942809041581838 0.333333333316693
      vertex 1.05822215280804e-11 6.10903967191825e-12 -0.999999999950079
      vertex 0.816496580869328 -0.471404520793973 0.333333333316693
    endloop
  endfacet
endsolid OpenSCAD_Model
