solid OpenSCAD_Model
  facet normal 1 -4.489646746612309e-11 4.489646747216989e-11
    outer loop
      vertex -0.577350269200426 -0.577350269206906 0.577350269161545
      vertex -0.577350269096742 0.57735026928467 -0.57735026907082
      vertex -0.577350269148584 0.577350269232824 0.577350269161545
    endloop
  endfacet
  facet normal 1 -4.4896467470154316e-11 4.4896467468138665e-11
    outer loop
      vertex -0.577350269096742 0.57735026928467 -0.57735026907082
      vertex -0.577350269200426 -0.577350269206906 0.577350269161545
      vertex -0.577350269148584 -0.577350269155064 -0.577350269174504
    endloop
  endfacet
  facet normal -4.308659656832963e-27 1 4.4896467468138464e-11
    outer loop
      vertex 0.577350269135623 -0.577350269155064 -0.577350269226351
      vertex -0.577350269200426 -0.577350269206906 0.577350269161545
      vertex 0.577350269135623 -0.577350269206906 0.577350269161545
    endloop
  endfacet
  facet normal 2.015882734750799e-21 1 4.489646747015435e-11
    outer loop
      vertex -0.577350269200426 -0.577350269206906 0.577350269161545
      vertex 0.577350269135623 -0.577350269155064 -0.577350269226351
      vertex -0.577350269148584 -0.577350269155064 -0.577350269174504
    endloop
  endfacet
  facet normal 0 0 -1
    outer loop
      vertex -0.577350269200426 -0.577350269206906 0.577350269161545
      vertex 0.577350269187469 0.577350269129144 0.577350269161545
      vertex 0.577350269135623 -0.577350269206906 0.577350269161545
    endloop
  endfacet
  facet normal 0 0 -1
    outer loop
      vertex 0.577350269187469 0.577350269129144 0.577350269161545
      vertex -0.577350269200426 -0.577350269206906 0.577350269161545
      vertex -0.577350269148584 0.577350269232824 0.577350269161545
    endloop
  endfacet
  facet normal -8.978947360747278e-11 -1 -4.4900024959187235e-11
    outer loop
      vertex -0.577350269096742 0.57735026928467 -0.57735026907082
      vertex 0.577350269187469 0.577350269129144 0.577350269161545
      vertex -0.577350269148584 0.577350269232824 0.577350269161545
    endloop
  endfacet
  facet normal -1.795868313740548e-10 -1 4.489733281142669e-11
    outer loop
      vertex 0.577350269187469 0.577350269129144 0.577350269161545
      vertex -0.577350269096742 0.57735026928467 -0.57735026907082
      vertex 0.577350269135623 0.577350269077301 -0.577350269174504
    endloop
  endfacet
  facet normal -1 -2.016042460094066e-21 4.4899928802989966e-11
    outer loop
      vertex 0.577350269135623 -0.577350269155064 -0.577350269226351
      vertex 0.577350269187469 0.577350269129144 0.577350269161545
      vertex 0.577350269135623 0.577350269077301 -0.577350269174504
    endloop
  endfacet
  facet normal -1 4.4899928802989934e-11 2.015848253311697e-21
    outer loop
      vertex 0.577350269187469 0.577350269129144 0.577350269161545
      vertex 0.577350269135623 -0.577350269155064 -0.577350269226351
      vertex 0.577350269135623 -0.577350269206906 0.577350269161545
    endloop
  endfacet
  facet normal 8.979303108844223e-11 -4.4900794140230663e-11 1
    outer loop
      vertex -0.577350269096742 0.57735026928467 -0.57735026907082
      vertex 0.577350269135623 -0.577350269155064 -0.577350269226351
      vertex 0.577350269135623 0.577350269077301 -0.577350269174504
    endloop
  endfacet
  facet normal 4.490079413821477e-11 -8.979303108239606e-11 1
    outer loop
      vertex 0.577350269135623 -0.577350269155064 -0.577350269226351
      vertex -0.577350269096742 0.57735026928467 -0.57735026907082
      vertex -0.577350269148584 -0.577350269155064 -0.577350269174504
    endloop
  endfacet
endsolid OpenSCAD_Model
