solid OpenSCAD_Model
  facet normal 0 0 -1
    outer loop
      vertex 0.35682208977527 -0.491123473218112 0.794654472252924
      vertex 6.88241777476988e-11 0.607061998173204 0.794654472252924
      vertex 0.577350269208686 0.18759247402439 0.794654472252924
    endloop
  endfacet
  facet normal 0 0 -1
    outer loop
      vertex -0.356822089746642 -0.491123473218112 0.794654472252924
      vertex 6.88241777476988e-11 0.607061998173204 0.794654472252924
      vertex 0.35682208977527 -0.491123473218112 0.794654472252924
    endloop
  endfacet
  facet normal 0 0 -1
    outer loop
      vertex 6.88241777476988e-11 0.607061998173204 0.794654472252924
      vertex -0.356822089746642 -0.491123473218112 0.794654472252924
      vertex -0.577350269146367 0.187592474128074 0.794654472252924
    endloop
  endfacet
  facet normal 0.8506508084067642 0.276393202217134 -0.44721359541619143
    outer loop
      vertex -0.356822089746642 -0.491123473218112 0.794654472252924
      vertex -0.934172358828613 0.303530999197306 0.187592474084637
      vertex -0.577350269146367 0.187592474128074 0.794654472252924
    endloop
  endfacet
  facet normal 0.8506508084067641 0.2763932022171332 -0.4472135954161922
    outer loop
      vertex -0.934172358828613 0.303530999197306 0.187592474084637
      vertex -0.356822089746642 -0.491123473218112 0.794654472252924
      vertex -0.934172358845457 -0.303530998962947 -0.187592474114496
    endloop
  endfacet
  facet normal 0.8506508084067638 0.27639320221713504 -0.4472135954161917
    outer loop
      vertex -0.934172358845457 -0.303530998962947 -0.187592474114496
      vertex -0.356822089746642 -0.491123473218112 0.794654472252924
      vertex -0.577350269119112 -0.794654472297898 0.187592474026243
    endloop
  endfacet
  facet normal -2.0513655623326665e-15 0.8944271910196905 -0.44721359546040845
    outer loop
      vertex 2.88636419876012e-13 -0.982246946359671 -0.187592474138774
      vertex 0.35682208977527 -0.491123473218112 0.794654472252924
      vertex 0.577350269191195 -0.794654472310434 0.187592474001172
    endloop
  endfacet
  facet normal 0 0.8944271910196904 -0.44721359546040906
    outer loop
      vertex 0.35682208977527 -0.491123473218112 0.794654472252924
      vertex 2.88636419876012e-13 -0.982246946359671 -0.187592474138774
      vertex -0.356822089746642 -0.491123473218112 0.794654472252924
    endloop
  endfacet
  facet normal 2.987710367552434e-15 0.8944271910196907 -0.4472135954604083
    outer loop
      vertex -0.356822089746642 -0.491123473218112 0.794654472252924
      vertex 2.88636419876012e-13 -0.982246946359671 -0.187592474138774
      vertex -0.577350269119112 -0.794654472297898 0.187592474026243
    endloop
  endfacet
  facet normal -0.8506508083956956 0.2763932021965095 -0.4472135954499918
    outer loop
      vertex 0.35682208977527 -0.491123473218112 0.794654472252924
      vertex 0.934172358868169 0.303530999066181 0.187592474006335
      vertex 0.934172358901767 -0.303530999094991 -0.187592474168883
    endloop
  endfacet
  facet normal -0.8506508084223705 0.27639320230665354 -0.44721359533118066
    outer loop
      vertex 0.934172358868169 0.303530999066181 0.187592474006335
      vertex 0.35682208977527 -0.491123473218112 0.794654472252924
      vertex 0.577350269208686 0.18759247402439 0.794654472252924
    endloop
  endfacet
  facet normal -0.8506508083956947 0.27639320219651475 -0.4472135954499903
    outer loop
      vertex 0.35682208977527 -0.491123473218112 0.794654472252924
      vertex 0.934172358901767 -0.303530999094991 -0.187592474168883
      vertex 0.577350269191195 -0.794654472310434 0.187592474001172
    endloop
  endfacet
  facet normal -0.5257311120987722 0.7236067977037651 0.4472135955986695
    outer loop
      vertex 0.934172358901767 -0.303530999094991 -0.187592474168883
      vertex 2.88636419876012e-13 -0.982246946359671 -0.187592474138774
      vertex 0.577350269191195 -0.794654472310434 0.187592474001172
    endloop
  endfacet
  facet normal -0.5257311120987709 0.7236067977037633 0.4472135955986742
    outer loop
      vertex 0.577350269053783 -0.187592474042949 -0.794654472356039
      vertex 2.88636419876012e-13 -0.982246946359671 -0.187592474138774
      vertex 0.934172358901767 -0.303530999094991 -0.187592474168883
    endloop
  endfacet
  facet normal -0.5257311120987755 0.7236067977037631 0.44721359559866924
    outer loop
      vertex 2.88636419876012e-13 -0.982246946359671 -0.187592474138774
      vertex 0.577350269053783 -0.187592474042949 -0.794654472356039
      vertex -8.88833393184123e-11 -0.607061998187905 -0.794654472280121
    endloop
  endfacet
  facet normal 0.5257311121928145 0.7236067976134194 0.44721359563429885
    outer loop
      vertex 2.88636419876012e-13 -0.982246946359671 -0.187592474138774
      vertex -0.934172358845457 -0.303530998962947 -0.187592474114496
      vertex -0.577350269119112 -0.794654472297898 0.187592474026243
    endloop
  endfacet
  facet normal 0.5257311122053898 0.723606797716785 0.4472135954522668
    outer loop
      vertex -0.577350269259838 -0.187592474092255 -0.794654472117581
      vertex 2.88636419876012e-13 -0.982246946359671 -0.187592474138774
      vertex -8.88833393184123e-11 -0.607061998187905 -0.794654472280121
    endloop
  endfacet
  facet normal 0.5257311122646136 0.7236067977122423 0.44721359538999517
    outer loop
      vertex 2.88636419876012e-13 -0.982246946359671 -0.187592474138774
      vertex -0.577350269259838 -0.187592474092255 -0.794654472117581
      vertex -0.934172358845457 -0.303530998962947 -0.187592474114496
    endloop
  endfacet
  facet normal 0.5257311120339392 -0.7236067978272913 -0.4472135954750161
    outer loop
      vertex 2.83314235261535e-10 0.982246946312568 0.187592474220791
      vertex -0.577350269146367 0.187592474128074 0.794654472252924
      vertex -0.934172358828613 0.303530999197306 0.187592474084637
    endloop
  endfacet
  facet normal 0.5257311120550013 -0.7236067978256757 -0.4472135954528699
    outer loop
      vertex -0.577350269146367 0.187592474128074 0.794654472252924
      vertex 2.83314235261535e-10 0.982246946312568 0.187592474220791
      vertex 6.88241777476988e-11 0.607061998173204 0.794654472252924
    endloop
  endfacet
  facet normal 0.5257311120339385 -0.7236067978272904 -0.44721359547501827
    outer loop
      vertex 2.83314235261535e-10 0.982246946312568 0.187592474220791
      vertex -0.934172358828613 0.303530999197306 0.187592474084637
      vertex -0.577350268928385 0.794654472314415 -0.187592473994475
    endloop
  endfacet
  facet normal -0.5257311121113224 -0.7236067976299226 -0.4472135957033956
    outer loop
      vertex 2.83314235261535e-10 0.982246946312568 0.187592474220791
      vertex 0.577350269208686 0.18759247402439 0.794654472252924
      vertex 6.88241777476988e-11 0.607061998173204 0.794654472252924
    endloop
  endfacet
  facet normal -0.5257311123148776 -0.7236067976143092 -0.4472135954893652
    outer loop
      vertex 2.83314235261535e-10 0.982246946312568 0.187592474220791
      vertex 0.934172358868169 0.303530999066181 0.187592474006335
      vertex 0.577350269208686 0.18759247402439 0.794654472252924
    endloop
  endfacet
  facet normal -0.5257311124689893 -0.7236067978264259 -0.4472135949649839
    outer loop
      vertex 0.934172358868169 0.303530999066181 0.187592474006335
      vertex 2.83314235261535e-10 0.982246946312568 0.187592474220791
      vertex 0.577350268952031 0.794654472162308 -0.187592474099945
    endloop
  endfacet
  facet normal -0.8506508082587833 -0.2763932025429231 0.4472135954963191
    outer loop
      vertex 0.35682208959094 0.491123473250688 -0.794654472240428
      vertex 0.934172358868169 0.303530999066181 0.187592474006335
      vertex 0.577350268952031 0.794654472162308 -0.187592474099945
    endloop
  endfacet
  facet normal -0.8506508082920209 -0.27639320235653575 0.4472135955482913
    outer loop
      vertex 0.934172358901767 -0.303530999094991 -0.187592474168883
      vertex 0.35682208959094 0.491123473250688 -0.794654472240428
      vertex 0.577350269053783 -0.187592474042949 -0.794654472356039
    endloop
  endfacet
  facet normal -0.8506508082912776 -0.2763932023534669 0.4472135955516017
    outer loop
      vertex 0.35682208959094 0.491123473250688 -0.794654472240428
      vertex 0.934172358901767 -0.303530999094991 -0.187592474168883
      vertex 0.934172358868169 0.303530999066181 0.187592474006335
    endloop
  endfacet
  facet normal 2.0650294427222134e-10 -1.0324106600593999e-10 1
    outer loop
      vertex 0.35682208959094 0.491123473250688 -0.794654472240428
      vertex -8.88833393184123e-11 -0.607061998187905 -0.794654472280121
      vertex 0.577350269053783 -0.187592474042949 -0.794654472356039
    endloop
  endfacet
  facet normal 2.0650907851501166e-10 -1.0324305914224344e-10 1
    outer loop
      vertex -0.356822089930971 0.491123473156138 -0.794654472093054
      vertex -8.88833393184123e-11 -0.607061998187905 -0.794654472280121
      vertex 0.35682208959094 0.491123473250688 -0.794654472240428
    endloop
  endfacet
  facet normal 2.0651949106805972e-10 -1.0323967589866928e-10 1
    outer loop
      vertex -8.88833393184123e-11 -0.607061998187905 -0.794654472280121
      vertex -0.356822089930971 0.491123473156138 -0.794654472093054
      vertex -0.577350269259838 -0.187592474092255 -0.794654472117581
    endloop
  endfacet
  facet normal 0.8506508083165306 -0.2763932027536621 0.4472135952562333
    outer loop
      vertex -0.934172358828613 0.303530999197306 0.187592474084637
      vertex -0.356822089930971 0.491123473156138 -0.794654472093054
      vertex -0.577350268928385 0.794654472314415 -0.187592473994475
    endloop
  endfacet
  facet normal 0.8506508084019988 -0.27639320225534514 0.44721359540164024
    outer loop
      vertex -0.934172358845457 -0.303530998962947 -0.187592474114496
      vertex -0.356822089930971 0.491123473156138 -0.794654472093054
      vertex -0.934172358828613 0.303530999197306 0.187592474084637
    endloop
  endfacet
  facet normal 0.8506508083829193 -0.2763932021765636 0.44721359548662093
    outer loop
      vertex -0.356822089930971 0.491123473156138 -0.794654472093054
      vertex -0.934172358845457 -0.303530998962947 -0.187592474114496
      vertex -0.577350269259838 -0.187592474092255 -0.794654472117581
    endloop
  endfacet
  facet normal -2.2163522409490192e-10 -0.8944271909678898 0.44721359556401014
    outer loop
      vertex -0.356822089930971 0.491123473156138 -0.794654472093054
      vertex 2.83314235261535e-10 0.982246946312568 0.187592474220791
      vertex -0.577350268928385 0.794654472314415 -0.187592473994475
    endloop
  endfacet
  facet normal 2.108554005882473e-10 -0.8944271910307343 0.44721359543832095
    outer loop
      vertex 0.35682208959094 0.491123473250688 -0.794654472240428
      vertex 2.83314235261535e-10 0.982246946312568 0.187592474220791
      vertex -0.356822089930971 0.491123473156138 -0.794654472093054
    endloop
  endfacet
  facet normal -1.1019909992956684e-10 -0.8944271910773862 0.44721359534501715
    outer loop
      vertex 2.83314235261535e-10 0.982246946312568 0.187592474220791
      vertex 0.35682208959094 0.491123473250688 -0.794654472240428
      vertex 0.577350268952031 0.794654472162308 -0.187592474099945
    endloop
  endfacet
endsolid OpenSCAD_Model
