solid OpenSCAD_Model
  facet normal 0.9341723589897605 0.30353099905648817 -0.18759247402621498
    outer loop
      vertex -0.850650808187143 -0.27639320217128 -0.447213595461184
      vertex -0.850650808226968 0.276393202295901 0.447213595429835
      vertex -0.525731112045593 -0.723606797728819 0.447213595429835
    endloop
  endfacet
  facet normal 0.5773502692367999 0.7946544722366535 0.18759247417335428
    outer loop
      vertex 3.96140456914477e-11 -0.894427190923513 -0.447213595461184
      vertex -0.850650808187143 -0.27639320217128 -0.447213595461184
      vertex -0.525731112045593 -0.723606797728819 0.447213595429835
    endloop
  endfacet
  facet normal 0 0.9822469463838162 -0.18759247404858354
    outer loop
      vertex 0.525731112070311 -0.723606797728819 0.447213595429835
      vertex 3.96140456914477e-11 -0.894427190923513 -0.447213595461184
      vertex -0.525731112045593 -0.723606797728819 0.447213595429835
    endloop
  endfacet
  facet normal -3.856465083854036e-19 0.6070619980974095 -0.7946544723752462
    outer loop
      vertex 3.96140456914477e-11 6.28976928543407e-11 0.999999999804184
      vertex 0.525731112070311 -0.723606797728819 0.447213595429835
      vertex -0.525731112045593 -0.723606797728819 0.447213595429835
    endloop
  endfacet
  facet normal 0.5773502691408625 0.1875924740348469 -0.7946544723390531
    outer loop
      vertex -0.850650808226968 0.276393202295901 0.447213595429835
      vertex 3.96140456914477e-11 6.28976928543407e-11 0.999999999804184
      vertex -0.525731112045593 -0.723606797728819 0.447213595429835
    endloop
  endfacet
  facet normal 0.5773502693196851 -0.7946544722579979 -0.18759247382784275
    outer loop
      vertex -0.525731111922381 0.723606797600445 -0.4472135954424
      vertex -1.17592247323355e-10 0.894427191034977 0.447213595429835
      vertex -0.850650808226968 0.276393202295901 0.447213595429835
    endloop
  endfacet
  facet normal 0.9341723589131851 -0.3035309991898206 0.1875924741918084
    outer loop
      vertex -0.850650808187143 -0.27639320217128 -0.447213595461184
      vertex -0.525731111922381 0.723606797600445 -0.4472135954424
      vertex -0.850650808226968 0.276393202295901 0.447213595429835
    endloop
  endfacet
  facet normal 0.35682208978347346 -0.49112347307120974 -0.7946544723595453
    outer loop
      vertex -1.17592247323355e-10 0.894427191034977 0.447213595429835
      vertex 3.96140456914477e-11 6.28976928543407e-11 0.999999999804184
      vertex -0.850650808226968 0.276393202295901 0.447213595429835
    endloop
  endfacet
  facet normal -0.5773502692591259 -0.794654472267381 -0.18759247397447743
    outer loop
      vertex 0.525731112071857 0.72360679752536 -0.447213595430792
      vertex 0.850650808091054 0.276393202295901 0.447213595429835
      vertex -1.17592247323355e-10 0.894427191034977 0.447213595429835
    endloop
  endfacet
  facet normal -7.221338158054519e-11 -0.9822469463267369 0.18759247434745466
    outer loop
      vertex -0.525731111922381 0.723606797600445 -0.4472135954424
      vertex 0.525731112071857 0.72360679752536 -0.447213595430792
      vertex -1.17592247323355e-10 0.894427191034977 0.447213595429835
    endloop
  endfacet
  facet normal -0.3568220898046816 -0.4911234731577141 -0.7946544722965597
    outer loop
      vertex 0.850650808091054 0.276393202295901 0.447213595429835
      vertex 3.96140456914477e-11 6.28976928543407e-11 0.999999999804184
      vertex -1.17592247323355e-10 0.894427191034977 0.447213595429835
    endloop
  endfacet
  facet normal -0.9341723590145267 0.3035309989144771 -0.18759247413266356
    outer loop
      vertex 0.850650808193929 -0.27639320229279 -0.4472135954424
      vertex 0.525731112070311 -0.723606797728819 0.447213595429835
      vertex 0.850650808091054 0.276393202295901 0.447213595429835
    endloop
  endfacet
  facet normal -0.9341723589896698 -0.30353099906593745 0.18759247401137827
    outer loop
      vertex 0.525731112071857 0.72360679752536 -0.447213595430792
      vertex 0.850650808193929 -0.27639320229279 -0.4472135954424
      vertex 0.850650808091054 0.276393202295901 0.447213595429835
    endloop
  endfacet
  facet normal -0.5773502692327247 0.18759247397195375 -0.7946544722871585
    outer loop
      vertex 0.525731112070311 -0.723606797728819 0.447213595429835
      vertex 3.96140456914477e-11 6.28976928543407e-11 0.999999999804184
      vertex 0.850650808091054 0.276393202295901 0.447213595429835
    endloop
  endfacet
  facet normal -0.577350269204309 0.7946544722747936 0.18759247411178637
    outer loop
      vertex 0.850650808193929 -0.27639320229279 -0.4472135954424
      vertex 3.96140456914477e-11 -0.894427190923513 -0.447213595461184
      vertex 0.525731112070311 -0.723606797728819 0.447213595429835
    endloop
  endfacet
  facet normal 0.35682208974015983 0.4911234730689085 0.7946544723804166
    outer loop
      vertex -6.70185818147996e-12 2.9740885565425e-11 -0.999999999715402
      vertex -0.850650808187143 -0.27639320217128 -0.447213595461184
      vertex 3.96140456914477e-11 -0.894427190923513 -0.447213595461184
    endloop
  endfacet
  facet normal -0.3568220897038152 0.49112347304946646 0.7946544724087523
    outer loop
      vertex 0.850650808193929 -0.27639320229279 -0.4472135954424
      vertex -6.70185818147996e-12 2.9740885565425e-11 -0.999999999715402
      vertex 3.96140456914477e-11 -0.894427190923513 -0.447213595461184
    endloop
  endfacet
  facet normal 0.5773502691113136 -0.18759247413577607 0.7946544723366954
    outer loop
      vertex -6.70185818147996e-12 2.9740885565425e-11 -0.999999999715402
      vertex -0.525731111922381 0.723606797600445 -0.4472135954424
      vertex -0.850650808187143 -0.27639320217128 -0.447213595461184
    endloop
  endfacet
  facet normal -5.212329733286015e-11 -0.6070619981681273 0.7946544723212225
    outer loop
      vertex -6.70185818147996e-12 2.9740885565425e-11 -0.999999999715402
      vertex 0.525731112071857 0.72360679752536 -0.447213595430792
      vertex -0.525731111922381 0.723606797600445 -0.4472135954424
    endloop
  endfacet
  facet normal -0.5773502691212257 -0.18759247404220325 0.7946544723515836
    outer loop
      vertex -6.70185818147996e-12 2.9740885565425e-11 -0.999999999715402
      vertex 0.850650808193929 -0.27639320229279 -0.4472135954424
      vertex 0.525731112071857 0.72360679752536 -0.447213595430792
    endloop
  endfacet
endsolid OpenSCAD_Model
