solid OpenSCAD_Model
  facet normal 0.8164965809188035 0.47140452072071104 0.3333333334546374
    outer loop
      vertex -0.499999999768469 -0.288675134507029 -0.816496580730204
      vertex -0.999999999746834 1.34738886689644e-11 -9.25185853683226e-18
      vertex -0.499999999813365 -0.866025403775453 -9.25185853683226e-18
    endloop
  endfacet
  facet normal 1.4116108830073967e-17 0.8164965808247396 0.5773502693352706
    outer loop
      vertex 0.499999999967169 -0.288675134501062 -0.816496580738643
      vertex -0.499999999813365 -0.866025403775453 -9.25185853683226e-18
      vertex 0.500000000001731 -0.866025403775453 -9.25185853683226e-18
    endloop
  endfacet
  facet normal 1.7746520045069086e-16 0.8164965808247395 0.5773502693352707
    outer loop
      vertex -0.499999999813365 -0.866025403775453 -9.25185853683226e-18
      vertex 0.499999999967169 -0.288675134501062 -0.816496580738643
      vertex -0.499999999768469 -0.288675134507029 -0.816496580730204
    endloop
  endfacet
  facet normal 7.854708240168275e-18 0.9428090415228834 -0.3333333335007195
    outer loop
      vertex 1.20103815759439e-10 -0.577350269087394 0.816496580730204
      vertex 0.500000000001731 -0.866025403775453 -9.25185853683226e-18
      vertex -0.499999999813365 -0.866025403775453 -9.25185853683226e-18
    endloop
  endfacet
  facet normal 0.7071067811584548 0.4082482903912033 -0.5773502692754103
    outer loop
      vertex 1.20103815759439e-10 -0.577350269087394 0.816496580730204
      vertex -0.999999999746834 1.34738886689644e-11 -9.25185853683226e-18
      vertex -0.499999999768468 0.288675134635708 0.816496580738643
    endloop
  endfacet
  facet normal 0.7071067811584548 0.40824829039120547 -0.5773502692754088
    outer loop
      vertex -0.999999999746834 1.34738886689644e-11 -9.25185853683226e-18
      vertex 1.20103815759439e-10 -0.577350269087394 0.816496580730204
      vertex -0.499999999813365 -0.866025403775453 -9.25185853683226e-18
    endloop
  endfacet
  facet normal 0.7071067810973577 -0.40824829018661635 0.5773502694949035
    outer loop
      vertex -0.999999999746834 1.34738886689644e-11 -9.25185853683226e-18
      vertex 1.71945790907028e-10 0.577350268904821 -0.816496580730204
      vertex -0.500000000046654 0.866025403757503 -9.25185853683226e-18
    endloop
  endfacet
  facet normal 0.7071067810973577 -0.40824829053935807 0.5773502692454775
    outer loop
      vertex 1.71945790907028e-10 0.577350268904821 -0.816496580730204
      vertex -0.999999999746834 1.34738886689644e-11 -9.25185853683226e-18
      vertex -0.499999999768469 -0.288675134507029 -0.816496580730204
    endloop
  endfacet
  facet normal 0.8164965809921646 -0.4714045205675584 -0.3333333334915307
    outer loop
      vertex -0.500000000046654 0.866025403757503 -9.25185853683226e-18
      vertex -0.499999999768468 0.288675134635708 0.816496580738643
      vertex -0.999999999746834 1.34738886689644e-11 -9.25185853683226e-18
    endloop
  endfacet
  facet normal -1.1639761782697252e-17 -0.9428090414631438 0.3333333336696886
    outer loop
      vertex 1.71945790907028e-10 0.577350268904821 -0.816496580730204
      vertex 0.499999999612915 0.866025403757503 -9.25185853683226e-18
      vertex -0.500000000046654 0.866025403757503 -9.25185853683226e-18
    endloop
  endfacet
  facet normal -6.349656940828051e-11 -0.816496580896674 -0.5773502692335399
    outer loop
      vertex -0.500000000046654 0.866025403757503 -9.25185853683226e-18
      vertex 0.499999999645778 0.288675134563908 0.816496580730204
      vertex -0.499999999768468 0.288675134635708 0.816496580738643
    endloop
  endfacet
  facet normal 2.432548649287857e-17 -0.8164965808600142 -0.5773502692853847
    outer loop
      vertex 0.499999999645778 0.288675134563908 0.816496580730204
      vertex -0.500000000046654 0.866025403757503 -9.25185853683226e-18
      vertex 0.499999999612915 0.866025403757503 -9.25185853683226e-18
    endloop
  endfacet
  facet normal -0.707106781262317 -0.4082482905358312 0.5773502690459384
    outer loop
      vertex 1.71945790907028e-10 0.577350268904821 -0.816496580730204
      vertex 0.999999999624149 1.34758870704084e-11 -9.25185853683226e-18
      vertex 0.499999999612915 0.866025403757503 -9.25185853683226e-18
    endloop
  endfacet
  facet normal -0.707106781262317 -0.40824829052448774 0.5773502690539594
    outer loop
      vertex 0.999999999624149 1.34758870704084e-11 -9.25185853683226e-18
      vertex 1.71945790907028e-10 0.577350268904821 -0.816496580730204
      vertex 0.499999999967169 -0.288675134501062 -0.816496580738643
    endloop
  endfacet
  facet normal -0.8164965808952844 -0.4714045208048902 -0.33333333339319954
    outer loop
      vertex 0.999999999624149 1.34758870704084e-11 -9.25185853683226e-18
      vertex 0.499999999645778 0.288675134563908 0.816496580730204
      vertex 0.499999999612915 0.866025403757503 -9.25185853683226e-18
    endloop
  endfacet
  facet normal -0.8164965810909315 0.47140452052682646 0.3333333333072061
    outer loop
      vertex 0.499999999967169 -0.288675134501062 -0.816496580738643
      vertex 0.500000000001731 -0.866025403775453 -9.25185853683226e-18
      vertex 0.999999999624149 1.34758870704084e-11 -9.25185853683226e-18
    endloop
  endfacet
  facet normal -0.7071067812867571 0.40824829019719494 -0.5773502692554574
    outer loop
      vertex 0.999999999624149 1.34758870704084e-11 -9.25185853683226e-18
      vertex 1.20103815759439e-10 -0.577350269087394 0.816496580730204
      vertex 0.499999999645778 0.288675134563908 0.816496580730204
    endloop
  endfacet
  facet normal -0.7071067812867571 0.40824829021130793 -0.5773502692454779
    outer loop
      vertex 1.20103815759439e-10 -0.577350269087394 0.816496580730204
      vertex 0.999999999624149 1.34758870704084e-11 -9.25185853683226e-18
      vertex 0.500000000001731 -0.866025403775453 -9.25185853683226e-18
    endloop
  endfacet
  facet normal 8.438916234738279e-12 -4.872210561310388e-12 1
    outer loop
      vertex 0.499999999967169 -0.288675134501062 -0.816496580738643
      vertex 1.71945790907028e-10 0.577350268904821 -0.816496580730204
      vertex -0.499999999768469 -0.288675134507029 -0.816496580730204
    endloop
  endfacet
  facet normal -8.43891623707158e-12 4.87221055726897e-12 -1
    outer loop
      vertex -0.499999999768468 0.288675134635708 0.816496580738643
      vertex 0.499999999645778 0.288675134563908 0.816496580730204
      vertex 1.20103815759439e-10 -0.577350269087394 0.816496580730204
    endloop
  endfacet
endsolid OpenSCAD_Model
