solid OpenSCAD_Model
  facet normal 0.5257311120565945 0.7236067975545896 0.4472135958896238
    outer loop
      vertex -0.809016993573684 -0.262865555889258 -0.52573111151861
      vertex -0.309016993749896 -0.951056516051397 -5.0318074688656e-17
      vertex 4.72258368754802e-10 -0.850650807868913 -0.525731111781663
    endloop
  endfacet
  facet normal 0.5257311120565932 0.7236067975545896 0.4472135958896253
    outer loop
      vertex -0.309016993749896 -0.951056516051397 -5.0318074688656e-17
      vertex -0.809016993573684 -0.262865555889258 -0.52573111151861
      vertex -0.809016993588833 -0.587785252110859 -5.0318074688656e-17
    endloop
  endfacet
  facet normal 0.5257311120565961 0.7236067975545918 0.4472135958896185
    outer loop
      vertex -0.809016993573684 -0.262865555889258 -0.52573111151861
      vertex 4.72258368754802e-10 -0.850650807868913 -0.525731111781663
      vertex -0.309016993800095 -0.425325403778152 -0.850650807571507
    endloop
  endfacet
  facet normal 0 0.9822469462722508 0.18759247463274722
    outer loop
      vertex 0.309016994662373 -0.951056516051397 -5.0318074688656e-17
      vertex 4.72258368754802e-10 -0.850650807868913 -0.525731111781663
      vertex -0.309016993749896 -0.951056516051397 -5.0318074688656e-17
    endloop
  endfacet
  facet normal -7.298485583003764e-15 0.8944271907556465 -0.44721359598849675
    outer loop
      vertex 0.309016994662373 -0.951056516051397 -5.0318074688656e-17
      vertex 3.77838834530456e-10 -0.525731111684861 0.850650807571507
      vertex 0.500000000034655 -0.688190959933146 0.525731111518609
    endloop
  endfacet
  facet normal 0 0.8944271907556475 -0.4472135959884946
    outer loop
      vertex -0.309016993749896 -0.951056516051397 -5.0318074688656e-17
      vertex 3.77838834530456e-10 -0.525731111684861 0.850650807571507
      vertex 0.309016994662373 -0.951056516051397 -5.0318074688656e-17
    endloop
  endfacet
  facet normal 2.644593057576502e-15 0.8944271907556473 -0.4472135959884954
    outer loop
      vertex 3.77838834530456e-10 -0.525731111684861 0.850650807571507
      vertex -0.309016993749896 -0.951056516051397 -5.0318074688656e-17
      vertex -0.499999999238949 -0.688190959801621 0.525731111781663
    endloop
  endfacet
  facet normal 0.5773502691908446 0.7946544721734013 -0.18759247458272987
    outer loop
      vertex -0.809016993588833 -0.587785252110859 -5.0318074688656e-17
      vertex -0.499999999238949 -0.688190959801621 0.525731111781663
      vertex -0.309016993749896 -0.951056516051397 -5.0318074688656e-17
    endloop
  endfacet
  facet normal 0.9341723587306562 0.303530999515199 0.1875924745742923
    outer loop
      vertex -0.809016993573684 -0.262865555889258 -0.52573111151861
      vertex -0.99999999947226 3.32403946015517e-11 -5.0318074688656e-17
      vertex -0.809016993588833 -0.587785252110859 -5.0318074688656e-17
    endloop
  endfacet
  facet normal 0.8506508078327119 0.2763932035150959 -0.4472135957059197
    outer loop
      vertex -0.499999999337722 -0.162459847602835 0.850650807472882
      vertex -0.99999999947226 3.32403946015517e-11 -5.0318074688656e-17
      vertex -0.809016994119956 0.26286555597381 0.525731111806481
    endloop
  endfacet
  facet normal 0.8506508080478596 0.27639320226068775 -0.447213596071951
    outer loop
      vertex -0.499999999238949 -0.688190959801621 0.525731111781663
      vertex -0.99999999947226 3.32403946015517e-11 -5.0318074688656e-17
      vertex -0.499999999337722 -0.162459847602835 0.850650807472882
    endloop
  endfacet
  facet normal 0.8506508081357071 0.2763932026234227 -0.44721359568067265
    outer loop
      vertex -0.99999999947226 3.32403946015517e-11 -5.0318074688656e-17
      vertex -0.499999999238949 -0.688190959801621 0.525731111781663
      vertex -0.809016993588833 -0.587785252110859 -5.0318074688656e-17
    endloop
  endfacet
  facet normal 0.8506508077244634 -0.2763932012799961 0.4472135972931878
    outer loop
      vertex -0.99999999947226 3.32403946015517e-11 -5.0318074688656e-17
      vertex -0.499999999151233 0.68819095963177 -0.525731111806481
      vertex -0.809016994430361 0.587785252160188 -5.0318074688656e-17
    endloop
  endfacet
  facet normal 0.8506508080287603 -0.276393202536482 0.44721359593782994
    outer loop
      vertex -0.499999999151233 0.68819095963177 -0.525731111806481
      vertex -0.99999999947226 3.32403946015517e-11 -5.0318074688656e-17
      vertex -0.499999999163324 0.162459847820332 -0.850650807844845
    endloop
  endfacet
  facet normal 0.850650808139091 -0.27639320189320343 0.4472135961255359
    outer loop
      vertex -0.499999999163324 0.162459847820332 -0.850650807844845
      vertex -0.99999999947226 3.32403946015517e-11 -5.0318074688656e-17
      vertex -0.809016993573684 -0.262865555889258 -0.52573111151861
    endloop
  endfacet
  facet normal 0.9341723591808982 -0.30353099833290076 -0.18759247424517767
    outer loop
      vertex -0.809016994430361 0.587785252160188 -5.0318074688656e-17
      vertex -0.809016994119956 0.26286555597381 0.525731111806481
      vertex -0.99999999947226 3.32403946015517e-11 -5.0318074688656e-17
    endloop
  endfacet
  facet normal 0.5773502693645043 -0.7946544716840505 0.18759247612118424
    outer loop
      vertex -0.499999999151233 0.68819095963177 -0.525731111806481
      vertex -0.309016995111516 0.951056516055828 -5.0318074688656e-17
      vertex -0.809016994430361 0.587785252160188 -5.0318074688656e-17
    endloop
  endfacet
  facet normal 0.5257311124123684 -0.72360679735237 -0.4472135957985849
    outer loop
      vertex -0.809016994119956 0.26286555597381 0.525731111806481
      vertex -9.30417372827394e-10 0.850650808055857 0.525731111806481
      vertex -0.309016994654752 0.425325403979742 0.850650807844845
    endloop
  endfacet
  facet normal 0.5257311124048387 -0.7236067973706574 -0.4472135957778467
    outer loop
      vertex -0.309016995111516 0.951056516055828 -5.0318074688656e-17
      vertex -0.809016994119956 0.26286555597381 0.525731111806481
      vertex -0.809016994430361 0.587785252160188 -5.0318074688656e-17
    endloop
  endfacet
  facet normal 0.5257311124245561 -0.723606797369145 -0.4472135957571146
    outer loop
      vertex -0.809016994119956 0.26286555597381 0.525731111806481
      vertex -0.309016995111516 0.951056516055828 -5.0318074688656e-17
      vertex -9.30417372827394e-10 0.850650808055857 0.525731111806481
    endloop
  endfacet
  facet normal 2.961156953667124e-10 -0.8944271906885171 0.44721359612275574
    outer loop
      vertex 5.07952867346328e-10 0.525731111495316 -0.850650807844845
      vertex -0.309016995111516 0.951056516055828 -5.0318074688656e-17
      vertex -0.499999999151233 0.68819095963177 -0.525731111806481
    endloop
  endfacet
  facet normal 8.676341223017153e-15 -0.8944271907315439 0.44721359603670197
    outer loop
      vertex -0.309016995111516 0.951056516055828 -5.0318074688656e-17
      vertex 5.07952867346328e-10 0.525731111495316 -0.850650807844845
      vertex 0.309016993129954 0.951056516055834 -5.0318074688656e-17
    endloop
  endfacet
  facet normal -5.504841057136262e-10 -0.8944271906515525 0.4472135961966846
    outer loop
      vertex 0.309016993129954 0.951056516055834 -5.0318074688656e-17
      vertex 5.07952867346328e-10 0.525731111495316 -0.850650807844845
      vertex 0.500000000213218 0.688190959523144 -0.525731111806481
    endloop
  endfacet
  facet normal 9.528231878453553e-15 -0.9822469463367144 -0.18759247429521145
    outer loop
      vertex 0.309016993129954 0.951056516055834 -5.0318074688656e-17
      vertex -9.30417372827394e-10 0.850650808055857 0.525731111806481
      vertex -0.309016995111516 0.951056516055828 -5.0318074688656e-17
    endloop
  endfacet
  facet normal -0.5773502692581428 -0.7946544724160687 0.18759247334765203
    outer loop
      vertex 0.500000000213218 0.688190959523144 -0.525731111806481
      vertex 0.809016993001508 0.587785252160188 -5.0318074688656e-17
      vertex 0.309016993129954 0.951056516055834 -5.0318074688656e-17
    endloop
  endfacet
  facet normal -0.5257311120808176 -0.7236067977532313 -0.44721359553973866
    outer loop
      vertex -9.30417372827394e-10 0.850650808055857 0.525731111806481
      vertex 0.809016993175565 0.262865556004279 0.525731111806481
      vertex 0.309016993465788 0.425325403985038 0.850650807844845
    endloop
  endfacet
  facet normal -0.5257311120883491 -0.7236067977635976 -0.44721359551411194
    outer loop
      vertex 0.309016993129954 0.951056516055834 -5.0318074688656e-17
      vertex 0.809016993175565 0.262865556004279 0.525731111806481
      vertex -9.30417372827394e-10 0.850650808055857 0.525731111806481
    endloop
  endfacet
  facet normal -0.525731112108083 -0.7236067977620839 -0.44721359549336265
    outer loop
      vertex 0.809016993175565 0.262865556004279 0.525731111806481
      vertex 0.309016993129954 0.951056516055834 -5.0318074688656e-17
      vertex 0.809016993001508 0.587785252160188 -5.0318074688656e-17
    endloop
  endfacet
  facet normal -0.8506508087360439 -0.27639320180110727 0.44721359504698294
    outer loop
      vertex 0.999999998937715 3.32403946015517e-11 -5.0318074688656e-17
      vertex 0.500000000213218 0.688190959523144 -0.525731111806481
      vertex 0.500000000107762 0.162459847721966 -0.850650807844845
    endloop
  endfacet
  facet normal -0.850650809025676 -0.2763932029970403 0.4472135937569427
    outer loop
      vertex 0.500000000213218 0.688190959523144 -0.525731111806481
      vertex 0.999999998937715 3.32403946015517e-11 -5.0318074688656e-17
      vertex 0.809016993001508 0.587785252160188 -5.0318074688656e-17
    endloop
  endfacet
  facet normal -0.8506508085211241 -0.2763932030541863 0.44721359468133937
    outer loop
      vertex 0.999999998937715 3.32403946015517e-11 -5.0318074688656e-17
      vertex 0.500000000107762 0.162459847721966 -0.850650807844845
      vertex 0.809016994322623 -0.262865556190037 -0.525731111806481
    endloop
  endfacet
  facet normal -0.9341723587778794 -0.30353099962328367 -0.18759247416424563
    outer loop
      vertex 0.999999998937715 3.32403946015517e-11 -5.0318074688656e-17
      vertex 0.809016993175565 0.262865556004279 0.525731111806481
      vertex 0.809016993001508 0.587785252160188 -5.0318074688656e-17
    endloop
  endfacet
  facet normal -0.9341723594572346 0.30353099832994046 0.18759247287386835
    outer loop
      vertex 0.809016994322623 -0.262865556190037 -0.525731111806481
      vertex 0.809016993948601 -0.587785252110856 -5.0318074688656e-17
      vertex 0.999999998937715 3.32403946015517e-11 -5.0318074688656e-17
    endloop
  endfacet
  facet normal -0.8506508085459406 0.27639320146247454 -0.44721359561786767
    outer loop
      vertex 0.999999998937715 3.32403946015517e-11 -5.0318074688656e-17
      vertex 0.499999999369663 -0.162459848025261 0.850650807844845
      vertex 0.809016993175565 0.262865556004279 0.525731111806481
    endloop
  endfacet
  facet normal -0.8506508085554878 0.27639320146555707 -0.4472135955978025
    outer loop
      vertex 0.500000000034655 -0.688190959933146 0.525731111518609
      vertex 0.999999998937715 3.32403946015517e-11 -5.0318074688656e-17
      vertex 0.809016993948601 -0.587785252110856 -5.0318074688656e-17
    endloop
  endfacet
  facet normal -0.8506508085495892 0.27639320144120105 -0.44721359562407514
    outer loop
      vertex 0.999999998937715 3.32403946015517e-11 -5.0318074688656e-17
      vertex 0.500000000034655 -0.688190959933146 0.525731111518609
      vertex 0.499999999369663 -0.162459848025261 0.850650807844845
    endloop
  endfacet
  facet normal -0.5257311127235312 0.7236067976726571 0.4472135949145553
    outer loop
      vertex 0.809016994322623 -0.262865556190037 -0.525731111806481
      vertex 0.309016994662373 -0.951056516051397 -5.0318074688656e-17
      vertex 0.809016993948601 -0.587785252110856 -5.0318074688656e-17
    endloop
  endfacet
  facet normal -0.5257311118878826 0.7236067977367541 0.44721359579320824
    outer loop
      vertex 0.809016994322623 -0.262865556190037 -0.525731111806481
      vertex 4.72258368754802e-10 -0.850650807868913 -0.525731111781663
      vertex 0.309016994662373 -0.951056516051397 -5.0318074688656e-17
    endloop
  endfacet
  facet normal -0.5257311115848883 0.7236067973197181 0.44721359682417766
    outer loop
      vertex 4.72258368754802e-10 -0.850650807868913 -0.525731111781663
      vertex 0.809016994322623 -0.262865556190037 -0.525731111806481
      vertex 0.309016994595524 -0.425325403591169 -0.850650807472882
    endloop
  endfacet
  facet normal -0.5773502696389107 0.7946544719116795 -0.18759247431239612
    outer loop
      vertex 0.309016994662373 -0.951056516051397 -5.0318074688656e-17
      vertex 0.500000000034655 -0.688190959933146 0.525731111518609
      vertex 0.809016993948601 -0.587785252110856 -5.0318074688656e-17
    endloop
  endfacet
  facet normal -3.1047331186009353e-10 0.6070619976183553 0.7946544727412109
    outer loop
      vertex 0.309016994595524 -0.425325403591169 -0.850650807472882
      vertex -0.309016993800095 -0.425325403778152 -0.850650807571507
      vertex 4.72258368754802e-10 -0.850650807868913 -0.525731111781663
    endloop
  endfacet
  facet normal 0.5773502691523693 0.18759247440682525 0.7946544722428807
    outer loop
      vertex -0.309016993800095 -0.425325403778152 -0.850650807571507
      vertex -0.499999999163324 0.162459847820332 -0.850650807844845
      vertex -0.809016993573684 -0.262865555889258 -0.52573111151861
    endloop
  endfacet
  facet normal 0.3568220896976465 -0.4911234732047248 0.7946544723155672
    outer loop
      vertex -0.499999999163324 0.162459847820332 -0.850650807844845
      vertex 5.07952867346328e-10 0.525731111495316 -0.850650807844845
      vertex -0.499999999151233 0.68819095963177 -0.525731111806481
    endloop
  endfacet
  facet normal -0.35682208979426744 -0.49112347313452764 0.794654472315566
    outer loop
      vertex 5.07952867346328e-10 0.525731111495316 -0.850650807844845
      vertex 0.500000000107762 0.162459847721966 -0.850650807844845
      vertex 0.500000000213218 0.688190959523144 -0.525731111806481
    endloop
  endfacet
  facet normal -0.5773502686722896 0.18759247462160683 0.7946544725409762
    outer loop
      vertex 0.500000000107762 0.162459847721966 -0.850650807844845
      vertex 0.309016994595524 -0.425325403591169 -0.850650807472882
      vertex 0.809016994322623 -0.262865556190037 -0.525731111806481
    endloop
  endfacet
  facet normal 3.7196301653800805e-10 5.11963170960267e-10 1
    outer loop
      vertex 5.07952867346328e-10 0.525731111495316 -0.850650807844845
      vertex 0.309016994595524 -0.425325403591169 -0.850650807472882
      vertex 0.500000000107762 0.162459847721966 -0.850650807844845
    endloop
  endfacet
  facet normal -1.5957859757438033e-10 3.3925483110884466e-10 1
    outer loop
      vertex 5.07952867346328e-10 0.525731111495316 -0.850650807844845
      vertex -0.309016993800095 -0.425325403778152 -0.850650807571507
      vertex 0.309016994595524 -0.425325403591169 -0.850650807472882
    endloop
  endfacet
  facet normal -2.733380191643004e-10 3.7621750784717813e-10 1
    outer loop
      vertex -0.309016993800095 -0.425325403778152 -0.850650807571507
      vertex 5.07952867346328e-10 0.525731111495316 -0.850650807844845
      vertex -0.499999999163324 0.162459847820332 -0.850650807844845
    endloop
  endfacet
  facet normal 0.35682208977600627 0.49112347259003475 -0.7946544726602809
    outer loop
      vertex -0.499999999337722 -0.162459847602835 0.850650807472882
      vertex 3.77838834530456e-10 -0.525731111684861 0.850650807571507
      vertex -0.499999999238949 -0.688190959801621 0.525731111781663
    endloop
  endfacet
  facet normal -0.3568220896759615 0.491123473126212 -0.794654472373828
    outer loop
      vertex 3.77838834530456e-10 -0.525731111684861 0.850650807571507
      vertex 0.499999999369663 -0.162459848025261 0.850650807844845
      vertex 0.500000000034655 -0.688190959933146 0.525731111518609
    endloop
  endfacet
  facet normal -0.5773502692160596 -0.18759247445759752 -0.7946544721846213
    outer loop
      vertex 0.499999999369663 -0.162459848025261 0.850650807844845
      vertex 0.309016993465788 0.425325403985038 0.850650807844845
      vertex 0.809016993175565 0.262865556004279 0.525731111806481
    endloop
  endfacet
  facet normal 5.201965955015143e-12 -0.6070619980695932 -0.794654472396496
    outer loop
      vertex 0.309016993465788 0.425325403985038 0.850650807844845
      vertex -0.309016994654752 0.425325403979742 0.850650807844845
      vertex -9.30417372827394e-10 0.850650808055857 0.525731111806481
    endloop
  endfacet
  facet normal 0.5773502692325324 -0.18759247289735342 -0.7946544725409768
    outer loop
      vertex -0.309016994654752 0.425325403979742 0.850650807844845
      vertex -0.499999999337722 -0.162459847602835 0.850650807472882
      vertex -0.809016994119956 0.26286555597381 0.525731111806481
    endloop
  endfacet
  facet normal 4.4227020561205146e-10 1.4370230113911475e-10 -1
    outer loop
      vertex 3.77838834530456e-10 -0.525731111684861 0.850650807571507
      vertex 0.309016993465788 0.425325403985038 0.850650807844845
      vertex 0.499999999369663 -0.162459848025261 0.850650807844845
    endloop
  endfacet
  facet normal -2.462812720389186e-21 2.8740460149622883e-10 -1
    outer loop
      vertex 3.77838834530456e-10 -0.525731111684861 0.850650807571507
      vertex -0.309016994654752 0.425325403979742 0.850650807844845
      vertex 0.309016993465788 0.425325403985038 0.850650807844845
    endloop
  endfacet
  facet normal 5.315416144551344e-10 4.6011294188299983e-10 -1
    outer loop
      vertex -0.309016994654752 0.425325403979742 0.850650807844845
      vertex 3.77838834530456e-10 -0.525731111684861 0.850650807571507
      vertex -0.499999999337722 -0.162459847602835 0.850650807472882
    endloop
  endfacet
endsolid OpenSCAD_Model
