solid OpenSCAD_Model
  facet normal 0.8164965809794611 0.4714045207557314 -0.33333333325653103
    outer loop
      vertex -0.85280286535886 -0.492365963856161 -0.174077655954376
      vertex -0.852802865425176 7.72842719272584e-11 0.522232967837057
      vertex -0.426401432718421 -0.738548945893078 0.522232967837057
    endloop
  endfacet
  facet normal -4.872892856381799e-16 0.9428090415440479 0.3333333334408576
    outer loop
      vertex 0.42640143263614 -0.246182981827753 -0.870388279721742
      vertex 0.426401432650878 -0.738548945893078 0.522232967837057
      vertex 0.852802865376052 -0.492365963842689 -0.17407765599248
    endloop
  endfacet
  facet normal 0 0.9428090415440479 0.3333333334408576
    outer loop
      vertex 0.426401432650878 -0.738548945893078 0.522232967837057
      vertex 0.42640143263614 -0.246182981827753 -0.870388279721742
      vertex -0.426401432718421 -0.738548945893078 0.522232967837057
    endloop
  endfacet
  facet normal -1.0553480017723127e-15 0.9428090415440482 0.3333333334408569
    outer loop
      vertex -0.42640143272579 -0.246182981839097 -0.870388279689659
      vertex -0.426401432718421 -0.738548945893078 0.522232967837057
      vertex 0.42640143263614 -0.246182981827753 -0.870388279721742
    endloop
  endfacet
  facet normal 1.2014214747318485e-15 0.942809041544048 0.33333333344085686
    outer loop
      vertex -0.426401432718421 -0.738548945893078 0.522232967837057
      vertex -0.42640143272579 -0.246182981839097 -0.870388279689659
      vertex -0.85280286535886 -0.492365963856161 -0.174077655954376
    endloop
  endfacet
  facet normal 0 0 -1
    outer loop
      vertex 0.426401432650878 -0.738548945893078 0.522232967837057
      vertex 0.426401432717192 0.738548945779629 0.522232967837057
      vertex 0.852802865357632 -7.58671943069022e-11 0.522232967837057
    endloop
  endfacet
  facet normal 0 0 -1
    outer loop
      vertex -0.426401432718421 -0.738548945893078 0.522232967837057
      vertex 0.426401432717192 0.738548945779629 0.522232967837057
      vertex 0.426401432650878 -0.738548945893078 0.522232967837057
    endloop
  endfacet
  facet normal 0 0 -1
    outer loop
      vertex -0.426401432718421 -0.738548945893078 0.522232967837057
      vertex -0.426401432652105 0.738548945856211 0.522232967837057
      vertex 0.426401432717192 0.738548945779629 0.522232967837057
    endloop
  endfacet
  facet normal 0 0 -1
    outer loop
      vertex -0.426401432652105 0.738548945856211 0.522232967837057
      vertex -0.426401432718421 -0.738548945893078 0.522232967837057
      vertex -0.852802865425176 7.72842719272584e-11 0.522232967837057
    endloop
  endfacet
  facet normal 0.8164965808571784 -0.471404520880637 0.33333333337941806
    outer loop
      vertex -0.852802865425176 7.72842719272584e-11 0.522232967837057
      vertex 7.6755672718703e-11 0.984731927688924 -0.174077655954376
      vertex -0.426401432652105 0.738548945856211 0.522232967837057
    endloop
  endfacet
  facet normal 0.8164965808571784 -0.4714045208806385 0.3333333333794159
    outer loop
      vertex 7.6755672718703e-11 0.984731927688924 -0.174077655954376
      vertex -0.852802865425176 7.72842719272584e-11 0.522232967837057
      vertex 6.57033762092463e-11 0.492365963825673 -0.870388279709709
    endloop
  endfacet
  facet normal 0.8164965808901002 -0.4714045207856012 0.3333333334331771
    outer loop
      vertex -0.85280286535886 -0.492365963856161 -0.174077655954376
      vertex 6.57033762092463e-11 0.492365963825673 -0.870388279709709
      vertex -0.852802865425176 7.72842719272584e-11 0.522232967837057
    endloop
  endfacet
  facet normal 0.8164965808901002 -0.4714045209838264 0.33333333315284447
    outer loop
      vertex 6.57033762092463e-11 0.492365963825673 -0.870388279709709
      vertex -0.85280286535886 -0.492365963856161 -0.174077655954376
      vertex -0.42640143272579 -0.246182981839097 -0.870388279689659
    endloop
  endfacet
  facet normal -8.466454829683659e-11 -0.9428090416146476 -0.3333333332411711
    outer loop
      vertex 7.6755672718703e-11 0.984731927688924 -0.174077655954376
      vertex 0.426401432717192 0.738548945779629 0.522232967837057
      vertex -0.426401432652105 0.738548945856211 0.522232967837057
    endloop
  endfacet
  facet normal -0.8164965809559458 -0.4714045207543729 0.33333333331605275
    outer loop
      vertex 0.852802865357632 -7.58671943069022e-11 0.522232967837057
      vertex 7.6755672718703e-11 0.984731927688924 -0.174077655954376
      vertex 6.57033762092463e-11 0.492365963825673 -0.870388279709709
    endloop
  endfacet
  facet normal -0.8164965809559457 -0.4714045207421581 0.3333333333333272
    outer loop
      vertex 7.6755672718703e-11 0.984731927688924 -0.174077655954376
      vertex 0.852802865357632 -7.58671943069022e-11 0.522232967837057
      vertex 0.426401432717192 0.738548945779629 0.522232967837057
    endloop
  endfacet
  facet normal -0.8164965809191042 -0.4714045207779053 0.3333333333730162
    outer loop
      vertex 0.852802865376052 -0.492365963842689 -0.17407765599248
      vertex 6.57033762092463e-11 0.492365963825673 -0.870388279709709
      vertex 0.42640143263614 -0.246182981827753 -0.870388279721742
    endloop
  endfacet
  facet normal -0.8164965809191042 -0.4714045208607256 0.33333333325589054
    outer loop
      vertex 6.57033762092463e-11 0.492365963825673 -0.870388279709709
      vertex 0.852802865376052 -0.492365963842689 -0.17407765599248
      vertex 0.852802865357632 -7.58671943069022e-11 0.522232967837057
    endloop
  endfacet
  facet normal -0.8164965809316465 0.47140452082587875 -0.333333333274449
    outer loop
      vertex 0.852802865376052 -0.492365963842689 -0.17407765599248
      vertex 0.426401432650878 -0.738548945893078 0.522232967837057
      vertex 0.852802865357632 -7.58671943069022e-11 0.522232967837057
    endloop
  endfacet
  facet normal 3.7620655633392175e-11 5.427480805180401e-12 1
    outer loop
      vertex 0.42640143263614 -0.246182981827753 -0.870388279721742
      vertex 6.57033762092463e-11 0.492365963825673 -0.870388279709709
      vertex -0.42640143272579 -0.246182981839097 -0.870388279689659
    endloop
  endfacet
endsolid OpenSCAD_Model
