solid OpenSCAD_Model
  facet normal -1.3155954581179081e-17 0.8164965809248899 -0.5773502691936367
    outer loop
      vertex 0.316227765947335 -0.912870929177671 0.258198889718987
      vertex -0.316227766033447 -0.547722557493928 0.774596669227207
      vertex 0.316227765969194 -0.547722557493928 0.774596669227207
    endloop
  endfacet
  facet normal 3.5259957200979856e-16 0.8164965809248901 -0.5773502691936364
    outer loop
      vertex -0.316227766033447 -0.547722557493928 0.774596669227207
      vertex 0.316227765947335 -0.912870929177671 0.258198889718987
      vertex -0.316227766005051 -0.912870929173897 0.258198889724324
    endloop
  endfacet
  facet normal 0 0 -1
    outer loop
      vertex 0.316227765969194 -0.547722557493928 0.774596669227207
      vertex 0.316227766018374 0.547722557472113 0.774596669227207
      vertex 0.632455531986908 -2.51041444991564e-11 0.774596669227207
    endloop
  endfacet
  facet normal 0 0 -1
    outer loop
      vertex -0.316227766033447 -0.547722557493928 0.774596669227207
      vertex 0.316227766018374 0.547722557472113 0.774596669227207
      vertex 0.316227765969194 -0.547722557493928 0.774596669227207
    endloop
  endfacet
  facet normal 0 0 -1
    outer loop
      vertex -0.316227766033447 -0.547722557493928 0.774596669227207
      vertex -0.316227765984265 0.547722557528908 0.774596669227207
      vertex 0.316227766018374 0.547722557472113 0.774596669227207
    endloop
  endfacet
  facet normal 0 0 -1
    outer loop
      vertex -0.316227765984265 0.547722557528908 0.774596669227207
      vertex -0.316227766033447 -0.547722557493928 0.774596669227207
      vertex -0.632455532051161 8.84760227205742e-11 0.774596669227207
    endloop
  endfacet
  facet normal 0.8164965809766266 0.4714045207540947 -0.33333333326578857
    outer loop
      vertex -0.316227766033447 -0.547722557493928 0.774596669227207
      vertex -0.94868329799312 0.182574185939382 0.258198889767454
      vertex -0.632455532051161 8.84760227205742e-11 0.774596669227207
    endloop
  endfacet
  facet normal 0.8164965809766267 0.4714045207540921 -0.33333333326579234
    outer loop
      vertex -0.94868329799312 0.182574185939382 0.258198889767454
      vertex -0.316227766033447 -0.547722557493928 0.774596669227207
      vertex -0.948683298001156 -0.182574185657507 -0.25819888970717
    endloop
  endfacet
  facet normal 0.8164965809766256 0.4714045207540952 -0.3333333332657906
    outer loop
      vertex -0.316227766005051 -0.912870929173897 0.258198889724324
      vertex -0.948683298001156 -0.182574185657507 -0.25819888970717
      vertex -0.316227766033447 -0.547722557493928 0.774596669227207
    endloop
  endfacet
  facet normal 0.8164965809766256 0.47140452075409384 -0.33333333326579234
    outer loop
      vertex -0.948683298001156 -0.182574185657507 -0.25819888970717
      vertex -0.316227766005051 -0.912870929173897 0.258198889724324
      vertex -0.632455532033534 -0.730296743186802 -0.258198889754762
    endloop
  endfacet
  facet normal 0.7071067811586357 -0.4082482906194132 -0.5773502691138201
    outer loop
      vertex -0.316227765984265 0.547722557528908 0.774596669227207
      vertex -0.94868329799312 0.182574185939382 0.258198889767454
      vertex -0.632455531936404 0.730296743344301 0.258198889724324
    endloop
  endfacet
  facet normal 0.7071067811586357 -0.4082482905606226 -0.5773502691553913
    outer loop
      vertex -0.94868329799312 0.182574185939382 0.258198889767454
      vertex -0.316227765984265 0.547722557528908 0.774596669227207
      vertex -0.632455532051161 8.84760227205742e-11 0.774596669227207
    endloop
  endfacet
  facet normal -8.466202753221435e-11 -0.942809041611375 -0.3333333332504275
    outer loop
      vertex -0.316227765853114 0.912870929112367 -0.258198889805333
      vertex -0.316227765984265 0.547722557528908 0.774596669227207
      vertex -0.632455531936404 0.730296743344301 0.258198889724324
    endloop
  endfacet
  facet normal -8.466500677823954e-11 -0.9428090416113749 -0.3333333332504275
    outer loop
      vertex -0.316227765984265 0.547722557528908 0.774596669227207
      vertex -0.316227765853114 0.912870929112367 -0.258198889805333
      vertex 0.316227766018374 0.547722557472113 0.774596669227207
    endloop
  endfacet
  facet normal -8.465651723064344e-11 -0.9428090416113732 -0.33333333325043213
    outer loop
      vertex 0.316227766149526 0.912870929027182 -0.258198889725018
      vertex 0.316227766018374 0.547722557472113 0.774596669227207
      vertex -0.316227765853114 0.912870929112367 -0.258198889805333
    endloop
  endfacet
  facet normal -8.464879916034115e-11 -0.9428090416113734 -0.33333333325043213
    outer loop
      vertex 0.316227766018374 0.547722557472113 0.774596669227207
      vertex 0.316227766149526 0.912870929027182 -0.258198889725018
      vertex 0.632455532077077 0.730296743207058 0.258198889791251
    endloop
  endfacet
  facet normal -0.707106781257408 -0.408248290300176 -0.577350269218584
    outer loop
      vertex 0.948683297943437 0.182574185782679 0.258198889724324
      vertex 0.316227766018374 0.547722557472113 0.774596669227207
      vertex 0.632455532077077 0.730296743207058 0.258198889791251
    endloop
  endfacet
  facet normal -0.707106781257408 -0.40824829044833905 -0.5773502691138169
    outer loop
      vertex 0.316227766018374 0.547722557472113 0.774596669227207
      vertex 0.948683297943437 0.182574185782679 0.258198889724324
      vertex 0.632455531986908 -2.51041444991564e-11 0.774596669227207
    endloop
  endfacet
  facet normal -0.8164965809390007 0.47140452083012624 -0.33333333325042813
    outer loop
      vertex 0.316227765969194 -0.547722557493928 0.774596669227207
      vertex 0.948683297943437 0.182574185782679 0.258198889724324
      vertex 0.948683297874057 -0.182574185911486 -0.258198889805333
    endloop
  endfacet
  facet normal -0.8164965809390007 0.47140452083012546 -0.3333333332504291
    outer loop
      vertex 0.948683297943437 0.182574185782679 0.258198889724324
      vertex 0.316227765969194 -0.547722557493928 0.774596669227207
      vertex 0.632455531986908 -2.51041444991564e-11 0.774596669227207
    endloop
  endfacet
  facet normal -0.8164965809606273 0.4714045208426091 -0.33333333317980085
    outer loop
      vertex 0.316227765947335 -0.912870929177671 0.258198889718987
      vertex 0.948683297874057 -0.182574185911486 -0.258198889805333
      vertex 0.632455531831754 -0.730296743366111 -0.258198889725018
    endloop
  endfacet
  facet normal -0.8164965809606273 0.47140452076769596 -0.33333333328574405
    outer loop
      vertex 0.948683297874057 -0.182574185911486 -0.258198889805333
      vertex 0.316227765947335 -0.912870929177671 0.258198889718987
      vertex 0.316227765969194 -0.547722557493928 0.774596669227207
    endloop
  endfacet
  facet normal 9.193897080188835e-11 0.9428090415676433 0.33333333337411925
    outer loop
      vertex 0.316227765956774 -0.547722557466957 -0.774596669242334
      vertex 0.316227765947335 -0.912870929177671 0.258198889718987
      vertex 0.632455531831754 -0.730296743366111 -0.258198889725018
    endloop
  endfacet
  facet normal 8.43874016056424e-12 0.9428090415676433 0.33333333337411925
    outer loop
      vertex 0.316227765947335 -0.912870929177671 0.258198889718987
      vertex 0.316227765956774 -0.547722557466957 -0.774596669242334
      vertex -0.316227766005051 -0.912870929173897 0.258198889724324
    endloop
  endfacet
  facet normal 2.0143339507626822e-10 0.9428090415305015 0.3333333334791722
    outer loop
      vertex -0.316227766015963 -0.547722557331156 -0.774596669244244
      vertex -0.316227766005051 -0.912870929173897 0.258198889724324
      vertex 0.316227765956774 -0.547722557466957 -0.774596669242334
    endloop
  endfacet
  facet normal 2.0143174712746406e-10 0.9428090415305015 0.3333333334791722
    outer loop
      vertex -0.316227766005051 -0.912870929173897 0.258198889724324
      vertex -0.316227766015963 -0.547722557331156 -0.774596669244244
      vertex -0.632455532033534 -0.730296743186802 -0.258198889754762
    endloop
  endfacet
  facet normal 0.8164965808542035 -0.4714045208680611 0.3333333334044903
    outer loop
      vertex -0.94868329799312 0.182574185939382 0.258198889767454
      vertex -0.316227765853114 0.912870929112367 -0.258198889805333
      vertex -0.632455531936404 0.730296743344301 0.258198889724324
    endloop
  endfacet
  facet normal 0.8164965808542035 -0.4714045208006159 0.3333333334998721
    outer loop
      vertex -0.316227765853114 0.912870929112367 -0.258198889805333
      vertex -0.94868329799312 0.182574185939382 0.258198889767454
      vertex -0.316227765808325 0.54772255737629 -0.774596669255154
    endloop
  endfacet
  facet normal 0.8164965807925322 -0.47140452097864544 0.3333333333991634
    outer loop
      vertex -0.948683298001156 -0.182574185657507 -0.25819888970717
      vertex -0.316227765808325 0.54772255737629 -0.774596669255154
      vertex -0.94868329799312 0.182574185939382 0.258198889767454
    endloop
  endfacet
  facet normal 0.8164965807925322 -0.4714045212056346 0.3333333330781521
    outer loop
      vertex -0.316227765808325 0.54772255737629 -0.774596669255154
      vertex -0.948683298001156 -0.182574185657507 -0.25819888970717
      vertex -0.632455532011979 1.89993949176238e-10 -0.774596669156118
    endloop
  endfacet
  facet normal -0.8164965809992207 -0.4714045207088733 0.33333333327439707
    outer loop
      vertex 0.948683297943437 0.182574185782679 0.258198889724324
      vertex 0.316227766149526 0.912870929027182 -0.258198889725018
      vertex 0.316227766206314 0.547722557316959 -0.77459666913827
    endloop
  endfacet
  facet normal -0.8164965809992207 -0.4714045207182508 0.33333333326113546
    outer loop
      vertex 0.316227766149526 0.912870929027182 -0.258198889725018
      vertex 0.948683297943437 0.182574185782679 0.258198889724324
      vertex 0.632455532077077 0.730296743207058 0.258198889791251
    endloop
  endfacet
  facet normal -0.8164965810290749 -0.47140452031525776 0.33333333375792645
    outer loop
      vertex 0.948683297874057 -0.182574185911486 -0.258198889805333
      vertex 0.316227766206314 0.547722557316959 -0.77459666913827
      vertex 0.632455531766769 -1.01164525958735e-10 -0.774596669255154
    endloop
  endfacet
  facet normal -0.8164965810290749 -0.4714045206226921 0.33333333332314863
    outer loop
      vertex 0.316227766206314 0.547722557316959 -0.77459666913827
      vertex 0.948683297874057 -0.182574185911486 -0.258198889805333
      vertex 0.948683297943437 0.182574185782679 0.258198889724324
    endloop
  endfacet
  facet normal 0.7071067812343057 0.40824829035974863 0.5773502692047543
    outer loop
      vertex -0.948683298001156 -0.182574185657507 -0.25819888970717
      vertex -0.316227766015963 -0.547722557331156 -0.774596669244244
      vertex -0.632455532011979 1.89993949176238e-10 -0.774596669156118
    endloop
  endfacet
  facet normal 0.7071067812343057 0.4082482903597475 0.5773502692047549
    outer loop
      vertex -0.316227766015963 -0.547722557331156 -0.774596669244244
      vertex -0.948683298001156 -0.182574185657507 -0.25819888970717
      vertex -0.632455532033534 -0.730296743186802 -0.258198889754762
    endloop
  endfacet
  facet normal -1.832905063602678e-10 -0.8164965808551036 0.5773502692923296
    outer loop
      vertex -0.316227765808325 0.54772255737629 -0.774596669255154
      vertex 0.316227766149526 0.912870929027182 -0.258198889725018
      vertex -0.316227765853114 0.912870929112367 -0.258198889805333
    endloop
  endfacet
  facet normal -1.8329616750694836e-10 -0.8164965808551002 0.5773502692923342
    outer loop
      vertex 0.316227766149526 0.912870929027182 -0.258198889725018
      vertex -0.316227765808325 0.54772255737629 -0.774596669255154
      vertex 0.316227766206314 0.547722557316959 -0.77459666913827
    endloop
  endfacet
  facet normal -0.7071067811884497 0.4082482903153248 0.5773502692923284
    outer loop
      vertex 0.316227765956774 -0.547722557466957 -0.774596669242334
      vertex 0.948683297874057 -0.182574185911486 -0.258198889805333
      vertex 0.632455531766769 -1.01164525958735e-10 -0.774596669255154
    endloop
  endfacet
  facet normal -0.7071067811884498 0.40824829062016726 0.5773502690767722
    outer loop
      vertex 0.948683297874057 -0.182574185911486 -0.258198889805333
      vertex 0.316227765956774 -0.547722557466957 -0.774596669242334
      vertex 0.632455531831754 -0.730296743366111 -0.258198889725018
    endloop
  endfacet
  facet normal 2.0508024656557604e-10 -9.499698186830707e-11 1
    outer loop
      vertex 0.316227766206314 0.547722557316959 -0.77459666913827
      vertex 0.316227765956774 -0.547722557466957 -0.774596669242334
      vertex 0.632455531766769 -1.01164525958735e-10 -0.774596669255154
    endloop
  endfacet
  facet normal -1.848099227170052e-10 -9.499698177949095e-11 1
    outer loop
      vertex -0.316227765808325 0.54772255737629 -0.774596669255154
      vertex 0.316227765956774 -0.547722557466957 -0.774596669242334
      vertex 0.316227766206314 0.547722557316959 -0.77459666913827
    endloop
  endfacet
  facet normal -3.020018947822163e-12 9.959468069041236e-12 1
    outer loop
      vertex -0.316227765808325 0.54772255737629 -0.774596669255154
      vertex -0.316227766015963 -0.547722557331156 -0.774596669244244
      vertex 0.316227765956774 -0.547722557466957 -0.774596669242334
    endloop
  endfacet
  facet normal 2.9592903070230085e-10 9.959468012376443e-12 1
    outer loop
      vertex -0.316227766015963 -0.547722557331156 -0.774596669244244
      vertex -0.316227765808325 0.54772255737629 -0.774596669255154
      vertex -0.632455532011979 1.89993949176238e-10 -0.774596669156118
    endloop
  endfacet
endsolid OpenSCAD_Model
