solid OpenSCAD_Model
  facet normal 0.7071067812341675 0.7071067811389276 -3.0247803631747694e-11
    outer loop
      vertex 2.9112322051577e-11 -0.959682982271901 0.281084637676466
      vertex -0.678598344534399 -0.281084637599985 0.678598344501277
      vertex -0.281084637676955 -0.67859834451097 0.678598344501277
    endloop
  endfacet
  facet normal 0.707106781234168 0.7071067811389269 -3.024601368915556e-11
    outer loop
      vertex 2.9112322051577e-11 -0.959682982271901 0.281084637676466
      vertex -0.959682982200235 8.67072156820045e-11 0.281084637724779
      vertex -0.678598344534399 -0.281084637599985 0.678598344501277
    endloop
  endfacet
  facet normal 0.707106781234168 0.7071067811389271 -3.0247948957535854e-11
    outer loop
      vertex -8.84625905130681e-11 -0.959682982178374 -0.281084637736992
      vertex -0.959682982200235 8.67072156820045e-11 0.281084637724779
      vertex 2.9112322051577e-11 -0.959682982271901 0.281084637676466
    endloop
  endfacet
  facet normal 0.7071067812341675 0.7071067811389274 -3.024984914163667e-11
    outer loop
      vertex -8.84625905130681e-11 -0.959682982178374 -0.281084637736992
      vertex -0.959682982269494 1.31916808637721e-10 -0.281084637627745
      vertex -0.959682982200235 8.67072156820045e-11 0.281084637724779
    endloop
  endfacet
  facet normal 0.7071067812341676 0.7071067811389276 -3.02499680971386e-11
    outer loop
      vertex -0.281084637844167 -0.678598344401816 -0.678598344472571
      vertex -0.959682982269494 1.31916808637721e-10 -0.281084637627745
      vertex -8.84625905130681e-11 -0.959682982178374 -0.281084637736992
    endloop
  endfacet
  facet normal 0.7071067812341677 0.7071067811389274 -3.0249815378807654e-11
    outer loop
      vertex -0.959682982269494 1.31916808637721e-10 -0.281084637627745
      vertex -0.281084637844167 -0.678598344401816 -0.678598344472571
      vertex -0.678598344636981 -0.281084637555461 -0.678598344427317
    endloop
  endfacet
  facet normal 0 0.8164965808788227 -0.5773502692587855
    outer loop
      vertex 0.281084637706036 -0.67859834451097 0.678598344501277
      vertex 2.9112322051577e-11 -0.959682982271901 0.281084637676466
      vertex -0.281084637676955 -0.67859834451097 0.678598344501277
    endloop
  endfacet
  facet normal 0 0 -1
    outer loop
      vertex 0.281084637706036 -0.67859834451097 0.678598344501277
      vertex 0.678598344538241 0.281084637661137 0.678598344501277
      vertex 0.678598344513 -0.281084637721852 0.678598344501277
    endloop
  endfacet
  facet normal 0 0 -1
    outer loop
      vertex 0.281084637706036 -0.67859834451097 0.678598344501277
      vertex 0.28108463776697 0.67859834448595 0.678598344501277
      vertex 0.678598344538241 0.281084637661137 0.678598344501277
    endloop
  endfacet
  facet normal 0 0 -1
    outer loop
      vertex -0.281084637676955 -0.67859834451097 0.678598344501277
      vertex 0.28108463776697 0.67859834448595 0.678598344501277
      vertex 0.281084637706036 -0.67859834451097 0.678598344501277
    endloop
  endfacet
  facet normal 0 0 -1
    outer loop
      vertex -0.281084637676955 -0.67859834451097 0.678598344501277
      vertex -0.281084637616022 0.678598344536432 0.678598344501277
      vertex 0.28108463776697 0.67859834448595 0.678598344501277
    endloop
  endfacet
  facet normal 0 0 -1
    outer loop
      vertex -0.678598344534399 -0.281084637599985 0.678598344501277
      vertex -0.281084637616022 0.678598344536432 0.678598344501277
      vertex -0.281084637676955 -0.67859834451097 0.678598344501277
    endloop
  endfacet
  facet normal 0 0 -1
    outer loop
      vertex -0.281084637616022 0.678598344536432 0.678598344501277
      vertex -0.678598344534399 -0.281084637599985 0.678598344501277
      vertex -0.67859834445868 0.281084637783004 0.678598344501277
    endloop
  endfacet
  facet normal 0.8164965809011636 -1.0997465203007896e-10 -0.5773502692271907
    outer loop
      vertex -0.959682982200235 8.67072156820045e-11 0.281084637724779
      vertex -0.67859834445868 0.281084637783004 0.678598344501277
      vertex -0.678598344534399 -0.281084637599985 0.678598344501277
    endloop
  endfacet
  facet normal 0.7071067810937185 -0.7071067812793768 7.77075611930931e-11
    outer loop
      vertex -0.959682982200235 8.67072156820045e-11 0.281084637724779
      vertex 1.15285529304974e-10 0.959682982150253 0.281084637676465
      vertex -0.281084637616022 0.678598344536432 0.678598344501277
    endloop
  endfacet
  facet normal 0.7071067810937184 -0.7071067812793765 9.673276862033331e-11
    outer loop
      vertex 1.15285529304974e-10 0.959682982150253 0.281084637676465
      vertex -0.959682982200235 8.67072156820045e-11 0.281084637724779
      vertex 1.66359728149617e-10 0.959682982124422 -0.281084637688679
    endloop
  endfacet
  facet normal 0.7071067811071853 -0.7071067812659098 3.1728856773153965e-11
    outer loop
      vertex -0.959682982200235 8.67072156820045e-11 0.281084637724779
      vertex -0.281084637616022 0.678598344536432 0.678598344501277
      vertex -0.67859834445868 0.281084637783004 0.678598344501277
    endloop
  endfacet
  facet normal 0.7071067810232151 -0.7071067813498799 -1.4398074071910274e-10
    outer loop
      vertex -0.959682982269494 1.31916808637721e-10 -0.281084637627745
      vertex 1.66359728149617e-10 0.959682982124422 -0.281084637688679
      vertex -0.959682982200235 8.67072156820045e-11 0.281084637724779
    endloop
  endfacet
  facet normal 0.7071067811071808 -0.7071067812659142 5.021675125979794e-10
    outer loop
      vertex -0.281084637523184 0.67859834444359 -0.678598344495643
      vertex -0.959682982269494 1.31916808637721e-10 -0.281084637627745
      vertex -0.678598344365842 0.281084637690167 -0.678598344520884
    endloop
  endfacet
  facet normal 0.7071067810232151 -0.70710678134988 2.1549033605942658e-10
    outer loop
      vertex 1.66359728149617e-10 0.959682982124422 -0.281084637688679
      vertex -0.959682982269494 1.31916808637721e-10 -0.281084637627745
      vertex -0.281084637523184 0.67859834444359 -0.678598344495643
    endloop
  endfacet
  facet normal -7.332013518498895e-11 -0.8164965809968253 -0.5773502690919047
    outer loop
      vertex 1.15285529304974e-10 0.959682982150253 0.281084637676465
      vertex 0.28108463776697 0.67859834448595 0.678598344501277
      vertex -0.281084637616022 0.678598344536432 0.678598344501277
    endloop
  endfacet
  facet normal -0.7071067812341685 -0.7071067811389266 4.490011913583614e-11
    outer loop
      vertex 1.15285529304974e-10 0.959682982150253 0.281084637676465
      vertex 0.678598344538241 0.281084637661137 0.678598344501277
      vertex 0.28108463776697 0.67859834448595 0.678598344501277
    endloop
  endfacet
  facet normal -0.7071067812449034 -0.7071067811281916 8.155172942834398e-11
    outer loop
      vertex 1.15285529304974e-10 0.959682982150253 0.281084637676465
      vertex 0.959682982164683 -5.75454622751848e-11 0.281084637676465
      vertex 0.678598344538241 0.281084637661137 0.678598344501277
    endloop
  endfacet
  facet normal -0.7071067812449036 -0.7071067811281916 -3.1751351485063336e-11
    outer loop
      vertex 1.66359728149617e-10 0.959682982124422 -0.281084637688679
      vertex 0.959682982164683 -5.75454622751848e-11 0.281084637676465
      vertex 1.15285529304974e-10 0.959682982150253 0.281084637676465
    endloop
  endfacet
  facet normal -0.7071067812825377 -0.7071067810905575 9.673961668852505e-11
    outer loop
      vertex 1.66359728149617e-10 0.959682982124422 -0.281084637688679
      vertex 0.959682982138851 -1.08624154879395e-10 -0.281084637688679
      vertex 0.959682982164683 -5.75454622751848e-11 0.281084637676465
    endloop
  endfacet
  facet normal -0.7071067812825376 -0.7071067810905574 2.6188208211884846e-10
    outer loop
      vertex 0.281084637674132 0.678598344393113 -0.678598344520884
      vertex 0.959682982138851 -1.08624154879395e-10 -0.281084637688679
      vertex 1.66359728149617e-10 0.959682982124422 -0.281084637688679
    endloop
  endfacet
  facet normal -0.7071067812341665 -0.7071067811389286 9.673266668180766e-11
    outer loop
      vertex 0.959682982138851 -1.08624154879395e-10 -0.281084637688679
      vertex 0.281084637674132 0.678598344393113 -0.678598344520884
      vertex 0.678598344445405 0.2810846375683 -0.678598344495643
    endloop
  endfacet
  facet normal -0.8164965809968249 3.665999286011574e-11 -0.5773502690919052
    outer loop
      vertex 0.959682982164683 -5.75454622751848e-11 0.281084637676465
      vertex 0.678598344513 -0.281084637721852 0.678598344501277
      vertex 0.678598344538241 0.281084637661137 0.678598344501277
    endloop
  endfacet
  facet normal -0.7071067811285 0.7071067812445949 1.9635507061989654e-10
    outer loop
      vertex -8.84625905130681e-11 -0.959682982178374 -0.281084637736992
      vertex 0.959682982138851 -1.08624154879395e-10 -0.281084637688679
      vertex 0.678598344386394 -0.281084637704547 -0.678598344547525
    endloop
  endfacet
  facet normal -0.7071067811285 0.7071067812445949 -3.175574700495647e-11
    outer loop
      vertex 0.959682982138851 -1.08624154879395e-10 -0.281084637688679
      vertex -8.84625905130681e-11 -0.959682982178374 -0.281084637736992
      vertex 0.959682982164683 -5.75454622751848e-11 0.281084637676465
    endloop
  endfacet
  facet normal -0.7071067811082393 0.7071067812648557 2.6552971696326685e-10
    outer loop
      vertex -8.84625905130681e-11 -0.959682982178374 -0.281084637736992
      vertex 0.678598344386394 -0.281084637704547 -0.678598344547525
      vertex 0.281084637569952 -0.678598344432944 -0.67859834454183
    endloop
  endfacet
  facet normal -0.7071067812155725 0.7071067811575227 2.655277955141126e-10
    outer loop
      vertex 2.9112322051577e-11 -0.959682982271901 0.281084637676466
      vertex 0.959682982164683 -5.75454622751848e-11 0.281084637676465
      vertex -8.84625905130681e-11 -0.959682982178374 -0.281084637736992
    endloop
  endfacet
  facet normal -0.7071067812155725 0.7071067811575228 -1.8592108106566275e-11
    outer loop
      vertex 0.959682982164683 -5.75454622751848e-11 0.281084637676465
      vertex 2.9112322051577e-11 -0.959682982271901 0.281084637676466
      vertex 0.678598344513 -0.281084637721852 0.678598344501277
    endloop
  endfacet
  facet normal -0.707106781170675 0.70710678120242 -1.7188114867324064e-10
    outer loop
      vertex 0.678598344513 -0.281084637721852 0.678598344501277
      vertex 2.9112322051577e-11 -0.959682982271901 0.281084637676466
      vertex 0.281084637706036 -0.67859834451097 0.678598344501277
    endloop
  endfacet
  facet normal 1.163397336094086e-10 0.816496580841377 0.5773502693117418
    outer loop
      vertex 0.281084637569952 -0.678598344432944 -0.67859834454183
      vertex -0.281084637844167 -0.678598344401816 -0.678598344472571
      vertex -8.84625905130681e-11 -0.959682982178374 -0.281084637736992
    endloop
  endfacet
  facet normal 0.8164965808866489 -2.9770956997870723e-10 0.5773502692477175
    outer loop
      vertex -0.678598344636981 -0.281084637555461 -0.678598344427317
      vertex -0.678598344365842 0.281084637690167 -0.678598344520884
      vertex -0.959682982269494 1.31916808637721e-10 -0.281084637627745
    endloop
  endfacet
  facet normal -4.739053083711071e-11 -0.8164965809283639 0.5773502691887237
    outer loop
      vertex -0.281084637523184 0.67859834444359 -0.678598344495643
      vertex 0.281084637674132 0.678598344393113 -0.678598344520884
      vertex 1.66359728149617e-10 0.959682982124422 -0.281084637688679
    endloop
  endfacet
  facet normal -0.8164965809211389 3.2424825778521625e-11 0.5773502691989414
    outer loop
      vertex 0.678598344445405 0.2810846375683 -0.678598344495643
      vertex 0.678598344386394 -0.281084637704547 -0.678598344547525
      vertex 0.959682982138851 -1.08624154879395e-10 -0.281084637688679
    endloop
  endfacet
  facet normal -1.5578580879386407e-10 -9.228882733174422e-11 1
    outer loop
      vertex 0.281084637674132 0.678598344393113 -0.678598344520884
      vertex 0.678598344386394 -0.281084637704547 -0.678598344547525
      vertex 0.678598344445405 0.2810846375683 -0.678598344495643
    endloop
  endfacet
  facet normal 2.975984936619199e-11 -1.5433299292314594e-11 1
    outer loop
      vertex 0.281084637674132 0.678598344393113 -0.678598344520884
      vertex 0.281084637569952 -0.678598344432944 -0.67859834454183
      vertex 0.678598344386394 -0.281084637704547 -0.678598344547525
    endloop
  endfacet
  facet normal 4.489914617837232e-11 -1.5433299293476705e-11 1
    outer loop
      vertex -0.281084637523184 0.67859834444359 -0.678598344495643
      vertex 0.281084637569952 -0.678598344432944 -0.67859834454183
      vertex 0.281084637674132 0.678598344393113 -0.678598344520884
    endloop
  endfacet
  facet normal 1.2319962327130208e-10 1.6999820244426474e-11 1
    outer loop
      vertex -0.281084637523184 0.67859834444359 -0.678598344495643
      vertex -0.281084637844167 -0.678598344401816 -0.678598344472571
      vertex 0.281084637569952 -0.678598344432944 -0.67859834454183
    endloop
  endfacet
  facet normal -8.049680172707246e-11 1.699982029260157e-11 1
    outer loop
      vertex -0.678598344365842 0.281084637690167 -0.678598344520884
      vertex -0.281084637844167 -0.678598344401816 -0.678598344472571
      vertex -0.281084637523184 0.67859834444359 -0.678598344495643
    endloop
  endfacet
  facet normal 2.802814642453918e-10 1.6643907097781492e-10 1
    outer loop
      vertex -0.281084637844167 -0.678598344401816 -0.678598344472571
      vertex -0.678598344365842 0.281084637690167 -0.678598344520884
      vertex -0.678598344636981 -0.281084637555461 -0.678598344427317
    endloop
  endfacet
endsolid OpenSCAD_Model
