solid OpenSCAD_Model
  facet normal 0 0 -1
    outer loop
      vertex 0.201774106087527 -0.277718231936888 0.939233620314849
      vertex -3.89470741676131e-11 0.343278612830653 0.939233620314849
      vertex 0.326477361756153 0.10607892501969 0.939233620314849
    endloop
  endfacet
  facet normal 0 0 -1
    outer loop
      vertex -0.20177410622707 -0.277718231936888 0.939233620314849
      vertex -3.89470741676131e-11 0.343278612830653 0.939233620314849
      vertex 0.201774106087527 -0.277718231936888 0.939233620314849
    endloop
  endfacet
  facet normal 0 0 -1
    outer loop
      vertex -3.89470741676131e-11 0.343278612830653 0.939233620314849
      vertex -0.20177410622707 -0.277718231936888 0.939233620314849
      vertex -0.326477361876644 0.106078925078321 0.939233620314849
    endloop
  endfacet
  facet normal 0.5773502693460133 0.1875924741015025 -0.7946544721742671
    outer loop
      vertex -0.730025574160217 -0.449357538345818 0.514917919286488
      vertex -0.20177410622707 -0.277718231936888 0.939233620314849
      vertex -0.403548212363448 -0.555436463676171 0.727075769798174
    endloop
  endfacet
  facet normal 0.5773502693460131 0.1875924741015035 -0.7946544721742671
    outer loop
      vertex -0.20177410622707 -0.277718231936888 0.939233620314849
      vertex -0.730025574160217 -0.449357538345818 0.514917919286488
      vertex -0.326477361876644 0.106078925078321 0.939233620314849
    endloop
  endfacet
  facet normal 0.5773502693460132 0.1875924741015033 -0.794654472174267
    outer loop
      vertex -0.85472882977189 -0.0655603813582432 0.514917919307501
      vertex -0.326477361876644 0.106078925078321 0.939233620314849
      vertex -0.730025574160217 -0.449357538345818 0.514917919286488
    endloop
  endfacet
  facet normal 0.5773502693460094 0.1875924741015147 -0.7946544721742671
    outer loop
      vertex -0.326477361876644 0.106078925078321 0.939233620314849
      vertex -0.85472882977189 -0.0655603813582432 0.514917919307501
      vertex -0.652954723630076 0.212157850328361 0.727075769815693
    endloop
  endfacet
  facet normal -1.564136199392458e-16 0.6070619983131154 -0.7946544722104616
    outer loop
      vertex 0.201774106061412 -0.833154695379511 0.514917919308958
      vertex 0.201774106087527 -0.277718231936888 0.939233620314849
      vertex 0.403548212244862 -0.555436463673805 0.727075769799982
    endloop
  endfacet
  facet normal 3.3040505277725026e-15 0.6070619983131151 -0.7946544722104616
    outer loop
      vertex -0.201774106240127 -0.833154695371105 0.514917919315378
      vertex 0.201774106087527 -0.277718231936888 0.939233620314849
      vertex 0.201774106061412 -0.833154695379511 0.514917919308958
    endloop
  endfacet
  facet normal 9.50275949936111e-18 0.6070619983131167 -0.7946544722104604
    outer loop
      vertex -0.201774106240127 -0.833154695371105 0.514917919315378
      vertex -0.20177410622707 -0.277718231936888 0.939233620314849
      vertex 0.201774106087527 -0.277718231936888 0.939233620314849
    endloop
  endfacet
  facet normal -1.2838780199800198e-15 0.6070619983131167 -0.7946544722104605
    outer loop
      vertex -0.20177410622707 -0.277718231936888 0.939233620314849
      vertex -0.201774106240127 -0.833154695371105 0.514917919315378
      vertex -0.403548212363448 -0.555436463676171 0.727075769798174
    endloop
  endfacet
  facet normal 0.5257311122981491 0.7236067977740154 -0.44721359525062093
    outer loop
      vertex -0.201774106240127 -0.833154695371105 0.514917919315378
      vertex -0.730025574160217 -0.449357538345818 0.514917919286488
      vertex -0.403548212363448 -0.555436463676171 0.727075769798174
    endloop
  endfacet
  facet normal 0.5257311123219408 0.723606797806762 -0.44721359516966713
    outer loop
      vertex -0.403548212367073 -0.898715076468814 0.171639306278702
      vertex -0.730025574160217 -0.449357538345818 0.514917919286488
      vertex -0.201774106240127 -0.833154695371105 0.514917919315378
    endloop
  endfacet
  facet normal 0.5257311123842275 0.7236067978019843 -0.44721359510417497
    outer loop
      vertex -0.730025574160217 -0.449357538345818 0.514917919286488
      vertex -0.403548212367073 -0.898715076468814 0.171639306278702
      vertex -0.730025574149623 -0.661515388594251 0.171639306288395
    endloop
  endfacet
  facet normal 1.748230832194184e-11 0.9822469464734597 -0.18759247357920397
    outer loop
      vertex 0.201774106083402 -0.964275457588597 -0.171639306798353
      vertex 0.201774106061412 -0.833154695379511 0.514917919308958
      vertex 0.403548212268813 -0.898715076492999 0.17163930622727
    endloop
  endfacet
  facet normal 1.7476180493726248e-11 0.9822469464734597 -0.18759247357920397
    outer loop
      vertex 0.201774106061412 -0.833154695379511 0.514917919308958
      vertex 0.201774106083402 -0.964275457588597 -0.171639306798353
      vertex -0.201774106240127 -0.833154695371105 0.514917919315378
    endloop
  endfacet
  facet normal 1.746811796736192e-11 0.9822469464734589 -0.18759247357920855
    outer loop
      vertex -0.201774106237624 -0.964275457577153 -0.171639306776009
      vertex -0.201774106240127 -0.833154695371105 0.514917919315378
      vertex 0.201774106083402 -0.964275457588597 -0.171639306798353
    endloop
  endfacet
  facet normal 1.7490114642599935e-11 0.9822469464734588 -0.18759247357920852
    outer loop
      vertex -0.201774106240127 -0.833154695371105 0.514917919315378
      vertex -0.201774106237624 -0.964275457577153 -0.171639306776009
      vertex -0.403548212367073 -0.898715076468814 0.171639306278702
    endloop
  endfacet
  facet normal -0.5257311121304935 0.7236067978311532 -0.4472135953552612
    outer loop
      vertex 0.730025574068716 -0.449357538423256 0.514917919312917
      vertex 0.201774106061412 -0.833154695379511 0.514917919308958
      vertex 0.403548212244862 -0.555436463673805 0.727075769799982
    endloop
  endfacet
  facet normal -0.5257311119816536 0.7236067979094043 -0.44721359540361993
    outer loop
      vertex 0.403548212268813 -0.898715076492999 0.17163930622727
      vertex 0.730025574068716 -0.449357538423256 0.514917919312917
      vertex 0.730025574018547 -0.661515388848083 0.171639306254828
    endloop
  endfacet
  facet normal -0.5257311121764885 0.7236067978944599 -0.4472135951987584
    outer loop
      vertex 0.730025574068716 -0.449357538423256 0.514917919312917
      vertex 0.403548212268813 -0.898715076492999 0.17163930622727
      vertex 0.201774106061412 -0.833154695379511 0.514917919308958
    endloop
  endfacet
  facet normal -0.5773502692329089 0.18759247416136238 -0.7946544722423112
    outer loop
      vertex 0.326477361756153 0.10607892501969 0.939233620314849
      vertex 0.854728829713239 -0.0655603814794469 0.514917919346391
      vertex 0.730025574068716 -0.449357538423256 0.514917919312917
    endloop
  endfacet
  facet normal -0.577350269249212 0.18759247416666602 -0.7946544722292143
    outer loop
      vertex 0.201774106087527 -0.277718231936888 0.939233620314849
      vertex 0.730025574068716 -0.449357538423256 0.514917919312917
      vertex 0.403548212244862 -0.555436463673805 0.727075769799982
    endloop
  endfacet
  facet normal -0.5773502692213586 0.18759247419691027 -0.7946544722423112
    outer loop
      vertex 0.854728829713239 -0.0655603814794469 0.514917919346391
      vertex 0.326477361756153 0.10607892501969 0.939233620314849
      vertex 0.652954723593999 0.212157850257486 0.727075769833585
    endloop
  endfacet
  facet normal -0.577350269260761 0.18759247413112135 -0.7946544722292144
    outer loop
      vertex 0.730025574068716 -0.449357538423256 0.514917919312917
      vertex 0.201774106087527 -0.277718231936888 0.939233620314849
      vertex 0.326477361756153 0.10607892501969 0.939233620314849
    endloop
  endfacet
  facet normal 0.35682208978930197 -0.49112347332202533 -0.7946544722019158
    outer loop
      vertex -0.326477361622138 0.792636151074558 0.514917919378207
      vertex -3.89470741676131e-11 0.343278612830653 0.939233620314849
      vertex -0.326477361876644 0.106078925078321 0.939233620314849
    endloop
  endfacet
  facet normal 0.35682208981767827 -0.4911234733014087 -0.7946544722019155
    outer loop
      vertex -3.89470741676131e-11 0.343278612830653 0.939233620314849
      vertex -0.326477361622138 0.792636151074558 0.514917919378207
      vertex 1.17898390591217e-10 0.686557225768726 0.727075769905832
    endloop
  endfacet
  facet normal 0.3568220898082153 -0.49112347331822476 -0.7946544721957718
    outer loop
      vertex -0.652954723515089 0.555436463312334 0.514917919350608
      vertex -0.326477361876644 0.106078925078321 0.939233620314849
      vertex -0.652954723630076 0.212157850328361 0.727075769815693
    endloop
  endfacet
  facet normal 0.3568220898082107 -0.4911234733182282 -0.7946544721957719
    outer loop
      vertex -0.326477361876644 0.106078925078321 0.939233620314849
      vertex -0.652954723515089 0.555436463312334 0.514917919350608
      vertex -0.326477361622138 0.792636151074558 0.514917919378207
    endloop
  endfacet
  facet normal 0.8506508084324769 -0.27639320241612736 -0.4472135952442984
    outer loop
      vertex -0.979432085311308 0.106078925162967 0.171639306221544
      vertex -0.652954723515089 0.555436463312334 0.514917919350608
      vertex -0.652954723630076 0.212157850328361 0.727075769815693
    endloop
  endfacet
  facet normal 0.8506508084324783 -0.2763932024161325 -0.4472135952442927
    outer loop
      vertex -0.652954723515089 0.555436463312334 0.514917919350608
      vertex -0.979432085311308 0.106078925162967 0.171639306221544
      vertex -0.854728829571266 0.489876082096341 0.171639306280591
    endloop
  endfacet
  facet normal 0.8506508084324775 -0.2763932024161234 -0.44721359524429943
    outer loop
      vertex -0.979432085311308 0.106078925162967 0.171639306221544
      vertex -0.652954723630076 0.212157850328361 0.727075769815693
      vertex -0.85472882977189 -0.0655603813582432 0.514917919307501
    endloop
  endfacet
  facet normal 0.9341723590494604 0.30353099901575825 -0.187592473794824
    outer loop
      vertex -0.730025574160217 -0.449357538345818 0.514917919286488
      vertex -0.979432085311308 0.106078925162967 0.171639306221544
      vertex -0.85472882977189 -0.0655603813582432 0.514917919307501
    endloop
  endfacet
  facet normal 0.9341723590494605 0.30353099939861744 -0.18759247317534475
    outer loop
      vertex -0.979432085311308 0.106078925162967 0.171639306221544
      vertex -0.730025574160217 -0.449357538345818 0.514917919286488
      vertex -0.979432085052371 -0.106078924717697 -0.171639306574695
    endloop
  endfacet
  facet normal 0.93417235920555 0.3035309986526679 -0.18759247360502232
    outer loop
      vertex -0.730025574149623 -0.661515388594251 0.171639306288395
      vertex -0.979432085052371 -0.106078924717697 -0.171639306574695
      vertex -0.730025574160217 -0.449357538345818 0.514917919286488
    endloop
  endfacet
  facet normal 0.93417235920555 0.30353099865266014 -0.18759247360503495
    outer loop
      vertex -0.979432085052371 -0.106078924717697 -0.171639306574695
      vertex -0.730025574149623 -0.661515388594251 0.171639306288395
      vertex -0.85472882958466 -0.489876081786449 -0.17163930659733
    endloop
  endfacet
  facet normal 0.5773502694910257 0.794654471937266 0.18759247465915305
    outer loop
      vertex -0.85472882958466 -0.489876081786449 -0.17163930659733
      vertex -0.403548212367073 -0.898715076468814 0.171639306278702
      vertex -0.201774106237624 -0.964275457577153 -0.171639306776009
    endloop
  endfacet
  facet normal 0.5773502692570739 0.7946544720132814 0.18759247505717555
    outer loop
      vertex -0.403548212367073 -0.898715076468814 0.171639306278702
      vertex -0.85472882958466 -0.489876081786449 -0.17163930659733
      vertex -0.730025574149623 -0.661515388594251 0.171639306288395
    endloop
  endfacet
  facet normal 0.5773502691974979 0.7946544719312839 0.18759247558787978
    outer loop
      vertex -0.652954723223501 -0.555436462849297 -0.514917919551311
      vertex -0.201774106237624 -0.964275457577153 -0.171639306776009
      vertex -0.326477361426697 -0.792636150723244 -0.514917919607481
    endloop
  endfacet
  facet normal 0.5773502694314506 0.7946544718552679 0.18759247518985547
    outer loop
      vertex -0.201774106237624 -0.964275457577153 -0.171639306776009
      vertex -0.652954723223501 -0.555436462849297 -0.514917919551311
      vertex -0.85472882958466 -0.489876081786449 -0.17163930659733
    endloop
  endfacet
  facet normal 5.014025139093565e-11 0.8944271907039094 0.447213596091971
    outer loop
      vertex -1.54817060451608e-10 -0.686557225478389 -0.727075770077051
      vertex 0.201774106083402 -0.964275457588597 -0.171639306798353
      vertex 0.326477361711021 -0.792636150856427 -0.514917919708642
    endloop
  endfacet
  facet normal 5.012615771573923e-11 0.8944271907039073 0.44721359609197503
    outer loop
      vertex 0.201774106083402 -0.964275457588597 -0.171639306798353
      vertex -1.54817060451608e-10 -0.686557225478389 -0.727075770077051
      vertex -0.201774106237624 -0.964275457577153 -0.171639306776009
    endloop
  endfacet
  facet normal 5.778969286603528e-10 0.8944271906272176 0.44721359624535434
    outer loop
      vertex -0.201774106237624 -0.964275457577153 -0.171639306776009
      vertex -1.54817060451608e-10 -0.686557225478389 -0.727075770077051
      vertex -0.326477361426697 -0.792636150723244 -0.514917919607481
    endloop
  endfacet
  facet normal -0.5773502689266412 0.7946544722338281 0.1875924751398923
    outer loop
      vertex 0.854728829682936 -0.489876081943927 -0.17163930660327
      vertex 0.403548212268813 -0.898715076492999 0.17163930622727
      vertex 0.730025574018547 -0.661515388848083 0.171639306254828
    endloop
  endfacet
  facet normal -0.5773502692369602 0.7946544721329994 0.1875924746119463
    outer loop
      vertex 0.854728829682936 -0.489876081943927 -0.17163930660327
      vertex 0.201774106083402 -0.964275457588597 -0.171639306798353
      vertex 0.403548212268813 -0.898715076492999 0.17163930622727
    endloop
  endfacet
  facet normal -0.5773502692369606 0.7946544721330002 0.187592474611941
    outer loop
      vertex 0.652954723486627 -0.555436463048275 -0.514917919625378
      vertex 0.201774106083402 -0.964275457588597 -0.171639306798353
      vertex 0.854728829682936 -0.489876081943927 -0.17163930660327
    endloop
  endfacet
  facet normal -0.5773502692369619 0.7946544721329999 0.1875924746119392
    outer loop
      vertex 0.201774106083402 -0.964275457588597 -0.171639306798353
      vertex 0.652954723486627 -0.555436463048275 -0.514917919625378
      vertex 0.326477361711021 -0.792636150856427 -0.514917919708642
    endloop
  endfacet
  facet normal -0.9341723589958677 0.30353099911900483 -0.18759247389464892
    outer loop
      vertex 0.730025574068716 -0.449357538423256 0.514917919312917
      vertex 0.979432085299315 0.106078925033169 0.171639306326942
      vertex 0.979432085244691 -0.106078925403328 -0.171639306753596
    endloop
  endfacet
  facet normal -0.9341723589958677 0.3035309991190059 -0.18759247389464703
    outer loop
      vertex 0.979432085299315 0.106078925033169 0.171639306326942
      vertex 0.730025574068716 -0.449357538423256 0.514917919312917
      vertex 0.854728829713239 -0.0655603814794469 0.514917919346391
    endloop
  endfacet
  facet normal -0.9341723589983337 0.30353099914739406 -0.18759247383643346
    outer loop
      vertex 0.730025574018547 -0.661515388848083 0.171639306254828
      vertex 0.979432085244691 -0.106078925403328 -0.171639306753596
      vertex 0.854728829682936 -0.489876081943927 -0.17163930660327
    endloop
  endfacet
  facet normal -0.9341723589983336 0.3035309991072194 -0.1875924739014374
    outer loop
      vertex 0.979432085244691 -0.106078925403328 -0.171639306753596
      vertex 0.730025574018547 -0.661515388848083 0.171639306254828
      vertex 0.730025574068716 -0.449357538423256 0.514917919312917
    endloop
  endfacet
  facet normal -0.850650808430385 -0.27639320224565633 -0.44721359535363464
    outer loop
      vertex 0.979432085299315 0.106078925033169 0.171639306326942
      vertex 0.652954723552974 0.55543646330509 0.514917919371225
      vertex 0.854728829656685 0.489876081989954 0.17163930633195
    endloop
  endfacet
  facet normal -0.8506508084303823 -0.2763932022456457 -0.4472135953536461
    outer loop
      vertex 0.652954723552974 0.55543646330509 0.514917919371225
      vertex 0.979432085299315 0.106078925033169 0.171639306326942
      vertex 0.652954723593999 0.212157850257486 0.727075769833585
    endloop
  endfacet
  facet normal -0.8506508084303817 -0.27639320224564884 -0.44721359535364513
    outer loop
      vertex 0.652954723593999 0.212157850257486 0.727075769833585
      vertex 0.979432085299315 0.106078925033169 0.171639306326942
      vertex 0.854728829713239 -0.0655603814794469 0.514917919346391
    endloop
  endfacet
  facet normal -0.35682208978570384 -0.49112347319667576 -0.7946544722810015
    outer loop
      vertex 0.326477361756153 0.10607892501969 0.939233620314849
      vertex 0.652954723552974 0.55543646330509 0.514917919371225
      vertex 0.652954723593999 0.212157850257486 0.727075769833585
    endloop
  endfacet
  facet normal -0.3568220897868001 -0.49112347319587946 -0.7946544722810017
    outer loop
      vertex 0.326477361756153 0.10607892501969 0.939233620314849
      vertex 0.326477361682522 0.792636151095918 0.514917919398767
      vertex 0.652954723552974 0.55543646330509 0.514917919371225
    endloop
  endfacet
  facet normal -0.35682208982660024 -0.491123473187887 -0.7946544722680697
    outer loop
      vertex -3.89470741676131e-11 0.343278612830653 0.939233620314849
      vertex 0.326477361682522 0.792636151095918 0.514917919398767
      vertex 0.326477361756153 0.10607892501969 0.939233620314849
    endloop
  endfacet
  facet normal -0.35682209006286997 -0.49112347301622716 -0.7946544722680698
    outer loop
      vertex 0.326477361682522 0.792636151095918 0.514917919398767
      vertex -3.89470741676131e-11 0.343278612830653 0.939233620314849
      vertex 1.17898390591217e-10 0.686557225768726 0.727075769905832
    endloop
  endfacet
  facet normal 0.5773502689454809 -0.794654472525754 -0.18759247384529257
    outer loop
      vertex -0.201774105738622 0.964275457420161 0.171639306544471
      vertex -0.652954723515089 0.555436463312334 0.514917919350608
      vertex -0.854728829571266 0.489876082096341 0.171639306280591
    endloop
  endfacet
  facet normal 0.5773502691279487 -0.7946544724664664 -0.18759247353485967
    outer loop
      vertex -0.652954723515089 0.555436463312334 0.514917919350608
      vertex -0.201774105738622 0.964275457420161 0.171639306544471
      vertex -0.326477361622138 0.792636151074558 0.514917919378207
    endloop
  endfacet
  facet normal 0.5773502689454847 -0.7946544725257506 -0.18759247384529418
    outer loop
      vertex -0.403548211761438 0.898715076237441 -0.171639306563799
      vertex -0.854728829571266 0.489876082096341 0.171639306280591
      vertex -0.730025573705507 0.661515388550539 -0.171639306675279
    endloop
  endfacet
  facet normal 0.5773502689454797 -0.7946544725257524 -0.18759247384530284
    outer loop
      vertex -0.854728829571266 0.489876082096341 0.171639306280591
      vertex -0.403548211761438 0.898715076237441 -0.171639306563799
      vertex -0.201774105738622 0.964275457420161 0.171639306544471
    endloop
  endfacet
  facet normal 0.934172358797729 -0.30353099930787486 0.18759247457574027
    outer loop
      vertex -0.979432085311308 0.106078925162967 0.171639306221544
      vertex -0.730025573705507 0.661515388550539 -0.171639306675279
      vertex -0.854728829571266 0.489876082096341 0.171639306280591
    endloop
  endfacet
  facet normal 0.9341723587977291 -0.3035309993078781 0.18759247457573522
    outer loop
      vertex -0.730025573705507 0.661515388550539 -0.171639306675279
      vertex -0.979432085311308 0.106078925162967 0.171639306221544
      vertex -0.730025573569353 0.449357538108192 -0.514917919682593
    endloop
  endfacet
  facet normal 0.9341723587894633 -0.3035309993473803 0.18759247455298136
    outer loop
      vertex -0.979432085052371 -0.106078924717697 -0.171639306574695
      vertex -0.730025573569353 0.449357538108192 -0.514917919682593
      vertex -0.979432085311308 0.106078925162967 0.171639306221544
    endloop
  endfacet
  facet normal 0.9341723587894633 -0.3035309993051898 0.18759247462124695
    outer loop
      vertex -0.730025573569353 0.449357538108192 -0.514917919682593
      vertex -0.979432085052371 -0.106078924717697 -0.171639306574695
      vertex -0.854728829306902 0.0655603811702307 -0.514917919761479
    endloop
  endfacet
  facet normal 0.8506508078829607 0.2763932036464215 0.4472135955291766
    outer loop
      vertex -0.979432085052371 -0.106078924717697 -0.171639306574695
      vertex -0.652954723095754 -0.212157849655463 -0.727075769786536
      vertex -0.854728829306902 0.0655603811702307 -0.514917919761479
    endloop
  endfacet
  facet normal 0.8506508081475632 0.276393201664897 0.4472135962505225
    outer loop
      vertex -0.652954723223501 -0.555436462849297 -0.514917919551311
      vertex -0.979432085052371 -0.106078924717697 -0.171639306574695
      vertex -0.85472882958466 -0.489876081786449 -0.17163930659733
    endloop
  endfacet
  facet normal 0.8506508081916185 0.27639320184680805 0.4472135960542968
    outer loop
      vertex -0.979432085052371 -0.106078924717697 -0.171639306574695
      vertex -0.652954723223501 -0.555436462849297 -0.514917919551311
      vertex -0.652954723095754 -0.212157849655463 -0.727075769786536
    endloop
  endfacet
  facet normal 0.35682208960963885 0.4911234725732366 0.7946544727453665
    outer loop
      vertex -0.326477361426697 -0.792636150723244 -0.514917919607481
      vertex 5.77092674146339e-10 -0.343278612189686 -0.939233620124582
      vertex -0.326477361205215 -0.106078924360503 -0.939233620047254
    endloop
  endfacet
  facet normal 0.3568220912588475 0.49112347137501644 0.7946544727453664
    outer loop
      vertex 5.77092674146339e-10 -0.343278612189686 -0.939233620124582
      vertex -0.326477361426697 -0.792636150723244 -0.514917919607481
      vertex -1.54817060451608e-10 -0.686557225478389 -0.727075770077051
    endloop
  endfacet
  facet normal 0.3568220896096371 0.49112347257323585 0.7946544727453676
    outer loop
      vertex -0.652954723223501 -0.555436462849297 -0.514917919551311
      vertex -0.326477361205215 -0.106078924360503 -0.939233620047254
      vertex -0.652954723095754 -0.212157849655463 -0.727075769786536
    endloop
  endfacet
  facet normal 0.35682208960963524 0.4911234725732373 0.7946544727453676
    outer loop
      vertex -0.326477361205215 -0.106078924360503 -0.939233620047254
      vertex -0.652954723223501 -0.555436462849297 -0.514917919551311
      vertex -0.326477361426697 -0.792636150723244 -0.514917919607481
    endloop
  endfacet
  facet normal -0.3568220895740095 0.49112347253778654 0.7946544727832742
    outer loop
      vertex 0.326477361419852 -0.106078924523425 -0.939233620110454
      vertex 0.652954723486627 -0.555436463048275 -0.514917919625378
      vertex 0.652954723350554 -0.21215784988928 -0.727075769817376
    endloop
  endfacet
  facet normal -0.35682208957401557 0.4911234725377824 0.7946544727832742
    outer loop
      vertex 0.326477361419852 -0.106078924523425 -0.939233620110454
      vertex 0.326477361711021 -0.792636150856427 -0.514917919708642
      vertex 0.652954723486627 -0.555436463048275 -0.514917919625378
    endloop
  endfacet
  facet normal -0.3568220901306306 0.4911234724260076 0.7946544726024191
    outer loop
      vertex 5.77092674146339e-10 -0.343278612189686 -0.939233620124582
      vertex 0.326477361711021 -0.792636150856427 -0.514917919708642
      vertex 0.326477361419852 -0.106078924523425 -0.939233620110454
    endloop
  endfacet
  facet normal -0.3568220896045301 0.491123472808242 0.794654472602419
    outer loop
      vertex 0.326477361711021 -0.792636150856427 -0.514917919708642
      vertex 5.77092674146339e-10 -0.343278612189686 -0.939233620124582
      vertex -1.54817060451608e-10 -0.686557225478389 -0.727075770077051
    endloop
  endfacet
  facet normal -0.8506508082210467 0.2763932010936743 0.4472135964637832
    outer loop
      vertex 0.652954723350554 -0.21215784988928 -0.727075769817376
      vertex 0.979432085244691 -0.106078925403328 -0.171639306753596
      vertex 0.854728829449528 0.0655603817660366 -0.514917919224013
    endloop
  endfacet
  facet normal -0.8506508080819407 0.2763932019047244 0.4472135962271221
    outer loop
      vertex 0.652954723486627 -0.555436463048275 -0.514917919625378
      vertex 0.979432085244691 -0.106078925403328 -0.171639306753596
      vertex 0.652954723350554 -0.21215784988928 -0.727075769817376
    endloop
  endfacet
  facet normal -0.8506508082210446 0.2763932024791043 0.44721359560754453
    outer loop
      vertex 0.979432085244691 -0.106078925403328 -0.171639306753596
      vertex 0.652954723486627 -0.555436463048275 -0.514917919625378
      vertex 0.854728829682936 -0.489876081943927 -0.17163930660327
    endloop
  endfacet
  facet normal -0.9341723589170732 -0.30353099906461517 0.18759247437503332
    outer loop
      vertex 0.979432085299315 0.106078925033169 0.171639306326942
      vertex 0.730025573915219 0.661515388445459 -0.171639306672047
      vertex 0.730025573817213 0.449357537928101 -0.514917919702912
    endloop
  endfacet
  facet normal -0.9341723589170732 -0.3035309990646207 0.1875924743750244
    outer loop
      vertex 0.730025573915219 0.661515388445459 -0.171639306672047
      vertex 0.979432085299315 0.106078925033169 0.171639306326942
      vertex 0.854728829656685 0.489876081989954 0.17163930633195
    endloop
  endfacet
  facet normal -0.9341723588790979 -0.3035309994191656 0.187592473990468
    outer loop
      vertex 0.979432085244691 -0.106078925403328 -0.171639306753596
      vertex 0.730025573817213 0.449357537928101 -0.514917919702912
      vertex 0.854728829449528 0.0655603817660366 -0.514917919224013
    endloop
  endfacet
  facet normal -0.9341723588790979 -0.30353099924609855 0.1875924742704963
    outer loop
      vertex 0.730025573817213 0.449357537928101 -0.514917919702912
      vertex 0.979432085244691 -0.106078925403328 -0.171639306753596
      vertex 0.979432085299315 0.106078925033169 0.171639306326942
    endloop
  endfacet
  facet normal -0.5773502691618179 -0.7946544723625373 -0.18759247387087244
    outer loop
      vertex 0.201774105980605 0.964275457529265 0.171639306366918
      vertex 0.652954723552974 0.55543646330509 0.514917919371225
      vertex 0.326477361682522 0.792636151095918 0.514917919398767
    endloop
  endfacet
  facet normal -0.5773502691618215 -0.7946544723625362 -0.18759247387086614
    outer loop
      vertex 0.201774105980605 0.964275457529265 0.171639306366918
      vertex 0.854728829656685 0.489876081989954 0.17163930633195
      vertex 0.652954723552974 0.55543646330509 0.514917919371225
    endloop
  endfacet
  facet normal -0.5773502691618209 -0.7946544723625352 -0.1875924738708721
    outer loop
      vertex 0.403548212097805 0.898715076202506 -0.171639306664625
      vertex 0.854728829656685 0.489876081989954 0.17163930633195
      vertex 0.201774105980605 0.964275457529265 0.171639306366918
    endloop
  endfacet
  facet normal -0.5773502691618244 -0.794654472362534 -0.18759247387086594
    outer loop
      vertex 0.854728829656685 0.489876081989954 0.17163930633195
      vertex 0.403548212097805 0.898715076202506 -0.171639306664625
      vertex 0.730025573915219 0.661515388445459 -0.171639306672047
    endloop
  endfacet
  facet normal -1.907520926959054e-10 -0.8944271910464716 -0.44721359540684646
    outer loop
      vertex -0.201774105738622 0.964275457420161 0.171639306544471
      vertex 1.17898390591217e-10 0.686557225768726 0.727075769905832
      vertex -0.326477361622138 0.792636151074558 0.514917919378207
    endloop
  endfacet
  facet normal 4.5054149779145006e-11 -0.894427191012207 -0.44721359547537587
    outer loop
      vertex 0.201774105980605 0.964275457529265 0.171639306366918
      vertex 1.17898390591217e-10 0.686557225768726 0.727075769905832
      vertex -0.201774105738622 0.964275457420161 0.171639306544471
    endloop
  endfacet
  facet normal 2.7637522166058905e-10 -0.8944271910458198 -0.44721359540815003
    outer loop
      vertex 1.17898390591217e-10 0.686557225768726 0.727075769905832
      vertex 0.201774105980605 0.964275457529265 0.171639306366918
      vertex 0.326477361682522 0.792636151095918 0.514917919398767
    endloop
  endfacet
  facet normal 0.5257311116480349 -0.7236067979110855 0.44721359579309167
    outer loop
      vertex -0.730025573569353 0.449357538108192 -0.514917919682593
      vertex -0.403548211761438 0.898715076237441 -0.171639306563799
      vertex -0.730025573705507 0.661515388550539 -0.171639306675279
    endloop
  endfacet
  facet normal 0.5257311115608777 -0.7236067979177707 0.4472135958847342
    outer loop
      vertex -0.730025573569353 0.449357538108192 -0.514917919682593
      vertex -0.20177410545081 0.833154694917829 -0.514917919299468
      vertex -0.403548211761438 0.898715076237441 -0.171639306563799
    endloop
  endfacet
  facet normal 0.5257311115814514 -0.723606797946088 0.4472135958147301
    outer loop
      vertex -0.20177410545081 0.833154694917829 -0.514917919299468
      vertex -0.730025573569353 0.449357538108192 -0.514917919682593
      vertex -0.403548211581499 0.55543646324225 -0.727075769904889
    endloop
  endfacet
  facet normal 0.5773502685708806 -0.1875924741830827 0.7946544727181754
    outer loop
      vertex -0.730025573569353 0.449357538108192 -0.514917919682593
      vertex -0.201774105328058 0.27771823147452 -0.939233620199811
      vertex -0.403548211581499 0.55543646324225 -0.727075769904889
    endloop
  endfacet
  facet normal 0.5773502684915586 -0.1875924744272112 0.7946544727181754
    outer loop
      vertex -0.201774105328058 0.27771823147452 -0.939233620199811
      vertex -0.730025573569353 0.449357538108192 -0.514917919682593
      vertex -0.326477361205215 -0.106078924360503 -0.939233620047254
    endloop
  endfacet
  facet normal 0.577350268682887 -0.18759247421947356 0.7946544726282073
    outer loop
      vertex -0.854728829306902 0.0655603811702307 -0.514917919761479
      vertex -0.326477361205215 -0.106078924360503 -0.939233620047254
      vertex -0.730025573569353 0.449357538108192 -0.514917919682593
    endloop
  endfacet
  facet normal 0.5773502687825975 -0.18759247391259606 0.7946544726282075
    outer loop
      vertex -0.326477361205215 -0.106078924360503 -0.939233620047254
      vertex -0.854728829306902 0.0655603811702307 -0.514917919761479
      vertex -0.652954723095754 -0.212157849655463 -0.727075769786536
    endloop
  endfacet
  facet normal 2.4692330394857377e-9 -3.458169469720126e-9 1
    outer loop
      vertex 0.201774104555957 0.277718231583414 -0.939233618475297
      vertex 5.77092674146339e-10 -0.343278612189686 -0.939233620124582
      vertex 0.326477361419852 -0.106078924523425 -0.939233620110454
    endloop
  endfacet
  facet normal -4.273378111241278e-9 -1.2673623230207834e-9 1
    outer loop
      vertex -0.201774105328058 0.27771823147452 -0.939233620199811
      vertex 5.77092674146339e-10 -0.343278612189686 -0.939233620124582
      vertex 0.201774104555957 0.277718231583414 -0.939233618475297
    endloop
  endfacet
  facet normal 4.2526143655981807e-10 2.593182123166841e-10 1
    outer loop
      vertex 5.77092674146339e-10 -0.343278612189686 -0.939233620124582
      vertex -0.201774105328058 0.27771823147452 -0.939233620199811
      vertex -0.326477361205215 -0.106078924360503 -0.939233620047254
    endloop
  endfacet
  facet normal -0.5773502693645348 -0.18759247350699532 0.7946544723011544
    outer loop
      vertex 0.326477361419852 -0.106078924523425 -0.939233620110454
      vertex 0.854728829449528 0.0655603817660366 -0.514917919224013
      vertex 0.730025573817213 0.449357537928101 -0.514917919702912
    endloop
  endfacet
  facet normal -0.5773502616904288 -0.1875924882906668 0.7946544743867674
    outer loop
      vertex 0.201774104555957 0.277718231583414 -0.939233618475297
      vertex 0.730025573817213 0.449357537928101 -0.514917919702912
      vertex 0.40354820988555 0.555436462870243 -0.727075766227282
    endloop
  endfacet
  facet normal -0.5773502689256444 -0.1875924748577614 0.7946544723011546
    outer loop
      vertex 0.854728829449528 0.0655603817660366 -0.514917919224013
      vertex 0.326477361419852 -0.106078924523425 -0.939233620110454
      vertex 0.652954723350554 -0.21215784988928 -0.727075769817376
    endloop
  endfacet
  facet normal -0.5773502649292139 -0.18759247832271123 0.7946544743867674
    outer loop
      vertex 0.730025573817213 0.449357537928101 -0.514917919702912
      vertex 0.201774104555957 0.277718231583414 -0.939233618475297
      vertex 0.326477361419852 -0.106078924523425 -0.939233620110454
    endloop
  endfacet
  facet normal -0.5257311118954225 -0.7236067977054345 0.44721359583502074
    outer loop
      vertex 0.730025573817213 0.449357537928101 -0.514917919702912
      vertex 0.403548212097805 0.898715076202506 -0.171639306664625
      vertex 0.20177410588703 0.833154694776668 -0.514917919612759
    endloop
  endfacet
  facet normal -0.5257311119950342 -0.723606797697794 0.44721359573028285
    outer loop
      vertex 0.403548212097805 0.898715076202506 -0.171639306664625
      vertex 0.730025573817213 0.449357537928101 -0.514917919702912
      vertex 0.730025573915219 0.661515388445459 -0.171639306672047
    endloop
  endfacet
  facet normal -0.5257311086392061 -0.7236067932236371 0.44721360691463263
    outer loop
      vertex 0.730025573817213 0.449357537928101 -0.514917919702912
      vertex 0.20177410588703 0.833154694776668 -0.514917919612759
      vertex 0.40354820988555 0.555436462870243 -0.727075766227282
    endloop
  endfacet
  facet normal -5.064050248993177e-10 -0.9822469463828939 0.18759247405341284
    outer loop
      vertex -0.20177410545081 0.833154694917829 -0.514917919299468
      vertex -0.201774105738622 0.964275457420161 0.171639306544471
      vertex -0.403548211761438 0.898715076237441 -0.171639306563799
    endloop
  endfacet
  facet normal 3.480990161531348e-10 -0.9822469463828938 0.1875924740534128
    outer loop
      vertex -0.201774105738622 0.964275457420161 0.171639306544471
      vertex -0.20177410545081 0.833154694917829 -0.514917919299468
      vertex 0.201774105980605 0.964275457529265 0.171639306366918
    endloop
  endfacet
  facet normal -1.979537664900852e-10 -0.9822469463237529 0.1875924743630797
    outer loop
      vertex 0.20177410588703 0.833154694776668 -0.514917919612759
      vertex 0.201774105980605 0.964275457529265 0.171639306366918
      vertex -0.20177410545081 0.833154694917829 -0.514917919299468
    endloop
  endfacet
  facet normal 2.7993410054886003e-10 -0.9822469463237528 0.1875924743630797
    outer loop
      vertex 0.201774105980605 0.964275457529265 0.171639306366918
      vertex 0.20177410588703 0.833154694776668 -0.514917919612759
      vertex 0.403548212097805 0.898715076202506 -0.171639306664625
    endloop
  endfacet
  facet normal -1.202536100733144e-8 -0.6070619965488252 0.7946544735582591
    outer loop
      vertex 0.20177410588703 0.833154694776668 -0.514917919612759
      vertex 0.201774104555957 0.277718231583414 -0.939233618475297
      vertex 0.40354820988555 0.555436462870243 -0.727075766227282
    endloop
  endfacet
  facet normal 4.0457292636231527e-10 -0.6070619965488253 0.7946544735582591
    outer loop
      vertex -0.20177410545081 0.833154694917829 -0.514917919299468
      vertex 0.201774104555957 0.277718231583414 -0.939233618475297
      vertex 0.20177410588703 0.833154694776668 -0.514917919612759
    endloop
  endfacet
  facet normal -3.232048616423317e-9 -0.6070619982172853 0.7946544722836691
    outer loop
      vertex -0.20177410545081 0.833154694917829 -0.514917919299468
      vertex -0.201774105328058 0.27771823147452 -0.939233620199811
      vertex 0.201774104555957 0.277718231583414 -0.939233618475297
    endloop
  endfacet
  facet normal -7.500486523389555e-10 -0.6070619982172853 0.7946544722836691
    outer loop
      vertex -0.201774105328058 0.27771823147452 -0.939233620199811
      vertex -0.20177410545081 0.833154694917829 -0.514917919299468
      vertex -0.403548211581499 0.55543646324225 -0.727075769904889
    endloop
  endfacet
endsolid OpenSCAD_Model
