solid OpenSCAD_Model
  facet normal 0.5257311119995463 0.7236067974760726 -0.44721359608373096
    outer loop
      vertex 3.14105600678575e-12 -0.749981803096208 0.661458459493757
      vertex -0.440828243451024 -0.320280466032294 0.838505146905327
      vertex -0.168381405777504 -0.518224680252581 0.838505146905327
    endloop
  endfacet
  facet normal 0.5257311119995476 0.7236067974760731 -0.4472135960837284
    outer loop
      vertex -1.59158428013788e-10 -0.927028490682286 0.374990901675481
      vertex -0.440828243451024 -0.320280466032294 0.838505146905327
      vertex 3.14105600678575e-12 -0.749981803096208 0.661458459493757
    endloop
  endfacet
  facet normal 0.5257311119995474 0.7236067974760733 -0.4472135960837288
    outer loop
      vertex -0.440828243451024 -0.320280466032294 0.838505146905327
      vertex -1.59158428013788e-10 -0.927028490682286 0.374990901675481
      vertex -0.713275081006155 -0.231757122497244 0.661458459495306
    endloop
  endfacet
  facet normal 0.5257311119995464 0.7236067974760728 -0.44721359608373057
    outer loop
      vertex -0.168381406024815 -0.981738926055715 0.0885233438982324
      vertex -0.713275081006155 -0.231757122497244 0.661458459495306
      vertex -1.59158428013788e-10 -0.927028490682286 0.374990901675481
    endloop
  endfacet
  facet normal 0.5257311119995471 0.7236067974760729 -0.4472135960837297
    outer loop
      vertex -0.713275081006155 -0.231757122497244 0.661458459495306
      vertex -0.168381406024815 -0.981738926055715 0.0885233438982324
      vertex -0.881656486851003 -0.286467557890956 0.3749909017097
    endloop
  endfacet
  facet normal 0.5257311119995511 0.723606797476074 -0.4472135960837227
    outer loop
      vertex -0.440828243672306 -0.893215582429856 -0.0885233434734367
      vertex -0.881656486851003 -0.286467557890956 0.3749909017097
      vertex -0.168381406024815 -0.981738926055715 0.0885233438982324
    endloop
  endfacet
  facet normal 0.5257311119995408 0.7236067974760749 -0.4472135960837337
    outer loop
      vertex -0.881656486851003 -0.286467557890956 0.3749909017097
      vertex -0.440828243672306 -0.893215582429856 -0.0885233434734367
      vertex -0.881656486945468 -0.463514245505002 0.0885233439259176
    endloop
  endfacet
  facet normal 0.5257311119995474 0.723606797476077 -0.44721359608372246
    outer loop
      vertex -0.881656486945468 -0.463514245505002 0.0885233439259176
      vertex -0.440828243672306 -0.893215582429856 -0.0885233434734367
      vertex -0.713275081253466 -0.695271368270138 -0.0885233434628624
    endloop
  endfacet
  facet normal 0 0.6070619978360186 -0.794654472574931
    outer loop
      vertex 0.168381405766327 -0.518224680252581 0.838505146905327
      vertex 3.14105600678575e-12 -0.749981803096208 0.661458459493757
      vertex -0.168381405777504 -0.518224680252581 0.838505146905327
    endloop
  endfacet
  facet normal 0 0 -1
    outer loop
      vertex 0.440828243382328 -0.320280466111461 0.838505146905327
      vertex 0.440828243411088 0.320280466619682 0.838505146905327
      vertex 0.544893675234364 2.49439149396465e-10 0.838505146905327
    endloop
  endfacet
  facet normal 0 0 -1
    outer loop
      vertex 0.168381405766327 -0.518224680252581 0.838505146905327
      vertex 0.440828243411088 0.320280466619682 0.838505146905327
      vertex 0.440828243382328 -0.320280466111461 0.838505146905327
    endloop
  endfacet
  facet normal 0 0 -1
    outer loop
      vertex 0.168381405766327 -0.518224680252581 0.838505146905327
      vertex 0.168381405812861 0.518224680785267 0.838505146905327
      vertex 0.440828243411088 0.320280466619682 0.838505146905327
    endloop
  endfacet
  facet normal 0 0 -1
    outer loop
      vertex -0.168381405777504 -0.518224680252581 0.838505146905327
      vertex 0.168381405812861 0.518224680785267 0.838505146905327
      vertex 0.168381405766327 -0.518224680252581 0.838505146905327
    endloop
  endfacet
  facet normal 0 0 -1
    outer loop
      vertex -0.168381405777504 -0.518224680252581 0.838505146905327
      vertex -0.168381405730971 0.518224680815505 0.838505146905327
      vertex 0.168381405812861 0.518224680785267 0.838505146905327
    endloop
  endfacet
  facet normal 0 0 -1
    outer loop
      vertex -0.440828243451024 -0.320280466032294 0.838505146905327
      vertex -0.168381405730971 0.518224680815505 0.838505146905327
      vertex -0.168381405777504 -0.518224680252581 0.838505146905327
    endloop
  endfacet
  facet normal 0 0 -1
    outer loop
      vertex -0.440828243451024 -0.320280466032294 0.838505146905327
      vertex -0.440828243364747 0.320280466698849 0.838505146905327
      vertex -0.168381405730971 0.518224680815505 0.838505146905327
    endloop
  endfacet
  facet normal 0 0 -1
    outer loop
      vertex -0.440828243364747 0.320280466698849 0.838505146905327
      vertex -0.440828243451024 -0.320280466032294 0.838505146905327
      vertex -0.544893675245541 3.47295688691238e-10 0.838505146905327
    endloop
  endfacet
  facet normal 0.5773502691280459 0.18759247397336598 -0.7946544723628786
    outer loop
      vertex -0.713275081006155 -0.231757122497244 0.661458459495306
      vertex -0.544893675245541 3.47295688691238e-10 0.838505146905327
      vertex -0.440828243451024 -0.320280466032294 0.838505146905327
    endloop
  endfacet
  facet normal 0.8506508084040039 -0.2763932023851246 -0.4472135953176181
    outer loop
      vertex -0.881656486558403 0.463514245629488 -0.0885233437959073
      vertex -0.544893675067447 0.749981803470068 0.374990901554712
      vertex -0.440828243307126 0.606748024539544 0.661458459436471
    endloop
  endfacet
  facet normal 0.8506508084040039 -0.27639320238512294 -0.4472135953176193
    outer loop
      vertex -0.544893675067447 0.749981803470068 0.374990901554712
      vertex -0.881656486558403 0.463514245629488 -0.0885233437959073
      vertex -0.713275080790209 0.695271368261373 0.0885233436620066
    endloop
  endfacet
  facet normal 0.8506508084040035 -0.2763932023851286 -0.44721359531761606
    outer loop
      vertex -0.985721918445628 0.143233779280019 -0.0885233438094317
      vertex -0.440828243307126 0.606748024539544 0.661458459436471
      vertex -0.440828243364747 0.320280466698849 0.838505146905327
    endloop
  endfacet
  facet normal 0.8506508084040036 -0.27639320238512616 -0.4472135953176177
    outer loop
      vertex -0.440828243307126 0.606748024539544 0.661458459436471
      vertex -0.985721918445628 0.143233779280019 -0.0885233438094317
      vertex -0.881656486558403 0.463514245629488 -0.0885233437959073
    endloop
  endfacet
  facet normal 0.8506508084040025 -0.2763932023851312 -0.4472135953176166
    outer loop
      vertex -0.985721918527097 -0.143233778580959 0.0885233436266027
      vertex -0.440828243364747 0.320280466698849 0.838505146905327
      vertex -0.544893675245541 3.47295688691238e-10 0.838505146905327
    endloop
  endfacet
  facet normal 0.8506508084040025 -0.27639320238513476 -0.44721359531761434
    outer loop
      vertex -0.440828243364747 0.320280466698849 0.838505146905327
      vertex -0.985721918527097 -0.143233778580959 0.0885233436266027
      vertex -0.985721918445628 0.143233779280019 -0.0885233438094317
    endloop
  endfacet
  facet normal 0.8506508083573816 -0.27639320183453486 -0.44721359574658237
    outer loop
      vertex -0.881656486851003 -0.286467557890956 0.3749909017097
      vertex -0.544893675245541 3.47295688691238e-10 0.838505146905327
      vertex -0.713275081006155 -0.231757122497244 0.661458459495306
    endloop
  endfacet
  facet normal 0.8506508083573815 -0.2763932026569526 -0.4472135952383002
    outer loop
      vertex -0.544893675245541 3.47295688691238e-10 0.838505146905327
      vertex -0.881656486851003 -0.286467557890956 0.3749909017097
      vertex -0.985721918527097 -0.143233778580959 0.0885233436266027
    endloop
  endfacet
  facet normal 0.35682208979798513 -0.49112347333397594 -0.7946544721906308
    outer loop
      vertex -0.440828243307126 0.606748024539544 0.661458459436471
      vertex -0.168381405730971 0.518224680815505 0.838505146905327
      vertex -0.440828243364747 0.320280466698849 0.838505146905327
    endloop
  endfacet
  facet normal -1.1400872405059129e-10 -0.8944271910910861 -0.4472135953176175
    outer loop
      vertex -0.16838140568935 0.981738925936651 -0.0885233438094317
      vertex -0.168381405730971 0.518224680815505 0.838505146905327
      vertex -0.440828243307126 0.606748024539544 0.661458459436471
    endloop
  endfacet
  facet normal -8.031088693525089e-11 -0.894427191091086 -0.4472135953176175
    outer loop
      vertex -0.168381405730971 0.518224680815505 0.838505146905327
      vertex -0.16838140568935 0.981738925936651 -0.0885233438094317
      vertex 0.168381405812861 0.518224680785267 0.838505146905327
    endloop
  endfacet
  facet normal -5.825260209104916e-10 -0.8944271910974948 -0.44721359530480004
    outer loop
      vertex -0.440828243322188 0.893215582288215 0.0885233436266027
      vertex -0.440828243307126 0.606748024539544 0.661458459436471
      vertex -0.544893675067447 0.749981803470068 0.374990901554712
    endloop
  endfacet
  facet normal -8.031309847198565e-11 -0.8944271910910865 -0.4472135953176169
    outer loop
      vertex 0.168381405854482 0.98173892589965 -0.0885233437959073
      vertex 0.168381405812861 0.518224680785267 0.838505146905327
      vertex -0.16838140568935 0.981738925936651 -0.0885233438094317
    endloop
  endfacet
  facet normal -6.990429826729981e-11 -0.8944271910974948 -0.4472135953048001
    outer loop
      vertex -0.440828243307126 0.606748024539544 0.661458459436471
      vertex -0.440828243322188 0.893215582288215 0.0885233436266027
      vertex -0.16838140568935 0.981738925936651 -0.0885233438094317
    endloop
  endfacet
  facet normal -8.031798668360693e-11 -0.8944271910910865 -0.44721359531761684
    outer loop
      vertex 0.168381405812861 0.518224680785267 0.838505146905327
      vertex 0.168381405854482 0.98173892589965 -0.0885233437959073
      vertex 0.440828243419039 0.606748024450113 0.661458459436471
    endloop
  endfacet
  facet normal -8.031130470585468e-11 -0.8944271910910854 -0.44721359531761873
    outer loop
      vertex 0.440828243453648 0.893215582191346 0.0885233436620066
      vertex 0.440828243419039 0.606748024450113 0.661458459436471
      vertex 0.168381405854482 0.98173892589965 -0.0885233437959073
    endloop
  endfacet
  facet normal -8.029191792615338e-11 -0.8944271910910855 -0.4472135953176188
    outer loop
      vertex 0.440828243419039 0.606748024450113 0.661458459436471
      vertex 0.440828243453648 0.893215582191346 0.0885233436620066
      vertex 0.54489367527844 0.749981803308651 0.374990901554712
    endloop
  endfacet
  facet normal -0.35682208988618785 -0.49112347326989564 -0.7946544721906291
    outer loop
      vertex 0.440828243419039 0.606748024450113 0.661458459436471
      vertex 0.440828243411088 0.320280466619682 0.838505146905327
      vertex 0.168381405812861 0.518224680785267 0.838505146905327
    endloop
  endfacet
  facet normal -0.8506508085002986 -0.27639320242502935 -0.4472135951097919
    outer loop
      vertex 0.8816564866369 0.46351424547324 -0.0885233438094317
      vertex 0.54489367527844 0.749981803308651 0.374990901554712
      vertex 0.713275080915236 0.69527136815565 0.0885233436266027
    endloop
  endfacet
  facet normal -0.8506508085002986 -0.2763932019889798 -0.4472135953792855
    outer loop
      vertex 0.54489367527844 0.749981803308651 0.374990901554712
      vertex 0.8816564866369 0.46351424547324 -0.0885233438094317
      vertex 0.440828243419039 0.606748024450113 0.661458459436471
    endloop
  endfacet
  facet normal -0.8506508084582953 -0.2763932022338775 -0.4472135953078254
    outer loop
      vertex 0.985721918453744 0.143233779100909 -0.0885233437959073
      vertex 0.440828243419039 0.606748024450113 0.661458459436471
      vertex 0.8816564866369 0.46351424547324 -0.0885233438094317
    endloop
  endfacet
  facet normal -0.8506508084582954 -0.27639320220521585 -0.4472135953255393
    outer loop
      vertex 0.440828243419039 0.606748024450113 0.661458459436471
      vertex 0.985721918453744 0.143233779100909 -0.0885233437959073
      vertex 0.440828243411088 0.320280466619682 0.838505146905327
    endloop
  endfacet
  facet normal -0.8506508084536396 -0.27639320223236086 -0.4472135953176185
    outer loop
      vertex 0.985721918467868 -0.143233778746549 0.0885233436620066
      vertex 0.440828243411088 0.320280466619682 0.838505146905327
      vertex 0.985721918453744 0.143233779100909 -0.0885233437959073
    endloop
  endfacet
  facet normal -0.8506508084536396 -0.2763932022323655 -0.44721359531761556
    outer loop
      vertex 0.440828243411088 0.320280466619682 0.838505146905327
      vertex 0.985721918467868 -0.143233778746549 0.0885233436620066
      vertex 0.544893675234364 2.49439149396465e-10 0.838505146905327
    endloop
  endfacet
  facet normal -0.850650808453638 -0.27639320223237496 -0.4472135953176127
    outer loop
      vertex 0.881656486673876 -0.286467557651621 0.374990901554712
      vertex 0.544893675234364 2.49439149396465e-10 0.838505146905327
      vertex 0.985721918467868 -0.143233778746549 0.0885233436620066
    endloop
  endfacet
  facet normal -0.850650808453638 -0.2763932022323601 -0.447213595317622
    outer loop
      vertex 0.544893675234364 2.49439149396465e-10 0.838505146905327
      vertex 0.881656486673876 -0.286467557651621 0.374990901554712
      vertex 0.713275080963397 -0.231757122402544 0.661458459436471
    endloop
  endfacet
  facet normal -0.5773502693087967 0.1875924741467283 -0.7946544721906301
    outer loop
      vertex 0.713275080963397 -0.231757122402544 0.661458459436471
      vertex 0.440828243382328 -0.320280466111461 0.838505146905327
      vertex 0.544893675234364 2.49439149396465e-10 0.838505146905327
    endloop
  endfacet
  facet normal -0.5257311122380163 0.7236067975967331 -0.44721359560816004
    outer loop
      vertex -1.59158428013788e-10 -0.927028490682286 0.374990901675481
      vertex 0.440828243382328 -0.320280466111461 0.838505146905327
      vertex 0.713275080963397 -0.231757122402544 0.661458459436471
    endloop
  endfacet
  facet normal -0.5257311122834024 0.7236067975932519 -0.4472135955604382
    outer loop
      vertex 3.14105600678575e-12 -0.749981803096208 0.661458459493757
      vertex 0.440828243382328 -0.320280466111461 0.838505146905327
      vertex -1.59158428013788e-10 -0.927028490682286 0.374990901675481
    endloop
  endfacet
  facet normal -0.5257311124041351 0.7236067975029463 -0.44721359556462614
    outer loop
      vertex 0.168381405568627 -0.981738926169827 0.088523343770404
      vertex 0.713275080963397 -0.231757122402544 0.661458459436471
      vertex 0.881656486673876 -0.286467557651621 0.374990901554712
    endloop
  endfacet
  facet normal -0.5257311118933256 0.7236067974665081 -0.4472135962240763
    outer loop
      vertex 0.440828243382328 -0.320280466111461 0.838505146905327
      vertex 3.14105600678575e-12 -0.749981803096208 0.661458459493757
      vertex 0.168381405766327 -0.518224680252581 0.838505146905327
    endloop
  endfacet
  facet normal -0.52573111011228 0.7236067974618706 -0.4472135983253245
    outer loop
      vertex 0.440828243210057 -0.893215582747639 -0.0885233437124271
      vertex 0.881656486673876 -0.286467557651621 0.374990901554712
      vertex 0.881656486971356 -0.463514246231955 0.0885233434102832
    endloop
  endfacet
  facet normal -0.5257311120362224 0.7236067975311663 -0.44721359595147225
    outer loop
      vertex 0.713275080963397 -0.231757122402544 0.661458459436471
      vertex 0.168381405568627 -0.981738926169827 0.088523343770404
      vertex -1.59158428013788e-10 -0.927028490682286 0.374990901675481
    endloop
  endfacet
  facet normal -0.525731111608554 0.7236067979480396 -0.44721359577971137
    outer loop
      vertex 0.440828243210057 -0.893215582747639 -0.0885233437124271
      vertex 0.881656486971356 -0.463514246231955 0.0885233434102832
      vertex 0.713275080984933 -0.695271368825191 -0.0885233438663951
    endloop
  endfacet
  facet normal -0.525731111864156 0.7236067973274964 -0.44721359648329323
    outer loop
      vertex 0.881656486673876 -0.286467557651621 0.374990901554712
      vertex 0.440828243210057 -0.893215582747639 -0.0885233437124271
      vertex 0.168381405568627 -0.981738926169827 0.088523343770404
    endloop
  endfacet
  facet normal 2.6162796682044016e-10 0.9822469462379056 -0.18759247481258143
    outer loop
      vertex 0.168381405568627 -0.981738926169827 0.088523343770404
      vertex -0.168381406024815 -0.981738926055715 0.0885233438982324
      vertex -1.59158428013788e-10 -0.927028490682286 0.374990901675481
    endloop
  endfacet
  facet normal 8.74252834329223e-10 0.8944271911068671 0.4472135952860558
    outer loop
      vertex 0.168381405670488 -0.518224681103971 -0.838505146915555
      vertex 0.168381405568627 -0.981738926169827 0.088523343770404
      vertex 0.440828243210057 -0.893215582747639 -0.0885233437124271
    endloop
  endfacet
  facet normal 4.728298859335735e-10 0.894427191106867 0.44721359528605575
    outer loop
      vertex 0.168381405568627 -0.981738926169827 0.088523343770404
      vertex 0.168381405670488 -0.518224681103971 -0.838505146915555
      vertex -0.168381406024815 -0.981738926055715 0.0885233438982324
    endloop
  endfacet
  facet normal 8.742533046320685e-10 0.8944271911068675 0.4472135952860548
    outer loop
      vertex 0.440828243280414 -0.606748024992877 -0.661458459564496
      vertex 0.440828243210057 -0.893215582747639 -0.0885233437124271
      vertex 0.544893675080063 -0.749981803988471 -0.374990901605472
    endloop
  endfacet
  facet normal 8.742544487098727e-10 0.8944271910485365 0.44721359540271666
    outer loop
      vertex -0.168381405881719 -0.518224680833291 -0.83850514679858
      vertex -0.168381406024815 -0.981738926055715 0.0885233438982324
      vertex 0.168381405670488 -0.518224681103971 -0.838505146915555
    endloop
  endfacet
  facet normal 8.742561611216288e-10 0.8944271911068675 0.44721359528605475
    outer loop
      vertex 0.440828243210057 -0.893215582747639 -0.0885233437124271
      vertex 0.440828243280414 -0.606748024992877 -0.661458459564496
      vertex 0.168381405670488 -0.518224681103971 -0.838505146915555
    endloop
  endfacet
  facet normal -1.1790716812531694e-10 0.8944271910485365 0.44721359540271666
    outer loop
      vertex -0.168381406024815 -0.981738926055715 0.0885233438982324
      vertex -0.168381405881719 -0.518224680833291 -0.83850514679858
      vertex -0.440828243672306 -0.893215582429856 -0.0885233434734367
    endloop
  endfacet
  facet normal 1.3048918693517444e-9 0.8944271908417917 0.4472135958162061
    outer loop
      vertex -0.440828243517351 -0.606748024284229 -0.66145845925825
      vertex -0.440828243672306 -0.893215582429856 -0.0885233434734367
      vertex -0.168381405881719 -0.518224680833291 -0.83850514679858
    endloop
  endfacet
  facet normal 2.6984722957163935e-9 0.8944271908417918 0.4472135958162062
    outer loop
      vertex -0.440828243672306 -0.893215582429856 -0.0885233434734367
      vertex -0.440828243517351 -0.606748024284229 -0.66145845925825
      vertex -0.544893675392773 -0.749981803058175 -0.374990901335651
    endloop
  endfacet
  facet normal -0.5773502684717012 0.7946544728208171 0.1875924740535283
    outer loop
      vertex 0.713275080984933 -0.695271368825191 -0.0885233438663951
      vertex 0.544893675080063 -0.749981803988471 -0.374990901605472
      vertex 0.440828243210057 -0.893215582747639 -0.0885233437124271
    endloop
  endfacet
  facet normal -0.8506508092769814 0.2763931962152831 0.447213597470288
    outer loop
      vertex 0.544893675760374 -9.15005781426898e-10 -0.838505147340401
      vertex 0.881656486530025 0.28646755798819 -0.374990901640118
      vertex 0.713275080679512 0.231757122701972 -0.661458459432475
    endloop
  endfacet
  facet normal -0.8506508092769814 0.27639320016718927 0.44721359502787555
    outer loop
      vertex 0.881656486530025 0.28646755798819 -0.374990901640118
      vertex 0.544893675760374 -9.15005781426898e-10 -0.838505147340401
      vertex 0.985721918453744 0.143233779100909 -0.0885233437959073
    endloop
  endfacet
  facet normal -0.8506508086699284 0.2763932037065803 0.4472135939950951
    outer loop
      vertex 0.440828243540229 -0.320280467101501 -0.838505147203396
      vertex 0.985721918453744 0.143233779100909 -0.0885233437959073
      vertex 0.544893675760374 -9.15005781426898e-10 -0.838505147340401
    endloop
  endfacet
  facet normal -0.8506508086699284 0.2763932019876777 0.44721359505743535
    outer loop
      vertex 0.985721918453744 0.143233779100909 -0.0885233437959073
      vertex 0.440828243540229 -0.320280467101501 -0.838505147203396
      vertex 0.985721918467868 -0.143233778746549 0.0885233436620066
    endloop
  endfacet
  facet normal -0.8506508085168288 0.27639320288031677 0.44721359479696676
    outer loop
      vertex 0.440828243280414 -0.606748024992877 -0.661458459564496
      vertex 0.985721918467868 -0.143233778746549 0.0885233436620066
      vertex 0.440828243540229 -0.320280467101501 -0.838505147203396
    endloop
  endfacet
  facet normal -0.8506508085168287 0.27639320007118506 0.4472135965331055
    outer loop
      vertex 0.985721918467868 -0.143233778746549 0.0885233436620066
      vertex 0.440828243280414 -0.606748024992877 -0.661458459564496
      vertex 0.881656486971356 -0.463514246231955 0.0885233434102832
    endloop
  endfacet
  facet normal -0.8506508079825255 0.27639320318641286 0.4472135956240945
    outer loop
      vertex 0.544893675080063 -0.749981803988471 -0.374990901605472
      vertex 0.881656486971356 -0.463514246231955 0.0885233434102832
      vertex 0.440828243280414 -0.606748024992877 -0.661458459564496
    endloop
  endfacet
  facet normal -0.8506508079825253 0.27639320291205255 0.4472135957936584
    outer loop
      vertex 0.881656486971356 -0.463514246231955 0.0885233434102832
      vertex 0.544893675080063 -0.749981803988471 -0.374990901605472
      vertex 0.713275080984933 -0.695271368825191 -0.0885233438663951
    endloop
  endfacet
  facet normal -0.9341723593636992 0.30353099731549893 -0.18759247498105597
    outer loop
      vertex 0.881656486673876 -0.286467557651621 0.374990901554712
      vertex 0.985721918467868 -0.143233778746549 0.0885233436620066
      vertex 0.881656486971356 -0.463514246231955 0.0885233434102832
    endloop
  endfacet
  facet normal 0.5773502691112589 0.794654472027608 0.1875924754452603
    outer loop
      vertex -0.544893675392773 -0.749981803058175 -0.374990901335651
      vertex -0.713275081253466 -0.695271368270138 -0.0885233434628624
      vertex -0.440828243672306 -0.893215582429856 -0.0885233434734367
    endloop
  endfacet
  facet normal 0.8506508081929025 0.27639320221459635 0.44721359582454917
    outer loop
      vertex -0.544893674774608 3.12326222286501e-10 -0.838505146800988
      vertex -0.88165648647793 0.286467558182923 -0.374990901640115
      vertex -0.985721918445628 0.143233779280019 -0.0885233438094317
    endloop
  endfacet
  facet normal 0.8506508081929025 0.27639320221460695 0.4472135958245426
    outer loop
      vertex -0.88165648647793 0.286467558182923 -0.374990901640115
      vertex -0.544893674774608 3.12326222286501e-10 -0.838505146800988
      vertex -0.713275080604309 0.231757122967822 -0.661458459432475
    endloop
  endfacet
  facet normal 0.8506508081929014 0.27639320221460084 0.44721359582454845
    outer loop
      vertex -0.440828242945158 -0.320280466055912 -0.838505146766019
      vertex -0.985721918445628 0.143233779280019 -0.0885233438094317
      vertex -0.985721918527097 -0.143233778580959 0.0885233436266027
    endloop
  endfacet
  facet normal 0.8506508081929013 0.27639320221460234 0.44721359582454734
    outer loop
      vertex -0.985721918445628 0.143233779280019 -0.0885233438094317
      vertex -0.440828242945158 -0.320280466055912 -0.838505146766019
      vertex -0.544893674774608 3.12326222286501e-10 -0.838505146800988
    endloop
  endfacet
  facet normal 0.8506508084398697 0.27639320152611196 0.4472135957802963
    outer loop
      vertex -0.440828243517351 -0.606748024284229 -0.66145845925825
      vertex -0.985721918527097 -0.143233778580959 0.0885233436266027
      vertex -0.881656486945468 -0.463514245505002 0.0885233439259176
    endloop
  endfacet
  facet normal 0.8506508084398696 0.2763932007746649 0.447213596244716
    outer loop
      vertex -0.985721918527097 -0.143233778580959 0.0885233436266027
      vertex -0.440828243517351 -0.606748024284229 -0.66145845925825
      vertex -0.440828242945158 -0.320280466055912 -0.838505146766019
    endloop
  endfacet
  facet normal 0.8506508082630175 0.2763932012248519 0.447213596302878
    outer loop
      vertex -0.544893675392773 -0.749981803058175 -0.374990901335651
      vertex -0.881656486945468 -0.463514245505002 0.0885233439259176
      vertex -0.713275081253466 -0.695271368270138 -0.0885233434628624
    endloop
  endfacet
  facet normal 0.8506508082630176 0.2763932025572392 0.44721359547941736
    outer loop
      vertex -0.881656486945468 -0.463514245505002 0.0885233439259176
      vertex -0.544893675392773 -0.749981803058175 -0.374990901335651
      vertex -0.440828243517351 -0.606748024284229 -0.66145845925825
    endloop
  endfacet
  facet normal 0.93417235943847 0.303530997797312 -0.1875924738291233
    outer loop
      vertex -0.985721918527097 -0.143233778580959 0.0885233436266027
      vertex -0.881656486851003 -0.286467557890956 0.3749909017097
      vertex -0.881656486945468 -0.463514245505002 0.0885233439259176
    endloop
  endfacet
  facet normal 0.9341723588500425 -0.30353099922522203 0.18759247444896543
    outer loop
      vertex -0.88165648647793 0.286467558182923 -0.374990901640115
      vertex -0.881656486558403 0.463514245629488 -0.0885233437959073
      vertex -0.985721918445628 0.143233779280019 -0.0885233438094317
    endloop
  endfacet
  facet normal 0.5257311121658448 -0.7236067977863386 0.4472135953862143
    outer loop
      vertex -0.881656486558403 0.463514245629488 -0.0885233437959073
      vertex -0.440828243322188 0.893215582288215 0.0885233436266027
      vertex -0.713275080790209 0.695271368261373 0.0885233436620066
    endloop
  endfacet
  facet normal 0.5257311119838308 -0.7236067977271987 0.44721359569587527
    outer loop
      vertex -0.88165648647793 0.286467558182923 -0.374990901640115
      vertex -0.440828243322188 0.893215582288215 0.0885233436266027
      vertex -0.881656486558403 0.463514245629488 -0.0885233437959073
    endloop
  endfacet
  facet normal 0.5257311120067613 -0.7236067977254398 0.4472135956717646
    outer loop
      vertex -0.440828243322188 0.893215582288215 0.0885233436266027
      vertex -0.88165648647793 0.286467558182923 -0.374990901640115
      vertex -0.16838140568935 0.981738925936651 -0.0885233438094317
    endloop
  endfacet
  facet normal 0.5257311119833997 -0.7236067977178492 0.4472135957115097
    outer loop
      vertex -0.713275080604309 0.231757122967822 -0.661458459432475
      vertex -0.16838140568935 0.981738925936651 -0.0885233438094317
      vertex -0.88165648647793 0.286467558182923 -0.374990901640115
    endloop
  endfacet
  facet normal 0.525731111927401 -0.7236067977221444 0.4472135957703903
    outer loop
      vertex -0.16838140568935 0.981738925936651 -0.0885233438094317
      vertex -0.713275080604309 0.231757122967822 -0.661458459432475
      vertex 9.67870503280284e-11 0.927028490598288 -0.374990901640115
    endloop
  endfacet
  facet normal 0.5257311116258482 -0.723606797624164 0.44721359628342267
    outer loop
      vertex -0.440828243230888 0.320280466210441 -0.838505146766015
      vertex 9.67870503280284e-11 0.927028490598288 -0.374990901640115
      vertex -0.713275080604309 0.231757122967822 -0.661458459432475
    endloop
  endfacet
  facet normal 0.5257311120622641 -0.7236067975906895 0.4472135958245479
    outer loop
      vertex 9.67870503280284e-11 0.927028490598288 -0.374990901640115
      vertex -0.440828243230888 0.320280466210441 -0.838505146766015
      vertex 1.34177139846694e-10 0.749981803068125 -0.661458459432475
    endloop
  endfacet
  facet normal 0.5257311120622646 -0.7236067975906897 0.44721359582454673
    outer loop
      vertex 1.34177139846694e-10 0.749981803068125 -0.661458459432475
      vertex -0.440828243230888 0.320280466210441 -0.838505146766015
      vertex -0.168381405618702 0.518224680356814 -0.838505146800985
    endloop
  endfacet
  facet normal 0.5773502691609429 -0.7946544723430057 -0.18759247395630216
    outer loop
      vertex -0.440828243322188 0.893215582288215 0.0885233436266027
      vertex -0.544893675067447 0.749981803470068 0.374990901554712
      vertex -0.713275080790209 0.695271368261373 0.0885233436620066
    endloop
  endfacet
  facet normal -1.1545592495447221e-10 -0.9822469463073487 0.18759247444897298
    outer loop
      vertex 9.67870503280284e-11 0.927028490598288 -0.374990901640115
      vertex 0.168381405854482 0.98173892589965 -0.0885233437959073
      vertex -0.16838140568935 0.981738925936651 -0.0885233438094317
    endloop
  endfacet
  facet normal -0.525731112189224 -0.7236067976401661 0.44721359559524276
    outer loop
      vertex 0.881656486530025 0.28646755798819 -0.374990901640118
      vertex 0.440828243453648 0.893215582191346 0.0885233436620066
      vertex 0.168381405854482 0.98173892589965 -0.0885233437959073
    endloop
  endfacet
  facet normal -0.5257311119764698 -0.7236067976564851 0.44721359581894576
    outer loop
      vertex 0.8816564866369 0.46351424547324 -0.0885233438094317
      vertex 0.440828243453648 0.893215582191346 0.0885233436620066
      vertex 0.881656486530025 0.28646755798819 -0.374990901640118
    endloop
  endfacet
  facet normal -0.5257311121673874 -0.7236067975804061 0.4472135957176069
    outer loop
      vertex 0.713275080679512 0.231757122701972 -0.661458459432475
      vertex 0.168381405854482 0.98173892589965 -0.0885233437959073
      vertex 9.67870503280284e-11 0.927028490598288 -0.374990901640115
    endloop
  endfacet
  facet normal -0.5257311119957536 -0.7236067976627507 0.447213595786138
    outer loop
      vertex 0.440828243453648 0.893215582191346 0.0885233436620066
      vertex 0.8816564866369 0.46351424547324 -0.0885233438094317
      vertex 0.713275080915236 0.69527136815565 0.0885233436266027
    endloop
  endfacet
  facet normal -0.5257311123404341 -0.7236067975058215 0.4472135956348587
    outer loop
      vertex 0.440828243009542 0.320280466371165 -0.838505146800988
      vertex 9.67870503280284e-11 0.927028490598288 -0.374990901640115
      vertex 1.34177139846694e-10 0.749981803068125 -0.661458459432475
    endloop
  endfacet
  facet normal -0.525731112036257 -0.7236067975904641 0.44721359585548565
    outer loop
      vertex 0.168381405854482 0.98173892589965 -0.0885233437959073
      vertex 0.713275080679512 0.231757122701972 -0.661458459432475
      vertex 0.881656486530025 0.28646755798819 -0.374990901640118
    endloop
  endfacet
  facet normal -0.5257311116895094 -0.7236067972943232 0.44721359674227773
    outer loop
      vertex 0.440828243009542 0.320280466371165 -0.838505146800988
      vertex 1.34177139846694e-10 0.749981803068125 -0.661458459432475
      vertex 0.168381405389722 0.518224680507034 -0.838505146766019
    endloop
  endfacet
  facet normal -0.5257311120147284 -0.7236067975308041 0.44721359597732574
    outer loop
      vertex 9.67870503280284e-11 0.927028490598288 -0.374990901640115
      vertex 0.440828243009542 0.320280466371165 -0.838505146800988
      vertex 0.713275080679512 0.231757122701972 -0.661458459432475
    endloop
  endfacet
  facet normal -0.5773502692186783 -0.7946544723010586 -0.18759247395630207
    outer loop
      vertex 0.713275080915236 0.69527136815565 0.0885233436266027
      vertex 0.54489367527844 0.749981803308651 0.374990901554712
      vertex 0.440828243453648 0.893215582191346 0.0885233436620066
    endloop
  endfacet
  facet normal -0.9341723589213964 -0.3035309990056148 0.18759247444896957
    outer loop
      vertex 0.881656486530025 0.28646755798819 -0.374990901640118
      vertex 0.985721918453744 0.143233779100909 -0.0885233437959073
      vertex 0.8816564866369 0.46351424547324 -0.0885233438094317
    endloop
  endfacet
  facet normal -0.3568220889080975 0.49112347397336803 0.7946544721950493
    outer loop
      vertex 0.440828243540229 -0.320280467101501 -0.838505147203396
      vertex 0.168381405670488 -0.518224681103971 -0.838505146915555
      vertex 0.440828243280414 -0.606748024992877 -0.661458459564496
    endloop
  endfacet
  facet normal 3.2499655595175603e-9 -6.282118890828597e-10 1
    outer loop
      vertex 0.440828243009542 0.320280466371165 -0.838505146800988
      vertex 0.440828243540229 -0.320280467101501 -0.838505147203396
      vertex 0.544893675760374 -9.15005781426898e-10 -0.838505147340401
    endloop
  endfacet
  facet normal -3.2807090876673425e-10 -6.282118920471636e-10 1
    outer loop
      vertex 0.168381405389722 0.518224680507034 -0.838505146766019
      vertex 0.440828243540229 -0.320280467101501 -0.838505147203396
      vertex 0.440828243009542 0.320280466371165 -0.838505146800988
    endloop
  endfacet
  facet normal 1.1613268113942551e-9 -1.44277236709927e-10 1
    outer loop
      vertex 0.168381405389722 0.518224680507034 -0.838505146766019
      vertex 0.168381405670488 -0.518224681103971 -0.838505146915555
      vertex 0.440828243540229 -0.320280467101501 -0.838505147203396
    endloop
  endfacet
  facet normal -1.0382984375555494e-10 -1.4427723705264805e-10 1
    outer loop
      vertex -0.168381405618702 0.518224680356814 -0.838505146800985
      vertex 0.168381405670488 -0.518224681103971 -0.838505146915555
      vertex 0.168381405389722 0.518224680507034 -0.838505146766019
    endloop
  endfacet
  facet normal 3.473512550721245e-10 2.3203883514600503e-12 1
    outer loop
      vertex -0.168381405618702 0.518224680356814 -0.838505146800985
      vertex -0.168381405881719 -0.518224680833291 -0.83850514679858
      vertex 0.168381405670488 -0.518224681103971 -0.838505146915555
    endloop
  endfacet
  facet normal 1.2666955401972014e-10 2.3203884074618548e-12 1
    outer loop
      vertex -0.440828243230888 0.320280466210441 -0.838505146766015
      vertex -0.168381405881719 -0.518224680833291 -0.83850514679858
      vertex -0.168381405618702 0.518224680356814 -0.838505146800985
    endloop
  endfacet
  facet normal 1.1950892965722488e-10 -6.2394825223320966e-15 1
    outer loop
      vertex -0.440828243230888 0.320280466210441 -0.838505146766015
      vertex -0.440828242945158 -0.320280466055912 -0.838505146766019
      vertex -0.168381405881719 -0.518224680833291 -0.83850514679858
    endloop
  endfacet
  facet normal -3.3604844094909765e-10 -6.239685729238371e-15 1
    outer loop
      vertex -0.440828242945158 -0.320280466055912 -0.838505146766019
      vertex -0.440828243230888 0.320280466210441 -0.838505146766015
      vertex -0.544893674774608 3.12326222286501e-10 -0.838505146800988
    endloop
  endfacet
  facet normal 0.35682209095684103 0.4911234721308408 0.7946544724138503
    outer loop
      vertex -0.440828242945158 -0.320280466055912 -0.838505146766019
      vertex -0.440828243517351 -0.606748024284229 -0.66145845925825
      vertex -0.168381405881719 -0.518224680833291 -0.83850514679858
    endloop
  endfacet
  facet normal 0.5773502690901681 -0.1875924738777407 0.7946544724129724
    outer loop
      vertex -0.440828243230888 0.320280466210441 -0.838505146766015
      vertex -0.713275080604309 0.231757122967822 -0.661458459432475
      vertex -0.544893674774608 3.12326222286501e-10 -0.838505146800988
    endloop
  endfacet
  facet normal 1.8828358500574882e-10 -0.607061998048029 0.7946544724129697
    outer loop
      vertex 0.168381405389722 0.518224680507034 -0.838505146766019
      vertex 1.34177139846694e-10 0.749981803068125 -0.661458459432475
      vertex -0.168381405618702 0.518224680356814 -0.838505146800985
    endloop
  endfacet
  facet normal -0.577350269242476 -0.1875924765417903 0.7946544716734175
    outer loop
      vertex 0.544893675760374 -9.15005781426898e-10 -0.838505147340401
      vertex 0.713275080679512 0.231757122701972 -0.661458459432475
      vertex 0.440828243009542 0.320280466371165 -0.838505146800988
    endloop
  endfacet
endsolid OpenSCAD_Model
