solid OpenSCAD_Model
  facet normal 0.7071067812341677 0.7071067811389273 1.0838953265129568e-10
    outer loop
      vertex -0.357406743976453 -0.862856208736854 0.357406744188952
      vertex -0.862856208734638 -0.357406743801019 -0.357406743840676
      vertex -0.862856208798823 -0.357406743846405 0.357406744188952
    endloop
  endfacet
  facet normal 0.7071067812341668 0.707106781138928 1.0839067800893584e-10
    outer loop
      vertex -0.862856208734638 -0.357406743801019 -0.357406743840676
      vertex -0.357406743976453 -0.862856208736854 0.357406744188952
      vertex -0.35740674394436 -0.862856208659375 -0.357406743950248
    endloop
  endfacet
  facet normal -3.1960904785223714e-26 1 -4.5985709965757696e-10
    outer loop
      vertex 0.357406744317705 -0.862856209065566 -0.357406744214779
      vertex -0.357406743976453 -0.862856208736854 0.357406744188952
      vertex 0.357406744162748 -0.862856208736854 0.357406744188952
    endloop
  endfacet
  facet normal 5.682476442727994e-10 1 1.0839054452811632e-10
    outer loop
      vertex -0.357406743976453 -0.862856208736854 0.357406744188952
      vertex 0.357406744317705 -0.862856209065566 -0.357406744214779
      vertex -0.35740674394436 -0.862856208659375 -0.357406743950248
    endloop
  endfacet
  facet normal 9.69889526293742e-16 0.7071067808460413 -0.7071067815270538
    outer loop
      vertex 0.357406744162748 -0.862856208736854 0.357406744188952
      vertex -0.35740674394436 -0.357406743637045 0.862856208801963
      vertex 0.357406744001143 -0.357406743819396 0.862856208619613
    endloop
  endfacet
  facet normal 1.851706229084123e-18 0.7071067808460406 -0.7071067815270545
    outer loop
      vertex -0.35740674394436 -0.357406743637045 0.862856208801963
      vertex 0.357406744162748 -0.862856208736854 0.357406744188952
      vertex -0.357406743976453 -0.862856208736854 0.357406744188952
    endloop
  endfacet
  facet normal 0.5773502690439001 0.5773502689661367 -0.5773502695588406
    outer loop
      vertex -0.862856208798823 -0.357406743846405 0.357406744188952
      vertex -0.35740674394436 -0.357406743637045 0.862856208801963
      vertex -0.357406743976453 -0.862856208736854 0.357406744188952
    endloop
  endfacet
  facet normal 1 3.886636055240005e-10 6.317438098735938e-10
    outer loop
      vertex -0.862856208798823 -0.357406743846405 0.357406744188952
      vertex -0.862856208625066 0.357406744260705 -0.357406743950248
      vertex -0.862856209076645 0.35740674444775 0.357406744188952
    endloop
  endfacet
  facet normal 1 -1.532875637429879e-10 8.97926406309352e-11
    outer loop
      vertex -0.862856208625066 0.357406744260705 -0.357406743950248
      vertex -0.862856208798823 -0.357406743846405 0.357406744188952
      vertex -0.862856208734638 -0.357406743801019 -0.357406743840676
    endloop
  endfacet
  facet normal 0.7071067811840938 5.102052940452278e-10 -0.7071067811890013
    outer loop
      vertex -0.35740674394436 -0.357406743637045 0.862856208801963
      vertex -0.862856209076645 0.35740674444775 0.357406744188952
      vertex -0.357406744395941 0.357406744366762 0.862856208866148
    endloop
  endfacet
  facet normal 0.7071067810176559 2.7482667100079204e-10 -0.7071067813554391
    outer loop
      vertex -0.862856209076645 0.35740674444775 0.357406744188952
      vertex -0.35740674394436 -0.357406743637045 0.862856208801963
      vertex -0.862856208798823 -0.357406743846405 0.357406744188952
    endloop
  endfacet
  facet normal 0.7071067814772493 -0.7071067808958459 1.7419378146859762e-9
    outer loop
      vertex -0.862856209076645 0.35740674444775 0.357406744188952
      vertex -0.357406743679833 0.862856208499234 -0.357406744214779
      vertex -0.357406744647177 0.862856209292813 0.357406744188952
    endloop
  endfacet
  facet normal 0.7071067806922201 -0.7071067816808752 6.31738768957269e-10
    outer loop
      vertex -0.357406743679833 0.862856208499234 -0.357406744214779
      vertex -0.862856209076645 0.35740674444775 0.357406744188952
      vertex -0.862856208625066 0.357406744260705 -0.357406743950248
    endloop
  endfacet
  facet normal 0.5773502693156919 -0.577350268840978 -0.5773502694122075
    outer loop
      vertex -0.357406744647177 0.862856209292813 0.357406744188952
      vertex -0.357406744395941 0.357406744366762 0.862856208866148
      vertex -0.862856209076645 0.35740674444775 0.357406744188952
    endloop
  endfacet
  facet normal -6.688855353012757e-26 -1 1.1101904261789179e-9
    outer loop
      vertex -0.357406743679833 0.862856208499234 -0.357406744214779
      vertex 0.357406743337069 0.862856209292813 0.357406744188952
      vertex -0.357406744647177 0.862856209292813 0.357406744188952
    endloop
  endfacet
  facet normal -6.58040128873322e-10 -1 1.7682305537755586e-9
    outer loop
      vertex 0.357406743337069 0.862856209292813 0.357406744188952
      vertex -0.357406743679833 0.862856208499234 -0.357406744214779
      vertex 0.357406744582236 0.862856208028858 -0.35740674447931
    endloop
  endfacet
  facet normal 2.592246992807668e-11 -0.7071067810124776 -0.7071067813606173
    outer loop
      vertex -0.357406744647177 0.862856209292813 0.357406744188952
      vertex 0.357406743497917 0.357406744392967 0.862856208866148
      vertex -0.357406744395941 0.357406744366762 0.862856208866148
    endloop
  endfacet
  facet normal 1.5664985105813932e-17 -0.7071067810308077 -0.7071067813422875
    outer loop
      vertex 0.357406743497917 0.357406744392967 0.862856208866148
      vertex -0.357406744647177 0.862856209292813 0.357406744188952
      vertex 0.357406743337069 0.862856209292813 0.357406744188952
    endloop
  endfacet
  facet normal -0.7071067812976624 -0.7071067810754325 1.858555656362798e-11
    outer loop
      vertex 0.862856209327125 0.357406743125116 -0.357406744588877
      vertex 0.357406743337069 0.862856209292813 0.357406744188952
      vertex 0.357406744582236 0.862856208028858 -0.35740674447931
    endloop
  endfacet
  facet normal -0.7071067811706644 -0.7071067812024306 1.9818791841080564e-10
    outer loop
      vertex 0.357406743337069 0.862856209292813 0.357406744188952
      vertex 0.862856209327125 0.357406743125116 -0.357406744588877
      vertex 0.862856208204832 0.357406744447757 0.357406744188952
    endloop
  endfacet
  facet normal -0.5773502691488033 -0.5773502691747403 -0.5773502692453338
    outer loop
      vertex 0.862856208204832 0.357406744447757 0.357406744188952
      vertex 0.357406743497917 0.357406744392967 0.862856208866148
      vertex 0.357406743337069 0.862856209292813 0.357406744188952
    endloop
  endfacet
  facet normal -1 1.5329035924565196e-10 -1.5700501656783112e-9
    outer loop
      vertex 0.862856209217551 -0.357406744781655 -0.35740674447931
      vertex 0.862856208204832 0.357406744447757 0.357406744188952
      vertex 0.862856209327125 0.357406743125116 -0.357406744588877
    endloop
  endfacet
  facet normal -1 -4.78439471953467e-10 -9.383203339832652e-10
    outer loop
      vertex 0.862856208204832 0.357406744447757 0.357406744188952
      vertex 0.862856209217551 -0.357406744781655 -0.35740674447931
      vertex 0.862856208546827 -0.357406743846406 0.357406744188952
    endloop
  endfacet
  facet normal -0.7071067811657596 -3.383077949956617e-10 -0.7071067812073355
    outer loop
      vertex 0.862856208546827 -0.357406743846406 0.357406744188952
      vertex 0.357406743497917 0.357406744392967 0.862856208866148
      vertex 0.862856208204832 0.357406744447757 0.357406744188952
    endloop
  endfacet
  facet normal -0.7071067811060908 -2.539234523607958e-10 -0.7071067812670042
    outer loop
      vertex 0.357406743497917 0.357406744392967 0.862856208866148
      vertex 0.862856208546827 -0.357406743846406 0.357406744188952
      vertex 0.357406744001143 -0.357406743819396 0.862856208619613
    endloop
  endfacet
  facet normal -0.7071067807557114 0.7071067816173837 -1.5886583631960936e-9
    outer loop
      vertex 0.357406744317705 -0.862856209065566 -0.357406744214779
      vertex 0.862856208546827 -0.357406743846406 0.357406744188952
      vertex 0.862856209217551 -0.357406744781655 -0.35740674447931
    endloop
  endfacet
  facet normal -0.707106781540744 0.707106780832351 -4.784545080073136e-10
    outer loop
      vertex 0.862856208546827 -0.357406743846406 0.357406744188952
      vertex 0.357406744317705 -0.862856209065566 -0.357406744214779
      vertex 0.357406744162748 -0.862856208736854 0.357406744188952
    endloop
  endfacet
  facet normal -0.5773502693283469 0.5773502687499464 -0.5773502694905842
    outer loop
      vertex 0.357406744162748 -0.862856208736854 0.357406744188952
      vertex 0.357406744001143 -0.357406743819396 0.862856208619613
      vertex 0.862856208546827 -0.357406743846406 0.357406744188952
    endloop
  endfacet
  facet normal 0.5773502692453389 0.5773502690424183 0.5773502692811203
    outer loop
      vertex -0.357406743844572 -0.357406743937175 -0.862856208563261
      vertex -0.862856208734638 -0.357406743801019 -0.357406743840676
      vertex -0.35740674394436 -0.862856208659375 -0.357406743950248
    endloop
  endfacet
  facet normal 6.634906575976088e-10 0.7071067812766108 0.7071067810964842
    outer loop
      vertex 0.357406744127145 -0.357406744517127 -0.862856208891975
      vertex -0.35740674394436 -0.862856208659375 -0.357406743950248
      vertex 0.357406744317705 -0.862856209065566 -0.357406744214779
    endloop
  endfacet
  facet normal 8.988691812772858e-10 0.707106781110173 0.7071067812629219
    outer loop
      vertex -0.35740674394436 -0.862856208659375 -0.357406743950248
      vertex 0.357406744127145 -0.357406744517127 -0.862856208891975
      vertex -0.357406743844572 -0.357406743937175 -0.862856208563261
    endloop
  endfacet
  facet normal 0.7071067810693946 3.5916155154631295e-20 0.7071067813037004
    outer loop
      vertex -0.862856208734638 -0.357406743801019 -0.357406743840676
      vertex -0.357406743917351 0.357406743930854 -0.862856208490478
      vertex -0.862856208625066 0.357406744260705 -0.357406743950248
    endloop
  endfacet
  facet normal 0.7071067810693975 -3.9537355214974925e-15 0.7071067813036976
    outer loop
      vertex -0.357406743917351 0.357406743930854 -0.862856208490478
      vertex -0.862856208734638 -0.357406743801019 -0.357406743840676
      vertex -0.357406743844572 -0.357406743937175 -0.862856208563261
    endloop
  endfacet
  facet normal 0.5773502688319072 -0.57735026933698 0.57735026939999
    outer loop
      vertex -0.357406743917351 0.357406743930854 -0.862856208490478
      vertex -0.357406743679833 0.862856208499234 -0.357406744214779
      vertex -0.862856208625066 0.357406744260705 -0.357406743950248
    endloop
  endfacet
  facet normal -2.0362570067193393e-10 -0.7071067809818221 0.707106781391273
    outer loop
      vertex -0.357406743917351 0.357406743930854 -0.862856208490478
      vertex 0.357406744582236 0.862856208028858 -0.35740674447931
      vertex -0.357406743679833 0.862856208499234 -0.357406744214779
    endloop
  endfacet
  facet normal -1.192312701731934e-10 -0.7071067810414979 0.7071067813315972
    outer loop
      vertex 0.357406744582236 0.862856208028858 -0.35740674447931
      vertex -0.357406743917351 0.357406743930854 -0.862856208490478
      vertex 0.357406744262921 0.357406743299252 -0.862856209001549
    endloop
  endfacet
  facet normal -0.5773502690266226 -0.5773502689703259 0.5773502695719289
    outer loop
      vertex 0.357406744262921 0.357406743299252 -0.862856209001549
      vertex 0.862856209327125 0.357406743125116 -0.357406744588877
      vertex 0.357406744582236 0.862856208028858 -0.35740674447931
    endloop
  endfacet
  facet normal -0.7071067807308118 2.4270479571751824e-10 0.7071067816422832
    outer loop
      vertex 0.357406744127145 -0.357406744517127 -0.862856208891975
      vertex 0.862856209327125 0.357406743125116 -0.357406744588877
      vertex 0.357406744262921 0.357406743299252 -0.862856209001549
    endloop
  endfacet
  facet normal -0.7071067807124791 2.1677838637116815e-10 0.7071067816606159
    outer loop
      vertex 0.862856209327125 0.357406743125116 -0.357406744588877
      vertex 0.357406744127145 -0.357406744517127 -0.862856208891975
      vertex 0.862856209217551 -0.357406744781655 -0.35740674447931
    endloop
  endfacet
  facet normal -0.5773502684956187 0.577350269501332 0.5773502695719266
    outer loop
      vertex 0.357406744127145 -0.357406744517127 -0.862856208891975
      vertex 0.357406744317705 -0.862856209065566 -0.357406744214779
      vertex 0.862856209217551 -0.357406744781655 -0.35740674447931
    endloop
  endfacet
  facet normal -2.5510154324410466e-10 3.4489418367497444e-10 -1
    outer loop
      vertex -0.35740674394436 -0.357406743637045 0.862856208801963
      vertex 0.357406743497917 0.357406744392967 0.862856208866148
      vertex 0.357406744001143 -0.357406743819396 0.862856208619613
    endloop
  endfacet
  facet normal -3.291788177017502e-21 8.979264064391149e-11 -1
    outer loop
      vertex 0.357406743497917 0.357406744392967 0.862856208866148
      vertex -0.35740674394436 -0.357406743637045 0.862856208801963
      vertex -0.357406744395941 0.357406744366762 0.862856208866148
    endloop
  endfacet
  facet normal 7.149712238185609e-10 1.5329035936988857e-10 1
    outer loop
      vertex -0.357406743917351 0.357406743930854 -0.862856208490478
      vertex 0.357406744127145 -0.357406744517127 -0.862856208891975
      vertex 0.357406744262921 0.357406743299252 -0.862856209001549
    endloop
  endfacet
  facet normal 4.598598955492206e-10 -1.0182096875545117e-10 1
    outer loop
      vertex 0.357406744127145 -0.357406744517127 -0.862856208891975
      vertex -0.357406743917351 0.357406743930854 -0.862856208490478
      vertex -0.357406743844572 -0.357406743937175 -0.862856208563261
    endloop
  endfacet
endsolid OpenSCAD_Model
