solid OpenSCAD_Model
  facet normal 0.5257311120784853 0.7236067975847233 -0.447213595815132
    outer loop
      vertex -0.223918979534821 -0.924594106311171 0.308198035271352
      vertex -0.586227499480956 -0.425919209643732 0.689151757387289
      vertex -0.223918979554928 -0.689151757668433 0.689151757387289
    endloop
  endfacet
  facet normal 0.525731112078487 0.7236067975847232 -0.4472135958151304
    outer loop
      vertex -0.223918979534821 -0.924594106311171 0.308198035271352
      vertex -0.810146479144428 -0.498674896699662 0.308198035262522
      vertex -0.586227499480956 -0.425919209643732 0.689151757387289
    endloop
  endfacet
  facet normal 0.5257311120784861 0.723606797584722 -0.44721359581513337
    outer loop
      vertex -0.810146479144428 -0.498674896699662 0.308198035262522
      vertex -0.223918979534821 -0.924594106311171 0.308198035271352
      vertex -0.586227499512168 -0.806872932063635 0.0727556869095775
    endloop
  endfacet
  facet normal 3.172939278508827e-17 0.8506508081180594 -0.5257311124977223
    outer loop
      vertex 0.223918979751085 -0.924594106295716 0.30819803529636
      vertex -0.223918979554928 -0.689151757668433 0.689151757387289
      vertex 0.22391897980059 -0.689151757668433 0.689151757387289
    endloop
  endfacet
  facet normal 1.545680813440768e-15 0.8506508081180602 -0.525731112497721
    outer loop
      vertex -0.223918979554928 -0.689151757668433 0.689151757387289
      vertex 0.223918979751085 -0.924594106295716 0.30819803529636
      vertex -0.223918979534821 -0.924594106311171 0.308198035271352
    endloop
  endfacet
  facet normal -3.1395373689592793e-18 0.6070619970377749 -0.794654473184735
    outer loop
      vertex 1.34438831545362e-10 -0.380953721892937 0.924594105469935
      vertex 0.22391897980059 -0.689151757668433 0.689151757387289
      vertex -0.223918979554928 -0.689151757668433 0.689151757387289
    endloop
  endfacet
  facet normal 0.3090169938441652 0.4253254033812065 -0.8506508089422646
    outer loop
      vertex -0.223918979554928 -0.689151757668433 0.689151757387289
      vertex -0.362308519725219 -0.117721174031588 0.924594105412368
      vertex 1.34438831545362e-10 -0.380953721892937 0.924594105469935
    endloop
  endfacet
  facet normal 0.3090169938441615 0.42532540338120617 -0.850650808942266
    outer loop
      vertex -0.362308519725219 -0.117721174031588 0.924594105412368
      vertex -0.223918979554928 -0.689151757668433 0.689151757387289
      vertex -0.586227499480956 -0.425919209643732 0.689151757387289
    endloop
  endfacet
  facet normal 0.8090169945926234 0.2628655565522696 -0.5257311115378132
    outer loop
      vertex -0.586227499480956 -0.425919209643732 0.689151757387289
      vertex -0.948536019210901 -0.0727556869602728 0.308198035213155
      vertex -0.724617039910831 -2.91804699286042e-11 0.689151757387289
    endloop
  endfacet
  facet normal 0.8090169944421837 0.26286555567513864 -0.5257311122078817
    outer loop
      vertex -0.948536019210901 -0.0727556869602728 0.308198035213155
      vertex -0.586227499480956 -0.425919209643732 0.689151757387289
      vertex -0.810146479144428 -0.498674896699662 0.308198035262522
    endloop
  endfacet
  facet normal 0.5773502681532777 0.18759247404949042 -0.7946544730531186
    outer loop
      vertex -0.724617039910831 -2.91804699286042e-11 0.689151757387289
      vertex -0.362308519725219 -0.117721174031588 0.924594105412368
      vertex -0.586227499480956 -0.425919209643732 0.689151757387289
    endloop
  endfacet
  facet normal 0.8506508087045773 -0.27639320333459255 -0.44721359415908984
    outer loop
      vertex -0.586227500090741 0.425919209572942 0.689151757387289
      vertex -0.948536019020091 0.308198035269162 0.0727556867803315
      vertex -0.724617039426481 0.616396070432454 0.308198035247811
    endloop
  endfacet
  facet normal 0.8506508088344056 -0.27639320164063846 -0.4472135949590629
    outer loop
      vertex -0.948536019210901 -0.0727556869602728 0.308198035213155
      vertex -0.586227500090741 0.425919209572942 0.689151757387289
      vertex -0.724617039910831 -2.91804699286042e-11 0.689151757387289
    endloop
  endfacet
  facet normal 0.8506508089284853 -0.27639320202910767 -0.4472135945400252
    outer loop
      vertex -0.586227500090741 0.425919209572942 0.689151757387289
      vertex -0.948536019210901 -0.0727556869602728 0.308198035213155
      vertex -0.948536019020091 0.308198035269162 0.0727556867803315
    endloop
  endfacet
  facet normal 0.5000000002070608 -0.162459846858723 -0.8506508084705379
    outer loop
      vertex -0.362308519725219 -0.117721174031588 0.924594105412368
      vertex -0.586227500090741 0.425919209572942 0.689151757387289
      vertex -0.223918980231666 0.308198035266493 0.924594105716461
    endloop
  endfacet
  facet normal 0.4999999992769819 -0.16245984743122058 -0.850650808907887
    outer loop
      vertex -0.586227500090741 0.425919209572942 0.689151757387289
      vertex -0.362308519725219 -0.117721174031588 0.924594105412368
      vertex -0.724617039910831 -2.91804699286042e-11 0.689151757387289
    endloop
  endfacet
  facet normal 0.5000000002496732 -0.688190960868049 -0.5257311110537766
    outer loop
      vertex -0.362308519620048 0.879628618246503 0.308198035213155
      vertex -0.586227500090741 0.425919209572942 0.689151757387289
      vertex -0.724617039426481 0.616396070432454 0.308198035247811
    endloop
  endfacet
  facet normal 0.500000000922323 -0.6881909607703073 -0.5257311105419943
    outer loop
      vertex -0.586227500090741 0.425919209572942 0.689151757387289
      vertex -0.362308519620048 0.879628618246503 0.308198035213155
      vertex -0.223918980541581 0.689151757565109 0.689151757387289
    endloop
  endfacet
  facet normal 0.35682208978846297 -0.4911234726852335 -0.7946544725958513
    outer loop
      vertex -0.223918980541581 0.689151757565109 0.689151757387289
      vertex -0.223918980231666 0.308198035266493 0.924594105716461
      vertex -0.586227500090741 0.425919209572942 0.689151757387289
    endloop
  endfacet
  facet normal 3.4020391833844294e-10 -0.8944271913314673 -0.447213594836855
    outer loop
      vertex 2.77534238510601e-10 0.997349792387848 0.0727556867697042
      vertex -0.223918980541581 0.689151757565109 0.689151757387289
      vertex -0.362308519620048 0.879628618246503 0.308198035213155
    endloop
  endfacet
  facet normal 9.978076634951118e-15 -0.8944271912820342 -0.44721359493572127
    outer loop
      vertex -0.223918980541581 0.689151757565109 0.689151757387289
      vertex 2.77534238510601e-10 0.997349792387848 0.0727556867697042
      vertex 0.223918978690173 0.689151757565114 0.689151757387289
    endloop
  endfacet
  facet normal -5.504874246117971e-10 -0.8944271913620261 -0.4472135947757373
    outer loop
      vertex 0.223918978690173 0.689151757565114 0.689151757387289
      vertex 2.77534238510601e-10 0.997349792387848 0.0727556867697042
      vertex 0.362308520081049 0.879628618164105 0.308198035247811
    endloop
  endfacet
  facet normal 1.6022297782490873e-11 -0.5257311118222677 -0.8506508085355131
    outer loop
      vertex -0.223918980231666 0.308198035266493 0.924594105716461
      vertex 0.223918978690173 0.689151757565114 0.689151757387289
      vertex 0.223918978941093 0.308198035280143 0.92459410571646
    endloop
  endfacet
  facet normal 5.864966286954682e-15 -0.5257311118086433 -0.8506508085439335
    outer loop
      vertex 0.223918978690173 0.689151757565114 0.689151757387289
      vertex -0.223918980231666 0.308198035266493 0.924594105716461
      vertex -0.223918980541581 0.689151757565109 0.689151757387289
    endloop
  endfacet
  facet normal -0.4999999997893302 -0.6881909599716035 -0.5257311126650509
    outer loop
      vertex 0.362308520081049 0.879628618164105 0.308198035247811
      vertex 0.586227498639836 0.425919209572942 0.689151757387289
      vertex 0.223918978690173 0.689151757565114 0.689151757387289
    endloop
  endfacet
  facet normal -0.4999999999620407 -0.6881909599465073 -0.5257311125336449
    outer loop
      vertex 0.586227498639836 0.425919209572942 0.689151757387289
      vertex 0.362308520081049 0.879628618164105 0.308198035247811
      vertex 0.72461703981705 0.616396070253117 0.308198035213155
    endloop
  endfacet
  facet normal -0.35682208969332957 -0.4911234730971819 -0.7946544723839709
    outer loop
      vertex 0.586227498639836 0.425919209572942 0.689151757387289
      vertex 0.223918978941093 0.308198035280143 0.92459410571646
      vertex 0.223918978690173 0.689151757565114 0.689151757387289
    endloop
  endfacet
  facet normal -0.8506508081317794 -0.27639320097016146 -0.44721359670991523
    outer loop
      vertex 0.948536019456349 0.308198034910762 0.0727556867697042
      vertex 0.586227498639836 0.425919209572942 0.689151757387289
      vertex 0.72461703981705 0.616396070253117 0.308198035213155
    endloop
  endfacet
  facet normal -0.85065080782748 -0.2763932027443623 -0.4472135961922104
    outer loop
      vertex 0.948536019444745 -0.0727556871905332 0.308198035247811
      vertex 0.586227498639836 0.425919209572942 0.689151757387289
      vertex 0.948536019456349 0.308198034910762 0.0727556867697042
    endloop
  endfacet
  facet normal -0.8506508077915624 -0.27639320259605316 -0.44721359635218993
    outer loop
      vertex 0.586227498639836 0.425919209572942 0.689151757387289
      vertex 0.948536019444745 -0.0727556871905332 0.308198035247811
      vertex 0.724617039107957 -2.91804699286042e-11 0.689151757387289
    endloop
  endfacet
  facet normal -0.49999999988819627 -0.16245984839056019 -0.8506508083654066
    outer loop
      vertex 0.362308519403959 -0.11772117426166 0.92459410571646
      vertex 0.586227498639836 0.425919209572942 0.689151757387289
      vertex 0.724617039107957 -2.91804699286042e-11 0.689151757387289
    endloop
  endfacet
  facet normal -0.4999999998702915 -0.1624598484015813 -0.850650808373826
    outer loop
      vertex 0.586227498639836 0.425919209572942 0.689151757387289
      vertex 0.362308519403959 -0.11772117426166 0.92459410571646
      vertex 0.223918978941093 0.308198035280143 0.92459410571646
    endloop
  endfacet
  facet normal -0.8090169939300478 0.26286555510607157 -0.5257311132805113
    outer loop
      vertex 0.948536019444745 -0.0727556871905332 0.308198035247811
      vertex 0.586227499326116 -0.42591920964373 0.689151757387289
      vertex 0.724617039107957 -2.91804699286042e-11 0.689151757387289
    endloop
  endfacet
  facet normal -0.8090169940977324 0.2628655560837481 -0.525731112533633
    outer loop
      vertex 0.586227499326116 -0.42591920964373 0.689151757387289
      vertex 0.948536019444745 -0.0727556871905332 0.308198035247811
      vertex 0.810146479273572 -0.498674896576793 0.308198035213155
    endloop
  endfacet
  facet normal -0.5773502691437382 0.1875924734928759 -0.794654472464906
    outer loop
      vertex 0.586227499326116 -0.42591920964373 0.689151757387289
      vertex 0.362308519403959 -0.11772117426166 0.92459410571646
      vertex 0.724617039107957 -2.91804699286042e-11 0.689151757387289
    endloop
  endfacet
  facet normal -0.5257311122114106 0.7236067973995585 -0.4472135959584721
    outer loop
      vertex 0.223918979751085 -0.924594106295716 0.30819803529636
      vertex 0.586227499326116 -0.42591920964373 0.689151757387289
      vertex 0.810146479273572 -0.498674896576793 0.308198035213155
    endloop
  endfacet
  facet normal -0.5257311125085522 0.7236067973767668 -0.44721359564603896
    outer loop
      vertex 0.586227499326116 -0.42591920964373 0.689151757387289
      vertex 0.223918979751085 -0.924594106295716 0.30819803529636
      vertex 0.22391897980059 -0.689151757668433 0.689151757387289
    endloop
  endfacet
  facet normal -0.5257311127157153 0.7236067980936742 -0.4472135942425235
    outer loop
      vertex 0.223918979751085 -0.924594106295716 0.30819803529636
      vertex 0.810146479273572 -0.498674896576793 0.308198035213155
      vertex 0.586227499674315 -0.806872931497531 0.0727556866789723
    endloop
  endfacet
  facet normal -0.3090169944083815 0.4253254036876231 -0.8506508085840928
    outer loop
      vertex 0.22391897980059 -0.689151757668433 0.689151757387289
      vertex 0.362308519403959 -0.11772117426166 0.92459410571646
      vertex 0.586227499326116 -0.42591920964373 0.689151757387289
    endloop
  endfacet
  facet normal -0.3090169935375394 0.42532540362082677 -0.8506508089338428
    outer loop
      vertex 0.362308519403959 -0.11772117426166 0.92459410571646
      vertex 0.22391897980059 -0.689151757668433 0.689151757387289
      vertex 1.34438831545362e-10 -0.380953721892937 0.924594105469935
    endloop
  endfacet
  facet normal 0.30901699378331343 0.9510565164873871 9.819175931896691e-10
    outer loop
      vertex 1.16505896028432e-11 -0.997349792578876 -0.0727556870217536
      vertex -0.586227499512168 -0.806872932063635 0.0727556869095775
      vertex -0.223918979534821 -0.924594106311171 0.308198035271352
    endloop
  endfacet
  facet normal 0.30901699342388583 0.9510565166041723 -6.189970272962371e-10
    outer loop
      vertex -0.586227499512168 -0.806872932063635 0.0727556869095775
      vertex 1.16505896028432e-11 -0.997349792578876 -0.0727556870217536
      vertex -0.362308519781581 -0.879628618938864 -0.308198035134949
    endloop
  endfacet
  facet normal -2.342205648034454e-11 0.9822469466688158 -0.18759247255630637
    outer loop
      vertex 0.223918979751085 -0.924594106295716 0.30819803529636
      vertex 1.16505896028432e-11 -0.997349792578876 -0.0727556870217536
      vertex -0.223918979534821 -0.924594106311171 0.308198035271352
    endloop
  endfacet
  facet normal 0.934172359360197 0.30353099881198653 -0.18759247257712847
    outer loop
      vertex -0.948536018816947 -0.308198035053134 -0.0727556871269686
      vertex -0.948536019210901 -0.0727556869602728 0.308198035213155
      vertex -0.810146479144428 -0.498674896699662 0.308198035262522
    endloop
  endfacet
  facet normal 0.809016994982533 0.5877852514562033 1.3036109992430635e-9
    outer loop
      vertex -0.586227499512168 -0.806872932063635 0.0727556869095775
      vertex -0.948536018816947 -0.308198035053134 -0.0727556871269686
      vertex -0.810146479144428 -0.498674896699662 0.308198035262522
    endloop
  endfacet
  facet normal 0.8090169949825329 0.5877852514562034 1.3036116375408934e-9
    outer loop
      vertex -0.948536018816947 -0.308198035053134 -0.0727556871269686
      vertex -0.586227499512168 -0.806872932063635 0.0727556869095775
      vertex -0.724617039225706 -0.616396070360649 -0.308198035308061
    endloop
  endfacet
  facet normal 1 -2.497095112777256e-10 4.0639361303939144e-10
    outer loop
      vertex -0.948536019210901 -0.0727556869602728 0.308198035213155
      vertex -0.948536018924066 0.0727556868103202 -0.308198035318151
      vertex -0.948536019020091 0.308198035269162 0.0727556867803315
    endloop
  endfacet
  facet normal 1 6.659433515968698e-10 6.225499325613728e-10
    outer loop
      vertex -0.948536018924066 0.0727556868103202 -0.308198035318151
      vertex -0.948536019210901 -0.0727556869602728 0.308198035213155
      vertex -0.948536018816947 -0.308198035053134 -0.0727556871269686
    endloop
  endfacet
  facet normal 0.5773502688915865 -0.7946544721598213 -0.1875924755612775
    outer loop
      vertex -0.586227499757242 0.806872931779895 -0.0727556866915761
      vertex -0.362308519620048 0.879628618246503 0.308198035213155
      vertex -0.724617039426481 0.616396070432454 0.308198035247811
    endloop
  endfacet
  facet normal 0.8090169947662734 -0.5877852517538591 -1.0764949663821714e-9
    outer loop
      vertex -0.948536019020091 0.308198035269162 0.0727556867803315
      vertex -0.586227499757242 0.806872931779895 -0.0727556866915761
      vertex -0.724617039426481 0.616396070432454 0.308198035247811
    endloop
  endfacet
  facet normal 0.8090169950555726 -0.5877852513556729 1.0084346973837976e-9
    outer loop
      vertex -0.586227499757242 0.806872931779895 -0.0727556866915761
      vertex -0.948536019020091 0.308198035269162 0.0727556867803315
      vertex -0.810146478700231 0.498674896357976 -0.308198035294707
    endloop
  endfacet
  facet normal 0.309016993652793 -0.9510565165297957 -8.797105983695261e-10
    outer loop
      vertex -0.586227499757242 0.806872931779895 -0.0727556866915761
      vertex 2.77534238510601e-10 0.997349792387848 0.0727556867697042
      vertex -0.362308519620048 0.879628618246503 0.308198035213155
    endloop
  endfacet
  facet normal 0.30901699304090174 -0.9510565167286112 1.8456930874495434e-9
    outer loop
      vertex 2.77534238510601e-10 0.997349792387848 0.0727556867697042
      vertex -0.586227499757242 0.806872931779895 -0.0727556866915761
      vertex -0.223918979312719 0.924594105166543 -0.308198035207051
    endloop
  endfacet
  facet normal -0.5773502691276934 -0.7946544719882777 -0.18759247556128586
    outer loop
      vertex 0.586227499873115 0.806872931874196 -0.0727556866915761
      vertex 0.72461703981705 0.616396070253117 0.308198035213155
      vertex 0.362308520081049 0.879628618164105 0.308198035247811
    endloop
  endfacet
  facet normal -0.3090169937783194 -0.9510565164890098 -1.122457514927367e-9
    outer loop
      vertex 2.77534238510601e-10 0.997349792387848 0.0727556867697042
      vertex 0.586227499873115 0.806872931874196 -0.0727556866915761
      vertex 0.362308520081049 0.879628618164105 0.308198035247811
    endloop
  endfacet
  facet normal -0.30901699377831865 -0.95105651648901 -1.1224539090030387e-9
    outer loop
      vertex 0.586227499873115 0.806872931874196 -0.0727556866915761
      vertex 2.77534238510601e-10 0.997349792387848 0.0727556867697042
      vertex 0.223918980064595 0.924594106099564 -0.30819803531575
    endloop
  endfacet
  facet normal -0.8090169949498532 -0.5877852515011831 1.9915612020162504e-10
    outer loop
      vertex 0.948536019456349 0.308198034910762 0.0727556867697042
      vertex 0.586227499873115 0.806872931874196 -0.0727556866915761
      vertex 0.810146479359297 0.49867489614537 -0.308198035462628
    endloop
  endfacet
  facet normal -0.8090169948001519 -0.5877852517072293 -8.797159753786053e-10
    outer loop
      vertex 0.586227499873115 0.806872931874196 -0.0727556866915761
      vertex 0.948536019456349 0.308198034910762 0.0727556867697042
      vertex 0.72461703981705 0.616396070253117 0.308198035213155
    endloop
  endfacet
  facet normal -0.9341723591935177 0.30353099927613303 -0.18759247265615261
    outer loop
      vertex 0.948536018920573 -0.308198035452167 -0.0727556871389931
      vertex 0.810146479273572 -0.498674896576793 0.308198035213155
      vertex 0.948536019444745 -0.0727556871905332 0.308198035247811
    endloop
  endfacet
  facet normal -1 6.37383541442483e-10 9.820220659527463e-10
    outer loop
      vertex 0.948536018932177 0.0727556865793432 -0.308198035445247
      vertex 0.948536019444745 -0.0727556871905332 0.308198035247811
      vertex 0.948536019456349 0.308198034910762 0.0727556867697042
    endloop
  endfacet
  facet normal -1 6.373831998453757e-10 9.82021985312608e-10
    outer loop
      vertex 0.948536019444745 -0.0727556871905332 0.308198035247811
      vertex 0.948536018932177 0.0727556865793432 -0.308198035445247
      vertex 0.948536018920573 -0.308198035452167 -0.0727556871389931
    endloop
  endfacet
  facet normal -0.8090169946510959 0.5877852519123874 1.1896979847299056e-10
    outer loop
      vertex 0.586227499674315 -0.806872931497531 0.0727556866789723
      vertex 0.948536018920573 -0.308198035452167 -0.0727556871389931
      vertex 0.724617039777466 -0.61639607025194 -0.308198035431535
    endloop
  endfacet
  facet normal -0.8090169945240413 0.5877852520872631 1.034630740292736e-9
    outer loop
      vertex 0.948536018920573 -0.308198035452167 -0.0727556871389931
      vertex 0.586227499674315 -0.806872931497531 0.0727556866789723
      vertex 0.810146479273572 -0.498674896576793 0.308198035213155
    endloop
  endfacet
  facet normal -0.3090169947094184 0.9510565161864774 1.701678504901459e-9
    outer loop
      vertex 0.586227499674315 -0.806872931497531 0.0727556866789723
      vertex 1.16505896028432e-11 -0.997349792578876 -0.0727556870217536
      vertex 0.223918979751085 -0.924594106295716 0.30819803529636
    endloop
  endfacet
  facet normal -0.3090169945241768 0.951056516246666 8.766003960809187e-10
    outer loop
      vertex 1.16505896028432e-11 -0.997349792578876 -0.0727556870217536
      vertex 0.586227499674315 -0.806872931497531 0.0727556866789723
      vertex 0.362308520101829 -0.87962861800872 -0.308198035574776
    endloop
  endfacet
  facet normal -3.9063585898766956e-10 0.8944271907941531 0.4472135959114834
    outer loop
      vertex 0.223918980021885 -0.689151756739457 -0.689151757795992
      vertex 1.16505896028432e-11 -0.997349792578876 -0.0727556870217536
      vertex 0.362308520101829 -0.87962861800872 -0.308198035574776
    endloop
  endfacet
  facet normal -1.552593157489818e-9 0.8944271909629954 0.4472135955737989
    outer loop
      vertex -0.223918979478824 -0.689151757815395 -0.689151757198877
      vertex 1.16505896028432e-11 -0.997349792578876 -0.0727556870217536
      vertex 0.223918980021885 -0.689151756739457 -0.689151757795992
    endloop
  endfacet
  facet normal -9.449585837269575e-10 0.8944271910512899 0.44721359539720995
    outer loop
      vertex 1.16505896028432e-11 -0.997349792578876 -0.0727556870217536
      vertex -0.223918979478824 -0.689151757815395 -0.689151757198877
      vertex -0.362308519781581 -0.879628618938864 -0.308198035134949
    endloop
  endfacet
  facet normal 0.5773502703736862 0.794654471196886 0.18759247507890262
    outer loop
      vertex -0.362308519781581 -0.879628618938864 -0.308198035134949
      vertex -0.724617039225706 -0.616396070360649 -0.308198035308061
      vertex -0.586227499512168 -0.806872932063635 0.0727556869095775
    endloop
  endfacet
  facet normal 0.934172358876328 -0.30353099916861886 0.18759247440965462
    outer loop
      vertex -0.948536018924066 0.0727556868103202 -0.308198035318151
      vertex -0.810146478700231 0.498674896357976 -0.308198035294707
      vertex -0.948536019020091 0.308198035269162 0.0727556867803315
    endloop
  endfacet
  facet normal 2.091935765548509e-9 -0.9822469464161636 0.18759247387921005
    outer loop
      vertex -0.223918979312719 0.924594105166543 -0.308198035207051
      vertex 0.223918980064595 0.924594106099564 -0.30819803531575
      vertex 2.77534238510601e-10 0.997349792387848 0.0727556867697042
    endloop
  endfacet
  facet normal -0.9341723592918302 -0.30353099784480536 0.1875924744825137
    outer loop
      vertex 0.810146479359297 0.49867489614537 -0.308198035462628
      vertex 0.948536018932177 0.0727556865793432 -0.308198035445247
      vertex 0.948536019456349 0.308198034910762 0.0727556867697042
    endloop
  endfacet
  facet normal -0.5773502691184486 0.794654472231301 0.18759247456027475
    outer loop
      vertex 0.724617039777466 -0.61639607025194 -0.308198035431535
      vertex 0.362308520101829 -0.87962861800872 -0.308198035574776
      vertex 0.586227499674315 -0.806872931497531 0.0727556866789723
    endloop
  endfacet
  facet normal 0.5000000002360653 0.6881909598551127 0.5257311123926692
    outer loop
      vertex -0.586227499210035 -0.425919209673801 -0.689151757236038
      vertex -0.362308519781581 -0.879628618938864 -0.308198035134949
      vertex -0.223918979478824 -0.689151757815395 -0.689151757198877
    endloop
  endfacet
  facet normal 0.5000000011661369 0.6881909597199654 0.5257311116850288
    outer loop
      vertex -0.362308519781581 -0.879628618938864 -0.308198035134949
      vertex -0.586227499210035 -0.425919209673801 -0.689151757236038
      vertex -0.724617039225706 -0.616396070360649 -0.308198035308061
    endloop
  endfacet
  facet normal 1.0757646142054353e-10 0.5257311121813653 0.8506508083135786
    outer loop
      vertex -0.223918979309157 -0.308198035567975 -0.924594105602598
      vertex 0.223918980021885 -0.689151756739457 -0.689151757795992
      vertex 0.223918980054626 -0.308198034620178 -0.924594106245004
    endloop
  endfacet
  facet normal -1.2888065071572867e-10 0.5257311119802227 0.8506508084378916
    outer loop
      vertex 0.223918980021885 -0.689151756739457 -0.689151757795992
      vertex -0.223918979309157 -0.308198035567975 -0.924594105602598
      vertex -0.223918979478824 -0.689151757815395 -0.689151757198877
    endloop
  endfacet
  facet normal 0.3568220898995287 0.4911234729182708 0.7946544724019547
    outer loop
      vertex -0.223918979309157 -0.308198035567975 -0.924594105602598
      vertex -0.586227499210035 -0.425919209673801 -0.689151757236038
      vertex -0.223918979478824 -0.689151757815395 -0.689151757198877
    endloop
  endfacet
  facet normal 4.877170686645133e-9 -1.6660611854008808e-9 1
    outer loop
      vertex -1.48194183162529e-9 0.380953723836188 -0.924594104004744
      vertex 0.223918980054626 -0.308198034620178 -0.924594106245004
      vertex 0.362308520187559 0.117721174648374 -0.924594106210346
    endloop
  endfacet
  facet normal 1.4344608501307672e-9 -2.7846654272952006e-9 1
    outer loop
      vertex -1.48194183162529e-9 0.380953723836188 -0.924594104004744
      vertex -0.223918979309157 -0.308198035567975 -0.924594105602598
      vertex 0.223918980054626 -0.308198034620178 -0.924594106245004
    endloop
  endfacet
  facet normal -3.746302213403477e-9 -1.1013334852066085e-9 1
    outer loop
      vertex -0.223918979309157 -0.308198035567975 -0.924594105602598
      vertex -1.48194183162529e-9 0.380953723836188 -0.924594104004744
      vertex -0.362308519337384 0.117721174053708 -0.924594105651968
    endloop
  endfacet
  facet normal 0.49999999992997324 0.16245984797887011 0.8506508084194768
    outer loop
      vertex -0.362308519337384 0.117721174053708 -0.924594105651968
      vertex -0.586227499210035 -0.425919209673801 -0.689151757236038
      vertex -0.223918979309157 -0.308198035567975 -0.924594105602598
    endloop
  endfacet
  facet normal 0.4999999999120678 0.1624598479898915 0.8506508084278963
    outer loop
      vertex -0.586227499210035 -0.425919209673801 -0.689151757236038
      vertex -0.362308519337384 0.117721174053708 -0.924594105651968
      vertex -0.724617039214228 -1.06338454066687e-10 -0.689151757297611
    endloop
  endfacet
  facet normal 0.30901699512283715 -0.42532540519334233 0.8506508075716919
    outer loop
      vertex -0.223918981444935 0.689151758442088 -0.689151755035009
      vertex -0.362308519337384 0.117721174053708 -0.924594105651968
      vertex -1.48194183162529e-9 0.380953723836188 -0.924594104004744
    endloop
  endfacet
  facet normal 0.30901699284553946 -0.42532540501866656 0.8506508084863067
    outer loop
      vertex -0.362308519337384 0.117721174053708 -0.924594105651968
      vertex -0.223918981444935 0.689151758442088 -0.689151755035009
      vertex -0.586227498963112 0.425919209444659 -0.689151757328118
    endloop
  endfacet
  facet normal 0.5773502690353253 -0.18759247406484406 0.7946544724086492
    outer loop
      vertex -0.586227498963112 0.425919209444659 -0.689151757328118
      vertex -0.724617039214228 -1.06338454066687e-10 -0.689151757297611
      vertex -0.362308519337384 0.117721174053708 -0.924594105651968
    endloop
  endfacet
  facet normal 0.52573111096663 -0.7236067972456942 0.447213597670757
    outer loop
      vertex -0.810146478700231 0.498674896357976 -0.308198035294707
      vertex -0.223918979312719 0.924594105166543 -0.308198035207051
      vertex -0.586227499757242 0.806872931779895 -0.0727556866915761
    endloop
  endfacet
  facet normal 0.5257311115863709 -0.7236067980986941 0.4472135955620253
    outer loop
      vertex -0.586227498963112 0.425919209444659 -0.689151757328118
      vertex -0.223918979312719 0.924594105166543 -0.308198035207051
      vertex -0.810146478700231 0.498674896357976 -0.308198035294707
    endloop
  endfacet
  facet normal 0.5257311148748381 -0.7236067978464583 0.44721359210432604
    outer loop
      vertex -0.223918979312719 0.924594105166543 -0.308198035207051
      vertex -0.586227498963112 0.425919209444659 -0.689151757328118
      vertex -0.223918981444935 0.689151758442088 -0.689151755035009
    endloop
  endfacet
  facet normal 0.8090169942148581 -0.2628655561083852 0.5257311123410765
    outer loop
      vertex -0.948536018924066 0.0727556868103202 -0.308198035318151
      vertex -0.586227498963112 0.425919209444659 -0.689151757328118
      vertex -0.810146478700231 0.498674896357976 -0.308198035294707
    endloop
  endfacet
  facet normal 0.8090169942117998 -0.26286555609055456 0.525731112354698
    outer loop
      vertex -0.586227498963112 0.425919209444659 -0.689151757328118
      vertex -0.948536018924066 0.0727556868103202 -0.308198035318151
      vertex -0.724617039214228 -1.06338454066687e-10 -0.689151757297611
    endloop
  endfacet
  facet normal -0.5000000000389375 0.6881909601239791 0.5257311122281983
    outer loop
      vertex 0.586227499721553 -0.425919208996009 -0.689151757598796
      vertex 0.362308520101829 -0.87962861800872 -0.308198035574776
      vertex 0.724617039777466 -0.61639607025194 -0.308198035431535
    endloop
  endfacet
  facet normal -0.5000000000568511 0.688190960121376 0.5257311122145689
    outer loop
      vertex 0.362308520101829 -0.87962861800872 -0.308198035574776
      vertex 0.586227499721553 -0.425919208996009 -0.689151757598796
      vertex 0.223918980021885 -0.689151756739457 -0.689151757795992
    endloop
  endfacet
  facet normal -0.35682209011034194 0.4911234732010248 0.7946544721325421
    outer loop
      vertex 0.586227499721553 -0.425919208996009 -0.689151757598796
      vertex 0.223918980054626 -0.308198034620178 -0.924594106245004
      vertex 0.223918980021885 -0.689151756739457 -0.689151757795992
    endloop
  endfacet
  facet normal -0.5000000004833027 0.16245984823160534 0.8506508080459695
    outer loop
      vertex 0.362308520187559 0.117721174648374 -0.924594106210346
      vertex 0.586227499721553 -0.425919208996009 -0.689151757598796
      vertex 0.724617039842057 2.14550854985303e-10 -0.689151757551934
    endloop
  endfacet
  facet normal -0.5000000004653921 0.1624598482426302 0.8506508080543917
    outer loop
      vertex 0.586227499721553 -0.425919208996009 -0.689151757598796
      vertex 0.362308520187559 0.117721174648374 -0.924594106210346
      vertex 0.223918980054626 -0.308198034620178 -0.924594106245004
    endloop
  endfacet
  facet normal -0.3090169939231684 -0.4253254050642459 0.8506508080720453
    outer loop
      vertex 0.223918979494449 0.689151757092125 -0.68915175761314
      vertex 0.362308520187559 0.117721174648374 -0.924594106210346
      vertex 0.586227499780278 0.42591920959609 -0.689151757705265
    endloop
  endfacet
  facet normal -0.3090169895216068 -0.42532540472663233 0.850650809839813
    outer loop
      vertex 0.362308520187559 0.117721174648374 -0.924594106210346
      vertex 0.223918979494449 0.689151757092125 -0.68915175761314
      vertex -1.48194183162529e-9 0.380953723836188 -0.924594104004744
    endloop
  endfacet
  facet normal -0.5773502698065954 -0.18759247390426986 0.7946544718861948
    outer loop
      vertex 0.724617039842057 2.14550854985303e-10 -0.689151757551934
      vertex 0.586227499780278 0.42591920959609 -0.689151757705265
      vertex 0.362308520187559 0.117721174648374 -0.924594106210346
    endloop
  endfacet
  facet normal -0.5257311124805257 -0.7236067973306759 0.4472135957535628
    outer loop
      vertex 0.223918980064595 0.924594106099564 -0.30819803531575
      vertex 0.810146479359297 0.49867489614537 -0.308198035462628
      vertex 0.586227499873115 0.806872931874196 -0.0727556866915761
    endloop
  endfacet
  facet normal -0.5257311105500785 -0.7236067978094284 0.4472135972483017
    outer loop
      vertex 0.586227499780278 0.42591920959609 -0.689151757705265
      vertex 0.223918980064595 0.924594106099564 -0.30819803531575
      vertex 0.223918979494449 0.689151757092125 -0.68915175761314
    endloop
  endfacet
  facet normal -0.5257311127080974 -0.7236067976439015 0.44721359497922636
    outer loop
      vertex 0.223918980064595 0.924594106099564 -0.30819803531575
      vertex 0.586227499780278 0.42591920959609 -0.689151757705265
      vertex 0.810146479359297 0.49867489614537 -0.308198035462628
    endloop
  endfacet
  facet normal -0.8090169949688384 -0.2628655550551745 0.5257311117074255
    outer loop
      vertex 0.586227499780278 0.42591920959609 -0.689151757705265
      vertex 0.948536018932177 0.0727556865793432 -0.308198035445247
      vertex 0.810146479359297 0.49867489614537 -0.308198035462628
    endloop
  endfacet
  facet normal -0.8090169951277144 -0.26286555598149264 0.5257311109997814
    outer loop
      vertex 0.948536018932177 0.0727556865793432 -0.308198035445247
      vertex 0.586227499780278 0.42591920959609 -0.689151757705265
      vertex 0.724617039842057 2.14550854985303e-10 -0.689151757551934
    endloop
  endfacet
  facet normal 2.74476959401413e-9 -0.6070619986776149 0.7946544719320087
    outer loop
      vertex 0.223918979494449 0.689151757092125 -0.68915175761314
      vertex -0.223918981444935 0.689151758442088 -0.689151755035009
      vertex -1.48194183162529e-9 0.380953723836188 -0.924594104004744
    endloop
  endfacet
  facet normal 1.899842547721783e-9 -0.8506508086215914 0.52573111168299
    outer loop
      vertex -0.223918981444935 0.689151758442088 -0.689151755035009
      vertex 0.223918980064595 0.924594106099564 -0.30819803531575
      vertex -0.223918979312719 0.924594105166543 -0.308198035207051
    endloop
  endfacet
  facet normal 4.623469162555276e-10 -0.8506508078658551 0.525731112905797
    outer loop
      vertex 0.223918980064595 0.924594106099564 -0.30819803531575
      vertex -0.223918981444935 0.689151758442088 -0.689151755035009
      vertex 0.223918979494449 0.689151757092125 -0.68915175761314
    endloop
  endfacet
  facet normal 5.504779278313686e-10 1.7886112145420114e-10 -1
    outer loop
      vertex 1.34438831545362e-10 -0.380953721892937 0.924594105469935
      vertex 0.223918978941093 0.308198035280143 0.92459410571646
      vertex 0.362308519403959 -0.11772117426166 0.92459410571646
    endloop
  endfacet
  facet normal -2.2311766669807575e-15 3.5772296686838403e-10 -1
    outer loop
      vertex 1.34438831545362e-10 -0.380953721892937 0.924594105469935
      vertex -0.223918980231666 0.308198035266493 0.924594105716461
      vertex 0.223918978941093 0.308198035280143 0.92459410571646
    endloop
  endfacet
  facet normal 5.482046584430494e-10 5.358461835301135e-10 -1
    outer loop
      vertex -0.223918980231666 0.308198035266493 0.924594105716461
      vertex 1.34438831545362e-10 -0.380953721892937 0.924594105469935
      vertex -0.362308519725219 -0.117721174031588 0.924594105412368
    endloop
  endfacet
  facet normal 0.8506508084155382 0.27639320231709424 0.44721359533772365
    outer loop
      vertex -0.586227499210035 -0.425919209673801 -0.689151757236038
      vertex -0.948536018924066 0.0727556868103202 -0.308198035318151
      vertex -0.948536018816947 -0.308198035053134 -0.0727556871269686
    endloop
  endfacet
  facet normal 0.8506508083215064 0.2763932019288234 0.44721359575654734
    outer loop
      vertex -0.948536018924066 0.0727556868103202 -0.308198035318151
      vertex -0.586227499210035 -0.425919209673801 -0.689151757236038
      vertex -0.724617039214228 -1.06338454066687e-10 -0.689151757297611
    endloop
  endfacet
  facet normal 0.8506508083800086 0.2763932025242468 0.44721359527727733
    outer loop
      vertex -0.586227499210035 -0.425919209673801 -0.689151757236038
      vertex -0.948536018816947 -0.308198035053134 -0.0727556871269686
      vertex -0.724617039225706 -0.616396070360649 -0.308198035308061
    endloop
  endfacet
  facet normal -0.8506508086955652 0.27639320240041004 0.44721359475358846
    outer loop
      vertex 0.586227499721553 -0.425919208996009 -0.689151757598796
      vertex 0.948536018932177 0.0727556865793432 -0.308198035445247
      vertex 0.724617039842057 2.14550854985303e-10 -0.689151757551934
    endloop
  endfacet
  facet normal -0.8506508086019204 0.2763932020137369 0.44721359517068865
    outer loop
      vertex 0.948536018932177 0.0727556865793432 -0.308198035445247
      vertex 0.586227499721553 -0.425919208996009 -0.689151757598796
      vertex 0.948536018920573 -0.308198035452167 -0.0727556871389931
    endloop
  endfacet
  facet normal -0.8506508086380786 0.27639320180291815 0.4472135952322046
    outer loop
      vertex 0.948536018920573 -0.308198035452167 -0.0727556871389931
      vertex 0.586227499721553 -0.425919208996009 -0.689151757598796
      vertex 0.724617039777466 -0.61639607025194 -0.308198035431535
    endloop
  endfacet
endsolid OpenSCAD_Model
