solid OpenSCAD_Model
  facet normal 0.577350269177079 0.577350269099318 -0.5773502692924802
    outer loop
      vertex -0.215739405205292 -0.520840997885448 0.825942590790524
      vertex -0.825942590797657 -0.21573940511317 0.520840997990328
      vertex -0.520840998041117 -0.21573940500853 0.825942590790524
    endloop
  endfacet
  facet normal 0.577350269177079 0.5773502690993083 -0.5773502692924899
    outer loop
      vertex -0.215739405205292 -0.520840997885448 0.825942590790524
      vertex -0.825942590838199 -0.520840997934174 0.215739405230869
      vertex -0.825942590797657 -0.21573940511317 0.520840997990328
    endloop
  endfacet
  facet normal 0.5773502691770759 0.5773502690993148 -0.5773502692924867
    outer loop
      vertex -0.21573940518592 -0.825942590802547 0.520840997994879
      vertex -0.825942590838199 -0.520840997934174 0.215739405230869
      vertex -0.215739405205292 -0.520840997885448 0.825942590790524
    endloop
  endfacet
  facet normal 0.5773502691770759 0.5773502690993148 -0.5773502692924866
    outer loop
      vertex -0.825942590838199 -0.520840997934174 0.215739405230869
      vertex -0.21573940518592 -0.825942590802547 0.520840997994879
      vertex -0.520840998070192 -0.825942590746631 0.215739405227512
    endloop
  endfacet
  facet normal 4.332455989070057e-18 0.707106781045806 -0.7071067813272889
    outer loop
      vertex 0.215739405173518 -0.825942590783175 0.520840998014251
      vertex -0.215739405205292 -0.520840997885448 0.825942590790524
      vertex 0.215739405220286 -0.520840997885448 0.825942590790524
    endloop
  endfacet
  facet normal 1.1273778739473266e-17 0.7071067810458059 -0.7071067813272891
    outer loop
      vertex -0.215739405205292 -0.520840997885448 0.825942590790524
      vertex 0.215739405173518 -0.825942590783175 0.520840998014251
      vertex -0.21573940518592 -0.825942590802547 0.520840997994879
    endloop
  endfacet
  facet normal 0 0 -1
    outer loop
      vertex 0.215739405220286 -0.520840997885448 0.825942590790524
      vertex 0.52084099803674 0.215739405323511 0.825942590790524
      vertex 0.520840998017366 -0.215739405102066 0.825942590790524
    endloop
  endfacet
  facet normal 0 0 -1
    outer loop
      vertex 0.215739405220286 -0.520840997885448 0.825942590790524
      vertex 0.215739405267054 0.520840998134291 0.825942590790524
      vertex 0.52084099803674 0.215739405323511 0.825942590790524
    endloop
  endfacet
  facet normal 0 0 -1
    outer loop
      vertex -0.215739405205292 -0.520840997885448 0.825942590790524
      vertex 0.215739405267054 0.520840998134291 0.825942590790524
      vertex 0.215739405220286 -0.520840997885448 0.825942590790524
    endloop
  endfacet
  facet normal 0 0 -1
    outer loop
      vertex -0.215739405205292 -0.520840997885448 0.825942590790524
      vertex -0.215739405158524 0.520840998173037 0.825942590790524
      vertex 0.215739405267054 0.520840998134291 0.825942590790524
    endloop
  endfacet
  facet normal 0 0 -1
    outer loop
      vertex -0.520840998041117 -0.21573940500853 0.825942590790524
      vertex -0.215739405158524 0.520840998173037 0.825942590790524
      vertex -0.215739405205292 -0.520840997885448 0.825942590790524
    endloop
  endfacet
  facet normal 0 0 -1
    outer loop
      vertex -0.215739405158524 0.520840998173037 0.825942590790524
      vertex -0.520840998041117 -0.21573940500853 0.825942590790524
      vertex -0.520840997983001 0.215739405417047 0.825942590790524
    endloop
  endfacet
  facet normal 0.7071067812888874 -9.524051806950766e-11 -0.7071067810842078
    outer loop
      vertex -0.520840998041117 -0.21573940500853 0.825942590790524
      vertex -0.825942590729074 0.215739405438772 0.520840997956136
      vertex -0.520840997983001 0.215739405417047 0.825942590790524
    endloop
  endfacet
  facet normal 0.7071067812371364 -1.68427340438056e-10 -0.7071067811359586
    outer loop
      vertex -0.825942590729074 0.215739405438772 0.520840997956136
      vertex -0.520840998041117 -0.21573940500853 0.825942590790524
      vertex -0.825942590797657 -0.21573940511317 0.520840997990328
    endloop
  endfacet
  facet normal 0.5773502691884271 -0.5773502693180363 -0.5773502690624138
    outer loop
      vertex -0.825942590642765 0.520840998240206 0.21573940510593
      vertex -0.215739405056397 0.825942590934926 0.520840997995678
      vertex -0.215739405158524 0.520840998173037 0.825942590790524
    endloop
  endfacet
  facet normal 0.5773502691884272 -0.577350269318038 -0.5773502690624122
    outer loop
      vertex -0.215739405056397 0.825942590934926 0.520840997995678
      vertex -0.825942590642765 0.520840998240206 0.21573940510593
      vertex -0.520840997794563 0.825942590972465 0.21573940515338
    endloop
  endfacet
  facet normal 0.577350269188429 -0.5773502693180287 -0.5773502690624195
    outer loop
      vertex -0.825942590729074 0.215739405438772 0.520840997956136
      vertex -0.215739405158524 0.520840998173037 0.825942590790524
      vertex -0.520840997983001 0.215739405417047 0.825942590790524
    endloop
  endfacet
  facet normal 0.5773502691884291 -0.5773502693180325 -0.5773502690624158
    outer loop
      vertex -0.215739405158524 0.520840998173037 0.825942590790524
      vertex -0.825942590729074 0.215739405438772 0.520840997956136
      vertex -0.825942590642765 0.520840998240206 0.21573940510593
    endloop
  endfacet
  facet normal -6.349688231818166e-11 -0.7071067812247385 -0.7071067811483568
    outer loop
      vertex -0.215739405056397 0.825942590934926 0.520840997995678
      vertex 0.215739405267054 0.520840998134291 0.825942590790524
      vertex -0.215739405158524 0.520840998173037 0.825942590790524
    endloop
  endfacet
  facet normal -1.5421721220742725e-10 -0.7071067812888874 -0.7071067810842078
    outer loop
      vertex 0.215739405267054 0.520840998134291 0.825942590790524
      vertex -0.215739405056397 0.825942590934926 0.520840997995678
      vertex 0.21573940527508 0.825942590880365 0.520840997956135
    endloop
  endfacet
  facet normal -0.5773502692921127 -0.5773502692143496 -0.5773502690624148
    outer loop
      vertex 0.825942590822472 0.52084099797325 0.21573940515338
      vertex 0.21573940527508 0.825942590880365 0.520840997956135
      vertex 0.520840998076514 0.825942590807752 0.21573940510593
    endloop
  endfacet
  facet normal -0.5773502692921127 -0.5773502692143485 -0.5773502690624162
    outer loop
      vertex 0.825942590822472 0.52084099797325 0.21573940515338
      vertex 0.215739405267054 0.520840998134291 0.825942590790524
      vertex 0.21573940527508 0.825942590880365 0.520840997956135
    endloop
  endfacet
  facet normal -0.5773502692921127 -0.5773502692143486 -0.5773502690624162
    outer loop
      vertex 0.825942590798629 0.215739405235084 0.520840997995678
      vertex 0.215739405267054 0.520840998134291 0.825942590790524
      vertex 0.825942590822472 0.52084099797325 0.21573940515338
    endloop
  endfacet
  facet normal -0.5773502692921126 -0.5773502692143496 -0.577350269062415
    outer loop
      vertex 0.215739405267054 0.520840998134291 0.825942590790524
      vertex 0.825942590798629 0.215739405235084 0.520840997995678
      vertex 0.52084099803674 0.215739405323511 0.825942590790524
    endloop
  endfacet
  facet normal -0.7071067812247384 1.2246885943299877e-10 -0.7071067811483567
    outer loop
      vertex 0.825942590763441 -0.215739405096392 0.520840997956135
      vertex 0.52084099803674 0.215739405323511 0.825942590790524
      vertex 0.825942590798629 0.215739405235084 0.520840997995678
    endloop
  endfacet
  facet normal -0.7071067812888863 3.174999303813146e-11 -0.7071067810842088
    outer loop
      vertex 0.52084099803674 0.215739405323511 0.825942590790524
      vertex 0.825942590763441 -0.215739405096392 0.520840997956135
      vertex 0.520840998017366 -0.215739405102066 0.825942590790524
    endloop
  endfacet
  facet normal -0.5773502692402707 0.5773502692661907 -0.5773502690624162
    outer loop
      vertex 0.215739405220286 -0.520840997885448 0.825942590790524
      vertex 0.825942590763441 -0.215739405096392 0.520840997956135
      vertex 0.825942590704527 -0.520840997897826 0.21573940510593
    endloop
  endfacet
  facet normal -0.5773502692402706 0.5773502692661917 -0.577350269062415
    outer loop
      vertex 0.825942590763441 -0.215739405096392 0.520840997956135
      vertex 0.215739405220286 -0.520840997885448 0.825942590790524
      vertex 0.520840998017366 -0.215739405102066 0.825942590790524
    endloop
  endfacet
  facet normal -0.5773502693553054 0.5773502693812306 -0.5773502688323415
    outer loop
      vertex 0.215739405173518 -0.825942590783175 0.520840998014251
      vertex 0.825942590704527 -0.520840997897826 0.21573940510593
      vertex 0.52084099788372 -0.825942590657483 0.21573940515338
    endloop
  endfacet
  facet normal -0.5773502693553054 0.5773502690361212 -0.5773502691774509
    outer loop
      vertex 0.825942590704527 -0.520840997897826 0.21573940510593
      vertex 0.215739405173518 -0.825942590783175 0.520840998014251
      vertex 0.215739405220286 -0.520840997885448 0.825942590790524
    endloop
  endfacet
  facet normal -4.489663925964357e-11 1 3.6707109641152485e-10
    outer loop
      vertex 0.52084099788372 -0.825942590657483 0.21573940515338
      vertex -0.21573940518592 -0.825942590802547 0.520840997994879
      vertex 0.215739405173518 -0.825942590783175 0.520840998014251
    endloop
  endfacet
  facet normal -8.558084196892452e-11 1 2.6885074249243833e-10
    outer loop
      vertex 0.52084099788372 -0.825942590657483 0.21573940515338
      vertex -0.520840998070192 -0.825942590746631 0.215739405227512
      vertex -0.21573940518592 -0.825942590802547 0.520840997994879
    endloop
  endfacet
  facet normal -8.558084206837654e-11 1 -1.1286209266762884e-9
    outer loop
      vertex 0.520840997863747 -0.825942591144459 -0.215739405451975
      vertex -0.520840998070192 -0.825942590746631 0.215739405227512
      vertex 0.52084099788372 -0.825942590657483 0.21573940515338
    endloop
  endfacet
  facet normal 3.2372838288115046e-10 1 -1.404610452486115e-10
    outer loop
      vertex 0.520840997863747 -0.825942591144459 -0.215739405451975
      vertex -0.520840998162942 -0.825942590807237 -0.215739405242807
      vertex -0.520840998070192 -0.825942590746631 0.215739405227512
    endloop
  endfacet
  facet normal 3.237283828811511e-10 1 -1.4045811864983403e-10
    outer loop
      vertex 0.21573940498555 -0.825942591088543 -0.520840998158194
      vertex -0.520840998162942 -0.825942590807237 -0.215739405242807
      vertex 0.520840997863747 -0.825942591144459 -0.215739405451975
    endloop
  endfacet
  facet normal 3.23728371582106e-10 1 -1.4045814592814187e-10
    outer loop
      vertex -0.520840998162942 -0.825942590807237 -0.215739405242807
      vertex 0.21573940498555 -0.825942591088543 -0.520840998158194
      vertex -0.215739405442825 -0.825942590948861 -0.520840998051865
    endloop
  endfacet
  facet normal 1 -7.317762357484879e-12 2.75568571323502e-10
    outer loop
      vertex -0.825942590729074 0.215739405438772 0.520840997956136
      vertex -0.825942590523863 0.520840998215806 -0.215739405364385
      vertex -0.825942590642765 0.520840998240206 0.21573940510593
    endloop
  endfacet
  facet normal 1 -7.32881510847566e-12 2.755639931241409e-10
    outer loop
      vertex -0.825942590729074 0.215739405438772 0.520840997956136
      vertex -0.825942590442024 0.215739405412853 -0.520840998090607
      vertex -0.825942590523863 0.520840998215806 -0.215739405364385
    endloop
  endfacet
  facet normal 1 -1.5894851713816953e-10 2.7556399312791345e-10
    outer loop
      vertex -0.825942590797657 -0.21573940511317 0.520840997990328
      vertex -0.825942590442024 0.215739405412853 -0.520840998090607
      vertex -0.825942590729074 0.215739405438772 0.520840997956136
    endloop
  endfacet
  facet normal 1 -7.31908337920327e-12 3.3837096105593537e-10
    outer loop
      vertex -0.825942590797657 -0.21573940511317 0.520840997990328
      vertex -0.825942590445182 -0.215739405015523 -0.520840998079786
      vertex -0.825942590442024 0.215739405412853 -0.520840998090607
    endloop
  endfacet
  facet normal 1 -4.712513363476118e-10 3.3837096101244645e-10
    outer loop
      vertex -0.825942590838199 -0.520840997934174 0.215739405230869
      vertex -0.825942590445182 -0.215739405015523 -0.520840998079786
      vertex -0.825942590797657 -0.21573940511317 0.520840997990328
    endloop
  endfacet
  facet normal 1 -1.7952339210647021e-9 -2.1004058208337266e-10
    outer loop
      vertex -0.825942590445182 -0.215739405015523 -0.520840998079786
      vertex -0.825942590838199 -0.520840997934174 0.215739405230869
      vertex -0.825942590928827 -0.520840997996898 -0.215739405197709
    endloop
  endfacet
  facet normal -1.2645096361147055e-10 -1 3.4129859441378276e-12
    outer loop
      vertex -0.520840997794563 0.825942590972465 0.21573940515338
      vertex 0.21573940527508 0.825942590880365 0.520840997956135
      vertex -0.215739405056397 0.825942590934926 0.520840997995678
    endloop
  endfacet
  facet normal -1.5812217322501481e-10 -1 7.987404971160604e-11
    outer loop
      vertex -0.520840997794563 0.825942590972465 0.21573940515338
      vertex 0.520840998076514 0.825942590807752 0.21573940510593
      vertex 0.21573940527508 0.825942590880365 0.520840997956135
    endloop
  endfacet
  facet normal -1.5812217322585396e-10 -1 6.145148208578458e-11
    outer loop
      vertex -0.520840997677782 0.82594259094595 -0.215739405275193
      vertex 0.520840998076514 0.825942590807752 0.21573940510593
      vertex -0.520840997794563 0.825942590972465 0.21573940515338
    endloop
  endfacet
  facet normal -2.4680853866756373e-10 -1 2.7555930830305273e-10
    outer loop
      vertex -0.520840997677782 0.82594259094595 -0.215739405275193
      vertex 0.520840998052113 0.825942590688854 -0.215739405364385
      vertex 0.520840998076514 0.825942590807752 0.21573940510593
    endloop
  endfacet
  facet normal -2.4680853860877853e-10 -1 9.621168632103534e-10
    outer loop
      vertex -0.215739405179216 0.825942590577105 -0.520840998079786
      vertex 0.520840998052113 0.825942590688854 -0.215739405364385
      vertex -0.520840997677782 0.82594259094595 -0.215739405275193
    endloop
  endfacet
  facet normal 3.757086588621599e-11 -1 2.755642478361016e-10
    outer loop
      vertex 0.520840998052113 0.825942590688854 -0.215739405364385
      vertex -0.215739405179216 0.825942590577105 -0.520840998079786
      vertex 0.215739405249161 0.825942590593316 -0.520840998090607
    endloop
  endfacet
  facet normal -1 1.102561447129853e-9 6.146074486415549e-11
    outer loop
      vertex 0.825942590440808 0.215739405357904 -0.520840998079786
      vertex 0.825942590822472 0.52084099797325 0.21573940515338
      vertex 0.825942590795953 0.520840997856466 -0.215739405275193
    endloop
  endfacet
  facet normal -1 4.2165096723055347e-10 3.4350310023210467e-10
    outer loop
      vertex 0.825942590440808 0.215739405357904 -0.520840998079786
      vertex 0.825942590798629 0.215739405235084 0.520840997995678
      vertex 0.825942590822472 0.52084099797325 0.21573940515338
    endloop
  endfacet
  facet normal -1 -8.245824208991594e-11 3.435031001726674e-10
    outer loop
      vertex 0.825942590476387 -0.215739405070473 -0.520840998090607
      vertex 0.825942590798629 0.215739405235084 0.520840997995678
      vertex 0.825942590440808 0.215739405357904 -0.520840998079786
    endloop
  endfacet
  facet normal -1 8.15520085819572e-11 2.755678300002968e-10
    outer loop
      vertex 0.825942590476387 -0.215739405070473 -0.520840998090607
      vertex 0.825942590763441 -0.215739405096392 0.520840997956135
      vertex 0.825942590798629 0.215739405235084 0.520840997995678
    endloop
  endfacet
  facet normal -1 -8.247049440983018e-11 2.755678299962156e-10
    outer loop
      vertex 0.825942590585625 -0.520840997873428 -0.215739405364385
      vertex 0.825942590763441 -0.215739405096392 0.520840997956135
      vertex 0.825942590476387 -0.215739405070473 -0.520840998090607
    endloop
  endfacet
  facet normal -1 -8.247228411996187e-11 2.755685713184247e-10
    outer loop
      vertex 0.825942590763441 -0.215739405096392 0.520840997956135
      vertex 0.825942590585625 -0.520840997873428 -0.215739405364385
      vertex 0.825942590704527 -0.520840997897826 0.21573940510593
    endloop
  endfacet
  facet normal 0.7071067812380565 0.7071067811350386 -2.513129741217364e-10
    outer loop
      vertex -0.520840998070192 -0.825942590746631 0.215739405227512
      vertex -0.825942590928827 -0.520840997996898 -0.215739405197709
      vertex -0.825942590838199 -0.520840997934174 0.215739405230869
    endloop
  endfacet
  facet normal 0.707106781238061 0.7071067811350341 -2.5131957966508285e-10
    outer loop
      vertex -0.825942590928827 -0.520840997996898 -0.215739405197709
      vertex -0.520840998070192 -0.825942590746631 0.215739405227512
      vertex -0.520840998162942 -0.825942590807237 -0.215739405242807
    endloop
  endfacet
  facet normal 0.7071067810521922 -0.7071067813209028 2.348333048181819e-10
    outer loop
      vertex -0.825942590642765 0.520840998240206 0.21573940510593
      vertex -0.520840997677782 0.82594259094595 -0.215739405275193
      vertex -0.520840997794563 0.825942590972465 0.21573940515338
    endloop
  endfacet
  facet normal 0.7071067810521993 -0.7071067813208959 2.348431829024439e-10
    outer loop
      vertex -0.520840997677782 0.82594259094595 -0.215739405275193
      vertex -0.825942590642765 0.520840998240206 0.21573940510593
      vertex -0.825942590523863 0.520840998215806 -0.215739405364385
    endloop
  endfacet
  facet normal -0.7071067812891575 -0.7071067810839375 2.3483808680750517e-10
    outer loop
      vertex 0.825942590795953 0.520840997856466 -0.215739405275193
      vertex 0.520840998076514 0.825942590807752 0.21573940510593
      vertex 0.520840998052113 0.825942590688854 -0.215739405364385
    endloop
  endfacet
  facet normal -0.7071067812891528 -0.7071067810839423 2.348447571924118e-10
    outer loop
      vertex 0.520840998076514 0.825942590807752 0.21573940510593
      vertex 0.825942590795953 0.520840997856466 -0.215739405275193
      vertex 0.825942590822472 0.52084099797325 0.21573940515338
    endloop
  endfacet
  facet normal -0.707106781822909 0.7071067805501859 2.3483990223838156e-10
    outer loop
      vertex 0.520840997863747 -0.825942591144459 -0.215739405451975
      vertex 0.825942590704527 -0.520840997897826 0.21573940510593
      vertex 0.825942590585625 -0.520840997873428 -0.215739405364385
    endloop
  endfacet
  facet normal -0.7071067811156865 0.7071067812574086 -7.653239216449692e-10
    outer loop
      vertex 0.825942590704527 -0.520840997897826 0.21573940510593
      vertex 0.520840997863747 -0.825942591144459 -0.215739405451975
      vertex 0.52084099788372 -0.825942590657483 0.21573940515338
    endloop
  endfacet
  facet normal -0.5773502695820478 0.5773502700649775 0.5773502679218521
    outer loop
      vertex 0.215739404993716 -0.520840998304918 -0.825942590960961
      vertex 0.825942590476387 -0.215739405070473 -0.520840998090607
      vertex 0.520840997840538 -0.215739405595991 -0.825942591078271
    endloop
  endfacet
  facet normal -0.5773502695820478 0.5773502688174563 0.5773502691693732
    outer loop
      vertex 0.215739404993716 -0.520840998304918 -0.825942590960961
      vertex 0.825942590585625 -0.520840997873428 -0.215739405364385
      vertex 0.825942590476387 -0.215739405070473 -0.520840998090607
    endloop
  endfacet
  facet normal -0.577350269447517 0.577350269086518 0.5773502690348423
    outer loop
      vertex 0.21573940498555 -0.825942591088543 -0.520840998158194
      vertex 0.825942590585625 -0.520840997873428 -0.215739405364385
      vertex 0.215739404993716 -0.520840998304918 -0.825942590960961
    endloop
  endfacet
  facet normal -0.577350269447517 0.5773502682425945 0.5773502698787659
    outer loop
      vertex 0.825942590585625 -0.520840997873428 -0.215739405364385
      vertex 0.21573940498555 -0.825942591088543 -0.520840998158194
      vertex 0.520840997863747 -0.825942591144459 -0.215739405451975
    endloop
  endfacet
  facet normal 4.0316221531420815e-10 0.7071067812087295 0.7071067811643654
    outer loop
      vertex 0.215739404993716 -0.520840998304918 -0.825942590960961
      vertex -0.215739405442825 -0.825942590948861 -0.520840998051865
      vertex 0.21573940498555 -0.825942591088543 -0.520840998158194
    endloop
  endfacet
  facet normal 4.031593383403626e-10 0.7071067812087316 0.7071067811643634
    outer loop
      vertex -0.215739405442825 -0.825942590948861 -0.520840998051865
      vertex 0.215739404993716 -0.520840998304918 -0.825942590960961
      vertex -0.215739405452512 -0.520840998180008 -0.825942590839862
    endloop
  endfacet
  facet normal 0.5773502697774381 0.5773502683441619 0.5773502694472772
    outer loop
      vertex -0.215739405452512 -0.520840998180008 -0.825942590839862
      vertex -0.825942590445182 -0.215739405015523 -0.520840998079786
      vertex -0.825942590928827 -0.520840997996898 -0.215739405197709
    endloop
  endfacet
  facet normal 0.5773502697774382 0.5773502672876428 0.5773502705037963
    outer loop
      vertex -0.825942590445182 -0.215739405015523 -0.520840998079786
      vertex -0.215739405452512 -0.520840998180008 -0.825942590839862
      vertex -0.52084099732331 -0.215739405009991 -0.825942590823345
    endloop
  endfacet
  facet normal 0.5773502693915471 0.577350269222086 0.577350268955244
    outer loop
      vertex -0.215739405442825 -0.825942590948861 -0.520840998051865
      vertex -0.825942590928827 -0.520840997996898 -0.215739405197709
      vertex -0.520840998162942 -0.825942590807237 -0.215739405242807
    endloop
  endfacet
  facet normal 0.5773502693915472 0.5773502691159438 0.5773502690613864
    outer loop
      vertex -0.825942590928827 -0.520840997996898 -0.215739405197709
      vertex -0.215739405442825 -0.825942590948861 -0.520840998051865
      vertex -0.215739405452512 -0.520840998180008 -0.825942590839862
    endloop
  endfacet
  facet normal 0.7071067807481554 1.2558081554253612e-11 0.7071067816249399
    outer loop
      vertex -0.825942590445182 -0.215739405015523 -0.520840998079786
      vertex -0.520840997404681 0.215739405337582 -0.825942590749636
      vertex -0.825942590442024 0.215739405412853 -0.520840998090607
    endloop
  endfacet
  facet normal 0.7071067807481562 1.25566258394707e-11 0.7071067816249387
    outer loop
      vertex -0.520840997404681 0.215739405337582 -0.825942590749636
      vertex -0.825942590445182 -0.215739405015523 -0.520840998079786
      vertex -0.52084099732331 -0.215739405009991 -0.825942590823345
    endloop
  endfacet
  facet normal 0.5773502690206118 -0.5773502694087816 0.5773502691394837
    outer loop
      vertex -0.825942590523863 0.520840998215806 -0.215739405364385
      vertex -0.215739405179216 0.825942590577105 -0.520840998079786
      vertex -0.520840997677782 0.82594259094595 -0.215739405275193
    endloop
  endfacet
  facet normal 0.5773502690206118 -0.5773502676455405 0.577350270902725
    outer loop
      vertex -0.825942590523863 0.520840998215806 -0.215739405364385
      vertex -0.215739405159985 0.520840997073517 -0.825942589881341
      vertex -0.215739405179216 0.825942590577105 -0.520840998079786
    endloop
  endfacet
  facet normal 0.5773502680349054 -0.5773502696169533 0.5773502699170187
    outer loop
      vertex -0.825942590442024 0.215739405412853 -0.520840998090607
      vertex -0.215739405159985 0.520840997073517 -0.825942589881341
      vertex -0.825942590523863 0.520840998215806 -0.215739405364385
    endloop
  endfacet
  facet normal 0.5773502680349054 -0.5773502706407381 0.5773502688932338
    outer loop
      vertex -0.215739405159985 0.520840997073517 -0.825942589881341
      vertex -0.825942590442024 0.215739405412853 -0.520840998090607
      vertex -0.520840997404681 0.215739405337582 -0.825942590749636
    endloop
  endfacet
  facet normal 4.430008996485977e-11 -0.7071067792142224 0.7071067831588727
    outer loop
      vertex -0.215739405159985 0.520840997073517 -0.825942589881341
      vertex 0.215739405249161 0.825942590593316 -0.520840998090607
      vertex -0.215739405179216 0.825942590577105 -0.520840998079786
    endloop
  endfacet
  facet normal 4.429986522983913e-11 -0.7071067792142224 0.7071067831588728
    outer loop
      vertex 0.215739405249161 0.825942590593316 -0.520840998090607
      vertex -0.215739405159985 0.520840997073517 -0.825942589881341
      vertex 0.215739405385681 0.520840997034188 -0.825942589947702
    endloop
  endfacet
  facet normal -0.5773502691930773 -0.577350267706673 0.5773502706691268
    outer loop
      vertex 0.825942590795953 0.520840997856466 -0.215739405275193
      vertex 0.215739405249161 0.825942590593316 -0.520840998090607
      vertex 0.215739405385681 0.520840997034188 -0.825942589947702
    endloop
  endfacet
  facet normal -0.5773502691930773 -0.5773502688567361 0.5773502695190638
    outer loop
      vertex 0.215739405249161 0.825942590593316 -0.520840998090607
      vertex 0.825942590795953 0.520840997856466 -0.215739405275193
      vertex 0.520840998052113 0.825942590688854 -0.215739405364385
    endloop
  endfacet
  facet normal -0.5773502682365725 -0.577350267812632 0.5773502715196728
    outer loop
      vertex 0.825942590440808 0.215739405357904 -0.520840998079786
      vertex 0.215739405385681 0.520840997034188 -0.825942589947702
      vertex 0.520840996937224 0.215739405324974 -0.825942589881341
    endloop
  endfacet
  facet normal -0.5773502682365725 -0.5773502696196827 0.577350269712622
    outer loop
      vertex 0.215739405385681 0.520840997034188 -0.825942589947702
      vertex 0.825942590440808 0.215739405357904 -0.520840998079786
      vertex 0.825942590795953 0.520840997856466 -0.215739405275193
    endloop
  endfacet
  facet normal -0.7071067792142269 -3.441876454874234e-9 0.7071067831588682
    outer loop
      vertex 0.520840997840538 -0.215739405595991 -0.825942591078271
      vertex 0.825942590440808 0.215739405357904 -0.520840998079786
      vertex 0.520840996937224 0.215739405324974 -0.825942589881341
    endloop
  endfacet
  facet normal -0.7071067815942326 -7.60402371993582e-11 0.7071067807788625
    outer loop
      vertex 0.825942590440808 0.215739405357904 -0.520840998079786
      vertex 0.520840997840538 -0.215739405595991 -0.825942591078271
      vertex 0.825942590476387 -0.215739405070473 -0.520840998090607
    endloop
  endfacet
  facet normal -2.991522726499901e-9 -2.7740180327881227e-9 1
    outer loop
      vertex 0.215739405385681 0.520840997034188 -0.825942589947702
      vertex 0.520840997840538 -0.215739405595991 -0.825942591078271
      vertex 0.520840996937224 0.215739405324974 -0.825942589881341
    endloop
  endfacet
  facet normal 1.3572090377702689e-9 -9.727143574526165e-10 1
    outer loop
      vertex 0.215739405385681 0.520840997034188 -0.825942589947702
      vertex 0.215739404993716 -0.520840998304918 -0.825942590960961
      vertex 0.520840997840538 -0.215739405595991 -0.825942591078271
    endloop
  endfacet
  facet normal 1.5379904209394017e-10 -9.72714356999796e-10 1
    outer loop
      vertex -0.215739405159985 0.520840997073517 -0.825942589881341
      vertex 0.215739404993716 -0.520840998304918 -0.825942590960961
      vertex 0.215739405385681 0.520840997034188 -0.825942589947702
    endloop
  endfacet
  facet normal 2.8066040939703254e-10 -9.201666581231118e-10 1
    outer loop
      vertex -0.215739405159985 0.520840997073517 -0.825942589881341
      vertex -0.215739405452512 -0.520840998180008 -0.825942590839862
      vertex 0.215739404993716 -0.520840998304918 -0.825942590960961
    endloop
  endfacet
  facet normal -1.925754586515982e-9 -9.201666575035023e-10 1
    outer loop
      vertex -0.520840997404681 0.215739405337582 -0.825942590749636
      vertex -0.215739405452512 -0.520840998180008 -0.825942590839862
      vertex -0.215739405159985 0.520840997073517 -0.825942589881341
    endloop
  endfacet
  facet normal -1.1669251739269457e-10 -1.7082861566321457e-10 1
    outer loop
      vertex -0.215739405452512 -0.520840998180008 -0.825942590839862
      vertex -0.520840997404681 0.215739405337582 -0.825942590749636
      vertex -0.52084099732331 -0.215739405009991 -0.825942590823345
    endloop
  endfacet
endsolid OpenSCAD_Model
