solid OpenSCAD_Model
  facet normal 0.3568220894460845 0.4911234726641472 -0.794654472762621
    outer loop
      vertex -0.344261187962615 -0.697549412348455 0.628417798797295
      vertex -0.131496058009894 -0.404703333986748 0.904944124041698
      vertex -0.131496057998086 -0.628417830915805 0.76668096139828
    endloop
  endfacet
  facet normal 0.35682208944608534 0.4911234726641466 -0.794654472762621
    outer loop
      vertex -0.344261187962615 -0.697549412348455 0.628417798797295
      vertex -0.344261187928634 -0.250120418600845 0.904944124041698
      vertex -0.131496058009894 -0.404703333986748 0.904944124041698
    endloop
  endfacet
  facet normal 0.35682208944607646 0.49112347266414835 -0.7946544727626239
    outer loop
      vertex -0.557026317800241 -0.542966497042221 0.628417798784482
      vertex -0.344261187928634 -0.250120418600845 0.904944124041698
      vertex -0.344261187962615 -0.697549412348455 0.628417798797295
    endloop
  endfacet
  facet normal 0.3568220894460811 0.49112347266414513 -0.7946544727626239
    outer loop
      vertex -0.344261187928634 -0.250120418600845 0.904944124041698
      vertex -0.557026317800241 -0.542966497042221 0.628417798784482
      vertex -0.557026317748208 -0.319252000221639 0.766680961389524
    endloop
  endfacet
  facet normal 3.564012249967367e-15 0.5257311114730289 -0.8506508087513547
    outer loop
      vertex -0.131496057998086 -0.628417830915805 0.76668096139828
      vertex 0.13149610575229 -0.404703333986748 0.904944124041698
      vertex 0.13149610567618 -0.628417830861106 0.766680961432087
    endloop
  endfacet
  facet normal 0 0.5257311114730319 -0.8506508087513528
    outer loop
      vertex 0.13149610575229 -0.404703333986748 0.904944124041698
      vertex -0.131496057998086 -0.628417830915805 0.76668096139828
      vertex -0.131496058009894 -0.404703333986748 0.904944124041698
    endloop
  endfacet
  facet normal 0 0 -1
    outer loop
      vertex 0.344261235626112 -0.25012041866267 0.904944124041698
      vertex 0.344261235648571 0.250120403499964 0.904944124041698
      vertex 0.42553028362505 -7.58500132620705e-9 0.904944124041698
    endloop
  endfacet
  facet normal 0 0 -1
    outer loop
      vertex 0.13149610575229 -0.404703333986748 0.904944124041698
      vertex 0.344261235648571 0.250120403499964 0.904944124041698
      vertex 0.344261235626112 -0.25012041866267 0.904944124041698
    endloop
  endfacet
  facet normal 0 0 -1
    outer loop
      vertex 0.13149610575229 -0.404703333986748 0.904944124041698
      vertex 0.131496105788631 0.404703318843147 0.904944124041698
      vertex 0.344261235648571 0.250120403499964 0.904944124041698
    endloop
  endfacet
  facet normal 0 0 -1
    outer loop
      vertex -0.131496058009894 -0.404703333986748 0.904944124041698
      vertex 0.131496105788631 0.404703318843147 0.904944124041698
      vertex 0.13149610575229 -0.404703333986748 0.904944124041698
    endloop
  endfacet
  facet normal 0 0 -1
    outer loop
      vertex -0.131496058009894 -0.404703333986748 0.904944124041698
      vertex -0.131496057973554 0.404703318866761 0.904944124041698
      vertex 0.131496105788631 0.404703318843147 0.904944124041698
    endloop
  endfacet
  facet normal 0 0 -1
    outer loop
      vertex -0.344261187928634 -0.250120418600845 0.904944124041698
      vertex -0.131496057973554 0.404703318866761 0.904944124041698
      vertex -0.131496058009894 -0.404703333986748 0.904944124041698
    endloop
  endfacet
  facet normal 0 0 -1
    outer loop
      vertex -0.344261187928634 -0.250120418600845 0.904944124041698
      vertex -0.344261187861257 0.250120403561788 0.904944124041698
      vertex -0.131496057973554 0.404703318866761 0.904944124041698
    endloop
  endfacet
  facet normal 0 0 -1
    outer loop
      vertex -0.344261187861257 0.250120403561788 0.904944124041698
      vertex -0.344261187928634 -0.250120418600845 0.904944124041698
      vertex -0.425530235882654 -7.50858106207684e-9 0.904944124041698
    endloop
  endfacet
  facet normal 0.49999999976318593 0.16245984796008964 -0.8506508085210984
    outer loop
      vertex -0.557026317748208 -0.319252000221639 0.766680961389524
      vertex -0.425530235882654 -7.50858106207684e-9 0.904944124041698
      vertex -0.344261187928634 -0.250120418600845 0.904944124041698
    endloop
  endfacet
  facet normal 0.5000000003969736 0.16245984756997017 -0.8506508082230737
    outer loop
      vertex -0.425530235882654 -7.50858106207684e-9 0.904944124041698
      vertex -0.557026317748208 -0.319252000221639 0.766680961389524
      vertex -0.638295365727725 -0.069131588845419 0.766680961253509
    endloop
  endfacet
  facet normal 0.5773502693752472 -0.18759247422563516 -0.7946544721237236
    outer loop
      vertex -0.688522399507945 0.361977651965656 0.628417798479656
      vertex -0.344261187861257 0.250120403561788 0.904944124041698
      vertex -0.425530235882654 -7.50858106207684e-9 0.904944124041698
    endloop
  endfacet
  facet normal 0.5773502693752519 -0.18759247422562836 -0.7946544721237219
    outer loop
      vertex -0.769791447556113 0.111857240903984 0.628417798458151
      vertex -0.425530235882654 -7.50858106207684e-9 0.904944124041698
      vertex -0.638295365727725 -0.069131588845419 0.766680961253509
    endloop
  endfacet
  facet normal 0.577350269375246 -0.18759247422563885 -0.7946544721237235
    outer loop
      vertex -0.344261187861257 0.250120403561788 0.904944124041698
      vertex -0.688522399507945 0.361977651965656 0.628417798479656
      vertex -0.47575726966157 0.431109233291317 0.766680961271428
    endloop
  endfacet
  facet normal 0.5773502693752509 -0.18759247422563127 -0.7946544721237218
    outer loop
      vertex -0.425530235882654 -7.50858106207684e-9 0.904944124041698
      vertex -0.769791447556113 0.111857240903984 0.628417798458151
      vertex -0.688522399507945 0.361977651965656 0.628417798479656
    endloop
  endfacet
  facet normal 0.30901699445177033 -0.42532540437813426 -0.8506508082230754
    outer loop
      vertex -0.344261187861257 0.250120403561788 0.904944124041698
      vertex -0.262992139824761 0.585692148560483 0.766680961253509
      vertex -0.131496057973554 0.404703318866761 0.904944124041698
    endloop
  endfacet
  facet normal 0.309016994378377 -0.4253254043725047 -0.8506508082525517
    outer loop
      vertex -0.262992139824761 0.585692148560483 0.766680961253509
      vertex -0.344261187861257 0.250120403561788 0.904944124041698
      vertex -0.47575726966157 0.431109233291317 0.766680961271428
    endloop
  endfacet
  facet normal -5.451795931546037e-11 -0.6070619984266565 -0.7946544721237238
    outer loop
      vertex 0.131496105788631 0.404703318843147 0.904944124041698
      vertex 0.131496105862034 0.76668097818821 0.628417798479656
      vertex 0.262992187703018 0.585692148489796 0.766680961271428
    endloop
  endfacet
  facet normal -5.450794278433386e-11 -0.6070619984266565 -0.7946544721237236
    outer loop
      vertex -0.131496057973554 0.404703318866761 0.904944124041698
      vertex 0.131496105862034 0.76668097818821 0.628417798479656
      vertex 0.131496105788631 0.404703318843147 0.904944124041698
    endloop
  endfacet
  facet normal -5.4502795914306994e-11 -0.607061998426659 -0.7946544721237219
    outer loop
      vertex -0.131496057973554 0.404703318866761 0.904944124041698
      vertex -0.131496057900149 0.766680978239972 0.628417798458151
      vertex 0.131496105862034 0.76668097818821 0.628417798479656
    endloop
  endfacet
  facet normal -5.451583443758656e-11 -0.607061998426659 -0.794654472123722
    outer loop
      vertex -0.131496057900149 0.766680978239972 0.628417798458151
      vertex -0.131496057973554 0.404703318866761 0.904944124041698
      vertex -0.262992139824761 0.585692148560483 0.766680961253509
    endloop
  endfacet
  facet normal -0.30901699457352083 -0.4253254042896825 -0.8506508082230727
    outer loop
      vertex 0.344261235648571 0.250120403499964 0.904944124041698
      vertex 0.262992187703018 0.585692148489796 0.766680961271428
      vertex 0.475757317513177 0.43110923318395 0.766680961253508
    endloop
  endfacet
  facet normal -0.3090169945001218 -0.42532540428405263 -0.8506508082525515
    outer loop
      vertex 0.262992187703018 0.585692148489796 0.766680961271428
      vertex 0.344261235648571 0.250120403499964 0.904944124041698
      vertex 0.131496105788631 0.404703318843147 0.904944124041698
    endloop
  endfacet
  facet normal -0.5773502694089417 -0.18759247412195176 -0.7946544721237194
    outer loop
      vertex 0.42553028362505 -7.58500132620705e-9 0.904944124041698
      vertex 0.769791495317104 0.111857240679241 0.628417798479653
      vertex 0.638295413444877 -0.0691315889964712 0.766680961271428
    endloop
  endfacet
  facet normal -0.5773502694089439 -0.18759247412194538 -0.7946544721237195
    outer loop
      vertex 0.769791495317104 0.111857240679241 0.628417798479653
      vertex 0.42553028362505 -7.58500132620705e-9 0.904944124041698
      vertex 0.688522447367397 0.361977651772904 0.628417798458151
    endloop
  endfacet
  facet normal -0.5773502694089385 -0.1875924741219511 -0.794654472123722
    outer loop
      vertex 0.344261235648571 0.250120403499964 0.904944124041698
      vertex 0.688522447367397 0.361977651772904 0.628417798458151
      vertex 0.42553028362505 -7.58500132620705e-9 0.904944124041698
    endloop
  endfacet
  facet normal -0.5773502694089389 -0.18759247412194988 -0.794654472123722
    outer loop
      vertex 0.688522447367397 0.361977651772904 0.628417798458151
      vertex 0.344261235648571 0.250120403499964 0.904944124041698
      vertex 0.475757317513177 0.43110923318395 0.766680961253508
    endloop
  endfacet
  facet normal -0.5000000001299387 0.16245984823747692 -0.8506508082525504
    outer loop
      vertex 0.557026365466068 -0.319252000015257 0.766680961253509
      vertex 0.42553028362505 -7.58500132620705e-9 0.904944124041698
      vertex 0.638295413444877 -0.0691315889964712 0.766680961271428
    endloop
  endfacet
  facet normal -0.50000000019262 0.1624598481988942 -0.8506508082230757
    outer loop
      vertex 0.42553028362505 -7.58500132620705e-9 0.904944124041698
      vertex 0.557026365466068 -0.319252000015257 0.766680961253509
      vertex 0.344261235626112 -0.25012041866267 0.904944124041698
    endloop
  endfacet
  facet normal -0.35682208989357106 0.4911234733727893 -0.794654472123722
    outer loop
      vertex 0.344261235626112 -0.25012041866267 0.904944124041698
      vertex 0.557026365426685 -0.542966496707526 0.628417798458151
      vertex 0.344261235536316 -0.697549412008833 0.628417798479656
    endloop
  endfacet
  facet normal -0.356822089893561 0.49112347337279666 -0.7946544721237221
    outer loop
      vertex 0.557026365426685 -0.542966496707526 0.628417798458151
      vertex 0.344261235626112 -0.25012041866267 0.904944124041698
      vertex 0.557026365466068 -0.319252000015257 0.766680961253509
    endloop
  endfacet
  facet normal -0.35682209127125036 0.491123472371844 -0.7946544721237238
    outer loop
      vertex 0.13149610575229 -0.404703333986748 0.904944124041698
      vertex 0.344261235536316 -0.697549412008833 0.628417798479656
      vertex 0.13149610567618 -0.628417830861106 0.766680961432087
    endloop
  endfacet
  facet normal -0.356822089893566 0.4911234733727904 -0.7946544721237238
    outer loop
      vertex 0.344261235536316 -0.697549412008833 0.628417798479656
      vertex 0.13149610575229 -0.404703333986748 0.904944124041698
      vertex 0.344261235626112 -0.25012041866267 0.904944124041698
    endloop
  endfacet
  facet normal -1.7314528680858238e-9 0.8944271907841426 -0.44721359593150445
    outer loop
      vertex 0.131496105341957 -0.990395490730345 0.0427256425668506
      vertex 0.13149610567618 -0.628417830861106 0.766680961432087
      vertex 0.344261235536316 -0.697549412008833 0.628417798479656
    endloop
  endfacet
  facet normal -1.285413305691094e-10 0.8944271907841425 -0.4472135959315045
    outer loop
      vertex 0.13149610567618 -0.628417830861106 0.766680961432087
      vertex 0.131496105341957 -0.990395490730345 0.0427256425668506
      vertex -0.131496057998086 -0.628417830915805 0.76668096139828
    endloop
  endfacet
  facet normal 1.7458487858568803e-9 0.8944271904937982 -0.44721359651219367
    outer loop
      vertex 0.344261235307063 -0.921263909312916 0.180988805137394
      vertex 0.344261235536316 -0.697549412008833 0.628417798479656
      vertex 0.425530283447439 -0.80940666086304 0.404703301721455
    endloop
  endfacet
  facet normal -1.9042484578204579e-10 0.8944271907751503 -0.44721359594948884
    outer loop
      vertex -0.131496058426489 -0.99039549071136 0.0427256427168035
      vertex -0.131496057998086 -0.628417830915805 0.76668096139828
      vertex 0.131496105341957 -0.990395490730345 0.0427256425668506
    endloop
  endfacet
  facet normal 2.666720528439524e-10 0.894427190493798 -0.4472135965121936
    outer loop
      vertex 0.344261235536316 -0.697549412008833 0.628417798479656
      vertex 0.344261235307063 -0.921263909312916 0.180988805137394
      vertex 0.131496105341957 -0.990395490730345 0.0427256425668506
    endloop
  endfacet
  facet normal -1.9041303302695795e-10 0.8944271907751504 -0.44721359594948895
    outer loop
      vertex -0.131496057998086 -0.628417830915805 0.76668096139828
      vertex -0.131496058426489 -0.99039549071136 0.0427256427168035
      vertex -0.344261187962615 -0.697549412348455 0.628417798797295
    endloop
  endfacet
  facet normal -1.9040649078682668e-10 0.8944271907751513 -0.447213595949487
    outer loop
      vertex -0.34426118821916 -0.921263909263207 0.180988805529973
      vertex -0.344261187962615 -0.697549412348455 0.628417798797295
      vertex -0.131496058426489 -0.99039549071136 0.0427256427168035
    endloop
  endfacet
  facet normal -1.9043256760633238e-10 0.8944271907751514 -0.44721359594948695
    outer loop
      vertex -0.344261187962615 -0.697549412348455 0.628417798797295
      vertex -0.34426118821916 -0.921263909263207 0.180988805529973
      vertex -0.42553023609062 -0.809406660809319 0.404703302191264
    endloop
  endfacet
  facet normal 0.49999999979862214 0.6881909599031896 -0.5257311127457691
    outer loop
      vertex -0.42553023609062 -0.809406660809319 0.404703302191264
      vertex -0.557026317800241 -0.542966497042221 0.628417798784482
      vertex -0.344261187962615 -0.697549412348455 0.628417798797295
    endloop
  endfacet
  facet normal 0.4999999997986286 0.6881909599031886 -0.5257311127457641
    outer loop
      vertex -0.557026317800241 -0.542966497042221 0.628417798784482
      vertex -0.42553023609062 -0.809406660809319 0.404703302191264
      vertex -0.638295365923641 -0.654823745492648 0.40470330219649
    endloop
  endfacet
  facet normal 0.5773502691524589 0.7946544721626504 -0.18759247474641116
    outer loop
      vertex -0.34426118821916 -0.921263909263207 0.180988805529973
      vertex -0.638295365923641 -0.654823745492648 0.40470330219649
      vertex -0.42553023609062 -0.809406660809319 0.404703302191264
    endloop
  endfacet
  facet normal 0.5773502695669203 0.7946544720279838 -0.18759247404128734
    outer loop
      vertex -0.34426118821916 -0.921263909263207 0.180988805529973
      vertex -0.769791447814756 -0.61209807838258 0.180988805642657
      vertex -0.638295365923641 -0.654823745492648 0.40470330219649
    endloop
  endfacet
  facet normal 0.5773502695141495 0.7946544719553508 -0.18759247451137684
    outer loop
      vertex -0.475757270149149 -0.878538242276869 -0.0427256910865748
      vertex -0.769791447814756 -0.61209807838258 0.180988805642657
      vertex -0.34426118821916 -0.921263909263207 0.180988805529973
    endloop
  endfacet
  facet normal 0.5773502695141427 0.7946544719553531 -0.18759247451138825
    outer loop
      vertex -0.769791447814756 -0.61209807838258 0.180988805642657
      vertex -0.475757270149149 -0.878538242276869 -0.0427256910865748
      vertex -0.688522399972216 -0.723955326827411 -0.0427256910692567
    endloop
  endfacet
  facet normal 0.3090169946694928 0.9510565161994501 -2.3464801943291034e-10
    outer loop
      vertex -0.131496058426489 -0.99039549071136 0.0427256427168035
      vertex -0.475757270149149 -0.878538242276869 -0.0427256910865748
      vertex -0.34426118821916 -0.921263909263207 0.180988805529973
    endloop
  endfacet
  facet normal 0.3090169946694906 0.9510565161994505 -2.3463883031100744e-10
    outer loop
      vertex -0.475757270149149 -0.878538242276869 -0.0427256910865748
      vertex -0.131496058426489 -0.99039549071136 0.0427256427168035
      vertex -0.262992140365604 -0.947669823722055 -0.180988853931782
    endloop
  endfacet
  facet normal 1.7788323486681187e-10 0.9822469464689725 0.18759247360269932
    outer loop
      vertex 0.131496105070053 -0.90494415698169 -0.404703350901626
      vertex 0.131496105341957 -0.990395490730345 0.0427256425668506
      vertex 0.262992187099937 -0.947669823865241 -0.180988854243783
    endloop
  endfacet
  facet normal 1.7786852532635323e-10 0.9822469464689725 0.18759247360269932
    outer loop
      vertex 0.131496105341957 -0.990395490730345 0.0427256425668506
      vertex 0.131496105070053 -0.90494415698169 -0.404703350901626
      vertex -0.131496058426489 -0.99039549071136 0.0427256427168035
    endloop
  endfacet
  facet normal 1.7787301538375108e-10 0.982246946468972 0.1875924736027019
    outer loop
      vertex -0.131496058686052 -0.904944156968722 -0.404703350720161
      vertex -0.131496058426489 -0.99039549071136 0.0427256427168035
      vertex 0.131496105070053 -0.90494415698169 -0.404703350901626
    endloop
  endfacet
  facet normal 9.810444514298505e-10 0.982246946468972 0.18759247360270187
    outer loop
      vertex -0.131496058426489 -0.99039549071136 0.0427256427168035
      vertex -0.131496058686052 -0.904944156968722 -0.404703350720161
      vertex -0.262992140365604 -0.947669823722055 -0.180988853931782
    endloop
  endfacet
  facet normal -0.30901699429753976 0.9510565163203049 -2.707237102128352e-10
    outer loop
      vertex 0.475757317052735 -0.878538242451809 -0.0427256916873436
      vertex 0.131496105341957 -0.990395490730345 0.0427256425668506
      vertex 0.344261235307063 -0.921263909312916 0.180988805137394
    endloop
  endfacet
  facet normal -0.3090169942975421 0.9510565163203041 -2.707340712630714e-10
    outer loop
      vertex 0.131496105341957 -0.990395490730345 0.0427256425668506
      vertex 0.475757317052735 -0.878538242451809 -0.0427256916873436
      vertex 0.262992187099937 -0.947669823865241 -0.180988854243783
    endloop
  endfacet
  facet normal -0.577350264305641 0.794654475076407 -0.1875924773205116
    outer loop
      vertex 0.344261235307063 -0.921263909312916 0.180988805137394
      vertex 0.638295414479777 -0.654823746575016 0.404703301576378
      vertex 0.769791497066378 -0.612098080872227 0.180988805213672
    endloop
  endfacet
  facet normal -0.5773502643056473 0.7946544750764049 -0.18759247732050094
    outer loop
      vertex 0.638295414479777 -0.654823746575016 0.404703301576378
      vertex 0.344261235307063 -0.921263909312916 0.180988805137394
      vertex 0.425530283447439 -0.80940666086304 0.404703301721455
    endloop
  endfacet
  facet normal -0.5773502593526366 0.794654477915152 -0.18759248053917404
    outer loop
      vertex 0.475757317052735 -0.878538242451809 -0.0427256916873436
      vertex 0.769791497066378 -0.612098080872227 0.180988805213672
      vertex 0.688522448873693 -0.723955329311824 -0.0427256911658407
    endloop
  endfacet
  facet normal -0.5773502650282739 0.7946544760710257 -0.18759247088320352
    outer loop
      vertex 0.769791497066378 -0.612098080872227 0.180988805213672
      vertex 0.475757317052735 -0.878538242451809 -0.0427256916873436
      vertex 0.344261235307063 -0.921263909312916 0.180988805137394
    endloop
  endfacet
  facet normal -0.4999999945087828 0.6881909605698234 -0.5257311169040703
    outer loop
      vertex 0.425530283447439 -0.80940666086304 0.404703301721455
      vertex 0.557026365426685 -0.542966496707526 0.628417798458151
      vertex 0.638295414479777 -0.654823746575016 0.404703301576378
    endloop
  endfacet
  facet normal -0.4999999996244762 0.6881909598264695 -0.5257311130118192
    outer loop
      vertex 0.557026365426685 -0.542966496707526 0.628417798458151
      vertex 0.425530283447439 -0.80940666086304 0.404703301721455
      vertex 0.344261235536316 -0.697549412008833 0.628417798479656
    endloop
  endfacet
  facet normal 0.8506508085804508 0.27639320233082876 -0.4472135950155526
    outer loop
      vertex -0.638295365727725 -0.069131588845419 0.766680961253509
      vertex -0.901287529338599 0.154582907918049 0.404703301670066
      vertex -0.769791447556113 0.111857240903984 0.628417798458151
    endloop
  endfacet
  facet normal 0.8506508085804508 0.2763932023308274 -0.44721359501555336
    outer loop
      vertex -0.901287529338599 0.154582907918049 0.404703301670066
      vertex -0.638295365727725 -0.069131588845419 0.766680961253509
      vertex -0.982556577197955 0.0427256596027838 0.180988804939671
    endloop
  endfacet
  facet normal 0.850650808679871 0.2763932017511639 -0.4472135951846969
    outer loop
      vertex -0.557026317748208 -0.319252000221639 0.766680961389524
      vertex -0.982556577197955 0.0427256596027838 0.180988804939671
      vertex -0.638295365727725 -0.069131588845419 0.766680961253509
    endloop
  endfacet
  facet normal 0.850650808679871 0.27639320224624714 -0.44721359487871853
    outer loop
      vertex -0.982556577197955 0.0427256596027838 0.180988804939671
      vertex -0.557026317748208 -0.319252000221639 0.766680961389524
      vertex -0.982556577129898 -0.180988837064613 0.0427256421624187
    endloop
  endfacet
  facet normal 0.8506508088237469 0.27639320140738655 -0.44721359512349484
    outer loop
      vertex -0.557026317800241 -0.542966497042221 0.628417798784482
      vertex -0.982556577129898 -0.180988837064613 0.0427256421624187
      vertex -0.557026317748208 -0.319252000221639 0.766680961389524
    endloop
  endfacet
  facet normal 0.8506508088237469 0.2763932024098757 -0.4472135945039225
    outer loop
      vertex -0.982556577129898 -0.180988837064613 0.0427256421624187
      vertex -0.557026317800241 -0.542966497042221 0.628417798784482
      vertex -0.901287529144022 -0.431109248142258 0.0427256421527957
    endloop
  endfacet
  facet normal 0.8506508093163566 0.2763931995377403 -0.4472135953420003
    outer loop
      vertex -0.638295365923641 -0.654823745492648 0.40470330219649
      vertex -0.901287529144022 -0.431109248142258 0.0427256421527957
      vertex -0.557026317800241 -0.542966497042221 0.628417798784482
    endloop
  endfacet
  facet normal 0.8506508093163566 0.2763931962541543 -0.4472135973713681
    outer loop
      vertex -0.901287529144022 -0.431109248142258 0.0427256421527957
      vertex -0.638295365923641 -0.654823745492648 0.40470330219649
      vertex -0.769791447814756 -0.61209807838258 0.180988805642657
    endloop
  endfacet
  facet normal 0.8090169945554896 -0.2628655562811972 -0.5257311117304928
    outer loop
      vertex -0.688522399507945 0.361977651965656 0.628417798479656
      vertex -0.901287529338599 0.154582907918049 0.404703301670066
      vertex -0.820018481277471 0.404703318969162 0.404703301716795
    endloop
  endfacet
  facet normal 0.8090169945554899 -0.26286555628119956 -0.5257311117304909
    outer loop
      vertex -0.901287529338599 0.154582907918049 0.404703301670066
      vertex -0.688522399507945 0.361977651965656 0.628417798479656
      vertex -0.769791447556113 0.111857240903984 0.628417798458151
    endloop
  endfacet
  facet normal 0.9341723589895855 -0.30353099948679607 -0.18759247333083381
    outer loop
      vertex -0.982556576964662 0.180988822344133 -0.0427256916920879
      vertex -0.820018481009755 0.542966481710617 0.180988805160133
      vertex -0.820018481277471 0.404703318969162 0.404703301716795
    endloop
  endfacet
  facet normal 0.9341723589895855 -0.3035309994507443 -0.1875924733891668
    outer loop
      vertex -0.820018481009755 0.542966481710617 0.180988805160133
      vertex -0.982556576964662 0.180988822344133 -0.0427256916920879
      vertex -0.90128752887076 0.431109233425669 -0.0427256916275391
    endloop
  endfacet
  facet normal 0.9341723590037149 -0.3035309993832123 -0.18759247342807486
    outer loop
      vertex -0.982556577197955 0.0427256596027838 0.180988804939671
      vertex -0.820018481277471 0.404703318969162 0.404703301716795
      vertex -0.901287529338599 0.154582907918049 0.404703301670066
    endloop
  endfacet
  facet normal 0.9341723590037148 -0.3035309994192724 -0.18759247336972834
    outer loop
      vertex -0.820018481277471 0.404703318969162 0.404703301716795
      vertex -0.982556577197955 0.0427256596027838 0.180988804939671
      vertex -0.982556576964662 0.180988822344133 -0.0427256916920879
    endloop
  endfacet
  facet normal 1 -2.4623019320875695e-10 8.906368529788948e-10
    outer loop
      vertex -0.982556577197955 0.0427256596027838 0.180988804939671
      vertex -0.982556576896605 -0.0427256743150039 -0.18098885450703
      vertex -0.982556576964662 0.180988822344133 -0.0427256916920879
    endloop
  endfacet
  facet normal 1 -2.462301930224336e-10 8.906368529349099e-10
    outer loop
      vertex -0.982556576896605 -0.0427256743150039 -0.18098885450703
      vertex -0.982556577197955 0.0427256596027838 0.180988804939671
      vertex -0.982556577129898 -0.180988837064613 0.0427256421624187
    endloop
  endfacet
  facet normal 0.9341723597764483 0.303530996836168 0.18759247370122345
    outer loop
      vertex -0.82001848171864 -0.404703334218908 -0.404703351975376
      vertex -0.982556576896605 -0.0427256743150039 -0.18098885450703
      vertex -0.982556577129898 -0.180988837064613 0.0427256421624187
    endloop
  endfacet
  facet normal 0.9341723597764483 0.30353099934886174 0.1875924696355996
    outer loop
      vertex -0.982556576896605 -0.0427256743150039 -0.18098885450703
      vertex -0.82001848171864 -0.404703334218908 -0.404703351975376
      vertex -0.901287529644985 -0.154582923464191 -0.404703351739695
    endloop
  endfacet
  facet normal 0.9341723592841398 0.3035309991889021 0.18759247234601628
    outer loop
      vertex -0.820018481404414 -0.542966496538221 -0.180988855378471
      vertex -0.982556577129898 -0.180988837064613 0.0427256421624187
      vertex -0.901287529144022 -0.431109248142258 0.0427256421527957
    endloop
  endfacet
  facet normal 0.9341723592841397 0.3035309991889033 0.18759247234601426
    outer loop
      vertex -0.982556577129898 -0.180988837064613 0.0427256421624187
      vertex -0.820018481404414 -0.542966496538221 -0.180988855378471
      vertex -0.82001848171864 -0.404703334218908 -0.404703351975376
    endloop
  endfacet
  facet normal 0.8090169960194573 0.5877852500289994 9.397349733159332e-10
    outer loop
      vertex -0.688522399972216 -0.723955326827411 -0.0427256910692567
      vertex -0.901287529144022 -0.431109248142258 0.0427256421527957
      vertex -0.769791447814756 -0.61209807838258 0.180988805642657
    endloop
  endfacet
  facet normal 0.8090169959798437 0.587785250083523 6.542456700382045e-10
    outer loop
      vertex -0.901287529144022 -0.431109248142258 0.0427256421527957
      vertex -0.688522399972216 -0.723955326827411 -0.0427256910692567
      vertex -0.820018481404414 -0.542966496538221 -0.180988855378471
    endloop
  endfacet
  facet normal 0.5257311115760557 -0.7236067991296299 -0.4472135939060623
    outer loop
      vertex -0.131496056830041 0.904944139656651 0.404703302223636
      vertex -0.47575726966157 0.431109233291317 0.766680961271428
      vertex -0.688522399507945 0.361977651965656 0.628417798479656
    endloop
  endfacet
  facet normal 0.5257311149695079 -0.7236067988693415 -0.4472135903379757
    outer loop
      vertex -0.131496057900149 0.766680978239972 0.628417798458151
      vertex -0.47575726966157 0.431109233291317 0.766680961271428
      vertex -0.131496056830041 0.904944139656651 0.404703302223636
    endloop
  endfacet
  facet normal 0.5257311112763455 -0.7236067987509898 -0.4472135948710451
    outer loop
      vertex -0.262992138561281 0.947669807015912 0.18098880549929
      vertex -0.688522399507945 0.361977651965656 0.628417798479656
      vertex -0.820018481277471 0.404703318969162 0.404703301716795
    endloop
  endfacet
  facet normal 0.5257311121028602 -0.7236067979379113 -0.44721359521500786
    outer loop
      vertex -0.47575726966157 0.431109233291317 0.766680961271428
      vertex -0.131496057900149 0.766680978239972 0.628417798458151
      vertex -0.262992139824761 0.585692148560483 0.766680961253509
    endloop
  endfacet
  facet normal 0.5257311107924421 -0.7236067985937634 -0.4472135956943055
    outer loop
      vertex -0.475757268525959 0.878538226156881 0.0427256426562522
      vertex -0.820018481277471 0.404703318969162 0.404703301716795
      vertex -0.820018481009755 0.542966481710617 0.180988805160133
    endloop
  endfacet
  facet normal 0.5257311105760409 -0.7236067988047054 -0.4472135956073889
    outer loop
      vertex -0.688522399507945 0.361977651965656 0.628417798479656
      vertex -0.262992138561281 0.947669807015912 0.18098880549929
      vertex -0.131496056830041 0.904944139656651 0.404703302223636
    endloop
  endfacet
  facet normal 0.525731110792451 -0.7236067985937663 -0.44721359569429026
    outer loop
      vertex -0.475757268525959 0.878538226156881 0.0427256426562522
      vertex -0.820018481009755 0.542966481710617 0.180988805160133
      vertex -0.688522398778812 0.723955311138948 0.0427256426287169
    endloop
  endfacet
  facet normal 0.5257311107924504 -0.7236067985937628 -0.4472135956942969
    outer loop
      vertex -0.820018481277471 0.404703318969162 0.404703301716795
      vertex -0.475757268525959 0.878538226156881 0.0427256426562522
      vertex -0.262992138561281 0.947669807015912 0.18098880549929
    endloop
  endfacet
  facet normal 0.8090169935972145 -0.5877852533629306 1.1203119740649534e-9
    outer loop
      vertex -0.90128752887076 0.431109233425669 -0.0427256916275391
      vertex -0.688522398778812 0.723955311138948 0.0427256426287169
      vertex -0.820018481009755 0.542966481710617 0.180988805160133
    endloop
  endfacet
  facet normal 0.8090169935972159 -0.5877852533629285 1.1203015815488835e-9
    outer loop
      vertex -0.688522398778812 0.723955311138948 0.0427256426287169
      vertex -0.90128752887076 0.431109233425669 -0.0427256916275391
      vertex -0.769791446617968 0.612098062884076 -0.180988854243738
    endloop
  endfacet
  facet normal -1.2443572062080817e-10 -0.8506508101074681 -0.5257311092787913
    outer loop
      vertex -0.131496056830041 0.904944139656651 0.404703302223636
      vertex 0.131496105862034 0.76668097818821 0.628417798479656
      vertex -0.131496057900149 0.766680978239972 0.628417798458151
    endloop
  endfacet
  facet normal -2.494226246711815e-8 -0.8506508231549711 -0.5257310881674864
    outer loop
      vertex 0.131496105862034 0.76668097818821 0.628417798479656
      vertex -0.131496056830041 0.904944139656651 0.404703302223636
      vertex 0.131496105471812 0.904944132174008 0.404703301853669
    endloop
  endfacet
  facet normal -2.8210750230040953e-8 -0.982246949130529 -0.18759245966660545
    outer loop
      vertex -0.131496057218301 0.990395467294404 -0.0427256936992626
      vertex -0.131496056830041 0.904944139656651 0.404703302223636
      vertex -0.262992138561281 0.947669807015912 0.18098880549929
    endloop
  endfacet
  facet normal -2.821075032669585e-8 -0.9822469491305291 -0.18759245966660543
    outer loop
      vertex -0.131496056830041 0.904944139656651 0.404703302223636
      vertex -0.131496057218301 0.990395467294404 -0.0427256936992626
      vertex 0.131496105471812 0.904944132174008 0.404703301853669
    endloop
  endfacet
  facet normal -2.8210736543222603e-8 -0.9822469491305276 -0.18759245966661325
    outer loop
      vertex 0.131496105807753 0.990395459887295 -0.0427256944647117
      vertex 0.131496105471812 0.904944132174008 0.404703301853669
      vertex -0.131496057218301 0.990395467294404 -0.0427256936992626
    endloop
  endfacet
  facet normal -2.8210737462789453e-8 -0.9822469491305276 -0.18759245966661323
    outer loop
      vertex 0.131496105471812 0.904944132174008 0.404703301853669
      vertex 0.131496105807753 0.990395459887295 -0.0427256944647117
      vertex 0.262992187511499 0.947669792368185 0.180988803096614
    endloop
  endfacet
  facet normal 0.3090169809985264 -0.9510565206414159 1.9056317729502683e-8
    outer loop
      vertex -0.475757268525959 0.878538226156881 0.0427256426562522
      vertex -0.131496057218301 0.990395467294404 -0.0427256936992626
      vertex -0.262992138561281 0.947669807015912 0.18098880549929
    endloop
  endfacet
  facet normal 0.30901697374475395 -0.9510565229983095 -1.325245827724651e-8
    outer loop
      vertex -0.131496057218301 0.990395467294404 -0.0427256936992626
      vertex -0.475757268525959 0.878538226156881 0.0427256426562522
      vertex -0.344261186387647 0.921263893184888 -0.180988854190001
    endloop
  endfacet
  facet normal 0.5773502676332348 -0.7946544732024208 0.18759247501756388
    outer loop
      vertex -0.769791446617968 0.612098062884076 -0.180988854243738
      vertex -0.475757268525959 0.878538226156881 0.0427256426562522
      vertex -0.688522398778812 0.723955311138948 0.0427256426287169
    endloop
  endfacet
  facet normal 0.5773502683362677 -0.7946544729739915 0.1875924738214929
    outer loop
      vertex -0.769791446617968 0.612098062884076 -0.180988854243738
      vertex -0.344261186387647 0.921263893184888 -0.180988854190001
      vertex -0.475757268525959 0.878538226156881 0.0427256426562522
    endloop
  endfacet
  facet normal 0.5773502685152895 -0.7946544732203937 0.1875924722267436
    outer loop
      vertex -0.638295364717317 0.654823730214611 -0.404703351048212
      vertex -0.344261186387647 0.921263893184888 -0.180988854190001
      vertex -0.769791446617968 0.612098062884076 -0.180988854243738
    endloop
  endfacet
  facet normal 0.5773502678122576 -0.7946544734488227 0.18759247342281266
    outer loop
      vertex -0.344261186387647 0.921263893184888 -0.180988854190001
      vertex -0.638295364717317 0.654823730214611 -0.404703351048212
      vertex -0.425530234635219 0.809406645134071 -0.404703350912287
    endloop
  endfacet
  facet normal -0.5257311122539744 -0.7236067977798828 -0.4472135952930578
    outer loop
      vertex 0.131496105862034 0.76668097818821 0.628417798479656
      vertex 0.475757317513177 0.43110923318395 0.766680961253508
      vertex 0.262992187703018 0.585692148489796 0.766680961271428
    endloop
  endfacet
  facet normal -0.5257311274205243 -0.7236068027077932 -0.4472135694901812
    outer loop
      vertex 0.131496105471812 0.904944132174008 0.404703301853669
      vertex 0.475757317513177 0.43110923318395 0.766680961253508
      vertex 0.131496105862034 0.76668097818821 0.628417798479656
    endloop
  endfacet
  facet normal -0.5257311097003267 -0.7236068040669884 -0.44721358812230017
    outer loop
      vertex 0.475757317513177 0.43110923318395 0.766680961253508
      vertex 0.131496105471812 0.904944132174008 0.404703301853669
      vertex 0.688522447367397 0.361977651772904 0.628417798458151
    endloop
  endfacet
  facet normal -0.5257311175853409 -0.7236068066289847 -0.44721357470751216
    outer loop
      vertex 0.262992187511499 0.947669792368185 0.180988803096614
      vertex 0.688522447367397 0.361977651772904 0.628417798458151
      vertex 0.131496105471812 0.904944132174008 0.404703301853669
    endloop
  endfacet
  facet normal -0.5257311251643189 -0.723606806047653 -0.447213566738503
    outer loop
      vertex 0.688522447367397 0.361977651772904 0.628417798458151
      vertex 0.262992187511499 0.947669792368185 0.180988803096614
      vertex 0.820018525981477 0.404703303740304 0.404703310879981
    endloop
  endfacet
  facet normal -0.5257311199273766 -0.7236068043460677 -0.44721357564812136
    outer loop
      vertex 0.475757317192318 0.878538205375032 0.0427256408580984
      vertex 0.820018525981477 0.404703303740304 0.404703310879981
      vertex 0.262992187511499 0.947669792368185 0.180988803096614
    endloop
  endfacet
  facet normal -0.5257311199273765 -0.7236068043460677 -0.4472135756481215
    outer loop
      vertex 0.820018525981477 0.404703303740304 0.404703310879981
      vertex 0.475757317192318 0.878538205375032 0.0427256408580984
      vertex 0.820018526321799 0.542966460799607 0.180988810996107
    endloop
  endfacet
  facet normal -0.5257311199273643 -0.7236068043460637 -0.4472135756481423
    outer loop
      vertex 0.820018526321799 0.542966460799607 0.180988810996107
      vertex 0.475757317192318 0.878538205375032 0.0427256408580984
      vertex 0.688522445330262 0.723955288220859 0.0427256444156224
    endloop
  endfacet
  facet normal -0.5773502765553565 -0.7946544622514705 0.18759249394706484
    outer loop
      vertex 0.475757317192318 0.878538205375032 0.0427256408580984
      vertex 0.769791491436809 0.61209803418473 -0.180988849309503
      vertex 0.688522445330262 0.723955288220859 0.0427256444156224
    endloop
  endfacet
  facet normal -0.5773502833299252 -0.7946544600502798 0.18759248242147997
    outer loop
      vertex 0.344261235348426 0.92126387293968 -0.180988856006343
      vertex 0.769791491436809 0.61209803418473 -0.180988849309503
      vertex 0.475757317192318 0.878538205375032 0.0427256408580984
    endloop
  endfacet
  facet normal -0.5773502748302699 -0.794654459877065 0.1875925093144761
    outer loop
      vertex 0.638295409746239 0.654823696972215 -0.404703346943475
      vertex 0.344261235348426 0.92126387293968 -0.180988856006343
      vertex 0.4255302812238 0.809406614462282 -0.404703350261506
    endloop
  endfacet
  facet normal -0.5773502816048227 -0.7946544576758797 0.18759249778891882
    outer loop
      vertex 0.344261235348426 0.92126387293968 -0.180988856006343
      vertex 0.638295409746239 0.654823696972215 -0.404703346943475
      vertex 0.769791491436809 0.61209803418473 -0.180988849309503
    endloop
  endfacet
  facet normal -0.30901701209475113 -0.9510565105376402 8.980833778624837e-9
    outer loop
      vertex 0.131496105807753 0.990395459887295 -0.0427256944647117
      vertex 0.475757317192318 0.878538205375032 0.0427256408580984
      vertex 0.262992187511499 0.947669792368185 0.180988803096614
    endloop
  endfacet
  facet normal -0.3090170120947492 -0.9510565105376408 8.98082476508052e-9
    outer loop
      vertex 0.475757317192318 0.878538205375032 0.0427256408580984
      vertex 0.131496105807753 0.990395459887295 -0.0427256944647117
      vertex 0.344261235348426 0.92126387293968 -0.180988856006343
    endloop
  endfacet
  facet normal -0.8090170740469723 -0.26286532247746286 -0.5257311063074879
    outer loop
      vertex 0.901287495794399 0.154582884900697 0.404703311617258
      vertex 0.688522447367397 0.361977651772904 0.628417798458151
      vertex 0.820018525981477 0.404703303740304 0.404703310879981
    endloop
  endfacet
  facet normal -0.8090171211578985 -0.2628655971551183 -0.5257308964723963
    outer loop
      vertex 0.688522447367397 0.361977651772904 0.628417798458151
      vertex 0.901287495794399 0.154582884900697 0.404703311617258
      vertex 0.769791495317104 0.111857240679241 0.628417798479653
    endloop
  endfacet
  facet normal -0.934172478419782 -0.3035307370717017 -0.1875923031889941
    outer loop
      vertex 0.982556476341671 0.180988766327609 -0.0427257150655139
      vertex 0.820018526321799 0.542966460799607 0.180988810996107
      vertex 0.901287503103333 0.431109193017294 -0.0427257114465997
    endloop
  endfacet
  facet normal -0.9341724784197819 -0.3035307370717012 -0.18759230318899492
    outer loop
      vertex 0.820018526321799 0.542966460799607 0.180988810996107
      vertex 0.982556476341671 0.180988766327609 -0.0427257150655139
      vertex 0.820018525981477 0.404703303740304 0.404703310879981
    endloop
  endfacet
  facet normal -0.9341724784197815 -0.30353073707170347 -0.18759230318899356
    outer loop
      vertex 0.982556474402019 0.0427256083485409 0.180988794270921
      vertex 0.820018525981477 0.404703303740304 0.404703310879981
      vertex 0.982556476341671 0.180988766327609 -0.0427257150655139
    endloop
  endfacet
  facet normal -0.9341724784197816 -0.3035307370716963 -0.18759230318900522
    outer loop
      vertex 0.820018525981477 0.404703303740304 0.404703310879981
      vertex 0.982556474402019 0.0427256083485409 0.180988794270921
      vertex 0.901287495794399 0.154582884900697 0.404703311617258
    endloop
  endfacet
  facet normal -0.8090171208906485 -0.5877850781584998 -1.1126872644450529e-7
    outer loop
      vertex 0.901287503103333 0.431109193017294 -0.0427257114465997
      vertex 0.688522445330262 0.723955288220859 0.0427256444156224
      vertex 0.769791491436809 0.61209803418473 -0.180988849309503
    endloop
  endfacet
  facet normal -0.809017074294528 -0.5877851422925487 2.2454141724860028e-7
    outer loop
      vertex 0.688522445330262 0.723955288220859 0.0427256444156224
      vertex 0.901287503103333 0.431109193017294 -0.0427257114465997
      vertex 0.820018526321799 0.542966460799607 0.180988810996107
    endloop
  endfacet
  facet normal -0.850650869918892 0.27639331922650223 -0.44721340609734506
    outer loop
      vertex 0.638295413444877 -0.0691315889964712 0.766680961271428
      vertex 0.901287495794399 0.154582884900697 0.404703311617258
      vertex 0.982556474402019 0.0427256083485409 0.180988794270921
    endloop
  endfacet
  facet normal -0.8506508699188514 0.27639345622655614 -0.4472133214266321
    outer loop
      vertex 0.901287495794399 0.154582884900697 0.404703311617258
      vertex 0.638295413444877 -0.0691315889964712 0.766680961271428
      vertex 0.769791495317104 0.111857240679241 0.628417798479653
    endloop
  endfacet
  facet normal -0.8506508856627841 0.27639274297130945 -0.4472137322957745
    outer loop
      vertex 0.557026365466068 -0.319252000015257 0.766680961253509
      vertex 0.982556474402019 0.0427256083485409 0.180988794270921
      vertex 0.98255662775422 -0.180988841040723 0.042725641123142
    endloop
  endfacet
  facet normal -0.8506508856628521 0.27639322743225464 -0.4472134328825413
    outer loop
      vertex 0.982556474402019 0.0427256083485409 0.180988794270921
      vertex 0.557026365466068 -0.319252000015257 0.766680961253509
      vertex 0.638295413444877 -0.0691315889964712 0.766680961271428
    endloop
  endfacet
  facet normal -0.8506508066005567 0.27639320087318653 -0.4472135996824073
    outer loop
      vertex 0.557026365426685 -0.542966496707526 0.628417798458151
      vertex 0.98255662775422 -0.180988841040723 0.042725641123142
      vertex 0.901287579471957 -0.431109252096803 0.0427256421460526
    endloop
  endfacet
  facet normal -0.8506508066005568 0.27639320394007705 -0.44721359778696484
    outer loop
      vertex 0.98255662775422 -0.180988841040723 0.042725641123142
      vertex 0.557026365426685 -0.542966496707526 0.628417798458151
      vertex 0.557026365466068 -0.319252000015257 0.766680961253509
    endloop
  endfacet
  facet normal -0.8506508066097881 0.27639320087618585 -0.4472135996629947
    outer loop
      vertex 0.638295414479777 -0.654823746575016 0.404703301576378
      vertex 0.901287579471957 -0.431109252096803 0.0427256421460526
      vertex 0.769791497066378 -0.612098080872227 0.180988805213672
    endloop
  endfacet
  facet normal -0.8506508066097881 0.2763932008193633 -0.44721359969811286
    outer loop
      vertex 0.901287579471957 -0.431109252096803 0.0427256421460526
      vertex 0.638295414479777 -0.654823746575016 0.404703301576378
      vertex 0.557026365426685 -0.542966496707526 0.628417798458151
    endloop
  endfacet
  facet normal -0.8090169923904996 0.5877852550238313 -1.595999113006825e-9
    outer loop
      vertex 0.688522448873693 -0.723955329311824 -0.0427256911658407
      vertex 0.901287579471957 -0.431109252096803 0.0427256421460526
      vertex 0.820018531288322 -0.542966500523944 -0.18098885437136
    endloop
  endfacet
  facet normal -0.8090169923904997 0.5877852550238312 -1.5959986365585802e-9
    outer loop
      vertex 0.901287579471957 -0.431109252096803 0.0427256421460526
      vertex 0.688522448873693 -0.723955329311824 -0.0427256911658407
      vertex 0.769791497066378 -0.612098080872227 0.180988805213672
    endloop
  endfacet
  facet normal -0.9341721604577328 0.30353093649384294 0.18759356390053106
    outer loop
      vertex 0.820018046105325 -0.404703246760801 -0.404703221339352
      vertex 0.982556404388637 -0.0427256064432723 -0.180988738354124
      vertex 0.901287107145671 -0.154582807326964 -0.404703204745887
    endloop
  endfacet
  facet normal -0.9341721604577329 0.3035309364938325 0.187593563900548
    outer loop
      vertex 0.982556404388637 -0.0427256064432723 -0.180988738354124
      vertex 0.820018046105325 -0.404703246760801 -0.404703221339352
      vertex 0.98255662775422 -0.180988841040723 0.042725641123142
    endloop
  endfacet
  facet normal -0.9341723584421738 0.3035299903231024 0.18759410890815323
    outer loop
      vertex 0.820018531288322 -0.542966500523944 -0.18098885437136
      vertex 0.98255662775422 -0.180988841040723 0.042725641123142
      vertex 0.820018046105325 -0.404703246760801 -0.404703221339352
    endloop
  endfacet
  facet normal -0.9341723584438991 0.30353100082344353 0.18759247388550007
    outer loop
      vertex 0.98255662775422 -0.180988841040723 0.042725641123142
      vertex 0.820018531288322 -0.542966500523944 -0.18098885437136
      vertex 0.901287579471957 -0.431109252096803 0.0427256421460526
    endloop
  endfacet
  facet normal -0.9999999999999625 2.366104137490367e-7 1.3756305352023012e-7
    outer loop
      vertex 0.982556404388637 -0.0427256064432723 -0.180988738354124
      vertex 0.982556474402019 0.0427256083485409 0.180988794270921
      vertex 0.982556476341671 0.180988766327609 -0.0427257150655139
    endloop
  endfacet
  facet normal -0.9999999999994693 -9.42535439731003e-7 4.1592133964329756e-7
    outer loop
      vertex 0.982556474402019 0.0427256083485409 0.180988794270921
      vertex 0.982556404388637 -0.0427256064432723 -0.180988738354124
      vertex 0.98255662775422 -0.180988841040723 0.042725641123142
    endloop
  endfacet
  facet normal 0.5257311123981687 0.723606798061439 0.44721359466797966
    outer loop
      vertex -0.82001848171864 -0.404703334218908 -0.404703351975376
      vertex -0.475757270149149 -0.878538242276869 -0.0427256910865748
      vertex -0.262992140365604 -0.947669823722055 -0.180988853931782
    endloop
  endfacet
  facet normal 0.5257311132525396 0.7236067979959061 0.4472135937696408
    outer loop
      vertex -0.820018481404414 -0.542966496538221 -0.180988855378471
      vertex -0.475757270149149 -0.878538242276869 -0.0427256910865748
      vertex -0.82001848171864 -0.404703334218908 -0.404703351975376
    endloop
  endfacet
  facet normal 0.5257311137419941 0.7236067969399633 0.4472135949028039
    outer loop
      vertex -0.688522399492997 -0.361977666507089 -0.628417847803723
      vertex -0.262992140365604 -0.947669823722055 -0.180988853931782
      vertex -0.131496058686052 -0.904944156968722 -0.404703350720161
    endloop
  endfacet
  facet normal 0.5257311127467933 0.7236067978315791 0.4472135946300681
    outer loop
      vertex -0.475757270149149 -0.878538242276869 -0.0427256910865748
      vertex -0.820018481404414 -0.542966496538221 -0.180988855378471
      vertex -0.688522399972216 -0.723955326827411 -0.0427256910692567
    endloop
  endfacet
  facet normal 0.5257310852522512 0.7236067965949001 0.44721362895282735
    outer loop
      vertex -0.475757268391344 -0.431109246203167 -0.766681009773913
      vertex -0.131496058686052 -0.904944156968722 -0.404703350720161
      vertex -0.131496054433964 -0.766680988311396 -0.628417844907001
    endloop
  endfacet
  facet normal 0.5257311098624563 0.723606797237536 0.4472135989819913
    outer loop
      vertex -0.262992140365604 -0.947669823722055 -0.180988853931782
      vertex -0.688522399492997 -0.361977666507089 -0.628417847803723
      vertex -0.82001848171864 -0.404703334218908 -0.404703351975376
    endloop
  endfacet
  facet normal 0.52573110420436 0.7236068027528142 0.44721359670957517
    outer loop
      vertex -0.475757268391344 -0.431109246203167 -0.766681009773913
      vertex -0.131496054433964 -0.766680988311396 -0.628417844907001
      vertex -0.262992137267791 -0.585692159807138 -0.766681008540916
    endloop
  endfacet
  facet normal 0.5257311074417668 0.7236067948928954 0.44721360562139056
    outer loop
      vertex -0.131496058686052 -0.904944156968722 -0.404703350720161
      vertex -0.475757268391344 -0.431109246203167 -0.766681009773913
      vertex -0.688522399492997 -0.361977666507089 -0.628417847803723
    endloop
  endfacet
  facet normal 0.8090169927191843 0.2628655551629225 0.5257311151154133
    outer loop
      vertex -0.901287529644985 -0.154582923464191 -0.404703351739695
      vertex -0.688522399492997 -0.361977666507089 -0.628417847803723
      vertex -0.769791447388803 -0.111857255509311 -0.628417847736565
    endloop
  endfacet
  facet normal 0.809016992719185 0.2628655551629276 0.5257311151154093
    outer loop
      vertex -0.688522399492997 -0.361977666507089 -0.628417847803723
      vertex -0.901287529644985 -0.154582923464191 -0.404703351739695
      vertex -0.82001848171864 -0.404703334218908 -0.404703351975376
    endloop
  endfacet
  facet normal 0.5773502645367897 0.18759247882411345 0.7946544745535153
    outer loop
      vertex -0.688522399492997 -0.361977666507089 -0.628417847803723
      vertex -0.344261187122001 -0.250120415370292 -0.904944172242805
      vertex -0.425530237152493 -4.93678330622069e-9 -0.904944172574985
    endloop
  endfacet
  facet normal 0.5773502653383344 0.18759248570397188 0.7946544723470447
    outer loop
      vertex -0.769791447388803 -0.111857255509311 -0.628417847736565
      vertex -0.425530237152493 -4.93678330622069e-9 -0.904944172574985
      vertex -0.638295368050409 0.0691315747769144 -0.766681010756978
    endloop
  endfacet
  facet normal 0.577350264536787 0.1875924788241219 0.7946544745535153
    outer loop
      vertex -0.344261187122001 -0.250120415370292 -0.904944172242805
      vertex -0.688522399492997 -0.361977666507089 -0.628417847803723
      vertex -0.475757268391344 -0.431109246203167 -0.766681009773913
    endloop
  endfacet
  facet normal 0.5773502692291297 0.18759247372933519 0.7946544723470447
    outer loop
      vertex -0.425530237152493 -4.93678330622069e-9 -0.904944172574985
      vertex -0.769791447388803 -0.111857255509311 -0.628417847736565
      vertex -0.688522399492997 -0.361977666507089 -0.628417847803723
    endloop
  endfacet
  facet normal 0.30901698672923655 0.42532540768472876 0.8506508093751527
    outer loop
      vertex -0.344261187122001 -0.250120415370292 -0.904944172242805
      vertex -0.262992137267791 -0.585692159807138 -0.766681008540916
      vertex -0.131496056214915 -0.40470332897552 -0.904944170930542
    endloop
  endfacet
  facet normal 0.3090169867292419 0.42532540768472915 0.8506508093751504
    outer loop
      vertex -0.262992137267791 -0.585692159807138 -0.766681008540916
      vertex -0.344261187122001 -0.250120415370292 -0.904944172242805
      vertex -0.475757268391344 -0.431109246203167 -0.766681009773913
    endloop
  endfacet
  facet normal -3.729921998236176e-8 0.6070619861531826 0.7946544814998225
    outer loop
      vertex 0.131496109208718 -0.404703318666863 -0.904944157139417
      vertex 0.131496110919134 -0.766680981051534 -0.628417838108806
      vertex 0.262992191903384 -0.585692146451223 -0.766680994055455
    endloop
  endfacet
  facet normal -6.546648677108485e-8 0.6070619861531816 0.7946544814998214
    outer loop
      vertex -0.131496056214915 -0.40470332897552 -0.904944170930542
      vertex 0.131496110919134 -0.766680981051534 -0.628417838108806
      vertex 0.131496109208718 -0.404703318666863 -0.904944157139417
    endloop
  endfacet
  facet normal -3.7299219008563075e-8 0.6070619990761555 0.7946544716275498
    outer loop
      vertex -0.131496056214915 -0.40470332897552 -0.904944170930542
      vertex -0.131496054433964 -0.766680988311396 -0.628417844907001
      vertex 0.131496110919134 -0.766680981051534 -0.628417838108806
    endloop
  endfacet
  facet normal -9.131951162431592e-9 0.6070619990761561 0.7946544716275502
    outer loop
      vertex -0.131496054433964 -0.766680988311396 -0.628417844907001
      vertex -0.131496056214915 -0.40470332897552 -0.904944170930542
      vertex -0.262992137267791 -0.585692159807138 -0.766681008540916
    endloop
  endfacet
  facet normal 4.047003118449585e-10 0.8506507759402191 0.5257311645625576
    outer loop
      vertex 0.131496110919134 -0.766680981051534 -0.628417838108806
      vertex -0.131496058686052 -0.904944156968722 -0.404703350720161
      vertex 0.131496105070053 -0.90494415698169 -0.404703350901626
    endloop
  endfacet
  facet normal -3.707194121864828e-8 0.8506507956428568 0.525731132683022
    outer loop
      vertex -0.131496058686052 -0.904944156968722 -0.404703350720161
      vertex 0.131496110919134 -0.766680981051534 -0.628417838108806
      vertex -0.131496054433964 -0.766680988311396 -0.628417844907001
    endloop
  endfacet
  facet normal 0.8506508080262933 -0.2763932055019691 0.44721359410975026
    outer loop
      vertex -0.90128752887076 0.431109233425669 -0.0427256916275391
      vertex -0.638295364717317 0.654823730214611 -0.404703351048212
      vertex -0.769791446617968 0.612098062884076 -0.180988854243738
    endloop
  endfacet
  facet normal 0.8506508080262933 -0.27639320593208866 0.4472135938439218
    outer loop
      vertex -0.638295364717317 0.654823730214611 -0.404703351048212
      vertex -0.90128752887076 0.431109233425669 -0.0427256916275391
      vertex -0.557026317138669 0.542966482370974 -0.62841784833933
    endloop
  endfacet
  facet normal 0.8506508085656636 -0.27639320278731927 0.44721359476155315
    outer loop
      vertex -0.982556576964662 0.180988822344133 -0.0427256916920879
      vertex -0.557026317138669 0.542966482370974 -0.62841784833933
      vertex -0.90128752887076 0.431109233425669 -0.0427256916275391
    endloop
  endfacet
  facet normal 0.8506508085656636 -0.27639320560617064 0.4472135930194071
    outer loop
      vertex -0.557026317138669 0.542966482370974 -0.62841784833933
      vertex -0.982556576964662 0.180988822344133 -0.0427256916920879
      vertex -0.557026317945813 0.319251986162982 -0.766681011682434
    endloop
  endfacet
  facet normal 0.8506508092836403 -0.2763932014200441 0.4472135942409025
    outer loop
      vertex -0.982556576896605 -0.0427256743150039 -0.18098885450703
      vertex -0.557026317945813 0.319251986162982 -0.766681011682434
      vertex -0.982556576964662 0.180988822344133 -0.0427256916920879
    endloop
  endfacet
  facet normal 0.8506508092836403 -0.27639320775226267 0.4472135903273761
    outer loop
      vertex -0.557026317945813 0.319251986162982 -0.766681011682434
      vertex -0.982556576896605 -0.0427256743150039 -0.18098885450703
      vertex -0.638295368050409 0.0691315747769144 -0.766681010756978
    endloop
  endfacet
  facet normal 0.850650810546138 -0.2763932003913371 0.44721359247526526
    outer loop
      vertex -0.901287529644985 -0.154582923464191 -0.404703351739695
      vertex -0.638295368050409 0.0691315747769144 -0.766681010756978
      vertex -0.982556576896605 -0.0427256743150039 -0.18098885450703
    endloop
  endfacet
  facet normal 0.8506508105461379 -0.27639318567038973 0.4472136015733112
    outer loop
      vertex -0.638295368050409 0.0691315747769144 -0.766681010756978
      vertex -0.901287529644985 -0.154582923464191 -0.404703351739695
      vertex -0.769791447388803 -0.111857255509311 -0.628417847736565
    endloop
  endfacet
  facet normal 0.4999999996083047 -0.6881909626597271 0.5257311093184172
    outer loop
      vertex -0.557026317138669 0.542966482370974 -0.62841784833933
      vertex -0.425530234635219 0.809406645134071 -0.404703350912287
      vertex -0.638295364717317 0.654823730214611 -0.404703351048212
    endloop
  endfacet
  facet normal 0.4999999996083062 -0.688190962659727 0.525731109318416
    outer loop
      vertex -0.425530234635219 0.809406645134071 -0.404703350912287
      vertex -0.557026317138669 0.542966482370974 -0.62841784833933
      vertex -0.344261187146599 0.69754939728846 -0.628417848120368
    endloop
  endfacet
  facet normal 0.35682207790191367 -0.49112347884413654 0.7946544741268331
    outer loop
      vertex -0.344261187146599 0.69754939728846 -0.628417848120368
      vertex -0.131496056212006 0.404703317918774 -0.904944173140452
      vertex -0.131496055854715 0.628417813608846 -0.766681009915445
    endloop
  endfacet
  facet normal 0.3568220824874448 -0.4911234755125533 0.7946544741268332
    outer loop
      vertex -0.344261187146599 0.69754939728846 -0.628417848120368
      vertex -0.344261186664576 0.250120404423987 -0.904944174149214
      vertex -0.131496056212006 0.404703317918774 -0.904944173140452
    endloop
  endfacet
  facet normal 0.3568220886015216 -0.49112347428477676 0.7946544721402491
    outer loop
      vertex -0.557026317138669 0.542966482370974 -0.62841784833933
      vertex -0.344261186664576 0.250120404423987 -0.904944174149214
      vertex -0.344261187146599 0.69754939728846 -0.628417848120368
    endloop
  endfacet
  facet normal 0.3568220840159838 -0.49112347761636505 0.7946544721402492
    outer loop
      vertex -0.344261186664576 0.250120404423987 -0.904944174149214
      vertex -0.557026317138669 0.542966482370974 -0.62841784833933
      vertex -0.557026317945813 0.319251986162982 -0.766681011682434
    endloop
  endfacet
  facet normal 0.4999999967250688 -0.16245984780905312 0.8506508103357043
    outer loop
      vertex -0.557026317945813 0.319251986162982 -0.766681011682434
      vertex -0.425530237152493 -4.93678330622069e-9 -0.904944172574985
      vertex -0.344261186664576 0.250120404423987 -0.904944174149214
    endloop
  endfacet
  facet normal 0.49999999659247674 -0.1624598478906684 0.8506508103980529
    outer loop
      vertex -0.425530237152493 -4.93678330622069e-9 -0.904944172574985
      vertex -0.557026317945813 0.319251986162982 -0.766681011682434
      vertex -0.638295368050409 0.0691315747769144 -0.766681010756978
    endloop
  endfacet
  facet normal -2.2243377552061486e-8 -0.8944271931854836 0.44721359112882175
    outer loop
      vertex -0.131496055854715 0.628417813608846 -0.766681009915445
      vertex -0.131496057218301 0.990395467294404 -0.0427256936992626
      vertex -0.344261186387647 0.921263893184888 -0.180988854190001
    endloop
  endfacet
  facet normal -2.388968680052596e-8 -0.8944271931854836 0.4472135911288218
    outer loop
      vertex -0.131496057218301 0.990395467294404 -0.0427256936992626
      vertex -0.131496055854715 0.628417813608846 -0.766681009915445
      vertex 0.131496105807753 0.990395459887295 -0.0427256944647117
    endloop
  endfacet
  facet normal 2.465858488910858e-9 -0.8944271918545087 0.44721359379077236
    outer loop
      vertex -0.344261187146599 0.69754939728846 -0.628417848120368
      vertex -0.344261186387647 0.921263893184888 -0.180988854190001
      vertex -0.425530234635219 0.809406645134071 -0.404703350912287
    endloop
  endfacet
  facet normal -4.747934414585725e-9 -0.8944271959669433 0.44721358556590307
    outer loop
      vertex 0.131496109205117 0.628417812305109 -0.766681009730809
      vertex 0.131496105807753 0.990395459887295 -0.0427256944647117
      vertex -0.131496055854715 0.628417813608846 -0.766681009915445
    endloop
  endfacet
  facet normal -1.3083726611674475e-8 -0.8944271918545086 0.4472135937907723
    outer loop
      vertex -0.344261186387647 0.921263893184888 -0.180988854190001
      vertex -0.344261187146599 0.69754939728846 -0.628417848120368
      vertex -0.131496055854715 0.628417813608846 -0.766681009915445
    endloop
  endfacet
  facet normal -3.403560375579898e-8 -0.8944271959669428 0.44721358556590257
    outer loop
      vertex 0.131496105807753 0.990395459887295 -0.0427256944647117
      vertex 0.131496109205117 0.628417812305109 -0.766681009730809
      vertex 0.344261235348426 0.92126387293968 -0.180988856006343
    endloop
  endfacet
  facet normal 2.3959755752785976e-8 -0.8944272043941617 0.4472135687114645
    outer loop
      vertex 0.344261237808665 0.697549394401758 -0.628417846583931
      vertex 0.344261235348426 0.92126387293968 -0.180988856006343
      vertex 0.131496109205117 0.628417812305109 -0.766681009730809
    endloop
  endfacet
  facet normal -2.170912983760405e-7 -0.8944272043941415 0.44721356871145307
    outer loop
      vertex 0.344261235348426 0.92126387293968 -0.180988856006343
      vertex 0.344261237808665 0.697549394401758 -0.628417846583931
      vertex 0.4255302812238 0.809406614462282 -0.404703350261506
    endloop
  endfacet
  facet normal -3.203425661032613e-9 -0.5257311151801192 0.8506508064602467
    outer loop
      vertex -0.131496055854715 0.628417813608846 -0.766681009915445
      vertex 0.131496108187361 0.40470331719695 -0.904944172596177
      vertex 0.131496109205117 0.628417812305109 -0.766681009730809
    endloop
  endfacet
  facet normal -3.2034158325637362e-9 -0.525731115180111 0.850650806460252
    outer loop
      vertex 0.131496108187361 0.40470331719695 -0.904944172596177
      vertex -0.131496055854715 0.628417813608846 -0.766681009915445
      vertex -0.131496056212006 0.404703317918774 -0.904944173140452
    endloop
  endfacet
  facet normal -0.5000000839406247 -0.6881909525189281 0.5257310423880817
    outer loop
      vertex 0.557026347815228 0.542966486021952 -0.628417820140994
      vertex 0.4255302812238 0.809406614462282 -0.404703350261506
      vertex 0.344261237808665 0.697549394401758 -0.628417846583931
    endloop
  endfacet
  facet normal -0.5000000195526143 -0.6881909618750578 0.525731091377396
    outer loop
      vertex 0.4255302812238 0.809406614462282 -0.404703350261506
      vertex 0.557026347815228 0.542966486021952 -0.628417820140994
      vertex 0.638295409746239 0.654823696972215 -0.404703346943475
    endloop
  endfacet
  facet normal -0.35682214127098955 -0.49112338435740166 0.7946545040683516
    outer loop
      vertex 0.344261200636748 0.250120381152528 -0.904944139942128
      vertex 0.557026347815228 0.542966486021952 -0.628417820140994
      vertex 0.344261237808665 0.697549394401758 -0.628417846583931
    endloop
  endfacet
  facet normal -0.3568221412709836 -0.4911233843574058 0.7946545040683517
    outer loop
      vertex 0.557026347815228 0.542966486021952 -0.628417820140994
      vertex 0.344261200636748 0.250120381152528 -0.904944139942128
      vertex 0.557026335316996 0.319251970113478 -0.766680969824273
    endloop
  endfacet
  facet normal -0.3568220904373383 -0.49112347473988477 0.7946544710346438
    outer loop
      vertex 0.131496108187361 0.40470331719695 -0.904944172596177
      vertex 0.344261237808665 0.697549394401758 -0.628417846583931
      vertex 0.131496109205117 0.628417812305109 -0.766681009730809
    endloop
  endfacet
  facet normal -0.356822242938305 -0.49112336394143363 0.7946544710346299
    outer loop
      vertex 0.344261237808665 0.697549394401758 -0.628417846583931
      vertex 0.131496108187361 0.40470331719695 -0.904944172596177
      vertex 0.344261200636748 0.250120381152528 -0.904944139942128
    endloop
  endfacet
  facet normal -0.8506508621553042 -0.27639304513227625 0.4472135902641434
    outer loop
      vertex 0.901287503103333 0.431109193017294 -0.0427257114465997
      vertex 0.638295409746239 0.654823696972215 -0.404703346943475
      vertex 0.557026347815228 0.542966486021952 -0.628417820140994
    endloop
  endfacet
  facet normal -0.8506508621552636 -0.2763928825158055 0.44721369076663
    outer loop
      vertex 0.638295409746239 0.654823696972215 -0.404703346943475
      vertex 0.901287503103333 0.431109193017294 -0.0427257114465997
      vertex 0.769791491436809 0.61209803418473 -0.180988849309503
    endloop
  endfacet
  facet normal -0.8506508768426965 -0.2763930735459959 0.4472135447664228
    outer loop
      vertex 0.982556476341671 0.180988766327609 -0.0427257150655139
      vertex 0.557026347815228 0.542966486021952 -0.628417820140994
      vertex 0.557026335316996 0.319251970113478 -0.766680969824273
    endloop
  endfacet
  facet normal -0.8506508768426726 -0.2763929594982356 0.4472136152518155
    outer loop
      vertex 0.557026347815228 0.542966486021952 -0.628417820140994
      vertex 0.982556476341671 0.180988766327609 -0.0427257150655139
      vertex 0.901287503103333 0.431109193017294 -0.0427257114465997
    endloop
  endfacet
  facet normal -0.8506509207106612 -0.27639330532004264 0.4472133180802714
    outer loop
      vertex 0.982556404388637 -0.0427256064432723 -0.180988738354124
      vertex 0.557026335316996 0.319251970113478 -0.766680969824273
      vertex 0.638295405512223 0.0691315516571234 -0.766680969373291
    endloop
  endfacet
  facet normal -0.8506509207106764 -0.2763928177756561 0.4472136193991767
    outer loop
      vertex 0.557026335316996 0.319251970113478 -0.766680969824273
      vertex 0.982556404388637 -0.0427256064432723 -0.180988738354124
      vertex 0.982556476341671 0.180988766327609 -0.0427257150655139
    endloop
  endfacet
  facet normal -0.8506512309311423 -0.27639545707712454 0.44721139813566896
    outer loop
      vertex 0.901287107145671 -0.154582807326964 -0.404703204745887
      vertex 0.638295405512223 0.0691315516571234 -0.766680969373291
      vertex 0.769791528570091 -0.111857251782475 -0.628417821011941
    endloop
  endfacet
  facet normal -0.8506512309349381 -0.2763914965668095 0.4472138458661962
    outer loop
      vertex 0.638295405512223 0.0691315516571234 -0.766680969373291
      vertex 0.901287107145671 -0.154582807326964 -0.404703204745887
      vertex 0.982556404388637 -0.0427256064432723 -0.180988738354124
    endloop
  endfacet
  facet normal -0.8090174314651218 0.2628674410540215 0.5257294970032473
    outer loop
      vertex 0.688522374315309 -0.361977375007689 -0.628417299230714
      vertex 0.901287107145671 -0.154582807326964 -0.404703204745887
      vertex 0.769791528570091 -0.111857251782475 -0.628417821011941
    endloop
  endfacet
  facet normal -0.8090171108002219 0.2628655714240491 0.5257309252767711
    outer loop
      vertex 0.901287107145671 -0.154582807326964 -0.404703204745887
      vertex 0.688522374315309 -0.361977375007689 -0.628417299230714
      vertex 0.820018046105325 -0.404703246760801 -0.404703221339352
    endloop
  endfacet
  facet normal -0.5773502607209334 0.18759234160738725 0.7946545097183603
    outer loop
      vertex 0.425530274122134 -2.93560054670573e-8 -0.904944136039341
      vertex 0.769791528570091 -0.111857251782475 -0.628417821011941
      vertex 0.638295405512223 0.0691315516571234 -0.766680969373291
    endloop
  endfacet
  facet normal -0.577349599856272 0.18759437553615896 0.7946545097166448
    outer loop
      vertex 0.769791528570091 -0.111857251782475 -0.628417821011941
      vertex 0.425530274122134 -2.93560054670573e-8 -0.904944136039341
      vertex 0.688522374315309 -0.361977375007689 -0.628417299230714
    endloop
  endfacet
  facet normal -0.5773480058331238 0.18759610626643328 0.7946552592629009
    outer loop
      vertex 0.344260599604133 -0.250120013007006 -0.904943317426906
      vertex 0.688522374315309 -0.361977375007689 -0.628417299230714
      vertex 0.425530274122134 -2.93560054670573e-8 -0.904944136039341
    endloop
  endfacet
  facet normal -0.5773486667009895 0.18759407233644618 0.7946552592683306
    outer loop
      vertex 0.688522374315309 -0.361977375007689 -0.628417299230714
      vertex 0.344260599604133 -0.250120013007006 -0.904943317426906
      vertex 0.475756824552959 -0.431108857225444 -0.76668008541107
    endloop
  endfacet
  facet normal -0.4999999969444107 -0.16245988518826585 0.8506508030679832
    outer loop
      vertex 0.557026335316996 0.319251970113478 -0.766680969824273
      vertex 0.425530274122134 -2.93560054670573e-8 -0.904944136039341
      vertex 0.638295405512223 0.0691315516571234 -0.766680969373291
    endloop
  endfacet
  facet normal -0.4999999969444065 -0.16245988518826832 0.8506508030679851
    outer loop
      vertex 0.425530274122134 -2.93560054670573e-8 -0.904944136039341
      vertex 0.557026335316996 0.319251970113478 -0.766680969824273
      vertex 0.344261200636748 0.250120381152528 -0.904944139942128
    endloop
  endfacet
  facet normal -0.5257311035209703 0.7236068012801629 0.4472135998957474
    outer loop
      vertex 0.820018531288322 -0.542966500523944 -0.18098885437136
      vertex 0.475757317052735 -0.878538242451809 -0.0427256916873436
      vertex 0.688522448873693 -0.723955329311824 -0.0427256911658407
    endloop
  endfacet
  facet normal -0.525730214122725 0.7236065122962676 0.44721511302828887
    outer loop
      vertex 0.820018046105325 -0.404703246760801 -0.404703221339352
      vertex 0.475757317052735 -0.878538242451809 -0.0427256916873436
      vertex 0.820018531288322 -0.542966500523944 -0.18098885437136
    endloop
  endfacet
  facet normal -0.5257312625826738 0.7236064318768594 0.44721401061423377
    outer loop
      vertex 0.475757317052735 -0.878538242451809 -0.0427256916873436
      vertex 0.820018046105325 -0.404703246760801 -0.404703221339352
      vertex 0.262992187099937 -0.947669823865241 -0.180988854243783
    endloop
  endfacet
  facet normal -0.5257312033454681 0.7236064126295174 0.44721411139449374
    outer loop
      vertex 0.688522374315309 -0.361977375007689 -0.628417299230714
      vertex 0.262992187099937 -0.947669823865241 -0.180988854243783
      vertex 0.820018046105325 -0.404703246760801 -0.404703221339352
    endloop
  endfacet
  facet normal -0.5257315330978461 0.7236063873366273 0.4472137646721345
    outer loop
      vertex 0.262992187099937 -0.947669823865241 -0.180988854243783
      vertex 0.688522374315309 -0.361977375007689 -0.628417299230714
      vertex 0.131496105070053 -0.90494415698169 -0.404703350901626
    endloop
  endfacet
  facet normal -0.5257302277918189 0.7236059632140014 0.4472159853886032
    outer loop
      vertex 0.475756824552959 -0.431108857225444 -0.76668008541107
      vertex 0.131496105070053 -0.90494415698169 -0.404703350901626
      vertex 0.688522374315309 -0.361977375007689 -0.628417299230714
    endloop
  endfacet
  facet normal -0.5257330739968008 0.7236057449032398 0.44721299271029874
    outer loop
      vertex 0.131496105070053 -0.90494415698169 -0.404703350901626
      vertex 0.475756824552959 -0.431108857225444 -0.76668008541107
      vertex 0.131496110919134 -0.766680981051534 -0.628417838108806
    endloop
  endfacet
  facet normal -0.5257352774428518 0.7236064608413599 0.44720924395715383
    outer loop
      vertex 0.131496110919134 -0.766680981051534 -0.628417838108806
      vertex 0.475756824552959 -0.431108857225444 -0.76668008541107
      vertex 0.262992191903384 -0.585692146451223 -0.766680994055455
    endloop
  endfacet
  facet normal -0.3090203502177312 0.4253230002126851 0.850650791242441
    outer loop
      vertex 0.344260599604133 -0.250120013007006 -0.904943317426906
      vertex 0.262992191903384 -0.585692146451223 -0.766680994055455
      vertex 0.475756824552959 -0.431108857225444 -0.76668008541107
    endloop
  endfacet
  facet normal -0.30902031195282076 0.42532299727772643 0.8506508066106047
    outer loop
      vertex 0.262992191903384 -0.585692146451223 -0.766680994055455
      vertex 0.344260599604133 -0.250120013007006 -0.904943317426906
      vertex 0.131496109208718 -0.404703318666863 -0.904944157139417
    endloop
  endfacet
  facet normal 0.000005012406947987922 0.0000016442338901530146 0.9999999999860861
    outer loop
      vertex 0.344261200636748 0.250120381152528 -0.904944139942128
      vertex 0.344260599604133 -0.250120013007006 -0.904943317426906
      vertex 0.425530274122134 -2.93560054670573e-8 -0.904944136039341
    endloop
  endfacet
  facet normal -0.000005141297332033783 0.0000016442460897014073 0.9999999999854317
    outer loop
      vertex 0.344261200636748 0.250120381152528 -0.904944139942128
      vertex 0.131496109208718 -0.404703318666863 -0.904944157139417
      vertex 0.344260599604133 -0.250120013007006 -0.904943317426906
    endloop
  endfacet
  facet normal -1.3960029706647792e-7 1.909640859809374e-8 0.99999999999999
    outer loop
      vertex 0.131496108187361 0.40470331719695 -0.904944172596177
      vertex 0.131496109208718 -0.404703318666863 -0.904944157139417
      vertex 0.344261200636748 0.250120381152528 -0.904944139942128
    endloop
  endfacet
  facet normal -2.0695481399414027e-9 1.9096408771638335e-8 0.9999999999999999
    outer loop
      vertex -0.131496056212006 0.404703317918774 -0.904944173140452
      vertex 0.131496109208718 -0.404703318666863 -0.904944157139417
      vertex 0.131496108187361 0.40470331719695 -0.904944172596177
    endloop
  endfacet
  facet normal -5.243929995286388e-8 2.730283881848908e-9 0.9999999999999987
    outer loop
      vertex -0.131496056212006 0.404703317918774 -0.904944173140452
      vertex -0.131496056214915 -0.40470332897552 -0.904944170930542
      vertex 0.131496109208718 -0.404703318666863 -0.904944157139417
    endloop
  endfacet
  facet normal -6.724867500272276e-9 2.7302838816846134e-9 1
    outer loop
      vertex -0.344261186664576 0.250120404423987 -0.904944174149214
      vertex -0.131496056214915 -0.40470332897552 -0.904944170930542
      vertex -0.131496056212006 0.404703317918774 -0.904944173140452
    endloop
  endfacet
  facet normal -3.398819047442992e-9 3.810982544322074e-9 1
    outer loop
      vertex -0.344261186664576 0.250120404423987 -0.904944174149214
      vertex -0.344261187122001 -0.250120415370292 -0.904944172242805
      vertex -0.131496056214915 -0.40470332897552 -0.904944170930542
    endloop
  endfacet
  facet normal 7.64158623913054e-9 3.810982534226621e-9 1
    outer loop
      vertex -0.344261187122001 -0.250120415370292 -0.904944172242805
      vertex -0.344261186664576 0.250120404423987 -0.904944174149214
      vertex -0.425530237152493 -4.93678330622069e-9 -0.904944172574985
    endloop
  endfacet
endsolid OpenSCAD_Model
