solid OpenSCAD_Model
  facet normal 0.6020459787625175 -2.702953793620387e-11 -0.79846142014244
    outer loop
      vertex -0.88671194762879 4.94657263939269e-9 0.462320188161404
      vertex -0.37210275279296 0.372102838723753 0.850339431871139
      vertex -0.372102752826372 -0.372102828953981 0.850339431871139
    endloop
  endfacet
  facet normal 0.7173304773112341 0.3900046527738778 -0.5773502898026154
    outer loop
      vertex -0.684403746724573 -0.684403822686593 0.251358418528921
      vertex -0.88671194762879 4.94657263939269e-9 0.462320188161404
      vertex -0.372102752826372 -0.372102828953981 0.850339431871139
    endloop
  endfacet
  facet normal 0.39000465290387604 0.7173304772743236 -0.5773502897606604
    outer loop
      vertex 8.09405027811332e-8 -0.886712023726896 0.462320188196246
      vertex -0.684403746724573 -0.684403822686593 0.251358418528921
      vertex -0.372102752826372 -0.372102828953981 0.850339431871139
    endloop
  endfacet
  facet normal 0 0.6020459787625175 -0.7984614201424401
    outer loop
      vertex 0.37210291478454 -0.372102828953981 0.850339431871139
      vertex 8.09405027811332e-8 -0.886712023726896 0.462320188196246
      vertex -0.372102752826372 -0.372102828953981 0.850339431871139
    endloop
  endfacet
  facet normal 0 0 -1
    outer loop
      vertex -0.372102752826372 -0.372102828953981 0.850339431871139
      vertex 0.372102914817955 0.372102838656931 0.850339431871139
      vertex 0.37210291478454 -0.372102828953981 0.850339431871139
    endloop
  endfacet
  facet normal 0 0 -1
    outer loop
      vertex 0.372102914817955 0.372102838656931 0.850339431871139
      vertex -0.372102752826372 -0.372102828953981 0.850339431871139
      vertex -0.37210275279296 0.372102838723753 0.850339431871139
    endloop
  endfacet
  facet normal -5.4057407380561586e-11 -0.6020459787625153 -0.7984614201424418
    outer loop
      vertex 8.10972860212409e-8 0.88671203346326 0.462320188196246
      vertex 0.372102914817955 0.372102838656931 0.850339431871139
      vertex -0.37210275279296 0.372102838723753 0.850339431871139
    endloop
  endfacet
  facet normal 0.3900046527686119 -0.7173304773317145 -0.5773502897807267
    outer loop
      vertex -0.684403746580147 0.684403832567382 0.25135841852892
      vertex 8.10972860212409e-8 0.88671203346326 0.462320188196246
      vertex -0.37210275279296 0.372102838723753 0.850339431871139
    endloop
  endfacet
  facet normal 0.7173304772538398 -0.39000465290914405 -0.5773502897825518
    outer loop
      vertex -0.88671194762879 4.94657263939269e-9 0.462320188161404
      vertex -0.684403746580147 0.684403832567382 0.25135841852892
      vertex -0.37210275279296 0.372102838723753 0.850339431871139
    endloop
  endfacet
  facet normal -0.6020459787625186 2.7031922006227827e-11 -0.7984614201424393
    outer loop
      vertex 0.886712109574161 4.78979010158407e-9 0.462320188196246
      vertex 0.37210291478454 -0.372102828953981 0.850339431871139
      vertex 0.372102914817955 0.372102838656931 0.850339431871139
    endloop
  endfacet
  facet normal -0.7173304772910566 -0.3900046525910169 -0.5773502899512093
    outer loop
      vertex 0.684403908768109 0.684403832482051 0.251358418665871
      vertex 0.886712109574161 4.78979010158407e-9 0.462320188196246
      vertex 0.372102914817955 0.372102838656931 0.850339431871139
    endloop
  endfacet
  facet normal -0.3900046527584906 -0.7173304772161512 -0.5773502899311457
    outer loop
      vertex 8.10972860212409e-8 0.88671203346326 0.462320188196246
      vertex 0.684403908768109 0.684403832482051 0.251358418665871
      vertex 0.372102914817955 0.372102838656931 0.850339431871139
    endloop
  endfacet
  facet normal -0.3900046526232212 0.7173304772735447 -0.5773502899512124
    outer loop
      vertex 0.684403908623681 -0.684403822890118 0.251358418665871
      vertex 8.09405027811332e-8 -0.886712023726896 0.462320188196246
      vertex 0.37210291478454 -0.372102828953981 0.850339431871139
    endloop
  endfacet
  facet normal -0.7173304772336613 0.39000465272628254 -0.5773502899311469
    outer loop
      vertex 0.886712109574161 4.78979010158407e-9 0.462320188196246
      vertex 0.684403908623681 -0.684403822890118 0.251358418665871
      vertex 0.37210291478454 -0.372102828953981 0.850339431871139
    endloop
  endfacet
  facet normal 0.9589804006758774 0.2834723815815701 7.859445842070824e-8
    outer loop
      vertex -0.684403746724573 -0.684403822686593 0.251358418528921
      vertex -0.946513729097525 0.202308223211931 -0.251358456231789
      vertex -0.88671194762879 4.94657263939269e-9 0.462320188161404
    endloop
  endfacet
  facet normal 0.9589804006758776 0.2834723815815697 7.85944575272625e-8
    outer loop
      vertex -0.946513729097525 0.202308223211931 -0.251358456231789
      vertex -0.684403746724573 -0.684403822686593 0.251358418528921
      vertex -0.74420552820144 -0.482095604393726 -0.462320225910431
    endloop
  endfacet
  facet normal 0.6020461979151076 0.7800092129623309 0.17066342100710458
    outer loop
      vertex -0.202308227369035 -0.946514061177261 -0.251358409243238
      vertex -0.74420552820144 -0.482095604393726 -0.462320225910431
      vertex -0.684403746724573 -0.684403822686593 0.251358418528921
    endloop
  endfacet
  facet normal 0.32732580456390653 0.9293716747741617 -0.17066372723593287
    outer loop
      vertex 8.09405027811332e-8 -0.886712023726896 0.462320188196246
      vertex -0.202308227369035 -0.946514061177261 -0.251358409243238
      vertex -0.684403746724573 -0.684403822686593 0.251358418528921
    endloop
  endfacet
  facet normal 0.9293717814754707 -0.32732571184026543 -0.1706633240194666
    outer loop
      vertex -0.946513729097525 0.202308223211931 -0.251358456231789
      vertex -0.684403746580147 0.684403832567382 0.25135841852892
      vertex -0.88671194762879 4.94657263939269e-9 0.462320188161404
    endloop
  endfacet
  facet normal 0.2834724568439188 -0.9589803784284835 -1.8700444788360053e-7
    outer loop
      vertex -0.684403746580147 0.684403832567382 0.25135841852892
      vertex 0.202308241016596 0.94651401261007 -0.251358456091737
      vertex 8.10972860212409e-8 0.88671203346326 0.462320188196246
    endloop
  endfacet
  facet normal 0.28347245684391764 -0.958980378428484 -1.870044503003166e-7
    outer loop
      vertex 0.202308241016596 0.94651401261007 -0.251358456091737
      vertex -0.684403746580147 0.684403832567382 0.25135841852892
      vertex -0.482095586646038 0.744205811718568 -0.462320225821231
    endloop
  endfacet
  facet normal 0.7800095599756335 -0.6020457757579177 0.170663324234194
    outer loop
      vertex -0.946513729097525 0.202308223211931 -0.251358456231789
      vertex -0.482095586646038 0.744205811718568 -0.462320225821231
      vertex -0.684403746580147 0.684403832567382 0.25135841852892
    endloop
  endfacet
  facet normal -0.3273257671515734 -0.9293717177346124 -0.17066356504435823
    outer loop
      vertex 0.202308241016596 0.94651401261007 -0.251358456091737
      vertex 0.684403908768109 0.684403832482051 0.251358418665871
      vertex 8.10972860212409e-8 0.88671203346326 0.462320188196246
    endloop
  endfacet
  facet normal -0.6020461606196952 -0.7800091919725335 0.1706636485061753
    outer loop
      vertex 0.202308241016596 0.94651401261007 -0.251358456091737
      vertex 0.744205500639123 0.482095529117254 -0.462320320293072
      vertex 0.684403908768109 0.684403832482051 0.251358418665871
    endloop
  endfacet
  facet normal -0.958980422953384 -0.2834723062170803 3.4393056649570123e-7
    outer loop
      vertex 0.946513684097905 -0.202308239889552 -0.251358517437495
      vertex 0.684403908768109 0.684403832482051 0.251358418665871
      vertex 0.744205500639123 0.482095529117254 -0.462320320293072
    endloop
  endfacet
  facet normal -0.9589804229533834 -0.2834723062170825 3.4393057086696997e-7
    outer loop
      vertex 0.684403908768109 0.684403832482051 0.251358418665871
      vertex 0.946513684097905 -0.202308239889552 -0.251358517437495
      vertex 0.886712109574161 4.78979010158407e-9 0.462320188196246
    endloop
  endfacet
  facet normal -0.9293718567719645 0.3273256462792478 -0.17066303972478578
    outer loop
      vertex 0.946513684097905 -0.202308239889552 -0.251358517437495
      vertex 0.684403908623681 -0.684403822890118 0.251358418665871
      vertex 0.886712109574161 4.78979010158407e-9 0.462320188196246
    endloop
  endfacet
  facet normal -0.2834724618300778 0.9589803769545824 -2.0487040049124126e-7
    outer loop
      vertex 0.684403908623681 -0.684403822890118 0.251358418665871
      vertex -0.202308227369035 -0.946514061177261 -0.251358409243238
      vertex 8.09405027811332e-8 -0.886712023726896 0.462320188196246
    endloop
  endfacet
  facet normal -0.2834721598342921 0.9589804662235133 -7.840863980635575e-7
    outer loop
      vertex -0.202308227369035 -0.946514061177261 -0.251358409243238
      vertex 0.684403908623681 -0.684403822890118 0.251358418665871
      vertex 0.482095863264636 -0.744206144392358 -0.462320182970836
    endloop
  endfacet
  facet normal -0.7800099094638101 0.6020454004315198 0.17066305094398668
    outer loop
      vertex 0.946513684097905 -0.202308239889552 -0.251358517437495
      vertex 0.482095863264636 -0.744206144392358 -0.462320182970836
      vertex 0.684403908623681 -0.684403822890118 0.251358418665871
    endloop
  endfacet
  facet normal 0.8140869142209205 0.06267867433437074 0.5773507425109503
    outer loop
      vertex -0.514608718525521 0.109992748807067 -0.850339249489039
      vertex -0.946513729097525 0.202308223211931 -0.251358456231789
      vertex -0.74420552820144 -0.482095604393726 -0.462320225910431
    endloop
  endfacet
  facet normal 0.505289390883746 0.32732519971999074 0.798461548910529
    outer loop
      vertex -0.109992636170853 -0.514609445875994 -0.85033946950537
      vertex -0.514608718525521 0.109992748807067 -0.850339249489039
      vertex -0.74420552820144 -0.482095604393726 -0.462320225910431
    endloop
  endfacet
  facet normal 0.3900049360947519 0.7173303871832228 0.577350210396858
    outer loop
      vertex -0.202308227369035 -0.946514061177261 -0.251358409243238
      vertex -0.109992636170853 -0.514609445875994 -0.85033946950537
      vertex -0.74420552820144 -0.482095604393726 -0.462320225910431
    endloop
  endfacet
  facet normal 0.7173303843844312 -0.39000415358567375 0.5773507424649303
    outer loop
      vertex -0.514608718525521 0.109992748807067 -0.850339249489039
      vertex -0.482095586646038 0.744205811718568 -0.462320225821231
      vertex -0.946513729097525 0.202308223211931 -0.251358456231789
    endloop
  endfacet
  facet normal 0.06267944953327566 -0.8140879403498675 0.577349211468342
    outer loop
      vertex 0.109992685850303 0.514610051159413 -0.850339993358623
      vertex 0.202308241016596 0.94651401261007 -0.251358456091737
      vertex -0.482095586646038 0.744205811718568 -0.462320225821231
    endloop
  endfacet
  facet normal 0.32732727566329833 -0.5052885304957623 0.7984612423632571
    outer loop
      vertex -0.514608718525521 0.109992748807067 -0.850339249489039
      vertex 0.109992685850303 0.514610051159413 -0.850339993358623
      vertex -0.482095586646038 0.744205811718568 -0.462320225821231
    endloop
  endfacet
  facet normal -0.3900056104324782 -0.7173307471640761 0.577349307615605
    outer loop
      vertex 0.109992685850303 0.514610051159413 -0.850339993358623
      vertex 0.744205500639123 0.482095529117254 -0.462320320293072
      vertex 0.202308241016596 0.94651401261007 -0.251358456091737
    endloop
  endfacet
  facet normal -0.5052904010017796 -0.3273229559322882 0.7984618295042101
    outer loop
      vertex 0.109992685850303 0.514610051159413 -0.850339993358623
      vertex 0.514607479088457 -0.10999293931358 -0.850338648271416
      vertex 0.744205500639123 0.482095529117254 -0.462320320293072
    endloop
  endfacet
  facet normal -0.8140858257774861 -0.06267780713934187 0.5773523713992971
    outer loop
      vertex 0.514607479088457 -0.10999293931358 -0.850338648271416
      vertex 0.946513684097905 -0.202308239889552 -0.251358517437495
      vertex 0.744205500639123 0.482095529117254 -0.462320320293072
    endloop
  endfacet
  facet normal -0.7173299969794276 0.39000271307321155 0.577352196868626
    outer loop
      vertex 0.514607479088457 -0.10999293931358 -0.850338648271416
      vertex 0.482095863264636 -0.744206144392358 -0.462320182970836
      vertex 0.946513684097905 -0.202308239889552 -0.251358517437495
    endloop
  endfacet
  facet normal -0.06267858074628493 0.81408729080524 0.5773502216722673
    outer loop
      vertex -0.109992636170853 -0.514609445875994 -0.85033946950537
      vertex -0.202308227369035 -0.946514061177261 -0.251358409243238
      vertex 0.482095863264636 -0.744206144392358 -0.462320182970836
    endloop
  endfacet
  facet normal -0.32732671227584037 0.5052874590502506 0.7984621513617476
    outer loop
      vertex 0.514607479088457 -0.10999293931358 -0.850338648271416
      vertex -0.109992636170853 -0.514609445875994 -0.85033946950537
      vertex 0.482095863264636 -0.744206144392358 -0.462320182970836
    endloop
  endfacet
  facet normal -0.000001908832707063767 9.169748857882386e-7 0.9999999999977579
    outer loop
      vertex 0.109992685850303 0.514610051159413 -0.850339993358623
      vertex -0.109992636170853 -0.514609445875994 -0.85033946950537
      vertex 0.514607479088457 -0.10999293931358 -0.850338648271416
    endloop
  endfacet
  facet normal 9.99644146338652e-7 2.9531719369351856e-7 0.9999999999994568
    outer loop
      vertex -0.109992636170853 -0.514609445875994 -0.85033946950537
      vertex 0.109992685850303 0.514610051159413 -0.850339993358623
      vertex -0.514608718525521 0.109992748807067 -0.850339249489039
    endloop
  endfacet
endsolid OpenSCAD_Model
