solid OpenSCAD_Model
  facet normal 0.6020459787625175 -2.7029641010556756e-11 -0.7984614201424401
    outer loop
      vertex -0.886712020755991 8.14488621447083e-8 0.462320186534092
      vertex -0.372102827643328 0.372102913980058 0.850339428944546
      vertex -0.37210282767674 -0.372102751205706 0.850339428944546
    endloop
  endfacet
  facet normal 0.7173304773112341 0.39000465277387764 -0.5773502898026157
    outer loop
      vertex -0.684403820529203 -0.68440374389258 0.251358417608013
      vertex -0.886712020755991 8.14488621447083e-8 0.462320186534092
      vertex -0.37210282767674 -0.372102751205706 0.850339428944546
    endloop
  endfacet
  facet normal 0.39000465290387504 0.7173304772743239 -0.5773502897606605
    outer loop
      vertex 4.84414935977988e-9 -0.886711944255454 0.462320186568933
      vertex -0.684403820529203 -0.68440374389258 0.251358417608013
      vertex -0.37210282767674 -0.372102751205706 0.850339428944546
    endloop
  endfacet
  facet normal 0 0.6020459787625184 -0.7984614201424394
    outer loop
      vertex 0.372102837442201 -0.372102751205706 0.850339428944546
      vertex 4.84414935977988e-9 -0.886711944255454 0.462320186568933
      vertex -0.37210282767674 -0.372102751205706 0.850339428944546
    endloop
  endfacet
  facet normal 0 0 -1
    outer loop
      vertex -0.37210282767674 -0.372102751205706 0.850339428944546
      vertex 0.372102837475616 0.372102913913235 0.850339428944546
      vertex 0.372102837442201 -0.372102751205706 0.850339428944546
    endloop
  endfacet
  facet normal 0 0 -1
    outer loop
      vertex 0.372102837475616 0.372102913913235 0.850339428944546
      vertex -0.37210282767674 -0.372102751205706 0.850339428944546
      vertex -0.372102827643328 0.372102913980058 0.850339428944546
    endloop
  endfacet
  facet normal -0.39000465262322165 0.717330477273545 -0.5773502899512117
    outer loop
      vertex 0.684403830235603 -0.684403744096104 0.251358417744963
      vertex 4.84414935977988e-9 -0.886711944255454 0.462320186568933
      vertex 0.372102837442201 -0.372102751205706 0.850339428944546
    endloop
  endfacet
  facet normal -0.7173304772336611 0.39000465272628376 -0.5773502899311463
    outer loop
      vertex 0.886712030508656 8.12920796074247e-8 0.462320186568933
      vertex 0.684403830235603 -0.684403744096104 0.251358417744963
      vertex 0.372102837442201 -0.372102751205706 0.850339428944546
    endloop
  endfacet
  facet normal -0.6020459787625189 2.703199277539228e-11 -0.7984614201424391
    outer loop
      vertex 0.372102837475616 0.372102913913235 0.850339428944546
      vertex 0.886712030508656 8.12920796074247e-8 0.462320186568933
      vertex 0.372102837442201 -0.372102751205706 0.850339428944546
    endloop
  endfacet
  facet normal -0.7173304772910563 -0.39000465259101763 -0.577350289951209
    outer loop
      vertex 0.684403830380031 0.684403906692617 0.251358417744963
      vertex 0.886712030508656 8.12920796074247e-8 0.462320186568933
      vertex 0.372102837475616 0.372102913913235 0.850339428944546
    endloop
  endfacet
  facet normal -0.3900046527584902 -0.7173304772161514 -0.5773502899311456
    outer loop
      vertex 5.00093259936264e-9 0.886712106996397 0.462320186568933
      vertex 0.684403830380031 0.684403906692617 0.251358417744963
      vertex 0.372102837475616 0.372102913913235 0.850339428944546
    endloop
  endfacet
  facet normal -5.405832723127026e-11 -0.6020459787625166 -0.7984614201424408
    outer loop
      vertex -0.372102827643328 0.372102913980058 0.850339428944546
      vertex 5.00093259936264e-9 0.886712106996397 0.462320186568933
      vertex 0.372102837475616 0.372102913913235 0.850339428944546
    endloop
  endfacet
  facet normal 0.39000465276861174 -0.7173304773317155 -0.5773502897807256
    outer loop
      vertex -0.684403820384777 0.684403906777947 0.251358417608012
      vertex 5.00093259936264e-9 0.886712106996397 0.462320186568933
      vertex -0.372102827643328 0.372102913980058 0.850339428944546
    endloop
  endfacet
  facet normal 0.71733047725384 -0.3900046529091442 -0.5773502897825513
    outer loop
      vertex -0.886712020755991 8.14488621447083e-8 0.462320186534092
      vertex -0.684403820384777 0.684403906777947 0.251358417608012
      vertex -0.372102827643328 0.372102913980058 0.850339428944546
    endloop
  endfacet
  facet normal 0.9293716745858772 0.3273258046155468 -0.17066372816221703
    outer loop
      vertex -0.946514058584088 -0.202308226439056 -0.251358408275452
      vertex -0.886712020755991 8.14488621447083e-8 0.462320186534092
      vertex -0.684403820529203 -0.68440374389258 0.251358417608013
    endloop
  endfacet
  facet normal 0.7800092124901851 0.6020461985552806 0.17066342090669853
    outer loop
      vertex -0.482095602976866 -0.744205525020581 -0.462320224313332
      vertex -0.946514058584088 -0.202308226439056 -0.251358408275452
      vertex -0.684403820529203 -0.68440374389258 0.251358417608013
    endloop
  endfacet
  facet normal 0.2834723816861329 0.9589804006449689 7.880132613397933e-8
    outer loop
      vertex 0.202308222389038 -0.946513725381254 -0.251358455465622
      vertex -0.684403820529203 -0.68440374389258 0.251358417608013
      vertex 4.84414935977988e-9 -0.886711944255454 0.462320186568933
    endloop
  endfacet
  facet normal 0.2834723816861336 0.9589804006449688 7.880132727625535e-8
    outer loop
      vertex -0.684403820529203 -0.68440374389258 0.251358417608013
      vertex 0.202308222389038 -0.946513725381254 -0.251358455465622
      vertex -0.482095602976866 -0.744205525020581 -0.462320224313332
    endloop
  endfacet
  facet normal -0.3273257114594627 0.9293717816655995 -0.17066332371445708
    outer loop
      vertex 0.684403830235603 -0.684403744096104 0.251358417744963
      vertex 0.202308222389038 -0.946513725381254 -0.251358455465622
      vertex 4.84414935977988e-9 -0.886711944255454 0.462320186568933
    endloop
  endfacet
  facet normal -0.6020457749882219 0.7800095606726409 0.17066332376379192
    outer loop
      vertex 0.744205809651776 -0.482095585135847 -0.46232022428253
      vertex 0.202308222389038 -0.946513725381254 -0.251358455465622
      vertex 0.684403830235603 -0.684403744096104 0.251358417744963
    endloop
  endfacet
  facet normal -0.9589803783523672 0.28347245710141844 -1.8766795824340618e-7
    outer loop
      vertex 0.684403830235603 -0.684403744096104 0.251358417744963
      vertex 0.946514009912817 0.202308240211717 -0.251358455489318
      vertex 0.744205809651776 -0.482095585135847 -0.46232022428253
    endloop
  endfacet
  facet normal -0.9589803783523658 0.28347245710142244 -1.8766795043220067e-7
    outer loop
      vertex 0.946514009912817 0.202308240211717 -0.251358455489318
      vertex 0.684403830235603 -0.684403744096104 0.251358417744963
      vertex 0.886712030508656 8.12920796074247e-8 0.462320186568933
    endloop
  endfacet
  facet normal -0.9293717177161992 -0.3273257670116551 -0.1706635654129869
    outer loop
      vertex 0.684403830380031 0.684403906692617 0.251358417744963
      vertex 0.946514009912817 0.202308240211717 -0.251358455489318
      vertex 0.886712030508656 8.12920796074247e-8 0.462320186568933
    endloop
  endfacet
  facet normal -0.7800091911959512 -0.6020461613385816 0.17066364951950552
    outer loop
      vertex 0.482095527233905 0.744205497315775 -0.46232031920658
      vertex 0.946514009912817 0.202308240211717 -0.251358455489318
      vertex 0.684403830380031 0.684403906692617 0.251358417744963
    endloop
  endfacet
  facet normal -0.2834723060176817 -0.9589804230123254 3.4545901778295036e-7
    outer loop
      vertex -0.202308239135224 0.946513680176357 -0.251358516980993
      vertex 0.684403830380031 0.684403906692617 0.251358417744963
      vertex 5.00093259936264e-9 0.886712106996397 0.462320186568933
    endloop
  endfacet
  facet normal -0.2834723060176774 -0.9589804230123267 3.4545900958157163e-7
    outer loop
      vertex 0.684403830380031 0.684403906692617 0.251358417744963
      vertex -0.202308239135224 0.946513680176357 -0.251358516980993
      vertex 0.482095527233905 0.744205497315775 -0.46232031920658
    endloop
  endfacet
  facet normal 0.32732564588123997 -0.9293718572018312 -0.17066303814724532
    outer loop
      vertex -0.684403820384777 0.684403906777947 0.251358417608012
      vertex -0.202308239135224 0.946513680176357 -0.251358516980993
      vertex 5.00093259936264e-9 0.886712106996397 0.462320186568933
    endloop
  endfacet
  facet normal 0.602045398379809 -0.7800099113327318 0.17066304963992945
    outer loop
      vertex -0.744206143513632 0.482095862603611 -0.46232018126355
      vertex -0.202308239135224 0.946513680176357 -0.251358516980993
      vertex -0.684403820384777 0.684403906777947 0.251358417608012
    endloop
  endfacet
  facet normal 0.9589803768218903 -0.28347246227897166 -2.0540706421941835e-7
    outer loop
      vertex -0.946514058584088 -0.202308226439056 -0.251358408275452
      vertex -0.684403820384777 0.684403906777947 0.251358417608012
      vertex -0.886712020755991 8.14488621447083e-8 0.462320186534092
    endloop
  endfacet
  facet normal 0.9589804664546405 -0.2834721590523855 -7.869836884464536e-7
    outer loop
      vertex -0.684403820384777 0.684403906777947 0.251358417608012
      vertex -0.946514058584088 -0.202308226439056 -0.251358408275452
      vertex -0.744206143513632 0.482095862603611 -0.46232018126355
    endloop
  endfacet
  facet normal 0.7173303870174711 0.390004936788208 0.5773502101343613
    outer loop
      vertex -0.514609444995329 -0.109992635240662 -0.850339466669233
      vertex -0.946514058584088 -0.202308226439056 -0.251358408275452
      vertex -0.482095602976866 -0.744205525020581 -0.462320224313332
    endloop
  endfacet
  facet normal 0.327325197912229 0.5052893915114173 0.7984615492544033
    outer loop
      vertex 0.109992748281039 -0.514608715101951 -0.850339245921914
      vertex -0.514609444995329 -0.109992635240662 -0.850339466669233
      vertex -0.482095602976866 -0.744205525020581 -0.462320224313332
    endloop
  endfacet
  facet normal 0.06267867377679266 0.8140869131142353 0.5773507441319512
    outer loop
      vertex 0.202308222389038 -0.946513725381254 -0.251358455465622
      vertex 0.109992748281039 -0.514608715101951 -0.850339245921914
      vertex -0.482095602976866 -0.744205525020581 -0.462320224313332
    endloop
  endfacet
  facet normal -0.39000415153420914 0.7173303841531966 0.5773507441380058
    outer loop
      vertex 0.744205809651776 -0.482095585135847 -0.46232022428253
      vertex 0.109992748281039 -0.514608715101951 -0.850339245921914
      vertex 0.202308222389038 -0.946513725381254 -0.251358455465622
    endloop
  endfacet
  facet normal -0.5052885279944909 0.32732728145634826 0.7984612415712844
    outer loop
      vertex 0.514610052544521 0.109992685002215 -0.850339992630083
      vertex 0.109992748281039 -0.514608715101951 -0.850339245921914
      vertex 0.744205809651776 -0.482095585135847 -0.46232022428253
    endloop
  endfacet
  facet normal -0.8140879429459834 0.0626794517553265 0.5773492075664681
    outer loop
      vertex 0.946514009912817 0.202308240211717 -0.251358455489318
      vertex 0.514610052544521 0.109992685002215 -0.850339992630083
      vertex 0.744205809651776 -0.482095585135847 -0.46232022428253
    endloop
  endfacet
  facet normal -0.7173307481233281 -0.3900056138746816 0.577349304098532
    outer loop
      vertex 0.482095527233905 0.744205497315775 -0.46232031920658
      vertex 0.514610052544521 0.109992685002215 -0.850339992630083
      vertex 0.946514009912817 0.202308240211717 -0.251358455489318
    endloop
  endfacet
  facet normal -0.3273229449385326 -0.505290405545784 0.7984618311354298
    outer loop
      vertex -0.109992939705104 0.514607470564033 -0.850338642226416
      vertex 0.514610052544521 0.109992685002215 -0.850339992630083
      vertex 0.482095527233905 0.744205497315775 -0.46232031920658
    endloop
  endfacet
  facet normal -0.06267780296552812 -0.8140858201688236 0.577352379760808
    outer loop
      vertex -0.202308239135224 0.946513680176357 -0.251358516980993
      vertex -0.109992939705104 0.514607470564033 -0.850338642226416
      vertex 0.482095527233905 0.744205497315775 -0.46232031920658
    endloop
  endfacet
  facet normal 0.3900027055346875 -0.7173299949937882 0.5773522044279691
    outer loop
      vertex -0.744206143513632 0.482095862603611 -0.46232018126355
      vertex -0.109992939705104 0.514607470564033 -0.850338642226416
      vertex -0.202308239135224 0.946513680176357 -0.251358516980993
    endloop
  endfacet
  facet normal 0.5052874523837114 -0.3273267159849224 0.7984621540599807
    outer loop
      vertex -0.514609444995329 -0.109992635240662 -0.850339466669233
      vertex -0.109992939705104 0.514607470564033 -0.850338642226416
      vertex -0.744206143513632 0.482095862603611 -0.46232018126355
    endloop
  endfacet
  facet normal 0.8140872910278746 -0.06267857960075393 0.5773502214827051
    outer loop
      vertex -0.946514058584088 -0.202308226439056 -0.251358408275452
      vertex -0.514609444995329 -0.109992635240662 -0.850339466669233
      vertex -0.744206143513632 0.482095862603611 -0.46232018126355
    endloop
  endfacet
  facet normal 0.0000020684474796124967 -1.444464809623117e-7 0.9999999999978503
    outer loop
      vertex -0.109992939705104 0.514607470564033 -0.850338642226416
      vertex 0.109992748281039 -0.514608715101951 -0.850339245921914
      vertex 0.514610052544521 0.109992685002215 -0.850339992630083
    endloop
  endfacet
  facet normal -8.512581595909638e-7 -7.685072591577896e-7 0.9999999999993423
    outer loop
      vertex 0.109992748281039 -0.514608715101951 -0.850339245921914
      vertex -0.109992939705104 0.514607470564033 -0.850338642226416
      vertex -0.514609444995329 -0.109992635240662 -0.850339466669233
    endloop
  endfacet
endsolid OpenSCAD_Model
