solid OpenSCAD_Model
  facet normal 0.43280677023615133 0.14062744428689597 -0.8904505722111066
    outer loop
      vertex -0.643795143608059 -0.209181733334976 0.736050065152983
      vertex -0.375267886281395 0.121931921959161 0.918860978140795
      vertex -0.231928305560341 -0.319221945932502 0.918860978140795
    endloop
  endfacet
  facet normal 0.45889433543678504 0.39741698425499133 -0.7946544717861338
    outer loop
      vertex -0.450671786484567 -0.620296518133699 0.641970454470363
      vertex -0.643795143608059 -0.209181733334976 0.736050065152983
      vertex -0.231928305560341 -0.319221945932502 0.918860978140795
    endloop
  endfacet
  facet normal 0.23615986439313122 0.5592430499868088 -0.7946544717619535
    outer loop
      vertex 7.96522865609951e-9 -0.676926290314683 0.736050065175576
      vertex -0.450671786484567 -0.620296518133699 0.641970454470363
      vertex -0.231928305560341 -0.319221945932502 0.918860978140795
    endloop
  endfacet
  facet normal 0 0.45507996928992006 -0.8904505722111057
    outer loop
      vertex 0.231928321538893 -0.319221945932502 0.918860978140795
      vertex 7.96522865609951e-9 -0.676926290314683 0.736050065175576
      vertex -0.231928305560341 -0.319221945932502 0.918860978140795
    endloop
  endfacet
  facet normal 0 0 -1
    outer loop
      vertex 0.231928321538893 -0.319221945932502 0.918860978140795
      vertex 8.02470666570088e-9 0.394580006505783 0.918860978140795
      vertex 0.375267902281846 0.121931921891768 0.918860978140795
    endloop
  endfacet
  facet normal 0 0 -1
    outer loop
      vertex -0.231928305560341 -0.319221945932502 0.918860978140795
      vertex 8.02470666570088e-9 0.394580006505783 0.918860978140795
      vertex 0.231928321538893 -0.319221945932502 0.918860978140795
    endloop
  endfacet
  facet normal 0 0 -1
    outer loop
      vertex 8.02470666570088e-9 0.394580006505783 0.918860978140795
      vertex -0.231928305560341 -0.319221945932502 0.918860978140795
      vertex -0.375267886281395 0.121931921959161 0.918860978140795
    endloop
  endfacet
  facet normal 0.26748929452265463 -0.368167428983997 -0.890450572211106
    outer loop
      vertex -0.397887277386501 0.547644857836196 0.736050065175576
      vertex 8.02470666570088e-9 0.394580006505783 0.918860978140795
      vertex -0.375267886281395 0.121931921959161 0.918860978140795
    endloop
  endfacet
  facet normal 0.5197721608447449 -0.3136258460402919 -0.7946544717714082
    outer loop
      vertex -0.729202273100998 0.236932175435458 0.641970454470362
      vertex -0.397887277386501 0.547644857836196 0.736050065175576
      vertex -0.375267886281395 0.121931921959161 0.918860978140795
    endloop
  endfacet
  facet normal 0.604849158349264 -0.051785771496783914 -0.7946544717766773
    outer loop
      vertex -0.643795143608059 -0.209181733334976 0.736050065152983
      vertex -0.729202273100998 0.236932175435458 0.641970454470362
      vertex -0.375267886281395 0.121931921959161 0.918860978140795
    endloop
  endfacet
  facet normal -0.2674892945887716 -0.3681674289359597 -0.8904505722111062
    outer loop
      vertex 0.397887293502313 0.547644857736472 0.736050065175576
      vertex 0.375267902281846 0.121931921891768 0.918860978140795
      vertex 8.02470666570088e-9 0.394580006505783 0.918860978140795
    endloop
  endfacet
  facet normal -0.13765747393342906 -0.5912484164158686 -0.7946544720543608
    outer loop
      vertex 8.09786935330627e-9 0.766728644215033 0.641970454693346
      vertex 0.397887293502313 0.547644857736472 0.736050065175576
      vertex 8.02470666570088e-9 0.394580006505783 0.918860978140795
    endloop
  endfacet
  facet normal 0.1376574737857545 -0.5912484164629591 -0.7946544720449055
    outer loop
      vertex -0.397887277386501 0.547644857836196 0.736050065175576
      vertex 8.09786935330627e-9 0.766728644215033 0.641970454693346
      vertex 8.02470666570088e-9 0.394580006505783 0.918860978140795
    endloop
  endfacet
  facet normal -0.4328067702235238 0.14062744432576063 -0.8904505722111065
    outer loop
      vertex 0.643795159530729 -0.209181733431299 0.736050065175576
      vertex 0.231928321538893 -0.319221945932502 0.918860978140795
      vertex 0.375267902281846 0.121931921891768 0.918860978140795
    endloop
  endfacet
  facet normal -0.6048491580278031 -0.051785770990389404 -0.7946544720543568
    outer loop
      vertex 0.729202289224065 0.236932175320542 0.641970454693346
      vertex 0.643795159530729 -0.209181733431299 0.736050065175576
      vertex 0.375267902281846 0.121931921891768 0.918860978140795
    endloop
  endfacet
  facet normal -0.5197721604125065 -0.3136258460636715 -0.7946544720449019
    outer loop
      vertex 0.397887293502313 0.547644857736472 0.736050065175576
      vertex 0.729202289224065 0.236932175320542 0.641970454693346
      vertex 0.375267902281846 0.121931921891768 0.918860978140795
    endloop
  endfacet
  facet normal -0.2361598638358291 0.5592430498066568 -0.794654472054359
    outer loop
      vertex 0.450671802407562 -0.620296518300059 0.641970454693346
      vertex 7.96522865609951e-9 -0.676926290314683 0.736050065175576
      vertex 0.231928321538893 -0.319221945932502 0.918860978140795
    endloop
  endfacet
  facet normal -0.4588943353621529 0.39741698382374435 -0.7946544720449045
    outer loop
      vertex 0.643795159530729 -0.209181733431299 0.736050065175576
      vertex 0.450671802407562 -0.620296518300059 0.641970454693346
      vertex 0.231928321538893 -0.319221945932502 0.918860978140795
    endloop
  endfacet
  facet normal 0.8911668567359672 0.07629962071792598 -0.447213596991009
    outer loop
      vertex -0.643795143608059 -0.209181733334976 0.736050065152983
      vertex -0.938511196120436 0.258725954360736 0.228596802166739
      vertex -0.729202273100998 0.236932175435458 0.641970454470362
    endloop
  endfacet
  facet normal 0.8911668567359669 0.07629962071792455 -0.44721359699101015
    outer loop
      vertex -0.938511196120436 0.258725954360736 0.228596802166739
      vertex -0.643795143608059 -0.209181733334976 0.736050065152983
      vertex -0.98246409523482 -0.173918658300567 0.0671974456052245
    endloop
  endfacet
  facet normal 0.8911668567359665 0.07629962071793177 -0.44721359699100965
    outer loop
      vertex -0.98246409523482 -0.173918658300567 0.0671974456052245
      vertex -0.643795143608059 -0.209181733334976 0.736050065152983
      vertex -0.800319557740161 -0.463101512903121 0.380820809854719
    endloop
  endfacet
  facet normal 0.6555412403531491 0.4471951457205822 -0.6085081625091006
    outer loop
      vertex -0.450671786484567 -0.620296518133699 0.641970454470363
      vertex -0.800319557740161 -0.463101512903121 0.380820809854719
      vertex -0.643795143608059 -0.209181733334976 0.736050065152983
    endloop
  endfacet
  facet normal 0.6278812445919183 -0.4852658747506739 -0.6085081540063099
    outer loop
      vertex -0.687748039536106 0.618042892620898 0.380820807187455
      vertex -0.397887277386501 0.547644857836196 0.736050065175576
      vertex -0.729202273100998 0.236932175435458 0.641970454470362
    endloop
  endfacet
  facet normal 0.8149214524244531 -0.38530830746451167 -0.43294403169145673
    outer loop
      vertex -0.938511196120436 0.258725954360736 0.228596802166739
      vertex -0.687748039536106 0.618042892620898 0.380820807187455
      vertex -0.729202273100998 0.236932175435458 0.641970454470362
    endloop
  endfacet
  facet normal 0.34795096059023223 -0.8239721678443707 -0.4472135906277704
    outer loop
      vertex -0.0439528900321955 0.972527905886489 0.228596801517122
      vertex -0.397887277386501 0.547644857836196 0.736050065175576
      vertex -0.687748039536106 0.618042892620898 0.380820807187455
    endloop
  endfacet
  facet normal 0.34795095703164125 -0.8239721679513645 -0.4472135931993719
    outer loop
      vertex -0.397887277386501 0.547644857836196 0.736050065175576
      vertex -0.0439528900321955 0.972527905886489 0.228596801517122
      vertex 8.09786935330627e-9 0.766728644215033 0.641970454693346
    endloop
  endfacet
  facet normal 0.3479509579016867 -0.823972165619869 -0.44721359681812195
    outer loop
      vertex -0.0439528900321955 0.972527905886489 0.228596801517122
      vertex -0.687748039536106 0.618042892620898 0.380820807187455
      vertex -0.469004560413391 0.880635058100976 0.0671974442847035
    endloop
  endfacet
  facet normal -0.26748929344139644 -0.747105946471342 -0.6085081615240531
    outer loop
      vertex 0.375267902672186 0.845073016540046 0.38082080961792
      vertex 0.397887293502313 0.547644857736472 0.736050065175576
      vertex 8.09786935330627e-9 0.766728644215033 0.641970454693346
    endloop
  endfacet
  facet normal -0.11462538723693126 -0.8941031749716787 -0.43294402999273135
    outer loop
      vertex -0.0439528900321955 0.972527905886489 0.228596801517122
      vertex 0.375267902672186 0.845073016540046 0.38082080961792
      vertex 8.09786935330627e-9 0.766728644215033 0.641970454693346
    endloop
  endfacet
  facet normal -0.6761213399768439 -0.5855424262172626 -0.44721359631334884
    outer loop
      vertex 0.911346826727347 0.342329335627551 0.228596802253615
      vertex 0.375267902672186 0.845073016540046 0.38082080961792
      vertex 0.692603346068016 0.718181045458317 0.0671974454079138
    endloop
  endfacet
  facet normal -0.676121339976844 -0.5855424262172629 -0.44721359631334795
    outer loop
      vertex 0.375267902672186 0.845073016540046 0.38082080961792
      vertex 0.911346826727347 0.342329335627551 0.228596802253615
      vertex 0.397887293502313 0.547644857736472 0.736050065175576
    endloop
  endfacet
  facet normal -0.6761213399768451 -0.5855424262172594 -0.4472135963133508
    outer loop
      vertex 0.397887293502313 0.547644857736472 0.736050065175576
      vertex 0.911346826727347 0.342329335627551 0.228596802253615
      vertex 0.729202289224065 0.236932175320542 0.641970454693346
    endloop
  endfacet
  facet normal -0.7931987195648288 0.0235290030422104 -0.6085081571323064
    outer loop
      vertex 0.919676370072883 -0.0957590586378406 0.380820808245892
      vertex 0.643795159530729 -0.209181733431299 0.736050065175576
      vertex 0.729202289224065 0.236932175320542 0.641970454693346
    endloop
  endfacet
  facet normal -0.8857638440183779 -0.16727784661958278 -0.43294403178713753
    outer loop
      vertex 0.911346826727347 0.342329335627551 0.228596802253615
      vertex 0.919676370072883 -0.0957590586378406 0.380820808245892
      vertex 0.729202289224065 0.236932175320542 0.641970454693346
    endloop
  endfacet
  facet normal -0.7658169264347598 0.462087044961981 -0.44721359333580385
    outer loop
      vertex 0.450671802407562 -0.620296518300059 0.641970454693346
      vertex 0.919676370072883 -0.0957590586378406 0.380820808245892
      vertex 0.897056978836505 -0.436774774161999 0.0671974441806373
    endloop
  endfacet
  facet normal -0.7658169266340542 0.4620870456788724 -0.4472135922537947
    outer loop
      vertex 0.919676370072883 -0.0957590586378406 0.380820808245892
      vertex 0.450671802407562 -0.620296518300059 0.641970454693346
      vertex 0.643795159530729 -0.209181733431299 0.736050065175576
    endloop
  endfacet
  facet normal -0.7658169262363139 0.4620870456538108 -0.4472135929607878
    outer loop
      vertex 0.450671802407562 -0.620296518300059 0.641970454693346
      vertex 0.897056978836505 -0.436774774161999 0.0671974441806373
      vertex 0.607196214819782 -0.760956753039414 0.228596801441351
    endloop
  endfacet
  facet normal -0.22273447310807834 0.761647668910971 -0.6085081617626428
    outer loop
      vertex 0.193123364952677 -0.904255381143256 0.380820809675447
      vertex 7.96522865609951e-9 -0.676926290314683 0.736050065175576
      vertex 0.450671802407562 -0.620296518300059 0.641970454693346
    endloop
  endfacet
  facet normal -0.43280677452491567 0.7907197752374018 -0.43294402983971453
    outer loop
      vertex 0.607196214819782 -0.760956753039414 0.228596801441351
      vertex 0.193123364952677 -0.904255381143256 0.380820809675447
      vertex 0.450671802407562 -0.620296518300059 0.641970454693346
    endloop
  endfacet
  facet normal 0.20282045196178136 0.871127926039031 -0.4472135963283713
    outer loop
      vertex -0.138191630806145 -0.988122713670143 0.0671974454047688
      vertex 7.96522865609951e-9 -0.676926290314683 0.736050065175576
      vertex 0.193123364952677 -0.904255381143256 0.380820809675447
    endloop
  endfacet
  facet normal 0.20282045196178183 0.8711279260390308 -0.44721359632837127
    outer loop
      vertex 7.96522865609951e-9 -0.676926290314683 0.736050065175576
      vertex -0.138191630806145 -0.988122713670143 0.0671974454047688
      vertex -0.450671786484567 -0.620296518133699 0.641970454470363
    endloop
  endfacet
  facet normal 0.2028204519617803 0.8711279260390308 -0.4472135963283722
    outer loop
      vertex -0.450671786484567 -0.620296518133699 0.641970454470363
      vertex -0.138191630806145 -0.988122713670143 0.0671974454047688
      vertex -0.536078916176699 -0.812626484906181 0.228596802076208
    endloop
  endfacet
  facet normal 0.6182745461098635 0.6559695497734003 -0.4329440326447804
    outer loop
      vertex -0.536078916176699 -0.812626484906181 0.228596802076208
      vertex -0.800319557740161 -0.463101512903121 0.380820809854719
      vertex -0.450671786484567 -0.620296518133699 0.641970454470363
    endloop
  endfacet
  facet normal 0.8969429721067033 0.4220597814153738 -0.13175297226249047
    outer loop
      vertex -0.809754116124201 -0.582907950743952 -0.0671974685272689
      vertex -0.98246409523482 -0.173918658300567 0.0671974456052245
      vertex -0.800319557740161 -0.463101512903121 0.380820809854719
    endloop
  endfacet
  facet normal 0.7425066301945207 0.6430341883993743 -0.18759247497363893
    outer loop
      vertex -0.536078916176699 -0.812626484906181 0.228596802076208
      vertex -0.809754116124201 -0.582907950743952 -0.0671974685272689
      vertex -0.800319557740161 -0.463101512903121 0.380820809854719
    endloop
  endfacet
  facet normal 0.6785733299617045 -0.7226198104898179 -0.13175297094313843
    outer loop
      vertex -0.804606171703024 0.589993463714018 -0.0671974686360806
      vertex -0.469004560413391 0.880635058100976 0.0671974442847035
      vertex -0.687748039536106 0.618042892620898 0.380820807187455
    endloop
  endfacet
  facet normal 0.8410090171354613 -0.5074572864788276 -0.18759247185425715
    outer loop
      vertex -0.938511196120436 0.258725954360736 0.228596802166739
      vertex -0.804606171703024 0.589993463714018 -0.0671974686360806
      vertex -0.687748039536106 0.618042892620898 0.380820807187455
    endloop
  endfacet
  facet normal -0.4775615972031629 -0.8686633833689898 -0.13175297822327667
    outer loop
      vertex 0.312480165577626 0.947543957591592 -0.0671974677310591
      vertex 0.692603346068016 0.718181045458317 0.0671974454079138
      vertex 0.375267902672186 0.845073016540046 0.38082080961792
    endloop
  endfacet
  facet normal -0.22273446524056076 -0.9566600329031829 -0.18759248236451878
    outer loop
      vertex -0.0439528900321955 0.972527905886489 0.228596801517122
      vertex 0.312480165577626 0.947543957591592 -0.0671974677310591
      vertex 0.375267902672186 0.845073016540046 0.38082080961792
    endloop
  endfacet
  facet normal -0.9737226212209905 0.18575631985822066 -0.1317529755081606
    outer loop
      vertex 0.997729547268712 -0.00437910810794139 -0.0671974679776499
      vertex 0.897056978836505 -0.436774774161999 0.0671974441806373
      vertex 0.919676370072883 -0.0957590586378406 0.380820808245892
    endloop
  endfacet
  facet normal -0.978666494570397 -0.08379113464002051 -0.18759247895645753
    outer loop
      vertex 0.911346826727347 0.342329335627551 0.228596802253615
      vertex 0.997729547268712 -0.00437910810794139 -0.0671974679776499
      vertex 0.919676370072883 -0.0957590586378406 0.380820808245892
    endloop
  endfacet
  facet normal -0.12423207635400497 0.9834671034394445 -0.13175297969002991
    outer loop
      vertex 0.304150619490349 -0.950250408786328 -0.0671974674877803
      vertex -0.138191630806145 -0.988122713670143 0.0671974454047688
      vertex 0.193123364952677 -0.904255381143256 0.380820809675447
    endloop
  endfacet
  facet normal -0.3821146922367137 0.9048742574321786 -0.18759248442676138
    outer loop
      vertex 0.607196214819782 -0.760956753039414 0.228596801441351
      vertex 0.304150619490349 -0.950250408786328 -0.0671974674877803
      vertex 0.193123364952677 -0.904255381143256 0.380820809675447
    endloop
  endfacet
  facet normal 0.6278812350265368 0.7779618676841787 0.023248379102535133
    outer loop
      vertex -0.469004558966205 -0.853098544996662 -0.228596825919992
      vertex -0.809754116124201 -0.582907950743952 -0.0671974685272689
      vertex -0.536078916176699 -0.812626484906181 0.228596802076208
    endloop
  endfacet
  facet normal 0.3955400801138689 0.9181544306461945 -0.023248365711950686
    outer loop
      vertex -0.138191630806145 -0.988122713670143 0.0671974454047688
      vertex -0.469004558966205 -0.853098544996662 -0.228596825919992
      vertex -0.536078916176699 -0.812626484906181 0.228596802076208
    endloop
  endfacet
  facet normal 0.927974410321362 0.34857517042472463 0.13175296714721324
    outer loop
      vertex -0.890013306706725 -0.250700456739293 -0.380820832615819
      vertex -0.98246409523482 -0.173918658300567 0.0671974456052245
      vertex -0.809754116124201 -0.582907950743952 -0.0671974685272689
    endloop
  endfacet
  facet normal 0.6761213337048142 0.5855424322044452 0.44721359795664295
    outer loop
      vertex -0.338668942077928 -0.687878021634188 -0.641970477938108
      vertex -0.890013306706725 -0.250700456739293 -0.380820832615819
      vertex -0.809754116124201 -0.582907950743952 -0.0671974685272689
    endloop
  endfacet
  facet normal 0.6761213337048148 0.5855424322044498 0.4472135979566362
    outer loop
      vertex -0.890013306706725 -0.250700456739293 -0.380820832615819
      vertex -0.338668942077928 -0.687878021634188 -0.641970477938108
      vertex -0.598866657595016 -0.315575528577551 -0.736050087882982
    endloop
  endfacet
  facet normal 0.67612133370481 0.5855424322044541 0.44721359795663784
    outer loop
      vertex -0.338668942077928 -0.687878021634188 -0.641970477938108
      vertex -0.809754116124201 -0.582907950743952 -0.0671974685272689
      vertex -0.469004558966205 -0.853098544996662 -0.228596825919992
    endloop
  endfacet
  facet normal 0.9954453610856366 -0.09245564247557675 -0.023248382040796236
    outer loop
      vertex -0.956275303340901 0.182427896042601 -0.228596825602533
      vertex -0.938511196120436 0.258725954360736 0.228596802166739
      vertex -0.98246409523482 -0.173918658300567 0.0671974456052245
    endloop
  endfacet
  facet normal 0.9786664960294239 0.08379114085115465 0.18759246857044012
    outer loop
      vertex -0.890013306706725 -0.250700456739293 -0.380820832615819
      vertex -0.956275303340901 0.182427896042601 -0.228596825602533
      vertex -0.98246409523482 -0.173918658300567 0.0671974456052245
    endloop
  endfacet
  facet normal 0.9339116682681224 -0.356747122280484 0.02324836805553406
    outer loop
      vertex -0.956275303340901 0.182427896042601 -0.228596825602533
      vertex -0.804606171703024 0.589993463714018 -0.0671974686360806
      vertex -0.938511196120436 0.258725954360736 0.228596802166739
    endloop
  endfacet
  facet normal 0.6182745484852857 -0.7748404567548377 0.13175298581538988
    outer loop
      vertex -0.513459521193173 0.768982245341957 -0.380820832240874
      vertex -0.469004560413391 0.880635058100976 0.0671974442847035
      vertex -0.804606171703024 0.589993463714018 -0.0671974686360806
    endloop
  endfacet
  facet normal 0.7658169189908605 -0.4620870567179282 0.4472135939359491
    outer loop
      vertex -0.956275303340901 0.182427896042601 -0.228596825602533
      vertex -0.513459521193173 0.768982245341957 -0.380820832240874
      vertex -0.804606171703024 0.589993463714018 -0.0671974686360806
    endloop
  endfacet
  facet normal 0.7658169189908598 -0.462087056717927 0.4472135939359515
    outer loop
      vertex -0.513459521193173 0.768982245341957 -0.380820832240874
      vertex -0.956275303340901 0.182427896042601 -0.228596825602533
      vertex -0.48519012656357 0.472037827520411 -0.736050089336551
    endloop
  endfacet
  facet normal 0.7658169189908597 -0.4620870567179277 0.447213593935951
    outer loop
      vertex -0.48519012656357 0.472037827520411 -0.736050089336551
      vertex -0.956275303340901 0.182427896042601 -0.228596825602533
      vertex -0.758865330699717 0.109527303354239 -0.641970479358182
    endloop
  endfacet
  facet normal 0.21967899551353198 -0.9752951612635518 -0.02324838373022546
    outer loop
      vertex -0.122006066147665 0.965845179783693 -0.228596826088126
      vertex -0.0439528900321955 0.972527905886489 0.228596801517122
      vertex -0.469004560413391 0.880635058100976 0.0671974442847035
    endloop
  endfacet
  facet normal 0.3821147043197705 -0.9048742524573393 0.1875924838110149
    outer loop
      vertex -0.513459521193173 0.768982245341957 -0.380820832240874
      vertex -0.122006066147665 0.965845179783693 -0.228596826088126
      vertex -0.469004560413391 0.880635058100976 0.0671974442847035
    endloop
  endfacet
  facet normal -0.05069208042670727 -0.9984437022555341 0.023248363561221733
    outer loop
      vertex -0.122006066147665 0.965845179783693 -0.228596826088126
      vertex 0.312480165577626 0.947543957591592 -0.0671974677310591
      vertex -0.0439528900321955 0.972527905886489 0.228596801517122
    endloop
  endfacet
  facet normal -0.5458597329977964 -0.8274529008668144 0.13175298379417547
    outer loop
      vertex 0.572677873599642 0.725957610647756 -0.380820832862377
      vertex 0.692603346068016 0.718181045458317 0.0671974454079138
      vertex 0.312480165577626 0.947543957591592 -0.0671974677310591
    endloop
  endfacet
  facet normal -0.20282045405722646 -0.8711279202117953 0.44721360672892363
    outer loop
      vertex 0.299002671939031 0.607310942197654 -0.736050083049967
      vertex 0.312480165577626 0.947543957591592 -0.0671974677310591
      vertex -0.122006066147665 0.965845179783693 -0.228596826088126
    endloop
  endfacet
  facet normal -0.20282045405721189 -0.8711279202117934 0.4472136067289343
    outer loop
      vertex 0.299002671939031 0.607310942197654 -0.736050083049967
      vertex -0.122006066147665 0.965845179783693 -0.228596826088126
      vertex -0.130335614159558 0.755569613346236 -0.641970473021757
    endloop
  endfacet
  facet normal -0.20282045405722446 -0.8711279202117956 0.44721360672892385
    outer loop
      vertex 0.312480165577626 0.947543957591592 -0.0671974677310591
      vertex 0.299002671939031 0.607310942197654 -0.736050083049967
      vertex 0.572677873599642 0.725957610647756 -0.380820832862377
    endloop
  endfacet
  facet normal -0.8596762776457338 -0.5103099161814245 -0.023248378439854566
    outer loop
      vertex 0.880871416917429 0.414497240276067 -0.228596826736584
      vertex 0.911346826727347 0.342329335627551 0.228596802253615
      vertex 0.692603346068016 0.718181045458317 0.0671974454079138
    endloop
  endfacet
  facet normal -0.7425066236184403 -0.6430341942583687 0.18759248091870376
    outer loop
      vertex 0.572677873599642 0.725957610647756 -0.380820832862377
      vertex 0.880871416917429 0.414497240276067 -0.228596826736584
      vertex 0.692603346068016 0.718181045458317 0.0671974454079138
    endloop
  endfacet
  facet normal -0.9652411049842361 -0.2603250325956609 0.023248368821900397
    outer loop
      vertex 0.880871416917429 0.414497240276067 -0.228596826736584
      vertex 0.997729547268712 -0.00437910810794139 -0.0671974679776499
      vertex 0.911346826727347 0.342329335627551 0.228596802253615
    endloop
  endfacet
  facet normal -0.8911668625181238 -0.0762996231519259 0.4472135850535821
    outer loop
      vertex 0.678313506451853 0.35744038572391 -0.641970481354542
      vertex 0.997729547268712 -0.00437910810794139 -0.0671974679776499
      vertex 0.880871416917429 0.414497240276067 -0.228596826736584
    endloop
  endfacet
  facet normal -0.8911668625181255 -0.07629962315193525 0.4472135850535771
    outer loop
      vertex 0.669983963148922 -0.0966990379294216 -0.736050091770732
      vertex 0.997729547268712 -0.00437910810794139 -0.0671974679776499
      vertex 0.678313506451853 0.35744038572391 -0.641970481354542
    endloop
  endfacet
  facet normal -0.8911668625181257 -0.07629962315193355 0.44721358505357695
    outer loop
      vertex 0.997729547268712 -0.00437910810794139 -0.0671974679776499
      vertex 0.669983963148922 -0.0966990379294216 -0.736050091770732
      vertex 0.867393932712097 -0.320315782806461 -0.380820834095563
    endloop
  endfacet
  facet normal -0.9556344131290492 0.26344643864446643 0.13175295977337692
    outer loop
      vertex 0.867393932712097 -0.320315782806461 -0.380820834095563
      vertex 0.897056978836505 -0.436774774161999 0.0671974441806373
      vertex 0.997729547268712 -0.00437910810794139 -0.0671974679776499
    endloop
  endfacet
  facet normal -0.8410090022610754 0.5074573117492394 0.18759247017955102
    outer loop
      vertex 0.867393932712097 -0.320315782806461 -0.380820834095563
      vertex 0.66641453977267 -0.709671796935681 -0.228596826996255
      vertex 0.897056978836505 -0.436774774161999 0.0671974441806373
    endloop
  endfacet
  facet normal -0.7509881440445185 0.6599062979229705 -0.023248343299448658
    outer loop
      vertex 0.66641453977267 -0.709671796935681 -0.228596826996255
      vertex 0.607196214819782 -0.760956753039414 0.228596801441351
      vertex 0.897056978836505 -0.436774774161999 0.0671974441806373
    endloop
  endfacet
  facet normal -0.5458597526924073 0.8375539639455317 0.023248394992150843
    outer loop
      vertex 0.66641453977267 -0.709671796935681 -0.228596826996255
      vertex 0.304150619490349 -0.950250408786328 -0.0671974674877803
      vertex 0.607196214819782 -0.760956753039414 0.228596801441351
    endloop
  endfacet
  facet normal -0.0447548379849073 0.9902717705217974 0.1317528936478039
    outer loop
      vertex -0.0365989325764785 -0.923923701191533 -0.380820836159628
      vertex -0.138191630806145 -0.988122713670143 0.0671974454047688
      vertex 0.304150619490349 -0.950250408786328 -0.0671974674877803
    endloop
  endfacet
  facet normal -0.347951008167779 0.8239721623749267 0.44721356368765663
    outer loop
      vertex 0.549556403448352 -0.534659328913231 -0.64197048798566
      vertex 0.304150619490349 -0.950250408786328 -0.0671974674877803
      vertex 0.66641453977267 -0.709671796935681 -0.228596826996255
    endloop
  endfacet
  facet normal -0.34795100816777375 0.8239721623749273 0.4472135636876594
    outer loop
      vertex 0.304150619490349 -0.950250408786328 -0.0671974674877803
      vertex 0.549556403448352 -0.534659328913231 -0.64197048798566
      vertex -0.0365989325764785 -0.923923701191533 -0.380820836159628
    endloop
  endfacet
  facet normal -0.347951008167771 0.8239721623749261 0.44721356368766363
    outer loop
      vertex -0.0365989325764785 -0.923923701191533 -0.380820836159628
      vertex 0.549556403448352 -0.534659328913231 -0.64197048798566
      vertex 0.115070182927188 -0.667074287936001 -0.736050099528813
    endloop
  endfacet
  facet normal 0.22273453423210815 0.9566600299962782 0.18759241527291573
    outer loop
      vertex -0.0365989325764785 -0.923923701191533 -0.380820836159628
      vertex -0.469004558966205 -0.853098544996662 -0.228596825919992
      vertex -0.138191630806145 -0.988122713670143 0.0671974454047688
    endloop
  endfacet
  facet normal 0.2920938903510916 0.8527840353638578 0.43294404747969334
    outer loop
      vertex -0.0365989325764785 -0.923923701191533 -0.380820836159628
      vertex -0.338668942077928 -0.687878021634188 -0.641970477938108
      vertex -0.469004558966205 -0.853098544996662 -0.228596825919992
    endloop
  endfacet
  facet normal 0.9013078003984554 -0.014272952455820682 0.43294402844835717
    outer loop
      vertex -0.758865330699717 0.109527303354239 -0.641970479358182
      vertex -0.956275303340901 0.182427896042601 -0.228596825602533
      vertex -0.890013306706725 -0.250700456739293 -0.380820832615819
    endloop
  endfacet
  facet normal 0.7776547592828528 0.15802181259129525 0.6085081610874993
    outer loop
      vertex -0.598866657595016 -0.315575528577551 -0.736050087882982
      vertex -0.758865330699717 0.109527303354239 -0.641970479358182
      vertex -0.890013306706725 -0.250700456739293 -0.380820832615819
    endloop
  endfacet
  facet normal 0.2649450584916014 -0.8616052323387322 0.4329440374775951
    outer loop
      vertex -0.130335614159558 0.755569613346236 -0.641970473021757
      vertex -0.122006066147665 0.965845179783693 -0.228596826088126
      vertex -0.513459521193173 0.768982245341957 -0.380820832240874
    endloop
  endfacet
  facet normal 0.39059621160603936 -0.6907622062033556 0.608508154390788
    outer loop
      vertex -0.48519012656357 0.472037827520411 -0.736050089336551
      vertex -0.130335614159558 0.755569613346236 -0.641970473021757
      vertex -0.513459521193173 0.768982245341957 -0.380820832240874
    endloop
  endfacet
  facet normal -0.7375627532486851 -0.5182283864637262 0.43294402003425575
    outer loop
      vertex 0.678313506451853 0.35744038572391 -0.641970481354542
      vertex 0.880871416917429 0.414497240276067 -0.228596826736584
      vertex 0.572677873599642 0.725957610647756 -0.380820832862377
    endloop
  endfacet
  facet normal -0.5362530071731471 -0.5849363451148273 0.6085081630195806
    outer loop
      vertex 0.299002671939031 0.607310942197654 -0.736050083049967
      vertex 0.678313506451853 0.35744038572391 -0.641970481354542
      vertex 0.572677873599642 0.725957610647756 -0.380820832862377
    endloop
  endfacet
  facet normal -0.7207838834013259 0.5413225232068544 0.4329440140455443
    outer loop
      vertex 0.549556403448352 -0.534659328913231 -0.64197048798566
      vertex 0.66641453977267 -0.709671796935681 -0.228596826996255
      vertex 0.867393932712097 -0.320315782806461 -0.380820834095563
    endloop
  endfacet
  facet normal -0.7220187972409606 0.3292516950412674 0.6085081574992802
    outer loop
      vertex 0.669983963148922 -0.0966990379294216 -0.736050091770732
      vertex 0.549556403448352 -0.534659328913231 -0.64197048798566
      vertex 0.867393932712097 -0.320315782806461 -0.380820834095563
    endloop
  endfacet
  facet normal 0.09002096432448949 0.7884250356936712 0.6085081668092239
    outer loop
      vertex 0.115070182927188 -0.667074287936001 -0.736050099528813
      vertex -0.338668942077928 -0.687878021634188 -0.641970477938108
      vertex -0.0365989325764785 -0.923923701191533 -0.380820836159628
    endloop
  endfacet
  facet normal 0.3846587631176601 0.4696399574475144 0.7946546081949621
    outer loop
      vertex -0.174288479527823 -0.354001231913204 -0.918860921224287
      vertex -0.598866657595016 -0.315575528577551 -0.736050087882982
      vertex -0.338668942077928 -0.687878021634188 -0.641970477938108
    endloop
  endfacet
  facet normal 0.13765759218490478 0.5912481968850481 0.7946546149076552
    outer loop
      vertex 0.115070182927188 -0.667074287936001 -0.736050099528813
      vertex -0.174288479527823 -0.354001231913204 -0.918860921224287
      vertex -0.338668942077928 -0.687878021634188 -0.641970477938108
    endloop
  endfacet
  facet normal 0.6048493426273509 0.051785880597687906 0.7946543244040036
    outer loop
      vertex -0.390533395021563 0.0563658023794823 -0.918861081050615
      vertex -0.758865330699717 0.109527303354239 -0.641970479358182
      vertex -0.598866657595016 -0.315575528577551 -0.736050087882982
    endloop
  endfacet
  facet normal 0.4026023257597189 0.21215361116664064 0.8904505671635112
    outer loop
      vertex -0.174288479527823 -0.354001231913204 -0.918860921224287
      vertex -0.390533395021563 0.0563658023794823 -0.918861081050615
      vertex -0.598866657595016 -0.315575528577551 -0.736050087882982
    endloop
  endfacet
  facet normal 0.565520511378732 -0.2207057907889676 0.7946543305879317
    outer loop
      vertex -0.390533395021563 0.0563658023794823 -0.918861081050615
      vertex -0.48519012656357 0.472037827520411 -0.736050089336551
      vertex -0.758865330699717 0.109527303354239 -0.641970479358182
    endloop
  endfacet
  facet normal 0.23615947446492488 -0.5592426874201728 0.7946548428012714
    outer loop
      vertex -0.0670742682023817 0.38883710314742 -0.918860801919115
      vertex -0.130335614159558 0.755569613346236 -0.641970473021757
      vertex -0.48519012656357 0.472037827520411 -0.736050089336551
    endloop
  endfacet
  facet normal 0.3261800912730956 -0.31733919835525226 0.8904506618810056
    outer loop
      vertex -0.390533395021563 0.0563658023794823 -0.918861081050615
      vertex -0.0670742682023817 0.38883710314742 -0.918860801919115
      vertex -0.48519012656357 0.472037827520411 -0.736050089336551
    endloop
  endfacet
  facet normal -0.03514790572552094 -0.6060431845073802 0.7946548201799719
    outer loop
      vertex -0.0670742682023817 0.38883710314742 -0.918860801919115
      vertex 0.299002671939031 0.607310942197654 -0.736050083049967
      vertex -0.130335614159558 0.755569613346236 -0.641970473021757
    endloop
  endfacet
  facet normal -0.20101041445717896 -0.40828045047518363 0.8904503843783405
    outer loop
      vertex -0.0670742682023817 0.38883710314742 -0.918860801919115
      vertex 0.349079404596965 0.183949095933532 -0.918861414682032
      vertex 0.299002671939031 0.607310942197654 -0.736050083049967
    endloop
  endfacet
  facet normal -0.45889480863074267 -0.39741806562918236 0.7946536577171925
    outer loop
      vertex 0.349079404596965 0.183949095933532 -0.918861414682032
      vertex 0.678313506451853 0.35744038572391 -0.641970481354542
      vertex 0.299002671939031 0.607310942197654 -0.736050083049967
    endloop
  endfacet
  facet normal -0.5872441951593086 -0.15384974611380978 0.794653705001375
    outer loop
      vertex 0.349079404596965 0.183949095933532 -0.918861414682032
      vertex 0.669983963148922 -0.0966990379294216 -0.736050091770732
      vertex 0.678313506451853 0.35744038572391 -0.641970481354542
    endloop
  endfacet
  facet normal -0.5197695343618551 0.31362552886146805 0.7946563148906732
    outer loop
      vertex 0.282816324514303 -0.275150227142308 -0.91886005871881
      vertex 0.549556403448352 -0.534659328913231 -0.64197048798566
      vertex 0.669983963148922 -0.0966990379294216 -0.736050091770732
    endloop
  endfacet
  facet normal -0.45041146861740344 0.06501176789802732 0.8904509975134435
    outer loop
      vertex 0.349079404596965 0.183949095933532 -0.918861414682032
      vertex 0.282816324514303 -0.275150227142308 -0.91886005871881
      vertex 0.669983963148922 -0.0966990379294216 -0.736050091770732
    endloop
  endfacet
  facet normal -0.327787728406218 0.5109566354139004 0.7946562287132708
    outer loop
      vertex 0.282816324514303 -0.275150227142308 -0.91886005871881
      vertex 0.115070182927188 -0.667074287936001 -0.736050099528813
      vertex 0.549556403448352 -0.534659328913231 -0.64197048798566
    endloop
  endfacet
  facet normal -0.07736058351762758 0.448454987391158 0.8904512700882674
    outer loop
      vertex 0.282816324514303 -0.275150227142308 -0.91886005871881
      vertex -0.174288479527823 -0.354001231913204 -0.918860921224287
      vertex 0.115070182927188 -0.667074287936001 -0.736050099528813
    endloop
  endfacet
  facet normal 0.0000027324103987252357 0.000002559152744937305 0.9999999999929924
    outer loop
      vertex -0.0670742682023817 0.38883710314742 -0.918860801919115
      vertex 0.282816324514303 -0.275150227142308 -0.91886005871881
      vertex 0.349079404596965 0.183949095933532 -0.918861414682032
    endloop
  endfacet
  facet normal -0.000001906653122048851 1.145809724279075e-7 0.9999999999981757
    outer loop
      vertex -0.0670742682023817 0.38883710314742 -0.918860801919115
      vertex -0.174288479527823 -0.354001231913204 -0.918860921224287
      vertex 0.282816324514303 -0.275150227142308 -0.91886005871881
    endloop
  endfacet
  facet normal -8.194411263996606e-7 -4.233685363952561e-8 0.9999999999996634
    outer loop
      vertex -0.174288479527823 -0.354001231913204 -0.918860921224287
      vertex -0.0670742682023817 0.38883710314742 -0.918860801919115
      vertex -0.390533395021563 0.0563658023794823 -0.918861081050615
    endloop
  endfacet
endsolid OpenSCAD_Model
