solid OpenSCAD_Model
  facet normal 0.43280677023615516 0.1406274442868968 -0.8904505722111046
    outer loop
      vertex -0.643795323426428 -0.209181783553948 0.73605027453158
      vertex -0.375267993094941 0.12193196176045 0.918861237220413
      vertex -0.231928373403986 -0.319222026068237 0.918861237220413
    endloop
  endfacet
  facet normal 0.4588943354367885 0.39741698425499083 -0.794654471786132
    outer loop
      vertex -0.450671913798261 -0.620296680122935 0.641970638271425
      vertex -0.643795323426428 -0.209181783553948 0.73605027453158
      vertex -0.231928373403986 -0.319222026068237 0.918861237220413
    endloop
  endfacet
  facet normal 0.2361598643931325 0.55924304998681 -0.7946544717619523
    outer loop
      vertex 3.17620919516554e-9 -0.676926467699922 0.736050274554174
      vertex -0.450671913798261 -0.620296680122935 0.641970638271425
      vertex -0.231928373403986 -0.319222026068237 0.918861237220413
    endloop
  endfacet
  facet normal 0 0.4550799692899208 -0.8904505722111051
    outer loop
      vertex 0.231928379804499 -0.319222026068237 0.918861237220413
      vertex 3.17620919516554e-9 -0.676926467699922 0.736050274554174
      vertex -0.231928373403986 -0.319222026068237 0.918861237220413
    endloop
  endfacet
  facet normal 0 0 -1
    outer loop
      vertex 0.231928379804499 -0.319222026068237 0.918861237220413
      vertex 3.23568722093728e-9 0.394580120432229 0.918861237220413
      vertex 0.375267999517353 0.121931961693057 0.918861237220413
    endloop
  endfacet
  facet normal 0 0 -1
    outer loop
      vertex -0.231928373403986 -0.319222026068237 0.918861237220413
      vertex 3.23568722093728e-9 0.394580120432229 0.918861237220413
      vertex 0.231928379804499 -0.319222026068237 0.918861237220413
    endloop
  endfacet
  facet normal 0 0 -1
    outer loop
      vertex 3.23568722093728e-9 0.394580120432229 0.918861237220413
      vertex -0.231928373403986 -0.319222026068237 0.918861237220413
      vertex -0.375267993094941 0.12193196176045 0.918861237220413
    endloop
  endfacet
  facet normal -0.2361598638358304 0.5592430498066577 -0.7946544720543577
    outer loop
      vertex 0.450671920143217 -0.620296680289295 0.641970638494408
      vertex 3.17620919516554e-9 -0.676926467699922 0.736050274554174
      vertex 0.231928379804499 -0.319222026068237 0.918861237220413
    endloop
  endfacet
  facet normal -0.45889433536215457 0.39741698382374513 -0.7946544720449028
    outer loop
      vertex 0.643795329771059 -0.209181783650271 0.736050274554174
      vertex 0.450671920143217 -0.620296680289295 0.641970638494408
      vertex 0.231928379804499 -0.319222026068237 0.918861237220413
    endloop
  endfacet
  facet normal -0.4328067702235256 0.14062744432576085 -0.8904505722111056
    outer loop
      vertex 0.375267999517353 0.121931961693057 0.918861237220413
      vertex 0.643795329771059 -0.209181783650271 0.736050274554174
      vertex 0.231928379804499 -0.319222026068237 0.918861237220413
    endloop
  endfacet
  facet normal -0.6048491580278051 -0.05178577099038978 -0.7946544720543555
    outer loop
      vertex 0.729202482684133 0.236932246387086 0.641970638494408
      vertex 0.643795329771059 -0.209181783650271 0.736050274554174
      vertex 0.375267999517353 0.121931961693057 0.918861237220413
    endloop
  endfacet
  facet normal -0.5197721604125084 -0.31362584606367216 -0.7946544720449005
    outer loop
      vertex 0.397887396887381 0.54764501327684 0.736050274554174
      vertex 0.729202482684133 0.236932246387086 0.641970638494408
      vertex 0.375267999517353 0.121931961693057 0.918861237220413
    endloop
  endfacet
  facet normal -0.26748929458877224 -0.36816742893596116 -0.8904505722111055
    outer loop
      vertex 3.23568722093728e-9 0.394580120432229 0.918861237220413
      vertex 0.397887396887381 0.54764501327684 0.736050274554174
      vertex 0.375267999517353 0.121931961693057 0.918861237220413
    endloop
  endfacet
  facet normal -0.13765747393342942 -0.5912484164158704 -0.7946544720543596
    outer loop
      vertex 3.30884992843349e-9 0.76672885931797 0.641970638494408
      vertex 0.397887396887381 0.54764501327684 0.736050274554174
      vertex 3.23568722093728e-9 0.394580120432229 0.918861237220413
    endloop
  endfacet
  facet normal 0.13765747378575338 -0.5912484164629611 -0.7946544720449042
    outer loop
      vertex -0.397887390349608 0.547645013376565 0.736050274554174
      vertex 3.30884992843349e-9 0.76672885931797 0.641970638494408
      vertex 3.23568722093728e-9 0.394580120432229 0.918861237220413
    endloop
  endfacet
  facet normal 0.2674892945226548 -0.3681674289839978 -0.8904505722111056
    outer loop
      vertex -0.375267993094941 0.12193196176045 0.918861237220413
      vertex -0.397887390349608 0.547645013376565 0.736050274554174
      vertex 3.23568722093728e-9 0.394580120432229 0.918861237220413
    endloop
  endfacet
  facet normal 0.5197721608447453 -0.3136258460402923 -0.7946544717714077
    outer loop
      vertex -0.729202476139105 0.236932246502002 0.641970638271425
      vertex -0.397887390349608 0.547645013376565 0.736050274554174
      vertex -0.375267993094941 0.12193196176045 0.918861237220413
    endloop
  endfacet
  facet normal 0.6048491583492653 -0.051785771496780875 -0.7946544717766765
    outer loop
      vertex -0.643795323426428 -0.209181783553948 0.73605027453158
      vertex -0.729202476139105 0.236932246502002 0.641970638271425
      vertex -0.375267993094941 0.12193196176045 0.918861237220413
    endloop
  endfacet
  facet normal 0.22273447365936966 0.761647668801314 -0.6085081616981053
    outer loop
      vertex -0.193123406351725 -0.904255620261434 0.380820922381897
      vertex -0.450671913798261 -0.620296680122935 0.641970638271425
      vertex 3.17620919516554e-9 -0.676926467699922 0.736050274554174
    endloop
  endfacet
  facet normal -0.20282045144230515 0.8711279261428783 -0.44721359636168
    outer loop
      vertex 0.138191679454798 -0.988122975754301 0.0671974729260272
      vertex 3.17620919516554e-9 -0.676926467699922 0.736050274554174
      vertex 0.450671920143217 -0.620296680289295 0.641970638494408
    endloop
  endfacet
  facet normal -0.20282045144230432 0.8711279261428782 -0.44721359636168034
    outer loop
      vertex 0.138191679454798 -0.988122975754301 0.0671974729260272
      vertex 0.450671920143217 -0.620296680289295 0.641970638494408
      vertex 0.536079073032323 -0.8126266994615 0.228596873595802
    endloop
  endfacet
  facet normal -0.20282045144230995 0.8711279261428769 -0.44721359636168034
    outer loop
      vertex 3.17620919516554e-9 -0.676926467699922 0.736050274554174
      vertex 0.138191679454798 -0.988122975754301 0.0671974729260272
      vertex -0.193123406351725 -0.904255620261434 0.380820922381897
    endloop
  endfacet
  facet normal -0.618274552657376 0.655969544360857 -0.4329440314952167
    outer loop
      vertex 0.800319784127725 -0.463101630804572 0.38082092056002
      vertex 0.536079073032323 -0.8126266994615 0.228596873595802
      vertex 0.450671920143217 -0.620296680289295 0.641970638494408
    endloop
  endfacet
  facet normal -0.6555412460442713 0.44719514648853764 -0.608508155813724
    outer loop
      vertex 0.643795329771059 -0.209181783650271 0.736050274554174
      vertex 0.800319784127725 -0.463101630804572 0.38082092056002
      vertex 0.450671920143217 -0.620296680289295 0.641970638494408
    endloop
  endfacet
  facet normal -0.891166858383218 0.07629962239007261 -0.44721359342322947
    outer loop
      vertex 0.643795329771059 -0.209181783650271 0.736050274554174
      vertex 0.938511461024328 0.258726031399489 0.228596873003828
      vertex 0.982464370884716 -0.173918698826224 0.0671974719036684
    endloop
  endfacet
  facet normal -0.8911668583832163 0.07629962239006637 -0.4472135934232342
    outer loop
      vertex 0.938511461024328 0.258726031399489 0.228596873003828
      vertex 0.643795329771059 -0.209181783650271 0.736050274554174
      vertex 0.729202482684133 0.236932246387086 0.641970638494408
    endloop
  endfacet
  facet normal -0.8911668581790583 0.07629962671790948 -0.44721359309168346
    outer loop
      vertex 0.643795329771059 -0.209181783650271 0.736050274554174
      vertex 0.982464370884716 -0.173918698826224 0.0671974719036684
      vertex 0.800319784127725 -0.463101630804572 0.38082092056002
    endloop
  endfacet
  facet normal -0.8149214580866264 -0.3853082971621709 -0.43294403020246724
    outer loop
      vertex 0.68774824046876 0.618043068954559 0.380820922419919
      vertex 0.938511461024328 0.258726031399489 0.228596873003828
      vertex 0.729202482684133 0.236932246387086 0.641970638494408
    endloop
  endfacet
  facet normal -0.6278812413755842 -0.48526586946835737 -0.6085081615375217
    outer loop
      vertex 0.397887396887381 0.54764501327684 0.736050274554174
      vertex 0.68774824046876 0.618043068954559 0.380820922419919
      vertex 0.729202482684133 0.236932246387086 0.641970638494408
    endloop
  endfacet
  facet normal -0.3479509559120522 -0.823972166744756 -0.4472135962935844
    outer loop
      vertex 0.0439529139794226 0.97252817825117 0.228596873584169
      vertex 0.397887396887381 0.54764501327684 0.736050274554174
      vertex 3.30884992843349e-9 0.76672885931797 0.641970638494408
    endloop
  endfacet
  facet normal -0.3479509559120478 -0.8239721667447562 -0.4472135962935877
    outer loop
      vertex 0.397887396887381 0.54764501327684 0.736050274554174
      vertex 0.0439529139794226 0.97252817825117 0.228596873584169
      vertex 0.68774824046876 0.618043068954559 0.380820922419919
    endloop
  endfacet
  facet normal -0.34795095591205083 -0.8239721667447587 -0.4472135962935806
    outer loop
      vertex 0.68774824046876 0.618043068954559 0.380820922419919
      vertex 0.0439529139794226 0.97252817825117 0.228596873584169
      vertex 0.469004700260409 0.880635306139228 0.067197472930137
    endloop
  endfacet
  facet normal 0.11462539556500842 -0.8941031731488273 -0.4329440315523054
    outer loop
      vertex -0.375267992575146 0.845073250989924 0.380820920693667
      vertex 0.0439529139794226 0.97252817825117 0.228596873584169
      vertex 3.30884992843349e-9 0.76672885931797 0.641970638494408
    endloop
  endfacet
  facet normal 0.26748929626715906 -0.7471059497689694 -0.6085081562331814
    outer loop
      vertex -0.397887390349608 0.547645013376565 0.736050274554174
      vertex -0.375267992575146 0.845073250989924 0.380820920693667
      vertex 3.30884992843349e-9 0.76672885931797 0.641970638494408
    endloop
  endfacet
  facet normal 0.6761213411034833 -0.5855424287503009 -0.44721359129349597
    outer loop
      vertex -0.911347061256298 0.342329434275009 0.228596872272289
      vertex -0.375267992575146 0.845073250989924 0.380820920693667
      vertex -0.397887390349608 0.547645013376565 0.736050274554174
    endloop
  endfacet
  facet normal 0.6761213410635244 -0.5855424286493984 -0.4472135914860208
    outer loop
      vertex -0.375267992575146 0.845073250989924 0.380820920693667
      vertex -0.911347061256298 0.342329434275009 0.228596872272289
      vertex -0.692603519943219 0.718181245456629 0.0671974711714984
    endloop
  endfacet
  facet normal 0.6761213411408491 -0.5855424286460695 -0.44721359137347577
    outer loop
      vertex -0.911347061256298 0.342329434275009 0.228596872272289
      vertex -0.397887390349608 0.547645013376565 0.736050274554174
      vertex -0.729202476139105 0.236932246502002 0.641970638271425
    endloop
  endfacet
  facet normal 0.8857638435150565 -0.16727785760763203 -0.4329440285714024
    outer loop
      vertex -0.919676611181197 -0.0957590779954663 0.380820922656718
      vertex -0.911347061256298 0.342329434275009 0.228596872272289
      vertex -0.729202476139105 0.236932246502002 0.641970638271425
    endloop
  endfacet
  facet normal 0.79319871550513 0.023529000497632464 -0.6085081625225697
    outer loop
      vertex -0.643795323426428 -0.209181783553948 0.73605027453158
      vertex -0.919676611181197 -0.0957590779954663 0.380820922656718
      vertex -0.729202476139105 0.236932246502002 0.641970638271425
    endloop
  endfacet
  facet normal 0.765816923840303 0.4620870457433456 -0.4472135969712491
    outer loop
      vertex -0.450671913798261 -0.620296680122935 0.641970638271425
      vertex -0.919676611181197 -0.0957590779954663 0.380820922656718
      vertex -0.643795323426428 -0.209181783553948 0.73605027453158
    endloop
  endfacet
  facet normal 0.7658169238403042 0.4620870457433499 -0.4472135969712425
    outer loop
      vertex -0.919676611181197 -0.0957590779954663 0.380820922656718
      vertex -0.450671913798261 -0.620296680122935 0.641970638271425
      vertex -0.897057214264802 -0.43677488741002 0.0671974731274523
    endloop
  endfacet
  facet normal 0.7658169238403045 0.4620870457433491 -0.4472135969712431
    outer loop
      vertex -0.897057214264802 -0.43677488741002 0.0671974731274523
      vertex -0.450671913798261 -0.620296680122935 0.641970638271425
      vertex -0.607196370401693 -0.760956953928726 0.228596873497293
    endloop
  endfacet
  facet normal 0.43280677175603266 0.7907197750627804 -0.43294403292664435
    outer loop
      vertex -0.193123406351725 -0.904255620261434 0.380820922381897
      vertex -0.607196370401693 -0.760956953928726 0.228596873497293
      vertex -0.450671913798261 -0.620296680122935 0.641970638271425
    endloop
  endfacet
  facet normal 0.38211468615969946 0.9048742624878038 -0.187592472418878
    outer loop
      vertex -0.304150691109496 -0.950250655224205 -0.0671974779660251
      vertex -0.607196370401693 -0.760956953928726 0.228596873497293
      vertex -0.193123406351725 -0.904255620261434 0.380820922381897
    endloop
  endfacet
  facet normal 0.12423208582380904 0.9834671035058394 -0.13175297026519076
    outer loop
      vertex 0.138191679454798 -0.988122975754301 0.0671974729260272
      vertex -0.304150691109496 -0.950250655224205 -0.0671974779660251
      vertex -0.193123406351725 -0.904255620261434 0.380820922381897
    endloop
  endfacet
  facet normal -0.7425066349858612 0.643034182897782 -0.18759247486760938
    outer loop
      vertex 0.809754344574759 -0.582908102006321 -0.0671974773234491
      vertex 0.536079073032323 -0.8126266994615 0.228596873595802
      vertex 0.800319784127725 -0.463101630804572 0.38082092056002
    endloop
  endfacet
  facet normal -0.8969429717528338 0.42205978199198424 -0.13175297282442605
    outer loop
      vertex 0.982464370884716 -0.173918698826224 0.0671974719036684
      vertex 0.809754344574759 -0.582908102006321 -0.0671974773234491
      vertex 0.800319784127725 -0.463101630804572 0.38082092056002
    endloop
  endfacet
  facet normal -0.8410090231960025 -0.5074572723745508 -0.18759248283736418
    outer loop
      vertex 0.804606406459227 0.589993637064358 -0.0671974766239577
      vertex 0.938511461024328 0.258726031399489 0.228596873003828
      vertex 0.68774824046876 0.618043068954559 0.380820922419919
    endloop
  endfacet
  facet normal -0.678573321773939 -0.7226198167834529 -0.13175297859453242
    outer loop
      vertex 0.469004700260409 0.880635306139228 0.067197472930137
      vertex 0.804606406459227 0.589993637064358 -0.0671974766239577
      vertex 0.68774824046876 0.618043068954559 0.380820922419919
    endloop
  endfacet
  facet normal 0.22273447230348267 -0.9566600307885348 -0.18759248476250004
    outer loop
      vertex -0.312480236426498 0.947544221755672 -0.0671974763183828
      vertex 0.0439529139794226 0.97252817825117 0.228596873584169
      vertex -0.375267992575146 0.845073250989924 0.380820920693667
    endloop
  endfacet
  facet normal 0.477561600803169 -0.8686633812205629 -0.13175297933926838
    outer loop
      vertex -0.692603519943219 0.718181245456629 0.0671974711714984
      vertex -0.312480236426498 0.947544221755672 -0.0671974763183828
      vertex -0.375267992575146 0.845073250989924 0.380820920693667
    endloop
  endfacet
  facet normal 0.9786664911758935 -0.08379114955129915 -0.18759249000516168
    outer loop
      vertex -0.997729813840292 -0.00437910478477534 -0.0671974760030343
      vertex -0.911347061256298 0.342329434275009 0.228596872272289
      vertex -0.919676611181197 -0.0957590779954663 0.380820922656718
    endloop
  endfacet
  facet normal 0.9737226190051187 0.18575632552234764 -0.13175298389884074
    outer loop
      vertex -0.897057214264802 -0.43677488741002 0.0671974731274523
      vertex -0.997729813840292 -0.00437910478477534 -0.0671974760030343
      vertex -0.919676611181197 -0.0957590779954663 0.380820922656718
    endloop
  endfacet
  facet normal 0.7509881484912777 0.6599062919097325 -0.023248370342664363
    outer loop
      vertex -0.666414720883123 -0.70967199100051 -0.228596878641269
      vertex -0.897057214264802 -0.43677488741002 0.0671974731274523
      vertex -0.607196370401693 -0.760956953928726 0.228596873497293
    endloop
  endfacet
  facet normal 0.5458597263217114 0.8375539816557791 0.023248376126886336
    outer loop
      vertex -0.304150691109496 -0.950250655224205 -0.0671974779660251
      vertex -0.666414720883123 -0.70967199100051 -0.228596878641269
      vertex -0.607196370401693 -0.760956953928726 0.228596873497293
    endloop
  endfacet
  facet normal 0.34795095366580886 0.8239721632189183 0.44721360453746317
    outer loop
      vertex -0.549556554868732 -0.534659452200485 -0.641970641465497
      vertex -0.304150691109496 -0.950250655224205 -0.0671974779660251
      vertex 0.0365989580234368 -0.923923907319195 -0.380820926304468
    endloop
  endfacet
  facet normal 0.34795095366581263 0.8239721632189178 0.4472136045374611
    outer loop
      vertex -0.304150691109496 -0.950250655224205 -0.0671974779660251
      vertex -0.549556554868732 -0.534659452200485 -0.641970641465497
      vertex -0.666414720883123 -0.70967199100051 -0.228596878641269
    endloop
  endfacet
  facet normal 0.347950953665813 0.8239721632189202 0.44721360453745657
    outer loop
      vertex -0.549556554868732 -0.534659452200485 -0.641970641465497
      vertex 0.0365989580234368 -0.923923907319195 -0.380820926304468
      vertex -0.115070207085969 -0.667074418517459 -0.736050276789979
    endloop
  endfacet
  facet normal 0.04475482156761851 0.9902717594363815 0.13175298254394063
    outer loop
      vertex 0.138191679454798 -0.988122975754301 0.0671974729260272
      vertex 0.0365989580234368 -0.923923907319195 -0.380820926304468
      vertex -0.304150691109496 -0.950250655224205 -0.0671974779660251
    endloop
  endfacet
  facet normal -0.2227344411810369 0.9566600395008003 0.18759247728546707
    outer loop
      vertex 0.469004703291903 -0.85309878347242 -0.228596878346075
      vertex 0.0365989580234368 -0.923923907319195 -0.380820926304468
      vertex 0.138191679454798 -0.988122975754301 0.0671974729260272
    endloop
  endfacet
  facet normal -0.3955400681552045 0.9181544349615921 -0.023248398743477228
    outer loop
      vertex 0.536079073032323 -0.8126266994615 0.228596873595802
      vertex 0.469004703291903 -0.85309878347242 -0.228596878346075
      vertex 0.138191679454798 -0.988122975754301 0.0671974729260272
    endloop
  endfacet
  facet normal -0.627881256846757 0.7779618508236137 0.023248353998385804
    outer loop
      vertex 0.809754344574759 -0.582908102006321 -0.0671974773234491
      vertex 0.469004703291903 -0.85309878347242 -0.228596878346075
      vertex 0.536079073032323 -0.8126266994615 0.228596873595802
    endloop
  endfacet
  facet normal -0.6761213538412124 0.5855423994973474 0.4472136103371796
    outer loop
      vertex 0.338669039000035 -0.68787821907027 -0.641970638106599
      vertex 0.890013537880495 -0.250700512454442 -0.380820925803953
      vertex 0.598866808282975 -0.315575612865036 -0.73605027336359
    endloop
  endfacet
  facet normal -0.6761213538412129 0.5855423994973515 0.4472136103371737
    outer loop
      vertex 0.890013537880495 -0.250700512454442 -0.380820925803953
      vertex 0.338669039000035 -0.68787821907027 -0.641970638106599
      vertex 0.809754344574759 -0.582908102006321 -0.0671974773234491
    endloop
  endfacet
  facet normal -0.6761213538412096 0.585542399497358 0.44721361033717
    outer loop
      vertex 0.809754344574759 -0.582908102006321 -0.0671974773234491
      vertex 0.338669039000035 -0.68787821907027 -0.641970638106599
      vertex 0.469004703291903 -0.85309878347242 -0.228596878346075
    endloop
  endfacet
  facet normal -0.9279744091055914 0.3485751557326938 0.1317530145805279
    outer loop
      vertex 0.982464370884716 -0.173918698826224 0.0671974719036684
      vertex 0.890013537880495 -0.250700512454442 -0.380820925803953
      vertex 0.809754344574759 -0.582908102006321 -0.0671974773234491
    endloop
  endfacet
  facet normal -0.9786664849062084 0.0837911991237181 0.1875925005716791
    outer loop
      vertex 0.956275583298537 0.182427954203376 -0.228596879591703
      vertex 0.890013537880495 -0.250700512454442 -0.380820925803953
      vertex 0.982464370884716 -0.173918698826224 0.0671974719036684
    endloop
  endfacet
  facet normal -0.9954453616179946 -0.09245563055254194 -0.02324840666264822
    outer loop
      vertex 0.938511461024328 0.258726031399489 0.228596873003828
      vertex 0.956275583298537 0.182427954203376 -0.228596879591703
      vertex 0.982464370884716 -0.173918698826224 0.0671974719036684
    endloop
  endfacet
  facet normal -0.933911670010238 -0.35674711921525415 0.02324834510896535
    outer loop
      vertex 0.804606406459227 0.589993637064358 -0.0671974766239577
      vertex 0.956275583298537 0.182427954203376 -0.228596879591703
      vertex 0.938511461024328 0.258726031399489 0.228596873003828
    endloop
  endfacet
  facet normal -0.6182745255792316 -0.7748404682200984 0.13175302587885715
    outer loop
      vertex 0.469004700260409 0.880635306139228 0.067197472930137
      vertex 0.513459663143631 0.768982450723203 -0.380820925802288
      vertex 0.804606406459227 0.589993637064358 -0.0671974766239577
    endloop
  endfacet
  facet normal -0.7658168957741736 -0.462087065173419 0.44721362495593225
    outer loop
      vertex 0.956275583298537 0.182427954203376 -0.228596879591703
      vertex 0.513459663143631 0.768982450723203 -0.380820925802288
      vertex 0.485190260952312 0.472037944690242 -0.736050266499015
    endloop
  endfacet
  facet normal -0.7658168957741749 -0.4620870651734214 0.44721362495592726
    outer loop
      vertex 0.513459663143631 0.768982450723203 -0.380820925802288
      vertex 0.956275583298537 0.182427954203376 -0.228596879591703
      vertex 0.804606406459227 0.589993637064358 -0.0671974766239577
    endloop
  endfacet
  facet normal -0.7658168957741738 -0.46208706517341686 0.4472136249559339
    outer loop
      vertex 0.956275583298537 0.182427954203376 -0.228596879591703
      vertex 0.485190260952312 0.472037944690242 -0.736050266499015
      vertex 0.758865550236591 0.109527329792012 -0.641970632048259
    endloop
  endfacet
  facet normal -0.21967900647190167 -0.9752951579552241 -0.023248418970165448
    outer loop
      vertex 0.0439529139794226 0.97252817825117 0.228596873584169
      vertex 0.122006114284064 0.965845465327749 -0.22859688020609
      vertex 0.469004700260409 0.880635306139228 0.067197472930137
    endloop
  endfacet
  facet normal -0.38211475739733125 -0.9048742256398444 0.18759250505249556
    outer loop
      vertex 0.122006114284064 0.965845465327749 -0.22859688020609
      vertex 0.513459663143631 0.768982450723203 -0.380820925802288
      vertex 0.469004700260409 0.880635306139228 0.067197472930137
    endloop
  endfacet
  facet normal 0.05069210772920382 -0.9984437015182032 0.023248335695268865
    outer loop
      vertex -0.312480236426498 0.947544221755672 -0.0671974763183828
      vertex 0.122006114284064 0.965845465327749 -0.22859688020609
      vertex 0.0439529139794226 0.97252817825117 0.228596873584169
    endloop
  endfacet
  facet normal 0.20282049022379953 -0.8711279083666168 0.4472136133998837
    outer loop
      vertex -0.299002722481308 0.607311110049946 -0.736050270553814
      vertex -0.312480236426498 0.947544221755672 -0.0671974763183828
      vertex -0.572678004308907 0.725957800667046 -0.38082092713878
    endloop
  endfacet
  facet normal 0.2028204902237869 -0.8711279083666194 0.44721361339988475
    outer loop
      vertex -0.312480236426498 0.947544221755672 -0.0671974763183828
      vertex -0.299002722481308 0.607311110049946 -0.736050270553814
      vertex 0.122006114284064 0.965845465327749 -0.22859688020609
    endloop
  endfacet
  facet normal 0.20282049022380352 -0.8711279083666217 0.4472136133998728
    outer loop
      vertex 0.122006114284064 0.965845465327749 -0.22859688020609
      vertex -0.299002722481308 0.607311110049946 -0.736050270553814
      vertex 0.130335674029321 0.755569840234669 -0.641970635654369
    endloop
  endfacet
  facet normal 0.5458597426955323 -0.8274528883334642 0.13175302232956573
    outer loop
      vertex -0.692603519943219 0.718181245456629 0.0671974711714984
      vertex -0.572678004308907 0.725957800667046 -0.38082092713878
      vertex -0.312480236426498 0.947544221755672 -0.0671974763183828
    endloop
  endfacet
  facet normal 0.7425065938921062 -0.6430342206526687 0.18759250810295663
    outer loop
      vertex -0.880871647231602 0.414497360195972 -0.228596881775498
      vertex -0.572678004308907 0.725957800667046 -0.38082092713878
      vertex -0.692603519943219 0.718181245456629 0.0671974711714984
    endloop
  endfacet
  facet normal 0.8596762737013188 -0.5103099223390415 -0.023248389134226412
    outer loop
      vertex -0.911347061256298 0.342329434275009 0.228596872272289
      vertex -0.880871647231602 0.414497360195972 -0.228596881775498
      vertex -0.692603519943219 0.718181245456629 0.0671974711714984
    endloop
  endfacet
  facet normal 0.9652411019898325 -0.2603250447424026 0.023248357131628494
    outer loop
      vertex -0.997729813840292 -0.00437910478477534 -0.0671974760030343
      vertex -0.880871647231602 0.414497360195972 -0.228596881775498
      vertex -0.911347061256298 0.342329434275009 0.228596872272289
    endloop
  endfacet
  facet normal 0.8911668539204828 -0.0762996196259038 0.44721360278776334
    outer loop
      vertex -0.997729813840292 -0.00437910478477534 -0.0671974760030343
      vertex -0.678313675910166 0.357440491036801 -0.641970639417352
      vertex -0.880871647231602 0.414497360195972 -0.228596881775498
    endloop
  endfacet
  facet normal 0.8911668539204833 -0.07629961962590753 0.44721360278776134
    outer loop
      vertex -0.997729813840292 -0.00437910478477534 -0.0671974760030343
      vertex -0.669984127289162 -0.0966990563073301 -0.736050274062464
      vertex -0.678313675910166 0.357440491036801 -0.641970639417352
    endloop
  endfacet
  facet normal 0.891166853920482 -0.07629961962591865 0.44721360278776223
    outer loop
      vertex -0.669984127289162 -0.0966990563073301 -0.736050274062464
      vertex -0.997729813840292 -0.00437910478477534 -0.0671974760030343
      vertex -0.867394154475413 -0.320315863437493 -0.380820928300977
    endloop
  endfacet
  facet normal 0.9556344076316057 0.26344645109299825 0.1317529747561495
    outer loop
      vertex -0.897057214264802 -0.43677488741002 0.0671974731274523
      vertex -0.867394154475413 -0.320315863437493 -0.380820928300977
      vertex -0.997729813840292 -0.00437910478477534 -0.0671974760030343
    endloop
  endfacet
  facet normal 0.841009018856387 0.5074572825664209 0.18759247472252483
    outer loop
      vertex -0.666414720883123 -0.70967199100051 -0.228596878641269
      vertex -0.867394154475413 -0.320315863437493 -0.380820928300977
      vertex -0.897057214264802 -0.43677488741002 0.0671974731274523
    endloop
  endfacet
  facet normal 0.7207838843411543 0.5413224995296269 0.43294404208520365
    outer loop
      vertex -0.549556554868732 -0.534659452200485 -0.641970641465497
      vertex -0.867394154475413 -0.320315863437493 -0.380820928300977
      vertex -0.666414720883123 -0.70967199100051 -0.228596878641269
    endloop
  endfacet
  facet normal -0.09002084485352167 0.7884250543538328 0.6085081603060177
    outer loop
      vertex 0.338669039000035 -0.68787821907027 -0.641970638106599
      vertex -0.115070207085969 -0.667074418517459 -0.736050276789979
      vertex 0.0365989580234368 -0.923923907319195 -0.380820926304468
    endloop
  endfacet
  facet normal -0.29209378688400695 0.8527840763494294 0.432944036555085
    outer loop
      vertex 0.469004703291903 -0.85309878347242 -0.228596878346075
      vertex 0.338669039000035 -0.68787821907027 -0.641970638106599
      vertex 0.0365989580234368 -0.923923907319195 -0.380820926304468
    endloop
  endfacet
  facet normal -0.7776547553396146 0.15802184999190078 0.6085081564143751
    outer loop
      vertex 0.758865550236591 0.109527329792012 -0.641970632048259
      vertex 0.598866808282975 -0.315575612865036 -0.73605027336359
      vertex 0.890013537880495 -0.250700512454442 -0.380820925803953
    endloop
  endfacet
  facet normal -0.9013077937552011 -0.014272892936478555 0.4329440442405413
    outer loop
      vertex 0.956275583298537 0.182427954203376 -0.228596879591703
      vertex 0.758865550236591 0.109527329792012 -0.641970632048259
      vertex 0.890013537880495 -0.250700512454442 -0.380820925803953
    endloop
  endfacet
  facet normal -0.26494512309710644 -0.8616052166033894 0.4329440292565375
    outer loop
      vertex 0.122006114284064 0.965845465327749 -0.22859688020609
      vertex 0.130335674029321 0.755569840234669 -0.641970635654369
      vertex 0.513459663143631 0.768982450723203 -0.380820925802288
    endloop
  endfacet
  facet normal -0.3905962815428563 -0.690762162017229 0.6085081596578449
    outer loop
      vertex 0.130335674029321 0.755569840234669 -0.641970635654369
      vertex 0.485190260952312 0.472037944690242 -0.736050266499015
      vertex 0.513459663143631 0.768982450723203 -0.380820925802288
    endloop
  endfacet
  facet normal 0.5362529936434847 -0.5849363640487022 0.6085081567422782
    outer loop
      vertex -0.678313675910166 0.357440491036801 -0.641970639417352
      vertex -0.299002722481308 0.607311110049946 -0.736050270553814
      vertex -0.572678004308907 0.725957800667046 -0.38082092713878
    endloop
  endfacet
  facet normal 0.7375627250545341 -0.5182284185637391 0.43294402964246487
    outer loop
      vertex -0.880871647231602 0.414497360195972 -0.228596881775498
      vertex -0.678313675910166 0.357440491036801 -0.641970639417352
      vertex -0.572678004308907 0.725957800667046 -0.38082092713878
    endloop
  endfacet
  facet normal 0.7220187942963124 0.3292516789811353 0.6085081696830394
    outer loop
      vertex -0.549556554868732 -0.534659452200485 -0.641970641465497
      vertex -0.669984127289162 -0.0966990563073301 -0.736050274062464
      vertex -0.867394154475413 -0.320315863437493 -0.380820928300977
    endloop
  endfacet
  facet normal 0.3277880662243669 0.5109591238851541 0.7946544892967042
    outer loop
      vertex -0.115070207085969 -0.667074418517459 -0.736050276789979
      vertex -0.28281717201008 -0.275150704789057 -0.918861229355753
      vertex -0.549556554868732 -0.534659452200485 -0.641970641465497
    endloop
  endfacet
  facet normal 0.5197721355689564 0.3136258441572532 0.7946544890471182
    outer loop
      vertex -0.28281717201008 -0.275150704789057 -0.918861229355753
      vertex -0.669984127289162 -0.0966990563073301 -0.736050274062464
      vertex -0.549556554868732 -0.534659452200485 -0.641970641465497
    endloop
  endfacet
  facet normal 0.07735862279828618 0.44845665296535364 0.8904506016000353
    outer loop
      vertex 0.174288566738052 -0.354001350613142 -0.918861199833984
      vertex -0.28281717201008 -0.275150704789057 -0.918861229355753
      vertex -0.115070207085969 -0.667074418517459 -0.736050276789979
    endloop
  endfacet
  facet normal -0.13765747617016819 0.5912483281438433 0.7946545373441025
    outer loop
      vertex 0.338669039000035 -0.68787821907027 -0.641970638106599
      vertex 0.174288566738052 -0.354001350613142 -0.918861199833984
      vertex -0.115070207085969 -0.667074418517459 -0.736050276789979
    endloop
  endfacet
  facet normal -0.384658886765059 0.4696399906294537 0.7946545287319718
    outer loop
      vertex 0.598866808282975 -0.315575612865036 -0.73605027336359
      vertex 0.174288566738052 -0.354001350613142 -0.918861199833984
      vertex 0.338669039000035 -0.68787821907027 -0.641970638106599
    endloop
  endfacet
  facet normal -0.6048491794010331 0.051785813881253126 0.7946544529910803
    outer loop
      vertex 0.758865550236591 0.109527329792012 -0.641970632048259
      vertex 0.390533478148327 0.0563658341185886 -0.91886122191518
      vertex 0.598866808282975 -0.315575612865036 -0.73605027336359
    endloop
  endfacet
  facet normal -0.4026024564113991 0.21215329934183277 0.8904505823850541
    outer loop
      vertex 0.390533478148327 0.0563658341185886 -0.91886122191518
      vertex 0.174288566738052 -0.354001350613142 -0.918861199833984
      vertex 0.598866808282975 -0.315575612865036 -0.73605027336359
    endloop
  endfacet
  facet normal -0.5655203840975016 -0.2207056877074841 0.7946544497980117
    outer loop
      vertex 0.485190260952312 0.472037944690242 -0.736050266499015
      vertex 0.390533478148327 0.0563658341185886 -0.91886122191518
      vertex 0.758865550236591 0.109527329792012 -0.641970632048259
    endloop
  endfacet
  facet normal -0.32618027053610305 -0.3173389797183503 0.8904506741332229
    outer loop
      vertex 0.0670743287620287 0.388837289798106 -0.91886104259406
      vertex 0.390533478148327 0.0563658341185886 -0.91886122191518
      vertex 0.485190260952312 0.472037944690242 -0.736050266499015
    endloop
  endfacet
  facet normal -0.23615961079762743 -0.5592427227371827 0.7946547774306877
    outer loop
      vertex 0.130335674029321 0.755569840234669 -0.641970635654369
      vertex 0.0670743287620287 0.388837289798106 -0.91886104259406
      vertex 0.485190260952312 0.472037944690242 -0.736050266499015
    endloop
  endfacet
  facet normal 0.03514797091387533 -0.6060432553362266 0.7946547632790649
    outer loop
      vertex -0.299002722481308 0.607311110049946 -0.736050270553814
      vertex 0.0670743287620287 0.388837289798106 -0.91886104259406
      vertex 0.130335674029321 0.755569840234669 -0.641970635654369
    endloop
  endfacet
  facet normal 0.2010108571912936 -0.40827996202126965 0.8904505083962453
    outer loop
      vertex -0.349079384759411 0.183949058087279 -0.918861429794936
      vertex 0.0670743287620287 0.388837289798106 -0.91886104259406
      vertex -0.299002722481308 0.607311110049946 -0.736050270553814
    endloop
  endfacet
  facet normal 0.4588945776217987 -0.39741760288180744 0.7946540225462834
    outer loop
      vertex -0.678313675910166 0.357440491036801 -0.641970639417352
      vertex -0.349079384759411 0.183949058087279 -0.918861429794936
      vertex -0.299002722481308 0.607311110049946 -0.736050270553814
    endloop
  endfacet
  facet normal 0.5872437008446719 -0.1538498214493899 0.7946540557111909
    outer loop
      vertex -0.669984127289162 -0.0966990563073301 -0.736050274062464
      vertex -0.349079384759411 0.183949058087279 -0.918861429794936
      vertex -0.678313675910166 0.357440491036801 -0.641970639417352
    endloop
  endfacet
  facet normal 0.45041299758308756 0.06500883416947463 0.890450438310939
    outer loop
      vertex -0.28281717201008 -0.275150704789057 -0.918861229355753
      vertex -0.349079384759411 0.183949058087279 -0.918861429794936
      vertex -0.669984127289162 -0.0966990563073301 -0.736050274062464
    endloop
  endfacet
  facet normal 3.954843792036839e-7 -1.5459396075421595e-7 0.9999999999999098
    outer loop
      vertex 0.0670743287620287 0.388837289798106 -0.91886104259406
      vertex 0.174288566738052 -0.354001350613142 -0.918861199833984
      vertex 0.390533478148327 0.0563658341185886 -0.91886122191518
    endloop
  endfacet
  facet normal -1.036792026481531e-7 -2.2663846697969738e-7 0.999999999999969
    outer loop
      vertex 0.0670743287620287 0.388837289798106 -0.91886104259406
      vertex -0.28281717201008 -0.275150704789057 -0.918861229355753
      vertex 0.174288566738052 -0.354001350613142 -0.918861199833984
    endloop
  endfacet
  facet normal -0.000001069388034568 2.8224620452631416e-7 0.9999999999993884
    outer loop
      vertex -0.28281717201008 -0.275150704789057 -0.918861229355753
      vertex 0.0670743287620287 0.388837289798106 -0.91886104259406
      vertex -0.349079384759411 0.183949058087279 -0.918861429794936
    endloop
  endfacet
endsolid OpenSCAD_Model
