{
    "asset": {
        "version": "2.0",
        "generator": "Open Asset Import Library (assimp v5.4.0)"
    },
    "extensionsUsed": [
        "KHR_materials_specular",
        "KHR_materials_volume",
        "FB_ngon_encoding"
    ],
    "accessors": [
        {
            "bufferView": 0,
            "byteOffset": 0,
            "componentType": 5126,
            "count": 67116,
            "type": "VEC3",
            "max": [
                3.9694507122039795,
                3.8831424713134766,
                0.9987945556640625
            ],
            "min": [
                -3.9987945556640625,
                -0.9987945556640625,
                -0.9987945556640625
            ]
        },
        {
            "bufferView": 1,
            "byteOffset": 0,
            "componentType": 5126,
            "count": 67116,
            "type": "VEC3",
            "max": [
                0.9987959265708923,
                1.0,
                1.0
            ],
            "min": [
                -0.9987959265708923,
                -1.0,
                -1.0
            ]
        },
        {
            "bufferView": 2,
            "byteOffset": 0,
            "componentType": 5125,
            "count": 106320,
            "type": "SCALAR",
            "max": [
                67115
            ],
            "min": [
                0
            ]
        }
    ],
    "buffers": [
        {
            "byteLength": 2036064,
            "uri": "isocahedron.bin"
        }
    ],
    "bufferViews": [
        {
            "buffer": 0,
            "byteOffset": 0,
            "byteLength": 805392,
            "target": 34962
        },
        {
            "buffer": 0,
            "byteOffset": 805392,
            "byteLength": 805392,
            "target": 34962
        },
        {
            "buffer": 0,
            "byteOffset": 1610784,
            "byteLength": 425280,
            "target": 34963
        }
    ],
    "materials": [
        {
            "name": "DefaultMaterial",
            "pbrMetallicRoughness": {
                "metallicFactor": 0.0
            },
            "extensions": {
                "KHR_materials_specular": {
                    "specularFactor": 1.0
                }
            }
        }
    ],
    "meshes": [
        {
            "name": "OpenSCAD_Model",
            "primitives": [
                {
                    "mode": 4,
                    "material": 0,
                    "indices": 2,
                    "attributes": {
                        "POSITION": 0,
                        "NORMAL": 1
                    }
                }
            ]
        }
    ],
    "nodes": [
        {
            "children": [
                1
            ]
        },
        {
            "name": "OpenSCAD_Model",
            "mesh": 0
        }
    ],
    "scenes": [
        {
            "nodes": [
                0
            ]
        }
    ],
    "scene": 0
}