solid OpenSCAD_Model
  facet normal 1 0 0
    outer loop
      vertex 121 7 5
      vertex 121 6.7 3.5
      vertex 121 7 0
    endloop
  endfacet
  facet normal 1 -0 0
    outer loop
      vertex 121 5.2 5
      vertex 121 6.7 3.5
      vertex 121 7 5
    endloop
  endfacet
  facet normal 1 0 0
    outer loop
      vertex 121 6.7 3.5
      vertex 121 5.2 5
      vertex 121 5.2 3.5
    endloop
  endfacet
  facet normal 1 -0 0
    outer loop
      vertex 121 6.7 1.5
      vertex 121 7 0
      vertex 121 6.7 3.5
    endloop
  endfacet
  facet normal 1 0 0
    outer loop
      vertex 121 5.2 0
      vertex 121 6.7 1.5
      vertex 121 5.2 1.5
    endloop
  endfacet
  facet normal 1 0 0
    outer loop
      vertex 121 6.7 1.5
      vertex 121 5.2 0
      vertex 121 7 0
    endloop
  endfacet
  facet normal 1 0 0
    outer loop
      vertex 121 1.8 5
      vertex 121 0.299999 3.5
      vertex 121 1.8 3.5
    endloop
  endfacet
  facet normal 1 0 0
    outer loop
      vertex 121 0.299999 3.5
      vertex 121 0 5
      vertex 121 0.299999 1.5
    endloop
  endfacet
  facet normal 1 -0 0
    outer loop
      vertex 121 0 5
      vertex 121 0.299999 3.5
      vertex 121 1.8 5
    endloop
  endfacet
  facet normal 1 -0 0
    outer loop
      vertex 121 0.299999 1.5
      vertex 121 1.8 0
      vertex 121 1.8 1.5
    endloop
  endfacet
  facet normal 1 0 0
    outer loop
      vertex 121 0.299999 1.5
      vertex 121 0 0
      vertex 121 1.8 0
    endloop
  endfacet
  facet normal 1 0 0
    outer loop
      vertex 121 0 0
      vertex 121 0.299999 1.5
      vertex 121 0 5
    endloop
  endfacet
  facet normal 0 0 1
    outer loop
      vertex 15.02 7 5
      vertex 15 7 5
      vertex 15.02 0.0710674 5
    endloop
  endfacet
  facet normal 0 0 1
    outer loop
      vertex 121 7 5
      vertex 120.475 5.1168 5
      vertex 121 5.2 5
    endloop
  endfacet
  facet normal 0 0 1
    outer loop
      vertex 121 7 5
      vertex 120.001 4.87533 5
      vertex 120.475 5.1168 5
    endloop
  endfacet
  facet normal 0 0 1
    outer loop
      vertex 121 7 5
      vertex 119.625 4.49923 5
      vertex 120.001 4.87533 5
    endloop
  endfacet
  facet normal 0 0 1
    outer loop
      vertex 119.383 4.02533 5
      vertex 15.2 7 5
      vertex 119.3 3.5 5
    endloop
  endfacet
  facet normal 0 0 1
    outer loop
      vertex 119.625 4.49923 5
      vertex 15.2 7 5
      vertex 119.383 4.02533 5
    endloop
  endfacet
  facet normal -0 0 1
    outer loop
      vertex 15.2 7 5
      vertex 119.625 4.49923 5
      vertex 121 7 5
    endloop
  endfacet
  facet normal 0 0 1
    outer loop
      vertex 120.475 1.8832 5
      vertex 121 0 5
      vertex 121 1.8 5
    endloop
  endfacet
  facet normal 0 0 1
    outer loop
      vertex 120.001 2.12467 5
      vertex 121 0 5
      vertex 120.475 1.8832 5
    endloop
  endfacet
  facet normal 0 0 1
    outer loop
      vertex 119.625 2.50076 5
      vertex 121 0 5
      vertex 120.001 2.12467 5
    endloop
  endfacet
  facet normal 0 0 1
    outer loop
      vertex 15.2 0.0355339 5
      vertex 119.3 3.5 5
      vertex 15.2 7 5
    endloop
  endfacet
  facet normal 0 0 1
    outer loop
      vertex 119.3 3.5 5
      vertex 15.2 0.0355339 5
      vertex 119.383 2.97467 5
    endloop
  endfacet
  facet normal 0 0 1
    outer loop
      vertex 119.383 2.97467 5
      vertex 15.2 0.0355339 5
      vertex 119.625 2.50076 5
    endloop
  endfacet
  facet normal 0 0 1
    outer loop
      vertex 119.625 2.50076 5
      vertex 15.2 0.0355339 5
      vertex 121 0 5
    endloop
  endfacet
  facet normal 0 0 1
    outer loop
      vertex 15.2 0.0355339 5
      vertex 15 0 5
      vertex 121 0 5
    endloop
  endfacet
  facet normal 0 0 1
    outer loop
      vertex 15.02 0.0710674 5
      vertex 15 0 5
      vertex 15.2 0.0355339 5
    endloop
  endfacet
  facet normal 0 0 1
    outer loop
      vertex 15 0 5
      vertex 15.02 0.0710674 5
      vertex 15 7 5
    endloop
  endfacet
  facet normal 0 0 -1
    outer loop
      vertex 121 0 0
      vertex 120.475 1.8832 0
      vertex 121 1.8 0
    endloop
  endfacet
  facet normal 0 0 -1
    outer loop
      vertex 121 0 0
      vertex 120.001 2.12467 0
      vertex 120.475 1.8832 0
    endloop
  endfacet
  facet normal 0 0 -1
    outer loop
      vertex 121 0 0
      vertex 119.625 2.50076 0
      vertex 120.001 2.12467 0
    endloop
  endfacet
  facet normal -0 0 -1
    outer loop
      vertex 119.383 2.97467 0
      vertex 15 0 0
      vertex 119.3 3.5 0
    endloop
  endfacet
  facet normal -0 0 -1
    outer loop
      vertex 119.625 2.50076 0
      vertex 15 0 0
      vertex 119.383 2.97467 0
    endloop
  endfacet
  facet normal 0 0 -1
    outer loop
      vertex 15 0 0
      vertex 119.625 2.50076 0
      vertex 121 0 0
    endloop
  endfacet
  facet normal 0 0 -1
    outer loop
      vertex 120.475 5.1168 0
      vertex 121 7 0
      vertex 121 5.2 0
    endloop
  endfacet
  facet normal 0 0 -1
    outer loop
      vertex 120.001 4.87533 0
      vertex 121 7 0
      vertex 120.475 5.1168 0
    endloop
  endfacet
  facet normal 0 0 -1
    outer loop
      vertex 119.625 4.49923 0
      vertex 121 7 0
      vertex 120.001 4.87533 0
    endloop
  endfacet
  facet normal 0 0 -1
    outer loop
      vertex 15 7 0
      vertex 119.3 3.5 0
      vertex 15 0 0
    endloop
  endfacet
  facet normal 0 0 -1
    outer loop
      vertex 119.3 3.5 0
      vertex 15 7 0
      vertex 119.383 4.02533 0
    endloop
  endfacet
  facet normal 0 0 -1
    outer loop
      vertex 119.383 4.02533 0
      vertex 15 7 0
      vertex 119.625 4.49923 0
    endloop
  endfacet
  facet normal 0 0 -1
    outer loop
      vertex 119.625 4.49923 0
      vertex 15 7 0
      vertex 121 7 0
    endloop
  endfacet
  facet normal -1 0 0
    outer loop
      vertex 15 7 0
      vertex 15 6.99606 0.0535765
      vertex 15 7 5
    endloop
  endfacet
  facet normal -1 0 0
    outer loop
      vertex 15 7 0
      vertex 15 0.0750076 0.0535765
      vertex 15 6.99606 0.0535765
    endloop
  endfacet
  facet normal -1 0 0
    outer loop
      vertex 15 0 5
      vertex 15 0.0750076 0.0535765
      vertex 15 0 0
    endloop
  endfacet
  facet normal -1 0 0
    outer loop
      vertex 15 0 0
      vertex 15 0.0750076 0.0535765
      vertex 15 7 0
    endloop
  endfacet
  facet normal -1 0 0
    outer loop
      vertex 15 6.99606 4.99719
      vertex 15 7 5
      vertex 15 6.99606 0.0535765
    endloop
  endfacet
  facet normal -1 0 0
    outer loop
      vertex 15 0.0750076 4.99719
      vertex 15 7 5
      vertex 15 6.99606 4.99719
    endloop
  endfacet
  facet normal -1 0 0
    outer loop
      vertex 15 0.0750076 4.99719
      vertex 15 0 5
      vertex 15 7 5
    endloop
  endfacet
  facet normal -1 0 0
    outer loop
      vertex 15 0.0750076 0.0535765
      vertex 15 0 5
      vertex 15 0.0750076 4.99719
    endloop
  endfacet
  facet normal 0 1 0
    outer loop
      vertex 121 7 5
      vertex 15.2 7 0.0253811
      vertex 15.2 7 5
    endloop
  endfacet
  facet normal -0 1 0
    outer loop
      vertex 15.2 7 0.0253811
      vertex 121 7 5
      vertex 121 7 0
    endloop
  endfacet
  facet normal 0 1 -0
    outer loop
      vertex 15.02 7 0.0507624
      vertex 15 7 5
      vertex 15.02 7 5
    endloop
  endfacet
  facet normal 0 1 0
    outer loop
      vertex 15.02 7 0.0507624
      vertex 15 7 0
      vertex 15 7 5
    endloop
  endfacet
  facet normal 0 1 0
    outer loop
      vertex 15.2 7 0.0253811
      vertex 15 7 0
      vertex 15.02 7 0.0507624
    endloop
  endfacet
  facet normal 0 1 0
    outer loop
      vertex 15 7 0
      vertex 15.2 7 0.0253811
      vertex 121 7 0
    endloop
  endfacet
  facet normal 0 -1 0
    outer loop
      vertex 15 0 0
      vertex 121 0 5
      vertex 15 0 5
    endloop
  endfacet
  facet normal 0 -1 -0
    outer loop
      vertex 121 0 5
      vertex 15 0 0
      vertex 121 0 0
    endloop
  endfacet
  facet normal -0.139597 0 -0.990208
    outer loop
      vertex 0 3.03553 2.16824
      vertex 15 6.99606 0.0535765
      vertex 15 0.0750076 0.0535765
    endloop
  endfacet
  facet normal -0.139597 0 -0.990208
    outer loop
      vertex 15 6.99606 0.0535765
      vertex 0 3.03553 2.16824
      vertex 0 4.03553 2.16824
    endloop
  endfacet
  facet normal -0.139626 0 -0.990204
    outer loop
      vertex 15.2 7 0.0253811
      vertex 15.02 7 0.0507624
      vertex 15.2 7.03553 0.0253811
    endloop
  endfacet
  facet normal -1 0 0
    outer loop
      vertex 0 3.03553 2.16824
      vertex 0 4.03553 2.88252
      vertex 0 4.03553 2.16824
    endloop
  endfacet
  facet normal -1 -0 0
    outer loop
      vertex 0 4.03553 2.88252
      vertex 0 3.03553 2.16824
      vertex 0 3.03553 2.88252
    endloop
  endfacet
  facet normal -0.193633 0.981074 0
    outer loop
      vertex 15 6.99606 4.99719
      vertex 0 4.03553 2.16824
      vertex 0 4.03553 2.88252
    endloop
  endfacet
  facet normal -0.193633 0.981074 0
    outer loop
      vertex 0 4.03553 2.16824
      vertex 15 6.99606 4.99719
      vertex 15 6.99606 0.0535765
    endloop
  endfacet
  facet normal -0.193652 0.98107 0
    outer loop
      vertex 15.2 7.03553 5.02538
      vertex 15.02 7 0.0507624
      vertex 15.02 7 5
    endloop
  endfacet
  facet normal -0.193652 0.98107 0
    outer loop
      vertex 15.02 7 0.0507624
      vertex 15.2 7.03553 5.02538
      vertex 15.2 7.03553 0.0253811
    endloop
  endfacet
  facet normal 1 0 0
    outer loop
      vertex 15.2 7.03553 5.02538
      vertex 15.2 7 5
      vertex 15.2 7.03553 0.0253811
    endloop
  endfacet
  facet normal 1 -0 0
    outer loop
      vertex 15.2 0.0355339 5.02538
      vertex 15.2 7 5
      vertex 15.2 7.03553 5.02538
    endloop
  endfacet
  facet normal 1 0 0
    outer loop
      vertex 15.2 7 5
      vertex 15.2 0.0355339 5.02538
      vertex 15.2 0.0355339 5
    endloop
  endfacet
  facet normal 1 0 0
    outer loop
      vertex 15.2 7.03553 0.0253811
      vertex 15.2 7 5
      vertex 15.2 7 0.0253811
    endloop
  endfacet
  facet normal -0.193633 -0.981074 0
    outer loop
      vertex 0 3.03553 2.16824
      vertex 15 0.0750076 4.99719
      vertex 0 3.03553 2.88252
    endloop
  endfacet
  facet normal -0.193633 -0.981074 -0
    outer loop
      vertex 15 0.0750076 4.99719
      vertex 0 3.03553 2.16824
      vertex 15 0.0750076 0.0535765
    endloop
  endfacet
  facet normal -0.193671 -0.981067 -0
    outer loop
      vertex 15.2 0.0355339 5.02538
      vertex 15.02 0.0710674 5
      vertex 15.2 0.0355339 5
    endloop
  endfacet
  facet normal -0.139598 0 0.990208
    outer loop
      vertex 0 4.03553 2.88252
      vertex 15 0.0750076 4.99719
      vertex 15 6.99606 4.99719
    endloop
  endfacet
  facet normal -0.139598 0 0.990208
    outer loop
      vertex 15 0.0750076 4.99719
      vertex 0 4.03553 2.88252
      vertex 0 3.03553 2.88252
    endloop
  endfacet
  facet normal -0.139619 0 0.990205
    outer loop
      vertex 15.2 7.03553 5.02538
      vertex 15.02 7 5
      vertex 15.2 0.0355339 5.02538
    endloop
  endfacet
  facet normal -0.139619 0 0.990205
    outer loop
      vertex 15.2 0.0355339 5.02538
      vertex 15.02 7 5
      vertex 15.02 0.0710674 5
    endloop
  endfacet
  facet normal 0.89122 0.453572 0
    outer loop
      vertex 124.043 4.48885 3.5
      vertex 123.589 5.38091 1.5
      vertex 123.589 5.38091 3.5
    endloop
  endfacet
  facet normal 0.89122 0.453572 0
    outer loop
      vertex 123.589 5.38091 1.5
      vertex 124.043 4.48885 3.5
      vertex 124.043 4.48885 1.5
    endloop
  endfacet
  facet normal 0.987629 0.156806 0
    outer loop
      vertex 124.2 3.5 3.5
      vertex 124.043 4.48885 1.5
      vertex 124.043 4.48885 3.5
    endloop
  endfacet
  facet normal 0.987629 0.156806 0
    outer loop
      vertex 124.043 4.48885 1.5
      vertex 124.2 3.5 3.5
      vertex 124.2 3.5 1.5
    endloop
  endfacet
  facet normal 0.707077 0.707137 0
    outer loop
      vertex 123.589 5.38091 3.5
      vertex 122.881 6.08885 1.5
      vertex 122.881 6.08885 3.5
    endloop
  endfacet
  facet normal 0.707077 0.707137 0
    outer loop
      vertex 122.881 6.08885 1.5
      vertex 123.589 5.38091 3.5
      vertex 123.589 5.38091 1.5
    endloop
  endfacet
  facet normal 0.454015 -0.890994 0
    outer loop
      vertex 121.989 0.456618 1.5
      vertex 122.881 0.911145 3.5
      vertex 121.989 0.456618 3.5
    endloop
  endfacet
  facet normal 0.454015 -0.890994 0
    outer loop
      vertex 122.881 0.911145 3.5
      vertex 121.989 0.456618 1.5
      vertex 122.881 0.911145 1.5
    endloop
  endfacet
  facet normal 0.454017 0.890993 -0
    outer loop
      vertex 122.881 6.08885 1.5
      vertex 121.989 6.54338 3.5
      vertex 122.881 6.08885 3.5
    endloop
  endfacet
  facet normal 0.454017 0.890993 0
    outer loop
      vertex 121.989 6.54338 3.5
      vertex 122.881 6.08885 1.5
      vertex 121.989 6.54338 1.5
    endloop
  endfacet
  facet normal 0.707079 -0.707134 0
    outer loop
      vertex 122.881 0.911145 3.5
      vertex 123.589 1.61909 1.5
      vertex 123.589 1.61909 3.5
    endloop
  endfacet
  facet normal 0.707079 -0.707134 0
    outer loop
      vertex 123.589 1.61909 1.5
      vertex 122.881 0.911145 3.5
      vertex 122.881 0.911145 1.5
    endloop
  endfacet
  facet normal 0.987629 -0.156806 0
    outer loop
      vertex 124.043 2.51115 3.5
      vertex 124.2 3.5 1.5
      vertex 124.2 3.5 3.5
    endloop
  endfacet
  facet normal 0.987629 -0.156806 0
    outer loop
      vertex 124.2 3.5 1.5
      vertex 124.043 2.51115 3.5
      vertex 124.043 2.51115 1.5
    endloop
  endfacet
  facet normal 0.156412 -0.987692 0
    outer loop
      vertex 121 0.299999 1.5
      vertex 121.989 0.456618 3.5
      vertex 121 0.299999 3.5
    endloop
  endfacet
  facet normal 0.156412 -0.987692 0
    outer loop
      vertex 121.989 0.456618 3.5
      vertex 121 0.299999 1.5
      vertex 121.989 0.456618 1.5
    endloop
  endfacet
  facet normal 0.89122 -0.453572 0
    outer loop
      vertex 123.589 1.61909 3.5
      vertex 124.043 2.51115 1.5
      vertex 124.043 2.51115 3.5
    endloop
  endfacet
  facet normal 0.89122 -0.453572 0
    outer loop
      vertex 124.043 2.51115 1.5
      vertex 123.589 1.61909 3.5
      vertex 123.589 1.61909 1.5
    endloop
  endfacet
  facet normal 0.156413 0.987692 -0
    outer loop
      vertex 121.989 6.54338 1.5
      vertex 121 6.7 3.5
      vertex 121.989 6.54338 3.5
    endloop
  endfacet
  facet normal 0.156413 0.987692 0
    outer loop
      vertex 121 6.7 3.5
      vertex 121.989 6.54338 1.5
      vertex 121 6.7 1.5
    endloop
  endfacet
  facet normal 0 0 -1
    outer loop
      vertex 122.7 3.5 1.5
      vertex 124.2 3.5 1.5
      vertex 124.043 2.51115 1.5
    endloop
  endfacet
  facet normal 0 0 -1
    outer loop
      vertex 122.617 2.97467 1.5
      vertex 124.043 2.51115 1.5
      vertex 123.589 1.61909 1.5
    endloop
  endfacet
  facet normal 0 0 -1
    outer loop
      vertex 124.2 3.5 1.5
      vertex 122.7 3.5 1.5
      vertex 124.043 4.48885 1.5
    endloop
  endfacet
  facet normal 0 0 -1
    outer loop
      vertex 122.375 2.50076 1.5
      vertex 123.589 1.61909 1.5
      vertex 122.881 0.911145 1.5
    endloop
  endfacet
  facet normal 0 0 -1
    outer loop
      vertex 122.617 4.02533 1.5
      vertex 124.043 4.48885 1.5
      vertex 122.7 3.5 1.5
    endloop
  endfacet
  facet normal -0 0 -1
    outer loop
      vertex 124.043 4.48885 1.5
      vertex 122.617 4.02533 1.5
      vertex 123.589 5.38091 1.5
    endloop
  endfacet
  facet normal 0 0 -1
    outer loop
      vertex 124.043 2.51115 1.5
      vertex 122.617 2.97467 1.5
      vertex 122.7 3.5 1.5
    endloop
  endfacet
  facet normal 0 0 -1
    outer loop
      vertex 123.589 1.61909 1.5
      vertex 122.375 2.50076 1.5
      vertex 122.617 2.97467 1.5
    endloop
  endfacet
  facet normal 0 0 -1
    outer loop
      vertex 122.881 0.911145 1.5
      vertex 121.999 2.12467 1.5
      vertex 122.375 2.50076 1.5
    endloop
  endfacet
  facet normal 0 0 -1
    outer loop
      vertex 121.989 0.456618 1.5
      vertex 121.999 2.12467 1.5
      vertex 122.881 0.911145 1.5
    endloop
  endfacet
  facet normal 0 0 -1
    outer loop
      vertex 121.989 0.456618 1.5
      vertex 121.525 1.8832 1.5
      vertex 121.999 2.12467 1.5
    endloop
  endfacet
  facet normal 0 0 -1
    outer loop
      vertex 121 0.299999 1.5
      vertex 121.525 1.8832 1.5
      vertex 121.989 0.456618 1.5
    endloop
  endfacet
  facet normal 0 0 -1
    outer loop
      vertex 121.525 1.8832 1.5
      vertex 121 0.299999 1.5
      vertex 121 1.8 1.5
    endloop
  endfacet
  facet normal 0 0 -1
    outer loop
      vertex 122.375 4.49923 1.5
      vertex 123.589 5.38091 1.5
      vertex 122.617 4.02533 1.5
    endloop
  endfacet
  facet normal -0 0 -1
    outer loop
      vertex 123.589 5.38091 1.5
      vertex 122.375 4.49923 1.5
      vertex 122.881 6.08885 1.5
    endloop
  endfacet
  facet normal 0 0 -1
    outer loop
      vertex 121.999 4.87533 1.5
      vertex 122.881 6.08885 1.5
      vertex 122.375 4.49923 1.5
    endloop
  endfacet
  facet normal 0 0 -1
    outer loop
      vertex 121.999 4.87533 1.5
      vertex 121.989 6.54338 1.5
      vertex 122.881 6.08885 1.5
    endloop
  endfacet
  facet normal 0 0 -1
    outer loop
      vertex 121.525 5.1168 1.5
      vertex 121.989 6.54338 1.5
      vertex 121.999 4.87533 1.5
    endloop
  endfacet
  facet normal 0 0 -1
    outer loop
      vertex 121 5.2 1.5
      vertex 121.989 6.54338 1.5
      vertex 121.525 5.1168 1.5
    endloop
  endfacet
  facet normal -0 0 -1
    outer loop
      vertex 121.989 6.54338 1.5
      vertex 121 5.2 1.5
      vertex 121 6.7 1.5
    endloop
  endfacet
  facet normal 0 0 1
    outer loop
      vertex 122.7 3.5 3.5
      vertex 124.2 3.5 3.5
      vertex 124.043 4.48885 3.5
    endloop
  endfacet
  facet normal 0 0 1
    outer loop
      vertex 122.617 4.02533 3.5
      vertex 124.043 4.48885 3.5
      vertex 123.589 5.38091 3.5
    endloop
  endfacet
  facet normal 0 0 1
    outer loop
      vertex 124.2 3.5 3.5
      vertex 122.7 3.5 3.5
      vertex 124.043 2.51115 3.5
    endloop
  endfacet
  facet normal 0 0 1
    outer loop
      vertex 122.375 4.49923 3.5
      vertex 123.589 5.38091 3.5
      vertex 122.881 6.08885 3.5
    endloop
  endfacet
  facet normal -0 0 1
    outer loop
      vertex 122.617 2.97467 3.5
      vertex 124.043 2.51115 3.5
      vertex 122.7 3.5 3.5
    endloop
  endfacet
  facet normal 0 0 1
    outer loop
      vertex 124.043 2.51115 3.5
      vertex 122.617 2.97467 3.5
      vertex 123.589 1.61909 3.5
    endloop
  endfacet
  facet normal 0 0 1
    outer loop
      vertex 124.043 4.48885 3.5
      vertex 122.617 4.02533 3.5
      vertex 122.7 3.5 3.5
    endloop
  endfacet
  facet normal 0 0 1
    outer loop
      vertex 123.589 5.38091 3.5
      vertex 122.375 4.49923 3.5
      vertex 122.617 4.02533 3.5
    endloop
  endfacet
  facet normal 0 0 1
    outer loop
      vertex 122.881 6.08885 3.5
      vertex 121.999 4.87533 3.5
      vertex 122.375 4.49923 3.5
    endloop
  endfacet
  facet normal 0 0 1
    outer loop
      vertex 121.989 6.54338 3.5
      vertex 121.999 4.87533 3.5
      vertex 122.881 6.08885 3.5
    endloop
  endfacet
  facet normal 0 0 1
    outer loop
      vertex 121.989 6.54338 3.5
      vertex 121.525 5.1168 3.5
      vertex 121.999 4.87533 3.5
    endloop
  endfacet
  facet normal 0 0 1
    outer loop
      vertex 121 6.7 3.5
      vertex 121.525 5.1168 3.5
      vertex 121.989 6.54338 3.5
    endloop
  endfacet
  facet normal 0 0 1
    outer loop
      vertex 121.525 5.1168 3.5
      vertex 121 6.7 3.5
      vertex 121 5.2 3.5
    endloop
  endfacet
  facet normal -0 0 1
    outer loop
      vertex 122.375 2.50076 3.5
      vertex 123.589 1.61909 3.5
      vertex 122.617 2.97467 3.5
    endloop
  endfacet
  facet normal 0 0 1
    outer loop
      vertex 123.589 1.61909 3.5
      vertex 122.375 2.50076 3.5
      vertex 122.881 0.911145 3.5
    endloop
  endfacet
  facet normal -0 0 1
    outer loop
      vertex 121.999 2.12467 3.5
      vertex 122.881 0.911145 3.5
      vertex 122.375 2.50076 3.5
    endloop
  endfacet
  facet normal 0 0 1
    outer loop
      vertex 121.999 2.12467 3.5
      vertex 121.989 0.456618 3.5
      vertex 122.881 0.911145 3.5
    endloop
  endfacet
  facet normal -0 0 1
    outer loop
      vertex 121.525 1.8832 3.5
      vertex 121.989 0.456618 3.5
      vertex 121.999 2.12467 3.5
    endloop
  endfacet
  facet normal -0 0 1
    outer loop
      vertex 121 1.8 3.5
      vertex 121.989 0.456618 3.5
      vertex 121.525 1.8832 3.5
    endloop
  endfacet
  facet normal 0 0 1
    outer loop
      vertex 121.989 0.456618 3.5
      vertex 121 1.8 3.5
      vertex 121 0.299999 3.5
    endloop
  endfacet
  facet normal -0.890599 -0.45479 0
    outer loop
      vertex 122.617 4.02533 1.5
      vertex 122.375 4.49923 3.5
      vertex 122.375 4.49923 1.5
    endloop
  endfacet
  facet normal -0.890599 -0.45479 0
    outer loop
      vertex 122.375 4.49923 3.5
      vertex 122.617 4.02533 1.5
      vertex 122.617 4.02533 3.5
    endloop
  endfacet
  facet normal -0.987748 -0.15606 0
    outer loop
      vertex 122.7 3.5 1.5
      vertex 122.617 4.02533 3.5
      vertex 122.617 4.02533 1.5
    endloop
  endfacet
  facet normal -0.987748 -0.15606 0
    outer loop
      vertex 122.617 4.02533 3.5
      vertex 122.7 3.5 1.5
      vertex 122.7 3.5 3.5
    endloop
  endfacet
  facet normal -0.453923 0.891041 0
    outer loop
      vertex 121.999 2.12467 1.5
      vertex 121.525 1.8832 3.5
      vertex 121.999 2.12467 3.5
    endloop
  endfacet
  facet normal -0.453923 0.891041 0
    outer loop
      vertex 121.525 1.8832 3.5
      vertex 121.999 2.12467 1.5
      vertex 121.525 1.8832 1.5
    endloop
  endfacet
  facet normal 0.707191 0.707022 0
    outer loop
      vertex 120.001 2.12467 5
      vertex 119.625 2.50076 0
      vertex 119.625 2.50076 5
    endloop
  endfacet
  facet normal 0.707191 0.707022 0
    outer loop
      vertex 119.625 2.50076 0
      vertex 120.001 2.12467 5
      vertex 120.001 2.12467 0
    endloop
  endfacet
  facet normal 0.156523 0.987674 -0
    outer loop
      vertex 121 1.8 3.5
      vertex 120.475 1.8832 5
      vertex 121 1.8 5
    endloop
  endfacet
  facet normal 0.156523 0.987674 -0
    outer loop
      vertex 121 1.8 1.5
      vertex 120.475 1.8832 5
      vertex 121 1.8 3.5
    endloop
  endfacet
  facet normal 0.156523 0.987674 0
    outer loop
      vertex 120.475 1.8832 0
      vertex 121 1.8 1.5
      vertex 121 1.8 0
    endloop
  endfacet
  facet normal 0.156523 0.987674 0
    outer loop
      vertex 121 1.8 1.5
      vertex 120.475 1.8832 0
      vertex 120.475 1.8832 5
    endloop
  endfacet
  facet normal -0.890603 0.454782 0
    outer loop
      vertex 122.375 2.50076 1.5
      vertex 122.617 2.97467 3.5
      vertex 122.617 2.97467 1.5
    endloop
  endfacet
  facet normal -0.890603 0.454782 0
    outer loop
      vertex 122.617 2.97467 3.5
      vertex 122.375 2.50076 1.5
      vertex 122.375 2.50076 3.5
    endloop
  endfacet
  facet normal -0.707191 0.707022 0
    outer loop
      vertex 121.999 2.12467 1.5
      vertex 122.375 2.50076 3.5
      vertex 122.375 2.50076 1.5
    endloop
  endfacet
  facet normal -0.707191 0.707022 0
    outer loop
      vertex 122.375 2.50076 3.5
      vertex 121.999 2.12467 1.5
      vertex 121.999 2.12467 3.5
    endloop
  endfacet
  facet normal -0.987748 0.15606 0
    outer loop
      vertex 122.617 2.97467 1.5
      vertex 122.7 3.5 3.5
      vertex 122.7 3.5 1.5
    endloop
  endfacet
  facet normal -0.987748 0.15606 0
    outer loop
      vertex 122.7 3.5 3.5
      vertex 122.617 2.97467 1.5
      vertex 122.617 2.97467 3.5
    endloop
  endfacet
  facet normal 0.707201 -0.707013 0
    outer loop
      vertex 119.625 4.49923 5
      vertex 120.001 4.87533 0
      vertex 120.001 4.87533 5
    endloop
  endfacet
  facet normal 0.707201 -0.707013 0
    outer loop
      vertex 120.001 4.87533 0
      vertex 119.625 4.49923 5
      vertex 119.625 4.49923 0
    endloop
  endfacet
  facet normal 0.156523 -0.987674 0
    outer loop
      vertex 120.475 5.1168 5
      vertex 121 5.2 3.5
      vertex 121 5.2 5
    endloop
  endfacet
  facet normal 0.156523 -0.987674 0
    outer loop
      vertex 120.475 5.1168 5
      vertex 121 5.2 1.5
      vertex 121 5.2 3.5
    endloop
  endfacet
  facet normal 0.156523 -0.987674 0
    outer loop
      vertex 120.475 5.1168 0
      vertex 121 5.2 1.5
      vertex 120.475 5.1168 5
    endloop
  endfacet
  facet normal 0.156523 -0.987674 0
    outer loop
      vertex 121 5.2 1.5
      vertex 120.475 5.1168 0
      vertex 121 5.2 0
    endloop
  endfacet
  facet normal 0.890603 0.454782 0
    outer loop
      vertex 119.625 2.50076 5
      vertex 119.383 2.97467 0
      vertex 119.383 2.97467 5
    endloop
  endfacet
  facet normal 0.890603 0.454782 0
    outer loop
      vertex 119.383 2.97467 0
      vertex 119.625 2.50076 5
      vertex 119.625 2.50076 0
    endloop
  endfacet
  facet normal -0.156523 -0.987674 0
    outer loop
      vertex 121 5.2 1.5
      vertex 121.525 5.1168 3.5
      vertex 121 5.2 3.5
    endloop
  endfacet
  facet normal -0.156523 -0.987674 -0
    outer loop
      vertex 121.525 5.1168 3.5
      vertex 121 5.2 1.5
      vertex 121.525 5.1168 1.5
    endloop
  endfacet
  facet normal 0.890599 -0.45479 0
    outer loop
      vertex 119.383 4.02533 5
      vertex 119.625 4.49923 0
      vertex 119.625 4.49923 5
    endloop
  endfacet
  facet normal 0.890599 -0.45479 0
    outer loop
      vertex 119.625 4.49923 0
      vertex 119.383 4.02533 5
      vertex 119.383 4.02533 0
    endloop
  endfacet
  facet normal -0.156523 0.987674 0
    outer loop
      vertex 121.525 1.8832 1.5
      vertex 121 1.8 3.5
      vertex 121.525 1.8832 3.5
    endloop
  endfacet
  facet normal -0.156523 0.987674 0
    outer loop
      vertex 121 1.8 3.5
      vertex 121.525 1.8832 1.5
      vertex 121 1.8 1.5
    endloop
  endfacet
  facet normal 0.987748 0.15606 0
    outer loop
      vertex 119.383 2.97467 5
      vertex 119.3 3.5 0
      vertex 119.3 3.5 5
    endloop
  endfacet
  facet normal 0.987748 0.15606 0
    outer loop
      vertex 119.3 3.5 0
      vertex 119.383 2.97467 5
      vertex 119.383 2.97467 0
    endloop
  endfacet
  facet normal 0.453923 0.891041 -0
    outer loop
      vertex 120.475 1.8832 0
      vertex 120.001 2.12467 5
      vertex 120.475 1.8832 5
    endloop
  endfacet
  facet normal 0.453923 0.891041 0
    outer loop
      vertex 120.001 2.12467 5
      vertex 120.475 1.8832 0
      vertex 120.001 2.12467 0
    endloop
  endfacet
  facet normal 0.453923 -0.891041 0
    outer loop
      vertex 120.001 4.87533 0
      vertex 120.475 5.1168 5
      vertex 120.001 4.87533 5
    endloop
  endfacet
  facet normal 0.453923 -0.891041 0
    outer loop
      vertex 120.475 5.1168 5
      vertex 120.001 4.87533 0
      vertex 120.475 5.1168 0
    endloop
  endfacet
  facet normal -0.453923 -0.891041 0
    outer loop
      vertex 121.525 5.1168 1.5
      vertex 121.999 4.87533 3.5
      vertex 121.525 5.1168 3.5
    endloop
  endfacet
  facet normal -0.453923 -0.891041 -0
    outer loop
      vertex 121.999 4.87533 3.5
      vertex 121.525 5.1168 1.5
      vertex 121.999 4.87533 1.5
    endloop
  endfacet
  facet normal 0.987748 -0.15606 0
    outer loop
      vertex 119.3 3.5 5
      vertex 119.383 4.02533 0
      vertex 119.383 4.02533 5
    endloop
  endfacet
  facet normal 0.987748 -0.15606 0
    outer loop
      vertex 119.383 4.02533 0
      vertex 119.3 3.5 5
      vertex 119.3 3.5 0
    endloop
  endfacet
  facet normal -0.707201 -0.707013 0
    outer loop
      vertex 122.375 4.49923 1.5
      vertex 121.999 4.87533 3.5
      vertex 121.999 4.87533 1.5
    endloop
  endfacet
  facet normal -0.707201 -0.707013 0
    outer loop
      vertex 121.999 4.87533 3.5
      vertex 122.375 4.49923 1.5
      vertex 122.375 4.49923 3.5
    endloop
  endfacet
endsolid OpenSCAD_Model
