<svg version="1.1" id="Layer_1" xmlns="http://www.w3.org/2000/svg" xmlns:xlink="http://www.w3.org/1999/xlink" x="0px" y="0px"
	 width="100%" viewBox="0 0 124 124" enable-background="new 0 0 124 124" xml:space="preserve">
<path fill="#24573E" opacity="1.000000" stroke="none" 
	d="
M125.000000,47.000000 
	C125.000000,57.354229 125.000000,67.708458 124.634598,78.568893 
	C123.890274,79.580055 123.338440,80.029907 123.157463,80.597916 
	C116.831764,100.451820 104.108917,114.274208 84.590614,121.797508 
	C82.609894,122.560974 80.858055,123.918274 79.000000,125.000000 
	C68.645775,125.000000 58.291546,125.000000 47.431099,124.634598 
	C46.419941,123.890274 45.970093,123.338440 45.402081,123.157463 
	C25.548193,116.831741 11.725786,104.108917 4.202490,84.590622 
	C3.439023,82.609894 2.081726,80.858055 1.000000,79.000000 
	C1.000000,68.645775 1.000000,58.291546 1.365405,47.431099 
	C2.109727,46.419930 2.661569,45.970074 2.842547,45.402058 
	C9.168262,25.548174 21.891098,11.725788 41.409378,4.202485 
	C43.390102,3.439016 45.141945,2.081723 47.000000,1.000000 
	C57.354229,1.000000 67.708458,1.000000 78.568901,1.365403 
	C79.580070,2.109723 80.029922,2.661569 80.597946,2.842547 
	C100.451813,9.168271 114.274216,21.891090 121.797508,41.409382 
	C122.560974,43.390110 123.918274,45.141945 125.000000,47.000000 
M101.008476,97.488739 
	C110.875046,86.250954 115.346581,73.366257 114.104874,58.264751 
	C111.724716,29.317516 84.290779,6.912984 54.097641,12.266009 
	C25.130871,17.401609 5.440086,46.422344 13.107083,75.460533 
	C19.355400,99.125565 38.686653,114.092918 62.936096,114.595718 
	C77.448792,114.896629 90.452065,109.115730 101.008476,97.488739 
z"/>
<path fill="#24573E" opacity="1.000000" stroke="none" 
	d="
M62.582390,17.096985 
	C66.674919,19.827175 70.567543,22.260592 74.008774,25.219070 
	C77.674934,28.370913 76.167023,31.265575 72.714073,33.593121 
	C71.346207,34.515171 69.961609,35.412426 68.320000,36.495579 
	C66.445862,34.409149 64.752480,32.175812 62.710564,30.327526 
	C59.117687,27.075344 52.948017,26.768661 50.674210,30.155197 
	C49.226345,32.311596 47.906292,36.701641 48.998402,37.979321 
	C51.455475,40.853901 55.619217,44.424614 58.788067,44.156952 
	C71.445038,43.087856 81.480278,47.034016 89.892273,56.312138 
	C94.886772,61.820896 95.033058,62.241066 89.172729,66.486740 
	C88.234932,67.166161 87.361778,67.934799 85.965691,69.059349 
	C83.768112,66.702606 81.602036,64.379646 78.576721,61.135208 
	C78.576721,66.232048 78.576721,70.174744 78.576721,75.021599 
	C82.468544,75.021599 86.560539,75.138824 90.642250,74.984291 
	C93.872726,74.861977 94.761307,76.248604 95.063522,79.383385 
	C97.247246,102.034912 73.499962,114.660103 55.220581,109.650810 
	C30.235695,102.803940 22.313637,71.503937 40.178898,54.299648 
	C41.233322,53.284233 42.149647,52.125408 43.101994,51.064777 
	C35.090744,41.436623 33.898903,32.937416 39.243145,24.603230 
	C43.718143,17.624603 52.661777,14.672603 62.582390,17.096985 
M55.646103,57.349171 
	C52.727859,59.461929 49.364834,61.168453 46.985554,63.773476 
	C42.280251,68.925209 42.836155,71.691177 48.467686,75.881645 
	C53.682232,79.761826 61.077759,78.061218 65.352989,71.998863 
	C68.539566,67.480255 67.075768,63.342651 60.838131,59.524044 
	C59.431702,58.663044 57.862324,58.068207 55.646103,57.349171 
M60.721523,88.600098 
	C55.719261,88.600098 50.716999,88.600098 45.516209,88.600098 
	C49.479546,95.893318 59.465847,101.105965 66.310776,99.730667 
	C75.535774,97.877174 81.786316,92.831329 82.333130,86.333443 
	C75.269272,85.915176 68.249535,85.034775 60.721523,88.600098 
z"/>
</svg>
