{
    "asset": {
        "version": "2.0",
        "generator": "Open Asset Import Library (assimp v5.4.0)"
    },
    "extensionsUsed": [
        "KHR_materials_specular",
        "KHR_materials_volume",
        "FB_ngon_encoding"
    ],
    "accessors": [
        {
            "bufferView": 0,
            "byteOffset": 0,
            "componentType": 5126,
            "count": 17808,
            "type": "VEC3",
            "max": [
                0.9839601516723633,
                0.9839601516723633,
                0.9839601516723633
            ],
            "min": [
                -0.9839601516723633,
                -0.9839601516723633,
                -0.9839601516723633
            ]
        },
        {
            "bufferView": 1,
            "byteOffset": 0,
            "componentType": 5126,
            "count": 17808,
            "type": "VEC3",
            "max": [
                0.9928343892097473,
                0.9928343892097473,
                0.9928343892097473
            ],
            "min": [
                -0.9928343892097473,
                -0.9928343892097473,
                -0.9928343892097473
            ]
        },
        {
            "bufferView": 2,
            "byteOffset": 0,
            "componentType": 5125,
            "count": 23712,
            "type": "SCALAR",
            "max": [
                17807
            ],
            "min": [
                0
            ]
        }
    ],
    "buffers": [
        {
            "byteLength": 522240,
            "uri": "isocahedron-2-3.bin"
        }
    ],
    "bufferViews": [
        {
            "buffer": 0,
            "byteOffset": 0,
            "byteLength": 213696,
            "target": 34962
        },
        {
            "buffer": 0,
            "byteOffset": 213696,
            "byteLength": 213696,
            "target": 34962
        },
        {
            "buffer": 0,
            "byteOffset": 427392,
            "byteLength": 94848,
            "target": 34963
        }
    ],
    "materials": [
        {
            "name": "DefaultMaterial",
            "pbrMetallicRoughness": {
                "metallicFactor": 0.0
            },
            "extensions": {
                "KHR_materials_specular": {
                    "specularFactor": 1.0
                }
            }
        }
    ],
    "meshes": [
        {
            "name": "OpenSCAD_Model",
            "primitives": [
                {
                    "mode": 4,
                    "material": 0,
                    "indices": 2,
                    "attributes": {
                        "POSITION": 0,
                        "NORMAL": 1
                    }
                }
            ]
        }
    ],
    "nodes": [
        {
            "children": [
                1
            ]
        },
        {
            "name": "OpenSCAD_Model",
            "mesh": 0
        }
    ],
    "scenes": [
        {
            "nodes": [
                0
            ]
        }
    ],
    "scene": 0
}