{
    "asset": {
        "version": "2.0",
        "generator": "Open Asset Import Library (assimp v5.4.0)"
    },
    "extensionsUsed": [
        "KHR_materials_specular",
        "KHR_materials_volume",
        "FB_ngon_encoding"
    ],
    "accessors": [
        {
            "bufferView": 0,
            "byteOffset": 0,
            "componentType": 5126,
            "count": 4320,
            "type": "VEC3",
            "max": [
                0.936955451965332,
                0.936955451965332,
                0.936955451965332
            ],
            "min": [
                -0.936955451965332,
                -0.936955451965332,
                -0.936955451965332
            ]
        },
        {
            "bufferView": 1,
            "byteOffset": 0,
            "componentType": 5126,
            "count": 4320,
            "type": "VEC3",
            "max": [
                0.9710148572921753,
                0.9710148572921753,
                0.9710148572921753
            ],
            "min": [
                -0.9710148572921753,
                -0.9710148572921753,
                -0.9710148572921753
            ]
        },
        {
            "bufferView": 2,
            "byteOffset": 0,
            "componentType": 5125,
            "count": 5856,
            "type": "SCALAR",
            "max": [
                4319
            ],
            "min": [
                0
            ]
        }
    ],
    "buffers": [
        {
            "byteLength": 127104,
            "uri": "isocahedron-2-2.bin"
        }
    ],
    "bufferViews": [
        {
            "buffer": 0,
            "byteOffset": 0,
            "byteLength": 51840,
            "target": 34962
        },
        {
            "buffer": 0,
            "byteOffset": 51840,
            "byteLength": 51840,
            "target": 34962
        },
        {
            "buffer": 0,
            "byteOffset": 103680,
            "byteLength": 23424,
            "target": 34963
        }
    ],
    "materials": [
        {
            "name": "DefaultMaterial",
            "pbrMetallicRoughness": {
                "metallicFactor": 0.0
            },
            "extensions": {
                "KHR_materials_specular": {
                    "specularFactor": 1.0
                }
            }
        }
    ],
    "meshes": [
        {
            "name": "OpenSCAD_Model",
            "primitives": [
                {
                    "mode": 4,
                    "material": 0,
                    "indices": 2,
                    "attributes": {
                        "POSITION": 0,
                        "NORMAL": 1
                    }
                }
            ]
        }
    ],
    "nodes": [
        {
            "children": [
                1
            ]
        },
        {
            "name": "OpenSCAD_Model",
            "mesh": 0
        }
    ],
    "scenes": [
        {
            "nodes": [
                0
            ]
        }
    ],
    "scene": 0
}