{
    "asset": {
        "version": "2.0",
        "generator": "Open Asset Import Library (assimp v5.4.0)"
    },
    "extensionsUsed": [
        "KHR_materials_specular",
        "KHR_materials_volume",
        "FB_ngon_encoding"
    ],
    "accessors": [
        {
            "bufferView": 0,
            "byteOffset": 0,
            "componentType": 5126,
            "count": 3600,
            "type": "VEC3",
            "max": [
                0.9829826354980469,
                0.9829826354980469,
                0.9829826354980469
            ],
            "min": [
                -0.9829826354980469,
                -0.9829826354980469,
                -0.9829826354980469
            ]
        },
        {
            "bufferView": 1,
            "byteOffset": 0,
            "componentType": 5126,
            "count": 3600,
            "type": "VEC3",
            "max": [
                0.9996590614318848,
                0.9996590614318848,
                0.9996589422225952
            ],
            "min": [
                -0.9996590614318848,
                -0.9996590614318848,
                -0.9996589422225952
            ]
        },
        {
            "bufferView": 2,
            "byteOffset": 0,
            "componentType": 5125,
            "count": 3840,
            "type": "SCALAR",
            "max": [
                3599
            ],
            "min": [
                0
            ]
        }
    ],
    "buffers": [
        {
            "byteLength": 101760,
            "uri": "isocahedron-1-2.bin"
        }
    ],
    "bufferViews": [
        {
            "buffer": 0,
            "byteOffset": 0,
            "byteLength": 43200,
            "target": 34962
        },
        {
            "buffer": 0,
            "byteOffset": 43200,
            "byteLength": 43200,
            "target": 34962
        },
        {
            "buffer": 0,
            "byteOffset": 86400,
            "byteLength": 15360,
            "target": 34963
        }
    ],
    "materials": [
        {
            "name": "DefaultMaterial",
            "pbrMetallicRoughness": {
                "metallicFactor": 0.0
            },
            "extensions": {
                "KHR_materials_specular": {
                    "specularFactor": 1.0
                }
            }
        }
    ],
    "meshes": [
        {
            "name": "OpenSCAD_Model",
            "primitives": [
                {
                    "mode": 4,
                    "material": 0,
                    "indices": 2,
                    "attributes": {
                        "POSITION": 0,
                        "NORMAL": 1
                    }
                }
            ]
        }
    ],
    "nodes": [
        {
            "children": [
                1
            ]
        },
        {
            "name": "OpenSCAD_Model",
            "mesh": 0
        }
    ],
    "scenes": [
        {
            "nodes": [
                0
            ]
        }
    ],
    "scene": 0
}