{
    "asset": {
        "version": "2.0",
        "generator": "Open Asset Import Library (assimp v5.4.0)"
    },
    "extensionsUsed": [
        "KHR_materials_specular",
        "KHR_materials_volume",
        "FB_ngon_encoding"
    ],
    "accessors": [
        {
            "bufferView": 0,
            "byteOffset": 0,
            "componentType": 5126,
            "count": 27661,
            "type": "VEC3",
            "max": [
                0.9924461841583252,
                0.9918652176856995,
                0.9914887547492981
            ],
            "min": [
                -0.9924461841583252,
                -0.9918652176856995,
                -0.9914887547492981
            ]
        },
        {
            "bufferView": 1,
            "byteOffset": 0,
            "componentType": 5126,
            "count": 27661,
            "type": "VEC3",
            "max": [
                0.9960660338401794,
                0.9980354309082031,
                0.9928341507911682
            ],
            "min": [
                -0.9960660338401794,
                -0.9980354309082031,
                -0.9928341507911682
            ]
        },
        {
            "bufferView": 2,
            "byteOffset": 0,
            "componentType": 5125,
            "count": 53424,
            "type": "SCALAR",
            "max": [
                27660
            ],
            "min": [
                0
            ]
        }
    ],
    "buffers": [
        {
            "byteLength": 877560,
            "uri": "sphere-2-3.bin"
        }
    ],
    "bufferViews": [
        {
            "buffer": 0,
            "byteOffset": 0,
            "byteLength": 331932,
            "target": 34962
        },
        {
            "buffer": 0,
            "byteOffset": 331932,
            "byteLength": 331932,
            "target": 34962
        },
        {
            "buffer": 0,
            "byteOffset": 663864,
            "byteLength": 213696,
            "target": 34963
        }
    ],
    "materials": [
        {
            "name": "DefaultMaterial",
            "pbrMetallicRoughness": {
                "metallicFactor": 0.0
            },
            "extensions": {
                "KHR_materials_specular": {
                    "specularFactor": 1.0
                }
            }
        }
    ],
    "meshes": [
        {
            "name": "OpenSCAD_Model",
            "primitives": [
                {
                    "mode": 4,
                    "material": 0,
                    "indices": 2,
                    "attributes": {
                        "POSITION": 0,
                        "NORMAL": 1
                    }
                }
            ]
        }
    ],
    "nodes": [
        {
            "children": [
                1
            ]
        },
        {
            "name": "OpenSCAD_Model",
            "mesh": 0
        }
    ],
    "scenes": [
        {
            "nodes": [
                0
            ]
        }
    ],
    "scene": 0
}