{
    "asset": {
        "version": "2.0",
        "generator": "Open Asset Import Library (assimp v5.4.0)"
    },
    "extensionsUsed": [
        "KHR_materials_specular",
        "KHR_materials_volume",
        "FB_ngon_encoding"
    ],
    "accessors": [
        {
            "bufferView": 0,
            "byteOffset": 0,
            "componentType": 5126,
            "count": 9774,
            "type": "VEC3",
            "max": [
                1.0,
                0.9980258941650391,
                0.9980258941650391
            ],
            "min": [
                -1.0,
                -0.9980258941650391,
                -0.9980258941650391
            ]
        },
        {
            "bufferView": 1,
            "byteOffset": 0,
            "componentType": 5126,
            "count": 9774,
            "type": "VEC3",
            "max": [
                0.9960665702819824,
                0.9980347156524658,
                1.0
            ],
            "min": [
                -0.9960665702819824,
                -0.9980347156524658,
                -1.0
            ]
        },
        {
            "bufferView": 2,
            "byteOffset": 0,
            "componentType": 5125,
            "count": 16272,
            "type": "SCALAR",
            "max": [
                9773
            ],
            "min": [
                0
            ]
        }
    ],
    "buffers": [
        {
            "byteLength": 299664,
            "uri": "sphere-2-1.bin"
        }
    ],
    "bufferViews": [
        {
            "buffer": 0,
            "byteOffset": 0,
            "byteLength": 117288,
            "target": 34962
        },
        {
            "buffer": 0,
            "byteOffset": 117288,
            "byteLength": 117288,
            "target": 34962
        },
        {
            "buffer": 0,
            "byteOffset": 234576,
            "byteLength": 65088,
            "target": 34963
        }
    ],
    "materials": [
        {
            "name": "DefaultMaterial",
            "pbrMetallicRoughness": {
                "metallicFactor": 0.0
            },
            "extensions": {
                "KHR_materials_specular": {
                    "specularFactor": 1.0
                }
            }
        }
    ],
    "meshes": [
        {
            "name": "OpenSCAD_Model",
            "primitives": [
                {
                    "mode": 4,
                    "material": 0,
                    "indices": 2,
                    "attributes": {
                        "POSITION": 0,
                        "NORMAL": 1
                    }
                }
            ]
        }
    ],
    "nodes": [
        {
            "children": [
                1
            ]
        },
        {
            "name": "OpenSCAD_Model",
            "mesh": 0
        }
    ],
    "scenes": [
        {
            "nodes": [
                0
            ]
        }
    ],
    "scene": 0
}