{
    "asset": {
        "version": "2.0",
        "generator": "Open Asset Import Library (assimp v5.4.0)"
    },
    "extensionsUsed": [
        "KHR_materials_specular",
        "KHR_materials_volume",
        "FB_ngon_encoding"
    ],
    "accessors": [
        {
            "bufferView": 0,
            "byteOffset": 0,
            "componentType": 5126,
            "count": 12538,
            "type": "VEC3",
            "max": [
                0.9694432020187378,
                0.970382034778595,
                0.9694250226020813
            ],
            "min": [
                -0.9694432020187378,
                -0.970382034778595,
                -0.9694250226020813
            ]
        },
        {
            "bufferView": 1,
            "byteOffset": 0,
            "componentType": 5126,
            "count": 12538,
            "type": "VEC3",
            "max": [
                0.9961980581283569,
                0.9961980581283569,
                0.9961980581283569
            ],
            "min": [
                -0.9961980581283569,
                -0.9961980581283569,
                -0.9961980581283569
            ]
        },
        {
            "bufferView": 2,
            "byteOffset": 0,
            "componentType": 5125,
            "count": 22944,
            "type": "SCALAR",
            "max": [
                12537
            ],
            "min": [
                0
            ]
        }
    ],
    "buffers": [
        {
            "byteLength": 392688,
            "uri": "sphere-3-1.bin"
        }
    ],
    "bufferViews": [
        {
            "buffer": 0,
            "byteOffset": 0,
            "byteLength": 150456,
            "target": 34962
        },
        {
            "buffer": 0,
            "byteOffset": 150456,
            "byteLength": 150456,
            "target": 34962
        },
        {
            "buffer": 0,
            "byteOffset": 300912,
            "byteLength": 91776,
            "target": 34963
        }
    ],
    "materials": [
        {
            "name": "DefaultMaterial",
            "pbrMetallicRoughness": {
                "metallicFactor": 0.0
            },
            "extensions": {
                "KHR_materials_specular": {
                    "specularFactor": 1.0
                }
            }
        }
    ],
    "meshes": [
        {
            "name": "OpenSCAD_Model",
            "primitives": [
                {
                    "mode": 4,
                    "material": 0,
                    "indices": 2,
                    "attributes": {
                        "POSITION": 0,
                        "NORMAL": 1
                    }
                }
            ]
        }
    ],
    "nodes": [
        {
            "children": [
                1
            ]
        },
        {
            "name": "OpenSCAD_Model",
            "mesh": 0
        }
    ],
    "scenes": [
        {
            "nodes": [
                0
            ]
        }
    ],
    "scene": 0
}