{
    "asset": {
        "version": "2.0",
        "generator": "Open Asset Import Library (assimp v5.4.0)"
    },
    "extensionsUsed": [
        "KHR_materials_specular",
        "KHR_materials_volume",
        "FB_ngon_encoding"
    ],
    "accessors": [
        {
            "bufferView": 0,
            "byteOffset": 0,
            "componentType": 5126,
            "count": 15537,
            "type": "VEC3",
            "max": [
                0.9708952307701111,
                0.9718886017799377,
                0.9718811511993408
            ],
            "min": [
                -0.9708952307701111,
                -0.9718886017799377,
                -0.9718811511993408
            ]
        },
        {
            "bufferView": 1,
            "byteOffset": 0,
            "componentType": 5126,
            "count": 15537,
            "type": "VEC3",
            "max": [
                0.9804180860519409,
                0.9823560118675232,
                0.9710147976875305
            ],
            "min": [
                -0.9804180860519409,
                -0.9823560118675232,
                -0.9710147976875305
            ]
        },
        {
            "bufferView": 2,
            "byteOffset": 0,
            "componentType": 5125,
            "count": 27024,
            "type": "SCALAR",
            "max": [
                15536
            ],
            "min": [
                0
            ]
        }
    ],
    "buffers": [
        {
            "byteLength": 480984,
            "uri": "sphere-2-2.bin"
        }
    ],
    "bufferViews": [
        {
            "buffer": 0,
            "byteOffset": 0,
            "byteLength": 186444,
            "target": 34962
        },
        {
            "buffer": 0,
            "byteOffset": 186444,
            "byteLength": 186444,
            "target": 34962
        },
        {
            "buffer": 0,
            "byteOffset": 372888,
            "byteLength": 108096,
            "target": 34963
        }
    ],
    "materials": [
        {
            "name": "DefaultMaterial",
            "pbrMetallicRoughness": {
                "metallicFactor": 0.0
            },
            "extensions": {
                "KHR_materials_specular": {
                    "specularFactor": 1.0
                }
            }
        }
    ],
    "meshes": [
        {
            "name": "OpenSCAD_Model",
            "primitives": [
                {
                    "mode": 4,
                    "material": 0,
                    "indices": 2,
                    "attributes": {
                        "POSITION": 0,
                        "NORMAL": 1
                    }
                }
            ]
        }
    ],
    "nodes": [
        {
            "children": [
                1
            ]
        },
        {
            "name": "OpenSCAD_Model",
            "mesh": 0
        }
    ],
    "scenes": [
        {
            "nodes": [
                0
            ]
        }
    ],
    "scene": 0
}